<svg xmlns="http://www.w3.org/2000/svg" width="40" height="40" viewBox="0 0 40 40">
    <g fill="none" fill-rule="evenodd">
        <path fill="#CE1126" d="M40 19.998C40 31.045 31.045 40 20 40 8.953 40 0 31.045 0 19.998 0 8.955 8.953 0 20 0c11.045 0 20 8.955 20 19.998"/>
        <path fill="#030001" d="M19.733 31.334c-.416-.5-1.051-1.052-.873-1.782.095-.235.307-.407.415-.645.075-.177.042-.38.037-.567-.322.34-.61.759-1.077.924-.313.13-.683.036-.932-.18-.088-.084-.165-.269-.025-.34.332-.225.815-.179 1.087-.499.292-.296.352-.731.303-1.126-.491.25-.821.851-1.421.875-.43.103-.91-.177-.964-.63.442-.26.982-.225 1.444-.434.285-.143.391-.47.325-.775-.424.155-.804.532-1.289.439-.385.045-.788-.269-.756-.667.288-.057.575-.1.858-.15.538-.132.96-.54 1.278-.975.447-.667.765-1.44.825-2.248-.013-.197-.04-.427-.193-.572-.387-.058-.568.335-.763.577-.479.705-.914 1.453-1.185 2.275-.394.003-.727-.212-1.05-.424-.185-.131-.414.005-.595.067-.547.24-1.112.412-1.66.653.201.092.401.177.605.245.23.07.491-.048.69.092.156.113.285.263.405.413.135.167.066.394.055.595-.087-.098-.175-.191-.275-.283-.224-.235-.622.097-.832-.17-.255-.34-.66-.502-1.038-.652-.115-.038-.24-.088-.362-.028-.342.182-.69.375-.953.668-.142.152-.227.355-.407.47-.183.097-.4.05-.6.099-.115.205-.222.411-.328.621-.239-.363-.062-.801.045-1.181.09-.344.485-.345.773-.369.398.032.72-.248 1.018-.463-.67 0-1.33.043-1.995.133-.246.05-.418-.153-.631-.233-.232-.017-.462.025-.692.047.108-.145.165-.36.363-.407.26-.095.542-.125.807-.195.318-.085.565.185.855.242.447.076.897.091 1.343.076-.371-.298-.775-.58-1.268-.601-.262-.007-.365-.292-.593-.372-.212-.05-.437-.03-.654-.055.074-.147.135-.362.324-.405.28-.028.563.065.856.043.232 0 .539-.015.65.229.282.478.767.778 1.242 1.028.107.053.227-.015.325-.042.64-.255 1.285-.491 1.9-.798-.16-.193-.313-.387-.467-.585.775-.405 1.585-.85 2.08-1.598.262-.395.554-.842.499-1.332-.362.527-.647 1.223-1.334 1.398-.235.147-.49-.181-.34-.378.139-.225.365-.393.455-.648.14-.262.14-.564.18-.85-.148 0-.353-.115-.45.046-.206.34-.293.744-.486 1.095-.284.51-.542 1.102-1.084 1.377-.301.093-.88-.085-.743-.5.307-.348.785-.533.992-.983.226-.437.545-.999.246-1.474-.465.397-.701.98-1.115 1.424-.545.603-1.016 1.318-1.775 1.68-.361.168-.77.295-1.165.22-.383-.047-.766-.245-.948-.589-.1-.17.045-.381.217-.42.275-.111.561.012.846.02.479.039.922-.2 1.284-.481.705-.649 1.186-1.504 1.518-2.385-.047-.055-.088-.109-.132-.164-.518.57-1.038 1.16-1.706 1.562-.44.262-.975.467-1.494.323-.396-.076-.836-.365-.836-.805.03-.276.366-.29.575-.26.528.062 1.106.114 1.59-.153.615-.345 1.036-.923 1.46-1.47.191-.31.505-.603.46-1.002-.684.35-1.174.98-1.852 1.34-.513.355-1.21.45-1.783.19-.277-.111-.479-.423-.432-.721-.068-.214.1-.407.293-.424.574.027 1.147.292 1.724.125.625-.228 1.098-.716 1.523-1.211.152-.159.243-.364.248-.582-.673.145-1.255.545-1.868.833-.352.157-.75.169-1.13.122-.403-.052-.782-.368-.84-.78-.067-.218.113-.392.295-.435.532-.11.915.4 1.44.318.895-.021 1.878-.48 2.215-1.358-.045-.045-.082-.092-.127-.137-.461.075-.868.33-1.321.452-.87.167-1.859-.013-2.484-.682-.205-.2-.096-.535.092-.706.407-.072.748.213 1.1.371.63.335 1.465.407 2.062-.04.346-.24.728-.571.711-1.033-.52.077-.973.37-1.491.435-.625.065-1.32.045-1.859-.325-.425-.26-.83-.732-.711-1.268.06-.225.358-.342.553-.2.263.188.445.488.735.656.452.327 1.043.369 1.58.33.35-.041.803.029 1.023-.325.029-.245-.14-.476-.38-.5-1.051-.171-2.075-.563-2.935-1.198-.323-.228-.61-.538-.711-.925-.08-.367.148-.847.551-.867.269 0 .422.25.54.452.644 1.077 1.865 1.653 3.052 1.903.068-.19.147-.385.242-.563.628.29 1.275.517 1.923.75.253.107.537.218.687.468.365.455.085 1.095.253 1.619.09.211.308.371.542.375.4.043.783-.249.826-.652.069-.953-.401-1.977-1.28-2.403-.525-.319-1.146-.352-1.738-.449-.402-.028-.512-.573-.912-.598-.326-.022-.67-.113-.908-.35-.098-.118-.255-.238-.24-.412.072-.088.17-.193.308-.083.254.168.392.477.675.617.354.111.725.136 1.084.056v-.24c-.139-.041-.284-.105-.435-.1-.182.059-.325.199-.495.287.036-.213 0-.503.218-.632.283-.165.637-.13.94-.196.257.003.44-.209.683-.242.485-.043.952.125 1.39.327.535.291 1.154.058 1.722.013-.19.293-.472.505-.792.642-.008.031-.023.088-.03.123.282.208.594.362.912.512-.155.116-.323.215-.497.301.21.309.56.479.914.557-.142.105-.299.192-.465.258.118.102.193.267.34.322.146.03.286.033.438.05-.06.137-.115.282-.17.428.11.012.212.015.32.015 0 0 .187-.003.297-.015-.055-.146-.107-.291-.17-.428.151-.017.293-.02.435-.05.151-.055.225-.22.346-.322-.171-.066-.325-.153-.468-.258.355-.078.708-.248.912-.557-.175-.086-.342-.185-.494-.301.317-.15.627-.304.91-.512-.01-.035-.021-.092-.033-.123-.313-.137-.598-.349-.787-.642.569.045 1.19.278 1.72-.013.439-.202.905-.37 1.39-.327.244.033.427.245.684.242.306.066.655.031.94.196.218.129.181.419.218.632-.167-.088-.312-.228-.495-.287-.15-.005-.293.059-.433.1v.24c.36.08.728.055 1.083-.056.278-.14.423-.449.673-.617.137-.11.237-.005.309.083.015.174-.145.294-.24.412-.244.237-.582.328-.91.35-.399.025-.505.57-.91.598-.592.097-1.212.13-1.739.449-.875.426-1.346 1.45-1.28 2.403.042.403.427.695.827.652.235-.004.452-.164.542-.375.168-.524-.114-1.164.255-1.619.148-.25.433-.361.686-.468.647-.233 1.295-.46 1.92-.75.1.178.175.373.244.563 1.186-.25 2.408-.826 3.051-1.903.119-.202.274-.452.54-.452.402.02.632.5.555.867-.105.387-.391.697-.713.925-.862.635-1.885 1.027-2.938 1.198-.24.024-.41.255-.379.5.22.354.674.284 1.024.325.536.039 1.128-.003 1.58-.33.288-.168.471-.468.735-.656.193-.142.493-.025.553.2.118.536-.287 1.008-.712 1.268-.538.37-1.235.39-1.858.325-.52-.065-.972-.358-1.493-.435-.017.462.368.793.716 1.033.594.447 1.43.375 2.059.04.351-.158.693-.443 1.101-.371.187.171.297.506.09.706-.621.669-1.613.849-2.483.682-.453-.122-.862-.377-1.322-.452-.045.045-.081.092-.126.137.336.878 1.323 1.337 2.218 1.358.522.082.907-.428 1.435-.318.18.043.365.217.3.435-.058.412-.44.728-.843.78-.377.047-.779.035-1.129-.122-.615-.288-1.196-.688-1.87-.833.004.218.097.423.25.582.424.495.897.983 1.522 1.211.578.167 1.152-.098 1.723-.125.197.017.362.21.299.424.041.298-.159.61-.437.721-.572.26-1.27.165-1.783-.19-.679-.36-1.17-.99-1.85-1.34-.05.399.268.692.46 1.002.421.547.843 1.125 1.458 1.47.485.267 1.063.215 1.592.153.205-.03.545-.016.575.26 0 .44-.442.729-.839.805-.52.144-1.051-.061-1.495-.323-.668-.402-1.185-.992-1.706-1.562-.042.055-.084.109-.13.164.331.881.813 1.736 1.518 2.385.363.281.805.52 1.285.481.285-.008.568-.131.847-.02.173.039.315.25.215.42-.182.344-.565.542-.947.589-.4.075-.807-.052-1.167-.22-.756-.362-1.228-1.077-1.773-1.68-.415-.444-.652-1.027-1.115-1.424-.297.475.018 1.037.245 1.474.208.45.687.635.995.983.135.415-.443.593-.747.5-.541-.275-.801-.867-1.08-1.377-.198-.351-.283-.755-.488-1.095-.1-.161-.303-.046-.452-.046.042.286.042.588.182.85.092.255.315.423.453.648.149.197-.103.525-.34.378-.686-.175-.971-.871-1.33-1.398-.06.49.237.937.497 1.332.493.748 1.303 1.193 2.08 1.598-.155.198-.308.392-.467.585.614.307 1.259.543 1.897.798.102.027.22.095.327.042.476-.25.961-.55 1.24-1.028.116-.244.42-.229.656-.229.287.022.569-.071.854-.043.186.043.25.258.321.405-.216.025-.443.005-.655.055-.225.08-.33.365-.593.372-.49.021-.893.303-1.265.601.448.015.897 0 1.342-.076.291-.057.535-.327.853-.242.272.07.55.1.808.195.197.047.255.262.365.407-.23-.022-.46-.064-.693-.047-.208.08-.382.283-.633.233-.662-.09-1.325-.133-1.994-.133.297.215.62.495 1.019.463.288.024.683.025.773.369.107.38.283.818.045 1.181-.107-.21-.213-.416-.328-.621-.197-.049-.419-.002-.602-.099-.178-.115-.262-.318-.405-.47-.263-.293-.613-.486-.953-.668-.122-.06-.245-.01-.36.028-.382.15-.785.312-1.039.652-.211.267-.61-.065-.83.17-.103.092-.191.185-.28.283-.01-.201-.078-.428.059-.595.118-.15.246-.3.403-.413.197-.14.46-.022.69-.092.202-.068.407-.153.602-.245-.542-.241-1.112-.413-1.655-.653-.185-.062-.41-.198-.597-.067-.325.212-.658.427-1.052.424-.266-.822-.705-1.57-1.186-2.275-.19-.242-.374-.635-.759-.577-.153.145-.181.375-.195.572.059.808.38 1.581.827 2.248.317.435.737.843 1.277.975.285.05.57.093.86.15.028.398-.374.712-.757.667-.488.093-.868-.284-1.292-.439-.065.305.039.632.33.775.457.209 1.002.174 1.44.434-.053.453-.533.733-.96.63-.603-.024-.933-.625-1.423-.875-.048.395.01.83.303 1.126.27.32.755.274 1.087.499.138.071.062.256-.027.34-.246.216-.616.31-.933.18-.463-.165-.752-.584-1.073-.924-.005.187-.039.39.036.567.107.238.319.41.414.645.18.73-.452 1.282-.874 1.782"/>
    </g>
</svg>
