<?xml version="1.0" encoding="utf-8"?>
<!-- Generator: Adobe Illustrator 16.0.0, SVG Export Plug-In . SVG Version: 6.00 Build 0)  -->
<!DOCTYPE svg PUBLIC "-//W3C//DTD SVG 1.0//EN" "http://www.w3.org/TR/2001/REC-SVG-20010904/DTD/svg10.dtd">
<svg version="1.0" id="Layer_1" xmlns="http://www.w3.org/2000/svg" xmlns:xlink="http://www.w3.org/1999/xlink" x="0px" y="0px"
	 width="40px" height="40px" viewBox="0 0 40 40" enable-background="new 0 0 40 40" xml:space="preserve">
<g>
	<g>
		<path fill="#D72526" d="M20.003,40c8.068,0,15.018-4.782,18.179-11.667H1.818C4.979,35.218,11.93,40,20.003,40z"/>
		<path fill="#D72526" d="M20.003,0C11.93,0,4.979,4.783,1.818,11.667h36.363C35.021,4.783,28.071,0,20.003,0z"/>
		<path fill="#FFFFFF" d="M0,20c0,2.975,0.654,5.797,1.818,8.333h36.363C39.346,25.797,40,22.975,40,20
			c0-2.974-0.654-5.794-1.818-8.333H1.818C0.654,14.206,0,17.026,0,20z"/>
	</g>
</g>
</svg>
