<?xml version="1.0" encoding="utf-8"?>
<!-- Generator: Adobe Illustrator 16.0.0, SVG Export Plug-In . SVG Version: 6.00 Build 0)  -->
<!DOCTYPE svg PUBLIC "-//W3C//DTD SVG 1.0//EN" "http://www.w3.org/TR/2001/REC-SVG-20010904/DTD/svg10.dtd">
<svg version="1.0" id="Layer_1" xmlns="http://www.w3.org/2000/svg" xmlns:xlink="http://www.w3.org/1999/xlink" x="0px" y="0px"
	 width="40px" height="40px" viewBox="0 0 40 40" enable-background="new 0 0 40 40" xml:space="preserve">
<g>
	<g>
		<path fill="#01AD68" d="M19.999,40c8.069,0,15.02-4.783,18.18-11.666H1.817C4.979,35.217,11.929,40,19.999,40z"/>
		<path fill="#0092C7" d="M19.999,0C11.929,0,4.979,4.784,1.817,11.667h36.361C35.019,4.784,28.068,0,19.999,0z"/>
		<path fill="#E90538" d="M0,20c0,2.976,0.652,5.797,1.817,8.334h36.361C39.344,25.797,40,22.976,40,20
			c0-2.974-0.656-5.795-1.821-8.333H1.817C0.652,14.205,0,17.026,0,20z"/>
		<g>
			<path fill="#FFFFFF" d="M17.336,13.138c2.066-0.323,4.181,0.479,5.682,1.879c-1.25-0.495-2.624-1.025-3.987-0.693
				c-2.539,0.397-4.63,2.688-4.778,5.261c-0.282,2.849,1.943,5.682,4.778,6.104c1.374,0.346,2.737-0.199,3.987-0.695
				c-1.994,1.92-5.186,2.527-7.713,1.312c-2.933-1.287-4.653-4.815-3.837-7.909C12.1,15.661,14.525,13.411,17.336,13.138
				L17.336,13.138z"/>
			<path fill="#FFFFFF" d="M25.16,16.479c0.023,0,0.073,0,0.096,0c0.284,0.545,0.448,1.139,0.634,1.72
				c0.654-0.232,1.285-0.531,1.928-0.793c-0.271,0.645-0.592,1.265-0.816,1.921c0.593,0.186,1.19,0.346,1.733,0.632
				c0,0.023,0,0.071,0,0.098c-0.543,0.284-1.141,0.444-1.72,0.629c0.236,0.659,0.531,1.289,0.791,1.934
				c-0.642-0.272-1.262-0.595-1.916-0.818c-0.186,0.594-0.35,1.191-0.634,1.732c-0.022,0-0.072,0-0.096,0
				c-0.287-0.541-0.448-1.139-0.635-1.721c-0.655,0.236-1.287,0.534-1.928,0.794c0.271-0.645,0.593-1.262,0.816-1.921
				c-0.595-0.186-1.191-0.346-1.733-0.629c0-0.027,0-0.075,0-0.098c0.542-0.287,1.139-0.447,1.717-0.632
				c-0.234-0.656-0.528-1.288-0.788-1.933c0.641,0.274,1.261,0.597,1.916,0.817C24.712,17.618,24.873,17.024,25.16,16.479
				L25.16,16.479z"/>
		</g>
	</g>
</g>
</svg>
