<?xml version="1.0" encoding="utf-8"?>
<!-- Generator: Adobe Illustrator 16.0.0, SVG Export Plug-In . SVG Version: 6.00 Build 0)  -->
<!DOCTYPE svg PUBLIC "-//W3C//DTD SVG 1.0//EN" "http://www.w3.org/TR/2001/REC-SVG-20010904/DTD/svg10.dtd">
<svg version="1.0" id="Layer_1" xmlns="http://www.w3.org/2000/svg" xmlns:xlink="http://www.w3.org/1999/xlink" x="0px" y="0px"
	 width="40px" height="40px" viewBox="0 0 40 40" enable-background="new 0 0 40 40" xml:space="preserve">
<g>
	<g>
		<path fill="#75AADB" d="M20.002,40c9.292,0,17.08-6.347,19.326-14.936H0.674C2.92,33.653,10.71,40,20.002,40z"/>
		<path fill="#75AADB" d="M20.002,0C10.71,0,2.92,6.346,0.674,14.934h38.654C37.082,6.346,29.294,0,20.002,0z"/>
		<path fill="#FFFFFF" d="M0.674,25.064h38.654c0.145-0.553,0.269-1.114,0.367-1.686H0.306C0.403,23.95,0.527,24.512,0.674,25.064z"
			/>
		<path fill="#FFFFFF" d="M39.695,16.623c-0.099-0.573-0.223-1.135-0.367-1.689H0.674c-0.146,0.555-0.271,1.116-0.368,1.689H39.695z
			"/>
		<path d="M0,20c0,1.153,0.12,2.276,0.306,3.379h39.39C39.883,22.276,40,21.153,40,20c0-1.154-0.117-2.278-0.305-3.377H0.306
			C0.12,17.722,0,18.846,0,20z"/>
	</g>
</g>
<g>
	<path fill="#D0D0D5" d="M0.673,14.934c-0.146,0.555-0.269,1.117-0.366,1.689h1.012c0.104-0.573,0.235-1.135,0.389-1.689H0.673z"/>
	<path fill="#D0D0D5" d="M39.327,14.934h-1.034c0.154,0.554,0.285,1.116,0.389,1.689h1.012
		C39.596,16.051,39.473,15.488,39.327,14.934z"/>
</g>
<g>
	<path fill="#D0D0D5" d="M0.672,25.064h1.035c-0.154-0.553-0.285-1.113-0.388-1.686H0.307C0.404,23.95,0.527,24.511,0.672,25.064z"
		/>
	<path fill="#D0D0D5" d="M39.693,23.379h-1.012c-0.104,0.572-0.234,1.133-0.388,1.686h1.034
		C39.473,24.511,39.596,23.95,39.693,23.379z"/>
</g>
</svg>
