<?xml version="1.0" encoding="utf-8"?>
<!-- Generator: Adobe Illustrator 16.0.0, SVG Export Plug-In . SVG Version: 6.00 Build 0)  -->
<!DOCTYPE svg PUBLIC "-//W3C//DTD SVG 1.1//EN" "http://www.w3.org/Graphics/SVG/1.1/DTD/svg11.dtd">
<svg version="1.1" id="Layer_1" xmlns="http://www.w3.org/2000/svg" xmlns:xlink="http://www.w3.org/1999/xlink" x="0px" y="0px"
	 width="40px" height="40px" viewBox="0 0 40 40" enable-background="new 0 0 40 40" xml:space="preserve">
<g>
	<g>
		<path fill="#E31937" d="M0,20.001c0,6.541,3.142,12.35,7.997,15.998V4.001C3.142,7.649,0,13.458,0,20.001z"/>
		<path fill="#E31937" d="M40,20.001c0-6.543-3.144-12.352-8.002-16v31.998C36.856,32.353,40,26.542,40,20.001z"/>
		<path fill="#FFFFFF" d="M7.997,4.001v31.998c3.345,2.512,7.499,4,12.002,4s8.656-1.488,11.999-4V4.001
			C28.655,1.489,24.502,0,19.999,0S11.342,1.491,7.997,4.001z"/>
		<path fill="#E31937" d="M19.997,31.659h0.411l-0.132-5.445c0-0.184,0.229-0.328,0.381-0.326c1.706,0.205,3.239,0.387,4.944,0.594
			l-0.433-1.486c-0.07-0.264,0.029-0.549,0.225-0.707l4.961-4.211l-1.028-0.506c-0.449-0.17-0.322-0.435-0.163-1.072l0.757-2.88
			l-2.883,0.635c-0.279,0.044-0.467-0.144-0.509-0.319l-0.373-1.355l-2.275,2.67c-0.325,0.424-0.983,0.424-0.778-0.563l0.976-5.399
			l-1.306,0.708c-0.368,0.211-0.734,0.247-0.94-0.136l-1.834-3.517l-1.83,3.517c-0.207,0.383-0.572,0.347-0.941,0.136l-1.304-0.708
			l0.975,5.399c0.202,0.987-0.452,0.987-0.776,0.563l-2.279-2.67l-0.37,1.355c-0.044,0.176-0.229,0.363-0.51,0.319l-2.883-0.635
			l0.756,2.88c0.162,0.638,0.29,0.902-0.161,1.072l-1.029,0.506l4.961,4.211c0.195,0.158,0.297,0.443,0.227,0.707l-0.435,1.486
			c1.706-0.207,3.239-0.389,4.943-0.594c0.155-0.002,0.383,0.143,0.381,0.326l-0.132,5.445H19.997z"/>
	</g>
</g>
</svg>
