<svg xmlns="http://www.w3.org/2000/svg" xmlns:xlink="http://www.w3.org/1999/xlink" width="40" height="40" viewBox="0 0 40 40">
    <defs>
        <path id="prefix__a" d="M0.001 0.152L11.665 0.152 11.665 36.512 0.001 36.512z"/>
    </defs>
    <g fill="none" fill-rule="evenodd">
        <path fill="#FFF" d="M20 0c-2.977 0-5.797.653-8.333 1.82v36.36c2.536 1.165 5.356 1.822 8.333 1.822 2.975 0 5.795-.657 8.333-1.822V1.82C25.795.653 22.975 0 20 0" transform="rotate(-180 20 20)"/>
        <g transform="rotate(-180 20 20) translate(28.333 1.668)">
            <mask id="prefix__b" fill="#fff">
                <use xlink:href="#prefix__a"/>
            </mask>
            <path fill="#FF823D" d="M11.666 18.333C11.666 10.262 6.882 3.312 0 .152v36.36c6.881-3.16 11.665-10.109 11.665-18.179" mask="url(#prefix__b)"/>
        </g>
        <path fill="#009A63" d="M0 20.002c0 8.07 4.782 15.018 11.667 18.178V1.82C4.782 4.98 0 11.93 0 20.002" transform="rotate(-180 20 20)"/>
    </g>
</svg>
