<?xml version="1.0" encoding="utf-8"?>
<!-- Generator: Adobe Illustrator 16.0.0, SVG Export Plug-In . SVG Version: 6.00 Build 0)  -->
<!DOCTYPE svg PUBLIC "-//W3C//DTD SVG 1.0//EN" "http://www.w3.org/TR/2001/REC-SVG-20010904/DTD/svg10.dtd">
<svg version="1.0" id="Layer_1" xmlns="http://www.w3.org/2000/svg" xmlns:xlink="http://www.w3.org/1999/xlink" x="0px" y="0px"
	 width="40px" height="40px" viewBox="0 0 40 40" enable-background="new 0 0 40 40" xml:space="preserve">
<g>
	<g>
		<path fill="#FFFFFF" d="M9.12,32h26.881c1.746-2.326,2.998-5.045,3.599-8H19.574L9.12,32z"/>
		<path fill="#002A8F" d="M36.001,32H9.12l-3.058,2.338C9.664,37.84,14.579,40,20,40C26.543,40,32.351,36.857,36.001,32z"/>
		<path fill="#002A8F" d="M24.799,20l-5.225,4H39.6c0.262-1.293,0.4-2.631,0.4-4c0-1.371-0.139-2.708-0.4-4H19.574L24.799,20z"/>
		<path fill="#002A8F" d="M36.001,8C32.351,3.141,26.543,0,20,0C14.579,0,9.664,2.159,6.062,5.66L9.12,8H36.001z"/>
		<path fill="#FFFFFF" d="M19.574,16H39.6c-0.601-2.956-1.853-5.675-3.599-8H9.12L19.574,16z"/>
		<path fill="#CF142B" d="M19.574,24l5.225-4l-5.225-4L9.12,8L6.062,5.66C2.324,9.294,0,14.374,0,20
			c0,5.625,2.324,10.704,6.062,14.337L9.12,32L19.574,24z M2.959,19.016h3.345l1.035-3.181l1.032,3.181h3.346l-2.706,1.969
			l1.035,3.18l-2.707-1.966l-2.705,1.966l1.033-3.18L2.959,19.016z"/>
		<polygon fill="#FFFFFF" points="4.634,24.164 7.339,22.198 10.046,24.164 9.011,20.984 11.717,19.016 8.371,19.016 7.339,15.834 
			6.304,19.016 2.959,19.016 5.667,20.984 		"/>
	</g>
</g>
</svg>
