<?xml version="1.0" encoding="utf-8"?>
<!-- Generator: Adobe Illustrator 16.0.0, SVG Export Plug-In . SVG Version: 6.00 Build 0)  -->
<!DOCTYPE svg PUBLIC "-//W3C//DTD SVG 1.0//EN" "http://www.w3.org/TR/2001/REC-SVG-20010904/DTD/svg10.dtd">
<svg version="1.0" id="Layer_1" xmlns="http://www.w3.org/2000/svg" xmlns:xlink="http://www.w3.org/1999/xlink" x="0px" y="0px"
	 width="40px" height="40px" viewBox="0 0 40 40" enable-background="new 0 0 40 40" xml:space="preserve">
<g>
	<g>
		<path fill="#FFFFFF" d="M0.631,24.999c1.352,5.254,4.785,9.669,9.37,12.318V24.999H0.631z"/>
		<path fill="#FFFFFF" d="M10.001,2.683c-4.584,2.65-8.019,7.063-9.37,12.316h9.37V2.683z"/>
		<path fill="#FFFFFF" d="M20,14.999h19.369C37.151,6.385,29.34,0.019,20.038,0H20V14.999z"/>
		<path fill="#FFFFFF" d="M20,40h0.025c9.309-0.014,17.125-6.382,19.344-15.001H20V40z"/>
		<path fill="#005696" d="M20,24.999h19.369c0.412-1.599,0.631-3.275,0.631-5c0-1.726-0.219-3.402-0.631-5H20V0l0,0
			c-3.644,0-7.058,0.979-9.999,2.683v12.316h-9.37C0.219,16.597,0,18.273,0,19.999c0,1.725,0.219,3.401,0.631,5h9.37v12.318
			c2.934,1.699,6.34,2.678,9.974,2.683H20V24.999z"/>
	</g>
</g>
</svg>
