<?xml version="1.0" encoding="utf-8"?>
<!-- Generator: Adobe Illustrator 16.0.0, SVG Export Plug-In . SVG Version: 6.00 Build 0)  -->
<!DOCTYPE svg PUBLIC "-//W3C//DTD SVG 1.0//EN" "http://www.w3.org/TR/2001/REC-SVG-20010904/DTD/svg10.dtd">
<svg version="1.0" id="Layer_1" xmlns="http://www.w3.org/2000/svg" xmlns:xlink="http://www.w3.org/1999/xlink" x="0px" y="0px"
	 width="40px" height="40px" viewBox="0 0 40 40" enable-background="new 0 0 40 40" xml:space="preserve">
<g>
	<g>
		<g>
			<path fill="#0047BA" d="M20.001,40c8.07,0,15.018-4.782,18.18-11.665H1.82C4.981,35.218,11.932,40,20.001,40z"/>
			<path fill="#0047BA" d="M20.001,0C11.932,0,4.981,4.785,1.82,11.667h36.362C35.02,4.785,28.071,0,20.001,0z"/>
			<path fill="#FFFFFF" d="M0,20.002c0,2.973,0.656,5.795,1.82,8.333h36.362C39.346,25.797,40,22.975,40,20.002
				c0-2.976-0.654-5.798-1.818-8.335H1.82C0.656,14.204,0,17.026,0,20.002z"/>
		</g>
		<g>
			<polygon fill="#0047BA" points="20.001,18.353 20.408,19.611 21.733,19.611 20.66,20.391 21.072,21.648 20.001,20.869 
				18.929,21.648 19.339,20.391 18.268,19.611 19.592,19.611 			"/>
			<polygon fill="#0047BA" points="28.934,14.963 29.346,16.221 30.667,16.221 29.596,16.999 30.006,18.255 28.934,17.479 
				27.865,18.255 28.273,16.999 27.203,16.221 28.526,16.221 			"/>
			<polygon fill="#0047BA" points="28.934,21.744 29.346,23.003 30.667,23.003 29.596,23.78 30.006,25.039 28.934,24.263 
				27.865,25.039 28.273,23.78 27.203,23.003 28.526,23.003 			"/>
			<polygon fill="#0047BA" points="11.063,14.963 11.474,16.221 12.799,16.221 11.729,16.999 12.135,18.255 11.063,17.479 
				9.995,18.255 10.404,16.999 9.334,16.221 10.658,16.221 			"/>
			<polygon fill="#0047BA" points="11.063,21.744 11.474,23.003 12.799,23.003 11.729,23.78 12.135,25.039 11.063,24.263 
				9.995,25.039 10.404,23.78 9.334,23.003 10.658,23.003 			"/>
		</g>
	</g>
</g>
<g>
	<path fill="#D0D0D5" d="M39,19.999c0,2.992-0.707,5.816-1.945,8.335h1.098C39.328,25.797,40,22.979,40,19.999
		s-0.671-5.795-1.846-8.332h-1.1C38.293,14.185,39,17.007,39,19.999z"/>
	<path fill="#D0D0D5" d="M1,19.999c0-2.99,0.707-5.813,1.944-8.332h-1.1C0.671,14.203,0,17.018,0,19.999
		c0,2.982,0.672,5.798,1.849,8.335h1.098C1.707,25.814,1,22.988,1,19.999z"/>
</g>
</svg>
