<?xml version="1.0" encoding="utf-8"?>
<!-- Generator: Adobe Illustrator 16.0.0, SVG Export Plug-In . SVG Version: 6.00 Build 0)  -->
<!DOCTYPE svg PUBLIC "-//W3C//DTD SVG 1.0//EN" "http://www.w3.org/TR/2001/REC-SVG-20010904/DTD/svg10.dtd">
<svg version="1.0" id="Layer_1" xmlns="http://www.w3.org/2000/svg" xmlns:xlink="http://www.w3.org/1999/xlink" x="0px" y="0px"
	 width="40px" height="40px" viewBox="0 0 40 40" enable-background="new 0 0 40 40" xml:space="preserve">
<g>
	<g>
		<path fill="#1E8943" d="M20,40c8.07,0,15.02-4.783,18.18-11.668H1.82C4.98,35.217,11.93,40,20,40z"/>
		<path fill="#F89939" d="M20,0C11.93,0,4.98,4.783,1.82,11.667h36.36C35.02,4.783,28.07,0,20,0z"/>
		<path fill="#FFFFFF" d="M0,19.998c0,2.977,0.654,5.797,1.819,8.334h36.36c1.166-2.537,1.82-5.357,1.82-8.334
			c0-2.974-0.654-5.794-1.82-8.331H1.82C0.654,14.204,0,17.024,0,19.998z"/>
		<g>
			<path fill="#21205F" d="M25.797,17.861c-0.159,0.039-0.32-0.051-0.361-0.207c-0.042-0.158,0.049-0.319,0.205-0.361
				c0.162-0.041,0.319,0.054,0.361,0.205C26.047,17.659,25.953,17.818,25.797,17.861z"/>
			<circle fill="#21205F" cx="26.152" cy="19.139" r="0.294"/>
			<path fill="#21205F" d="M26.09,21.045c-0.16-0.041-0.252-0.205-0.209-0.361c0.04-0.159,0.203-0.249,0.359-0.208
				c0.159,0.042,0.25,0.203,0.208,0.359C26.404,20.996,26.243,21.086,26.09,21.045z"/>
			<path fill="#21205F" d="M25.608,22.586c-0.14-0.084-0.187-0.262-0.107-0.404c0.083-0.141,0.264-0.189,0.403-0.105
				c0.139,0.082,0.186,0.26,0.105,0.404C25.93,22.617,25.75,22.666,25.608,22.586z"/>
			<path fill="#21205F" d="M25.797,17.861c-0.159,0.039-0.32-0.051-0.361-0.207c-0.042-0.158,0.049-0.319,0.205-0.361
				c0.162-0.041,0.319,0.054,0.361,0.205C26.047,17.659,25.953,17.818,25.797,17.861z"/>
			<circle fill="#21205F" cx="26.152" cy="19.139" r="0.294"/>
			<path fill="#21205F" d="M26.09,21.045c-0.16-0.041-0.252-0.205-0.209-0.361c0.04-0.159,0.203-0.249,0.359-0.208
				c0.159,0.042,0.25,0.203,0.208,0.359C26.404,20.996,26.243,21.086,26.09,21.045z"/>
			<path fill="#21205F" d="M25.608,22.586c-0.14-0.084-0.187-0.262-0.107-0.404c0.083-0.141,0.264-0.189,0.403-0.105
				c0.139,0.082,0.186,0.26,0.105,0.404C25.93,22.617,25.75,22.666,25.608,22.586z"/>
			<g>
				<circle fill="#21205F" cx="19.14" cy="13.845" r="0.295"/>
				<path fill="#21205F" d="M21.048,13.911c-0.044,0.154-0.207,0.249-0.358,0.208c-0.161-0.042-0.252-0.203-0.21-0.361
					c0.041-0.156,0.204-0.254,0.36-0.207C20.996,13.591,21.087,13.752,21.048,13.911z"/>
				<path fill="#21205F" d="M22.584,14.385c-0.078,0.146-0.26,0.19-0.398,0.111c-0.142-0.083-0.19-0.259-0.107-0.402
					c0.082-0.14,0.259-0.192,0.402-0.11C22.62,14.065,22.666,14.249,22.584,14.385z"/>
				<circle fill="#21205F" cx="23.743" cy="15.04" r="0.294"/>
				<circle fill="#21205F" cx="24.898" cy="16.178" r="0.294"/>
				<path fill="#21205F" d="M24.75,23.953c-0.117-0.121-0.115-0.305,0-0.418c0.113-0.117,0.299-0.117,0.414,0
					c0.115,0.113,0.115,0.297,0,0.412S24.863,24.062,24.75,23.953z"/>
				<path fill="#21205F" d="M23.564,25.043c-0.082-0.141-0.036-0.32,0.107-0.402c0.14-0.08,0.32-0.031,0.402,0.107
					c0.082,0.141,0.033,0.32-0.106,0.404C23.824,25.23,23.643,25.182,23.564,25.043z"/>
				<path fill="#21205F" d="M22.135,25.795c-0.04-0.16,0.053-0.32,0.209-0.361c0.158-0.041,0.32,0.051,0.364,0.209
					c0.039,0.158-0.054,0.318-0.21,0.359C22.337,26.043,22.181,25.947,22.135,25.795z"/>
				<path fill="#21205F" d="M20.563,26.15c0-0.164,0.133-0.293,0.293-0.293c0.165,0,0.299,0.129,0.299,0.293
					c0,0.162-0.134,0.295-0.299,0.295C20.696,26.441,20.563,26.311,20.563,26.15z"/>
				<path fill="#21205F" d="M18.953,26.088c0.041-0.16,0.205-0.25,0.36-0.209c0.156,0.039,0.249,0.203,0.208,0.361
					c-0.042,0.156-0.205,0.248-0.361,0.205C19.004,26.404,18.913,26.24,18.953,26.088z"/>
				<path fill="#21205F" d="M17.412,25.605c0.081-0.137,0.264-0.186,0.4-0.105c0.143,0.084,0.192,0.262,0.11,0.404
					c-0.083,0.139-0.26,0.186-0.403,0.104C17.379,25.928,17.334,25.746,17.412,25.605z"/>
				<path fill="#21205F" d="M16.048,24.748c0.116-0.119,0.303-0.115,0.417,0c0.117,0.111,0.117,0.301,0,0.414
					c-0.117,0.115-0.301,0.115-0.417,0C15.934,25.047,15.934,24.859,16.048,24.748z"/>
				<path fill="#21205F" d="M14.955,23.562c0.14-0.082,0.322-0.035,0.403,0.107c0.08,0.141,0.033,0.322-0.11,0.402
					c-0.14,0.082-0.319,0.029-0.4-0.107C14.766,23.822,14.813,23.643,14.955,23.562z"/>
				<path fill="#21205F" d="M14.203,22.133c0.158-0.041,0.319,0.055,0.361,0.211c0.042,0.156-0.052,0.32-0.208,0.361
					c-0.158,0.041-0.316-0.055-0.358-0.209C13.957,22.336,14.046,22.178,14.203,22.133z"/>
				<circle fill="#21205F" cx="13.846" cy="20.855" r="0.294"/>
				<path fill="#21205F" d="M13.91,18.95c0.159,0.042,0.25,0.206,0.21,0.362c-0.041,0.155-0.204,0.249-0.36,0.207
					c-0.16-0.041-0.25-0.203-0.211-0.359C13.594,19,13.756,18.909,13.91,18.95z"/>
				<path fill="#21205F" d="M14.388,17.408c0.143,0.087,0.188,0.264,0.109,0.404c-0.08,0.142-0.262,0.191-0.404,0.107
					c-0.138-0.08-0.184-0.259-0.109-0.402C14.072,17.378,14.25,17.332,14.388,17.408z"/>
				<path fill="#21205F" d="M15.249,16.045c0.116,0.117,0.116,0.302,0.001,0.419c-0.112,0.115-0.303,0.115-0.417,0
					c-0.112-0.117-0.112-0.302,0-0.417C14.95,15.93,15.138,15.93,15.249,16.045z"/>
				<path fill="#21205F" d="M16.434,14.952c0.083,0.144,0.034,0.321-0.105,0.404c-0.14,0.081-0.322,0.032-0.402-0.109
					c-0.083-0.144-0.034-0.32,0.105-0.403C16.177,14.763,16.354,14.81,16.434,14.952z"/>
				<path fill="#21205F" d="M17.861,14.202c0.042,0.156-0.054,0.315-0.207,0.359c-0.156,0.044-0.32-0.05-0.359-0.21
					c-0.042-0.156,0.049-0.313,0.205-0.361C17.661,13.955,17.822,14.043,17.861,14.202z"/>
				<g>
					<polygon fill="#21205F" points="19.87,19.978 20.045,17.52 19.854,13.814 19.681,17.524 					"/>
					<polygon fill="#21205F" points="19.87,19.978 20.677,17.647 21.448,14.023 20.324,17.556 					"/>
					<polygon fill="#21205F" points="19.87,19.978 21.253,17.935 22.938,14.633 20.936,17.756 					"/>
					<polygon fill="#21205F" points="19.87,19.978 21.734,18.365 24.217,15.61 21.477,18.105 					"/>
					<polygon fill="#21205F" points="19.87,19.978 22.086,18.901 25.198,16.88 21.907,18.584 					"/>
					<polygon fill="#21205F" points="19.87,19.978 22.291,19.511 25.82,18.367 22.197,19.16 					"/>
					<polygon fill="#21205F" points="19.87,19.978 22.33,20.156 26.033,19.96 22.33,19.79 					"/>
					<polygon fill="#21205F" points="19.87,19.978 22.202,20.786 25.833,21.559 22.297,20.435 					"/>
					<polygon fill="#21205F" points="19.87,19.978 21.914,21.361 25.217,23.045 22.095,21.045 					"/>
					<polygon fill="#21205F" points="19.87,19.978 21.484,21.844 24.241,24.326 21.744,21.584 					"/>
					<polygon fill="#21205F" points="19.87,19.978 20.949,22.199 22.969,25.309 21.266,22.016 					"/>
					<polygon fill="#21205F" points="19.87,19.978 20.338,22.402 21.484,25.928 20.69,22.307 					"/>
					<polygon fill="#21205F" points="19.87,19.978 19.694,22.441 19.889,26.145 20.062,22.441 					"/>
					<polygon fill="#21205F" points="19.87,19.978 19.065,22.311 18.291,25.939 19.417,22.404 					"/>
					<polygon fill="#21205F" points="19.87,19.978 18.489,22.021 16.807,25.326 18.805,22.201 					"/>
					<polygon fill="#21205F" points="19.87,19.978 18.008,21.594 15.527,24.348 18.265,21.854 					"/>
					<polygon fill="#21205F" points="19.87,19.978 17.654,21.057 14.54,23.076 17.838,21.373 					"/>
					<polygon fill="#21205F" points="19.87,19.978 17.451,20.45 13.922,21.592 17.547,20.8 					"/>
					<polygon fill="#21205F" points="19.87,19.978 17.412,19.8 13.708,19.998 17.412,20.168 					"/>
					<polygon fill="#21205F" points="19.87,19.978 17.539,19.172 13.915,18.404 17.444,19.526 					"/>
					<polygon fill="#21205F" points="19.87,19.978 17.827,18.596 14.523,16.914 17.646,18.914 					"/>
					<polygon fill="#21205F" points="19.87,19.978 18.255,18.118 15.501,15.634 17.998,18.374 					"/>
					<polygon fill="#21205F" points="19.87,19.978 18.792,17.763 16.771,14.651 18.477,17.945 					"/>
					<polygon fill="#21205F" points="19.87,19.978 19.404,17.558 18.255,14.029 19.049,17.654 					"/>
				</g>
				<g>
					<path fill="#21205F" d="M21.81,13.24c-3.73-1.001-7.571,1.216-8.569,4.946c-1,3.734,1.216,7.572,4.948,8.572
						c3.731,1,7.569-1.213,8.572-4.949C27.76,18.077,25.545,14.241,21.81,13.24z M18.395,25.986
						c-3.307-0.887-5.273-4.287-4.385-7.592c0.889-3.311,4.286-5.27,7.596-4.385c3.304,0.888,5.269,4.286,4.382,7.594
						C25.102,24.91,21.702,26.875,18.395,25.986z"/>
					<path fill="#21205F" d="M21.204,20.322c-0.179,0.662-0.862,1.059-1.526,0.879c-0.664-0.176-1.058-0.86-0.882-1.524
						c0.181-0.668,0.863-1.059,1.528-0.881C20.989,18.972,21.382,19.656,21.204,20.322z"/>
				</g>
				<path fill="#21205F" d="M22.584,14.385c-0.078,0.146-0.26,0.19-0.398,0.111c-0.142-0.083-0.19-0.259-0.107-0.402
					c0.082-0.14,0.259-0.192,0.402-0.11C22.62,14.065,22.666,14.249,22.584,14.385z"/>
				<circle fill="#21205F" cx="23.743" cy="15.04" r="0.294"/>
				<circle fill="#21205F" cx="24.898" cy="16.178" r="0.294"/>
				<path fill="#21205F" d="M24.75,23.953c-0.117-0.121-0.115-0.305,0-0.418c0.113-0.117,0.299-0.117,0.414,0
					c0.115,0.113,0.115,0.297,0,0.412S24.863,24.062,24.75,23.953z"/>
				<path fill="#21205F" d="M23.564,25.043c-0.082-0.141-0.036-0.32,0.107-0.402c0.14-0.08,0.32-0.031,0.402,0.107
					c0.082,0.141,0.033,0.32-0.106,0.404C23.824,25.23,23.643,25.182,23.564,25.043z"/>
				<path fill="#21205F" d="M22.135,25.795c-0.04-0.16,0.053-0.32,0.209-0.361c0.158-0.041,0.32,0.051,0.364,0.209
					c0.039,0.158-0.054,0.318-0.21,0.359C22.337,26.043,22.181,25.947,22.135,25.795z"/>
				<path fill="#21205F" d="M20.563,26.15c0-0.164,0.133-0.293,0.293-0.293c0.165,0,0.299,0.129,0.299,0.293
					c0,0.162-0.134,0.295-0.299,0.295C20.696,26.441,20.563,26.311,20.563,26.15z"/>
				<path fill="#21205F" d="M18.953,26.088c0.041-0.16,0.205-0.25,0.36-0.209c0.156,0.039,0.249,0.203,0.208,0.361
					c-0.042,0.156-0.205,0.248-0.361,0.205C19.004,26.404,18.913,26.24,18.953,26.088z"/>
				<path fill="#21205F" d="M17.412,25.605c0.081-0.137,0.264-0.186,0.4-0.105c0.143,0.084,0.192,0.262,0.11,0.404
					c-0.083,0.139-0.26,0.186-0.403,0.104C17.379,25.928,17.334,25.746,17.412,25.605z"/>
				<path fill="#21205F" d="M16.048,24.748c0.116-0.119,0.303-0.115,0.417,0c0.117,0.111,0.117,0.301,0,0.414
					c-0.117,0.115-0.301,0.115-0.417,0C15.934,25.047,15.934,24.859,16.048,24.748z"/>
				<path fill="#21205F" d="M14.955,23.562c0.14-0.082,0.322-0.035,0.403,0.107c0.08,0.141,0.033,0.322-0.11,0.402
					c-0.14,0.082-0.319,0.029-0.4-0.107C14.766,23.822,14.813,23.643,14.955,23.562z"/>
				<path fill="#21205F" d="M14.203,22.133c0.158-0.041,0.319,0.055,0.361,0.211c0.042,0.156-0.052,0.32-0.208,0.361
					c-0.158,0.041-0.316-0.055-0.358-0.209C13.957,22.336,14.046,22.178,14.203,22.133z"/>
				<circle fill="#21205F" cx="13.846" cy="20.855" r="0.294"/>
				<path fill="#21205F" d="M13.91,18.95c0.159,0.042,0.25,0.206,0.21,0.362c-0.041,0.155-0.204,0.249-0.36,0.207
					c-0.16-0.041-0.25-0.203-0.211-0.359C13.594,19,13.756,18.909,13.91,18.95z"/>
				<path fill="#21205F" d="M14.388,17.408c0.143,0.087,0.188,0.264,0.109,0.404c-0.08,0.142-0.262,0.191-0.404,0.107
					c-0.138-0.08-0.184-0.259-0.109-0.402C14.072,17.378,14.25,17.332,14.388,17.408z"/>
				<path fill="#21205F" d="M15.249,16.045c0.116,0.117,0.116,0.302,0.001,0.419c-0.112,0.115-0.303,0.115-0.417,0
					c-0.112-0.117-0.112-0.302,0-0.417C14.95,15.93,15.138,15.93,15.249,16.045z"/>
				<path fill="#21205F" d="M16.434,14.952c0.083,0.144,0.034,0.321-0.105,0.404c-0.14,0.081-0.322,0.032-0.402-0.109
					c-0.083-0.144-0.034-0.32,0.105-0.403C16.177,14.763,16.354,14.81,16.434,14.952z"/>
				<path fill="#21205F" d="M17.861,14.202c0.042,0.156-0.054,0.315-0.207,0.359c-0.156,0.044-0.32-0.05-0.359-0.21
					c-0.042-0.156,0.049-0.313,0.205-0.361C17.661,13.955,17.822,14.043,17.861,14.202z"/>
				<path fill="#21205F" d="M19.435,13.845c-0.001,0.164-0.132,0.293-0.294,0.295c-0.16,0.001-0.296-0.131-0.295-0.295
					c0-0.163,0.134-0.293,0.295-0.293C19.303,13.554,19.435,13.684,19.435,13.845z"/>
			</g>
		</g>
	</g>
</g>
</svg>
