<?xml version="1.0" encoding="utf-8"?>
<!-- Generator: Adobe Illustrator 16.0.0, SVG Export Plug-In . SVG Version: 6.00 Build 0)  -->
<!DOCTYPE svg PUBLIC "-//W3C//DTD SVG 1.0//EN" "http://www.w3.org/TR/2001/REC-SVG-20010904/DTD/svg10.dtd">
<svg version="1.0" id="Layer_1" xmlns="http://www.w3.org/2000/svg" xmlns:xlink="http://www.w3.org/1999/xlink" x="0px" y="0px"
	 width="40px" height="40px" viewBox="0 0 40 40" enable-background="new 0 0 40 40" xml:space="preserve">
<g>
	<g>
		<path d="M38.123,28.462c1.2-2.571,1.877-5.437,1.877-8.46c0-2.931-0.637-5.711-1.771-8.218l-12.6,8.376L38.123,28.462z"/>
		<path fill="#308A2A" d="M34.812,6.567C31.155,2.536,25.871,0,19.998,0C14.125,0,8.841,2.536,5.184,6.567l14.814,9.849
			L34.812,6.567z"/>
		<path d="M1.766,11.784C0.635,14.291,0,17.07,0,20.001c0,3.024,0.674,5.889,1.876,8.46l12.49-8.302L1.766,11.784z"/>
		<path fill="#308A2A" d="M34.631,33.628l-14.633-9.727L5.365,33.628C9.019,37.547,14.22,40,19.998,40
			C25.774,40,30.979,37.547,34.631,33.628z"/>
		<path fill="#F9DA00" d="M34.631,33.628c1.416-1.521,2.599-3.262,3.492-5.166L25.63,20.16l12.6-8.376
			c-0.864-1.92-2.021-3.677-3.417-5.216l-14.814,9.849L5.184,6.567c-1.396,1.54-2.552,3.296-3.418,5.216l12.601,8.376l-12.49,8.302
			c0.889,1.904,2.072,3.646,3.488,5.166l14.633-9.727L34.631,33.628z"/>
	</g>
</g>
</svg>
