<?xml version="1.0" encoding="utf-8"?>
<!-- Generator: Adobe Illustrator 16.0.0, SVG Export Plug-In . SVG Version: 6.00 Build 0)  -->
<!DOCTYPE svg PUBLIC "-//W3C//DTD SVG 1.0//EN" "http://www.w3.org/TR/2001/REC-SVG-20010904/DTD/svg10.dtd">
<svg version="1.0" id="Layer_1" xmlns="http://www.w3.org/2000/svg" xmlns:xlink="http://www.w3.org/1999/xlink" x="0px" y="0px"
	 width="40px" height="40px" viewBox="0 0 40 40" enable-background="new 0 0 40 40" xml:space="preserve">
<g>
	<g>
		<g>
			<path fill="#007A3D" d="M3.361,31.092C6.948,36.463,13.059,40,20.001,40c8.669,0,16.031-5.529,18.806-13.244H9.867L3.361,31.092z
				"/>
			<path fill="#FFFFFF" d="M20.001,20L9.867,26.756h28.94C39.563,24.643,40,22.373,40,20c0-2.376-0.437-4.642-1.193-6.758H9.867
				L20.001,20z"/>
			<path d="M38.806,13.243C36.028,5.528,28.67,0,20.001,0C13.06,0,6.949,3.54,3.362,8.907l6.505,4.336H38.806z"/>
			<rect x="9.867" y="13.242" width="28.939" height="0.001"/>
			<path fill="#CE1126" d="M9.867,13.243L9.867,13.243L3.362,8.907c-0.894,1.338-1.61,2.797-2.166,4.336c0,0,0,0-0.001,0
				C0.437,15.359,0,17.625,0,20c0,2.373,0.437,4.642,1.195,6.755c0.556,1.537,1.272,2.998,2.166,4.336l6.506-4.336L20.001,20
				L9.867,13.243z"/>
		</g>
		<polygon fill="#FFFFFF" points="7.271,17.657 7.778,19.077 9.198,18.584 8.407,19.863 9.675,20.668 8.181,20.848 8.338,22.342 
			7.271,21.285 6.201,22.342 6.361,20.848 4.871,20.668 6.136,19.863 5.343,18.584 6.767,19.077 		"/>
	</g>
</g>
</svg>
