<?xml version="1.0" encoding="utf-8"?>
<!-- Generator: Adobe Illustrator 16.0.0, SVG Export Plug-In . SVG Version: 6.00 Build 0)  -->
<!DOCTYPE svg PUBLIC "-//W3C//DTD SVG 1.0//EN" "http://www.w3.org/TR/2001/REC-SVG-20010904/DTD/svg10.dtd">
<svg version="1.0" id="Layer_1" xmlns="http://www.w3.org/2000/svg" xmlns:xlink="http://www.w3.org/1999/xlink" x="0px" y="0px"
	 width="40px" height="40px" viewBox="0 0 40 40" enable-background="new 0 0 40 40" xml:space="preserve">
<g>
	<g>
		<path fill="#006600" d="M38.477,27.666H24.709c-0.056,0.105-0.112,0.21-0.173,0.317l3.439,5.696l-0.483,0.268l-3.269-5.417
			c-1.126,1.893-2.747,3.943-3.942,4.24l0,0l0,0c-0.098,0.024-0.19,0.042-0.279,0.042c-0.092,0-0.186-0.018-0.282-0.042l0,0l0,0
			c-1.197-0.297-2.815-2.348-3.941-4.24l-3.271,5.417l-0.481-0.268l3.438-5.696c-0.062-0.107-0.117-0.213-0.173-0.317H1.525
			C4.533,34.905,11.672,40,20.002,40S35.471,34.905,38.477,27.666z"/>
		<path fill="#BB0000" d="M25.573,25.666h13.608C39.714,23.869,40,21.968,40,20c0-1.969-0.288-3.871-0.818-5.667H25.573
			C26.916,18.161,26.916,21.838,25.573,25.666z"/>
		<path fill="#BB0000" d="M14.426,14.333H0.818C0.288,16.129,0,18.031,0,20c0,1.968,0.288,3.869,0.818,5.666h13.607
			C13.084,21.838,13.084,18.161,14.426,14.333z"/>
		<path fill="#BB0000" d="M14.973,25.666h0.003c0.681-1.89,1.116-3.778,1.116-5.666c0-1.888-0.436-3.779-1.116-5.667h-0.003
			C16.311,18.164,16.311,21.833,14.973,25.666z"/>
		<path fill="#BB0000" d="M25.027,14.333h-0.003c-0.681,1.888-1.116,3.779-1.116,5.667c0,1.888,0.436,3.776,1.116,5.666h0.003
			C23.689,21.833,23.689,18.164,25.027,14.333z"/>
		<path d="M12.859,10.767c-0.281-0.462-1.881-4.713-1.881-4.713s3.05,3.452,3.326,3.913c0.42,0.693,0.84,1.387,0.634,2.116
			l0.151,0.252h0.201c1.098-2.079,3.046-4.764,4.429-5.106l0,0l0,0c0.097-0.021,0.19-0.041,0.282-0.041
			c0.089,0,0.182,0.02,0.279,0.041l0,0l0,0c1.381,0.342,3.33,3.031,4.428,5.106h0.201l0.151-0.252
			c-0.206-0.729,0.214-1.422,0.634-2.116c0.278-0.46,3.328-3.913,3.328-3.913s-1.602,4.251-1.88,4.713
			c-0.413,0.679-0.822,1.356-1.555,1.567h12.886C35.467,5.093,28.33,0,20.002,0C11.672,0,4.536,5.093,1.526,12.334h12.885
			C13.68,12.123,13.267,11.445,12.859,10.767z"/>
		<path fill="#FFFFFF" d="M14.976,14.333c-0.088-0.246-0.179-0.49-0.276-0.737c0.098,0.248,0.187,0.492,0.273,0.737H14.976z"/>
		<path fill="#FFFFFF" d="M14.699,13.595c0.062-0.154,0.133-0.319,0.211-0.493l-0.455-0.753c-0.017-0.003-0.029-0.011-0.044-0.015
			H1.526c-0.27,0.649-0.506,1.317-0.708,1.999h13.607C14.512,14.087,14.602,13.843,14.699,13.595z"/>
		<path fill="#FFFFFF" d="M25.027,14.333c0.088-0.246,0.178-0.49,0.273-0.737c-0.094,0.248-0.186,0.492-0.276,0.737H25.027z"/>
		<path fill="#FFFFFF" d="M24.91,12.334h-0.201c0.032,0.059,0.062,0.119,0.093,0.179L24.91,12.334z"/>
		<path fill="#FFFFFF" d="M25.545,12.349l-0.455,0.753c0.079,0.174,0.152,0.339,0.211,0.493c0.097,0.248,0.188,0.492,0.272,0.737
			h13.608c-0.204-0.682-0.437-1.349-0.707-1.999H25.589C25.573,12.337,25.562,12.345,25.545,12.349z"/>
		<path fill="#FFFFFF" d="M15.291,12.334H15.09l0.107,0.179C15.228,12.455,15.259,12.394,15.291,12.334z"/>
		<path fill="#FFFFFF" d="M14.699,26.404c-0.098-0.247-0.188-0.493-0.273-0.738H0.818c0.202,0.682,0.438,1.349,0.707,2h13.766
			C15.047,27.205,14.844,26.774,14.699,26.404z"/>
		<path fill="#FFFFFF" d="M14.973,25.666c-0.085,0.245-0.176,0.491-0.273,0.738c0.098-0.245,0.188-0.493,0.276-0.738H14.973z"/>
		<path fill="#FFFFFF" d="M25.024,25.666c0.091,0.245,0.183,0.493,0.276,0.738c-0.096-0.247-0.186-0.493-0.273-0.738H25.024z"/>
		<path fill="#FFFFFF" d="M25.301,26.404c-0.143,0.37-0.348,0.801-0.592,1.262h13.768c0.269-0.651,0.503-1.318,0.705-2H25.573
			C25.488,25.911,25.397,26.157,25.301,26.404z"/>
		<path fill="#FFFFFF" d="M27.492,33.947l0.483-0.268l-3.439-5.696c-0.101,0.181-0.203,0.361-0.312,0.547L27.492,33.947z"/>
		<path fill="#FFFFFF" d="M12.026,33.68l0.481,0.268l3.271-5.417c-0.111-0.186-0.215-0.368-0.314-0.547L12.026,33.68z"/>
		<path fill="#FFFFFF" d="M25.09,13.102l0.455-0.753c0.017-0.003,0.028-0.011,0.044-0.015c0.732-0.211,1.142-0.889,1.555-1.567
			c0.278-0.462,1.88-4.713,1.88-4.713s-3.05,3.452-3.328,3.913c-0.42,0.693-0.84,1.387-0.634,2.116l-0.151,0.252l-0.108,0.179
			C24.907,12.718,25.005,12.915,25.09,13.102z"/>
		<path fill="#FFFFFF" d="M15.09,12.334l-0.151-0.252c0.206-0.729-0.214-1.422-0.634-2.116c-0.276-0.46-3.326-3.913-3.326-3.913
			s1.6,4.251,1.881,4.713c0.407,0.679,0.82,1.356,1.552,1.567c0.015,0.003,0.027,0.011,0.044,0.015l0.455,0.753
			c0.085-0.187,0.183-0.384,0.287-0.589L15.09,12.334z"/>
		<path fill="#BB0000" d="M25.301,26.404c-0.094-0.245-0.186-0.493-0.276-0.738c-0.681-1.89-1.116-3.778-1.116-5.666
			c0-1.888,0.436-3.779,1.116-5.667c0.091-0.246,0.183-0.49,0.276-0.737c-0.059-0.154-0.132-0.319-0.211-0.493
			c-0.085-0.187-0.183-0.384-0.288-0.589c-0.031-0.061-0.061-0.121-0.093-0.179c-1.098-2.075-3.047-4.764-4.428-5.106
			c1.589,3.293,1.589,7.918,0,11.213c0-3.739,0-7.478,0-11.213c-0.098-0.021-0.19-0.041-0.279-0.041
			c-0.092,0-0.186,0.02-0.282,0.041c0,3.735,0,7.474,0,11.213c-1.59-3.294-1.592-7.92,0-11.213
			c-1.383,0.342-3.331,3.027-4.429,5.106c-0.032,0.06-0.063,0.121-0.094,0.179c-0.104,0.205-0.202,0.402-0.287,0.589
			c-0.078,0.174-0.149,0.339-0.211,0.493c0.098,0.248,0.188,0.492,0.276,0.737c0.681,1.888,1.116,3.779,1.116,5.667
			c0,1.888-0.436,3.776-1.116,5.666c-0.088,0.245-0.179,0.493-0.276,0.738c0.145,0.37,0.348,0.801,0.592,1.262
			c0.056,0.104,0.111,0.21,0.173,0.317c0.1,0.179,0.203,0.361,0.314,0.547c1.126,1.893,2.744,3.943,3.941,4.24
			c-1.592-3.291-1.59-7.919,0-11.208c0,3.735,0,7.473,0,11.208c0.097,0.024,0.19,0.042,0.282,0.042c0.089,0,0.182-0.018,0.279-0.042
			c0-3.735,0-7.473,0-11.208c1.589,3.289,1.589,7.917,0,11.208c1.195-0.297,2.816-2.348,3.942-4.24
			c0.109-0.186,0.212-0.366,0.312-0.547c0.061-0.107,0.117-0.212,0.173-0.317C24.953,27.205,25.158,26.774,25.301,26.404z
			 M20.002,21.604c-1.508,0-1.508-3.207,0-3.207C21.506,18.397,21.506,21.604,20.002,21.604z"/>
		<path d="M25.027,25.666c0.088,0.245,0.178,0.491,0.273,0.738c0.097-0.247,0.188-0.493,0.272-0.738
			c1.343-3.828,1.343-7.505,0-11.333c-0.085-0.246-0.176-0.49-0.272-0.737c-0.096,0.248-0.186,0.492-0.273,0.737
			C23.689,18.164,23.689,21.833,25.027,25.666z"/>
		<path d="M14.973,14.333c-0.087-0.246-0.176-0.49-0.273-0.737c-0.098,0.248-0.188,0.492-0.273,0.737
			c-1.342,3.828-1.342,7.505,0,11.333c0.086,0.245,0.176,0.491,0.273,0.738c0.098-0.247,0.188-0.493,0.273-0.738
			C16.311,21.833,16.311,18.164,14.973,14.333z"/>
		<path fill="#FFFFFF" d="M20.002,18.397c-1.508,0-1.508,3.207,0,3.207C21.506,21.604,21.506,18.397,20.002,18.397z"/>
		<path fill="#FFFFFF" d="M20.281,21.562c0,3.735,0,7.473,0,11.208l0,0l0,0C21.87,29.479,21.87,24.852,20.281,21.562z"/>
		<path fill="#FFFFFF" d="M19.72,18.441c0-3.739,0-7.478,0-11.213l0,0l0,0C18.128,10.521,18.13,15.146,19.72,18.441z"/>
		<path fill="#FFFFFF" d="M19.72,21.562c-1.59,3.289-1.592,7.917,0,11.208l0,0l0,0C19.72,29.035,19.72,25.298,19.72,21.562z"/>
		<path fill="#FFFFFF" d="M20.281,18.441c1.589-3.294,1.589-7.92,0-11.213l0,0l0,0C20.281,10.963,20.281,14.702,20.281,18.441z"/>
	</g>
</g>
</svg>
