<svg width="40" height="40" viewBox="0 0 40 40" xmlns="http://www.w3.org/2000/svg" xmlns:xlink="http://www.w3.org/1999/xlink">
    <defs>
        <path d="M20 40C8.955 40 0 31.046 0 20 0 8.956 8.954 0 20 0s20 8.956 20 20c0 11.046-8.954 20-20 20z" id="c29uxj6zda"/>
    </defs>
    <g fill="none" fill-rule="evenodd">
        <mask id="l06m4016bb" fill="#fff">
            <use xlink:href="#c29uxj6zda"/>
        </mask>
        <use fill="#C8102E" xlink:href="#c29uxj6zda"/>
        <g mask="url(#l06m4016bb)" fill-rule="nonzero">
            <path fill="red" d="M0 0h40v40H0z"/>
            <path d="M17.476 17.285a14.296 14.296 0 0 0-2.36-1.163 6.428 6.428 0 0 0-.817 5.543c.34-.779.772-1.535 1.294-2.258a12.568 12.568 0 0 1 1.883-2.122zm-1.997-1.637c.885.305 1.736.7 2.553 1.163.182-.158.375-.294.556-.43a14.805 14.805 0 0 0-2.723-1.151 4.433 4.433 0 0 0-.386.418zm.794-.802c1.022.271 1.997.644 2.916 1.13.216-.136.432-.26.636-.385a14.104 14.104 0 0 0-3.075-1.117c-.17.113-.329.237-.477.372zm.965-.677c1.123.226 2.212.587 3.234 1.084a13.794 13.794 0 0 1 3.233-1.084 6.38 6.38 0 0 0-3.233-.87 6.41 6.41 0 0 0-3.234.87zm6.955.316c-1.066.248-2.099.62-3.075 1.106.216.124.42.249.636.384.93-.485 1.906-.858 2.916-1.129a2.937 2.937 0 0 0-.477-.361zm.885.756c-.942.283-1.85.666-2.723 1.14.193.136.386.283.567.43a14.764 14.764 0 0 1 2.542-1.163 2.609 2.609 0 0 0-.386-.407zm.75.892c-.818.305-1.6.689-2.35 1.152.693.62 1.317 1.332 1.884 2.122.51.723.942 1.48 1.293 2.258.182-.62.284-1.253.284-1.919a6.365 6.365 0 0 0-1.112-3.613zm-.557 4.426a13.616 13.616 0 0 0-2.405-2.89c-.205.146-.42.293-.613.44a13.873 13.873 0 0 1 3.551 5.284c.182-.271.352-.554.488-.836a15.1 15.1 0 0 0-1.02-1.998zm-3.597-2.936c.205-.146.409-.293.624-.429-.181-.158-.374-.304-.567-.451-.216.135-.431.27-.647.418h.012c.193.146.385.304.578.462zm-1.202-.903c.215-.135.442-.27.646-.395-.215-.135-.43-.27-.646-.395-.216.124-.42.26-.636.395.216.124.42.26.636.395zm-.613.44c-.216-.146-.42-.282-.635-.417l-.58.44c.216.147.42.282.625.43.193-.159.386-.306.59-.452zm.613.452c-.193.147-.386.305-.59.474.204.158.397.328.59.497.193-.17.385-.339.59-.497-.193-.158-.386-.327-.59-.474zm0 2.111a14.26 14.26 0 0 0-2.236 3.173 13.62 13.62 0 0 0-.998 2.438 6.63 6.63 0 0 0 3.234.847 6.63 6.63 0 0 0 3.233-.847 13.62 13.62 0 0 0-.998-2.438 13.9 13.9 0 0 0-2.235-3.173zm-3.745 4.28a14.413 14.413 0 0 1 3.166-4.867c-.193-.18-.386-.35-.59-.53a14.264 14.264 0 0 0-3.563 5.52c.216.238.443.452.692.655.091-.26.193-.52.295-.779zm4.323-4.867a14.613 14.613 0 0 1 3.46 5.645c.25-.203.489-.417.704-.655a14.419 14.419 0 0 0-3.574-5.52c-.204.18-.397.35-.59.53zm-5.911 4.257a13.729 13.729 0 0 1 3.563-5.273 12.523 12.523 0 0 0-.624-.451 13.971 13.971 0 0 0-2.406 2.901c-.397.644-.737 1.31-1.021 1.987.136.294.306.565.488.836zm5.367-10.613c3.994 0 7.25 3.24 7.25 7.214s-3.256 7.215-7.25 7.215-7.25-3.24-7.25-7.215c0-3.974 3.256-7.214 7.25-7.214zm3.2-1.58a4.262 4.262 0 0 0-.659 1.027.681.681 0 0 1-.022-.43c.056-.518.204-.835.476-1.275.09-.158.182-.293.227-.463.17-.508.136-1.185-.238-1.716a2.178 2.178 0 0 1-.33 1.4c-.033.057-.067.09-.113.136-.215.214-.454.429-.76.925-.17.271-.34.599-.5 1.118a.675.675 0 0 1-.079-.406c-.022-.531.068-.858.261-1.344.068-.17.137-.316.16-.497.079-.519-.058-1.185-.511-1.648.147.576.056 1.095-.103 1.434-.034.056-.056.102-.09.147-.182.248-.375.496-.613 1.027a4.914 4.914 0 0 0-.306 1.185.646.646 0 0 1-.148-.395c-.102-.519-.068-.858.046-1.366.045-.17.09-.327.079-.508 0-.53-.238-1.163-.76-1.558.238.553.227 1.084.125 1.445-.023.045-.046.102-.068.147-.137.282-.295.553-.443 1.118a4.906 4.906 0 0 0-.125 1.22.864.864 0 0 1-.204-.362c-.182-.508-.204-.836-.159-1.366.011-.18.023-.339 0-.508-.09-.53-.431-1.118-.998-1.423.317.508.385 1.039.34 1.4l-.034.17c-.09.293-.204.587-.261 1.174-.023.316-.034.688.068 1.219a.84.84 0 0 1-.26-.327c-.262-.475-.33-.802-.375-1.321-.012-.181-.023-.34-.091-.508-.159-.508-.59-1.04-1.203-1.242.397.44.556.948.556 1.32 0 .057 0 .113-.011.17-.046.305-.102.62-.068 1.197.034.316.08.688.26 1.196a.835.835 0 0 1-.317-.282c-.329-.418-.442-.734-.567-1.242-.046-.18-.08-.327-.17-.496-.239-.463-.75-.926-1.385-1.04.454.385.692.87.76 1.231a.85.85 0 0 1 .012.17c.011.305 0 .62.125 1.197.08.304.181.666.442 1.128a.813.813 0 0 1-.352-.225c-.397-.362-.567-.655-.76-1.14a2.233 2.233 0 0 0-.238-.463c-.318-.418-.885-.79-1.543-.802.522.305.828.734.953 1.084l.034.17c.057.304.09.62.306 1.162.125.294.295.632.624 1.05-.136-.011-.26-.08-.385-.17-.443-.293-.659-.564-.942-1.004a1.59 1.59 0 0 0-.307-.418c-.374-.372-.998-.655-1.645-.564.556.225.93.61 1.112.937.023.045.046.101.068.158.102.282.182.587.477 1.095.17.27.386.576.783.948a.928.928 0 0 1-.409-.113c-.488-.226-.737-.451-1.078-.846-.124-.136-.227-.26-.374-.373-.431-.305-1.09-.486-1.713-.294.59.136 1.02.452 1.236.746.046.045.068.09.091.146.148.271.284.565.658 1.005.204.248.465.52.908.824a.82.82 0 0 1-.42-.056c-.51-.136-.794-.328-1.191-.666a2.845 2.845 0 0 0-.42-.305c-.477-.237-1.157-.305-1.747-.023a2.226 2.226 0 0 1 1.35.542c.034.045.068.08.102.136.193.237.363.508.806.892a4.64 4.64 0 0 0 1.032.666.752.752 0 0 1-.42.011c-.533-.056-.84-.203-1.293-.474-.16-.09-.295-.18-.465-.226-.511-.17-1.18-.135-1.714.237.59-.056 1.1.124 1.407.328.046.033.091.067.125.112.227.215.443.452.93.757.273.17.613.35 1.124.497a.78.78 0 0 1-.409.09c-.533.011-.862-.08-1.35-.271-.17-.068-.318-.136-.5-.158-.521-.08-1.19.056-1.656.508.579-.147 1.112-.057 1.441.102.057.033.102.056.148.09.25.18.499.372 1.044.61.295.112.646.237 1.18.304a.647.647 0 0 1-.386.147c-.533.113-.863.068-1.384-.045a1.928 1.928 0 0 0-.511-.08c-.533 0-1.169.238-1.554.757a2.203 2.203 0 0 1 1.44-.124c.057.023.103.045.16.068.272.135.555.293 1.123.44.306.068.68.136 1.214.124a.87.87 0 0 1-.363.204c-.5.18-.84.203-1.362.158-.181-.012-.34-.023-.522 0-.522.09-1.112.429-1.418 1.004a2.153 2.153 0 0 1 1.407-.35c.057.012.102.023.159.034.295.102.59.204 1.18.26.317.023.692.034 1.225-.068a.842.842 0 0 1-.329.26c-.465.26-.806.327-1.328.373-.181.022-.34.033-.51.09a1.976 1.976 0 0 0-1.248 1.197 2.19 2.19 0 0 1 1.339-.554c.056 0 .113 0 .17.012.295.045.613.101 1.203.067a4.231 4.231 0 0 0 1.191-.26c-.045.125-.148.227-.284.317-.42.327-.737.44-1.248.564-.17.045-.329.08-.488.17-.476.237-.93.745-1.044 1.377.375-.452.863-.689 1.226-.756.057-.012.113-.012.17-.012.306-.011.635 0 1.203-.124.306-.079.67-.18 1.146-.44a.776.776 0 0 1-.239.35c-.363.395-.658.564-1.146.756-.158.08-.306.136-.453.237-.432.316-.806.88-.817 1.536.306-.52.749-.824 1.1-.949.057-.01.102-.022.16-.033.305-.057.623-.09 1.168-.305a5.012 5.012 0 0 0 1.066-.61.812.812 0 0 1-.181.373c-.295.44-.556.654-1.01.937-.148.09-.284.169-.42.305a1.984 1.984 0 0 0-.556 1.637c.216-.554.602-.926.93-1.107.057-.022.103-.045.16-.068.294-.09.6-.18 1.1-.474a4.52 4.52 0 0 0 .953-.779.694.694 0 0 1-.113.407c-.227.485-.454.733-.851 1.072-.136.124-.261.226-.363.373-.307.429-.488 1.084-.295 1.705.124-.588.442-1.017.748-1.231a.947.947 0 0 1 .137-.09c.272-.147.567-.283 1.02-.655a4.49 4.49 0 0 0 .818-.903.912.912 0 0 1-.046.417c-.147.508-.329.79-.68 1.186-.114.135-.216.26-.295.429-.239.474-.318 1.14-.034 1.727.045-.598.295-1.072.555-1.332a.594.594 0 0 1 .125-.113c.25-.192.51-.361.897-.802.204-.237.43-.541.67-1.027a.855.855 0 0 1 .022.418c-.068.53-.204.835-.477 1.287a1.993 1.993 0 0 0-.238.463c-.159.508-.125 1.185.25 1.716-.057-.599.113-1.107.329-1.411.034-.046.068-.09.102-.125.215-.225.454-.44.771-.925.16-.271.34-.61.488-1.118a.77.77 0 0 1 .091.406c.023.531-.068.858-.272 1.344-.068.17-.125.316-.16.497-.079.519.058 1.185.511 1.648-.147-.576-.056-1.107.114-1.434a.607.607 0 0 1 .08-.147c.18-.248.385-.496.612-1.038.125-.294.25-.644.318-1.174.08.101.124.237.147.383.102.531.068.858-.057 1.378a1.9 1.9 0 0 0-.079.508c0 .53.25 1.163.772 1.546-.239-.541-.239-1.072-.125-1.433.011-.057.034-.102.056-.158.137-.271.295-.554.443-1.118.068-.305.136-.677.125-1.208.102.09.159.214.204.361.193.497.204.836.17 1.366-.022.17-.034.328 0 .508.08.53.42 1.118.999 1.423-.318-.508-.397-1.039-.34-1.4 0-.057.01-.113.033-.17.091-.293.205-.587.261-1.174a5.44 5.44 0 0 0-.068-1.219.956.956 0 0 1 .261.327c.261.463.33.802.375 1.321a1.9 1.9 0 0 0 .08.508c.17.508.59 1.028 1.213 1.242-.397-.451-.556-.96-.567-1.332 0-.056 0-.113.011-.17.046-.293.114-.609.068-1.196a4.513 4.513 0 0 0-.25-1.185.797.797 0 0 1 .307.282c.329.418.454.734.579 1.242.034.17.079.327.158.485.25.474.75.926 1.396 1.039-.465-.373-.703-.858-.771-1.22-.012-.056-.012-.112-.012-.169 0-.305.012-.62-.113-1.197a4.666 4.666 0 0 0-.454-1.14c.136.034.25.124.352.237.397.362.567.655.771 1.14.068.159.125.305.238.452.318.43.885.802 1.532.813-.51-.305-.817-.745-.942-1.095a.828.828 0 0 1-.045-.158c-.045-.305-.09-.621-.306-1.163a4.278 4.278 0 0 0-.613-1.05.693.693 0 0 1 .386.17c.442.293.658.553.93 1.004.09.147.182.294.307.418.374.372.998.643 1.645.553-.556-.214-.93-.598-1.1-.926a.477.477 0 0 1-.069-.158c-.102-.293-.193-.598-.488-1.095a4.768 4.768 0 0 0-.771-.948c.124 0 .26.034.408.113.477.226.738.451 1.078.846.113.136.216.26.363.362.431.316 1.09.485 1.713.305-.578-.136-1.01-.452-1.236-.757-.034-.045-.068-.09-.091-.135-.148-.271-.272-.565-.647-1.016a4.97 4.97 0 0 0-.919-.813.91.91 0 0 1 .42.045c.51.147.794.339 1.203.677.136.113.26.215.42.294.476.237 1.145.316 1.735.034-.601-.045-1.066-.294-1.338-.554-.046-.033-.08-.079-.114-.124-.182-.248-.363-.508-.794-.892a5.254 5.254 0 0 0-1.033-.666.859.859 0 0 1 .42-.022c.522.067.84.203 1.282.485.16.09.295.17.465.226.511.158 1.192.124 1.725-.248-.601.056-1.1-.113-1.407-.328l-.136-.101c-.216-.215-.431-.452-.93-.768a4.498 4.498 0 0 0-1.124-.486.807.807 0 0 1 .409-.09c.544-.022.873.068 1.35.271.17.068.318.124.5.158.521.08 1.19-.056 1.656-.508-.579.147-1.1.057-1.441-.113-.046-.022-.102-.045-.148-.079-.25-.18-.499-.372-1.032-.61a5.317 5.317 0 0 0-1.192-.316.834.834 0 0 1 .398-.146c.521-.102.862-.068 1.372.056.17.045.33.08.511.08.533 0 1.169-.25 1.566-.757-.556.225-1.09.225-1.441.113a.658.658 0 0 1-.159-.057c-.284-.135-.556-.293-1.123-.44a4.914 4.914 0 0 0-1.226-.124c.091-.102.216-.158.363-.204.511-.192.851-.203 1.373-.169.182.023.34.034.522 0 .522-.079 1.112-.418 1.418-.993-.51.316-1.032.395-1.406.35-.057-.012-.114-.023-.17-.046-.296-.09-.59-.203-1.17-.26a4.986 4.986 0 0 0-1.225.08.723.723 0 0 1 .33-.271c.465-.26.794-.328 1.315-.373.182-.011.34-.022.511-.079.51-.17 1.044-.587 1.248-1.208-.442.395-.953.553-1.327.565-.057 0-.114 0-.17-.012-.307-.045-.625-.113-1.203-.067a4.376 4.376 0 0 0-1.203.26.833.833 0 0 1 .284-.317c.42-.327.737-.451 1.248-.576.181-.033.329-.079.499-.158.465-.248.93-.745 1.044-1.388-.386.463-.862.7-1.237.767-.057.012-.113.012-.17.012-.306 0-.624-.012-1.191.113a4.39 4.39 0 0 0-1.146.451.697.697 0 0 1 .227-.35c.363-.395.658-.564 1.146-.768.17-.067.317-.124.465-.237.42-.316.794-.88.805-1.524-.306.508-.737.813-1.089.937a.949.949 0 0 1-.17.045c-.306.057-.624.09-1.169.305a4.769 4.769 0 0 0-1.055.61.82.82 0 0 1 .17-.384c.295-.44.567-.655 1.01-.926.159-.09.295-.18.42-.305.374-.372.658-.993.567-1.637-.227.554-.613.926-.942 1.107a.79.79 0 0 1-.147.056c-.295.102-.601.192-1.112.486-.272.17-.579.384-.953.767 0-.124.045-.26.113-.395.227-.485.454-.733.851-1.083.136-.113.261-.215.375-.362.306-.429.488-1.084.295-1.705-.136.576-.454 1.005-.75 1.231-.045.034-.09.068-.147.09-.272.147-.567.271-1.01.644-.25.214-.521.474-.816.914a.685.685 0 0 1 .045-.417c.147-.508.329-.79.67-1.197.113-.136.226-.248.306-.418.238-.474.306-1.14.022-1.727-.034.598-.283 1.061-.544 1.332-.046.045-.08.08-.125.113-.25.18-.522.361-.908.802z" fill="#FF0"/>
        </g>
    </g>
</svg>
