<?xml version="1.0" encoding="utf-8"?>
<!-- Generator: Adobe Illustrator 16.0.0, SVG Export Plug-In . SVG Version: 6.00 Build 0)  -->
<!DOCTYPE svg PUBLIC "-//W3C//DTD SVG 1.0//EN" "http://www.w3.org/TR/2001/REC-SVG-20010904/DTD/svg10.dtd">
<svg version="1.0" id="Layer_1" xmlns="http://www.w3.org/2000/svg" xmlns:xlink="http://www.w3.org/1999/xlink" x="0px" y="0px"
	 width="40px" height="40px" viewBox="0 0 40 40" enable-background="new 0 0 40 40" xml:space="preserve">
<g>
	<g>
		<g>
			<path fill="#F93F26" d="M20-0.001c-6.542,0-12.351,3.143-16,8.002h31.999C32.351,3.142,26.543-0.001,20-0.001z"/>
			<path fill="#F93F26" d="M20,40.001c6.543,0,12.351-3.143,16.001-7.999H4C7.648,36.858,13.456,40.001,20,40.001z"/>
			<path fill="#FFFFFF" d="M35.999,8.001H4c-2.511,3.341-4,7.496-4,11.998c0,4.504,1.489,8.658,4,12.003h32.001
				C38.513,28.657,40,24.503,40,19.999C40,15.497,38.513,11.342,35.999,8.001z"/>
		</g>
		<path fill="#009E3F" d="M30.599,26.219c-0.182-0.254-0.426-0.452-0.67-0.638c-0.58-0.432-1.213-0.785-1.85-1.127
			c-0.406-0.225-0.823-0.436-1.191-0.732c-0.11-0.103-0.252-0.223-0.225-0.396c0.049-0.135,0.176-0.216,0.293-0.288
			c0.183-0.104,0.368-0.208,0.573-0.255c0.537,0.115,0.947,0.538,1.491,0.65c0.312,0.07,0.618-0.055,0.919-0.103
			c-0.687-0.584-1.412-1.136-2.073-1.756c-0.125-0.122-0.222-0.271-0.356-0.386c-0.28-0.241-0.635-0.396-1.004-0.438
			c-0.256-0.038-0.522,0.009-0.769-0.1c-0.063-0.027-0.114-0.106-0.093-0.176c0.075-0.143,0.249-0.18,0.388-0.215
			c0.684-0.138,1.387-0.106,2.076-0.174c0.266-0.025,0.542-0.053,0.793-0.16c0-0.044,0-0.086-0.002-0.124
			c-0.13-0.137-0.315-0.193-0.486-0.262c-0.71-0.25-1.44-0.437-2.168-0.606c-0.213-0.064-0.456-0.109-0.604-0.289
			c-0.063-0.128,0.039-0.296,0.184-0.298c0.513-0.044,1.018,0.098,1.525,0.157c0.27,0.033,0.55,0.089,0.818,0.009
			c-0.012-0.137-0.134-0.225-0.236-0.298c-0.367-0.271-0.781-0.472-1.175-0.707c-0.53-0.328-1.057-0.683-1.531-1.095
			c-0.43-0.405-0.869-0.801-1.381-1.102c-0.206-0.118-0.447-0.196-0.615-0.376c-0.066-0.061-0.047-0.158-0.052-0.236
			c0.207-0.22,0.537-0.204,0.806-0.146c0.264,0.048,0.471,0.235,0.732,0.288c0.485,0.117,0.991,0.104,1.484,0.065
			c-0.354-0.099-0.688-0.26-0.996-0.454c-0.415-0.263-0.82-0.547-1.194-0.859c-0.072-0.066-0.165-0.131-0.189-0.231
			c0.225-0.048,0.458-0.051,0.684-0.028c0.258,0.012,0.515,0.023,0.771,0.044c-0.384-0.302-0.771-0.601-1.157-0.895
			c-0.488-0.368-1.009-0.727-1.616-0.859c-0.348-0.08-0.699-0.148-1.045-0.231c-0.234-0.053-0.426-0.206-0.61-0.359
			c-0.24-0.216-0.452-0.467-0.633-0.74c-0.207-0.3-0.332-0.635-0.479-0.961c-0.012,0-0.036,0-0.046,0.002
			c-0.192,0.308-0.351,0.638-0.595,0.903c-0.238,0.264-0.49,0.518-0.777,0.718c-0.293,0.215-0.574,0.444-0.829,0.696
			c-0.187,0.181-0.334,0.388-0.505,0.577c0.255-0.05,0.511-0.121,0.755-0.209c0.127-0.04,0.267-0.131,0.386-0.02
			C18.073,12.12,18,12.229,17.9,12.313c-0.282,0.252-0.601,0.465-0.946,0.615c-0.255,0.112-0.49,0.259-0.719,0.418
			c-0.182,0.132-0.365,0.271-0.495,0.454c0,0.017,0,0.06,0,0.08c0.113,0.029,0.229,0.039,0.342,0.012
			c0.152-0.024,0.334-0.085,0.469,0.027c0.123,0.137,0.208,0.336,0.138,0.515c-0.192,0.104-0.417,0.048-0.613,0.129
			c-0.268,0.096-0.511,0.263-0.688,0.486c-0.121,0.146-0.123,0.354-0.262,0.487c-0.236,0.248-0.567,0.361-0.868,0.517
			c-0.464,0.241-0.917,0.511-1.335,0.829c-0.113,0.091-0.24,0.181-0.322,0.311c-0.038,0.058,0.011,0.126,0.025,0.188
			c0.125,0.055,0.262,0.087,0.4,0.078c0.343-0.013,0.679-0.098,1.004-0.202c0.114-0.031,0.225-0.085,0.345-0.091
			c0.13-0.009,0.204,0.127,0.26,0.227c0.1,0.208,0.223,0.418,0.217,0.656c-0.118,0.263-0.313,0.479-0.485,0.702
			c-0.215,0.263-0.476,0.516-0.812,0.611c-0.234,0.055-0.48,0.103-0.692,0.223c-0.337,0.189-0.61,0.474-0.886,0.744
			c-0.183,0.192-0.384,0.373-0.581,0.55c-0.151,0.124-0.301,0.264-0.497,0.314c0.007,0.031,0.011,0.059,0.016,0.086
			c0.217,0.17,0.486,0.326,0.771,0.322c0.488-0.101,0.884-0.428,1.292-0.698c0.106-0.057,0.238-0.152,0.361-0.085
			c0.21,0.133,0.352,0.355,0.407,0.597c0.038,0.161,0.027,0.35-0.106,0.47c-0.184,0.176-0.418,0.292-0.641,0.41
			c-0.639,0.312-1.224,0.729-1.754,1.203c-0.398,0.347-0.731,0.778-1.19,1.048c-0.233,0.148-0.504,0-0.755,0.039
			c0.113,0.199,0.285,0.381,0.511,0.446c0.262,0.103,0.547,0.024,0.809-0.034c0.704-0.188,1.383-0.446,2.032-0.781
			c0.287-0.139,0.518-0.368,0.815-0.483c0.273-0.114,0.591-0.134,0.868-0.005c0.136,0.068,0.302,0.176,0.272,0.35
			c-0.033,0.189-0.189,0.321-0.33,0.43c-0.444,0.327-0.956,0.539-1.467,0.734c-0.761,0.283-1.563,0.457-2.313,0.774
			c0,0.02,0,0.063,0,0.085c0.055,0.127,0.123,0.264,0.265,0.312c0.348,0.137,0.73,0.124,1.096,0.095
			c0.58-0.039,1.138-0.229,1.67-0.449c0.701-0.268,1.373-0.593,2.058-0.889c0.242-0.088,0.503-0.222,0.757-0.124
			c0.31,0.124,0.608,0.306,0.809,0.573c0.089,0.118,0.135,0.26,0.178,0.403c0.042,0.324-0.036,0.651-0.164,0.95
			c-0.248,0.573-0.629,1.078-1.029,1.557c-0.366,0.449-0.858,0.794-1.417,0.967c-0.225,0.084-0.474,0.104-0.678,0.235
			c-0.203,0.124-0.378,0.287-0.543,0.458c-0.119,0.13-0.255,0.276-0.261,0.469c0.088,0.005,0.177,0.005,0.268,0.005
			c0.123-0.122,0.212-0.269,0.348-0.373c0.268-0.222,0.601-0.354,0.945-0.412c0.264-0.027,0.54-0.016,0.8-0.084
			c0.596-0.146,1.141-0.471,1.587-0.894c0.292-0.251,0.655-0.482,1.057-0.449c0.233,0.01,0.407,0.203,0.637,0.211
			c0.264,0.028,0.486-0.156,0.746-0.152c0.083,0,0.179,0.01,0.232,0.078c0.114,0.122,0.056,0.303,0.139,0.438
			c0.088,0.158,0.232,0.269,0.388,0.356c0.327,0.203,0.62,0.466,0.903,0.729c0.104,0.099,0.228,0.182,0.376,0.19
			c0.027-0.351-0.337-0.578-0.327-0.927c0.376-0.032,0.755,0.004,1.129,0.048c0.293,0.04,0.609,0.066,0.856,0.242
			c0.384,0.29,0.615,0.745,1.037,0.981c0.162,0.021,0.362,0.054,0.499-0.063c0-0.036,0-0.066,0-0.101
			c-0.394-0.463-0.877-0.837-1.334-1.23c-0.378-0.329-0.766-0.674-1.015-1.113c-0.298-0.521-0.323-1.14-0.323-1.726
			c0.01-0.378-0.023-0.767,0.073-1.14c0.044-0.182,0.167-0.332,0.308-0.454c0.11-0.112,0.27-0.177,0.426-0.147
			c0.405,0.081,0.746,0.325,1.117,0.481c0.271,0.124,0.571,0.174,0.869,0.179c0.76,0.023,1.519-0.027,2.271,0
			c0.298,0.01,0.583,0.098,0.84,0.241c0.488,0.271,0.964,0.563,1.421,0.886c0.214,0.159,0.448,0.309,0.722,0.345
			c0.162,0.029,0.367-0.026,0.438-0.195C30.745,26.482,30.669,26.334,30.599,26.219z M15.523,20.996
			c-0.288,0.122-0.588,0.226-0.903,0.262c-0.105,0.01-0.237,0.027-0.322-0.052c-0.105-0.104-0.156-0.244-0.218-0.372
			c-0.068-0.156-0.162-0.309-0.165-0.481c0.344-0.102,0.701-0.129,1.058-0.152c0.308-0.009,0.618-0.034,0.923,0.045
			c0.095,0.025,0.192,0.057,0.268,0.125c0.057,0.036,0.034,0.109,0.044,0.167C16.03,20.756,15.775,20.884,15.523,20.996z
			 M15.65,17.737c-0.171,0.04-0.289-0.109-0.383-0.228c-0.131-0.181-0.276-0.357-0.331-0.578c-0.028-0.092,0.039-0.194,0.133-0.221
			c0.152-0.059,0.319-0.078,0.481-0.066c0.15,0.025,0.27,0.137,0.354,0.259c0.132,0.195,0.237,0.411,0.364,0.612
			C16.06,17.59,15.864,17.693,15.65,17.737z M20.54,13.86c0.103-0.151,0.319-0.176,0.482-0.119c0.156,0.042,0.25,0.218,0.206,0.375
			c-0.047,0.079-0.146,0.086-0.229,0.101c-0.174,0.014-0.366,0.016-0.511-0.097C20.49,14.032,20.485,13.936,20.54,13.86z
			 M20.249,16.065c0.066,0.115-0.044,0.243-0.139,0.303c-0.125,0.071-0.265,0.187-0.413,0.12c-0.202-0.063-0.4-0.135-0.602-0.205
			c0.28-0.108,0.545-0.262,0.843-0.317C20.044,15.95,20.188,15.961,20.249,16.065z M18.13,14.524
			c0.083-0.027,0.164,0.004,0.233,0.03c0.057,0.271-0.1,0.527-0.283,0.706c-0.184,0.171-0.415,0.285-0.648,0.368
			c-0.115,0.036-0.236,0.034-0.354,0.02c-0.001-0.084-0.016-0.18,0.034-0.259c0.106-0.197,0.272-0.363,0.443-0.518
			C17.725,14.731,17.914,14.592,18.13,14.524z M17.078,13.504c0.023-0.107,0.14-0.146,0.235-0.15c0.133-0.007,0.289,0,0.38,0.114
			c-0.034,0.161-0.172,0.27-0.284,0.375c-0.096,0.081-0.201,0.148-0.314,0.2C17.043,13.864,17.038,13.677,17.078,13.504z
			 M17.302,23.442c-0.006,0.132-0.04,0.312-0.187,0.361c-0.088,0.01-0.171-0.065-0.222-0.127c-0.175-0.229-0.225-0.524-0.299-0.798
			c-0.036-0.124-0.05-0.251-0.042-0.373c0.197-0.057,0.442-0.037,0.576,0.129C17.321,22.856,17.317,23.164,17.302,23.442z
			 M17.25,16.875c-0.131,0.155-0.268,0.312-0.435,0.428c-0.051,0.035-0.113,0.017-0.168,0.022c-0.118-0.205-0.238-0.422-0.257-0.663
			c0.01-0.063,0.023-0.134,0.081-0.174c0.164-0.113,0.375-0.09,0.562-0.096c0.14,0.008,0.308,0.008,0.405,0.125
			C17.421,16.655,17.335,16.771,17.25,16.875z M17.449,19.109c0.033-0.146,0.216-0.1,0.316-0.057
			c0.203,0.102,0.471,0.265,0.426,0.528c-0.195,0.104-0.399-0.032-0.541-0.167C17.566,19.33,17.459,19.237,17.449,19.109z
			 M18.561,23.672c-0.165,0.03-0.277-0.121-0.347-0.249c-0.081-0.16-0.167-0.322-0.185-0.505c0.229-0.026,0.481,0.073,0.58,0.3
			C18.622,23.37,18.628,23.53,18.561,23.672z M18.872,14.695c-0.021-0.011-0.062-0.036-0.079-0.048
			c-0.078-0.146,0.003-0.303,0.119-0.396c0.163-0.151,0.362-0.245,0.557-0.337c0.148-0.068,0.316-0.141,0.479-0.101
			c0.145,0.077,0.127,0.271,0.117,0.409c-0.014,0.156-0.166,0.24-0.297,0.288C19.476,14.606,19.176,14.677,18.872,14.695z
			 M19.076,19.379c-0.109-0.151-0.202-0.374-0.092-0.549c0.078-0.123,0.241-0.143,0.37-0.091c0.094,0.214,0.031,0.462-0.117,0.638
			C19.181,19.379,19.129,19.379,19.076,19.379z M19.583,23.799c-0.045-0.146-0.089-0.295-0.13-0.439l-0.016-0.024
			c-0.056-0.215-0.134-0.427-0.125-0.651c0.306-0.007,0.633,0.042,0.903,0.203C20.039,23.214,19.808,23.504,19.583,23.799z
			 M20.646,20.139c-0.097,0.089-0.241,0.057-0.347,0.007c-0.173-0.078-0.342-0.204-0.404-0.397c-0.064-0.266,0.097-0.531,0.292-0.7
			c0.252,0.169,0.415,0.453,0.496,0.738C20.706,19.901,20.723,20.036,20.646,20.139z M21.374,20.172
			c-0.023,0.045-0.036,0.088-0.049,0.13c-0.078-0.017-0.17-0.017-0.22-0.088c-0.132-0.169-0.136-0.398-0.068-0.595
			c0.22-0.045,0.294,0.212,0.337,0.373C21.374,20.054,21.374,20.113,21.374,20.172z M21.375,16.354
			c-0.05,0.099-0.115,0.203-0.22,0.245c-0.162,0.078-0.352,0.063-0.527,0.045c0-0.082,0.005-0.165,0.051-0.234
			c0.1-0.168,0.21-0.336,0.363-0.456c0.078-0.065,0.215-0.098,0.279,0.003C21.411,16.069,21.374,16.225,21.375,16.354z
			 M23.698,18.401c0.068-0.157,0.169-0.316,0.335-0.374c0.259-0.103,0.625,0.071,0.615,0.374c0.02,0.213-0.159,0.425-0.378,0.418
			c-0.201,0.018-0.382-0.096-0.516-0.231C23.711,18.539,23.662,18.468,23.698,18.401z M21.67,14.256
			c0.01-0.136,0.046-0.292,0.173-0.365c0.171-0.094,0.386-0.114,0.571-0.045c0,0.085-0.004,0.169-0.01,0.25
			c0.01-0.07,0.021-0.147,0.034-0.221c-0.007,0.168-0.029,0.342-0.127,0.479c-0.134,0.153-0.378,0.194-0.565,0.116
			C21.663,14.435,21.663,14.33,21.67,14.256z M23.12,17.182c-0.107,0.079-0.254,0.069-0.376,0.053
			c-0.236-0.043-0.476-0.111-0.706-0.199c-0.082-0.033-0.195-0.083-0.173-0.191c0.051-0.289,0.314-0.507,0.599-0.541
			c0.236-0.029,0.48,0.03,0.684,0.158c0.114,0.069,0.156,0.216,0.127,0.345C23.252,16.935,23.23,17.094,23.12,17.182z
			 M24.775,21.964c-0.127,0.217-0.35,0.375-0.588,0.453c-0.354,0.117-0.774,0.022-1.019-0.261c-0.044-0.052-0.021-0.137,0.036-0.171
			c0.255-0.213,0.538-0.398,0.87-0.471c0.222-0.035,0.485-0.054,0.664,0.102C24.841,21.702,24.839,21.86,24.775,21.964z
			 M26.155,23.028c-0.234-0.047-0.479-0.059-0.713-0.123c-0.104-0.039-0.254-0.111-0.234-0.248c0.058-0.149,0.18-0.26,0.293-0.361
			c0.185-0.157,0.38-0.301,0.601-0.381c0.058-0.024,0.126-0.02,0.183,0.007c0.193,0.078,0.368,0.208,0.5,0.374
			C26.644,22.589,26.403,22.827,26.155,23.028z"/>
	</g>
</g>
</svg>
