<?xml version="1.0" encoding="utf-8"?>
<!-- Generator: Adobe Illustrator 16.0.0, SVG Export Plug-In . SVG Version: 6.00 Build 0)  -->
<!DOCTYPE svg PUBLIC "-//W3C//DTD SVG 1.0//EN" "http://www.w3.org/TR/2001/REC-SVG-20010904/DTD/svg10.dtd">
<svg version="1.0" id="Layer_1" xmlns="http://www.w3.org/2000/svg" xmlns:xlink="http://www.w3.org/1999/xlink" x="0px" y="0px"
	 width="40px" height="40px" viewBox="0 0 40 40" enable-background="new 0 0 40 40" xml:space="preserve">
<g>
	<g>
		<path fill="#FCEB0F" d="M2.7,29.998h34.602C39.007,27.054,40,23.647,40,19.999H0C0,23.647,0.993,27.054,2.7,29.998z"/>
		<path fill="#169253" d="M20,39.998c7.397,0,13.845-4.026,17.302-10H2.7C6.158,35.972,12.604,39.998,20,39.998z"/>
		<path fill="#012A87" d="M0,19.999h40c0-3.645-0.993-7.055-2.698-9.999H2.7C0.993,12.944,0,16.354,0,19.999z"/>
		<path fill="#DC181E" d="M20,0.002C12.604,0.002,6.158,4.028,2.7,10h34.602C33.843,4.028,27.397,0.002,20,0.002z"/>
	</g>
</g>
</svg>
