<svg xmlns="http://www.w3.org/2000/svg" width="40" height="40" viewBox="0 0 40 40">
    <g fill="none" fill-rule="evenodd">
        <circle cx="20" cy="20" r="20" fill="#FFF"/>
        <path fill="#CE1126" stroke="#003893" d="M40 19.501L8 0 8 41 38.821 41 17.238 19.501z"/>
        <path fill="#FFF" d="M17.755 14.488l-.427-.325.842-.627-1.02-.262.537-.903-1.04.15.148-1.04-.904.538v-.002L15.631 11l-.63.841-.63-.841-.261 1.017v.002l-.904-.538.15 1.04-1.043-.15.536.903-1.02.262.845.627-.428.325c-1.012-.606-1.81-1.533-2.246-2.643.002 2.761 2.24 4.988 5 4.988s4.998-2.227 5-4.988c-.437 1.11-1.232 2.037-2.245 2.643M18.063 29.821L18.063 29.821 20 29.002 18.063 28.178 19.33 26.5 17.242 26.757 17.499 24.669 15.82 25.937 15 24 14.178 25.937 12.5 24.669 12.758 26.757 10.67 26.5 11.935 28.178 10 29.002 11.935 29.821 10.67 31.501 12.758 31.242 12.5 33.328 14.178 32.064 15 34 15.82 32.064 17.499 33.328 17.242 31.242 19.33 31.501z"/>
    </g>
</svg>
