<?xml version="1.0" encoding="utf-8"?>
<!-- Generator: Adobe Illustrator 16.0.0, SVG Export Plug-In . SVG Version: 6.00 Build 0)  -->
<!DOCTYPE svg PUBLIC "-//W3C//DTD SVG 1.0//EN" "http://www.w3.org/TR/2001/REC-SVG-20010904/DTD/svg10.dtd">
<svg version="1.0" id="Layer_1" xmlns="http://www.w3.org/2000/svg" xmlns:xlink="http://www.w3.org/1999/xlink" x="0px" y="0px"
	 width="40px" height="40px" viewBox="0 0 40 40" enable-background="new 0 0 40 40" xml:space="preserve">
<g>
	<g>
		<path fill="#FFFFFF" d="M29.816,19.466l1.3-0.944l1.301,0.944l-0.5-1.528l1.303-0.944h-1.605l-0.498-1.528l-0.494,1.528h-1.608
			l1.299,0.944L29.816,19.466z M29.727,17.23h1.062l0.328-1.012l0.327,1.012h1.066l-0.862,0.624l0.325,1.009l-0.856-0.624
			l-0.859,0.624l0.329-1.009L29.727,17.23z"/>
		<polygon fill="#E21D38" points="30.257,18.863 31.116,18.239 31.973,18.863 31.647,17.854 32.51,17.23 31.443,17.23 
			31.116,16.218 30.788,17.23 29.727,17.23 30.586,17.854 		"/>
		<g>
			<path fill="#124B8E" d="M23.613,0.332v1.982L16.582,7h7.031v6h-7.058l7.058,4.701V20h-3.47l-8.532-5.687V20H5.612v-5.687
				l-5.512,3.673C0.036,18.648,0,19.32,0,20l0,0c0.002,11.043,8.955,20,20,20s20-8.956,20-20C40,10.187,32.93,2.031,23.613,0.332z
				 M32.417,19.466l-1.301-0.944l-1.3,0.944l0.496-1.528l-1.299-0.944h1.608l0.494-1.528l0.498,1.528h1.605l-1.303,0.944
				L32.417,19.466z M20.039,0h-0.078c-2.981,0.005-5.808,0.669-8.35,1.846v3.859l8.552-5.7C20.122,0.003,20.081,0,20.039,0z"/>
			<polygon fill="#FFFFFF" points="10.361,13.479 10.361,20 11.611,20 11.611,14.313 			"/>
			<polygon fill="#FFFFFF" points="16.556,13 23.613,13 23.613,11.75 14.681,11.75 			"/>
			<polygon fill="#FFFFFF" points="5.612,14.313 5.612,20 6.862,20 6.862,13.479 			"/>
			<path fill="#FFFFFF" d="M11.611,5.705V1.846c-0.423,0.193-0.842,0.403-1.25,0.628v4.062L11.611,5.705z"/>
			<path fill="#FFFFFF" d="M1.784,11.75c-0.106,0.234-0.21,0.472-0.308,0.709l1.062-0.709H1.784z"/>
			<polygon fill="#FFFFFF" points="23.613,7 16.582,7 14.707,8.249 23.613,8.249 			"/>
			<path fill="#FFFFFF" d="M6.862,4.928C6.516,5.228,6.177,5.54,5.853,5.866l1.01,0.67V4.928z"/>
			<polygon fill="#FFFFFF" points="14.681,11.75 10.361,11.75 10.361,13.479 11.611,14.313 20.144,20 23.613,20 23.613,19.942 
				13.174,13 15.549,13 23.613,18.365 23.613,17.701 16.556,13 			"/>
			<path fill="#FFFFFF" d="M6.862,6.536l-1.01-0.67C5.114,6.603,4.434,7.402,3.82,8.249h3.042V6.536z"/>
			<path fill="#FFFFFF" d="M10.361,6.536v1.712h4.346L16.582,7l7.031-4.686V0.332c-0.13-0.024-0.261-0.051-0.391-0.072L13.089,7
				h-1.478V6.404l9.572-6.367c-0.339-0.021-0.679-0.032-1.021-0.032l-8.552,5.7L10.361,6.536z"/>
			<path fill="#FFFFFF" d="M6.862,13.479V11.75H2.539l-1.062,0.709c-0.378,0.923-0.684,1.88-0.92,2.869L4.053,13h1.56v0.544
				l-5.404,3.596c-0.04,0.278-0.078,0.562-0.107,0.848l5.512-3.673L6.862,13.479z"/>
			<path fill="#E21D38" d="M6.862,11.75v1.729V20h3.499v-6.522V11.75h4.319h8.933V8.249h-8.906h-4.346V6.536V2.474
				C9.108,3.166,7.937,3.992,6.862,4.928v1.608v1.712H3.82c-0.791,1.09-1.477,2.261-2.036,3.501h0.755H6.862z"/>
			<polygon fill="#E21D38" points="13.174,13 23.613,19.942 23.613,18.365 15.549,13 			"/>
			<path fill="#E21D38" d="M11.611,7h1.478l10.134-6.74c-0.671-0.109-1.351-0.184-2.039-0.223l-9.572,6.367V7z"/>
			<path fill="#E21D38" d="M5.612,13h-1.56l-3.496,2.328c-0.144,0.592-0.261,1.196-0.349,1.812l5.404-3.596V13z"/>
		</g>
	</g>
</g>
</svg>
