<?xml version="1.0" encoding="utf-8"?>
<!-- Generator: Adobe Illustrator 16.0.0, SVG Export Plug-In . SVG Version: 6.00 Build 0)  -->
<!DOCTYPE svg PUBLIC "-//W3C//DTD SVG 1.0//EN" "http://www.w3.org/TR/2001/REC-SVG-20010904/DTD/svg10.dtd">
<svg version="1.0" id="Layer_1" xmlns="http://www.w3.org/2000/svg" xmlns:xlink="http://www.w3.org/1999/xlink" x="0px" y="0px"
	 width="40px" height="40px" viewBox="0 0 40 40" enable-background="new 0 0 40 40" xml:space="preserve">
<g>
	<g>
		<path fill="#CC0000" d="M0,20c0,8.068,4.784,15.018,11.665,18.182V1.818C4.784,4.982,0,11.932,0,20z"/>
		<path fill="#CC0000" d="M40,20c0-8.068-4.783-15.021-11.667-18.182v36.364C35.217,35.02,40,28.07,40,20z"/>
		<path fill="#FFFFFF" d="M20,0c-2.977,0-5.795,0.657-8.333,1.818v36.364C14.203,39.346,17.023,40,20,40
			c2.977,0,5.794-0.654,8.333-1.818V1.818C25.794,0.657,22.975,0,20,0z"/>
	</g>
</g>
</svg>
