<?xml version="1.0" encoding="utf-8"?>
<!-- Generator: Adobe Illustrator 16.0.0, SVG Export Plug-In . SVG Version: 6.00 Build 0)  -->
<!DOCTYPE svg PUBLIC "-//W3C//DTD SVG 1.1//EN" "http://www.w3.org/Graphics/SVG/1.1/DTD/svg11.dtd">
<svg version="1.1" id="Layer_1" xmlns="http://www.w3.org/2000/svg" xmlns:xlink="http://www.w3.org/1999/xlink" x="0px" y="0px"
	 width="40px" height="40px" viewBox="0 0 40 40" enable-background="new 0 0 40 40" xml:space="preserve">
<g>
	<g>
		<path fill="#FF0000" d="M20,40c8.069,0,15.02-4.782,18.181-11.666H1.821C4.98,35.218,11.93,40,20,40z"/>
		<path fill="#FFFFFF" d="M20,0C11.93,0,4.98,4.782,1.821,11.667h36.359C35.02,4.782,28.069,0,20,0z"/>
		<path fill="#0000FF" d="M0,20.001c0,2.975,0.655,5.794,1.821,8.333h36.359C39.344,25.795,40,22.976,40,20.001
			c0-2.976-0.656-5.798-1.819-8.334H1.821C0.655,14.203,0,17.025,0,20.001z"/>
	</g>
</g>
</svg>
