<?xml version="1.0" encoding="utf-8"?>
<!-- Generator: Adobe Illustrator 16.0.0, SVG Export Plug-In . SVG Version: 6.00 Build 0)  -->
<!DOCTYPE svg PUBLIC "-//W3C//DTD SVG 1.0//EN" "http://www.w3.org/TR/2001/REC-SVG-20010904/DTD/svg10.dtd">
<svg version="1.0" id="Layer_1" xmlns="http://www.w3.org/2000/svg" xmlns:xlink="http://www.w3.org/1999/xlink" x="0px" y="0px"
	 width="40px" height="40px" viewBox="0 0 40 40" enable-background="new 0 0 40 40" xml:space="preserve">
<g>
	<g>
		<path fill="#005C99" d="M12.999,1.263C6.465,3.705,1.557,9.467,0.312,16.5h12.687V1.263z"/>
		<path fill="#005C99" d="M0.312,23.5c1.244,7.032,6.152,12.797,12.687,15.237V23.5H0.312z"/>
		<path fill="#005C99" d="M39.688,16.5C38.032,7.123,29.85,0,20.002,0v16.5H39.688z"/>
		<path fill="#005C99" d="M39.688,23.5H20.002V40C29.85,40,38.032,32.877,39.688,23.5z"/>
		<path fill="#FBD118" d="M39.688,23.5C39.89,22.361,40,21.195,40,20.001c0-1.196-0.11-2.363-0.312-3.501H20.002V0
			c-2.466,0-4.823,0.449-7.003,1.263V16.5H0.312C0.111,17.638,0,18.805,0,20.001c0,1.194,0.111,2.36,0.312,3.499h12.687v15.237
			C15.179,39.554,17.536,40,20.002,40V23.5H39.688z"/>
	</g>
</g>
</svg>
