<?xml version="1.0" encoding="utf-8"?>
<!-- Generator: Adobe Illustrator 16.0.0, SVG Export Plug-In . SVG Version: 6.00 Build 0)  -->
<!DOCTYPE svg PUBLIC "-//W3C//DTD SVG 1.0//EN" "http://www.w3.org/TR/2001/REC-SVG-20010904/DTD/svg10.dtd">
<svg version="1.0" id="Layer_1" xmlns="http://www.w3.org/2000/svg" xmlns:xlink="http://www.w3.org/1999/xlink" x="0px" y="0px"
	 width="40px" height="40px" viewBox="0 0 40 40" enable-background="new 0 0 40 40" xml:space="preserve">
<g>
	<g>
		<path fill="#FFFFFF" d="M20,40c11.044,0,20-8.956,20-20H0C0,31.044,8.956,40,20,40z"/>
		<path fill="#EE2F43" d="M20,0C8.956,0,0,8.952,0,20h40C40,8.952,31.044,0,20,0z"/>
	</g>
	<g>
		<path fill="#FFFFFF" d="M7.816,11.782c0-2.446,1.442-4.546,3.52-5.515c-0.411-0.093-0.831-0.146-1.27-0.146
			c-3.125,0-5.662,2.536-5.662,5.661c0,3.128,2.537,5.661,5.662,5.661c0.438,0,0.858-0.054,1.27-0.148
			C9.259,16.324,7.816,14.224,7.816,11.782z"/>
		<g>
			<polygon fill="#FFFFFF" points="13.979,7.202 14.307,8.218 15.374,8.218 14.509,8.844 14.837,9.855 13.979,9.23 13.115,9.855 
				13.444,8.844 12.581,8.218 13.647,8.218 			"/>
			<polygon fill="#FFFFFF" points="17.126,9.559 17.453,10.573 18.519,10.573 17.656,11.198 17.988,12.21 17.126,11.585 
				16.263,12.21 16.592,11.198 15.729,10.573 16.795,10.573 			"/>
			<polygon fill="#FFFFFF" points="10.776,9.559 11.105,10.573 12.17,10.573 11.309,11.198 11.638,12.21 10.776,11.585 9.913,12.21 
				10.242,11.198 9.381,10.573 10.446,10.573 			"/>
			<polygon fill="#FFFFFF" points="15.92,13.307 16.248,14.32 17.317,14.32 16.453,14.948 16.782,15.962 15.92,15.334 
				15.059,15.962 15.389,14.948 14.524,14.32 15.591,14.32 			"/>
			<polygon fill="#FFFFFF" points="12.005,13.307 12.334,14.32 13.401,14.32 12.541,14.948 12.869,15.962 12.005,15.334 
				11.146,15.962 11.475,14.948 10.61,14.32 11.677,14.32 			"/>
		</g>
	</g>
</g>
</svg>
