<?xml version="1.0" encoding="utf-8"?>
<!-- Generator: Adobe Illustrator 16.0.0, SVG Export Plug-In . SVG Version: 6.00 Build 0)  -->
<!DOCTYPE svg PUBLIC "-//W3C//DTD SVG 1.0//EN" "http://www.w3.org/TR/2001/REC-SVG-20010904/DTD/svg10.dtd">
<svg version="1.0" id="Layer_1" xmlns="http://www.w3.org/2000/svg" xmlns:xlink="http://www.w3.org/1999/xlink" x="0px" y="0px"
	 width="40px" height="40px" viewBox="0 0 40 40" enable-background="new 0 0 40 40" xml:space="preserve">
<g>
	<g>
		<path fill="#FFFFFF" d="M38.901,26.622H1.098c0.855,2.488,2.184,4.752,3.88,6.689H35.02C36.715,31.374,38.045,29.11,38.901,26.622
			z"/>
		<path fill="#DD1F26" d="M35.02,33.312H4.978C8.17,36.95,12.649,39.421,17.707,40h4.585C27.349,39.421,31.829,36.95,35.02,33.312z"
			/>
		<path fill="#DD1F26" d="M20,0C14.141,0,8.874,2.526,5.215,6.554h29.566C31.126,2.526,25.856,0,20,0z"/>
		<path fill="#FFFFFF" d="M34.781,6.554H5.215c-1.748,1.926-3.126,4.192-4.026,6.691h37.62C37.91,10.746,36.531,8.479,34.781,6.554z
			"/>
		<path fill="#273476" d="M40,20.066c0-2.395-0.424-4.692-1.191-6.821H1.188C0.42,15.374,0,17.672,0,20.066
			c0,2.296,0.391,4.501,1.098,6.556h37.804C39.609,24.567,40,22.362,40,20.066z"/>
	</g>
</g>
</svg>
