<?xml version="1.0" encoding="utf-8"?>
<!-- Generator: Adobe Illustrator 16.0.0, SVG Export Plug-In . SVG Version: 6.00 Build 0)  -->
<!DOCTYPE svg PUBLIC "-//W3C//DTD SVG 1.0//EN" "http://www.w3.org/TR/2001/REC-SVG-20010904/DTD/svg10.dtd">
<svg version="1.0" id="Layer_1" xmlns="http://www.w3.org/2000/svg" xmlns:xlink="http://www.w3.org/1999/xlink" x="0px" y="0px"
	 width="40px" height="40px" viewBox="0 0 40 40" enable-background="new 0 0 40 40" xml:space="preserve">
<path fill="#FFFFFF" d="M1.883,11.569l27.284,26.19c0.753-0.387,1.479-0.816,2.173-1.292L3.093,9.351
	C2.644,10.061,2.239,10.801,1.883,11.569z"/>
<path fill="#CE1126" d="M0,19.998C0,31.046,8.954,40,19.998,40c3.31,0,6.423-0.817,9.169-2.24L1.883,11.569
	C0.687,14.133,0,16.982,0,19.998z"/>
<path fill="#CE1126" d="M40,19.998C40,8.952,31.043,0,19.998,0c-3.313,0-6.432,0.817-9.183,2.246l27.292,26.199
	C39.309,25.879,40,23.021,40,19.998z"/>
<path d="M3.093,9.351L31.34,36.468c2.223-1.538,4.111-3.516,5.56-5.806L8.646,3.542C6.423,5.08,4.536,7.061,3.093,9.351z"/>
<path fill="#FFFFFF" d="M36.899,30.662c0.449-0.71,0.852-1.45,1.208-2.217L10.815,2.246c-0.752,0.388-1.477,0.817-2.169,1.296
	L36.899,30.662z"/>
<path fill="#FFFFFF" d="M36.899,30.662c0.449-0.71,0.852-1.45,1.208-2.217L10.815,2.246c-0.752,0.388-1.477,0.817-2.169,1.296
	L36.899,30.662z"/>
<g>
	<path fill="#D0D0D5" d="M9.384,4.25c0.7-0.474,1.443-0.883,2.205-1.261l-0.773-0.743c-0.281,0.145-0.554,0.302-0.828,0.459
		c-0.24,0.139-0.477,0.283-0.71,0.431c-0.204,0.129-0.411,0.254-0.61,0.392C8.661,3.533,8.654,3.539,8.647,3.543L9.384,4.25z"/>
	<path fill="#D0D0D5" d="M38.107,28.445l-0.761-0.73c-0.346,0.775-0.748,1.518-1.19,2.234l0.743,0.713
		C37.349,29.952,37.751,29.212,38.107,28.445z"/>
</g>
<g>
	<path fill="#D0D0D5" d="M30.602,35.759c-0.7,0.474-1.444,0.883-2.206,1.26l0.771,0.741c0.302-0.155,0.597-0.322,0.89-0.491
		c0.205-0.12,0.408-0.243,0.608-0.37c0.223-0.14,0.447-0.275,0.663-0.423c0.004-0.003,0.007-0.006,0.011-0.009L30.602,35.759z"/>
	<path fill="#D0D0D5" d="M3.093,9.351c-0.449,0.71-0.854,1.45-1.209,2.219l0.762,0.731c0.346-0.776,0.748-1.52,1.19-2.237
		L3.093,9.351z"/>
</g>
</svg>
