<?xml version="1.0" encoding="utf-8"?>
<!-- Generator: Adobe Illustrator 16.0.0, SVG Export Plug-In . SVG Version: 6.00 Build 0)  -->
<!DOCTYPE svg PUBLIC "-//W3C//DTD SVG 1.0//EN" "http://www.w3.org/TR/2001/REC-SVG-20010904/DTD/svg10.dtd">
<svg version="1.0" id="Layer_1" xmlns="http://www.w3.org/2000/svg" xmlns:xlink="http://www.w3.org/1999/xlink" x="0px" y="0px"
	 width="40px" height="40px" viewBox="0 0 40 40" enable-background="new 0 0 40 40" xml:space="preserve">
<g>
	<g>
		<g>
			<g>
				<path fill="#1EB53A" d="M20,40c8.479,0,15.713-5.286,18.619-12.739H1.38C4.288,34.714,11.519,40,20,40z"/>
				<path fill="#FFFFFF" d="M0,20c0,2.181,0.361,4.28,1.008,6.247H38.99C39.639,24.28,40,22.181,40,20c0-2.185-0.361-4.28-1.01-6.25
					H1.01C0.361,15.72,0,17.815,0,20z"/>
				<path fill="#0099B5" d="M20,0C11.52,0,4.29,5.287,1.381,12.734h37.238C35.709,5.287,28.479,0,20,0z"/>
				<path fill="#CE1126" d="M38.805,13.244c-0.06-0.171-0.12-0.341-0.186-0.51H1.381c-0.066,0.169-0.126,0.339-0.186,0.51
					c-0.062,0.169-0.13,0.333-0.186,0.506h37.98C38.936,13.577,38.867,13.413,38.805,13.244z"/>
				<path fill="#CE1126" d="M1.008,26.247c0.058,0.174,0.125,0.34,0.188,0.509c0.06,0.17,0.119,0.339,0.185,0.505h37.239
					c0.065-0.166,0.126-0.335,0.186-0.505c0.062-0.169,0.131-0.335,0.186-0.509H1.008z"/>
			</g>
			<g>
				<g>
					<polygon fill="#FFFFFF" points="10.016,9.154 10.247,9.857 10.985,9.857 10.387,10.292 10.614,10.995 10.016,10.562 
						9.42,10.995 9.647,10.292 9.049,9.857 9.786,9.857 					"/>
					<polygon fill="#FFFFFF" points="13.521,9.154 13.75,9.857 14.488,9.857 13.89,10.292 14.117,10.995 13.521,10.562 
						12.923,10.995 13.15,10.292 12.552,9.857 13.292,9.857 					"/>
					<polygon fill="#FFFFFF" points="17.024,9.154 17.254,9.857 17.991,9.857 17.396,10.292 17.62,10.995 17.024,10.562 
						16.429,10.995 16.653,10.292 16.058,9.857 16.795,9.857 					"/>
					<polygon fill="#FFFFFF" points="20.528,9.154 20.758,9.857 21.497,9.857 20.898,10.292 21.126,10.995 20.528,10.562 
						19.932,10.995 20.157,10.292 19.561,9.857 20.303,9.857 					"/>
					<polygon fill="#FFFFFF" points="24.033,9.154 24.258,9.857 25,9.857 24.4,10.292 24.632,10.995 24.033,10.562 23.434,10.995 
						23.665,10.292 23.066,9.857 23.802,9.857 					"/>
				</g>
				<g>
					<polygon fill="#FFFFFF" points="13.521,5.565 13.75,6.271 14.488,6.271 13.89,6.704 14.117,7.409 13.521,6.971 12.923,7.409 
						13.15,6.704 12.552,6.271 13.292,6.271 					"/>
					<polygon fill="#FFFFFF" points="17.024,5.565 17.254,6.271 17.991,6.271 17.396,6.704 17.62,7.409 17.024,6.971 16.429,7.409 
						16.653,6.704 16.058,6.271 16.795,6.271 					"/>
					<polygon fill="#FFFFFF" points="20.528,5.565 20.758,6.271 21.497,6.271 20.898,6.704 21.126,7.409 20.528,6.971 19.932,7.409 
						20.157,6.704 19.561,6.271 20.303,6.271 					"/>
					<polygon fill="#FFFFFF" points="24.033,5.565 24.258,6.271 25,6.271 24.4,6.704 24.632,7.409 24.033,6.971 23.434,7.409 
						23.665,6.704 23.066,6.271 23.802,6.271 					"/>
				</g>
				<g>
					<polygon fill="#FFFFFF" points="17.024,1.979 17.254,2.682 17.991,2.682 17.396,3.119 17.62,3.822 17.024,3.387 16.429,3.822 
						16.653,3.119 16.058,2.682 16.795,2.682 					"/>
					<polygon fill="#FFFFFF" points="20.528,1.979 20.758,2.682 21.497,2.682 20.898,3.119 21.126,3.822 20.528,3.387 19.932,3.822 
						20.157,3.119 19.561,2.682 20.303,2.682 					"/>
					<polygon fill="#FFFFFF" points="24.033,1.979 24.258,2.682 25,2.682 24.4,3.119 24.632,3.822 24.033,3.387 23.434,3.822 
						23.665,3.119 23.066,2.682 23.802,2.682 					"/>
				</g>
			</g>
		</g>
	</g>
	<path fill="#FFFFFF" d="M6.441,11.18c0.275,0,0.544-0.024,0.804-0.067C5.678,10.85,4.383,9.821,3.717,8.433
		C3.439,8.823,3.176,9.225,2.926,9.635C3.806,10.58,5.05,11.18,6.441,11.18z"/>
</g>
</svg>
