<?xml version="1.0" encoding="utf-8"?>
<!-- Generator: Adobe Illustrator 16.0.0, SVG Export Plug-In . SVG Version: 6.00 Build 0)  -->
<!DOCTYPE svg PUBLIC "-//W3C//DTD SVG 1.0//EN" "http://www.w3.org/TR/2001/REC-SVG-20010904/DTD/svg10.dtd">
<svg version="1.0" id="Layer_1" xmlns="http://www.w3.org/2000/svg" xmlns:xlink="http://www.w3.org/1999/xlink" x="0px" y="0px"
	 width="40px" height="40px" viewBox="0 0 40 40" enable-background="new 0 0 40 40" xml:space="preserve">
<g>
	<g>
		<path d="M20.002,39.999c8.067,0,15.018-4.78,18.179-11.667H1.817C4.978,35.219,11.93,39.999,20.002,39.999z"/>
		<path fill="#EF2B2D" d="M20.002,0.001c-8.072,0-15.024,4.781-18.185,11.665h36.363C35.02,4.782,28.069,0.001,20.002,0.001z"/>
		<path fill="#FFFFFF" d="M0,19.999c0,2.975,0.654,5.797,1.817,8.333h36.363C39.346,25.796,40,22.974,40,19.999
			c0-2.976-0.654-5.796-1.819-8.333H1.817C0.654,14.203,0,17.023,0,19.999z"/>
	</g>
</g>
</svg>
