<?xml version="1.0" encoding="utf-8"?>
<!-- Generator: Adobe Illustrator 16.0.0, SVG Export Plug-In . SVG Version: 6.00 Build 0)  -->
<!DOCTYPE svg PUBLIC "-//W3C//DTD SVG 1.0//EN" "http://www.w3.org/TR/2001/REC-SVG-20010904/DTD/svg10.dtd">
<svg version="1.0" id="Layer_1" xmlns="http://www.w3.org/2000/svg" xmlns:xlink="http://www.w3.org/1999/xlink" x="0px" y="0px"
	 width="40px" height="40px" viewBox="0 0 40 40" enable-background="new 0 0 40 40" xml:space="preserve">
<path fill="#FFD200" d="M6.704,34.475h27.073c1.733-1.651,3.165-3.608,4.22-5.789h-25.49L6.704,34.475z"/>
<path fill="#DE2010" d="M12.506,28.686h25.49c0.869-1.799,1.472-3.74,1.771-5.789H18.309L12.506,28.686z"/>
<path fill="#319208" d="M6.474,34.703c3.563,3.277,8.304,5.296,13.527,5.296c5.343,0,10.186-2.109,13.775-5.524H6.704L6.474,34.703z
	"/>
<path fill="#FFD200" d="M12.505,11.312h25.488c-1.055-2.179-2.483-4.137-4.217-5.788H6.704L12.505,11.312z"/>
<path fill="#DE2010" d="M18.309,17.104h21.458c-0.3-2.049-0.903-3.994-1.774-5.791H12.505L18.309,17.104z"/>
<path fill="#319208" d="M33.776,5.525c-3.589-3.415-8.432-5.524-13.775-5.524c-5.224,0-9.964,2.02-13.527,5.296l0.229,0.228H33.776z
	"/>
<path d="M21.209,19.999l-2.9,2.897h21.458C39.904,21.947,40,20.985,40,19.999s-0.096-1.948-0.232-2.896H18.309L21.209,19.999z"/>
<path d="M6.474,5.297C6.393,5.372,6.307,5.447,6.225,5.525C6.099,5.644,5.964,5.751,5.844,5.874l14.157,14.125L5.844,34.127
	c0.12,0.12,0.254,0.228,0.381,0.348c0.082,0.078,0.167,0.151,0.249,0.229l14.735-14.704L6.474,5.297z"/>
<path fill="#FFFFFF" d="M17.097,17.104l-5.803-5.791l-5.45-5.439c-1.569,1.572-2.858,3.418-3.838,5.439
	c-0.869,1.797-1.475,3.742-1.772,5.791C0.095,18.051,0,19.013,0,19.999s0.095,1.948,0.234,2.897c0.298,2.049,0.902,3.99,1.772,5.789
	c0.978,2.023,2.267,3.867,3.838,5.441l5.451-5.441l5.802-5.789l2.904-2.897L17.097,17.104z"/>
<path fill="#D0D0D5" d="M5.846,5.871C2.234,9.49,0,14.483,0,20s2.234,10.511,5.846,14.129l0.714-0.713C3.126,29.977,1,25.232,1,20
	c0-5.232,2.126-9.976,5.56-13.416L5.846,5.871z"/>
<g>
	<polygon fill="#D40000" points="11.946,20.457 16.561,17.104 10.856,17.104 9.092,11.678 7.33,17.104 1.624,17.104 6.24,20.457 
		4.477,25.883 9.092,22.529 13.708,25.883 	"/>
	<path fill="#FFCC00" d="M7.116,24.098l0.815-0.148l1.513-0.059L10,23.941l1.246,0.209l0.096-0.127v-0.896l0.141-0.77l0.261-0.787
		l0.267-0.623l0.349-0.645l0.57,0.141h0.148l0.016-0.111l-1.194-1.023l-1.254-0.956l-1.802-1.35L8.68,16.958l-0.2-1.408
		l-0.142-0.431l-0.186-0.163l-0.362-0.119l-0.4,0.016l-0.178,0.104l-0.386,0.088l-0.2,0.03L6.493,15.23l-0.015,0.2l0.556,0.014
		l0.142,0.061l-0.016,0.06l-0.318,0.045l-0.148,0.044l0.179,0.133l0.178,0.067l0.237,0.088l0.044,0.157l0.022,2.157L7.227,18.59
		l-0.045,0.622l0.186,0.749l-0.467,0.527l-0.26,0.475l-0.045,0.295l-0.141,0.291l-0.022,0.186l0.097,0.191l0.355,1.188l0.186,0.971
		L7.116,24.098z"/>
	<path d="M7.547,14.8c-0.143-0.001-0.211,0.023-0.354,0.101c-0.127,0.069-0.278,0.115-0.381,0.115c-0.211,0-0.38,0.15-0.38,0.34
		v0.123l0.306-0.009c0.877,0.029,0.077,0.11,0.013,0.122c-0.218,0.039,0.048,0.217,0.304,0.303c0.276,0.092,0.265,0.038,0.265,1.247
		c0,0.991-0.009,1.131-0.085,1.36c-0.11,0.336-0.11,0.835,0,1.162c0.045,0.134,0.083,0.256,0.083,0.276
		c0.001,0.018-0.13,0.179-0.29,0.359c-0.29,0.323-0.469,0.673-0.469,0.917c0,0.055-0.037,0.15-0.084,0.213
		c-0.106,0.141-0.109,0.385-0.006,0.477c0.107,0.098,0.553,1.814,0.555,2.139c0,0.119,0.021,0.115,0.696-0.02
		c0.547-0.109,1.837-0.133,2.489-0.045c0.303,0.041,0.653,0.1,0.78,0.133c0.402,0.104,0.38,0.125,0.381-0.361
		c0.002-0.748,0.139-1.461,0.429-2.223c0.131-0.348,0.477-1.053,0.568-1.161c0.009-0.01,0.156,0.018,0.328,0.062
		c0.351,0.091,0.446,0.072,0.446-0.078c0-0.087-0.358-0.386-2.108-1.756c-1.18-0.924-2.147-1.65-2.196-1.65
		c-0.048,0-0.096-0.025-0.105-0.055c-0.011-0.03-0.066-0.388-0.124-0.794c-0.06-0.408-0.139-0.811-0.177-0.893
		c-0.111-0.245-0.343-0.375-0.711-0.398C7.651,14.801,7.594,14.8,7.547,14.8z M7.56,14.886c0.046-0.001,0.097,0.001,0.16,0.005
		c0.553,0.029,0.658,0.182,0.803,1.165c0.056,0.38,0.103,0.733,0.104,0.785c0,0.065-0.077,0.144-0.27,0.274
		c-0.286,0.191-0.655,0.541-0.834,0.789l-0.107,0.147l-0.021-0.346c-0.011-0.189-0.011-0.632,0-0.983
		c0.025-0.725,0.005-0.797-0.231-0.876c-0.194-0.065-0.448-0.135-0.374-0.18c0.083-0.049,0.157-0.014,0.365-0.066
		c0.074-0.018,0.07-0.015,0.059-0.078c-0.022-0.112-0.132-0.164-0.444-0.147c-0.246,0.013-0.278,0.006-0.262-0.06
		c0.034-0.134,0.173-0.223,0.379-0.242c0.111-0.011,0.273-0.06,0.362-0.108C7.345,14.91,7.422,14.888,7.56,14.886z M8.796,17.04
		c0.013,0,0.023,0,0.033,0.002c0.143,0.021,4.229,3.216,4.229,3.305c0,0.035-0.033,0.064-0.074,0.062
		c-0.04-0.001-1.079-0.295-2.31-0.654c-1.964-0.572-2.246-0.666-2.331-0.769c-0.12-0.146-0.124-0.368-0.011-0.519
		c0.046-0.061,0.084-0.137,0.084-0.169c0-0.097-0.208,0.15-0.248,0.296c-0.046,0.168,0.041,0.451,0.167,0.543
		c0.05,0.035,0.425,0.165,0.832,0.285c0.694,0.207,0.742,0.229,0.778,0.343c0.089,0.277-0.203,0.597-0.626,0.688
		c-0.136,0.031-0.309,0.11-0.43,0.201c-0.475,0.357-0.807,0.57-1.084,0.689c-0.163,0.07-0.32,0.15-0.35,0.178
		c-0.028,0.027-0.07,0.154-0.093,0.283c-0.05,0.271-0.071,0.314-0.151,0.314c-0.047,0-0.051-0.023-0.02-0.111
		c0.06-0.162,0.053-0.369-0.012-0.369c-0.035,0-0.056,0.057-0.056,0.154c0,0.082-0.025,0.176-0.056,0.207
		c-0.046,0.045-0.052,0.012-0.033-0.197c0.013-0.139,0.007-0.254-0.012-0.254c-0.038,0-0.112,0.211-0.14,0.396
		c-0.015,0.107-0.016,0.107-0.051-0.021c-0.028-0.1-0.014-0.166,0.056-0.293c0.05-0.09,0.093-0.223,0.093-0.293
		c0-0.107,0.079-0.211,0.467-0.605c0.26-0.263,0.56-0.586,0.669-0.722c0.189-0.233,0.199-0.258,0.192-0.495
		c-0.004-0.137-0.02-0.259-0.034-0.273c-0.05-0.051-0.115,0.212-0.09,0.356c0.023,0.132-0.001,0.176-0.272,0.497
		c-0.165,0.194-0.444,0.486-0.62,0.65c-0.323,0.303-0.44,0.467-0.44,0.621c0,0.047-0.035,0.172-0.08,0.275s-0.07,0.211-0.056,0.234
		c0.014,0.029,0.004,0.027-0.028-0.004c-0.036-0.033-0.039-0.1-0.009-0.236c0.022-0.105,0.032-0.207,0.021-0.227
		c-0.046-0.076-0.099,0.021-0.125,0.229c-0.016,0.119-0.044,0.207-0.064,0.195c-0.061-0.041-0.041-0.258,0.033-0.369
		c0.039-0.057,0.087-0.193,0.105-0.303c0.056-0.309,0.188-0.553,0.482-0.885c0.149-0.169,0.271-0.313,0.271-0.321
		s-0.039-0.131-0.087-0.273c-0.111-0.33-0.119-0.832-0.018-1.137c0.105-0.321,0.325-0.64,0.671-0.976
		C8.304,17.246,8.624,17.043,8.796,17.04z M10.047,19.717c0.039-0.004,0.076,0.016,0.082,0.04c0,0.003,0.001,0.005,0.001,0.008
		c-0.005,0.026-0.041,0.045-0.079,0.041c-0.033-0.002-0.06-0.02-0.063-0.041C9.988,19.742,10.013,19.721,10.047,19.717z
		 M10.254,19.745L10.254,19.745c0.039-0.005,0.077,0.012,0.083,0.038c0.002,0.003,0.002,0.007,0.002,0.01
		c0,0.025-0.032,0.048-0.072,0.048c-0.039,0-0.072-0.022-0.072-0.048C10.194,19.769,10.219,19.749,10.254,19.745z M10.471,19.786
		c0.003,0,0.006,0,0.009,0c0.039-0.003,0.073,0.017,0.077,0.044c0,0.001,0,0.002,0,0.004c-0.006,0.024-0.041,0.046-0.08,0.04
		c-0.033-0.003-0.059-0.02-0.062-0.04C10.414,19.81,10.437,19.79,10.471,19.786z M10.668,19.826c0.003-0.001,0.006-0.001,0.009,0
		c0.04-0.004,0.074,0.018,0.077,0.043c0,0.001,0,0.002,0,0.004c0,0.027-0.032,0.048-0.071,0.048c-0.041,0-0.072-0.021-0.072-0.048
		C10.61,19.851,10.634,19.831,10.668,19.826z M10.144,19.873c0,0,0,0,0.002,0c0.039-0.005,0.076,0.015,0.083,0.039
		c0.001,0.003,0.001,0.007,0.001,0.01c0,0.026-0.032,0.047-0.071,0.047c-0.04,0-0.072-0.021-0.072-0.047
		C10.085,19.899,10.11,19.88,10.144,19.873z M10.351,19.907c0.037-0.004,0.075,0.013,0.082,0.04
		c0.001,0.002,0.001,0.005,0.001,0.008c0,0.026-0.031,0.048-0.071,0.048c-0.039,0-0.072-0.021-0.072-0.048
		C10.291,19.933,10.316,19.912,10.351,19.907z M10.783,19.925c0.038-0.005,0.076,0.014,0.083,0.039
		c0.001,0.002,0.001,0.005,0.001,0.008c0,0.027-0.032,0.048-0.072,0.048c-0.038,0-0.071-0.021-0.071-0.048
		C10.723,19.949,10.749,19.93,10.783,19.925z M10.555,19.93c0.038-0.007,0.075,0.012,0.082,0.037
		c0.001,0.002,0.001,0.005,0.001,0.008c0,0.027-0.031,0.048-0.071,0.048c-0.039,0-0.072-0.021-0.072-0.048
		C10.495,19.952,10.52,19.933,10.555,19.93z M10.975,19.976c0.007-0.008,0.307,0.068,0.665,0.172l0.653,0.188l-0.127,0.224
		c-0.069,0.123-0.156,0.289-0.195,0.367c-0.076,0.16-0.104,0.162-0.496,0.07c-0.434-0.098-1.119-0.193-1.817-0.25l-0.672-0.055
		l0.253-0.096c0.14-0.053,0.34-0.143,0.444-0.2c0.166-0.092,0.232-0.103,0.486-0.085c0.376,0.028,0.63-0.042,0.724-0.198
		C10.933,20.048,10.969,19.986,10.975,19.976z M10.239,20.022c0.001,0,0.001,0,0.002,0c0.039-0.004,0.076,0.015,0.083,0.039
		c0.002,0.004,0.002,0.007,0.002,0.01c0,0.027-0.033,0.048-0.071,0.048c-0.041,0-0.073-0.021-0.073-0.048
		C10.18,20.049,10.206,20.029,10.239,20.022z M10.709,20.022c0.001,0,0.001,0,0.002,0c0.039-0.004,0.075,0.015,0.082,0.039
		c0.001,0.004,0.001,0.007,0.001,0.01c0,0.027-0.031,0.048-0.071,0.048s-0.071-0.021-0.071-0.048
		C10.651,20.049,10.674,20.029,10.709,20.022z M10.035,20.03c0.003,0,0.006,0,0.01,0c0.039-0.001,0.073,0.018,0.076,0.043
		c0,0.001,0,0.003,0,0.005c0,0.026-0.032,0.047-0.072,0.047c-0.039,0-0.071-0.021-0.071-0.047C9.976,20.055,10,20.035,10.035,20.03z
		 M10.48,20.038c0.038-0.004,0.076,0.012,0.083,0.037c0.001,0.003,0.001,0.008,0.001,0.011c0,0.024-0.032,0.047-0.072,0.047
		c-0.039,0-0.071-0.022-0.071-0.047S10.445,20.042,10.48,20.038z M9.933,20.137c0.001,0,0.001,0,0.002,0
		c0.039-0.004,0.076,0.014,0.082,0.038c0,0.004,0.001,0.008,0.001,0.01c-0.005,0.025-0.04,0.045-0.08,0.041
		c-0.032-0.003-0.059-0.02-0.062-0.041C9.875,20.161,9.899,20.141,9.933,20.137z M10.137,20.14c0.003,0,0.006,0,0.009,0
		c0.039-0.002,0.073,0.018,0.076,0.045c0,0.001,0,0.002,0,0.004c-0.005,0.024-0.041,0.045-0.08,0.04
		c-0.032-0.003-0.059-0.02-0.062-0.04C10.08,20.164,10.104,20.144,10.137,20.14z M10.357,20.147
		c0.038-0.005,0.076,0.012,0.082,0.039c0.001,0.002,0.002,0.005,0.002,0.008c0,0.025-0.032,0.047-0.072,0.047
		c-0.039,0-0.072-0.021-0.072-0.047C10.296,20.171,10.322,20.151,10.357,20.147z M10.587,20.153L10.587,20.153
		c0.041-0.004,0.077,0.014,0.083,0.04c0.001,0.003,0.001,0.006,0.001,0.009c-0.005,0.026-0.04,0.044-0.08,0.041
		c-0.031-0.002-0.058-0.021-0.062-0.041C10.529,20.179,10.553,20.158,10.587,20.153z M8.897,20.826
		c0.286-0.01,1.283,0.062,1.756,0.133c0.416,0.062,1.146,0.199,1.171,0.219c0.006,0.004-0.057,0.205-0.142,0.441
		c-0.083,0.24-0.16,0.461-0.169,0.494c-0.013,0.047-0.063,0.053-0.206,0.031c-0.693-0.107-2.691-0.098-3.46,0.018
		c-0.437,0.064-0.502,0.061-0.464-0.033c0.018-0.039,0.054-0.174,0.081-0.293l0.051-0.221l0.463-0.242
		c0.255-0.131,0.539-0.301,0.631-0.375c0.092-0.072,0.187-0.148,0.214-0.162C8.831,20.83,8.857,20.828,8.897,20.826z M6.653,22.01
		c0.021,0,0.073,0.023,0.133,0.062c0.078,0.049,0.179,0.092,0.222,0.092c0.218,0.002,0.337,0.309,0.521,1.336
		c0.025,0.145,0.057,0.305,0.066,0.357c0.018,0.084-0.007,0.102-0.193,0.145c-0.235,0.053-0.294,0.057-0.294,0.025
		c0-0.088-0.233-1.143-0.336-1.514c-0.07-0.254-0.128-0.475-0.128-0.496c0-0.002,0.001-0.006,0.003-0.006
		C6.648,22.01,6.65,22.01,6.653,22.01z M9.035,22.164h0.238l-0.079,0.092c-0.142,0.162-0.209,0.176-0.308,0.068
		c-0.05-0.057-0.091-0.113-0.091-0.129C8.795,22.178,8.903,22.164,9.035,22.164z M9.541,22.164h0.227h0.226l-0.1,0.109
		c-0.122,0.137-0.131,0.137-0.253,0L9.541,22.164z M10.224,22.164h0.104c0.057,0,0.161,0.012,0.232,0.027l0.129,0.025l-0.12,0.105
		c-0.065,0.057-0.126,0.104-0.134,0.102c-0.008,0-0.06-0.061-0.114-0.131L10.224,22.164z M10.927,22.195l0.104,0.027
		c0.059,0.014,0.183,0.029,0.275,0.029h0.168l-0.126,0.107c-0.07,0.059-0.137,0.107-0.149,0.109c-0.014,0-0.08-0.061-0.148-0.137
		L10.927,22.195z M8.414,22.211c0.012,0,0.02,0,0.021,0.002c0.009,0.008-0.025,0.068-0.078,0.133l-0.098,0.115l-0.122-0.1
		L8.016,22.26l0.203-0.033C8.301,22.215,8.377,22.209,8.414,22.211z M8.606,22.223c0-0.004,0.061,0.049,0.134,0.115l0.134,0.125
		l-0.247,0.016L8.377,22.49l0.114-0.129C8.554,22.287,8.606,22.227,8.606,22.223z M10.113,22.223c0.018,0,0.035,0.01,0.057,0.029
		c0.037,0.031,0.085,0.096,0.107,0.137c0.036,0.072,0.025,0.08-0.076,0.076c-0.065-0.002-0.162-0.016-0.216-0.033l-0.099-0.025
		l0.108-0.105C10.051,22.244,10.083,22.219,10.113,22.223z M9.415,22.223c0.047-0.006,0.082,0.029,0.132,0.105
		c0.062,0.096,0.06,0.098-0.166,0.096l-0.225-0.002l0.119-0.107C9.334,22.26,9.377,22.229,9.415,22.223z M10.826,22.24l0.104,0.102
		c0.112,0.109,0.133,0.176,0.05,0.164c-0.028-0.004-0.134-0.016-0.233-0.023l-0.179-0.018l0.131-0.111L10.826,22.24z M7.901,22.297
		c0.021,0,0.08,0.047,0.133,0.105l0.096,0.105l-0.204,0.027c-0.112,0.018-0.242,0.035-0.289,0.045
		c-0.062,0.012-0.044-0.02,0.074-0.133C7.796,22.363,7.882,22.297,7.901,22.297z M7.589,22.303c0.014-0.002,0.027,0,0.037,0.002
		c0.069,0.012,0.063,0.027-0.05,0.143l-0.13,0.125l-0.036-0.105c-0.031-0.088-0.022-0.111,0.05-0.141
		C7.496,22.312,7.547,22.303,7.589,22.303z M11.415,22.449c0.02-0.002,0.023,0.014,0.012,0.047c-0.024,0.068-0.1,0.084-0.1,0.023
		c0-0.021,0.029-0.051,0.062-0.062C11.401,22.453,11.408,22.449,11.415,22.449z M9.64,22.58c0.639,0,1.288,0.018,1.445,0.037
		c0.264,0.033,0.284,0.043,0.284,0.143c0,0.115-0.036,0.121-0.38,0.061c-0.104-0.02-0.522-0.059-0.931-0.09
		c-0.71-0.053-1.588-0.023-2.371,0.078c-0.162,0.02-0.2,0.012-0.2-0.041C7.488,22.654,8.333,22.58,9.64,22.58z M8.782,22.82h0.226
		h0.226l-0.1,0.109c-0.122,0.137-0.131,0.137-0.253,0L8.782,22.82z M9.361,22.82l0.118,0.117c0.065,0.066,0.118,0.127,0.118,0.133
		c0,0.008-0.107,0.014-0.239,0.014h-0.24l0.121-0.131L9.361,22.82z M9.541,22.82h0.227h0.226l-0.1,0.109
		c-0.122,0.137-0.131,0.137-0.253,0L9.541,22.82z M8.473,22.828c0.019,0,0.002,0.033-0.058,0.117
		c-0.055,0.078-0.112,0.139-0.127,0.139s-0.07-0.051-0.125-0.109l-0.1-0.109h0.152c0.082,0,0.184-0.014,0.223-0.029
		C8.455,22.828,8.466,22.826,8.473,22.828z M8.642,22.865l0.108,0.098c0.06,0.055,0.114,0.104,0.122,0.107
		c0.007,0.002-0.091,0.012-0.219,0.02L8.42,23.107l0.111-0.123L8.642,22.865z M10.087,22.865l0.122,0.131
		c0.133,0.145,0.12,0.15-0.183,0.092l-0.143-0.023l0.102-0.102L10.087,22.865z M10.258,22.865h0.197
		c0.212,0,0.239,0.031,0.119,0.146c-0.099,0.094-0.099,0.094-0.217-0.037L10.258,22.865z M7.71,22.91
		c0.095,0,0.092,0.008-0.032,0.129c-0.095,0.094-0.106,0.096-0.133,0.025C7.515,22.98,7.589,22.912,7.71,22.91z M10.938,22.922
		c0.033,0,0.1,0.008,0.174,0.02l0.181,0.033l-0.104,0.102l-0.103,0.102l-0.091-0.119c-0.05-0.066-0.084-0.125-0.076-0.133
		C10.92,22.924,10.927,22.922,10.938,22.922z M7.946,22.963c0.025-0.004,0.048,0.016,0.092,0.057
		c0.084,0.078,0.085,0.086,0.012,0.115c-0.041,0.016-0.133,0.033-0.202,0.035l-0.125,0.002l0.114-0.117
		C7.892,22.994,7.919,22.967,7.946,22.963z M10.783,22.984c0.029-0.002,0.053,0.023,0.093,0.082l0.077,0.105h-0.175
		c-0.113,0-0.168-0.018-0.158-0.051c0.01-0.029,0.054-0.076,0.099-0.105C10.745,22.996,10.765,22.986,10.783,22.984z M11.317,23.096
		c0.009,0.002,0.01,0.02,0.01,0.047c0,0.082-0.067,0.135-0.102,0.08c-0.012-0.023,0.005-0.064,0.04-0.094
		C11.291,23.107,11.307,23.094,11.317,23.096z M9.159,23.197c0.721-0.002,1.523,0.047,1.989,0.135l0.137,0.025v0.367
		c0,0.268-0.013,0.365-0.052,0.361c-0.028-0.002-0.214-0.041-0.412-0.086c-0.595-0.133-1.268-0.184-2.025-0.154
		c-0.382,0.016-0.782,0.045-0.891,0.062l-0.197,0.037L7.66,23.641c-0.026-0.168-0.041-0.311-0.034-0.318
		c0.008-0.008,0.192-0.039,0.412-0.07C8.321,23.215,8.725,23.197,9.159,23.197z"/>
	<path id="path7067" d="M10.611,21.111c-0.247,0-0.423,0.182-0.423,0.438c0,0.4,0.449,0.594,0.722,0.312
		C11.18,21.576,10.995,21.111,10.611,21.111z M10.61,21.215c0.182-0.008,0.339,0.135,0.339,0.34c0,0.24-0.279,0.408-0.493,0.297
		c-0.23-0.119-0.214-0.506,0.026-0.607C10.524,21.227,10.567,21.215,10.61,21.215z"/>
	<g>
		<path id="path7067_1_" d="M8.941,21.061c-0.247,0-0.423,0.184-0.423,0.439c0,0.4,0.449,0.594,0.721,0.311
			C9.511,21.529,9.326,21.061,8.941,21.061z M8.939,21.164c0.183-0.008,0.339,0.135,0.339,0.34c0,0.242-0.279,0.408-0.493,0.297
			c-0.229-0.119-0.212-0.504,0.027-0.607C8.855,21.176,8.897,21.166,8.939,21.164z"/>
	</g>
	<path d="M7.551,15.078c-0.074,0.006-0.132,0.07-0.132,0.146c0,0.082,0.064,0.147,0.144,0.147s0.143-0.065,0.143-0.147
		c0-0.081-0.062-0.146-0.142-0.146C7.56,15.078,7.555,15.078,7.551,15.078z M7.562,15.13c0.052,0.001,0.093,0.043,0.093,0.095
		c0,0.053-0.042,0.096-0.097,0.096c-0.054,0-0.096-0.042-0.096-0.096l0,0c0-0.053,0.042-0.095,0.095-0.095
		C7.56,15.13,7.561,15.13,7.562,15.13z"/>
</g>
</svg>
