<?xml version="1.0" encoding="utf-8"?>
<!-- Generator: Adobe Illustrator 16.0.0, SVG Export Plug-In . SVG Version: 6.00 Build 0)  -->
<!DOCTYPE svg PUBLIC "-//W3C//DTD SVG 1.1//EN" "http://www.w3.org/Graphics/SVG/1.1/DTD/svg11.dtd">
<svg version="1.1" id="Layer_1" xmlns="http://www.w3.org/2000/svg" xmlns:xlink="http://www.w3.org/1999/xlink" x="0px" y="0px"
	 width="40px" height="40px" viewBox="0 0 40 40" enable-background="new 0 0 40 40" xml:space="preserve">
<g>
	<g>
		<path fill="#FFFFFF" d="M20,1c10.477,0,19,8.523,19,19s-8.523,19-19,19S1,30.477,1,20S9.523,1,20,1 M20,0C8.954,0,0,8.954,0,20
			s8.954,20,20,20s20-8.954,20-20S31.046,0,20,0L20,0z"/>
	</g>
	<g>
		<circle fill="#FFFFFF" cx="20" cy="20" r="15"/>
		<g>
			<path fill-rule="evenodd" clip-rule="evenodd" fill="#669900" d="M24.876,27.125l-4.874-3.54l-4.874,3.54l1.86-5.73l-4.876-3.539
				h6.024l1.865-5.73l1.861,5.726l6.024,0.004l-4.874,3.541L24.876,27.125z"/>
		</g>
		<path fill="#669900" d="M26.947,21.152l-1.446,1.053l0.575,1.769h6.18c0.292-0.901,0.49-1.847,0.575-2.821H26.947z"/>
		<g>
			<path fill="#669900" d="M13.927,23.974l0.576-1.769l-1.45-1.053H7.169c0.089,0.975,0.283,1.92,0.577,2.821H13.927z"/>
		</g>
	</g>
</g>
</svg>
