<?xml version="1.0" encoding="utf-8"?>
<!-- Generator: Adobe Illustrator 16.0.0, SVG Export Plug-In . SVG Version: 6.00 Build 0)  -->
<!DOCTYPE svg PUBLIC "-//W3C//DTD SVG 1.0//EN" "http://www.w3.org/TR/2001/REC-SVG-20010904/DTD/svg10.dtd">
<svg version="1.0" id="Layer_1" xmlns="http://www.w3.org/2000/svg" xmlns:xlink="http://www.w3.org/1999/xlink" x="0px" y="0px"
	 width="40px" height="40px" viewBox="0 0 40 40" enable-background="new 0 0 40 40" xml:space="preserve">
<ellipse transform="matrix(-0.2588 -0.9659 0.9659 -0.2588 22.4609 36.0578)" fill="#FFFFFF" cx="25.065" cy="9.411" rx="2.053" ry="1.857"/>
<g>
	<path fill="#FFFFFF" d="M27.456,12.631c-0.358-0.357-0.853-0.578-1.396-0.578c-0.545,0-1.039,0.22-1.396,0.578
		c-0.357,0.358-0.579,0.852-0.579,1.397l0.354,6.746l-0.354,9.752h0.979L25.1,31.08l-2.312,0.341v1.08h5.245v-9.485
		c-0.208,0.119-0.448,0.19-0.706,0.19c-0.777,0-1.409-0.634-1.409-1.411V15h0.705v6.795c0,0.389,0.314,0.704,0.704,0.704
		c0.391,0,0.706-0.315,0.706-0.704V15v-0.972C28.033,13.483,27.812,12.989,27.456,12.631z"/>
	<path fill="#FFFFFF" d="M19.98,18.655c-0.023-0.063-0.054-0.123-0.091-0.179c-0.016-0.022-0.03-0.046-0.047-0.067
		c-0.056-0.065-0.12-0.124-0.194-0.168c-0.003-0.002-0.004-0.004-0.007-0.006l0,0c-0.09-0.053-0.192-0.09-0.303-0.103l-3.554-0.533
		l0.188-3.57c0-0.545-0.222-1.039-0.579-1.397c-0.357-0.357-0.852-0.578-1.396-0.578c-0.545,0-1.039,0.22-1.396,0.578
		c-0.356,0.358-0.578,0.852-0.578,1.397v18.473h5.247v-1.08l-2.311-0.341l0.591-9.026l0.108-2.06L14.056,19.8
		c-0.396-0.048-0.751-0.249-1-0.563c-0.242-0.31-0.354-0.712-0.309-1.105L13.128,15h0.71l-0.39,3.217
		c-0.026,0.208,0.034,0.419,0.163,0.584c0.13,0.166,0.32,0.273,0.529,0.298l5.004,0.607c0.071,0.01,0.142,0.008,0.208-0.002
		c0.347-0.049,0.632-0.325,0.676-0.689c0.012-0.098,0-0.193-0.023-0.284C19.999,18.705,19.989,18.681,19.98,18.655z"/>
	<path fill="#FFFFFF" d="M23.57,17.704l-2.85,0.428c-0.064,0.008-0.119,0.037-0.178,0.059c0.155,0.275,0.223,0.59,0.184,0.909
		c-0.023,0.201-0.099,0.383-0.193,0.552c0.056,0.021,0.109,0.045,0.17,0.053c0.066,0.01,0.137,0.012,0.207,0.002l2.75-0.333
		L23.57,17.704z"/>
	
		<ellipse transform="matrix(0.9659 0.259 -0.259 0.9659 2.9489 -3.5609)" fill="#FFFFFF" cx="14.989" cy="9.412" rx="1.857" ry="2.054"/>
	<path fill="#FFFFFF" d="M23.271,9.893c0.293,1.096,1.334,1.769,2.326,1.503c0.989-0.264,1.555-1.368,1.262-2.464
		c-0.107-0.402-0.315-0.745-0.584-1.008l-0.356-1.329l-3,0.805l0.356,1.329C23.173,9.089,23.165,9.491,23.271,9.893z"/>
</g>
<g>
	<path fill="#FF9000" d="M20,0C8.972,0,0,8.971,0,20c0,11.027,8.972,20,20,20s20-8.973,20-20C40,8.971,31.028,0,20,0L20,0z"/>
	<g>
		<ellipse fill="#FFFFFF" cx="20.027" cy="9.647" rx="1.911" ry="2.147"/>
		<path fill="#FFFFFF" d="M10.026,11.794c1.054-0.001,1.909-0.947,1.909-2.116c0-1.167-0.855-2.114-1.909-2.113
			c-1.058,0-1.913,0.945-1.913,2.114C8.113,10.847,8.97,11.794,10.026,11.794z"/>
		<path fill="#FFFFFF" d="M6.828,11.794h1.473c-0.391-0.37-0.676-0.86-0.809-1.419H6.828c-0.392,0-0.709,0.319-0.709,0.71
			C6.119,11.477,6.437,11.794,6.828,11.794z"/>
		<ellipse fill="#FFFFFF" cx="30.027" cy="9.68" rx="1.912" ry="2.114"/>
		<path fill="#FFFFFF" d="M33.225,11.794c0.392,0,0.709-0.317,0.709-0.709c0-0.391-0.317-0.71-0.709-0.71H32.56
			c-0.132,0.559-0.418,1.049-0.808,1.419H33.225z"/>
		<path fill="#FFFFFF" d="M34.062,13.077c-0.357-0.356-0.852-0.578-1.396-0.578h-7.088l1.948,2.5l0.254,4.184l-1.485,11.949
			l-0.914,0.256V32.5h2.823l1.824-10l0.589,10h2.826v-1.111l-0.915-0.256l-0.004-9.977v-5.452L33.229,15v7.241
			c0,0.39,0.316,0.705,0.705,0.705c0.39,0,0.704-0.315,0.704-0.705v-6.795h0.002v-0.972C34.64,13.928,34.418,13.435,34.062,13.077z"
			/>
		<path fill="#FFFFFF" d="M25.026,11.794h3.285c-0.387-0.37-0.673-0.86-0.81-1.419H24.53c-0.095,0-0.187,0.02-0.273,0.056
			c0,0-2.992,2.071-3.444,2.071c-0.169,0-5.234-0.004-5.234-0.004l1.949,2.5l0.254,4.184l-1.487,11.949l-0.912,0.256V32.5h2.821
			l1.824-10l1.824,10h2.822v-1.111l-0.913-0.256l-1.485-11.949L22.526,15L25.026,11.794z"/>
		<path fill="#FFFFFF" d="M15.025,11.794h3.285c-0.388-0.37-0.675-0.86-0.81-1.419h-2.974c-0.093,0-0.187,0.02-0.271,0.056
			c0,0-2.993,2.07-3.445,2.07c-0.168,0-3.422-0.002-3.422-0.002c-0.546,0-1.039,0.222-1.396,0.578
			c-0.358,0.358-0.578,0.851-0.578,1.396v0.972l0,0v6.795c0,0.39,0.316,0.705,0.705,0.705c0.39,0,0.706-0.315,0.706-0.705V15
			l0.704,0.705v5.452l-0.004,9.977l-0.914,0.256V32.5h2.824l0.591-10v-0.001L11.85,32.5h2.08h0.744v-1.111l-0.914-0.256
			l-1.487-11.949L12.525,15L15.025,11.794z"/>
	</g>
</g>
</svg>
