<?xml version="1.0" encoding="utf-8"?>
<!-- Generator: Adobe Illustrator 16.0.0, SVG Export Plug-In . SVG Version: 6.00 Build 0)  -->
<!DOCTYPE svg PUBLIC "-//W3C//DTD SVG 1.0//EN" "http://www.w3.org/TR/2001/REC-SVG-20010904/DTD/svg10.dtd">
<svg version="1.0" id="Layer_1" xmlns="http://www.w3.org/2000/svg" xmlns:xlink="http://www.w3.org/1999/xlink" x="0px" y="0px"
	 width="40px" height="40px" viewBox="0 0 40 40" enable-background="new 0 0 40 40" xml:space="preserve">
<g>
	<path fill="#C7C7CD" d="M20,0C8.972,0,0,8.972,0,19.999C0,31.027,8.972,40,20,40s20-8.973,20-20.001C40,8.972,31.028,0,20,0L20,0z"
		/>
	<g>
		<path fill="#FFFFFF" d="M28.051,7.492L8.73,12.669l1.296,4.83l19.319-5.177L28.051,7.492z M20.784,10.9l2.75-0.737l-1.542,2.67
			l-2.75,0.737L20.784,10.9z M17.315,14.086l-2.751,0.737l1.539-2.669l2.754-0.738L17.315,14.086z M10.459,13.667l3.722-0.997
			l-1.541,2.67l-1.617,0.434L10.459,13.667z M23.919,12.317l1.541-2.669l1.595-0.427l0.563,2.105L23.919,12.317z"/>
		<path fill="#FFFFFF" d="M10.028,17.499h-0.002v5h0.002V30h19.998v-7.502v-5H10.028z M17.282,21.09l-2.18-2.179h2.85l2.178,2.179
			H17.282z M22.124,21.09l-2.179-2.179h2.85l2.179,2.179H22.124z M26.968,21.09l-2.179-2.179h3.828v2.179H26.968z M13.108,18.911
			l2.179,2.179h-3.849v-2.179H13.108z M11.438,22.498h8.261v6.092h-8.261V22.498z M28.617,28.59h-8.212v-6.092h8.212V28.59z"/>
		<path fill="#FFFFFF" d="M25.242,25.043l0.388-0.311c0.046-0.037,0.128-0.115,0.247-0.234l-0.012,0.352l-0.006,0.32v1.953h0.712
			V23.75h-0.585l-1.088,0.865L25.242,25.043z"/>
	</g>
</g>
</svg>
