<?xml version="1.0" encoding="utf-8"?>
<!-- Generator: Adobe Illustrator 16.0.0, SVG Export Plug-In . SVG Version: 6.00 Build 0)  -->
<!DOCTYPE svg PUBLIC "-//W3C//DTD SVG 1.0//EN" "http://www.w3.org/TR/2001/REC-SVG-20010904/DTD/svg10.dtd">
<svg version="1.0" id="Layer_1" xmlns="http://www.w3.org/2000/svg" xmlns:xlink="http://www.w3.org/1999/xlink" x="0px" y="0px"
	 width="40px" height="40px" viewBox="0 0 40 40" enable-background="new 0 0 40 40" xml:space="preserve">
<g>
	<path fill="#FF9000" d="M20,0C8.97,0,0,8.972,0,19.999C0,31.03,8.97,40.001,20,40.001c11.028,0,20-8.971,20-20.002
		C40,8.972,31.028,0,20,0L20,0z"/>
	<path fill="#FFFFFF" d="M20.028,19.018l-6.368-2.545l-0.591,3.526h0.005c0,1.381,4.451,1.412,6.954,3.914
		c2.498-2.502,6.957-2.533,6.957-3.914l-0.591-3.526L20.028,19.018z"/>
	<path fill="#FFFFFF" d="M20.028,17.499l12.5-4.998l-12.5-5.003L7.524,12.501l2.149,0.858v6.748
		c-0.207,0.123-0.354,0.34-0.354,0.597v3.592c0,0.389,0.316,0.705,0.705,0.705c0.391,0,0.705-0.316,0.705-0.705v-3.592
		c0-0.259-0.146-0.475-0.354-0.598v-6.466L20.028,17.499z M20.028,11.794c0.389,0,0.702,0.315,0.702,0.704
		c0,0.392-1.409,0.392-1.409,0C19.321,12.109,19.638,11.794,20.028,11.794z"/>
	<path fill="#FFFFFF" d="M24.868,22.136v0.988c0,4.32-2.218,7.967-4.84,7.967c-2.624,0-4.843-3.646-4.843-7.967v-0.988
		c-0.508-0.174-0.992-0.344-1.411-0.531v1.52c0,5.18,2.801,9.377,6.254,9.377c3.451,0,6.252-4.197,6.252-9.377v-1.52
		C25.86,21.792,25.376,21.962,24.868,22.136z"/>
</g>
<path fill="#FFAC40" d="M20,1c10.477,0,19,8.524,19,19c0,10.477-8.523,19-19,19C9.523,39,1,30.477,1,20C1,9.524,9.523,1,20,1 M20,0
	C8.954,0,0,8.955,0,20c0,11.044,8.954,20,20,20s20-8.955,20-20S31.046,0,20,0L20,0z"/>
</svg>
