<?xml version="1.0" encoding="utf-8"?>
<!-- Generator: Adobe Illustrator 16.0.0, SVG Export Plug-In . SVG Version: 6.00 Build 0)  -->
<!DOCTYPE svg PUBLIC "-//W3C//DTD SVG 1.0//EN" "http://www.w3.org/TR/2001/REC-SVG-20010904/DTD/svg10.dtd">
<svg version="1.0" id="Layer_1" xmlns="http://www.w3.org/2000/svg" xmlns:xlink="http://www.w3.org/1999/xlink" x="0px" y="0px"
	 width="40px" height="40px" viewBox="0 0 40 40" enable-background="new 0 0 40 40" xml:space="preserve">
<g>
	<path fill="#FF9000" d="M20,0C8.971,0,0,8.972,0,20c0,11.027,8.971,20,20,20c11.028,0,20-8.973,20-20C40,8.972,31.027,0,20,0L20,0z
		"/>
	<g>
		<rect x="29.322" y="8.745" fill="#FFFFFF" width="1.41" height="2.5"/>
		<rect x="29.322" y="13.748" fill="#FFFFFF" width="1.41" height="2.5"/>
		<rect x="29.322" y="18.749" fill="#FFFFFF" width="1.41" height="2.503"/>
		<rect x="29.322" y="23.752" fill="#FFFFFF" width="1.41" height="2.5"/>
		<rect x="29.322" y="28.754" fill="#FFFFFF" width="1.41" height="2.5"/>
		<path fill="#FFFFFF" d="M29.322,3.75v2.494h1.41V4.646C30.277,4.328,29.807,4.027,29.322,3.75z"/>
		<path fill="#FFFFFF" d="M29.322,36.25c0.484-0.277,0.955-0.578,1.41-0.896v-1.598h-1.41V36.25z"/>
		<path fill="#FFFFFF" d="M18.378,24.809l-1.867-1.676l-2.191,6.977c0,0-0.133,0.381-0.151,0.629
			c-0.02,0.246-0.042,1.029-0.042,1.029h3.297l0.043-0.574c0.006-0.211,0.041-0.416,0.104-0.611l-1.585-0.234L18.378,24.809z"/>
		
			<ellipse transform="matrix(-0.2586 0.966 -0.966 -0.2586 35.1511 -5.9397)" fill="#FFFFFF" cx="19.855" cy="10.52" rx="2.054" ry="1.856"/>
		<path fill="#FFFFFF" d="M24.357,19.601l-3.398-1.016l0.998-2.769c0.156-0.522,0.086-1.058-0.156-1.504
			c-0.24-0.443-0.65-0.795-1.172-0.951c-0.359-0.108-0.724-0.106-1.061-0.017c-0.005,0.001-0.009,0.001-0.013,0.001l-2.388,0.64
			l-2.389,0.64c-0.234,0.062-0.422,0.215-0.535,0.411l-2.174,3.926l-0.389-0.225l-0.885,1.531L8.63,19.02l-2.499,4.33l6.494,3.752
			l2.501-4.33l-2.166-1.25l0.885-1.533l-0.395-0.229l2.012-3.484l3.486-0.825v0.726l-1.311,0.31l-0.346,1.16L16.414,20.6
			c-0.155,0.521-0.084,1.059,0.156,1.504c0.062,0.113,0.134,0.221,0.215,0.318c0.004,0.006,0.006,0.012,0.01,0.016l3.627,3.258
			l-2.123,4.953c-0.086,0.188-0.125,0.383-0.125,0.578l-0.101,1.246h4.169v-1.08l-2.311-0.34L22.74,26
			c0.162-0.406,0.059-0.871-0.191-1.227l-2.521-3.607l0.356-0.988l3.563,0.955c0.07,0.018,0.137,0.027,0.205,0.027
			c0.35,0,0.672-0.236,0.766-0.588C25.031,20.147,24.781,19.713,24.357,19.601z M12.351,21.168l-0.944-0.545l0.369-0.638
			c0.056,0.186,0.179,0.354,0.363,0.461c0.125,0.072,0.26,0.105,0.396,0.105c0.063,0,0.126-0.008,0.186-0.023L12.351,21.168z"/>
	</g>
</g>
</svg>
