<?xml version="1.0" encoding="utf-8"?>
<!-- Generator: Adobe Illustrator 16.0.0, SVG Export Plug-In . SVG Version: 6.00 Build 0)  -->
<!DOCTYPE svg PUBLIC "-//W3C//DTD SVG 1.1//EN" "http://www.w3.org/Graphics/SVG/1.1/DTD/svg11.dtd">
<svg version="1.1" id="Layer_1" xmlns="http://www.w3.org/2000/svg" xmlns:xlink="http://www.w3.org/1999/xlink" x="0px" y="0px"
	 width="40px" height="40px" viewBox="0 0 40 40" enable-background="new 0 0 40 40" xml:space="preserve">
<circle fill="#FFFFFF" cx="19.998" cy="20" r="15"/>
<path fill="#2B85D0" d="M21.205,24.999c-1.631,0-3.149-0.999-4.121-1.999H22v-2h-5.891C16.038,21,16,20.342,16,20s0.038-1,0.109-1
	H22v-2h-4.916c0.972-1,2.49-2.001,4.121-2.001c1.125,0,2.152,0.387,2.989,1.017L26,13.606C24.663,12.601,23.007,12,21.205,12
	c-3.356,0-6.344,2-7.588,5H11v2h2.073C13.03,19,13,19.661,13,20s0.03,1,0.073,1H11v2h2.617c1.244,3,4.232,4.999,7.588,4.999
	c1.801,0,3.457-0.603,4.794-1.606l-1.807-2.407C23.356,24.612,22.329,24.999,21.205,24.999z"/>
<path fill="#FFFFFF" d="M20,1c10.477,0,19,8.523,19,19c0,10.477-8.523,19-19,19S1,30.477,1,20C1,9.523,9.523,1,20,1 M20,0
	C8.954,0,0,8.954,0,20c0,11.047,8.954,20,20,20s20-8.953,20-20C40,8.954,31.046,0,20,0L20,0z"/>
</svg>
