<svg xmlns="http://www.w3.org/2000/svg" xmlns:xlink="http://www.w3.org/1999/xlink" width="40" height="40" viewBox="0 0 40 40">
    <defs>
        <path id="prefix__a" d="M0.289 0L28.573 0 28.573 33.711 0.289 33.711z"/>
    </defs>
    <g fill="none" fill-rule="evenodd">
        <path fill="#002395" d="M40 20c0 11.045-8.955 20-20 20S0 31.045 0 20 8.955 0 20 0s20 8.955 20 20"/>
        <g transform="translate(6)">
            <mask id="prefix__b" fill="#fff">
                <use xlink:href="#prefix__a"/>
            </mask>
            <path fill="#FECB00" d="M28.535 33.5l.038-.044V6.293c-3.649-3.866-8.82-6.294-14.574-6.294C8.688 0 3.871 2.073.29 5.432l28.245 28.067z" mask="url(#prefix__b)"/>
        </g>
        <path fill="#FFF" d="M6.423 10.345L7.959 11.46 7.372 9.655 8.908 8.54 7.011 8.54 6.424 6.733 5.836 8.54 3.938 8.54 5.474 9.655 4.886 11.46zM9.86 13.783L11.397 14.898 10.81 13.092 12.345 11.977 10.448 11.977 9.862 10.171 9.273 11.977 7.375 11.977 8.912 13.092 8.323 14.898zM13.297 17.22L14.834 18.335 14.248 16.53 15.783 15.415 13.886 15.415 13.299 13.608 12.711 15.415 10.813 15.415 12.349 16.53 11.761 18.335zM16.735 20.657L18.272 21.773 17.685 19.968 19.22 18.852 17.323 18.852 16.737 17.046 16.148 18.852 14.25 18.852 15.787 19.968 15.198 21.773zM20.172 24.095L21.709 25.21 21.122 23.405 22.657 22.29 20.761 22.29 20.174 20.483 19.586 22.29 17.688 22.29 19.224 23.405 18.636 25.21zM23.61 27.532L25.147 28.648 24.56 26.843 26.095 25.727 24.198 25.727 23.612 23.921 23.023 25.727 21.125 25.727 22.662 26.843 22.073 28.648zM27.998 30.28L29.533 29.165 27.635 29.165 27.05 27.358 26.461 29.165 24.561 29.165 26.098 30.28 25.511 32.085 27.048 30.97 28.585 32.085zM31.436 33.718L32.971 32.602 31.072 32.602 30.487 30.796 29.899 32.602 27.999 32.602 29.535 33.718 28.949 35.523 30.485 34.407 32.022 35.523z"/>
    </g>
</svg>
