<?xml version="1.0" encoding="utf-8"?>
<!-- Generator: Adobe Illustrator 16.0.0, SVG Export Plug-In . SVG Version: 6.00 Build 0)  -->
<!DOCTYPE svg PUBLIC "-//W3C//DTD SVG 1.0//EN" "http://www.w3.org/TR/2001/REC-SVG-20010904/DTD/svg10.dtd">
<svg version="1.0" id="Layer_1" xmlns="http://www.w3.org/2000/svg" xmlns:xlink="http://www.w3.org/1999/xlink" x="0px" y="0px"
	 width="40px" height="40px" viewBox="0 0 40 40" enable-background="new 0 0 40 40" xml:space="preserve">
<g>
	<g>
		<path fill="#010101" d="M0,20c0,8.069,4.782,15.02,11.667,18.181V1.819C4.782,4.98,0,11.931,0,20z"/>
		<path fill="#ED1C24" d="M40,20c0-8.069-4.782-15.02-11.665-18.181v36.361C35.218,35.02,40,28.069,40,20z"/>
		<path fill="#FFDE00" d="M20,0c-2.975,0-5.797,0.654-8.333,1.819v36.361C14.203,39.346,17.025,40,20,40
			c2.976,0,5.797-0.654,8.335-1.819V1.819C25.797,0.654,22.976,0,20,0z"/>
	</g>
</g>
</svg>
