<?xml version="1.0" encoding="utf-8"?>
<!-- Generator: Adobe Illustrator 16.0.0, SVG Export Plug-In . SVG Version: 6.00 Build 0)  -->
<!DOCTYPE svg PUBLIC "-//W3C//DTD SVG 1.0//EN" "http://www.w3.org/TR/2001/REC-SVG-20010904/DTD/svg10.dtd">
<svg version="1.0" id="Layer_1" xmlns="http://www.w3.org/2000/svg" xmlns:xlink="http://www.w3.org/1999/xlink" x="0px" y="0px"
	 width="40px" height="40px" viewBox="0 0 40 40" enable-background="new 0 0 40 40" xml:space="preserve">
<g>
	<g>
		<path fill="#D52B27" d="M20.001,40c8.071,0,15.018-4.782,18.18-11.667H1.819C4.98,35.218,11.93,40,20.001,40z"/>
		<path fill="#FFFFFF" d="M20.001,0C11.93,0,4.98,4.785,1.819,11.667h36.363C35.02,4.785,28.072,0,20.001,0z"/>
		<path fill="#059967" d="M0,20c0,2.976,0.654,5.798,1.819,8.333h36.363C39.346,25.798,40,22.976,40,20s-0.654-5.798-1.818-8.333
			H1.819C0.654,14.202,0,17.024,0,20z"/>
	</g>
</g>
</svg>
