<?xml version="1.0" encoding="utf-8"?>
<!-- Generator: Adobe Illustrator 16.0.0, SVG Export Plug-In . SVG Version: 6.00 Build 0)  -->
<!DOCTYPE svg PUBLIC "-//W3C//DTD SVG 1.0//EN" "http://www.w3.org/TR/2001/REC-SVG-20010904/DTD/svg10.dtd">
<svg version="1.0" id="Layer_1" xmlns="http://www.w3.org/2000/svg" xmlns:xlink="http://www.w3.org/1999/xlink" x="0px" y="0px"
	 width="40px" height="40px" viewBox="0 0 40 40" enable-background="new 0 0 40 40" xml:space="preserve">
<g>
	<g>
		<path fill="#059347" d="M40,20c0,11.047-8.952,20-19.997,20C8.954,40,0,31.047,0,20C0,8.955,8.954,0,20.003,0
			C31.048,0,40,8.955,40,20z"/>
		<g>
			<path id="_x3C_Path_x3E__136_" fill="#F6C116" d="M1.668,20l18.335,11.707L38.336,20L20.003,8.293L1.668,20z"/>
			<g>
				<path id="_x3C_Path_x3E__135_" fill="#2C286C" d="M20.003,12.148c4.334,0,7.849,3.516,7.849,7.852
					c0,4.339-3.515,7.854-7.849,7.854c-4.341,0-7.855-3.515-7.855-7.854C12.147,15.664,15.662,12.148,20.003,12.148z"/>
				<path fill="#FFFFFF" d="M27.813,20.791c-3.436-2.741-7.821-4.319-12.561-4.15c-0.837,0.029-1.657,0.117-2.465,0.252
					c-0.17,0.39-0.304,0.793-0.407,1.213c0.943-0.192,1.916-0.31,2.912-0.347c4.677-0.164,8.994,1.475,12.29,4.289
					C27.693,21.641,27.77,21.221,27.813,20.791z"/>
				<g>
					<path fill="#059347" d="M13.012,17.412c-0.012-0.075-0.009-0.144,0.008-0.195c0.011-0.042,0.031-0.081,0.055-0.117
						c0.024-0.032,0.056-0.062,0.088-0.081c0.045-0.026,0.098-0.046,0.162-0.053c0.111-0.02,0.204,0.005,0.282,0.063
						c0.078,0.061,0.126,0.153,0.143,0.275c0.02,0.124-0.002,0.223-0.059,0.303c-0.055,0.078-0.142,0.124-0.253,0.144
						c-0.113,0.015-0.211-0.007-0.284-0.065C13.076,17.627,13.029,17.536,13.012,17.412z M13.169,17.388
						c0.013,0.086,0.043,0.148,0.09,0.186c0.045,0.037,0.1,0.054,0.158,0.044c0.062-0.007,0.11-0.036,0.143-0.085
						c0.033-0.052,0.044-0.12,0.03-0.208c-0.012-0.088-0.041-0.149-0.085-0.186c-0.045-0.039-0.101-0.052-0.162-0.042
						c-0.065,0.008-0.111,0.035-0.145,0.086C13.167,17.231,13.157,17.298,13.169,17.388z"/>
					<path fill="#059347" d="M14.092,17.653l-0.064-0.766l0.322-0.029c0.083-0.008,0.146-0.006,0.182,0.004
						c0.038,0.011,0.071,0.032,0.096,0.068c0.025,0.032,0.04,0.071,0.045,0.115c0.004,0.057-0.009,0.105-0.037,0.148
						c-0.032,0.039-0.08,0.066-0.147,0.081c0.034,0.017,0.066,0.036,0.091,0.059c0.021,0.02,0.057,0.062,0.096,0.114l0.109,0.145
						l-0.185,0.015l-0.13-0.156c-0.046-0.056-0.075-0.091-0.088-0.104c-0.018-0.015-0.032-0.022-0.051-0.029
						c-0.015-0.005-0.044-0.006-0.078-0.001l-0.032,0.005l0.027,0.318L14.092,17.653z M14.208,17.197l0.115-0.01
						c0.074-0.005,0.12-0.013,0.139-0.022c0.019-0.007,0.033-0.02,0.039-0.036c0.011-0.017,0.013-0.034,0.011-0.059
						c-0.001-0.026-0.011-0.047-0.024-0.062c-0.016-0.014-0.036-0.023-0.064-0.023c-0.011,0-0.048,0-0.112,0.007l-0.118,0.01
						L14.208,17.197z"/>
					<path fill="#059347" d="M15.024,16.807l0.282-0.007c0.063-0.003,0.112,0,0.147,0.009c0.044,0.015,0.082,0.034,0.115,0.069
						c0.035,0.033,0.059,0.072,0.077,0.122c0.02,0.048,0.03,0.109,0.03,0.183c0.001,0.061-0.004,0.115-0.019,0.161
						c-0.017,0.056-0.043,0.103-0.078,0.14c-0.027,0.026-0.062,0.046-0.105,0.062c-0.035,0.01-0.082,0.02-0.139,0.022l-0.292,0.007
						L15.024,16.807z M15.181,16.934l0.014,0.508l0.117-0.003c0.043,0,0.075-0.007,0.094-0.01c0.023-0.009,0.045-0.02,0.062-0.033
						c0.016-0.016,0.027-0.042,0.038-0.078c0.011-0.032,0.012-0.081,0.012-0.138c-0.001-0.061-0.009-0.106-0.02-0.139
						c-0.011-0.029-0.027-0.056-0.045-0.071c-0.021-0.017-0.045-0.029-0.074-0.036c-0.021-0.003-0.064-0.003-0.128-0.003
						L15.181,16.934z"/>
					<path fill="#059347" d="M15.989,17.552L16,16.785l0.568,0.009l-0.002,0.13l-0.415-0.007l-0.003,0.173l0.387,0.005l-0.002,0.129
						l-0.387-0.007l-0.005,0.212l0.431,0.003v0.13L15.989,17.552z"/>
					<path fill="#059347" d="M16.88,17.573l0.053-0.767l0.23,0.017l0.104,0.533l0.174-0.514l0.233,0.016l-0.054,0.767l-0.145-0.011
						l0.043-0.603l-0.195,0.593l-0.148-0.01l-0.108-0.615l-0.044,0.602L16.88,17.573z"/>
					<path fill="#059347" d="M18.413,17.718l0.115-0.762l0.562,0.088l-0.018,0.129l-0.41-0.063l-0.026,0.169l0.383,0.056
						l-0.021,0.13l-0.381-0.059l-0.03,0.205l0.423,0.065l-0.02,0.13L18.413,17.718z"/>
					<path fill="#059347" d="M19.747,17.951l0.174-0.751l0.241,0.056c0.092,0.022,0.15,0.039,0.177,0.052
						c0.041,0.024,0.07,0.056,0.091,0.1c0.02,0.044,0.023,0.098,0.009,0.154c-0.011,0.049-0.026,0.085-0.052,0.112
						c-0.025,0.028-0.051,0.048-0.08,0.058c-0.029,0.013-0.058,0.02-0.085,0.02c-0.037,0-0.089-0.012-0.159-0.026l-0.098-0.022
						l-0.063,0.284L19.747,17.951z M20.044,17.361l-0.051,0.214l0.083,0.02c0.06,0.013,0.099,0.02,0.12,0.016
						c0.022-0.003,0.042-0.013,0.058-0.025c0.015-0.015,0.025-0.033,0.028-0.056c0.007-0.026,0.005-0.049-0.006-0.071
						c-0.015-0.023-0.031-0.039-0.055-0.049c-0.018-0.007-0.052-0.019-0.105-0.029L20.044,17.361z"/>
					<path fill="#059347" d="M20.618,18.159l0.215-0.74l0.312,0.091c0.08,0.022,0.134,0.046,0.165,0.068
						c0.032,0.024,0.057,0.056,0.066,0.098c0.01,0.039,0.01,0.081-0.001,0.124c-0.017,0.055-0.046,0.099-0.087,0.123
						c-0.043,0.028-0.098,0.036-0.166,0.028c0.025,0.027,0.049,0.054,0.062,0.084c0.013,0.028,0.029,0.078,0.049,0.146l0.05,0.169
						l-0.176-0.052l-0.063-0.19c-0.021-0.068-0.037-0.112-0.048-0.132c-0.01-0.019-0.021-0.034-0.035-0.043
						c-0.016-0.013-0.038-0.022-0.073-0.03l-0.031-0.009l-0.087,0.31L20.618,18.159z M20.892,17.776L21,17.806
						c0.071,0.02,0.121,0.031,0.138,0.029c0.018,0,0.035-0.006,0.048-0.018c0.018-0.012,0.026-0.027,0.032-0.052
						c0.008-0.024,0.007-0.046-0.003-0.067c-0.008-0.018-0.023-0.032-0.048-0.042c-0.012-0.007-0.046-0.017-0.106-0.036
						l-0.115-0.032L20.892,17.776z"/>
					<path fill="#059347" d="M21.619,18.057c0.021-0.071,0.055-0.13,0.094-0.176c0.032-0.029,0.063-0.056,0.103-0.075
						s0.079-0.029,0.117-0.032c0.053-0.003,0.106,0.007,0.169,0.026c0.104,0.035,0.179,0.099,0.219,0.187
						c0.04,0.09,0.04,0.194,0.001,0.312c-0.04,0.117-0.104,0.196-0.189,0.24c-0.088,0.044-0.185,0.049-0.292,0.012
						s-0.181-0.1-0.22-0.188C21.576,18.274,21.576,18.172,21.619,18.057z M21.769,18.105c-0.027,0.081-0.031,0.149-0.006,0.205
						c0.022,0.056,0.064,0.095,0.122,0.114c0.059,0.021,0.112,0.016,0.165-0.014c0.055-0.029,0.093-0.084,0.122-0.169
						c0.029-0.083,0.034-0.151,0.009-0.205c-0.021-0.054-0.062-0.091-0.122-0.114c-0.062-0.02-0.117-0.016-0.167,0.014
						C21.837,17.966,21.797,18.021,21.769,18.105z"/>
					<path fill="#059347" d="M22.914,18.641l0.049-0.118l0.307,0.127l-0.112,0.281c-0.042,0.018-0.097,0.022-0.162,0.022
						c-0.066-0.001-0.128-0.015-0.188-0.037c-0.075-0.031-0.133-0.071-0.176-0.127c-0.043-0.052-0.066-0.114-0.069-0.184
						c-0.004-0.07,0.008-0.139,0.037-0.207c0.028-0.075,0.073-0.135,0.127-0.179c0.056-0.046,0.118-0.068,0.19-0.075
						c0.056-0.005,0.117,0.007,0.186,0.036c0.087,0.035,0.146,0.079,0.183,0.138c0.034,0.059,0.045,0.122,0.032,0.194l-0.152-0.033
						c0.006-0.039-0.001-0.074-0.021-0.107c-0.02-0.029-0.052-0.057-0.091-0.071c-0.064-0.026-0.124-0.026-0.176-0.003
						c-0.054,0.025-0.096,0.078-0.13,0.152c-0.032,0.088-0.04,0.156-0.021,0.215c0.021,0.059,0.063,0.098,0.123,0.124
						c0.028,0.013,0.062,0.02,0.099,0.02c0.034,0,0.066-0.003,0.093-0.01l0.038-0.091L22.914,18.641z"/>
					<path fill="#059347" d="M23.408,19.16l0.33-0.691l0.295,0.138c0.076,0.039,0.127,0.068,0.152,0.097
						c0.029,0.029,0.046,0.063,0.051,0.105c0.003,0.041-0.002,0.081-0.022,0.124c-0.024,0.052-0.059,0.088-0.106,0.107
						c-0.049,0.018-0.104,0.018-0.169-0.002c0.021,0.031,0.039,0.063,0.047,0.093c0.01,0.031,0.019,0.081,0.028,0.149l0.018,0.176
						l-0.168-0.078l-0.029-0.198c-0.01-0.071-0.016-0.119-0.024-0.139c-0.006-0.021-0.016-0.035-0.027-0.05
						c-0.013-0.012-0.036-0.023-0.066-0.039l-0.031-0.017l-0.137,0.291L23.408,19.16z M23.738,18.826l0.105,0.051
						c0.068,0.031,0.111,0.049,0.127,0.052c0.021,0,0.038,0,0.054-0.013c0.017-0.008,0.031-0.022,0.041-0.044
						c0.01-0.024,0.013-0.046,0.008-0.066c-0.005-0.02-0.018-0.039-0.04-0.053c-0.01-0.006-0.046-0.022-0.102-0.05l-0.11-0.053
						L23.738,18.826z"/>
					<path fill="#059347" d="M24.258,19.573l0.364-0.674l0.501,0.271l-0.063,0.114l-0.364-0.197l-0.081,0.151l0.34,0.181
						l-0.062,0.115l-0.339-0.184l-0.101,0.184l0.377,0.204l-0.06,0.115L24.258,19.573z"/>
					<path fill="#059347" d="M25.13,19.769l0.135,0.065c-0.018,0.049-0.021,0.09-0.01,0.127c0.01,0.032,0.038,0.065,0.073,0.086
						c0.046,0.028,0.085,0.038,0.117,0.033c0.033-0.005,0.056-0.019,0.072-0.043c0.006-0.016,0.01-0.03,0.01-0.05
						c-0.004-0.014-0.017-0.033-0.031-0.056c-0.012-0.017-0.042-0.047-0.09-0.095c-0.062-0.062-0.098-0.11-0.11-0.152
						c-0.018-0.062-0.01-0.121,0.02-0.171c0.021-0.034,0.049-0.061,0.085-0.077c0.037-0.018,0.078-0.022,0.123-0.018
						c0.046,0.008,0.093,0.026,0.146,0.056c0.083,0.052,0.132,0.105,0.151,0.167c0.02,0.062,0.013,0.124-0.021,0.186l-0.137-0.074
						c0.015-0.038,0.018-0.068,0.008-0.097c-0.01-0.024-0.032-0.05-0.071-0.073c-0.039-0.022-0.071-0.032-0.104-0.029
						c-0.02,0-0.037,0.01-0.045,0.026c-0.01,0.017-0.012,0.036-0.004,0.052c0.009,0.024,0.039,0.063,0.095,0.119
						c0.056,0.054,0.091,0.098,0.114,0.132c0.02,0.036,0.029,0.075,0.029,0.112c0.003,0.041-0.01,0.08-0.034,0.122
						c-0.024,0.036-0.054,0.065-0.097,0.086c-0.042,0.021-0.084,0.024-0.135,0.019c-0.044-0.007-0.1-0.026-0.156-0.062
						c-0.08-0.049-0.132-0.107-0.153-0.172C25.086,19.919,25.093,19.847,25.13,19.769z"/>
					<path fill="#059347" d="M25.898,20.244l0.133,0.071c-0.02,0.048-0.024,0.088-0.018,0.124c0.012,0.036,0.034,0.068,0.076,0.091
						c0.039,0.029,0.078,0.043,0.111,0.039c0.03-0.005,0.057-0.016,0.073-0.042c0.008-0.015,0.013-0.029,0.011-0.046
						c-0.003-0.016-0.011-0.037-0.027-0.059c-0.012-0.016-0.037-0.045-0.083-0.098c-0.059-0.062-0.095-0.117-0.104-0.159
						c-0.013-0.063-0.006-0.119,0.029-0.169c0.02-0.031,0.051-0.058,0.088-0.073c0.039-0.015,0.078-0.019,0.124-0.01
						c0.044,0.008,0.09,0.03,0.139,0.062c0.078,0.054,0.128,0.114,0.143,0.176c0.019,0.063,0.009,0.125-0.03,0.184l-0.131-0.081
						c0.017-0.036,0.023-0.068,0.01-0.095c-0.006-0.025-0.029-0.052-0.064-0.078c-0.038-0.022-0.068-0.035-0.102-0.035
						c-0.021,0-0.035,0.01-0.049,0.025c-0.01,0.017-0.01,0.031-0.006,0.051c0.006,0.026,0.037,0.068,0.091,0.124
						c0.052,0.057,0.088,0.103,0.104,0.138c0.02,0.036,0.029,0.075,0.025,0.112c0,0.041-0.013,0.08-0.04,0.119
						c-0.024,0.039-0.059,0.065-0.102,0.081c-0.042,0.02-0.083,0.023-0.132,0.015c-0.049-0.011-0.101-0.034-0.154-0.073
						c-0.083-0.052-0.132-0.11-0.148-0.179C25.846,20.393,25.859,20.319,25.898,20.244z"/>
					<path fill="#059347" d="M26.725,20.654c0.046-0.062,0.098-0.107,0.146-0.135c0.036-0.021,0.078-0.034,0.121-0.041
						c0.044-0.007,0.084-0.005,0.122,0.003c0.05,0.014,0.101,0.039,0.151,0.078c0.088,0.068,0.138,0.15,0.151,0.248
						c0.013,0.098-0.02,0.195-0.097,0.294c-0.073,0.1-0.156,0.156-0.254,0.171c-0.098,0.014-0.19-0.01-0.279-0.078
						c-0.092-0.071-0.144-0.152-0.156-0.249C26.621,20.85,26.65,20.752,26.725,20.654z M26.855,20.747
						c-0.053,0.07-0.078,0.135-0.07,0.195c0.005,0.061,0.031,0.107,0.083,0.145c0.047,0.036,0.101,0.051,0.161,0.039
						c0.057-0.011,0.114-0.055,0.168-0.123c0.052-0.07,0.078-0.134,0.071-0.192c-0.003-0.059-0.032-0.104-0.081-0.144
						c-0.053-0.039-0.107-0.055-0.163-0.044C26.966,20.635,26.907,20.677,26.855,20.747z"/>
				</g>
				<polygon fill="#FFFFFF" points="22.493,17.019 22.568,17.243 22.801,17.243 22.612,17.38 22.683,17.601 22.493,17.464 
					22.305,17.601 22.378,17.38 22.192,17.243 22.423,17.243 				"/>
				<polygon fill="#FFFFFF" points="20.032,23.364 20.106,23.584 20.336,23.584 20.151,23.721 20.222,23.945 20.032,23.807 
					19.847,23.945 19.919,23.721 19.729,23.584 19.96,23.584 				"/>
				<polygon fill="#FFFFFF" points="25.605,22.585 25.68,22.81 25.918,22.81 25.726,22.949 25.799,23.174 25.605,23.035 
					25.416,23.174 25.488,22.949 25.296,22.81 25.532,22.81 				"/>
				<polygon fill="#FFFFFF" points="26.705,22.771 26.751,22.913 26.904,22.913 26.78,23.005 26.829,23.147 26.705,23.06 
					26.582,23.147 26.631,23.005 26.51,22.913 26.66,22.913 				"/>
				<polygon fill="#FFFFFF" points="25.924,23.333 25.989,23.528 26.194,23.528 26.028,23.649 26.092,23.845 25.924,23.723 
					25.758,23.845 25.823,23.649 25.654,23.528 25.862,23.528 				"/>
				<polygon fill="#FFFFFF" points="25.435,23.981 25.498,24.173 25.699,24.173 25.537,24.29 25.599,24.484 25.435,24.365 
					25.273,24.484 25.335,24.29 25.169,24.173 25.374,24.173 				"/>
				<polygon fill="#FFFFFF" points="24.805,24.45 24.854,24.598 25.008,24.598 24.883,24.69 24.933,24.841 24.805,24.746 
					24.679,24.841 24.727,24.69 24.603,24.598 24.756,24.598 				"/>
				<polygon fill="#FFFFFF" points="23.98,24.29 24.029,24.437 24.183,24.437 24.058,24.528 24.104,24.676 23.98,24.585 
					23.855,24.676 23.902,24.528 23.779,24.437 23.932,24.437 				"/>
				<polygon fill="#FFFFFF" points="23.092,24.561 23.142,24.72 23.303,24.72 23.174,24.817 23.225,24.976 23.092,24.88 
					22.955,24.976 23.007,24.817 22.872,24.72 23.038,24.72 				"/>
				<polygon fill="#FFFFFF" points="23.994,25.857 24.041,26.006 24.2,26.006 24.072,26.097 24.122,26.248 23.994,26.155 
					23.867,26.248 23.914,26.097 23.789,26.006 23.945,26.006 				"/>
				<polygon fill="#FFFFFF" points="22.39,25.173 22.457,25.376 22.668,25.376 22.496,25.501 22.562,25.703 22.39,25.576 
					22.22,25.703 22.283,25.501 22.114,25.376 22.324,25.376 				"/>
				<polygon fill="#FFFFFF" points="21.776,24.355 21.827,24.509 21.989,24.509 21.858,24.604 21.907,24.759 21.776,24.665 
					21.645,24.759 21.693,24.604 21.563,24.509 21.727,24.509 				"/>
				<polygon fill="#FFFFFF" points="24.02,25 24.085,25.193 24.288,25.193 24.124,25.314 24.186,25.511 24.02,25.391 23.853,25.511 
					23.916,25.314 23.75,25.193 23.955,25.193 				"/>
				<polygon fill="#FFFFFF" points="20.023,26.26 20.048,26.331 20.121,26.331 20.062,26.374 20.083,26.445 20.023,26.401 
					19.965,26.445 19.986,26.374 19.928,26.331 20.003,26.331 				"/>
				<polygon fill="#FFFFFF" points="22.106,19.409 22.159,19.57 22.329,19.57 22.193,19.67 22.244,19.831 22.106,19.733 
					21.971,19.831 22.023,19.67 21.887,19.57 22.056,19.57 				"/>
				<polygon fill="#FFFFFF" points="20.029,21.14 20.084,21.311 20.262,21.311 20.118,21.413 20.172,21.585 20.029,21.478 
					19.886,21.585 19.94,21.413 19.796,21.311 19.977,21.311 				"/>
				<polygon fill="#FFFFFF" points="20.951,21.854 21.01,22.034 21.2,22.034 21.049,22.148 21.107,22.331 20.951,22.217 
					20.798,22.331 20.855,22.148 20.699,22.034 20.893,22.034 				"/>
				<polygon fill="#FFFFFF" points="19.229,21.878 19.276,22.021 19.427,22.021 19.304,22.109 19.352,22.254 19.229,22.165 
					19.107,22.254 19.155,22.109 19.033,22.021 19.184,22.021 				"/>
				<polygon fill="#FFFFFF" points="19.613,22.526 19.644,22.624 19.743,22.624 19.662,22.679 19.693,22.776 19.613,22.715 
					19.53,22.776 19.562,22.679 19.481,22.624 19.579,22.624 				"/>
				<polygon fill="#FFFFFF" points="13.511,18.389 13.585,18.61 13.818,18.61 13.629,18.747 13.702,18.968 13.511,18.831 
					13.324,18.968 13.396,18.747 13.206,18.61 13.439,18.61 				"/>
				<polygon fill="#FFFFFF" points="16.948,20.171 17.008,20.354 17.199,20.354 17.043,20.466 17.103,20.649 16.948,20.537 
					16.791,20.649 16.854,20.466 16.697,20.354 16.891,20.354 				"/>
				<polygon fill="#FFFFFF" points="14.223,21.722 14.296,21.945 14.53,21.945 14.339,22.085 14.412,22.307 14.223,22.168 
					14.032,22.307 14.104,22.085 13.919,21.945 14.149,21.945 				"/>
				<polygon fill="#FFFFFF" points="14.995,21.39 15.032,21.504 15.147,21.504 15.053,21.572 15.089,21.683 14.995,21.614 
					14.903,21.683 14.938,21.572 14.843,21.504 14.96,21.504 				"/>
				<polygon fill="#FFFFFF" points="15.892,22.559 15.951,22.749 16.148,22.749 15.989,22.864 16.051,23.055 15.892,22.937 
					15.728,23.055 15.789,22.864 15.628,22.749 15.827,22.749 				"/>
				<polygon fill="#FFFFFF" points="16.825,24.021 16.895,24.241 17.128,24.241 16.942,24.378 17.013,24.598 16.825,24.463 
					16.637,24.598 16.708,24.378 16.519,24.241 16.753,24.241 				"/>
				<polygon fill="#FFFFFF" points="15.631,23.353 15.694,23.538 15.893,23.538 15.731,23.659 15.794,23.846 15.631,23.73 
					15.471,23.846 15.533,23.659 15.371,23.538 15.569,23.538 				"/>
				<polygon fill="#FFFFFF" points="13.238,22.532 13.286,22.676 13.441,22.676 13.315,22.767 13.363,22.913 13.238,22.825 
					13.113,22.913 13.16,22.767 13.034,22.676 13.188,22.676 				"/>
			</g>
		</g>
	</g>
</g>
</svg>
