<?xml version="1.0" encoding="utf-8"?>
<!-- Generator: Adobe Illustrator 20.1.0, SVG Export Plug-In . SVG Version: 6.00 Build 0)  -->
<svg version="1.1" id="Layer_1" xmlns="http://www.w3.org/2000/svg" xmlns:xlink="http://www.w3.org/1999/xlink" x="0px" y="0px"
	 viewBox="0 0 40 40" style="enable-background:new 0 0 40 40;" xml:space="preserve">
<style type="text/css">
	.st0{fill:#FFFFFF;}
	.st1{fill:#D0D0D5;}
	.st2{fill:#75AADB;}
</style>
<g>
	<g>
		<path class="st0" d="M0.7,25.1h38.7c0.1-0.6,0.3-1.1,0.4-1.7H0.3C0.4,24,0.5,24.5,0.7,25.1z"/>
		<path class="st0" d="M39.7,16.6c-0.1-0.6-0.2-1.1-0.4-1.7H0.7c-0.1,0.6-0.3,1.1-0.4,1.7H39.7z"/>
		<g>
			<path class="st1" d="M20,1c10.5,0,19,8.5,19,19s-8.5,19-19,19S1,30.5,1,20S9.5,1,20,1 M20,0C9,0,0,9,0,20s9,20,20,20s20-9,20-20
				S31,0,20,0L20,0z"/>
		</g>
		<path class="st2" d="M20,40c9.3,0,17.1-6.3,19.3-14.9H0.7C2.9,33.7,10.7,40,20,40z"/>
		<path class="st2" d="M20,0C10.7,0,2.9,6.3,0.7,14.9h38.7C37.1,6.3,29.3,0,20,0z"/>
		<path d="M0,20c0,1.2,0.1,2.3,0.3,3.4h39.4c0.2-1.1,0.3-2.2,0.3-3.4c0-1.2-0.1-2.3-0.3-3.4H0.3C0.1,17.7,0,18.8,0,20z"/>
	</g>
</g>
</svg>
