<?xml version="1.0" encoding="utf-8"?>
<!-- Generator: Adobe Illustrator 16.0.0, SVG Export Plug-In . SVG Version: 6.00 Build 0)  -->
<!DOCTYPE svg PUBLIC "-//W3C//DTD SVG 1.0//EN" "http://www.w3.org/TR/2001/REC-SVG-20010904/DTD/svg10.dtd">
<svg version="1.0" id="Layer_1" xmlns="http://www.w3.org/2000/svg" xmlns:xlink="http://www.w3.org/1999/xlink" x="0px" y="0px"
	 width="40px" height="40px" viewBox="0 0 40 40" enable-background="new 0 0 40 40" xml:space="preserve">
<g>
	<g>
		<g>
			<path fill="#009900" d="M8.116,36.06C11.442,38.524,15.544,40,20,40c8.671,0,16.031-5.527,18.806-13.244H8.116V36.06z"/>
			<path fill="#CC0000" d="M38.806,26.756C39.564,24.642,40,22.374,40,20C40,8.954,31.046,0,20,0c-4.456,0-8.558,1.475-11.884,3.939
				v22.816H38.806z"/>
		</g>
		<g>
			<path fill="#FFFFFF" d="M7.508,4.417v1.479v1.125V8.51v0.748v1.494v1.124v1.493v0.94v1.119v0.748v0.372v1.682v1.211v1.124v1.21
				v1.687v0.374v0.749v1.113v0.939v1.49v1.126v1.493v0.754v1.481v1.125v1.469c0.203,0.161,0.4,0.33,0.608,0.485v-9.304V3.939
				C7.909,4.093,7.708,4.257,7.508,4.417z"/>
			<path fill="#FFFFFF" d="M0.755,23.834V23.46v-1.687v-1.21v-1.124v-1.211v-1.682v-0.372v-0.748v-0.843C0.268,16.307,0,18.121,0,20
				c0,1.859,0.274,3.649,0.755,5.355v-0.772V23.834z"/>
			<path fill="#CC0001" d="M5.518,7.206c0,0.31,0,0.621-0.002,0.931c0.134,0.015,0.27,0.004,0.406,0.008c0-0.313,0-0.626,0-0.939
				c0.132,0,0.265,0.001,0.398,0c0-0.311,0-0.622,0-0.931c0.13-0.004,0.265,0.006,0.398-0.007c-0.002-0.31-0.002-0.619,0-0.928
				c0.132,0,0.263,0.001,0.395-0.002c0-0.2,0-0.4,0-0.6C6.7,5.087,6.303,5.457,5.918,5.839c0,0.122,0,0.244-0.002,0.366
				c0,0.021-0.002,0.043-0.002,0.062c-0.128,0-0.261,0-0.389,0c0-0.013,0-0.027,0-0.04c-0.138,0.146-0.27,0.299-0.405,0.448
				c0,0.177,0,0.353,0,0.53C5.253,7.206,5.386,7.206,5.518,7.206z"/>
			<path fill="#FFFFFF" d="M5.915,6.268c0-0.02,0.002-0.041,0.002-0.062C5.918,6.083,5.919,5.96,5.918,5.839
				C5.788,5.968,5.654,6.094,5.526,6.228c0,0.013,0,0.027,0,0.04C5.654,6.268,5.786,6.268,5.915,6.268z"/>
			<path fill="#FFFFFF" d="M1.546,12.316c-0.016,0.04-0.032,0.08-0.048,0.119c0.016,0,0.032,0,0.048,0
				C1.546,12.395,1.546,12.355,1.546,12.316z"/>
			<path fill="#FFFFFF" d="M1.149,13.343c-0.003,0.008-0.006,0.017-0.009,0.025c0.002,0,0.005,0,0.009,0
				C1.149,13.36,1.149,13.352,1.149,13.343z"/>
			<path fill="#FFFFFF" d="M4.324,7.618C4.236,7.73,4.142,7.839,4.055,7.953c0.091,0,0.18,0,0.27,0
				C4.324,7.84,4.324,7.729,4.324,7.618z"/>
			<path fill="#FFFFFF" d="M7.114,5.338C6.981,5.341,6.851,5.34,6.719,5.34c-0.002,0.309-0.002,0.618,0,0.928
				C6.585,6.281,6.451,6.271,6.32,6.274c0,0.31,0,0.62,0,0.931c-0.133,0.001-0.266,0-0.398,0c0,0.313,0,0.626,0,0.939
				C5.786,8.141,5.65,8.151,5.516,8.136c0.002-0.31,0.002-0.621,0.002-0.931c-0.132,0-0.265,0-0.397,0c0-0.177,0-0.353,0-0.53
				C4.911,6.91,4.707,7.147,4.507,7.392C4.648,7.391,4.789,7.39,4.93,7.39c0,0.188,0,0.375,0,0.563c0.066,0,0.132-0.001,0.199,0
				c0,0.187-0.003,0.372,0,0.558c0.065,0,0.131,0,0.196-0.001c0.001,0.252,0,0.501,0,0.753c-0.064,0-0.13,0-0.193,0
				C5.126,9.449,5.129,9.635,5.129,9.82c-0.067,0.002-0.133,0.002-0.199,0c-0.002,0.188,0,0.377,0,0.564
				c-0.201,0.001-0.404,0.001-0.606,0c0-0.188,0.002-0.376,0-0.564c-0.128,0.002-0.257,0-0.388,0c0,0.19,0,0.377,0,0.564
				c-0.2,0.001-0.404,0-0.606,0c0-0.188,0.003-0.374,0-0.564c-0.061,0-0.125,0-0.189,0.002C3.136,9.645,3.145,9.467,3.133,9.289
				C3,9.495,2.868,9.701,2.743,9.912c0,0.218,0,0.437,0,0.655c0.134,0,0.267,0,0.399,0c0.001,0.313-0.003,0.625,0.001,0.937
				c0.133,0,0.263-0.001,0.395,0c0,0.312,0,0.62,0,0.93c0.133,0.002,0.266-0.001,0.398,0.002c0,0.31,0,0.621,0,0.93
				c0.13,0.002,0.259,0.002,0.388,0.002c0-0.311,0-0.623,0-0.932c0.134-0.003,0.266,0,0.4-0.002c0-0.31,0-0.618,0-0.929
				c0.132-0.003,0.263-0.001,0.396-0.001c0-0.312,0-0.625,0-0.937c0.132,0,0.265,0,0.397,0c0-0.311,0-0.619,0-0.931
				c0.134-0.003,0.268,0,0.404,0c0,0.31,0,0.621,0,0.932c0.13,0,0.263,0,0.393,0c0.011,0.312,0,0.625,0.005,0.937
				c0.133,0,0.265-0.001,0.398,0.001c-0.002,0.311-0.002,0.619,0,0.929c0.13,0,0.263,0,0.395,0.002c0,0.31,0,0.621,0,0.93
				c0.13,0.002,0.263,0,0.394,0.002v-1.493c-0.133,0-0.269,0.001-0.403-0.002c0.001-0.374,0-0.749,0-1.122c0.134,0,0.27,0,0.403,0
				V9.257c-0.068,0-0.135,0-0.203,0c0,0.188,0,0.375,0,0.562c-0.068,0-0.134,0-0.2,0c0,0.188,0.001,0.375,0,0.56
				c-0.199,0-0.399,0-0.597,0c-0.002-0.187,0-0.372,0-0.56c-0.067,0-0.135,0-0.2,0c0-0.186,0-0.374,0-0.562c-0.066,0-0.13,0-0.198,0
				c0-0.25,0-0.499,0-0.749c0.068,0,0.132,0,0.198,0c0-0.187,0-0.374,0-0.561c0.065,0,0.133,0,0.198,0
				c0.002-0.188,0.002-0.373,0.002-0.56c0.198-0.001,0.398,0,0.597-0.001C7.11,7.573,7.097,7.761,7.114,7.95
				c0.062-0.002,0.127-0.002,0.191-0.002c0,0.187,0,0.374,0,0.561c0.068,0,0.135,0,0.203,0.001V7.021c-0.133,0-0.269,0-0.403,0
				c0-0.373,0.001-0.75,0-1.123c0.134-0.001,0.27-0.001,0.403-0.001V4.417c-0.131,0.106-0.266,0.211-0.394,0.32
				C7.114,4.938,7.114,5.138,7.114,5.338z M4.333,11.875c-0.135,0.001-0.27,0-0.405,0c0-0.376,0-0.751,0-1.124
				c0.133-0.003,0.265,0.001,0.397-0.003c0.012,0.057,0.007,0.116,0.007,0.173C4.333,11.24,4.333,11.558,4.333,11.875z"/>
			<path fill="#FFFFFF" d="M1.941,11.432c-0.012,0.024-0.022,0.048-0.035,0.072c0.012,0,0.023,0,0.035,0
				C1.942,11.48,1.941,11.457,1.941,11.432z"/>
			<path fill="#CC0001" d="M7.105,7.021c0.134,0,0.27,0,0.403,0V5.896c-0.133,0-0.269,0-0.403,0.001
				C7.106,6.271,7.105,6.647,7.105,7.021z"/>
			<path fill="#CC0001" d="M7.305,7.948c-0.064,0-0.128,0-0.191,0.002C7.097,7.761,7.11,7.573,7.105,7.387
				c-0.199,0.001-0.399,0-0.597,0.001c0,0.187,0,0.372-0.002,0.56c-0.064,0-0.132,0-0.198,0c0,0.187,0,0.374,0,0.561
				c-0.066,0-0.13,0-0.198,0c0,0.25,0,0.499,0,0.749c0.068,0,0.132,0,0.198,0c0,0.188,0,0.375,0,0.562c0.065,0,0.133,0,0.2,0
				c0,0.188-0.002,0.373,0,0.56c0.198,0,0.398,0,0.597,0c0.001-0.186,0-0.372,0-0.56c0.066,0,0.132,0,0.2,0c0-0.186,0-0.374,0-0.562
				c0.068,0,0.135,0,0.203,0V8.51C7.44,8.508,7.373,8.508,7.305,8.508C7.305,8.321,7.305,8.135,7.305,7.948z M7.103,9.065
				c-0.066,0-0.131,0-0.197,0c-0.001,0.125,0,0.25-0.001,0.375c-0.066,0-0.129,0-0.197,0c0-0.127,0-0.251,0-0.375
				c-0.067,0-0.132,0-0.198-0.001c0-0.121,0-0.244,0-0.365c0.066-0.002,0.131-0.002,0.198-0.002c0-0.123,0-0.244,0-0.369
				c0.068-0.001,0.13-0.001,0.197-0.001c0,0.125,0.001,0.248,0,0.371c0.067,0,0.132,0,0.198,0C7.103,8.82,7.103,8.944,7.103,9.065z"
				/>
			<path fill="#CC0001" d="M3.331,9.82c0.003,0.19,0,0.377,0,0.564c0.202,0,0.406,0.001,0.606,0c0-0.188,0-0.374,0-0.564
				c0.13,0,0.259,0.002,0.388,0c0.002,0.188,0,0.377,0,0.564c0.202,0.001,0.405,0.001,0.606,0c0-0.188-0.002-0.376,0-0.564
				c0.066,0.002,0.132,0.002,0.199,0c0-0.185-0.003-0.371,0.002-0.557c0.063,0,0.129,0,0.193,0c0-0.252,0.001-0.5,0-0.753
				C5.261,8.511,5.194,8.511,5.129,8.511c-0.003-0.186,0-0.372,0-0.558c-0.067-0.001-0.133,0-0.199,0c0-0.188,0-0.375,0-0.563
				c-0.141,0-0.282,0.001-0.423,0.002c-0.062,0.074-0.122,0.15-0.183,0.226c0,0.112,0,0.223,0,0.335c-0.089,0-0.179,0-0.27,0
				C3.943,8.101,3.838,8.255,3.729,8.407c0,0.097,0,0.194,0,0.29c0.066,0.003,0.132,0.002,0.197,0.002
				c0.002,0.126,0.002,0.25,0,0.375c-0.065-0.002-0.131-0.002-0.197,0c0,0.125,0,0.249,0,0.373c-0.063,0-0.127,0-0.191,0
				c0-0.124,0-0.248,0-0.373c-0.064-0.002-0.13-0.002-0.197,0c0-0.039,0-0.077,0-0.114C3.27,9.067,3.204,9.179,3.133,9.289
				c0.012,0.178,0.003,0.356,0.008,0.534C3.206,9.82,3.27,9.82,3.331,9.82z M4.335,8.699c0.066,0,0.13,0.001,0.199-0.002
				c-0.001-0.123,0-0.244,0-0.369c0.062,0,0.126,0,0.19,0c0,0.125,0,0.246,0,0.371c0.064,0.001,0.129,0,0.196,0
				c0.001,0.126,0.001,0.25,0,0.373c-0.066,0-0.13,0-0.196,0.002c0,0.125,0,0.249,0,0.373c-0.062,0-0.129,0-0.19,0
				c0-0.124,0-0.248,0-0.373C4.465,9.072,4.401,9.072,4.335,9.072C4.333,8.949,4.332,8.823,4.335,8.699z"/>
			<path fill="#CC0001" d="M3.538,8.674C3.533,8.683,3.526,8.691,3.52,8.699c0.006,0,0.013,0,0.018,0
				C3.538,8.691,3.538,8.683,3.538,8.674z"/>
			<path fill="#FFFFFF" d="M3.538,8.699c-0.005,0-0.012,0-0.018,0C3.461,8.786,3.4,8.872,3.341,8.96c0,0.037,0,0.076,0,0.114
				c0.066-0.002,0.132-0.002,0.197,0c0,0.125,0,0.249,0,0.373c0.064,0,0.128,0,0.191,0c0-0.124,0-0.248,0-0.373
				c0.066-0.002,0.132-0.002,0.197,0c0.002-0.125,0.002-0.249,0-0.375c-0.065,0-0.131,0.001-0.197-0.002c0-0.096,0-0.193,0-0.29
				C3.667,8.496,3.601,8.584,3.538,8.674C3.538,8.683,3.538,8.691,3.538,8.699z"/>
			<path fill="#FFFFFF" d="M4.534,9.447c0.062,0,0.128,0,0.19,0c0-0.124,0-0.248,0-0.373C4.791,9.072,4.854,9.072,4.92,9.072
				c0.001-0.124,0.001-0.247,0-0.373c-0.066,0-0.131,0.001-0.196,0c0-0.125,0-0.246,0-0.371c-0.064,0-0.129,0-0.19,0
				c0,0.125-0.001,0.246,0,0.369C4.465,8.701,4.401,8.699,4.335,8.699c-0.003,0.124-0.001,0.25,0,0.373c0.066,0,0.13,0,0.199,0.002
				C4.534,9.199,4.534,9.323,4.534,9.447z"/>
			<path fill="#FFFFFF" d="M6.905,8.327c-0.066,0-0.129,0-0.197,0.001c0,0.125,0,0.246,0,0.369c-0.067,0-0.132,0-0.198,0.002
				c0,0.121,0,0.244,0,0.365c0.066,0.001,0.131,0.001,0.198,0.001c0,0.125,0,0.249,0,0.375c0.068,0,0.13,0,0.197,0
				c0.001-0.125,0-0.251,0.001-0.375c0.065,0,0.13,0,0.197,0c0-0.121,0-0.245,0-0.368c-0.066,0-0.131,0-0.198,0
				C6.906,8.574,6.905,8.451,6.905,8.327z"/>
			<path fill="#CC0001" d="M7.114,12.436c-0.132-0.002-0.265-0.002-0.395-0.002c-0.002-0.31-0.002-0.618,0-0.929
				c-0.134-0.003-0.265-0.001-0.398-0.001c-0.005-0.312,0.005-0.625-0.005-0.937c-0.13,0-0.263,0-0.393,0c0-0.311,0-0.622,0-0.932
				c-0.136,0-0.27-0.002-0.404,0c0,0.312,0,0.621,0,0.931c-0.132,0-0.265,0-0.397,0c0,0.312,0,0.625,0,0.937
				c-0.134,0-0.264-0.001-0.396,0.001c0,0.311,0,0.619,0,0.929c-0.134,0.002-0.266-0.001-0.4,0.002c0,0.31,0,0.621,0,0.932
				c-0.128,0-0.257,0-0.388-0.002c0-0.309,0-0.621,0-0.93c-0.132-0.003-0.265,0-0.398-0.002c0-0.31,0-0.618,0-0.93
				c-0.132-0.001-0.262,0-0.395,0c-0.004-0.312,0-0.624-0.001-0.937c-0.132,0-0.265,0-0.399,0c0-0.218,0-0.437,0-0.655
				c-0.289,0.493-0.552,1.002-0.801,1.52c0,0.024,0.001,0.048,0,0.072c-0.012,0-0.022,0-0.035,0
				c-0.125,0.268-0.245,0.538-0.361,0.812c0,0.04,0,0.079,0,0.118c-0.016,0-0.032,0-0.048,0c-0.125,0.299-0.24,0.602-0.349,0.909
				c0,0.008,0,0.017,0,0.025c-0.003,0-0.006,0-0.009,0c-0.11,0.31-0.214,0.623-0.309,0.94c0.105,0,0.212,0,0.318,0
				c0,0.31,0,0.619,0,0.929c0.132,0.002,0.263,0,0.395,0c0.004,0.314,0,0.625,0.002,0.938c0.132,0.002,0.266,0,0.398,0
				c0,0.311,0,0.621,0,0.93c0.132,0.002,0.267,0.002,0.403,0c-0.001-0.31,0-0.62,0-0.93c0.133,0,0.264,0.002,0.396,0
				c0.002-0.312,0-0.624,0.002-0.938c0.134,0,0.265,0,0.397,0c0-0.311,0-0.622,0-0.933c-0.131,0-0.261,0-0.392,0.002
				c-0.002-0.011-0.007-0.029-0.009-0.038c0.009-0.227,0.001-0.456,0.001-0.683c0-0.115,0.002-0.232,0-0.349
				c0-0.018,0.002-0.037,0.005-0.056c0.129,0.002,0.258,0,0.388,0c0.014,0.147,0,0.293,0.002,0.438
				c0.01,0.103-0.007,0.208,0.004,0.312c0.132,0,0.259,0,0.389,0c0.004,0.499,0,0.997,0.002,1.498c0.066,0,0.131,0,0.197,0
				c0.012,0.303,0.007,0.61,0.008,0.914c-0.199,0.021-0.397,0.006-0.596,0.015c-0.003,0.249,0.006,0.498-0.004,0.746
				c-0.136,0-0.268-0.001-0.402,0c0,0.187,0,0.374,0,0.562c-0.132,0-0.265,0-0.395,0c0,0.311,0,0.621,0,0.932
				c-0.132,0-0.263,0-0.393,0c0-0.312,0-0.622,0-0.932c-0.13,0-0.263,0-0.393,0c-0.001-0.188,0-0.375,0-0.562
				c-0.134-0.001-0.266,0-0.398,0c0-0.186,0-0.374,0-0.558c-0.134,0-0.268,0-0.401,0v1.682c0.129,0,0.263,0,0.394,0
				c0,0.249,0,0.499,0,0.747c0.132,0.004,0.263,0.001,0.395,0.001c0.002,0.221,0,0.438,0.002,0.654
				c0.132,0.002,0.266,0.002,0.398,0.002c0,0.246,0,0.496-0.003,0.745c-0.133,0-0.264-0.003-0.397,0
				c0.002,0.216,0.002,0.434,0.002,0.65c-0.132,0-0.265,0-0.397,0c0,0.248,0,0.499,0,0.745c-0.131,0-0.265,0-0.394,0v1.687
				c0.133-0.001,0.267,0,0.401-0.001c0-0.188,0-0.375,0-0.561c0.132,0,0.264,0,0.398-0.003c0-0.184-0.001-0.371,0-0.559
				c0.131,0,0.263,0,0.393,0c0.002-0.309,0-0.62,0.002-0.931c0.128,0,0.259,0,0.391,0c0,0.311,0,0.622,0,0.931
				c0.13,0,0.263,0,0.394,0c0.002,0.188,0.001,0.372,0.001,0.559c0.132,0.003,0.266,0.003,0.399,0
				c0.017,0.25-0.003,0.501,0.006,0.749c0.198,0.01,0.396,0.01,0.596,0.013c-0.002,0.309,0.007,0.616-0.01,0.925
				c-0.066-0.003-0.129-0.003-0.195,0c0,0.494,0,0.994,0,1.491c-0.13,0-0.259,0-0.391,0c-0.003,0.248-0.003,0.495,0,0.745
				c-0.132,0.001-0.265,0-0.399,0c0-0.19,0.002-0.382,0-0.572c0.002-0.182,0-0.362,0-0.545c0.134,0,0.267,0,0.399,0
				c0-0.312,0-0.625,0-0.937c-0.132,0-0.265,0-0.399,0c0-0.309,0-0.618,0-0.928c-0.131-0.006-0.262-0.003-0.396-0.003
				c-0.006-0.312,0.009-0.625-0.006-0.938c-0.133,0.003-0.265,0-0.396,0.003c0,0.312,0,0.623-0.003,0.936
				c-0.133,0-0.264-0.001-0.397,0.003c0.002,0.31,0.002,0.619,0.002,0.928c-0.132,0-0.265-0.002-0.397,0.002c0,0.31,0,0.622,0,0.93
				c-0.096,0-0.192,0-0.288,0c0.107,0.355,0.209,0.713,0.334,1.06c0.099,0.275,0.214,0.543,0.326,0.812c0.007,0,0.015,0,0.022,0
				c0.001,0.018,0,0.038,0.001,0.058c0.122,0.296,0.25,0.59,0.387,0.88c0.003,0,0.007,0,0.013,0c0,0.008,0,0.017,0,0.024
				c0.246,0.52,0.514,1.025,0.801,1.519c0.001-0.204,0-0.408,0.002-0.611c0.131,0,0.263,0,0.394,0c0-0.312,0-0.62,0-0.932
				c0.133,0,0.264,0,0.396,0c0-0.313,0-0.627,0-0.939c0.133,0,0.268,0.002,0.398-0.002c0-0.309,0-0.618,0-0.929
				c0.13,0,0.259,0,0.388,0c0,0.311,0.002,0.62,0,0.931c0.133,0.002,0.266,0,0.4,0c0,0.312,0,0.626,0,0.939c0.132,0,0.263,0,0.396,0
				c0,0.31,0,0.619,0,0.93c0.132,0.002,0.265,0,0.395,0c0.002,0.052,0.002,0.104,0.002,0.155c0,0.054,0,0.109,0,0.164
				c0.001,0.195-0.002,0.389,0,0.582c-0.005,0.031,0.028,0.041,0.054,0.037c0.115,0,0.234-0.001,0.35,0c0-0.312-0.002-0.626,0-0.938
				c0.132,0.002,0.265,0.002,0.398,0c0-0.311,0-0.62,0-0.93c0.13,0,0.263,0,0.396,0c0-0.313,0-0.627,0-0.939
				c0.133,0,0.265,0.004,0.397-0.002c-0.002-0.309,0-0.618,0-0.929c0.13,0,0.263,0,0.394,0v-0.939c-0.131,0-0.264,0-0.394,0
				c0-0.308,0-0.62,0-0.93c-0.132-0.004-0.265-0.002-0.397-0.002c0.002-0.309,0-0.618,0.002-0.928
				c-0.134-0.006-0.265-0.003-0.398-0.003c-0.003-0.312,0-0.625,0-0.938c-0.135-0.001-0.27-0.001-0.406,0
				c0,0.313,0.004,0.626-0.001,0.938c-0.131,0-0.265-0.003-0.395,0.003c0,0.31,0,0.619,0,0.928c-0.132,0-0.265,0-0.397,0
				c0,0.312,0,0.624,0,0.937c0.132,0,0.265,0,0.395,0c0.002,0.372,0.002,0.745,0.002,1.117c-0.132,0-0.265,0-0.396,0
				c-0.001-0.247,0-0.497-0.001-0.745c-0.132,0-0.263,0-0.392,0c0-0.497,0-0.997,0-1.491c-0.066-0.003-0.128-0.003-0.195-0.003
				c-0.001-0.312-0.001-0.622,0-0.935c0.198,0,0.396,0.002,0.595,0c0-0.248,0-0.499,0-0.746c0.131,0,0.264,0,0.396-0.003
				c0-0.184-0.002-0.371,0.003-0.559c0.129,0,0.261,0,0.393,0c0-0.309,0-0.62,0-0.931c0.13,0,0.263,0,0.393,0
				c0,0.311,0,0.622,0,0.931c0.129,0,0.261,0,0.393,0c0,0.188,0,0.375,0,0.559c0.132,0.003,0.266,0.003,0.397,0.003
				c0.001,0.186,0,0.373,0,0.561c0.134,0.001,0.27,0,0.403,0.001v-1.687c-0.131,0-0.264,0-0.394,0c0-0.246,0-0.497,0-0.745
				c-0.132,0-0.265,0-0.397,0c0-0.217,0-0.435,0-0.65c-0.133-0.003-0.266,0-0.396,0c-0.002-0.249,0-0.499,0-0.745
				c0.126-0.002,0.255,0.003,0.382-0.002c0.003-0.004,0.009-0.011,0.014-0.014c0.003-0.213,0-0.426,0.002-0.641
				c0.132,0,0.263,0.003,0.395-0.001c0-0.248,0-0.498,0-0.747c0.13,0,0.263,0,0.394,0v-1.682c-0.133,0-0.269-0.005-0.403,0.002
				c0.001,0.185,0,0.371,0,0.556c-0.131,0-0.265-0.001-0.397,0c0,0.187,0,0.374,0,0.562c-0.13,0-0.264,0-0.393,0
				c0,0.311,0,0.621-0.003,0.932c-0.127,0-0.259,0-0.39,0c0-0.312,0-0.622,0-0.932c-0.132,0-0.264,0-0.396,0
				c0-0.188,0-0.375,0-0.562c-0.132-0.001-0.265,0-0.396,0c0-0.25,0-0.498,0-0.746c-0.199-0.002-0.397,0-0.595,0
				c0-0.309,0-0.622,0-0.929c0.063,0,0.129,0,0.195,0c0.003-0.501-0.002-1,0.003-1.498c0.13,0,0.262,0.001,0.395-0.002
				c-0.012-0.131-0.001-0.263-0.004-0.391c0.003-0.12-0.008-0.238,0.004-0.356c0.132,0.002,0.261,0,0.39,0
				c0.002,0.376,0.002,0.75,0.002,1.123c-0.132,0.002-0.263-0.001-0.393,0.002c-0.011,0.311-0.003,0.622-0.004,0.93
				c0.132,0,0.263,0,0.395,0c0.003,0.314,0,0.625,0.002,0.938c0.132,0.002,0.266,0,0.396,0c0,0.311,0.002,0.621,0,0.93
				c0.136,0.002,0.271,0.002,0.406,0c0-0.31,0-0.62,0-0.93c0.13,0,0.263,0.002,0.396,0c0.002-0.312,0-0.624,0.002-0.938
				c0.132,0,0.265,0.002,0.395-0.001c-0.002-0.31,0-0.619,0-0.928c0.13,0,0.263,0,0.394,0v-0.94c-0.131-0.002-0.264,0-0.394-0.002
				C7.114,13.057,7.114,12.746,7.114,12.436z M5.121,18.229c0,0.062,0,0.126,0.001,0.19c-0.001,0.121-0.001,0.245,0,0.364
				c-0.001,0.064-0.001,0.129-0.001,0.192c0.132,0.004,0.265,0.001,0.395,0.001c0.002,0.193,0.002,0.389,0.002,0.585
				c-0.002,0.023,0.002,0.048,0.008,0.072c0.13-0.003,0.26-0.001,0.389-0.001c0,0.098,0.002,0.194,0.002,0.292
				c-0.002,0.084-0.002,0.166,0,0.248c-0.002,0.069,0,0.137-0.002,0.205c-0.13,0-0.266-0.004-0.398,0.002
				c0.007,0.097-0.005,0.194,0.005,0.289c-0.009,0.121-0.001,0.239-0.003,0.359c-0.132,0-0.265,0-0.397,0.001
				c0.008,0.232-0.007,0.467,0.004,0.702c0,0.01-0.004,0.034-0.007,0.042c-0.197-0.001-0.393,0-0.591,0
				c-0.003,0.297,0,0.594-0.003,0.892c-0.066-0.003-0.133-0.003-0.199,0c0.002,0.138,0,0.277,0.002,0.416c-0.13,0-0.259,0-0.39,0
				c0-0.141,0-0.282,0-0.422c-0.064-0.01-0.132-0.007-0.199-0.007c0-0.233,0-0.472,0-0.707c0-0.057,0.003-0.115-0.008-0.173
				c-0.197,0.003-0.394,0-0.588,0.001c0-0.246,0-0.497,0-0.745c-0.132,0-0.265,0-0.399,0c0-0.217,0-0.434,0-0.648
				c-0.13-0.006-0.261-0.002-0.394-0.002c-0.005-0.249-0.002-0.499-0.002-0.745c0.133,0,0.265,0,0.397,0
				c0.003-0.219,0-0.436,0.003-0.656c0.131,0,0.263,0,0.394,0c0-0.249,0-0.499,0-0.748c0.198,0,0.396,0,0.596-0.001
				c0-0.292-0.001-0.584,0.002-0.875c0.067,0.001,0.133,0.001,0.197,0c0-0.145,0-0.29,0-0.431c0.13,0,0.259,0,0.388,0
				c0,0.139,0.002,0.278,0,0.417c0.066,0.01,0.134,0.006,0.2,0.009c0,0.292,0,0.587,0,0.88C4.725,18.229,4.922,18.229,5.121,18.229z
				"/>
			<path fill="#CC0001" d="M3.929,10.751c0,0.373,0,0.748,0,1.124c0.135,0,0.27,0.001,0.405,0c0-0.318,0-0.635,0-0.954
				c0-0.058,0.004-0.116-0.007-0.173C4.194,10.753,4.062,10.749,3.929,10.751z"/>
			<path fill="#CC0001" d="M7.105,11.873c0.134,0.003,0.27,0.002,0.403,0.002v-1.124c-0.133,0-0.269,0-0.403,0
				C7.105,11.125,7.106,11.5,7.105,11.873z"/>
			<path fill="#FFFFFF" d="M1.156,15.43c0,0.246,0,0.498,0,0.745c-0.134,0.002-0.268,0-0.401,0v0.372c0.133,0,0.267,0,0.401,0
				c0,0.184,0,0.372,0,0.558c0.132,0,0.264-0.001,0.398,0c0,0.187-0.001,0.374,0,0.562c0.13,0,0.263,0,0.393,0
				c0,0.311,0,0.621,0,0.932c0.13,0,0.261,0,0.393,0c0-0.312,0-0.622,0-0.932c0.13,0,0.263,0,0.395,0c0-0.188,0-0.375,0-0.562
				c0.134-0.001,0.266,0,0.402,0c0.01-0.248,0.001-0.498,0.004-0.746c0.198-0.009,0.396,0.006,0.596-0.015
				c-0.001-0.304,0.004-0.611-0.008-0.914c-0.065,0-0.131,0-0.197,0c-0.002-0.501,0.002-1-0.002-1.498c-0.13,0-0.257,0-0.389,0
				c-0.011-0.105,0.006-0.21-0.004-0.312c-0.002-0.145,0.012-0.291-0.002-0.438c-0.13,0-0.258,0.002-0.388,0
				c-0.003,0.019-0.005,0.038-0.005,0.056c0.002,0.116,0,0.233,0,0.349c0,0.227,0.007,0.456-0.001,0.683
				c0.001,0.009,0.006,0.027,0.009,0.038c0.13-0.002,0.261-0.002,0.392-0.002c0,0.311,0,0.622,0,0.933c-0.132,0-0.263,0-0.397,0
				c-0.002,0.314,0,0.625-0.002,0.938c-0.131,0.002-0.262,0-0.396,0c0,0.311-0.001,0.621,0,0.93c-0.136,0.002-0.271,0.002-0.403,0
				c0-0.31,0-0.62,0-0.93c-0.132,0-0.267,0.002-0.398,0c-0.002-0.312,0.002-0.624-0.002-0.938c-0.132,0-0.263,0.002-0.395,0
				c0-0.311,0-0.62,0-0.929c-0.105,0-0.212,0-0.318,0c-0.027,0.091-0.05,0.184-0.076,0.276v0.843
				C0.888,15.43,1.022,15.427,1.156,15.43z"/>
			<path fill="#FFFFFF" d="M7.114,15.236c-0.13,0.003-0.263,0.001-0.395,0.001c-0.002,0.314,0,0.625-0.002,0.938
				c-0.133,0.002-0.266,0-0.396,0c0,0.311,0,0.621,0,0.93c-0.135,0.002-0.27,0.002-0.406,0c0.002-0.31,0-0.62,0-0.93
				c-0.13,0-0.264,0.002-0.396,0c-0.002-0.312,0.001-0.624-0.002-0.938c-0.132,0-0.263,0-0.395,0c0.001-0.309-0.007-0.62,0.004-0.93
				c0.13-0.004,0.261,0,0.393-0.002c0-0.373,0-0.747-0.002-1.123c-0.128,0-0.257,0.002-0.39,0c-0.012,0.119-0.001,0.236-0.004,0.356
				c0.003,0.128-0.008,0.26,0.004,0.391c-0.133,0.003-0.264,0.002-0.395,0.002c-0.005,0.499,0,0.997-0.003,1.498
				c-0.066,0-0.131,0-0.195,0c0,0.308,0,0.62,0,0.929c0.198,0,0.396-0.002,0.595,0c0,0.249,0,0.496,0,0.746
				c0.131,0,0.264-0.001,0.396,0c0,0.187,0,0.374,0,0.562c0.132,0,0.264,0,0.396,0c0,0.311,0,0.621,0,0.932c0.13,0,0.263,0,0.39,0
				c0.003-0.312,0.003-0.622,0.003-0.932c0.129,0,0.263,0,0.393,0c0-0.188,0-0.375,0-0.562c0.132-0.001,0.266,0,0.397,0
				c0-0.185,0.001-0.371,0-0.556c0.134-0.007,0.27-0.002,0.403-0.002v-0.372c-0.133,0-0.269,0-0.403,0c0-0.247,0-0.5,0-0.745
				c0.134-0.002,0.27,0,0.403-0.002v-1.119c-0.131,0-0.264,0-0.394,0C7.114,14.618,7.112,14.927,7.114,15.236z"/>
			<path fill="#CC0001" d="M1.156,15.43c-0.134-0.002-0.268,0-0.401-0.002v0.748c0.133,0,0.267,0.002,0.401,0
				C1.156,15.928,1.156,15.675,1.156,15.43z"/>
			<path fill="#CC0001" d="M7.105,16.175c0.134,0,0.27,0,0.403,0v-0.748c-0.133,0.002-0.269,0-0.403,0.002
				C7.105,15.675,7.105,15.928,7.105,16.175z"/>
			<path fill="#FFFFFF" d="M4.524,17.347c-0.066-0.002-0.134,0.001-0.2-0.009c0.002-0.139,0-0.277,0-0.417c-0.128,0-0.257,0-0.388,0
				c0,0.141,0,0.286,0,0.431c-0.064,0.001-0.13,0.001-0.197,0c-0.003,0.291-0.002,0.583-0.002,0.875
				c-0.199,0.001-0.397,0.001-0.596,0.001c0,0.249,0,0.499,0,0.748c-0.131,0-0.263,0-0.394,0c-0.003,0.221,0,0.438-0.003,0.656
				c-0.132,0-0.264,0-0.397,0c0,0.246-0.003,0.496,0.002,0.745c0.133,0,0.263-0.004,0.394,0.002c0,0.215,0,0.432,0,0.648
				c0.134,0,0.267,0,0.399,0c0,0.248,0,0.499,0,0.745c0.194-0.001,0.391,0.002,0.588-0.001c0.011,0.058,0.008,0.116,0.008,0.173
				c0,0.235,0,0.474,0,0.707c0.067,0,0.135-0.003,0.199,0.007c0,0.14,0,0.281,0,0.422c0.13,0,0.259,0,0.39,0
				c-0.002-0.139,0-0.278-0.002-0.416c0.066-0.003,0.133-0.003,0.199,0c0.003-0.298,0-0.595,0.003-0.892
				c0.198,0,0.394-0.001,0.591,0c0.003-0.008,0.007-0.032,0.007-0.042c-0.011-0.235,0.004-0.47-0.004-0.702
				c0.132-0.001,0.265-0.001,0.397-0.001c0.002-0.12-0.005-0.238,0.003-0.359c-0.011-0.095,0.002-0.192-0.005-0.289
				c0.132-0.006,0.268-0.002,0.398-0.002c0.002-0.068,0-0.136,0.002-0.205c-0.002-0.082-0.002-0.164,0-0.248
				c0-0.098-0.002-0.194-0.002-0.292c-0.128,0-0.258-0.002-0.389,0.001c-0.005-0.024-0.01-0.049-0.008-0.072
				c0-0.196,0-0.392-0.002-0.585c-0.13,0-0.263,0.003-0.395-0.001c0-0.063,0-0.128,0.001-0.192c-0.001-0.119-0.001-0.243,0-0.364
				c-0.001-0.064-0.001-0.128-0.001-0.19c-0.199,0-0.396,0-0.597-0.001C4.524,17.934,4.524,17.64,4.524,17.347z M3.929,18.17
				c0-0.045-0.006-0.094,0.012-0.137c0.119,0.003,0.238,0,0.358,0.001c0.019-0.004,0.039,0.015,0.034,0.036
				c0,0.301,0,0.603,0.001,0.904c-0.137,0.004-0.271,0.001-0.406,0C3.929,18.707,3.929,18.438,3.929,18.17z M2.938,20.563
				c0-0.373,0-0.749,0-1.124c0.134,0.006,0.272-0.009,0.404,0.01c-0.003,0.371,0,0.743-0.001,1.113
				C3.207,20.565,3.072,20.563,2.938,20.563z M4.333,21.812c0,0.052,0.004,0.104-0.007,0.156c-0.13-0.001-0.259-0.001-0.39,0
				c-0.013-0.052-0.008-0.104-0.008-0.156c0-0.26,0-0.522,0-0.782c0.135-0.001,0.27-0.003,0.406,0
				C4.333,21.291,4.333,21.552,4.333,21.812z M5.325,19.439c0.001,0.375,0,0.751,0,1.124c-0.134,0-0.27,0.002-0.403-0.001
				C4.92,20.192,4.923,19.82,4.92,19.45C5.053,19.429,5.191,19.445,5.325,19.439z M4.93,18.789c-0.002,0.188,0,0.376-0.002,0.562
				c-0.066,0-0.132,0-0.199,0c0,0.094,0,0.187,0,0.281c-0.066,0-0.131,0-0.195,0c0,0.246-0.005,0.496,0,0.745
				c0.066-0.003,0.129-0.003,0.195,0c0.003,0.091-0.004,0.186,0.003,0.281c0.067,0.002,0.132-0.014,0.198,0.002
				c-0.002,0.185,0,0.371,0,0.559c-0.134-0.004-0.271,0.007-0.407-0.008c0.003-0.123,0.001-0.245,0.001-0.368
				c-0.066,0-0.132,0-0.2,0c0-0.094,0.002-0.188,0-0.28c-0.128,0-0.257,0-0.388,0c0,0.093,0,0.187,0,0.28
				c-0.066,0-0.132,0-0.2,0.002c0.003,0.122,0,0.243,0.003,0.366c-0.137,0.015-0.274,0.01-0.409,0.002
				c0.003-0.185,0.003-0.37,0-0.553c0.064-0.019,0.132-0.008,0.2-0.002c0.005-0.094,0-0.188,0.002-0.281
				c0.066-0.003,0.129-0.003,0.195,0c0.003-0.249,0.002-0.499,0.002-0.745c-0.065,0-0.129,0-0.193,0
				c-0.005-0.095-0.001-0.188-0.003-0.281c-0.064,0-0.128-0.003-0.191,0.001c-0.014-0.057-0.008-0.114-0.011-0.172
				c0-0.131,0.003-0.261,0-0.392c0.137-0.003,0.27-0.003,0.407,0c0,0.124,0,0.246,0,0.37c0.067-0.001,0.133-0.001,0.199,0
				c0,0.095,0,0.187,0,0.28c0.13,0,0.259,0,0.388,0c0-0.094,0-0.186,0-0.28c0.068-0.001,0.134-0.001,0.2,0c0-0.124,0-0.246,0-0.37
				C4.662,18.786,4.796,18.786,4.93,18.789z"/>
			<path fill="#CC0001" d="M4.333,18.071c0.004-0.021-0.016-0.041-0.034-0.036c-0.121-0.001-0.239,0.001-0.358-0.001
				c-0.019,0.042-0.012,0.091-0.012,0.137c0,0.268,0,0.537,0,0.805c0.135,0.001,0.27,0.004,0.406,0
				C4.333,18.674,4.333,18.373,4.333,18.071z"/>
			<path fill="#FFFFFF" d="M1.149,21.028c0.132,0,0.265,0,0.397,0c0-0.217,0-0.435-0.002-0.65c0.133-0.003,0.265,0,0.397,0
				c0.003-0.249,0.003-0.499,0.003-0.745c-0.132,0-0.267,0-0.398-0.002c-0.002-0.217,0-0.434-0.002-0.654
				c-0.132,0-0.263,0.003-0.395-0.001c0-0.248,0-0.498,0-0.747c-0.131,0-0.265,0-0.394,0v1.211c0.133,0,0.267,0,0.401,0
				c0,0.375,0,0.749,0,1.124c-0.134,0.002-0.268,0-0.401,0v1.21c0.129,0,0.263,0,0.394,0C1.149,21.527,1.149,21.276,1.149,21.028z"
				/>
			<path fill="#FFFFFF" d="M7.114,18.976c-0.132,0.004-0.263,0.001-0.395,0.001c-0.002,0.215,0.001,0.428-0.002,0.641
				c-0.005,0.003-0.01,0.01-0.014,0.014c-0.127,0.005-0.256,0-0.382,0.002c0,0.246-0.002,0.496,0,0.745c0.13,0,0.263-0.003,0.396,0
				c0,0.216,0,0.434,0,0.65c0.133,0,0.265,0,0.397,0c0,0.248,0,0.499,0,0.745c0.13,0,0.263,0,0.394,0v-1.21
				c-0.133,0-0.269,0.002-0.403,0c0-0.373,0-0.749,0-1.124c0.134,0,0.27,0,0.403,0v-1.211c-0.131,0-0.264,0-0.394,0
				C7.114,18.478,7.114,18.728,7.114,18.976z"/>
			<path fill="#CC0001" d="M4.524,19.159c-0.066-0.001-0.132-0.001-0.2,0c0,0.095,0,0.187,0,0.28c-0.128,0-0.257,0-0.388,0
				c0-0.094,0-0.186,0-0.28c-0.066-0.001-0.132-0.001-0.199,0c0-0.124,0-0.246,0-0.37c-0.137-0.003-0.27-0.003-0.407,0
				c0.003,0.131,0,0.261,0,0.392c0.003,0.058-0.003,0.115,0.011,0.172c0.063-0.004,0.127-0.001,0.191-0.001
				c0.002,0.094-0.002,0.187,0.003,0.281c0.064,0,0.128,0,0.193,0c0,0.246,0.001,0.496-0.002,0.745
				c-0.066-0.003-0.129-0.003-0.195,0c-0.002,0.093,0.003,0.188-0.002,0.281c-0.068-0.006-0.136-0.017-0.2,0.002
				c0.003,0.183,0.003,0.368,0,0.553c0.134,0.008,0.272,0.013,0.409-0.002c-0.003-0.123,0-0.244-0.003-0.366
				c0.068-0.002,0.134-0.002,0.2-0.002c0-0.094,0-0.188,0-0.28c0.13,0,0.259,0,0.388,0c0.002,0.093,0,0.187,0,0.28
				c0.068,0,0.134,0,0.2,0c0,0.123,0.002,0.245-0.001,0.368c0.135,0.015,0.272,0.004,0.407,0.008c0-0.188-0.002-0.374,0-0.559
				c-0.065-0.016-0.13,0-0.198-0.002c-0.008-0.096,0-0.19-0.003-0.281c-0.066-0.003-0.128-0.003-0.195,0
				c-0.005-0.249,0-0.499,0-0.745c0.063,0,0.129,0,0.195,0c0-0.095,0-0.188,0-0.281c0.067,0,0.133,0,0.199,0
				c0.002-0.187,0-0.375,0.002-0.562c-0.134-0.003-0.268-0.003-0.406,0C4.524,18.913,4.524,19.035,4.524,19.159z"/>
			<path fill="#CC0001" d="M1.156,19.439c-0.134,0-0.268,0-0.401,0v1.124c0.133,0,0.267,0.002,0.401,0
				C1.156,20.188,1.156,19.814,1.156,19.439z"/>
			<path fill="#CC0001" d="M3.341,19.449c-0.132-0.019-0.27-0.004-0.404-0.01c0,0.375,0,0.751,0,1.124
				c0.134,0,0.269,0.002,0.402-0.001C3.341,20.192,3.338,19.82,3.341,19.449z"/>
			<path fill="#CC0001" d="M4.922,20.562c0.133,0.003,0.269,0.001,0.403,0.001c0-0.373,0.001-0.749,0-1.124
				c-0.134,0.006-0.272-0.011-0.405,0.011C4.923,19.82,4.92,20.192,4.922,20.562z"/>
			<path fill="#CC0001" d="M7.105,20.563c0.134,0.002,0.27,0,0.403,0v-1.124c-0.133,0-0.269,0-0.403,0
				C7.105,19.814,7.105,20.19,7.105,20.563z"/>
			<path fill="#CC0001" d="M3.929,21.812c0,0.052-0.005,0.104,0.008,0.156c0.13-0.001,0.259-0.001,0.39,0
				c0.012-0.052,0.007-0.104,0.007-0.156c0-0.26,0-0.521,0.001-0.782c-0.137-0.003-0.271-0.001-0.406,0
				C3.929,21.289,3.929,21.552,3.929,21.812z"/>
			<path fill="#FFFFFF" d="M1.149,25.696c0-0.308,0-0.62,0-0.93c0.132-0.004,0.265-0.002,0.397-0.002c0-0.309,0-0.618-0.002-0.928
				c0.133-0.004,0.265-0.003,0.397-0.003c0.003-0.312,0.003-0.624,0.003-0.936c0.131-0.003,0.263,0,0.396-0.003
				c0.015,0.313,0,0.626,0.006,0.938c0.133,0,0.264-0.003,0.396,0.003c0,0.31,0,0.619,0,0.928c0.134,0,0.267,0,0.399,0
				c0,0.312,0,0.624,0,0.937c-0.132,0-0.265,0-0.399,0c0,0.183,0.002,0.363,0,0.545c0.002,0.19,0,0.382,0,0.572
				c0.134,0,0.267,0.001,0.399,0c-0.003-0.25-0.003-0.497,0-0.745c0.132,0,0.261,0,0.391,0c0-0.497,0-0.997,0-1.491
				c0.066-0.003,0.129-0.003,0.195,0c0.017-0.309,0.007-0.616,0.01-0.925c-0.199-0.003-0.397-0.003-0.596-0.013
				c-0.009-0.248,0.011-0.499-0.006-0.749c-0.133,0.003-0.267,0.003-0.399,0c0-0.187,0.001-0.371-0.001-0.559
				c-0.131,0-0.264,0-0.394,0c0-0.309,0-0.62,0-0.931c-0.132,0-0.263,0-0.391,0c-0.002,0.311,0,0.622-0.002,0.931
				c-0.13,0-0.262,0-0.393,0c-0.001,0.188,0,0.375,0,0.559c-0.134,0.003-0.266,0.003-0.398,0.003c0,0.186,0,0.373,0,0.561
				c-0.134,0.001-0.268,0-0.401,0.001v0.374c0.133,0,0.267-0.001,0.401,0.003c0,0.249,0,0.495,0,0.745
				c-0.134,0.001-0.268,0-0.401,0.001v0.772c0.032,0.114,0.072,0.226,0.106,0.341C0.957,25.696,1.053,25.696,1.149,25.696z"/>
			<path fill="#FFFFFF" d="M7.105,22.898c-0.131,0-0.265,0-0.397-0.003c0-0.184,0-0.371,0-0.559c-0.132,0-0.264,0-0.393,0
				c0-0.309,0-0.62,0-0.931c-0.13,0-0.263,0-0.393,0c0,0.311,0,0.622,0,0.931c-0.132,0-0.264,0-0.393,0
				c-0.005,0.188-0.003,0.375-0.003,0.559c-0.132,0.003-0.265,0.003-0.396,0.003c0,0.247,0,0.498,0,0.746
				c-0.199,0.002-0.397,0-0.595,0c-0.001,0.312-0.001,0.623,0,0.935c0.066,0,0.129,0,0.195,0.003c0,0.494,0,0.994,0,1.491
				c0.129,0,0.26,0,0.392,0c0.001,0.248,0,0.498,0.001,0.745c0.131,0,0.264,0,0.396,0c0-0.372,0-0.745-0.002-1.117
				c-0.13,0-0.263,0-0.395,0c0-0.312,0-0.625,0-0.937c0.132,0,0.265,0,0.397,0c0-0.309,0-0.618,0-0.928
				c0.13-0.006,0.264-0.003,0.395-0.003c0.006-0.312,0.001-0.625,0.001-0.938c0.136-0.001,0.271-0.001,0.406,0
				c0,0.313-0.003,0.626,0,0.938c0.133,0,0.265-0.003,0.398,0.003c-0.002,0.31,0,0.619-0.002,0.928c0.133,0,0.265-0.002,0.397,0.002
				c0,0.31,0,0.622,0,0.93c0.13,0,0.263,0,0.394,0v-1.113c-0.131-0.001-0.26,0.001-0.393-0.001c-0.014-0.014-0.008-0.039-0.01-0.057
				c0-0.229,0-0.457,0-0.688c0.134-0.004,0.27-0.003,0.403-0.003V23.46c-0.133-0.001-0.269,0-0.403-0.001
				C7.105,23.271,7.106,23.084,7.105,22.898z"/>
			<path fill="#CC0001" d="M1.156,24.582c0-0.25,0-0.496,0-0.745c-0.134-0.004-0.268-0.003-0.401-0.003v0.749
				C0.888,24.582,1.022,24.583,1.156,24.582z"/>
			<path fill="#CC0001" d="M7.105,24.525c0.001,0.018-0.004,0.043,0.01,0.057c0.133,0.002,0.262,0,0.393,0.001v-0.749
				c-0.133,0-0.269-0.001-0.403,0.003C7.105,24.068,7.105,24.297,7.105,24.525z"/>
			<path fill="#FFFFFF" d="M7.105,34.105c0.001-0.376,0-0.748,0.001-1.125c0.132,0,0.268,0,0.401,0v-1.481c-0.068,0-0.135,0-0.203,0
				c-0.002,0.188,0.002,0.377-0.002,0.563c-0.067-0.009-0.133-0.013-0.197,0c0.001,0.185,0,0.371,0,0.555
				c-0.199,0.001-0.399,0.001-0.597,0c-0.002-0.188,0.002-0.376-0.002-0.564c-0.064-0.006-0.134,0.014-0.196-0.003
				c-0.003-0.182,0-0.367-0.002-0.551c-0.064,0-0.13,0-0.198,0c0-0.251,0-0.503,0-0.754c0.068,0,0.134,0,0.198,0
				c0-0.186,0-0.368,0-0.556c0.065-0.005,0.133-0.007,0.2-0.007c0-0.184,0-0.37,0-0.554c0.198-0.004,0.398,0,0.597-0.004
				c0,0.187,0.001,0.372,0,0.557c0.066,0.003,0.132,0.003,0.197,0.001c0.002,0.188,0.002,0.375,0.002,0.562c0.068,0,0.135,0,0.203,0
				v-1.493c-0.133-0.001-0.269,0-0.403-0.001c0-0.374,0-0.748,0-1.123c0.134-0.002,0.27-0.002,0.403-0.002v-1.49
				c-0.131,0-0.264,0-0.394,0c0,0.311-0.002,0.62,0,0.929c-0.132,0.006-0.265,0.002-0.397,0.002c0,0.312,0,0.626,0,0.939
				c-0.133,0-0.266,0-0.396,0c0,0.31,0,0.619,0,0.93c-0.133,0.002-0.266,0.002-0.398,0c-0.002,0.312,0,0.627,0,0.938
				c-0.116-0.001-0.235,0-0.35,0c-0.025,0.004-0.059-0.006-0.054-0.037c-0.002-0.193,0.001-0.387,0-0.582c0-0.055,0-0.11,0-0.164
				c0-0.051,0-0.104-0.002-0.155c-0.13,0-0.263,0.002-0.395,0c0-0.311,0-0.62,0-0.93c-0.134,0-0.264,0-0.396,0
				c0-0.313,0-0.627,0-0.939c-0.134,0-0.267,0.002-0.4,0c0.002-0.311,0-0.62,0-0.931c-0.128,0-0.257,0-0.388,0
				c0,0.311,0,0.62,0,0.929c-0.13,0.004-0.265,0.002-0.398,0.002c0,0.312,0,0.626,0,0.939c-0.132,0-0.264,0-0.396,0
				c0,0.312,0,0.619,0,0.932c-0.131,0-0.263,0-0.394,0c-0.002,0.203-0.001,0.407-0.002,0.611c0.129,0.221,0.252,0.446,0.391,0.662
				c0.007-0.113,0.002-0.228,0.005-0.343c-0.003-0.062-0.011-0.127,0.001-0.188c0.063,0,0.127,0,0.188,0
				c0.003-0.182,0-0.364,0.003-0.547c0.002-0.003,0.012-0.009,0.015-0.011c0.163-0.005,0.323,0,0.484-0.002
				c0.036-0.001,0.071,0,0.104,0.01c-0.002,0.183,0,0.366,0,0.55c0.13,0,0.259,0,0.388,0c0-0.184,0.002-0.368,0-0.55
				c0.105-0.021,0.213-0.006,0.32-0.01c0.097,0.004,0.193-0.01,0.286,0.008c-0.002,0.184,0,0.368,0,0.552c0.066,0,0.132,0,0.199,0
				c0,0.187,0,0.376,0,0.562c0.065,0,0.131,0,0.196,0c0,0.25,0,0.498,0,0.749c-0.064,0-0.13,0-0.193,0
				c-0.005,0.186-0.002,0.373-0.002,0.559c-0.067,0.003-0.133,0.003-0.199,0.003c-0.002,0.185,0,0.372,0,0.561
				c-0.136,0-0.271,0-0.408,0c0.195,0.237,0.392,0.474,0.597,0.702c0-0.172,0.001-0.346,0.001-0.519c0.132,0,0.265-0.002,0.397,0
				c0-0.312,0-0.62-0.002-0.929c0.136-0.008,0.27-0.002,0.406-0.004c0,0.31,0,0.621,0,0.933c0.132,0,0.265-0.002,0.398,0
				c0,0.312-0.002,0.626,0,0.937c0.13,0,0.263-0.002,0.398,0.002c-0.002,0.311-0.002,0.622-0.002,0.931c0.133,0,0.265,0,0.397,0.002
				c0.001,0.196,0.001,0.394,0.001,0.592c0.127,0.106,0.263,0.209,0.393,0.314v-1.469C7.375,34.105,7.239,34.108,7.105,34.105z
				 M4.333,29.251c-0.135,0.001-0.27,0.001-0.405,0c0-0.374,0-0.748,0-1.123c0.135-0.002,0.27-0.002,0.405,0
				C4.333,28.503,4.333,28.877,4.333,29.251z"/>
			<path fill="#FFFFFF" d="M4.072,32.053c0.081,0.106,0.17,0.208,0.252,0.313c0-0.105,0.002-0.211,0-0.313
				C4.242,32.053,4.156,32.053,4.072,32.053z"/>
			<path fill="#FFFFFF" d="M1.932,28.506c0.003,0.008,0.007,0.017,0.013,0.024c0-0.008,0-0.017,0-0.024
				C1.939,28.506,1.935,28.506,1.932,28.506z"/>
			<path fill="#FFFFFF" d="M1.521,27.568c0.008,0.018,0.015,0.038,0.023,0.058c-0.001-0.02,0-0.04-0.001-0.058
				C1.537,27.568,1.529,27.568,1.521,27.568z"/>
			<path fill="#CC0001" d="M3.929,29.251c0.135,0.001,0.27,0.001,0.405,0c0-0.374,0-0.748,0-1.123c-0.135-0.002-0.27-0.002-0.405,0
				C3.929,28.503,3.929,28.877,3.929,29.251z"/>
			<path fill="#CC0001" d="M7.105,29.251c0.134,0.001,0.27,0,0.403,0.001v-1.126c-0.133,0-0.269,0-0.403,0.002
				C7.105,28.503,7.105,28.877,7.105,29.251z"/>
			<path fill="#CC0001" d="M3.34,30.934c0.066,0,0.132,0,0.198,0c0-0.124,0-0.251,0-0.374c0.064,0,0.128,0,0.191,0
				c0,0.122,0.001,0.245,0,0.368c0.066,0.011,0.132,0.006,0.199,0.006c0,0.123,0,0.244,0,0.369c-0.065-0.002-0.133-0.002-0.199,0
				c0,0.092,0,0.181,0,0.272c0.114,0.158,0.224,0.321,0.343,0.478c0.084,0,0.17,0,0.252,0c0.002,0.103,0,0.208,0,0.313
				c0.066,0.082,0.132,0.164,0.198,0.247c0.137,0,0.272,0,0.408,0c0-0.188-0.002-0.376,0-0.561c0.066,0,0.132,0,0.199-0.003
				c0-0.186-0.003-0.373,0.002-0.559c0.063,0,0.129,0,0.193,0c0-0.251,0-0.499,0-0.749c-0.064,0-0.131,0-0.196,0
				c0-0.186,0-0.375,0-0.562c-0.067,0-0.133,0-0.199,0c0-0.184-0.002-0.368,0-0.552c-0.093-0.018-0.189-0.004-0.286-0.008
				c-0.107,0.004-0.214-0.012-0.32,0.01c0.002,0.182,0,0.366,0,0.55c-0.128,0-0.257,0-0.388,0c0-0.184-0.002-0.367,0-0.55
				c-0.032-0.01-0.068-0.011-0.104-0.01c-0.161,0.002-0.322-0.003-0.484,0.002c-0.003,0.002-0.013,0.008-0.015,0.011
				c-0.003,0.183,0,0.365-0.003,0.547c-0.061,0-0.124,0-0.188,0c-0.012,0.061-0.004,0.125-0.001,0.188
				c-0.003,0.115,0.001,0.229-0.005,0.343c0.064,0.103,0.137,0.199,0.204,0.3C3.34,30.985,3.34,30.959,3.34,30.934z M4.333,30.934
				c0.068,0,0.132,0.002,0.201-0.003c-0.001-0.123,0-0.249,0-0.371c0.062,0,0.128,0,0.19,0c0,0.123,0,0.25,0,0.374
				c0.066,0,0.132,0,0.197,0c0,0.123,0,0.244,0,0.369c-0.065-0.002-0.131-0.002-0.197,0c0,0.124,0,0.247,0,0.37
				c-0.064,0-0.129,0-0.19,0c0-0.123,0-0.246,0-0.37c-0.069-0.002-0.133-0.002-0.201,0C4.333,31.18,4.333,31.057,4.333,30.934z"/>
			<path fill="#CC0001" d="M7.302,30.183c-0.065,0.002-0.131,0.002-0.197-0.001c0.001-0.185,0-0.37,0-0.557
				c-0.199,0.004-0.399,0-0.597,0.004c0,0.184,0,0.37,0,0.554c-0.067,0-0.135,0.002-0.2,0.007c0,0.188,0,0.37,0,0.556
				c-0.064,0-0.13,0-0.198,0c0,0.251,0,0.503,0,0.754c0.068,0,0.134,0,0.198,0c0.002,0.184-0.001,0.369,0.002,0.551
				c0.062,0.017,0.131-0.003,0.196,0.003c0.004,0.188,0,0.377,0.002,0.564c0.198,0.001,0.398,0.001,0.597,0
				c0-0.184,0.001-0.37,0-0.555c0.064-0.013,0.13-0.009,0.197,0c0.004-0.187,0-0.375,0.002-0.563c0.068,0,0.135,0,0.203,0v-0.754
				c-0.068,0-0.135,0-0.203,0C7.305,30.558,7.305,30.371,7.302,30.183z M7.103,31.309c-0.066,0-0.131,0-0.197,0
				c-0.001,0.122,0,0.249-0.001,0.374c-0.066,0-0.129,0-0.197-0.002c0-0.123,0-0.25,0-0.372c-0.067,0-0.132,0-0.198-0.004
				c0-0.121,0-0.243,0-0.366c0.066-0.003,0.131-0.003,0.198-0.003c0-0.122,0-0.249,0-0.372c0.068-0.003,0.13-0.003,0.197-0.003
				c0.001,0.126,0,0.25,0.001,0.375c0.065,0,0.13,0,0.197,0C7.103,31.062,7.103,31.184,7.103,31.309z"/>
			<path fill="#FFFFFF" d="M3.929,31.303c0-0.125,0-0.246,0-0.369c-0.067,0-0.133,0.005-0.199-0.006c0.001-0.123,0-0.246,0-0.368
				c-0.063,0-0.127,0-0.191,0c0,0.123,0,0.25,0,0.374c-0.066,0-0.132,0-0.198,0c0,0.025,0,0.052,0,0.077
				c0.125,0.19,0.257,0.378,0.39,0.564c0-0.092,0-0.181,0-0.272C3.795,31.301,3.863,31.301,3.929,31.303z"/>
			<path fill="#FFFFFF" d="M4.534,31.673c0.062,0,0.126,0,0.19,0c0-0.123,0-0.246,0-0.37c0.066-0.002,0.132-0.002,0.197,0
				c0-0.125,0-0.246,0-0.369c-0.065,0-0.131,0-0.197,0c0-0.124,0-0.251,0-0.374c-0.062,0-0.129,0-0.19,0
				c0,0.122-0.001,0.248,0,0.371c-0.069,0.005-0.133,0.003-0.201,0.003c0,0.123,0,0.246,0,0.369c0.068-0.002,0.132-0.002,0.201,0
				C4.534,31.427,4.534,31.55,4.534,31.673z"/>
			<path fill="#FFFFFF" d="M6.905,30.561c-0.066,0-0.129,0-0.197,0.003c0,0.123,0,0.25,0,0.372c-0.067,0-0.132,0-0.198,0.003
				c0,0.123,0,0.245,0,0.366c0.066,0.004,0.131,0.004,0.198,0.004c0,0.122,0,0.249,0,0.372c0.068,0.002,0.13,0.002,0.197,0.002
				c0.001-0.125,0-0.252,0.001-0.374c0.065,0,0.13,0,0.197,0c0-0.125,0-0.247,0-0.373c-0.066,0-0.131,0-0.197,0
				C6.905,30.811,6.906,30.687,6.905,30.561z"/>
			<path fill="#CC0001" d="M5.526,33.737c0.128,0,0.26,0,0.389,0c0,0.143,0,0.285,0,0.43c0.384,0.38,0.786,0.743,1.2,1.093
				c0-0.198,0-0.396-0.001-0.592c-0.132-0.002-0.265-0.002-0.397-0.002c0-0.309,0-0.62,0.002-0.931
				c-0.136-0.004-0.268-0.002-0.398-0.002c-0.002-0.311,0-0.624,0-0.937c-0.133-0.002-0.266,0-0.398,0c0-0.312,0-0.623,0-0.933
				c-0.136,0.002-0.27-0.004-0.406,0.004c0.002,0.309,0.002,0.617,0.002,0.929c-0.132-0.002-0.265,0-0.397,0
				c0,0.173-0.001,0.347-0.001,0.519c0.132,0.148,0.27,0.293,0.406,0.436C5.526,33.748,5.526,33.742,5.526,33.737z"/>
			<path fill="#CC0001" d="M7.105,34.105c0.134,0.003,0.27,0,0.403,0V32.98c-0.133,0-0.269,0-0.401,0
				C7.105,33.357,7.106,33.729,7.105,34.105z"/>
			<path fill="#FFFFFF" d="M5.526,33.737c0,0.005,0,0.011,0,0.014c0.131,0.138,0.255,0.28,0.389,0.416c0-0.145,0-0.287,0-0.43
				C5.786,33.737,5.654,33.737,5.526,33.737z"/>
		</g>
	</g>
</g>
</svg>
