<?xml version="1.0" encoding="utf-8"?>
<!-- Generator: Adobe Illustrator 16.0.0, SVG Export Plug-In . SVG Version: 6.00 Build 0)  -->
<!DOCTYPE svg PUBLIC "-//W3C//DTD SVG 1.0//EN" "http://www.w3.org/TR/2001/REC-SVG-20010904/DTD/svg10.dtd">
<svg version="1.0" id="Layer_1" xmlns="http://www.w3.org/2000/svg" xmlns:xlink="http://www.w3.org/1999/xlink" x="0px" y="0px"
	 width="40px" height="40px" viewBox="0 0 40 40" enable-background="new 0 0 40 40" xml:space="preserve">
<g>
	<g>
		<g>
			<path fill="#007FFF" d="M20.002,40C31.047,40,40,31.045,40,20c0-1.548-0.192-3.047-0.524-4.494L5.417,33.656
				C9.066,37.553,14.241,40,20.002,40z"/>
			<path fill="#007FFF" d="M20.002,0C8.954,0,0,8.954,0,20c0,1.55,0.194,3.052,0.526,4.499L34.587,6.348
				C30.939,2.45,25.762,0,20.002,0z"/>
			<path fill="#F7D618" d="M5.417,33.656l34.059-18.15c-0.123-0.53-0.254-1.058-0.418-1.571L4.351,32.43
				C4.685,32.855,5.046,33.26,5.417,33.656z"/>
			<path fill="#CE1021" d="M4.351,32.43l34.707-18.495c-0.744-2.338-1.911-4.483-3.403-6.359L0.944,26.072
				C1.688,28.408,2.855,30.554,4.351,32.43z"/>
			<path fill="#F7D618" d="M0.526,24.499c0.122,0.53,0.255,1.06,0.417,1.573l34.71-18.497c-0.337-0.427-0.695-0.831-1.067-1.228
				L0.526,24.499z"/>
		</g>
		<polygon fill="#F7D618" points="5.853,14.444 8.491,12.529 11.126,14.444 10.121,11.345 12.755,9.429 9.497,9.429 8.491,6.329 
			7.484,9.429 4.225,9.429 6.861,11.345 		"/>
	</g>
</g>
</svg>
