<svg xmlns="http://www.w3.org/2000/svg" width="40" height="40" viewBox="0 0 40 40">
    <g fill="none" fill-rule="evenodd">
        <circle cx="20" cy="20" r="20" fill="#FFF"/>
        <path fill="#D0D0D5" fill-rule="nonzero" d="M20 0c11.046 0 20 8.954 20 20s-8.954 20-20 20S0 31.046 0 20 8.954 0 20 0zm0 1C9.507 1 1 9.507 1 20s8.507 19 19 19 19-8.507 19-19S30.493 1 20 1z"/>
        <path fill="#CE1126" d="M0 14H40V26H0z"/>
        <path fill="#002B7F" d="M0 0H40V7H0zM0 32H40V40H0z"/>
    </g>
</svg>
