<?xml version="1.0" encoding="utf-8"?>
<!-- Generator: Adobe Illustrator 16.0.0, SVG Export Plug-In . SVG Version: 6.00 Build 0)  -->
<!DOCTYPE svg PUBLIC "-//W3C//DTD SVG 1.1//EN" "http://www.w3.org/Graphics/SVG/1.1/DTD/svg11.dtd">
<svg version="1.1" id="Layer_1" xmlns="http://www.w3.org/2000/svg" xmlns:xlink="http://www.w3.org/1999/xlink" x="0px" y="0px"
	 width="40px" height="40px" viewBox="0 0 40 40" enable-background="new 0 0 40 40" xml:space="preserve">
<g>
	<g>
		<path fill="#FFFFFF" d="M40,20C40,8.955,31.045,0,20,0C13.059,0,6.946,3.538,3.359,8.906L20,20H40z"/>
		<path fill="#D72027" d="M40,20H20L3.359,31.094C6.946,36.461,13.059,40,20,40C31.045,40,40,31.046,40,20z"/>
		<path fill="#16467D" d="M3.359,8.906C1.238,12.082,0,15.896,0,20c0,4.104,1.238,7.92,3.359,11.094L20,20L3.359,8.906z"/>
	</g>
</g>
<path fill="#D0D0D5" d="M20,0C13.059,0,6.947,3.539,3.361,8.908l0.838,0.559C7.61,4.367,13.418,1,20,1c10.477,0,19,8.523,19,19h1
	C40,8.954,31.046,0,20,0z"/>
</svg>
