<?xml version="1.0" encoding="utf-8"?>
<!-- Generator: Adobe Illustrator 16.0.0, SVG Export Plug-In . SVG Version: 6.00 Build 0)  -->
<!DOCTYPE svg PUBLIC "-//W3C//DTD SVG 1.0//EN" "http://www.w3.org/TR/2001/REC-SVG-20010904/DTD/svg10.dtd">
<svg version="1.0" id="Layer_1" xmlns="http://www.w3.org/2000/svg" xmlns:xlink="http://www.w3.org/1999/xlink" x="0px" y="0px"
	 width="40px" height="40px" viewBox="0 0 40 40" enable-background="new 0 0 40 40" xml:space="preserve">
<g>
	<g>
		<path fill="#D01F35" d="M0.223,22.999C1.37,30.618,6.811,36.825,14,39.082V22.999H0.223z"/>
		<path fill="#D01F35" d="M14,0.917C6.811,3.174,1.37,9.383,0.223,17H14V0.917z"/>
		<path fill="#D01F35" d="M19.999,39.997h0.039C30.047,39.98,38.33,32.61,39.775,22.999H19.999V39.997z"/>
		<path fill="#D01F35" d="M19.999,17h19.776c-1.447-9.614-9.736-16.987-19.75-17h-0.026V17z"/>
		<path fill="#FFFFFF" d="M19.999,22.999h19.776C39.924,22.021,40,21.021,40,20c0-1.02-0.076-2.021-0.225-3H19.999V0l0,0
			C17.909,0,15.894,0.322,14,0.917V17H0.223C0.079,17.979,0,18.98,0,20c0,1.021,0.079,2.021,0.223,2.999H14v16.083
			C15.894,39.678,17.909,40,19.999,40v-0.003V22.999z"/>
	</g>
</g>
</svg>
