<?xml version="1.0" encoding="utf-8"?>
<!-- Generator: Adobe Illustrator 16.0.0, SVG Export Plug-In . SVG Version: 6.00 Build 0)  -->
<!DOCTYPE svg PUBLIC "-//W3C//DTD SVG 1.1//EN" "http://www.w3.org/Graphics/SVG/1.1/DTD/svg11.dtd">
<svg version="1.1" id="Layer_1" xmlns="http://www.w3.org/2000/svg" xmlns:xlink="http://www.w3.org/1999/xlink" x="0px" y="0px"
	 width="40px" height="40px" viewBox="0 0 40 40" enable-background="new 0 0 40 40" xml:space="preserve">
<g>
	<g>
		<path fill="#010101" d="M19.999,40c8.071,0,15.021-4.783,18.181-11.667H1.817C4.978,35.217,11.93,40,19.999,40z"/>
		<path fill="#CE2028" d="M19.999,0C11.93,0,4.978,4.782,1.817,11.667H38.18C35.02,4.782,28.07,0,19.999,0z"/>
		<path fill="#FFFFFF" d="M0,20c0,2.975,0.654,5.796,1.817,8.333H38.18C39.346,25.796,40,22.975,40,20
			c0-2.977-0.654-5.796-1.82-8.333H1.817C0.652,14.204,0,17.023,0,20z"/>
		<g>
			<g>
				<g>
					<g id="_x3C_Path_x3E__169_" transform="matrix(1.000151,0,0,1,2.1783e-2,6.394885e-14)">
						<g>
							<path fill="#FBD118" d="M15.787,27.739c-0.295-0.062-0.356-0.198-0.352-0.358l0,0c0-0.062,0.008-0.132,0.025-0.181l0,0
								c-0.424-0.166,0.045-0.449-0.552-0.604l0,0l0.005-0.052c0.569-0.017,0.336-0.293,0.598-0.321l0,0
								c0.024,0,0.05,0.006,0.048,0.038l0,0c0.002-0.376,0.293-0.557,0.609-0.557l0,0c0.097,0,0.196,0.019,0.292,0.047l0,0
								c0.663,0.22,2.696,0.241,3.333,0.241l0,0c0.124,0,0.195,0,0.195,0l0,0v0.052c0,0-0.07,0-0.195,0l0,0
								c-0.638,0-2.666-0.015-3.351-0.239l0,0c-0.089-0.029-0.183-0.046-0.274-0.046l0,0c-0.298,0.002-0.553,0.158-0.587,0.527l0,0
								c-0.028-0.006-0.05-0.009-0.07-0.009l0,0c-0.154-0.023-0.03,0.253-0.465,0.309l0,0c0.45,0.188,0.097,0.477,0.448,0.588l0,0
								c0,0.076-0.005,0.145-0.005,0.206l0,0c0.003,0.147,0.025,0.236,0.308,0.308l0,0c0.93,0.215,4.189,0.308,4.193,0.308l0,0
								l-0.002,0.055C19.988,28.05,16.729,27.957,15.787,27.739L15.787,27.739z"/>
						</g>
					</g>
					<g id="_x3C_Path_x3E__168_" transform="matrix(1.000151,0,0,1,2.1783e-2,6.394885e-14)">
						<g>
							<path fill="#FBD118" d="M19.988,27.995c0.004,0,3.262-0.093,4.196-0.308l0,0c0.278-0.07,0.301-0.158,0.307-0.309l0,0
								c0-0.062-0.006-0.131,0.012-0.229l0,0c0.336-0.09-0.02-0.375,0.432-0.563l0,0c-0.435-0.056-0.315-0.332-0.467-0.308l0,0
								c-0.018,0-0.041,0.002-0.102-0.019l0,0c-0.001-0.344-0.257-0.5-0.556-0.502l0,0c-0.093,0-0.185,0.017-0.275,0.046l0,0
								c-0.683,0.226-2.711,0.239-3.353,0.239l0,0c-0.122,0-0.193,0-0.193,0l0,0v-0.052c0,0,0.071,0,0.193,0l0,0
								c0.636,0,2.669-0.021,3.337-0.241l0,0c0.096-0.028,0.191-0.047,0.291-0.047l0,0c0.314,0,0.608,0.181,0.576,0.53l0,0
								c0.03-0.008,0.057-0.012,0.082-0.012l0,0c0.258,0.027,0.026,0.305,0.6,0.32l0,0l0.008,0.052
								c-0.6,0.154-0.131,0.438-0.535,0.578l0,0c0,0.071,0.007,0.142,0.007,0.205l0,0c0.005,0.159-0.056,0.298-0.351,0.358l0,0
								c-0.947,0.219-4.203,0.312-4.204,0.312l0,0L19.988,27.995L19.988,27.995z"/>
						</g>
					</g>
				</g>
				<path fill="#FBD118" d="M17.1,26.73c-0.016,0.037-0.028,0.078-0.042,0.117c0.026,0.036,0.048,0.067,0.055,0.116
					c-0.049-0.014-0.091-0.021-0.139-0.028c-0.056-0.018-0.093,0-0.098-0.063c0-0.072-0.017-0.138-0.064-0.197
					c-0.014,0.034-0.028,0.075-0.039,0.112c0.024,0.036,0.049,0.068,0.055,0.113c-0.081-0.015-0.312-0.017-0.346-0.106
					c-0.05-0.126-0.051-0.287-0.072-0.419c-0.023,0.038-0.052,0.092-0.038,0.139c-0.062,0.024-0.124,0.039-0.16,0.099
					c-0.044,0.075-0.085,0.118,0,0.153c0.089,0.043,0.123,0.045,0.189-0.024c0.018,0.172,0.081,0.229,0.242,0.262
					c0.169,0.041,0.346,0.071,0.522,0.108c0-0.092,0.006-0.191-0.017-0.274C17.139,26.797,17.118,26.761,17.1,26.73z M16.357,26.672
					c-0.021,0.006-0.099-0.015-0.066-0.038c0.024-0.026,0.06-0.032,0.09-0.044C16.388,26.639,16.41,26.657,16.357,26.672z
					 M20.934,26.707c0.09,0.046,0.082,0.02,0.127-0.059c-0.054-0.027-0.074-0.066-0.113-0.004c-0.004,0.047-0.025,0.055-0.055,0.022
					c-0.063-0.024-0.066,0.028-0.097,0.075c0.032,0.015,0.067,0.031,0.099,0.047C20.911,26.761,20.92,26.734,20.934,26.707z
					 M18.186,26.814c0.042,0.021,0.053-0.074,0.055-0.105c-0.063-0.031-0.064-0.078-0.107-0.104
					c-0.015,0.028-0.031,0.053-0.037,0.086c-0.021,0.062,0.017,0.063,0.03,0.129c0.017,0.1,0.033,0.209,0.054,0.312
					c-0.082-0.006-0.21-0.003-0.282-0.049c-0.029-0.013,0.064-0.14-0.009-0.206c-0.071-0.059-0.21-0.075-0.238,0.03
					c-0.028,0.116,0.049,0.046,0.09,0.139c-0.019,0.008-0.123,0.027-0.123,0c0-0.073-0.025-0.146-0.076-0.202
					c-0.007,0.028-0.015,0.059-0.02,0.088c-0.012,0.063,0.01,0.063,0.04,0.119c0.024,0.053,0.015,0.085-0.035,0.125
					c-0.115,0.104-0.215,0.126-0.34,0.023c-0.045,0.055,0.155,0.171,0.22,0.177c0.086,0.019,0.211-0.103,0.211-0.185
					c0.066,0.013,0.133,0.009,0.179-0.041c0.063,0.127,0.324,0.113,0.443,0.127c0-0.104-0.006-0.2-0.024-0.303
					C18.203,26.919,18.193,26.87,18.186,26.814z M17.789,26.96c-0.019,0-0.035-0.017-0.035-0.033c0-0.02,0.016-0.032,0.035-0.032
					s0.041,0.032,0.041,0.055C17.83,26.965,17.808,26.96,17.789,26.96z M16.344,26.271c0.024,0.02,0.048,0.039,0.071,0.059
					c0.021-0.028,0.037-0.059,0.056-0.083c-0.03-0.022-0.06-0.046-0.089-0.067c-0.014,0.021-0.03,0.045-0.045,0.067
					c-0.025-0.021-0.046-0.036-0.078-0.056c-0.014,0.025-0.035,0.051-0.052,0.078c0.032,0.021,0.067,0.049,0.096,0.074
					C16.316,26.323,16.332,26.296,16.344,26.271z M16.935,27.223c0.04,0.031,0.077,0.061,0.119,0.09
					c0.019-0.039,0.04-0.067,0.06-0.103c-0.042-0.028-0.079-0.06-0.117-0.093C16.974,27.15,16.955,27.188,16.935,27.223z
					 M16.736,27.146c-0.023-0.019-0.047-0.035-0.075-0.055c-0.027,0.051-0.073,0.07-0.021,0.112c0.021,0.017,0.043,0.03,0.063,0.049
					c0.015-0.026,0.028-0.049,0.04-0.073c0.024,0.02,0.051,0.036,0.072,0.055c0.021-0.029,0.042-0.062,0.058-0.092
					c-0.028-0.025-0.063-0.045-0.091-0.072C16.765,27.098,16.75,27.117,16.736,27.146z M18.307,26.989
					c0.007,0.063,0.015,0.127,0.019,0.19c0,0.051-0.032,0.121,0.015,0.143c0.031-0.057,0.054-0.108,0.054-0.176
					c0-0.164-0.035-0.323-0.057-0.479C18.267,26.79,18.294,26.854,18.307,26.989z M21.404,26.97
					c-0.014,0.044-0.026,0.089-0.043,0.128c0.029,0.029,0.051,0.057,0.057,0.103c-0.057,0.001-0.301,0.06-0.339,0.01
					c-0.067-0.095-0.062-0.308-0.078-0.42c-0.026,0.049-0.026,0.146-0.063,0.171c-0.076,0.049-0.117,0.091-0.154,0.169
					c-0.029,0.063-0.057,0.099,0.023,0.107c0.1,0.018,0.127-0.003,0.188-0.08c0.006,0.061,0.017,0.137,0.062,0.181
					c0.047,0.048,0.168,0.016,0.229,0.01c0.068-0.008,0.186,0.016,0.186-0.062c0-0.073,0.006-0.154-0.014-0.223
					C21.445,27.025,21.425,26.995,21.404,26.97z M20.947,27.105c-0.012,0.006-0.075,0.021-0.075-0.006
					c0-0.037,0.075-0.072,0.103-0.082C20.98,27.062,20.99,27.08,20.947,27.105z M21.824,27.098c0.025,0.021,0.046,0.055,0.057,0.086
					c0.02,0.057-0.046,0.114-0.082,0.15c-0.045,0.042-0.098,0.104-0.164,0.114c-0.066,0.008-0.121-0.063-0.162-0.009
					c0.076,0.043,0.18,0.121,0.268,0.082c0.076-0.031,0.188-0.146,0.188-0.229c0-0.117,0.018-0.25-0.072-0.34
					C21.844,27.002,21.832,27.051,21.824,27.098z M23.795,26.746c-0.082-0.029-0.128-0.118-0.216-0.143
					c-0.106-0.024-0.173,0.082-0.208,0.162c0.098-0.045,0.18-0.021,0.263,0.043c-0.108,0.028-0.22,0.057-0.329,0.086
					c-0.002-0.039-0.045-0.195-0.102-0.187c-0.07,0.013-0.121,0.119-0.146,0.178c-0.048,0.127-0.304,0.113-0.416,0.154
					c0.067-0.041,0.102-0.114,0.102-0.188c0-0.065-0.039-0.182-0.105-0.096c-0.045,0.057-0.072,0.129-0.096,0.195
					c-0.033,0.088-0.049,0.107-0.146,0.119c0-0.086-0.062-0.309-0.162-0.153c-0.064,0.106-0.104,0.347,0.088,0.291
					c-0.045,0.062-0.104,0.134-0.182,0.156c-0.031,0.01-0.066,0.017-0.102,0.009c-0.051-0.01-0.072-0.062-0.105-0.005
					c0.068,0.049,0.176,0.132,0.271,0.093c0.066-0.023,0.109-0.087,0.148-0.141c0.012-0.021,0.022-0.051,0.031-0.076
					c0.018-0.051,0.038-0.037,0.1-0.046c0,0.083,0.072,0.292,0.195,0.207c0.075-0.046,0.12-0.212,0.025-0.247
					c0.09-0.024,0.181-0.028,0.266-0.055c0.043-0.017,0.075-0.045,0.098-0.088c0.065,0.021,0.139,0.027,0.199,0.01
					c0.129-0.022,0.26-0.059,0.389-0.084c0.068-0.018,0.137-0.034,0.201-0.049c0-0.033,0-0.062,0-0.094
					C23.855,26.723,23.85,26.766,23.795,26.746z M22.316,27.083c-0.142,0.022-0.01-0.166,0.02-0.003
					C22.329,27.08,22.32,27.083,22.316,27.083z M22.604,26.917c0.019-0.032,0.058-0.045,0.058,0.015c0,0.041-0.073,0.07-0.103,0.088
					C22.572,26.982,22.584,26.951,22.604,26.917z M22.667,27.282c-0.056,0.013-0.119-0.024-0.13-0.083
					c0.035,0,0.078,0.005,0.111,0.021C22.66,27.227,22.711,27.273,22.667,27.282z M23.109,26.896
					c0.041-0.127,0.102,0.008,0.094,0.011C23.176,26.912,23.139,26.898,23.109,26.896z M23.484,27.15
					c0.037,0.015,0.078,0.023,0.115,0.035c0.022-0.043,0.043-0.088,0.066-0.133c-0.042-0.011-0.083-0.021-0.123-0.033
					C23.523,27.062,23.506,27.111,23.484,27.15z M21.346,27.422c-0.004,0.046-0.023,0.055-0.059,0.027
					c-0.061-0.027-0.064,0.035-0.086,0.087c0.057,0.026,0.078,0.069,0.111,0.001c0.004-0.045,0.022-0.055,0.057-0.021
					c0.061,0.026,0.064-0.043,0.092-0.094C21.4,27.391,21.379,27.352,21.346,27.422z M20.19,27.225
					c-0.021,0.021-0.165,0.049-0.165,0.021c0-0.052,0.002-0.112-0.023-0.164c-0.081-0.168-0.287,0.026-0.377,0.09
					c-0.044,0.029-0.115,0.089-0.174,0.063c-0.076-0.029,0.017-0.131-0.066-0.15c-0.008,0.087-0.043,0.148-0.134,0.145
					c-0.064,0-0.031-0.022-0.044-0.076c-0.011-0.049-0.04-0.088-0.068-0.122c-0.004,0.032-0.014,0.062-0.019,0.089
					c-0.013,0.064,0.01,0.059,0.036,0.113c0.029,0.062,0.007,0.096-0.037,0.14c-0.107,0.103-0.207,0.144-0.328,0.045
					c-0.042,0.053,0.05,0.092,0.096,0.117c0.039,0.026,0.095,0.056,0.143,0.041c0.077-0.015,0.19-0.117,0.187-0.207
					c0.077,0.004,0.119-0.005,0.168-0.064c0.04,0.104,0.154,0.081,0.25,0.083c0.117,0.004,0.235,0.004,0.351,0.006
					c0.075,0.004,0.158,0.021,0.212-0.033c0.039-0.039,0.044-0.014,0.093,0.002c0.051,0.017,0.111,0.029,0.165,0.029
					c0-0.091,0.002-0.179-0.038-0.262C20.331,26.948,20.262,27.15,20.19,27.225z M19.784,27.251c-0.045,0-0.089-0.002-0.135-0.005
					c0.076-0.051,0.166-0.12,0.269-0.083C20.048,27.217,19.812,27.254,19.784,27.251z M20.264,27.214
					c0.036-0.116,0.099,0.03,0.089,0.03C20.326,27.244,20.291,27.225,20.264,27.214z"/>
			</g>
			<g id="_x3C_Path_x3E__167_">
				<path fill="#FBD118" d="M14.165,25.625c0-0.01,0.309-7.08,0.409-9.499l0,0c0.029-0.763,0.377-1.045,0.828-1.04l0,0
					c0.426,0,0.94,0.236,1.386,0.505l0,0c0.36,0.22,0.739,0.288,1.14,0.288l0,0c0.641,0,1.331-0.174,2.073-0.174l0,0
					c0.741,0,1.431,0.174,2.071,0.174l0,0c0.396,0,0.775-0.068,1.139-0.288l0,0c0.443-0.269,0.959-0.505,1.383-0.505l0,0
					c0.451-0.005,0.801,0.278,0.827,1.04l0,0c0.103,2.419,0.411,9.489,0.411,9.499l0,0h-0.025v0.025L14.165,25.625L14.165,25.625z
					 M25.777,25.6c-0.023-0.49-0.312-7.141-0.41-9.474l0,0c-0.035-0.747-0.348-0.984-0.773-0.987l0,0
					c-0.406,0-0.916,0.23-1.355,0.499l0,0c-0.37,0.227-0.764,0.293-1.166,0.293l0,0c-0.649,0-1.338-0.174-2.07-0.174l0,0
					c-0.734,0-1.423,0.174-2.073,0.174l0,0c-0.405,0-0.798-0.068-1.168-0.293l0,0c-0.444-0.267-0.951-0.499-1.358-0.499l0,0
					c-0.424,0.003-0.735,0.24-0.773,0.987l0,0c-0.099,2.414-0.407,9.458-0.437,9.474l0,0H25.777L25.777,25.6z"/>
			</g>
			<g id="_x3C_Path_x3E__165_" transform="matrix(1.000151,0,0,1,2.1783e-2,6.394885e-14)">
				<g id="_x3C_Path_x3E__166_">
					<path fill="#FFFFFF" d="M20.914,16.071c0.324,0.188,0.863,0.188,0.863,0.188s-0.869-1.204-0.644-2.206
						c0.304-1.339-0.023-1.872-0.594-2.015c-0.446-0.109-0.629-0.057-0.845,0.02c-0.197,0.073-0.453,0.33-0.453,0.33
						s-0.291-0.148-0.528-0.191c-0.218-0.038-0.545,0-0.545,0.472l0.075-0.073c0,0,0.336,0.066,0.527,0.22
						c0.145,0.117,0.325,0.638,0.387,1.106c0.147,0.996-0.989,2.337-0.989,2.337s0.545,0,0.868-0.188
						c-0.13,0.188-0.19,0.264-0.322,0.391c0.397-0.068,0.924-0.524,0.924-0.524l0.338,0.456l0.334-0.456
						c0,0,0.531,0.456,0.928,0.524C21.106,16.335,21.045,16.26,20.914,16.071z"/>
					<path fill="#FBD118" d="M21.234,16.489c-0.394-0.07-0.901-0.5-0.904-0.535l0,0l-0.356,0.483l-0.02-0.028l-0.298-0.452
						c0,0-0.528,0.459-0.937,0.532l0,0l-0.086,0.013l0.062-0.06c0.134-0.127,0.187-0.197,0.356-0.349l0,0
						c-0.333,0.195-0.882,0.192-0.882,0.192v0.001h-0.06l0.039-0.044c-0.001-0.003,0.997-1.183,0.995-2.135l0,0
						c0-0.062-0.004-0.122-0.014-0.181l0,0c-0.059-0.465-0.245-0.988-0.376-1.092l0,0c-0.175-0.14-0.488-0.208-0.493-0.22l0,0
						l-0.12,0.117v-0.063c0-0.4,0.24-0.51,0.449-0.51l0,0c0.044,0,0.089,0.005,0.129,0.01l0,0c0.23,0.042,0.505,0.179,0.507,0.2l0,0
						c0.024-0.026,0.263-0.262,0.46-0.337l0,0c0.126-0.047,0.247-0.084,0.415-0.083l0,0c0.117,0,0.257,0.018,0.443,0.062l0,0
						c0.432,0.106,0.73,0.439,0.728,1.146l0,0c0,0.249-0.033,0.548-0.115,0.901l0,0c-0.025,0.112-0.037,0.228-0.037,0.344l0,0
						c0,0.9,0.678,1.84,0.68,1.84l0,0l0.029,0.044h-0.053c0-0.001-0.447,0-0.779-0.146l0,0c0.092,0.129,0.149,0.197,0.26,0.302l0,0
						l0.064,0.062L21.234,16.489L21.234,16.489z M18.802,16.413c0.37-0.111,0.823-0.495,0.857-0.493l0,0l0.317,0.43l0.353-0.434
						c0-0.001,0.453,0.386,0.824,0.497l0,0c-0.092-0.093-0.154-0.175-0.26-0.329l0,0l0.023-0.013l0.01-0.024
						c0.255,0.151,0.656,0.181,0.799,0.187l0,0c-0.133-0.198-0.657-1.023-0.657-1.831l0,0c0-0.121,0.011-0.239,0.038-0.356l0,0
						c0.079-0.349,0.113-0.645,0.113-0.889l0,0c-0.002-0.69-0.278-0.988-0.687-1.094l0,0c-0.182-0.042-0.319-0.061-0.431-0.061l0,0
						c-0.162,0-0.271,0.036-0.396,0.082l0,0c-0.188,0.07-0.444,0.324-0.475,0.329l0,0c0,0-0.293-0.149-0.521-0.19l0,0
						c-0.038-0.005-0.078-0.01-0.12-0.01l0,0c-0.183,0.003-0.37,0.072-0.392,0.397l0,0l0.052-0.042c0,0.001,0.338,0.067,0.537,0.225
						l0,0c0.158,0.133,0.329,0.651,0.396,1.126l0,0c0.009,0.063,0.013,0.125,0.013,0.188l0,0c0,0.871-0.787,1.895-0.971,2.125l0,0
						c0.149-0.005,0.555-0.029,0.834-0.146l0,0C18.951,16.238,18.891,16.32,18.802,16.413L18.802,16.413z"/>
				</g>
			</g>
			<g id="_x3C_Path_x3E__164_">
				<path fill="#FBD118" d="M21.125,12.467c-0.167-0.27-0.284-0.285-0.452-0.382c-0.337-0.202-0.781-0.077-0.989,0.003
					C19.483,12.159,19.28,12.4,19.28,12.4s0.348-0.005,0.487,0.176c0.136,0.182,0.297,0.02,0.424-0.07
					c0.131-0.093,0.247-0.172,0.413-0.203C20.771,12.275,21.125,12.467,21.125,12.467z"/>
				<path fill="#FBD118" d="M19.745,12.594c-0.117-0.159-0.435-0.169-0.464-0.169l0,0v-0.023l-0.021-0.02
					c0.002,0,0.203-0.244,0.416-0.321l0,0c0.126-0.049,0.338-0.114,0.563-0.114l0,0c0.15,0,0.307,0.028,0.448,0.114l0,0
					c0.162,0.095,0.293,0.117,0.461,0.391l0,0l-0.022,0.015l-0.013,0.023c0,0-0.077-0.042-0.176-0.083l0,0
					c-0.098-0.041-0.217-0.083-0.299-0.082l0,0c-0.01,0-0.021,0.002-0.029,0.002l0,0c-0.163,0.031-0.272,0.107-0.402,0.202l0,0
					c-0.085,0.055-0.185,0.155-0.298,0.156l0,0C19.851,12.686,19.792,12.656,19.745,12.594L19.745,12.594z M19.788,12.56
					c0.042,0.056,0.081,0.072,0.121,0.072l0,0c0.079,0.001,0.181-0.086,0.269-0.148l0,0c0.128-0.095,0.249-0.176,0.421-0.207l0,0
					c0.012-0.001,0.025-0.003,0.041-0.003l0,0c0.127,0.001,0.303,0.073,0.409,0.125l0,0c-0.137-0.186-0.237-0.202-0.39-0.291l0,0
					c-0.129-0.077-0.276-0.106-0.42-0.106l0,0c-0.215,0-0.424,0.062-0.546,0.111l0,0c-0.156,0.055-0.323,0.225-0.393,0.262l0,0
					C19.377,12.376,19.655,12.393,19.788,12.56L19.788,12.56z"/>
			</g>
			<circle fill="#FFFFFF" cx="19.856" cy="12.347" r="0.078"/>
			<path fill="#FFCD05" d="M18.229,12.545c0,0,0.381-0.109,0.787,0.103c0.371,0.194,0.566,0.487,0.566,0.487
				s-0.16-0.194-0.296-0.091c-0.192,0.14-0.162,0.488-0.162,0.488s-0.03-0.439-0.236-0.622
				C18.678,12.729,18.229,12.545,18.229,12.545z"/>
			<g>
				<path fill="#FBD118" d="M18.986,16.131c0,0,0.45-0.557,0.45-1.198l0,0c0-0.073-0.008-0.148-0.02-0.221l0,0l0.053-0.01
					c0.013,0.077,0.019,0.155,0.019,0.231l0,0c0,0.667-0.458,1.231-0.458,1.231v0.001v0.002L18.986,16.131L18.986,16.131z"/>
			</g>
			<g>
				<path fill="#FBD118" d="M20.506,14.937c0-0.077,0.006-0.156,0.021-0.234l0,0l0.055,0.01c-0.016,0.075-0.021,0.15-0.021,0.225
					l0,0c0,0.638,0.447,1.184,0.449,1.184l0,0l-0.041,0.034C20.966,16.152,20.506,15.599,20.506,14.937L20.506,14.937z"/>
			</g>
			<g>
				<path fill="#FBD118" d="M19.601,15.96c0.02-0.025,0.218-0.503,0.216-0.961l0,0c0-0.086-0.005-0.171-0.021-0.252l0,0l0.052-0.01
					c0.016,0.084,0.023,0.171,0.023,0.262l0,0c-0.002,0.475-0.19,0.944-0.227,0.995l0,0L19.601,15.96L19.601,15.96z"/>
			</g>
			<g>
				<path fill="#FBD118" d="M20.097,14.979c0-0.086,0.007-0.173,0.021-0.256l0,0l0.051,0.01c-0.014,0.08-0.02,0.163-0.02,0.246l0,0
					c-0.002,0.463,0.193,0.947,0.217,0.975l0,0l-0.042,0.032C20.287,15.935,20.099,15.462,20.097,14.979L20.097,14.979z"/>
			</g>
			<g>
				<polygon fill="#FBD118" points="18.129,21.643 17.521,22.302 17.799,17.568 18.351,17.5 				"/>
				<polygon fill="#FBD118" points="14.803,24.876 14.192,25.534 14.589,15.991 15.2,15.752 				"/>
				<polygon fill="#FBD118" points="15.715,24.045 15.102,24.702 15.498,15.905 16.107,16.507 				"/>
				<polygon fill="#FBD118" points="16.622,23.205 16.014,23.862 16.339,16.668 16.876,17.107 				"/>
				<polygon fill="#FBD118" points="17.393,22.409 16.783,23.062 17.084,17.269 17.616,17.5 				"/>
			</g>
			<g>
				<polygon fill="#FBD118" points="21.87,21.643 22.482,22.302 22.199,17.568 21.645,17.5 				"/>
				<polygon fill="#FBD118" points="25.197,24.876 25.807,25.534 25.408,15.991 24.8,15.752 				"/>
				<polygon fill="#FBD118" points="24.285,24.045 24.896,24.702 24.501,15.905 23.891,16.507 				"/>
				<polygon fill="#FBD118" points="23.375,23.205 23.986,23.862 23.66,16.668 23.119,17.107 				"/>
				<polygon fill="#FBD118" points="22.605,22.409 23.219,23.062 22.912,17.269 22.384,17.5 				"/>
			</g>
			<g>
				<polygon fill="#FBD118" points="20.129,21.682 20.348,25.166 20.001,25.612 19.652,25.176 19.872,21.682 				"/>
				<polygon fill="#FBD118" points="20.248,21.682 21.279,24.982 21.051,25.52 20.609,25.197 19.998,21.758 				"/>
				<polygon fill="#FBD118" points="19.75,21.682 18.718,24.982 18.953,25.52 19.386,25.197 20.001,21.758 				"/>
			</g>
			<g>
				<g>
					<polygon fill="#FFFFFF" points="18.368,26.072 16.206,25.324 18.037,20.178 19.861,21.341 					"/>
					<path fill="#FBD118" d="M16.183,25.314l1.838-5.179l1.866,1.214l-1.495,4.729l-0.024-0.007l-0.009,0.023L16.183,25.314
						L16.183,25.314z M16.216,25.3l2.132,0.737l1.497-4.675l-1.795-1.146L16.216,25.3L16.216,25.3z"/>
				</g>
				<g>
					<polygon fill="#FBD118" points="17.692,22.209 17.494,21.643 17.546,21.626 17.729,22.148 18.273,21.618 18.311,21.657 
						17.708,22.251 					"/>
				</g>
				<g>
					<polygon fill="#FBD118" points="18.177,20.72 18.23,20.711 18.477,22.591 19.053,21.824 19.097,21.857 18.438,22.734 					"/>
				</g>
				<g>
					<polygon fill="#FBD118" points="18.916,22.105 18.962,22.08 19.37,22.834 19.324,22.859 					"/>
				</g>
				<g>
					<polygon fill="#FBD118" points="18.231,22.902 17.806,23.514 17.792,23.457 17.643,22.72 17.053,23.049 17.053,23.049 
						17.025,23.001 17.655,22.688 17.83,23.386 18.256,22.771 18.521,23.932 19.129,23.482 19.162,23.523 18.485,24.021 					"/>
				</g>
				<g>
					<polygon fill="#FBD118" points="18.528,24.253 17.894,24.919 17.699,24.046 17.096,24.605 16.774,23.771 16.825,23.752 
						17.117,24.512 17.733,23.939 17.926,24.805 18.559,24.141 18.734,24.954 18.682,24.966 					"/>
				</g>
				<g>
					<polygon fill="#FBD118" points="17.894,25.843 17.785,25.161 17.191,25.605 17.021,24.831 16.352,25.381 16.316,25.339 
						17.052,24.732 17.224,25.511 17.825,25.062 17.831,25.107 17.94,25.784 18.64,25.143 18.678,25.182 17.902,25.895 					"/>
				</g>
			</g>
			<g>
				<g>
					<polygon fill="#FFFFFF" points="21.637,26.086 23.793,25.339 21.965,20.19 20.143,21.355 					"/>
					<path fill="#FBD118" d="M21.637,26.087l-0.025,0.007l-1.484-4.761l1.854-1.184l1.822,5.215l-2.156,0.745L21.637,26.087
						L21.637,26.087z M20.165,21.348l1.489,4.702l2.109-0.702l-1.816-5.116L20.165,21.348L20.165,21.348z"/>
				</g>
				<g>
					<polygon fill="#FBD118" points="21.695,21.67 21.732,21.631 22.273,22.161 22.456,21.636 22.506,21.652 22.299,22.263 					"/>
				</g>
				<g>
					<polygon fill="#FBD118" points="20.906,21.87 20.947,21.838 21.525,22.604 21.77,20.729 21.824,20.734 21.564,22.744 					"/>
				</g>
				<g>
					<polygon fill="#FBD118" points="20.628,22.85 21.041,22.09 21.088,22.114 20.676,22.874 					"/>
				</g>
				<g>
					<polygon fill="#FBD118" points="20.842,23.538 20.875,23.494 21.479,23.939 21.742,22.785 22.173,23.396 22.354,22.671 
						22.975,23.02 22.949,23.066 22.391,22.754 22.199,23.527 21.77,22.917 21.514,24.035 					"/>
				</g>
				<g>
					<polygon fill="#FBD118" points="21.27,24.968 21.445,24.152 22.078,24.818 22.273,23.96 22.885,24.523 23.178,23.768 
						23.229,23.784 22.906,24.617 22.307,24.062 22.107,24.93 21.477,24.266 21.322,24.979 					"/>
				</g>
				<g>
					<polygon fill="#FBD118" points="21.326,25.195 21.361,25.156 22.062,25.796 22.18,25.076 22.775,25.523 22.951,24.746 
						23.688,25.352 23.688,25.352 23.65,25.396 22.984,24.844 22.809,25.618 22.219,25.173 22.1,25.902 					"/>
				</g>
			</g>
			<g>
				<g>
					<g id="_x3C_Path_x3E__163_" transform="matrix(1.000151,0,0,1,2.1783e-2,6.394885e-14)">
						<g id="_x32_1315904_2_">
							<path fill="#FFFFFF" d="M22.233,25.607c-0.539,0.07-1.139,0.132-1.594,0.07c-0.278,0-0.473,0.457,0.056,0.525
								c0.472,0.062,1.206,0,1.599-0.068c0.337-0.062,1.069-0.195,1.541-0.324c0.468-0.203,0.131-0.602-0.136-0.541
								C23.291,25.402,22.762,25.532,22.233,25.607z"/>
							<path fill="#FBD118" d="M20.689,26.232c-0.247-0.031-0.356-0.156-0.356-0.285l0,0c0.002-0.151,0.138-0.293,0.309-0.297l0,0
								c0.128,0.017,0.27,0.025,0.417,0.025l0,0c0.369,0,0.786-0.045,1.17-0.098l0,0c0.527-0.073,1.056-0.201,1.463-0.335l0,0
								c0.021-0.005,0.043-0.009,0.064-0.009l0,0c0.168,0,0.334,0.141,0.336,0.309l0,0c0,0.107-0.072,0.216-0.251,0.293l0,0
								c-0.474,0.132-1.206,0.264-1.544,0.325l0,0c-0.281,0.049-0.734,0.096-1.142,0.096l0,0
								C20.989,26.258,20.831,26.25,20.689,26.232L20.689,26.232z M20.389,25.947c0,0.096,0.071,0.197,0.31,0.23l0,0
								c0.133,0.021,0.291,0.024,0.455,0.024l0,0c0.403,0,0.855-0.044,1.133-0.093l0,0c0.337-0.062,1.072-0.195,1.537-0.326l0,0
								c0.16-0.071,0.216-0.161,0.216-0.24l0,0c0-0.131-0.144-0.256-0.283-0.256l0,0c-0.019,0-0.032,0.003-0.049,0.008l0,0
								c-0.41,0.137-0.94,0.264-1.471,0.339l0,0c-0.386,0.052-0.802,0.095-1.177,0.095l0,0c-0.151,0-0.293-0.006-0.421-0.023l0,0
								C20.502,25.705,20.389,25.828,20.389,25.947L20.389,25.947z"/>
						</g>
						<g id="path2035_2_">
							<path fill="#FBD118" d="M20.689,26.232c-0.249-0.031-0.357-0.16-0.356-0.293l0,0c0.002-0.146,0.127-0.289,0.289-0.289l0,0
								c0.008,0,0.014,0,0.02,0.004l0,0c0.057,0.002,0.127,0.003,0.205,0.003l0,0c0.501,0,1.318-0.071,1.381-0.076l0,0l0,0
								c0.002,0,1.055-0.224,1.465-0.337l0,0c0.021-0.008,0.045-0.01,0.068-0.01l0,0c0.168,0.002,0.338,0.15,0.338,0.322l0,0
								c0,0.106-0.076,0.215-0.257,0.279l0,0c-0.466,0.166-1.544,0.325-1.546,0.327l0,0c0,0-0.739,0.083-1.271,0.083l0,0
								C20.897,26.247,20.784,26.243,20.689,26.232L20.689,26.232z M20.387,25.939c0.002,0.101,0.073,0.205,0.313,0.238l0,0
								c0.088,0.014,0.197,0.019,0.324,0.019l0,0c0.527,0,1.267-0.087,1.267-0.087l0,0c0,0,1.076-0.162,1.533-0.325l0,0
								c0.166-0.06,0.219-0.147,0.221-0.228l0,0c0-0.131-0.148-0.27-0.285-0.27l0,0c-0.018,0-0.035,0.003-0.053,0.007l0,0
								c-0.416,0.115-1.469,0.338-1.469,0.338l0,0l-0.006-0.024l0.002,0.024c0,0-0.863,0.078-1.389,0.078l0,0
								c-0.079,0-0.15-0.001-0.212-0.006l0,0h-0.012C20.495,25.705,20.389,25.823,20.387,25.939L20.387,25.939z"/>
						</g>
					</g>
					<g>
						<path fill="#FFFFFF" d="M22.582,26.061c0.018,0.183-0.165,0.562-0.165,0.562s-0.312-0.329-0.333-0.513
							c-0.018-0.178,0.082-0.334,0.216-0.348C22.436,25.745,22.562,25.884,22.582,26.061z"/>
						<path fill="#FBD118" d="M22.395,26.639c0-0.003-0.312-0.322-0.338-0.527l0,0c0-0.014-0.002-0.026-0.002-0.041l0,0
							c0-0.172,0.098-0.322,0.239-0.336l0,0c0.007-0.002,0.017-0.002,0.024-0.002l0,0c0.147,0,0.269,0.146,0.289,0.324l0,0
							l-0.027,0.004l0.027-0.002c0,0.01,0,0.02,0,0.028l0,0c0,0.204-0.168,0.544-0.168,0.544l0,0l-0.019,0.036L22.395,26.639
							L22.395,26.639z M22.318,25.786c-0.002,0-0.01,0.002-0.02,0.002l0,0c-0.104,0.01-0.191,0.128-0.191,0.28l0,0
							c0,0.011,0,0.024,0.002,0.037l0,0c0.015,0.135,0.224,0.382,0.299,0.467l0,0c0.042-0.094,0.148-0.344,0.146-0.485l0,0
							c0-0.01,0-0.016-0.002-0.024l0,0l0,0c-0.019-0.158-0.123-0.275-0.232-0.275l0,0L22.318,25.786L22.318,25.786z"/>
					</g>
					<g>
						<path fill="#FFFFFF" d="M20.673,26.208c-0.022,0.183-0.182,0.084-0.316,0.467c-0.171-0.212-0.2-0.356-0.171-0.534
							c0.021-0.184,0.152-0.309,0.287-0.291C20.609,25.866,20.699,26.03,20.673,26.208z"/>
						<path fill="#FBD118" d="M20.335,26.691c-0.138-0.168-0.189-0.303-0.189-0.441l0,0c0-0.039,0.003-0.075,0.01-0.114l0,0
							c0.024-0.179,0.146-0.314,0.292-0.314l0,0c0.006,0,0.017,0,0.028,0l0,0c0.143,0.021,0.229,0.163,0.229,0.329l0,0
							c0,0.02-0.001,0.039-0.003,0.062l0,0l-0.029-0.003l0.029,0.003c-0.041,0.212-0.193,0.101-0.319,0.472l0,0l-0.017,0.047
							L20.335,26.691L20.335,26.691z M20.21,26.145c-0.007,0.035-0.009,0.069-0.009,0.105l0,0c0,0.115,0.037,0.225,0.146,0.369l0,0
							c0.137-0.338,0.292-0.27,0.299-0.416l0,0v0.001c0-0.021,0.002-0.037,0.002-0.056l0,0c0-0.146-0.078-0.263-0.183-0.274l0,0
							c-0.007,0-0.011-0.002-0.02-0.002l0,0C20.338,25.872,20.231,25.98,20.21,26.145L20.21,26.145z"/>
					</g>
					<g>
						<path fill="#FFFFFF" d="M23.904,25.816c0.092,0.154,0.201,0.009,0.469,0.31c0.084-0.262,0.049-0.406-0.041-0.56
							c-0.094-0.156-0.262-0.229-0.382-0.161C23.834,25.477,23.816,25.661,23.904,25.816z"/>
						<path fill="#FBD118" d="M24.354,26.143c-0.26-0.293-0.356-0.135-0.472-0.311l0,0l0.022-0.016l0.023-0.014
							c0.061,0.127,0.178,0.01,0.432,0.271l0,0c0.023-0.081,0.033-0.151,0.033-0.212l0,0c0-0.11-0.033-0.193-0.086-0.283l0,0
							c-0.063-0.108-0.168-0.174-0.257-0.174l0,0c-0.032,0-0.062,0.008-0.087,0.023l0,0c-0.059,0.034-0.089,0.104-0.089,0.187l0,0
							c0,0.059,0.017,0.125,0.054,0.188l0,0l-0.023,0.014l-0.022,0.016c-0.042-0.072-0.06-0.146-0.06-0.217l0,0
							c-0.004-0.096,0.037-0.187,0.111-0.232l0,0c0.035-0.021,0.075-0.029,0.116-0.029l0,0c0.114,0,0.229,0.076,0.304,0.198l0,0
							c0.056,0.097,0.094,0.19,0.094,0.312l0,0c0,0.08-0.016,0.168-0.047,0.271l0,0l-0.018,0.045L24.354,26.143L24.354,26.143z"/>
					</g>
					<g>
						<polygon fill="#FBD118" points="20.969,25.991 20.969,25.934 21.326,25.934 21.326,25.991 						"/>
					</g>
					<g>
						<polygon fill="#FBD118" points="21.531,25.916 21.87,25.902 21.871,25.96 21.534,25.975 						"/>
					</g>
					<g>
						<polygon fill="#FBD118" points="22.711,25.781 23.039,25.71 23.053,25.766 22.725,25.838 						"/>
					</g>
					<g>
						<polygon fill="#FBD118" points="23.229,25.662 23.557,25.593 23.568,25.648 23.242,25.72 						"/>
					</g>
				</g>
				<g>
					<g id="_x3C_Path_x3E__139_" transform="matrix(1.000151,0,0,1,2.1783e-2,6.394885e-14)">
						<g id="_x32_1315904_1_">
							<path fill="#FFFFFF" d="M17.746,25.607c0.539,0.07,1.141,0.132,1.598,0.07c0.275,0,0.468,0.457-0.061,0.525
								c-0.469,0.062-1.204,0-1.597-0.068c-0.339-0.062-1.068-0.195-1.54-0.324c-0.466-0.203-0.132-0.602,0.133-0.541
								C16.688,25.402,17.218,25.532,17.746,25.607z"/>
							<path fill="#FBD118" d="M17.681,26.162c-0.34-0.062-1.069-0.193-1.546-0.327l0,0c-0.174-0.075-0.249-0.185-0.249-0.291l0,0
								c0.001-0.168,0.167-0.308,0.336-0.308l0,0c0.021,0,0.041,0.003,0.066,0.008l0,0c0.408,0.134,0.936,0.262,1.463,0.335l0,0l0,0
								c0.384,0.053,0.799,0.098,1.169,0.098l0,0c0.149,0,0.289-0.01,0.424-0.024l0,0c0.165,0.003,0.299,0.145,0.3,0.296l0,0
								c0.002,0.129-0.109,0.254-0.356,0.284l0,0c-0.14,0.019-0.296,0.025-0.464,0.025l0,0
								C18.413,26.258,17.961,26.211,17.681,26.162L17.681,26.162z M15.939,25.544c0,0.079,0.054,0.169,0.214,0.24l0,0
								c0.47,0.131,1.198,0.264,1.537,0.325l0,0c0.279,0.05,0.728,0.094,1.134,0.094l0,0c0.166,0,0.321-0.005,0.456-0.024l0,0
								c0.236-0.032,0.309-0.136,0.309-0.23l0,0c0-0.119-0.114-0.242-0.243-0.242l0,0c-0.136,0.019-0.275,0.024-0.426,0.024l0,0
								c-0.376,0-0.794-0.045-1.179-0.096l0,0l0.005-0.025l-0.005,0.025c-0.53-0.074-1.06-0.203-1.47-0.339l0,0
								c-0.016-0.005-0.032-0.008-0.05-0.008l0,0C16.083,25.291,15.939,25.417,15.939,25.544L15.939,25.544z"/>
						</g>
						<g id="path2035_1_">
							<path fill="#FBD118" d="M17.681,26.162c0,0-1.077-0.159-1.544-0.325l0,0c-0.18-0.065-0.259-0.171-0.256-0.28l0,0
								c0-0.169,0.169-0.319,0.337-0.322l0,0c0.022,0,0.044,0.003,0.067,0.011l0,0c0.414,0.114,1.466,0.337,1.467,0.337l0,0l0,0
								c0.052,0.005,0.874,0.076,1.383,0.076l0,0c0.077,0,0.147-0.001,0.206-0.003l0,0c0.004-0.003,0.012-0.003,0.017-0.003l0,0
								c0.159,0,0.286,0.142,0.286,0.287l0,0c0.001,0.133-0.105,0.263-0.355,0.293l0,0c-0.093,0.012-0.205,0.016-0.331,0.016l0,0
								C18.422,26.247,17.683,26.164,17.681,26.162L17.681,26.162z M15.933,25.557c0.001,0.08,0.054,0.168,0.221,0.229l0,0
								c0.456,0.163,1.534,0.326,1.534,0.326l0,0c0,0,0.737,0.086,1.268,0.086l0,0c0.124,0,0.237-0.006,0.324-0.019l0,0
								c0.236-0.032,0.307-0.139,0.309-0.239l0,0c-0.002-0.115-0.107-0.233-0.232-0.233l0,0c0,0-0.011,0-0.012,0l0,0
								c-0.061,0.005-0.133,0.006-0.21,0.006l0,0c-0.528,0-1.391-0.078-1.391-0.078l0,0l0.003-0.024l-0.005,0.024
								c0,0-1.053-0.223-1.471-0.338l0,0c-0.017-0.004-0.035-0.007-0.052-0.007l0,0C16.083,25.288,15.933,25.427,15.933,25.557
								L15.933,25.557z"/>
						</g>
					</g>
					<g>
						<path fill="#FFFFFF" d="M17.447,26.061c-0.021,0.183,0.167,0.562,0.167,0.562s0.313-0.329,0.329-0.513
							c0.02-0.178-0.079-0.334-0.213-0.348C17.592,25.745,17.467,25.884,17.447,26.061z"/>
						<path fill="#FBD118" d="M17.589,26.631c0,0-0.17-0.34-0.172-0.544l0,0c0-0.011,0.001-0.021,0.003-0.03l0,0
							c0.02-0.18,0.138-0.324,0.287-0.324l0,0c0.01,0,0.017,0,0.025,0.002l0,0c0.141,0.014,0.239,0.162,0.239,0.328l0,0
							c0,0.018-0.002,0.031-0.002,0.049l0,0c-0.022,0.205-0.335,0.524-0.338,0.527l0,0l-0.026,0.028L17.589,26.631L17.589,26.631z
							 M17.472,26.087c0,0.142,0.106,0.394,0.148,0.485l0,0c0.076-0.085,0.286-0.332,0.294-0.467l0,0
							c0.001-0.016,0.001-0.028,0.001-0.043l0,0c0-0.147-0.087-0.268-0.192-0.274l0,0c-0.006,0-0.013-0.002-0.017-0.002l0,0
							c-0.109-0.002-0.217,0.114-0.234,0.276l0,0C17.472,26.071,17.472,26.079,17.472,26.087L17.472,26.087z"/>
					</g>
					<g>
						<path fill="#FFFFFF" d="M19.354,26.208c0.023,0.183,0.184,0.084,0.32,0.467c0.175-0.212,0.201-0.356,0.175-0.534
							c-0.03-0.184-0.16-0.309-0.294-0.291C19.417,25.866,19.326,26.03,19.354,26.208z"/>
						<path fill="#FBD118" d="M19.647,26.684c-0.128-0.371-0.279-0.26-0.32-0.473l0,0l0,0c-0.004-0.023-0.006-0.047-0.006-0.068l0,0
							c0-0.16,0.089-0.301,0.226-0.318l0,0c0.012-0.006,0.022-0.003,0.032-0.003l0,0c0.144,0,0.268,0.134,0.297,0.314l0,0
							c0.004,0.036,0.008,0.073,0.008,0.111l0,0c0,0.14-0.048,0.272-0.189,0.444l0,0l-0.032,0.037L19.647,26.684L19.647,26.684z
							 M19.683,26.621c0.112-0.148,0.146-0.257,0.146-0.374l0,0c0-0.034-0.003-0.068-0.006-0.104l0,0
							c-0.026-0.16-0.136-0.271-0.244-0.271l0,0c-0.01,0-0.016,0-0.022,0.002l0,0c-0.103,0.013-0.181,0.125-0.181,0.269l0,0
							c0,0.021,0.001,0.039,0.005,0.062l0,0l-0.027,0.005l0.027-0.004C19.389,26.352,19.543,26.279,19.683,26.621L19.683,26.621z"/>
					</g>
					<g>
						<path fill="#FFFFFF" d="M16.124,25.816c-0.092,0.154-0.198,0.009-0.467,0.31c-0.084-0.262-0.051-0.406,0.041-0.56
							c0.09-0.156,0.266-0.229,0.381-0.161C16.193,25.477,16.216,25.661,16.124,25.816z"/>
						<path fill="#FBD118" d="M15.631,26.135c-0.034-0.105-0.051-0.195-0.051-0.275l0,0c0-0.118,0.036-0.213,0.093-0.308l0,0
							c0.072-0.124,0.192-0.198,0.308-0.198l0,0c0.036,0,0.076,0.009,0.111,0.029l0,0c0.078,0.047,0.116,0.139,0.116,0.232l0,0
							c0,0.07-0.02,0.145-0.059,0.217l0,0c-0.118,0.174-0.212,0.018-0.472,0.311l0,0l-0.032,0.034L15.631,26.135L15.631,26.135z
							 M15.719,25.579c-0.054,0.09-0.085,0.173-0.085,0.28l0,0c0,0.062,0.012,0.132,0.036,0.215l0,0
							c0.252-0.262,0.368-0.145,0.432-0.271l0,0c0.037-0.062,0.052-0.127,0.052-0.188l0,0c0-0.083-0.033-0.151-0.088-0.187l0,0
							c-0.028-0.017-0.056-0.023-0.085-0.023l0,0C15.89,25.405,15.784,25.471,15.719,25.579L15.719,25.579z"/>
					</g>
					<g>
						<polygon fill="#FBD118" points="18.701,25.991 18.701,25.934 19.059,25.934 19.059,25.991 						"/>
					</g>
					<g>
						<polygon fill="#FBD118" points="18.158,25.96 18.163,25.902 18.496,25.916 18.493,25.975 						"/>
					</g>
					<g>
						<polygon fill="#FBD118" points="16.976,25.766 16.989,25.71 17.315,25.781 17.301,25.838 						"/>
					</g>
					<g>
						<polygon fill="#FBD118" points="16.461,25.648 16.474,25.593 16.798,25.662 16.786,25.72 						"/>
					</g>
				</g>
			</g>
			<g>
				<g id="_x3C_Path_x3E__137_" transform="matrix(1.000151,0,0,1,2.1783e-2,6.394885e-14)">
					<g id="_x3C_Path_x3E__138_">
						<path fill="#FFFFFF" d="M19.991,16.805c0.674,0.526,1.537,0.79,2.535,0.731c-0.068,2.332-0.732,3.931-2.535,5.13
							c-1.803-1.199-2.467-2.798-2.537-5.13C18.451,17.595,19.329,17.331,19.991,16.805z"/>
						<path fill="#FBD118" d="M17.454,17.51c0.089,0.005,0.177,0.007,0.264,0.007l0,0c0.883,0,1.658-0.259,2.254-0.731l0,0
							l0.017,0.02l0.017-0.02c0.61,0.473,1.373,0.731,2.256,0.731l0,0c0.085,0,0.174-0.004,0.291,0.02l0,0
							c-0.068,2.337-0.732,3.947-2.578,5.152l0,0C18.165,21.484,17.494,19.873,17.454,17.51L17.454,17.51z M19.974,22.645
							c1.797-1.195,2.454-2.78,2.554-5.081l0,0c-0.092,0.005-0.181,0.008-0.268,0.008l0,0c-0.885,0-1.655-0.257-2.273-0.732l0,0
							c-0.604,0.474-1.384,0.732-2.271,0.732l0,0c-0.087,0-0.177-0.003-0.239-0.035l0,0C17.551,19.863,18.211,21.448,19.974,22.645
							L19.974,22.645z"/>
					</g>
				</g>
				<g>
					<path fill="#FBD118" d="M20.779,17.485c-0.28-0.103-0.534-0.239-0.734-0.418c-0.238,0.186-0.503,0.323-0.796,0.428
						c-0.454,0.163-0.969,0.236-1.535,0.236c0.106,1.685,0.631,3.028,1.535,3.982c0.237,0.26,0.5,0.49,0.796,0.689
						c0.271-0.18,0.514-0.396,0.734-0.625c0.943-0.959,1.479-2.322,1.537-4.047C21.781,17.731,21.242,17.656,20.779,17.485z"/>
					<path fill="#FBD118" d="M19.223,21.736c-0.91-0.963-1.436-2.312-1.509-4.039l0,0c0.564,0,1.074-0.073,1.524-0.234l0,0
						c0.291-0.103,0.549-0.239,0.786-0.422l0,0l0.021-0.018l0.02,0.018c0.199,0.178,0.449,0.311,0.726,0.412l0,0l-0.012,0.032
						l-0.012,0.031c-0.274-0.1-0.521-0.231-0.725-0.407l0,0c-0.236,0.181-0.496,0.314-0.784,0.417l0,0
						c-0.457,0.164-0.976,0.237-1.513,0.201l0,0c0.105,1.679,0.628,3.015,1.525,3.964l0,0c0.238,0.257,0.499,0.485,0.754,0.684l0,0
						c0.27-0.178,0.51-0.393,0.729-0.62l0,0c0.936-0.952,1.469-2.305,1.561-3.991l0,0c-0.539,0-1.08-0.075-1.549-0.247l0,0
						l0.012-0.031l0.012-0.032c0.459,0.169,0.992,0.244,1.559,0.278l0,0c-0.059,1.731-0.597,3.105-1.545,4.07l0,0
						c-0.226,0.231-0.467,0.449-0.78,0.63l0,0C19.728,22.229,19.463,21.997,19.223,21.736L19.223,21.736z"/>
				</g>
				<g>
					<path fill="#FFFFFF" d="M20.045,17.067c-0.238,0.186-0.503,0.323-0.796,0.428v4.219c0.237,0.259,0.5,0.49,0.796,0.69
						c0.271-0.18,0.514-0.396,0.734-0.625v-4.294C20.499,17.383,20.245,17.246,20.045,17.067z"/>
					<path fill="#FBD118" d="M17.714,17.731c0.106,1.685,0.631,3.028,1.535,3.982v-4.219C18.795,17.658,18.28,17.731,17.714,17.731z
						"/>
					<path fill="#FBD118" d="M20.779,17.485v4.294c0.943-0.959,1.479-2.323,1.537-4.048C21.781,17.731,21.242,17.656,20.779,17.485z
						"/>
				</g>
			</g>
		</g>
	</g>
</g>
<g>
	<path fill="#D0D0D5" d="M39,20c0,2.991-0.714,5.812-1.951,8.333h1.115C39.331,25.794,40,22.978,40,20
		c0-2.978-0.669-5.794-1.836-8.333h-1.115C38.286,14.187,39,17.008,39,20z"/>
	<path fill="#D0D0D5" d="M1,20c0-2.992,0.714-5.813,1.951-8.333H1.836C0.668,14.206,0,17.022,0,20c0,2.978,0.668,5.794,1.836,8.333
		h1.115C1.714,25.812,1,22.991,1,20z"/>
</g>
</svg>
