<?xml version="1.0" encoding="utf-8"?>
<!-- Generator: Adobe Illustrator 16.0.0, SVG Export Plug-In . SVG Version: 6.00 Build 0)  -->
<!DOCTYPE svg PUBLIC "-//W3C//DTD SVG 1.1//EN" "http://www.w3.org/Graphics/SVG/1.1/DTD/svg11.dtd">
<svg version="1.1" id="Layer_1" xmlns="http://www.w3.org/2000/svg" xmlns:xlink="http://www.w3.org/1999/xlink" x="0px" y="0px"
	 width="40px" height="40px" viewBox="0 0 40 40" enable-background="new 0 0 40 40" xml:space="preserve">
<g>
	<path fill="#FFFFFF" d="M20,0c-2.846,0-5.549,0.604-8,1.675v36.649C14.451,39.396,17.154,40,20,40c2.846,0,5.549-0.604,8-1.676
		V1.675C25.549,0.604,22.846,0,20,0z"/>
	<path fill="#002F66" d="M0,20c0,8.199,4.939,15.237,12,18.324V1.675C4.939,4.763,0,11.8,0,20z"/>
	<path fill="#EF4135" d="M40,20c0-8.2-4.939-15.237-12-18.325v36.649C35.061,35.237,40,28.199,40,20z"/>
</g>
<g>
	<path fill="#D0D0D5" d="M12,1.675v1.115C14.436,1.653,17.14,1,20,1s5.564,0.653,8,1.791V1.675C25.549,0.604,22.847,0,20,0
		C17.154,0,14.451,0.604,12,1.675z"/>
	<path fill="#D0D0D5" d="M28,38.324v-1.115C25.564,38.347,22.86,39,20,39s-5.564-0.653-8-1.791v1.115C14.451,39.396,17.154,40,20,40
		C22.847,40,25.549,39.396,28,38.324z"/>
</g>
</svg>
