<svg xmlns="http://www.w3.org/2000/svg" xmlns:xlink="http://www.w3.org/1999/xlink" width="40" height="40" viewBox="0 0 40 40">
    <defs>
        <path id="prefix__a" d="M0 0L40 0 40 39.999 0 39.999z"/>
    </defs>
    <g fill="none" fill-rule="evenodd">
        <circle cx="20" cy="20" r="20" fill="#FFF"/>
        <path fill="#D0D0D5" fill-rule="nonzero" d="M20 0c11.046 0 20 8.954 20 20s-8.954 20-20 20S0 31.046 0 20 8.954 0 20 0zm0 1C9.507 1 1 9.507 1 20s8.507 19 19 19 19-8.507 19-19S30.493 1 20 1z"/>
        <mask id="prefix__b" fill="#fff">
            <use xlink:href="#prefix__a"/>
        </mask>
        <path fill="#ED1C24" d="M23.499 23.5h16.188c.202-1.139.313-2.306.313-3.5s-.111-2.364-.313-3.5H23.499V.312c-1.137-.2-2.305-.314-3.5-.314-1.195 0-2.364.114-3.5.314v16.186H.31C.11 17.636 0 18.806 0 20c0 1.195.109 2.362.31 3.5H16.5v16.189c1.136.201 2.305.311 3.5.311 1.195 0 2.363-.11 3.5-.311V23.499z" mask="url(#prefix__b)"/>
        <path fill="#E8112D" d="M8.013 25.994c.868.107 1.743.107 2.601 0-.171.904-.273 1.822-.32 2.732.914-.047 1.83-.152 2.737-.323-.11.866-.11 1.74 0 2.606-.907-.171-1.823-.278-2.737-.323.047.918.159 1.827.32 2.73-.858-.107-1.741-.107-2.601 0 .175-.903.278-1.82.323-2.735-.915.05-1.835.157-2.738.328.11-.866.11-1.74 0-2.606.903.171 1.823.276 2.738.328-.045-.915-.148-1.833-.323-2.737M29.384 25.994c.867.107 1.742.107 2.6 0-.173.904-.273 1.822-.322 2.732.917-.047 1.837-.152 2.737-.323-.11.866-.11 1.74 0 2.606-.9-.171-1.82-.278-2.737-.323.049.918.159 1.827.322 2.73-.858-.107-1.742-.107-2.6 0 .173-.903.277-1.82.32-2.735-.913.05-1.832.157-2.735.328.108-.866.108-1.74 0-2.606.903.171 1.822.276 2.735.328-.043-.915-.147-1.833-.32-2.737M8.013 6.582c.868.107 1.743.107 2.601 0-.171.902-.273 1.822-.32 2.732.914-.045 1.83-.154 2.737-.324-.11.867-.11 1.74 0 2.607-.907-.172-1.823-.278-2.737-.322.047.917.159 1.827.32 2.73-.858-.108-1.741-.108-2.601 0 .175-.903.278-1.821.323-2.736-.915.05-1.835.156-2.738.328.11-.867.11-1.74 0-2.607.903.17 1.823.279 2.738.33-.045-.916-.148-1.836-.323-2.738M29.384 6.582c.867.107 1.742.107 2.6 0-.173.902-.273 1.822-.322 2.732.917-.045 1.837-.154 2.737-.324-.11.867-.11 1.74 0 2.607-.9-.172-1.82-.278-2.737-.322.049.917.159 1.827.322 2.73-.858-.108-1.742-.108-2.6 0 .173-.903.277-1.821.32-2.736-.913.05-1.832.156-2.735.328.108-.867.108-1.74 0-2.607.903.17 1.822.279 2.735.33-.043-.916-.147-1.836-.32-2.738"/>
    </g>
</svg>
