<?xml version="1.0" encoding="utf-8"?>
<!-- Generator: Adobe Illustrator 16.0.0, SVG Export Plug-In . SVG Version: 6.00 Build 0)  -->
<!DOCTYPE svg PUBLIC "-//W3C//DTD SVG 1.0//EN" "http://www.w3.org/TR/2001/REC-SVG-20010904/DTD/svg10.dtd">
<svg version="1.0" id="Layer_1" xmlns="http://www.w3.org/2000/svg" xmlns:xlink="http://www.w3.org/1999/xlink" x="0px" y="0px"
	 width="40px" height="40px" viewBox="0 0 40 40" enable-background="new 0 0 40 40" xml:space="preserve">
<g>
	<g>
		<g>
			<path fill="#006B3F" d="M20,40c8.068,0,15.02-4.785,18.179-11.667H1.818C4.979,35.215,11.93,40,20,40z"/>
			<path fill="#CE1126" d="M20,0C11.93,0,4.979,4.784,1.818,11.667h36.361C35.02,4.784,28.068,0,20,0z"/>
			<path fill="#FCD116" d="M0,20c0,2.976,0.654,5.796,1.818,8.333h36.361C39.343,25.796,40,22.976,40,20s-0.657-5.797-1.821-8.333
				H1.818C0.654,14.203,0,17.024,0,20z"/>
		</g>
		<polygon points="20.001,12.391 21.888,18.203 28,18.203 23.055,21.797 24.941,27.609 20.001,24.017 15.057,27.609 16.944,21.797 
			12,18.203 18.111,18.203 		"/>
	</g>
</g>
</svg>
