<?xml version="1.0" encoding="utf-8"?>
<!-- Generator: Adobe Illustrator 20.1.0, SVG Export Plug-In . SVG Version: 6.00 Build 0)  -->
<svg version="1.1" id="Layer_1" xmlns="http://www.w3.org/2000/svg" xmlns:xlink="http://www.w3.org/1999/xlink" x="0px" y="0px"
	 viewBox="0 0 40 40" style="enable-background:new 0 0 40 40;" xml:space="preserve">
<g>
	<g>
		<g>
			<path style="fill:#0047BA;" d="M20,40c8.1,0,15-4.8,18.2-11.7H1.8C5,35.2,11.9,40,20,40z"/>
			<path style="fill:#0047BA;" d="M20,0C11.9,0,5,4.8,1.8,11.7h36.4C35,4.8,28.1,0,20,0z"/>
			<path style="fill:#FFFFFF;" d="M0,20c0,3,0.7,5.8,1.8,8.3h36.4C39.3,25.8,40,23,40,20s-0.7-5.8-1.8-8.3H1.8C0.7,14.2,0,17,0,20z"
				/>
		</g>
		<g>
			<polygon style="fill:#0047BA;" points="20,18.4 20.4,19.6 21.7,19.6 20.7,20.4 21.1,21.6 20,20.9 18.9,21.6 19.3,20.4 18.3,19.6 
				19.6,19.6 			"/>
			<polygon style="fill:#0047BA;" points="28.9,15 29.3,16.2 30.7,16.2 29.6,17 30,18.3 28.9,17.5 27.9,18.3 28.3,17 27.2,16.2 
				28.5,16.2 			"/>
			<polygon style="fill:#0047BA;" points="28.9,21.7 29.3,23 30.7,23 29.6,23.8 30,25 28.9,24.3 27.9,25 28.3,23.8 27.2,23 28.5,23 
							"/>
			<polygon style="fill:#0047BA;" points="11.1,15 11.5,16.2 12.8,16.2 11.7,17 12.1,18.3 11.1,17.5 10,18.3 10.4,17 9.3,16.2 
				10.7,16.2 			"/>
			<polygon style="fill:#0047BA;" points="11.1,21.7 11.5,23 12.8,23 11.7,23.8 12.1,25 11.1,24.3 10,25 10.4,23.8 9.3,23 10.7,23 
							"/>
		</g>
	</g>
</g>
<g>
	<path style="fill:#D0D0D5;" d="M39,20c0,3-0.7,5.8-1.9,8.3h1.1C39.3,25.8,40,23,40,20s-0.7-5.8-1.8-8.3h-1.1C38.3,14.2,39,17,39,20
		z"/>
	<path style="fill:#D0D0D5;" d="M1,20c0-3,0.7-5.8,1.9-8.3H1.8C0.7,14.2,0,17,0,20s0.7,5.8,1.8,8.3h1.1C1.7,25.8,1,23,1,20z"/>
</g>
</svg>
