<?xml version="1.0" encoding="utf-8"?>
<!-- Generator: Adobe Illustrator 16.0.0, SVG Export Plug-In . SVG Version: 6.00 Build 0)  -->
<!DOCTYPE svg PUBLIC "-//W3C//DTD SVG 1.1//EN" "http://www.w3.org/Graphics/SVG/1.1/DTD/svg11.dtd">
<svg version="1.1" id="Layer_1" xmlns="http://www.w3.org/2000/svg" xmlns:xlink="http://www.w3.org/1999/xlink" x="0px" y="0px"
	 width="40px" height="40px" viewBox="0 0 40 40" enable-background="new 0 0 40 40" xml:space="preserve">
<g>
	<g>
		<path fill="#00209F" d="M20,40c8.07,0,15.02-4.782,18.182-11.667H1.818C4.978,35.218,11.93,40,20,40z"/>
		<path fill="#D61517" d="M20,0C11.93,0,4.978,4.784,1.818,11.667h36.364C35.02,4.784,28.07,0,20,0z"/>
		<path fill="#FFFFFF" d="M0,20c0,2.977,0.653,5.794,1.818,8.333h36.364C39.344,25.794,40,22.977,40,20
			c0-2.975-0.656-5.795-1.818-8.333H1.818C0.653,14.205,0,17.025,0,20z"/>
		<g>
			<g>
				<path fill="#D61516" d="M19.994,30.759h-0.021c-1.282-0.062-2.575-0.349-3.558-0.791l0,0c-1.242-0.554-2.363-1.364-3.253-2.348
					l0,0c-0.54-0.603-0.99-1.256-1.33-1.946l0,0c-0.383-0.781-0.63-1.624-0.735-2.503l0,0c-0.021-0.175-0.025-0.414-0.025-0.596l0,0
					c0-0.117,0.001-0.212,0.003-0.234l0,0V12.167v-0.505h0.508H20h8.416h0.38v0.127h-0.129h0.125v-0.127h0.127v0.506v10.169
					c0.004,0.028,0.007,0.121,0.004,0.239l0,0c0,0.181-0.004,0.424-0.022,0.595l0,0c-0.104,0.882-0.353,1.722-0.734,2.503l0,0
					c-0.339,0.69-0.789,1.346-1.328,1.948l0,0c-0.889,0.983-2.012,1.792-3.252,2.349l0,0c-0.984,0.441-2.275,0.729-3.561,0.789l0,0
					H20L19.994,30.759L19.994,30.759z M11.33,12.168v10.173c0,0.027-0.001,0.117-0.001,0.234l0,0c0,0.176,0.001,0.413,0.022,0.565
					l0,0c0.104,0.854,0.34,1.666,0.711,2.418l0,0c0.33,0.668,0.763,1.309,1.292,1.893l0,0c0.861,0.954,1.957,1.748,3.168,2.288l0,0
					c0.943,0.424,2.215,0.706,3.465,0.769l0,0H20h0.011c1.254-0.062,2.525-0.345,3.467-0.769l0,0c1.211-0.54,2.31-1.334,3.17-2.288
					l0,0c0.521-0.584,0.959-1.221,1.291-1.893l0,0c0.367-0.752,0.604-1.564,0.709-2.418l0,0c0.019-0.152,0.023-0.392,0.023-0.565
					l0,0c0-0.114-0.004-0.207-0.004-0.234l0,0V12.168l-0.003-0.255h-0.251H20h-8.417H11.33V12.168L11.33,12.168z"/>
				<path fill="#D61516" d="M20,30.445h-0.01c-1.245-0.062-2.501-0.342-3.446-0.762c-1.201-0.537-2.289-1.324-3.147-2.271
					c-0.52-0.583-0.954-1.214-1.28-1.878c-0.369-0.747-0.606-1.554-0.705-2.397c-0.034-0.266-0.022-0.774-0.022-0.796l0.003-10.173
					v-0.189h0.19H20h8.416h0.189v0.189l0.002,10.176c0,0.019,0.011,0.524-0.021,0.791c-0.102,0.848-0.337,1.65-0.706,2.399
					c-0.323,0.661-0.759,1.295-1.28,1.875c-0.856,0.95-1.943,1.733-3.146,2.274c-0.944,0.42-2.201,0.695-3.446,0.758H20V30.445z"/>
				<g>
					<rect x="21.663" y="12.31" fill="#FFFFFF" width="3.329" height="3.556"/>
					<rect x="18.336" y="15.865" fill="#FFFFFF" width="3.327" height="3.567"/>
					<rect x="24.99" y="15.865" fill="#FFFFFF" width="3.285" height="3.567"/>
					<rect x="11.724" y="15.865" fill="#FFFFFF" width="3.286" height="3.567"/>
					<rect x="18.336" y="22.991" fill="#FFFFFF" width="3.327" height="3.562"/>
					<path fill="#FFFFFF" d="M24.99,26.557h1.88c0.276-0.371,0.521-0.766,0.716-1.168c0.354-0.714,0.578-1.483,0.674-2.293
						c0.004-0.029,0.008-0.063,0.008-0.103H24.99V26.557z"/>
					<path fill="#FFFFFF" d="M15.01,22.991h-3.278c0.001,0.036,0.003,0.075,0.008,0.104c0.094,0.806,0.322,1.579,0.671,2.288
						c0.202,0.407,0.442,0.801,0.719,1.172h1.88V22.991z"/>
					<rect x="15.01" y="12.31" fill="#FFFFFF" width="3.327" height="3.556"/>
					<rect x="21.663" y="19.43" fill="#FFFFFF" width="3.329" height="3.561"/>
					<rect x="15.01" y="19.43" fill="#FFFFFF" width="3.327" height="3.561"/>
					<path fill="#FFFFFF" d="M21.663,26.557V29.9c0.608-0.127,1.176-0.303,1.659-0.52c0.591-0.268,1.15-0.59,1.67-0.967v-1.857
						H21.663L21.663,26.557z"/>
					<path fill="#FFFFFF" d="M15.01,26.557v1.858c0.519,0.377,1.078,0.699,1.667,0.967c0.483,0.216,1.052,0.392,1.659,0.519v-3.344
						H15.01z"/>
				</g>
				<path fill="#FFFFFF" d="M28.416,12.168l0.002,10.176c0,0,0.014,0.516-0.018,0.771c-0.102,0.811-0.324,1.604-0.688,2.337
					c-0.327,0.664-0.755,1.281-1.251,1.831c-0.859,0.948-1.918,1.707-3.086,2.229c-1.008,0.452-2.27,0.689-3.376,0.745
					c-1.11-0.056-2.368-0.293-3.378-0.745c-1.167-0.521-2.229-1.278-3.082-2.229c-0.497-0.55-0.925-1.165-1.251-1.831
					c-0.36-0.732-0.592-1.526-0.687-2.337c-0.032-0.255-0.016-0.771-0.016-0.771V12.168H20H28.416z M28.792,11.789h-0.376H20h-8.417
					h-0.38v0.379v10.173c0,0.073-0.012,0.55,0.021,0.816c0.104,0.868,0.345,1.696,0.724,2.463c0.335,0.676,0.775,1.325,1.31,1.916
					c0.874,0.967,1.982,1.771,3.211,2.319c0.963,0.435,2.245,0.715,3.512,0.779H20h0.021c1.269-0.064,2.545-0.347,3.51-0.779
					c1.226-0.547,2.336-1.354,3.21-2.319c0.536-0.591,0.978-1.24,1.312-1.916c0.379-0.767,0.622-1.595,0.725-2.463
					c0.033-0.267,0.022-0.743,0.022-0.816l-0.004-10.173v-0.379H28.792z"/>
			</g>
			<g>
				<g>
					<path fill="#D61517" d="M29.488,3.998l-0.057,0.025c-0.002,0-0.176,0.07-0.437,0.177c-0.39,0.162-0.978,0.401-1.47,0.6
						c-0.24,0.102-0.469,0.192-0.627,0.255c-0.082,0.034-0.146,0.058-0.191,0.077c-0.014,0.005-0.021,0.006-0.027,0.011
						l-0.004-0.001c-0.133-0.138-0.611-0.66-1.06-1.148c-0.226-0.243-0.437-0.479-0.597-0.653c-0.078-0.084-0.144-0.156-0.188-0.207
						c-0.021-0.026-0.041-0.045-0.055-0.056c-0.004-0.009-0.012-0.014-0.016-0.016c0-0.003,0-0.005-0.002-0.005l0,0l0,0l0,0
						L24.725,3.01l-2.49,1.505l-2.336-1.789L17.7,4.488l-2.57-1.485l-1.87,2.223l-2.808-1.203L8.903,6.798l2.253,4.53l0.064-0.023
						c2.712-0.963,5.722-1.485,8.66-1.493c0.023,0,0.045,0,0.07,0c2.918,0,5.892,0.46,8.829,1.515l0.062,0.023l2.257-4.555
						L29.488,3.998z"/>
					<path id="_x3C_Path_x3E__541_" fill="#FFFFFF" d="M11.193,11.237c2.722-0.968,5.739-1.49,8.685-1.497
						c2.947-0.007,5.954,0.456,8.925,1.52l2.211-4.461l-1.556-2.707c0,0-2.772,1.139-2.796,1.139s-1.955-2.126-1.955-2.126
						l-2.479,1.499l-2.333-1.782l-2.19,1.757l-2.559-1.482L13.28,5.315l-2.795-1.196L8.987,6.8L11.193,11.237z"/>
					<g>
						<g>
							<path fill="#393E90" d="M24.66,3.486L24.66,3.486c0.631,0.688,1.265,1.375,1.893,2.062v0.01L26.55,5.56
								c-0.028,0.078-0.046,0.16-0.067,0.24c-0.403,1.4-0.809,2.8-1.207,4.2c-0.422-0.086-0.844-0.172-1.269-0.24
								c-0.733-0.12-1.478-0.188-2.217-0.247V9.505c0.142-1.539,0.276-3.079,0.414-4.617C23.023,4.421,23.846,3.952,24.66,3.486
								L24.66,3.486z"/>
							<path fill="#D61516" d="M23.581,5.675c0.086-0.012,0.172-0.012,0.257-0.008c0.032,0,0.062,0.003,0.096,0.011
								c0.039,0.01,0.073,0.042,0.119,0.049c0.032,0.002,0.062,0.002,0.096,0.01c0.076,0.014,0.146,0.049,0.221,0.072
								c0.061,0.023,0.122,0.035,0.188,0.035c0.082,0.008,0.166,0.006,0.238-0.032c0.027-0.012,0.055-0.03,0.083-0.042
								c0.033-0.005,0.062,0.001,0.099,0.001c0,0.023,0,0.044,0,0.063c-0.067,0.05-0.125,0.115-0.207,0.142
								C24.712,5.995,24.658,6.02,24.6,6.03c-0.07,0.015-0.146,0.013-0.22,0.013c-0.044,0-0.086-0.005-0.132-0.008
								c0.007,0.013,0.01,0.024,0.018,0.035c0.063,0.02,0.127,0.04,0.187,0.07c0.062,0.028,0.123,0.06,0.188,0.08
								c0.065,0.022,0.139,0.024,0.209,0.029c0.109,0.003,0.223-0.003,0.332-0.029c0.024-0.006,0.053-0.02,0.082-0.02
								c0.023,0,0.055,0,0.084,0.003c-0.004,0.016-0.004,0.035-0.004,0.053c-0.117,0.062-0.234,0.13-0.361,0.168
								c-0.119,0.035-0.244,0.035-0.363,0.03c-0.158-0.011-0.314-0.042-0.469-0.082c-0.062-0.019-0.119-0.052-0.176-0.079
								c-0.086-0.043-0.182-0.07-0.275-0.08c-0.07-0.006-0.145-0.005-0.203,0.04c-0.163-0.108-0.326-0.218-0.484-0.326
								c0.055-0.056,0.108-0.117,0.182-0.156C23.309,5.711,23.447,5.692,23.581,5.675L23.581,5.675z"/>
							<path fill="#8E3836" d="M23.587,5.692c0.022,0,0.039-0.005,0.06-0.005c0.006,0.049,0.035,0.098,0.035,0.149
								c0,0.039,0,0.075-0.002,0.112c-0.008-0.005-0.013-0.013-0.013-0.023c-0.008-0.044-0.015-0.089-0.026-0.125
								C23.633,5.762,23.605,5.73,23.587,5.692L23.587,5.692z"/>
							<path fill="#8E3836" d="M24.004,5.963c-0.01-0.083-0.018-0.168-0.02-0.252c0.02,0.007,0.035,0.015,0.056,0.019
								c-0.007,0.06-0.015,0.118-0.019,0.175C24.021,5.927,24.021,5.948,24.004,5.963L24.004,5.963z"/>
							<path fill="#8E3836" d="M23.094,5.86c0.026-0.02,0.053-0.038,0.08-0.06c0.042,0.03,0.092,0.059,0.124,0.102
								c0.017,0.02,0.021,0.044,0.022,0.07c-0.032-0.022-0.062-0.048-0.096-0.065C23.184,5.883,23.137,5.875,23.094,5.86
								L23.094,5.86z"/>
							<path fill="#8E3836" d="M24.314,5.851c0.022-0.003,0.045,0.009,0.051,0.034c0.015,0.05,0.005,0.104,0.015,0.156
								c-0.007-0.003-0.021-0.003-0.024-0.005C24.333,5.978,24.326,5.912,24.314,5.851L24.314,5.851z"/>
							<path fill="#8E3836" d="M24.65,5.88c0.016,0,0.033,0,0.043-0.002c0,0.032,0,0.065,0,0.099
								c-0.021,0.003-0.035,0.01-0.055,0.013C24.643,5.953,24.646,5.917,24.65,5.88L24.65,5.88z"/>
							<path fill="#544B20" d="M22.42,6.01c0.008-0.033,0.031-0.057,0.055-0.08c0.104,0.051,0.201,0.105,0.309,0.156
								c0.023-0.018,0.041-0.045,0.064-0.065c0.036-0.035,0.088-0.063,0.137-0.077c0.168,0.106,0.326,0.215,0.49,0.326
								c0.01,0.01,0.024,0.01,0.039,0.01c0.109-0.003,0.225-0.01,0.338-0.012c-0.029,0.066-0.063,0.127-0.117,0.176
								c-0.088,0.083-0.207,0.12-0.316,0.154c0.061,0.105,0.131,0.213,0.229,0.297c0.024,0.021,0.049,0.043,0.08,0.054
								c0.032,0.005,0.062,0.019,0.099,0.021c0.059,0.003,0.12,0.003,0.18,0.018c0.024,0.006,0.052,0.022,0.081,0.027
								c0.025-0.003,0.049-0.024,0.076-0.029c0.051-0.011,0.104-0.018,0.158-0.022c0.021-0.002,0.047,0,0.074,0.003
								c0.045,0.008,0.094,0.002,0.137-0.02c0.025-0.013,0.055-0.037,0.089-0.035c0.034,0,0.073-0.008,0.108,0.006
								c0.029,0.016,0.062,0.024,0.1,0.021c0.046,0,0.09-0.023,0.137-0.023c0.047,0.003,0.1-0.002,0.148,0.003
								c0.05,0.011,0.096,0.021,0.142,0.019c0.039-0.005,0.081-0.008,0.11-0.035c0.041-0.032,0.08-0.057,0.119-0.092
								c0.021-0.021,0.043-0.043,0.078-0.046c0.025,0,0.039,0.027,0.053,0.046c0.021,0.035,0.021,0.076,0.021,0.115
								c0,0.054,0,0.109,0,0.167c0.008,0.067-0.064,0.105-0.074,0.167c0.006,0.023,0.024,0.04,0.035,0.062
								c0.002,0.033-0.004,0.065-0.008,0.1c0,0.022-0.013,0.038-0.025,0.056c-0.035,0.049-0.073,0.093-0.104,0.146
								c-0.018,0.026-0.027,0.053-0.033,0.084c-0.006,0.068-0.021,0.139-0.01,0.21c0.004,0.024,0.016,0.045,0.025,0.063
								c-0.01,0.023-0.028,0.042-0.047,0.056c-0.006,0.059-0.013,0.116,0,0.172c0,0.025,0.035,0.025,0.047,0.041
								c0.007,0.056,0,0.117-0.004,0.175c0,0.016-0.017,0.027-0.027,0.035c-0.085,0.067-0.171,0.131-0.23,0.22
								c-0.02,0.02-0.035,0.042-0.035,0.07c-0.004,0.046-0.008,0.099-0.008,0.146c-0.053,0.042-0.105,0.082-0.156,0.122
								c-0.086-0.033-0.166-0.06-0.254-0.095c0.014-0.022,0.023-0.042,0.033-0.063c0.045-0.067,0.092-0.135,0.133-0.2
								c0.02-0.029,0.023-0.062,0.028-0.096c0.015-0.076,0.015-0.152,0.009-0.225c0-0.015-0.007-0.032-0.015-0.042
								c-0.036-0.054-0.099-0.092-0.155-0.104c-0.072,0.084-0.148,0.167-0.236,0.24c-0.019,0.018-0.039,0.03-0.057,0.048
								c-0.021,0.038-0.015,0.089-0.045,0.125c-0.027,0.035-0.07,0.046-0.109,0.06c-0.017,0.035-0.029,0.068-0.039,0.104
								c-0.082-0.022-0.168-0.039-0.25-0.062c0.016-0.028,0.039-0.05,0.059-0.077C24.1,8.606,24.1,8.577,24.1,8.548
								c0.004-0.024,0.021-0.043,0.033-0.063c0.055-0.093,0.113-0.187,0.172-0.28c-0.054,0.007-0.109,0.021-0.172,0.012
								c-0.033-0.005-0.048-0.032-0.064-0.054c-0.043,0.03-0.088,0.067-0.145,0.054c-0.025-0.001-0.04-0.023-0.055-0.038
								c-0.028,0.028-0.059,0.051-0.098,0.059c-0.031,0.007-0.065,0-0.1,0.003c-0.016,0.085-0.064,0.155-0.115,0.219
								c-0.039,0.045-0.078,0.09-0.104,0.144c-0.022,0.043-0.017,0.093-0.021,0.14c-0.011,0.068-0.011,0.14-0.018,0.207
								c-0.02,0.026-0.053,0.035-0.078,0.056c-0.021,0.014-0.035,0.035-0.057,0.057c0,0-0.008-0.001-0.01-0.001
								c-0.02-0.005-0.039-0.008-0.059-0.011C23.148,9.03,23.08,9.014,23.02,8.995c0.01-0.075,0.033-0.155,0.08-0.215
								c0.023-0.029,0.053-0.056,0.049-0.095c0.004-0.094,0-0.185,0.004-0.28c0.002-0.089,0.055-0.17,0.084-0.251
								c-0.029-0.018-0.062-0.038-0.094-0.044c-0.047-0.011-0.094,0.01-0.135,0.029c-0.017,0.009-0.031,0.015-0.039,0.03
								c-0.051,0.108-0.121,0.208-0.189,0.31c-0.01,0.016-0.006,0.032-0.006,0.049c0.002,0.043,0,0.095-0.027,0.133
								c-0.018,0.023-0.031,0.044-0.042,0.067c-0.099-0.023-0.194-0.046-0.287-0.072c0.005-0.051,0.022-0.1,0.046-0.146
								c0.025-0.055,0.075-0.095,0.105-0.146c0.039-0.068,0.062-0.154,0.137-0.194c0.005-0.051,0.002-0.103,0.01-0.156
								c0.002-0.032,0.023-0.057,0.02-0.09c-0.018-0.076-0.03-0.158-0.004-0.233c-0.021,0-0.049,0.007-0.067-0.01
								c-0.022-0.018-0.032-0.056-0.019-0.084c0.01-0.027,0.03-0.047,0.047-0.07c-0.021-0.001-0.055-0.01-0.062-0.038
								c-0.01-0.044,0.018-0.09,0.042-0.121c0.075-0.08,0.156-0.151,0.229-0.229c-0.037,0-0.076-0.002-0.105-0.027
								C22.786,7.104,22.788,7.09,22.79,7.08c0.005-0.021,0.017-0.035,0.028-0.055c-0.025-0.007-0.062-0.008-0.067-0.04
								c-0.01-0.037,0.013-0.075,0.022-0.111c-0.092,0.005-0.18,0.025-0.271,0.018c-0.031,0-0.062-0.026-0.068-0.059
								c-0.01-0.049-0.006-0.102,0.021-0.144c0.027-0.057,0.062-0.11,0.088-0.17c0.027-0.07,0.057-0.142,0.07-0.216
								c-0.061-0.046-0.115-0.1-0.161-0.164C22.42,6.105,22.404,6.053,22.42,6.01L22.42,6.01z"/>
							<path fill="#F9F704" d="M22.43,6.029c0.004-0.034,0.024-0.06,0.045-0.081C22.578,6,22.68,6.051,22.785,6.105
								c0.049-0.049,0.093-0.103,0.156-0.127c0.018-0.008,0.035-0.021,0.052-0.01c0.163,0.107,0.327,0.217,0.491,0.328
								c0.113-0.006,0.229-0.01,0.346-0.013c-0.031,0.062-0.068,0.123-0.126,0.168c-0.089,0.073-0.198,0.105-0.308,0.139
								c0.07,0.133,0.16,0.267,0.287,0.358c0.037,0.017,0.072,0.028,0.11,0.035c0.067,0.005,0.146,0.001,0.211,0.025
								c0.031,0.01,0.063,0.034,0.099,0.017C24.171,6.99,24.25,6.99,24.32,6.982c0.039-0.003,0.08,0.01,0.121,0.005
								c0.033-0.001,0.066-0.008,0.1-0.028c0.021-0.01,0.044-0.031,0.075-0.031c0.034,0,0.067-0.006,0.103,0.01
								c0.037,0.016,0.081,0.021,0.122,0.016c0.037,0,0.076-0.021,0.113-0.018c0.049,0,0.099-0.003,0.146,0
								c0.055,0.01,0.111,0.023,0.166,0.018c0.033-0.008,0.072-0.011,0.104-0.035c0.045-0.037,0.098-0.066,0.141-0.108
								c0.014-0.012,0.033-0.029,0.055-0.029c0.025,0.014,0.041,0.042,0.049,0.07c0.01,0.052,0.002,0.103,0.008,0.152
								c-0.003,0.039,0.002,0.08-0.001,0.12c-0.021,0.043-0.056,0.077-0.072,0.122c-0.015,0.032,0.017,0.058,0.034,0.085
								c-0.006,0.04,0,0.08-0.016,0.116c-0.049,0.084-0.129,0.154-0.151,0.249c-0.011,0.072-0.021,0.147-0.015,0.221
								c0.004,0.027,0.015,0.048,0.022,0.072c-0.014,0.015-0.03,0.03-0.041,0.045c-0.01,0.045-0.01,0.092-0.01,0.138
								c0,0.022,0,0.044,0.019,0.062c0.01,0.011,0.025,0.017,0.039,0.025c0,0.059-0.007,0.117-0.009,0.177
								c-0.09,0.07-0.185,0.138-0.251,0.23c-0.018,0.022-0.033,0.044-0.039,0.068c-0.003,0.051-0.005,0.105-0.006,0.159
								c-0.049,0.035-0.1,0.075-0.146,0.113C24.9,8.978,24.825,8.95,24.747,8.923c0.01-0.019,0.021-0.035,0.028-0.054
								c0.043-0.066,0.086-0.131,0.127-0.198c0.021-0.028,0.027-0.06,0.033-0.094c0.012-0.078,0.012-0.162,0.008-0.243
								c0-0.02-0.012-0.035-0.023-0.051c-0.036-0.054-0.102-0.092-0.163-0.104c-0.071,0.085-0.153,0.168-0.239,0.244
								c-0.02,0.016-0.041,0.032-0.062,0.051c-0.019,0.04-0.015,0.092-0.044,0.128C24.381,8.632,24.34,8.64,24.3,8.658
								c-0.012,0.033-0.024,0.065-0.038,0.095c-0.07-0.018-0.146-0.035-0.221-0.053c0.025-0.03,0.059-0.057,0.064-0.097
								c0.006-0.027,0-0.059,0.017-0.083c0.067-0.11,0.137-0.223,0.208-0.336c-0.053,0.012-0.107,0.023-0.166,0.023
								c-0.021,0-0.045,0-0.062-0.013c-0.016-0.016-0.021-0.033-0.035-0.046c-0.047,0.026-0.096,0.075-0.15,0.056
								C23.887,8.2,23.877,8.173,23.87,8.155c-0.029,0.03-0.06,0.062-0.104,0.07c-0.033,0.006-0.072,0.003-0.111,0.003
								c-0.002,0.093-0.066,0.165-0.12,0.233c-0.05,0.055-0.101,0.115-0.117,0.187c-0.006,0.098-0.015,0.198-0.019,0.3
								c-0.028,0.021-0.064,0.038-0.092,0.062c-0.014,0.012-0.025,0.026-0.037,0.042c-0.078-0.024-0.16-0.042-0.24-0.064
								c0.014-0.061,0.029-0.124,0.062-0.177c0.021-0.027,0.042-0.049,0.059-0.078c0.012-0.022,0.012-0.044,0.012-0.068
								c0-0.083,0-0.17,0-0.252c0.003-0.095,0.062-0.173,0.088-0.256c-0.041-0.024-0.082-0.057-0.129-0.057
								c-0.061-0.003-0.107,0.027-0.161,0.052c-0.056,0.118-0.134,0.226-0.208,0.337c0.006,0.047,0.012,0.094-0.007,0.137
								c-0.015,0.034-0.037,0.057-0.056,0.089c-0.09-0.023-0.176-0.042-0.267-0.067c0.013-0.053,0.034-0.105,0.063-0.153
								c0.027-0.044,0.068-0.082,0.096-0.13c0.027-0.042,0.042-0.093,0.07-0.13c0.02-0.024,0.039-0.035,0.06-0.051
								c0.011-0.059,0-0.119,0.019-0.179c0.004-0.023,0.021-0.043,0.015-0.068c-0.011-0.053-0.021-0.104-0.021-0.161
								c0-0.035,0.016-0.07,0.027-0.104c-0.023,0.008-0.053,0.018-0.078,0.008c-0.021-0.016-0.029-0.05-0.021-0.075
								c0.019-0.035,0.047-0.061,0.07-0.089c-0.021,0-0.043,0.001-0.062-0.005c-0.019-0.008-0.027-0.03-0.022-0.046
								c0.006-0.038,0.029-0.068,0.057-0.097c0.078-0.085,0.168-0.158,0.24-0.244c-0.041,0.005-0.095,0.012-0.129-0.018
								c-0.004-0.034,0.024-0.061,0.034-0.087c-0.028-0.005-0.073,0-0.082-0.038c0-0.038,0.021-0.077,0.031-0.111
								c-0.097-0.003-0.188,0.024-0.288,0.013c-0.027,0-0.049-0.018-0.057-0.044c-0.008-0.037-0.008-0.078,0.008-0.113
								c0.025-0.059,0.062-0.106,0.088-0.167c0.037-0.082,0.066-0.165,0.088-0.253c-0.061-0.044-0.113-0.097-0.163-0.155
								C22.439,6.113,22.42,6.07,22.43,6.029L22.43,6.029z"/>
							<path fill="#8E3836" d="M23.854,5.957c0.043,0.033,0.071,0.08,0.09,0.131c0.011,0.052-0.019,0.1-0.057,0.132
								c0.004-0.035,0.012-0.075,0.008-0.104C23.893,6.056,23.867,6.007,23.854,5.957L23.854,5.957z"/>
							<path fill="#8E3836" d="M23.396,5.978c0.054,0.008,0.103,0.047,0.127,0.095c0.017,0.039,0.017,0.077,0.021,0.112
								c-0.018,0.013-0.029,0.023-0.044,0.033c0-0.057-0.026-0.104-0.049-0.151C23.438,6.032,23.416,6.007,23.396,5.978
								L23.396,5.978z"/>
							<path fill="#8E3836" d="M24.292,6.088c0.007,0.003,0.017,0.007,0.021,0.017c0.019,0.04,0.031,0.083,0.026,0.13
								c0,0.023-0.021,0.038-0.034,0.051C24.279,6.302,24.258,6.32,24.23,6.33c-0.006-0.011,0.004-0.018,0.015-0.026
								C24.305,6.253,24.305,6.16,24.292,6.088L24.292,6.088z"/>
							<path fill="#8E3836" d="M24.609,6.227c0.021,0.005,0.051,0.005,0.066,0.02c0.032,0.032,0.053,0.073,0.049,0.113
								c-0.002,0.03-0.018,0.057-0.031,0.082c-0.021-0.001-0.039-0.001-0.062-0.007c0.02-0.033,0.047-0.07,0.034-0.111
								C24.652,6.288,24.626,6.26,24.609,6.227L24.609,6.227z"/>
							<path fill="#8E3836" d="M24.945,6.255c0.019-0.001,0.037-0.001,0.057-0.001c0.001,0.043,0.003,0.088,0.008,0.13
								c-0.015,0.01-0.035,0.021-0.049,0.027C24.958,6.356,24.954,6.305,24.945,6.255L24.945,6.255z"/>
							<path fill="#544B20" d="M23.413,6.372c0.101-0.021,0.198-0.032,0.301-0.032c-0.034,0.032-0.073,0.055-0.11,0.089
								c-0.024,0.02-0.056,0.027-0.08,0.046c-0.022,0.017-0.047,0.036-0.074,0.034c-0.055-0.005-0.104-0.034-0.145-0.062
								C23.314,6.4,23.369,6.385,23.413,6.372L23.413,6.372z"/>
							<path fill="#544B20" d="M22.846,6.418c0.061-0.008,0.116-0.045,0.18-0.045c0.053-0.004,0.097,0.042,0.152,0.045
								c-0.035,0.018-0.066,0.035-0.102,0.05C23.057,6.48,23.042,6.5,23.02,6.501c-0.027,0-0.047-0.023-0.069-0.037
								C22.918,6.447,22.881,6.432,22.846,6.418L22.846,6.418z"/>
							<path fill="#544B20" d="M25.555,6.833c0,0,0.039,0.172-0.033,0.22c-0.028,0.023-0.078,0.035-0.102,0.016
								c-0.02-0.012-0.036-0.035-0.029-0.061C25.412,6.902,25.555,6.833,25.555,6.833z"/>
							<path fill="#544B20" d="M24.686,7.217c0.021-0.016,0.039,0,0.062,0.01c0.014,0.092,0.021,0.189,0.041,0.278
								c0,0.022,0.006,0.037,0.006,0.057c-0.001,0.02-0.037,0.02-0.037-0.003c-0.01-0.065-0.01-0.132-0.033-0.195
								C24.709,7.317,24.686,7.268,24.686,7.217L24.686,7.217z"/>
							<path fill="#544B20" d="M22.977,7.227c0.021-0.015,0.041,0,0.06,0.011c0.015,0.094,0.026,0.184,0.042,0.277
								c0.007,0.021,0.01,0.038,0.01,0.057c-0.003,0.02-0.037,0.02-0.037-0.002c-0.01-0.066-0.015-0.133-0.033-0.197
								C23.003,7.327,22.975,7.279,22.977,7.227L22.977,7.227z"/>
							<path fill="#544B20" d="M23.25,7.843c0.018-0.015,0.041,0,0.059,0.012c0.017,0.09,0.026,0.184,0.039,0.276
								c0.006,0.019,0.012,0.035,0.012,0.054c-0.002,0.02-0.035,0.02-0.035,0c-0.014-0.066-0.016-0.133-0.034-0.197
								C23.275,7.942,23.249,7.895,23.25,7.843L23.25,7.843z"/>
							<path fill="#544B20" d="M24.87,7.792c0.021-0.015,0.039,0,0.058,0.01c0.014,0.093,0.026,0.188,0.041,0.282
								c0.006,0.016,0.01,0.033,0.01,0.051c0,0.022-0.037,0.022-0.037-0.001c-0.008-0.062-0.014-0.132-0.035-0.191
								C24.896,7.89,24.868,7.843,24.87,7.792L24.87,7.792z"/>
							<path fill="#544B20" d="M23.574,7.296c0.01-0.008,0.021-0.001,0.033,0c0.023,0.063,0.045,0.13,0.076,0.194
								c0.01,0.022,0.025,0.043,0.021,0.072c-0.017,0.021-0.045,0.01-0.067,0.01c-0.025-0.077-0.035-0.156-0.06-0.237
								C23.574,7.322,23.566,7.308,23.574,7.296L23.574,7.296z"/>
							<path fill="#544B20" d="M24.32,7.157c0.013-0.008,0.025-0.003,0.037,0c0.021,0.062,0.043,0.13,0.074,0.19
								c0.01,0.026,0.024,0.046,0.02,0.075c-0.016,0.02-0.045,0.01-0.066,0.01c-0.023-0.077-0.035-0.158-0.059-0.237
								C24.322,7.185,24.318,7.168,24.32,7.157L24.32,7.157z"/>
							<path fill="#544B20" d="M23.947,7.2c0.01-0.005,0.021,0,0.033,0c0.024,0.067,0.045,0.133,0.078,0.194
								c0.006,0.023,0.023,0.048,0.017,0.073c-0.017,0.022-0.044,0.011-0.068,0.011c-0.024-0.08-0.034-0.161-0.055-0.24
								C23.947,7.227,23.941,7.212,23.947,7.2L23.947,7.2z"/>
							<path fill="#544B20" d="M24.995,7.394c-0.005-0.016-0.011-0.03-0.003-0.045c0.02,0.033,0.029,0.068,0.039,0.102
								c0.025,0.055,0.05,0.108,0.086,0.155c0.046,0.067,0.107,0.118,0.171,0.17c0.012,0.01,0.015,0.02,0.024,0.03
								C25.256,7.814,25.205,7.8,25.15,7.811c-0.021,0.01-0.033,0.028-0.051,0.04c-0.016-0.067-0.021-0.139-0.033-0.205
								C25.053,7.555,25.025,7.472,24.995,7.394L24.995,7.394z"/>
							<path fill="#544B20" d="M24.314,7.478c0.004,0,0.008,0,0.012,0c0.018,0.104,0.01,0.208-0.023,0.313
								c-0.014,0.045-0.035,0.088-0.06,0.128c-0.011-0.013-0.013-0.023-0.011-0.035c0.011-0.053,0.026-0.104,0.037-0.164
								C24.289,7.643,24.295,7.559,24.314,7.478L24.314,7.478z"/>
							<path fill="#544B20" d="M23.9,7.582c0,0,0.009,0,0.013,0c0.017,0.103,0.006,0.213-0.024,0.313
								c-0.017,0.046-0.033,0.092-0.062,0.13C23.82,8.014,23.818,8.003,23.82,7.99c0.006-0.053,0.027-0.108,0.033-0.164
								C23.872,7.748,23.882,7.665,23.9,7.582L23.9,7.582z"/>
							<path fill="#D61516" d="M22.402,8.677c0.095,0.018,0.186,0.04,0.279,0.061c0,0.034,0.004,0.064,0,0.1
								c-0.015,0.036-0.033,0.07-0.064,0.088C22.588,8.94,22.557,8.95,22.525,8.95c-0.082,0-0.16,0.005-0.242,0.005
								c-0.004-0.043-0.004-0.09-0.01-0.13C22.32,8.775,22.359,8.725,22.402,8.677L22.402,8.677z"/>
							<path fill="#D61516" d="M23.891,8.854c0.039-0.04,0.08-0.083,0.121-0.122c0.082,0.023,0.17,0.039,0.254,0.061
								c-0.008,0.035-0.004,0.07-0.021,0.102c-0.013,0.017-0.019,0.038-0.036,0.054c-0.029,0.015-0.064,0.021-0.1,0.02
								c-0.073-0.005-0.146-0.007-0.219-0.01C23.893,8.923,23.887,8.89,23.891,8.854L23.891,8.854z"/>
							<path fill="#D61516" d="M24.568,9.071c0.051-0.038,0.095-0.083,0.146-0.12c0.083,0.03,0.169,0.059,0.25,0.085
								c-0.003,0.028-0.003,0.05-0.006,0.075c-0.017,0.067-0.078,0.112-0.146,0.107c-0.078-0.009-0.162-0.014-0.244-0.021
								C24.568,9.155,24.568,9.113,24.568,9.071L24.568,9.071z"/>
							<path fill="#D61516" d="M22.895,9.12c0.035-0.035,0.071-0.066,0.106-0.102c0.067,0.01,0.138,0.021,0.205,0.035
								c0.021,0.003,0.039,0.006,0.06,0.011c0,0.052-0.017,0.105-0.056,0.142c-0.024,0.017-0.06,0.023-0.09,0.03
								C23.045,9.24,22.969,9.24,22.895,9.24C22.895,9.2,22.895,9.157,22.895,9.12L22.895,9.12z"/>
						</g>
						<g>
							<path fill="#393E90" d="M15.218,3.458h0.003c0.112,0.067,0.226,0.126,0.337,0.193c0.707,0.404,1.417,0.808,2.124,1.212
								c0.01,0.008,0.023,0.011,0.033,0.022c-0.587,0-1.173,0.005-1.756,0.061c-0.292,0.03-0.58,0.07-0.865,0.128
								c-0.574,0.121-1.298,0.392-1.684,0.572C13.41,5.646,14.62,4.181,15.218,3.458L15.218,3.458z"/>
							<path fill="#D61516" d="M15.93,4.946c0.585-0.055,1.171-0.061,1.758-0.061c0.011,0,0.019,0,0.027,0
								c0.033,0.384,0.068,0.774,0.097,1.159c-0.075,0.005-0.148,0-0.223,0.001c-0.135,0.004-0.271,0.004-0.402,0.007
								c-0.297,0.009-0.594,0.029-0.891,0.06c-0.321,0.032-0.643,0.071-0.963,0.123c-0.339,0.055-0.681,0.121-1.015,0.222
								C14.105,6.52,13.892,6.6,13.683,6.676c-0.068-0.251-0.135-0.506-0.205-0.759c0-0.01-0.003-0.02-0.003-0.034
								c-0.022-0.078-0.041-0.156-0.065-0.237c0.525-0.254,1.082-0.45,1.657-0.571C15.35,5.016,15.64,4.977,15.93,4.946L15.93,4.946
								z"/>
							<path fill="#393E90" d="M17.187,6.053c0.131-0.003,0.267-0.003,0.402-0.007c0.073-0.001,0.148,0.004,0.223-0.001
								c0.003,0.06,0.01,0.121,0.015,0.182c0.032,0.305,0.057,0.615,0.085,0.922c-0.73-0.04-1.47-0.038-2.195,0.073
								c-0.597,0.09-1.183,0.24-1.757,0.433c-0.006,0.01,0,0.021,0,0.032c0.072,0.283,0.15,0.562,0.223,0.843v0.011
								C14.176,8.52,14.171,8.5,14.167,8.48c-0.162-0.6-0.323-1.201-0.483-1.804c0.208-0.076,0.421-0.156,0.634-0.219
								c0.334-0.1,0.676-0.167,1.016-0.221c0.32-0.052,0.642-0.092,0.963-0.124C16.593,6.08,16.89,6.062,17.187,6.053L17.187,6.053z
								"/>
							<path fill="#D61516" d="M15.717,7.222c0.727-0.112,1.465-0.114,2.195-0.074c0.003,0,0.005,0.003,0.008,0.003
								c0.035,0.395,0.072,0.79,0.105,1.18L18.02,8.336c-0.558,0.036-1.115,0.077-1.671,0.149c-0.696,0.088-1.387,0.213-2.069,0.383
								h-0.004c-0.028-0.107-0.058-0.212-0.084-0.32c-0.004-0.003-0.009-0.008-0.009-0.008l0,0V8.529
								c-0.073-0.282-0.151-0.561-0.225-0.844c0-0.01-0.007-0.021,0-0.032C14.534,7.462,15.12,7.312,15.717,7.222L15.717,7.222z"/>
							<path fill="#393E90" d="M16.35,8.485c0.557-0.072,1.113-0.113,1.671-0.148c0.035,0.39,0.072,0.781,0.108,1.172v0.018
								c-0.749,0.05-1.497,0.133-2.239,0.252C15.452,9.844,15.011,9.923,14.575,10c-0.132-0.487-0.262-0.975-0.392-1.46
								c0,0,0.005,0.005,0.009,0.008c0.028,0.108,0.056,0.213,0.084,0.32h0.005C14.963,8.698,15.655,8.573,16.35,8.485L16.35,8.485z
								"/>
						</g>
						<g>
							<path fill="#3B75D9" d="M10.585,4.442h0.005c0.922,0.402,1.843,0.805,2.767,1.204c0.39,1.452,0.778,2.902,1.169,4.354v0.01
								c-0.356,0.073-0.711,0.152-1.063,0.245c-0.353,0.092-0.698,0.197-1.041,0.316c-0.396,0.137-0.785,0.286-1.175,0.434
								c-0.668-1.409-1.33-2.818-1.999-4.227V6.775C9.693,5.999,10.14,5.218,10.585,4.442L10.585,4.442z"/>
							<path fill="#FFFFFF" d="M13.36,7.748c0.027-0.038,0.053-0.075,0.08-0.115c0.054,0.273,0.072,0.565-0.013,0.84
								c-0.063,0.208-0.192,0.395-0.35,0.542c-0.1,0.093-0.212,0.172-0.331,0.24c-0.06,0.035-0.12,0.058-0.183,0.084
								c-0.287,0.105-0.6,0.13-0.9,0.068c-0.231-0.045-0.456-0.148-0.638-0.302c-0.144-0.117-0.26-0.263-0.343-0.428
								c0.303,0.051,0.61,0.089,0.921,0.073c0.245-0.015,0.488-0.062,0.724-0.135c0.221-0.095,0.433-0.221,0.616-0.382
								C13.104,8.093,13.238,7.925,13.36,7.748L13.36,7.748z"/>
							<g>
								<polygon fill="#FEC502" points="11.947,5.762 11.87,6.271 12.327,6.633 11.812,6.842 11.695,7.347 11.298,7.052 
									10.797,7.28 10.858,6.733 10.365,6.383 10.922,6.145 10.986,5.607 11.455,5.945 								"/>
								<polygon fill="#FAFC12" points="11.935,5.776 11.853,6.266 11.354,6.492 								"/>
								<polygon fill="#FAFC12" points="11,5.641 11.395,5.943 11.354,6.492 								"/>
								<polygon fill="#FAFC12" points="10.833,7.257 11.285,7.037 11.354,6.492 								"/>
								<polygon fill="#FAFC12" points="10.435,6.405 10.843,6.693 11.354,6.492 								"/>
								<polygon fill="#FAFC12" points="12.287,6.63 11.797,6.829 11.68,7.312 11.354,6.492 								"/>
							</g>
						</g>
						<g>
							<path fill="#3B75D9" d="M19.9,3.192L19.9,3.192c0.749,0.566,1.495,1.135,2.243,1.702v0.028
								C22.01,6.45,21.88,7.98,21.75,9.512h-0.072c-0.453-0.024-0.902-0.038-1.355-0.043c-0.713-0.007-1.428,0.016-2.143,0.043
								c-0.142-1.533-0.281-3.068-0.425-4.604v-0.01C18.47,4.329,19.185,3.76,19.9,3.192L19.9,3.192z"/>
							<g>
								<g>
									<path fill="#544B20" d="M18.87,5.167C18.935,5.199,19,5.23,19.066,5.262c0,0.049,0,0.098,0.007,0.146
										c0.028,0,0.062,0,0.093,0c-0.01-0.037-0.027-0.075-0.025-0.114c0.001-0.011,0-0.022,0.005-0.029
										c0.044-0.023,0.102,0,0.138-0.037c0.019-0.019,0.038-0.032,0.06-0.049c0.043,0,0.085,0,0.129,0.003
										c0.005,0.027,0.01,0.057,0.016,0.084c-0.042,0.056-0.083,0.106-0.12,0.164c-0.005,0.044,0.003,0.089,0.001,0.132
										c0.035,0.019,0.072,0.034,0.105,0.047c0.012,0.073,0.027,0.143,0.037,0.218c0.059,0.054,0.11,0.108,0.168,0.164
										c0.005,0.04,0.005,0.081,0.015,0.123c0.012,0.032,0.043,0.049,0.056,0.085c0.013,0.035,0.02,0.073,0.03,0.108
										c-0.033,0-0.062-0.003-0.098-0.006c0.006,0.066,0.01,0.132,0.015,0.198c-0.039,0-0.077,0.001-0.115,0
										c-0.007,0.06-0.012,0.119-0.021,0.176c-0.07,0.002-0.14,0.002-0.21,0.007c-0.003,0.033-0.001,0.066-0.005,0.102
										c-0.015,0.032-0.038,0.06-0.058,0.092c-0.132,0.017-0.264,0.032-0.397,0.043c-0.049-0.002-0.095-0.034-0.145-0.035
										c-0.054,0-0.102,0-0.157-0.003c0-0.021,0-0.044-0.007-0.065c-0.028-0.024-0.058-0.042-0.088-0.065
										c-0.022-0.015-0.04-0.035-0.068-0.039c-0.05-0.008-0.1-0.013-0.147-0.021c-0.008-0.047-0.017-0.095-0.026-0.138
										c-0.033-0.007-0.066-0.011-0.1-0.016c-0.01-0.035-0.02-0.068-0.033-0.104c-0.008-0.03-0.028-0.053-0.049-0.078
										c0.016-0.043,0.033-0.092,0.049-0.138c-0.023-0.021-0.045-0.04-0.07-0.062c0.04-0.066,0.078-0.14,0.115-0.208
										c0.046-0.01,0.097-0.021,0.142-0.03c-0.002-0.073,0-0.145-0.002-0.22c0.039-0.01,0.078-0.021,0.121-0.03
										c0.003-0.035,0.01-0.063,0.011-0.1c-0.048-0.062-0.1-0.126-0.146-0.193c-0.005-0.037,0-0.078,0-0.117
										c0.039,0.004,0.083,0,0.12,0.014c0.039,0.015,0.077,0.03,0.113,0.042c0.016,0.005,0.022,0.02,0.03,0.032
										c0.022,0.032,0.042,0.063,0.063,0.093c0.022-0.007,0.042-0.014,0.062-0.019c0.003-0.043,0.005-0.086,0.012-0.13
										C18.75,5.247,18.809,5.207,18.87,5.167L18.87,5.167z"/>
									<path fill="#F8F604" d="M18.85,5.213c0.006-0.005,0.015-0.008,0.022-0.015c0.008,0.003,0.015,0.008,0.023,0.01
										c0.005,0.03,0.01,0.062,0.011,0.092c0.044,0,0.087-0.003,0.132-0.003c0,0.026,0.001,0.056,0.003,0.086
										c-0.037-0.008-0.072-0.016-0.11-0.021c-0.008-0.021-0.02-0.035-0.03-0.051c-0.018,0-0.04,0-0.056,0.002
										c-0.005,0.019-0.011,0.035-0.016,0.051c-0.04,0.005-0.078,0.007-0.115,0.01c0-0.017,0-0.037,0.002-0.054
										c0.04-0.008,0.083-0.013,0.125-0.021C18.844,5.27,18.847,5.242,18.85,5.213L18.85,5.213z"/>
									<path fill="#F8F604" d="M19.198,5.404c0.083-0.063,0.167-0.127,0.25-0.192c0.003,0.015,0.006,0.027,0.008,0.045
										c-0.035,0.045-0.068,0.094-0.104,0.143c-0.005,0.008-0.016,0.02-0.015,0.034c0,0.041,0.003,0.087,0.005,0.13
										c-0.01,0.01-0.018,0.021-0.028,0.032c-0.045,0.003-0.088,0.014-0.134,0.003c-0.188-0.035-0.385-0.02-0.563,0.047
										c-0.03,0.01-0.056,0.032-0.091,0.022c-0.023-0.003-0.045-0.003-0.071-0.006c0.005-0.035,0.01-0.068,0.013-0.104
										c-0.052-0.063-0.102-0.13-0.153-0.198c0-0.024,0.001-0.048,0.001-0.075c0.051,0.059,0.108,0.114,0.161,0.172
										c0.039,0,0.078,0,0.117,0c0.002,0.003,0.008,0.012,0.01,0.014c0.042-0.01,0.083-0.028,0.129-0.028
										c0.094-0.003,0.191-0.005,0.286-0.012c0.056,0.003,0.115,0.009,0.173,0.003C19.195,5.423,19.198,5.414,19.198,5.404
										L19.198,5.404z"/>
									<path fill="#F8F604" d="M18.613,5.677c0.146-0.057,0.309-0.081,0.469-0.064c0.042,0.005,0.083,0.012,0.123,0.017
										c0.03,0.042,0.059,0.087,0.087,0.125c0.026,0.035,0.011,0.08,0.015,0.118c-0.027,0.006-0.054,0.016-0.08,0.021
										c-0.035,0.003-0.067,0-0.1,0c-0.062-0.005-0.124,0-0.185-0.005c0-0.036,0-0.078,0-0.114
										c0.034-0.022,0.072-0.044,0.105-0.07c-0.071,0-0.141,0-0.208,0.003c-0.021,0-0.037,0.005-0.054,0.012
										c0.023,0.028,0.063,0.035,0.095,0.048c0,0.043,0.003,0.092,0,0.137C18.777,5.9,18.673,5.9,18.567,5.9
										c-0.019-0.025-0.04-0.044-0.047-0.075c-0.008-0.021-0.006-0.044-0.006-0.067C18.545,5.73,18.568,5.69,18.613,5.677
										L18.613,5.677z"/>
									<path fill="#F8F604" d="M19.225,5.983c0.032-0.032,0.072-0.056,0.107-0.086c0.008,0.008,0.016,0.013,0.027,0.015
										c-0.004,0.09-0.007,0.175-0.011,0.264c-0.04,0.005-0.082,0.005-0.116,0.021c-0.007,0.05-0.007,0.104-0.012,0.157
										c-0.027,0.032-0.059,0.055-0.082,0.088c-0.058-0.009-0.12-0.015-0.178-0.023c-0.003-0.025-0.005-0.049-0.005-0.073
										c0.03-0.022,0.075-0.022,0.092-0.06c0.008-0.019,0.013-0.035,0.021-0.051c-0.032,0.015-0.062,0.037-0.099,0.038
										c-0.04,0-0.077,0.008-0.113,0c-0.037-0.009-0.073-0.012-0.11-0.019c0.021,0.022,0.042,0.044,0.067,0.066
										c0.027,0.01,0.055,0.012,0.08,0.019c0,0.027,0,0.054,0,0.081c-0.03,0.017-0.062,0.034-0.089,0.055
										c-0.011-0.006-0.023-0.008-0.036-0.011c-0.012-0.037-0.013-0.08-0.029-0.117c-0.029-0.02-0.059-0.035-0.087-0.049
										c-0.003-0.026-0.003-0.049-0.008-0.075c-0.029-0.011-0.059-0.025-0.089-0.037c-0.003-0.021-0.005-0.042-0.011-0.065
										C18.53,6.11,18.513,6.1,18.497,6.09c0-0.051,0-0.104,0-0.155c0.015,0,0.032-0.006,0.046-0.006
										c0.015,0.03,0.027,0.059,0.048,0.083c0.042,0.044,0.087,0.092,0.128,0.135c0.022,0.003,0.045,0.012,0.068,0.008
										c0.008-0.01,0.012-0.019,0.016-0.032c0.018-0.05,0.042-0.098,0.06-0.146c0.038-0.003,0.077-0.003,0.113-0.006
										c0.041,0.051,0.079,0.104,0.116,0.154c0.02-0.001,0.038-0.006,0.057-0.01C19.171,6.073,19.195,6.025,19.225,5.983
										L19.225,5.983z"/>
									<path fill="#F8F604" d="M19.5,6.105c0.054-0.003,0.108-0.011,0.161-0.017C19.66,6.14,19.71,6.166,19.727,6.207
										c0.008,0.021,0.013,0.044,0.019,0.066c-0.022-0.003-0.045-0.003-0.068-0.005c-0.02-0.026-0.037-0.051-0.055-0.078
										c-0.008,0.006-0.016,0.012-0.025,0.017c0.017,0.032,0.041,0.054,0.056,0.083c0.008,0.062,0.008,0.119,0.015,0.176
										c-0.026,0-0.053,0-0.08,0c-0.011-0.037-0.02-0.075-0.033-0.115c-0.008,0.005-0.018,0.005-0.027,0.012
										c0.009,0.035,0.023,0.071,0.028,0.113c-0.005,0.054-0.011,0.112-0.02,0.173c-0.027,0-0.052,0-0.079,0
										c-0.02-0.044-0.05-0.087-0.073-0.13C19.38,6.505,19.38,6.493,19.38,6.482c0-0.067,0-0.135,0-0.202
										c0-0.01,0.003-0.021,0.011-0.027C19.427,6.204,19.465,6.153,19.5,6.105L19.5,6.105z"/>
									<path fill="#F8F604" d="M18.179,6.204c0.043-0.001,0.084-0.006,0.125-0.006c0.01,0.047,0.021,0.095,0.03,0.146
										c-0.048,0.05-0.099,0.104-0.151,0.156c0.006,0.005,0.013,0.009,0.018,0.014c-0.005,0-0.015-0.003-0.021-0.005
										c-0.004-0.019-0.011-0.036-0.017-0.052c0.022-0.054,0.043-0.107,0.063-0.164C18.211,6.263,18.195,6.235,18.179,6.204
										L18.179,6.204z"/>
									<path fill="#F8F604" d="M18.287,6.543c0.021-0.061,0.046-0.116,0.07-0.177c0.011,0.011,0.023,0.021,0.035,0.03
										c0.001,0.095,0.005,0.187,0.008,0.282c-0.033-0.005-0.065-0.012-0.095-0.013C18.298,6.625,18.287,6.582,18.287,6.543
										L18.287,6.543z"/>
									<path fill="#F8F604" d="M18.83,6.525c0.035-0.02,0.067-0.04,0.099-0.062c0.065,0.017,0.13,0.032,0.194,0.042
										c-0.011,0.03-0.014,0.06-0.035,0.085c-0.019,0.021-0.037,0.044-0.055,0.07c-0.04,0-0.08,0-0.122,0.003
										c-0.023-0.024-0.049-0.046-0.07-0.07C18.839,6.568,18.833,6.55,18.83,6.525L18.83,6.525z"/>
									<path fill="#F8F604" d="M19.167,6.63c0.048-0.027,0.097-0.052,0.145-0.076c0.019,0.035,0.038,0.066,0.057,0.103
										c-0.016,0-0.03,0-0.043,0c-0.004,0.038-0.002,0.08-0.009,0.12c-0.008,0.022-0.024,0.04-0.038,0.063
										C19.255,6.818,19.235,6.8,19.213,6.78c-0.005-0.01-0.018-0.021-0.02-0.032C19.185,6.708,19.176,6.667,19.167,6.63
										L19.167,6.63z"/>
									<path fill="#F8F604" d="M18.5,6.593c0.037-0.001,0.073-0.003,0.108-0.006c0.008,0.07,0.016,0.137,0.023,0.205
										c-0.005,0.008-0.012,0.013-0.02,0.021c-0.002-0.006-0.002-0.015-0.003-0.021c-0.042-0.028-0.082-0.059-0.125-0.089
										C18.49,6.67,18.495,6.633,18.5,6.593L18.5,6.593z"/>
									<path fill="#F8F604" d="M18.993,6.781c0.022-0.006,0.043-0.016,0.067-0.022c0.023,0.033,0.045,0.07,0.07,0.104
										c-0.055,0.007-0.11,0.015-0.165,0.02C18.973,6.848,18.985,6.818,18.993,6.781L18.993,6.781z"/>
									<path fill="#F8F604" d="M18.836,6.813c0.023-0.003,0.049-0.006,0.074-0.006c0.013,0.027,0.026,0.05,0.042,0.078
										c-0.022,0.001-0.043,0.006-0.066,0.005c-0.029-0.005-0.057-0.018-0.08-0.024C18.813,6.847,18.823,6.83,18.836,6.813
										L18.836,6.813z"/>
									<ellipse fill="#F8F604" cx="18.718" cy="6.007" rx="0.059" ry="0.043"/>
									<ellipse fill="#F8F604" cx="19.105" cy="6.007" rx="0.06" ry="0.043"/>
								</g>
								<g>
									<path fill="#544B20" d="M20.891,5.167c0.063,0.032,0.129,0.063,0.193,0.095c0.003,0.049,0.003,0.098,0.007,0.146
										c0.03,0,0.063,0,0.095,0c-0.008-0.037-0.024-0.075-0.021-0.114c0-0.011-0.002-0.022,0.005-0.029
										c0.042-0.023,0.102,0,0.139-0.037c0.02-0.019,0.039-0.032,0.062-0.049c0.042,0,0.083,0,0.127,0.003
										c0.003,0.027,0.01,0.057,0.013,0.084c-0.035,0.056-0.078,0.106-0.113,0.164c-0.006,0.044,0.002,0.089,0.002,0.132
										c0.033,0.019,0.07,0.034,0.105,0.047c0.014,0.073,0.025,0.143,0.037,0.218c0.057,0.054,0.111,0.108,0.168,0.164
										c0.006,0.04,0.006,0.081,0.014,0.123c0.012,0.032,0.045,0.049,0.059,0.085c0.011,0.035,0.018,0.073,0.027,0.108
										c-0.031,0-0.063-0.003-0.1-0.006c0.006,0.066,0.014,0.132,0.016,0.198c-0.039,0-0.078,0.001-0.115,0
										c-0.006,0.06-0.012,0.119-0.02,0.176c-0.07,0.002-0.14,0.002-0.212,0.007c0,0.033,0,0.066-0.005,0.102
										c-0.016,0.032-0.039,0.06-0.059,0.092c-0.133,0.017-0.266,0.032-0.396,0.043c-0.049-0.002-0.093-0.034-0.146-0.035
										c-0.051,0-0.104,0-0.155-0.003c-0.005-0.024-0.007-0.048-0.015-0.068c-0.021-0.024-0.058-0.042-0.082-0.065
										c-0.022-0.015-0.042-0.035-0.071-0.038c-0.05-0.008-0.099-0.013-0.145-0.021c-0.01-0.047-0.019-0.095-0.025-0.138
										c-0.035-0.007-0.068-0.011-0.102-0.016c-0.011-0.035-0.022-0.068-0.033-0.103c-0.011-0.03-0.032-0.053-0.05-0.078
										c0.013-0.043,0.034-0.092,0.046-0.139c-0.02-0.02-0.043-0.04-0.066-0.062c0.037-0.067,0.075-0.14,0.113-0.208
										c0.049-0.01,0.095-0.02,0.142-0.03c-0.001-0.073-0.001-0.145-0.005-0.22c0.04-0.01,0.084-0.02,0.124-0.03
										c0.001-0.035,0.005-0.063,0.01-0.1c-0.05-0.063-0.1-0.126-0.15-0.193c-0.003-0.037,0-0.079,0-0.117
										c0.04,0.003,0.083,0,0.121,0.014c0.037,0.015,0.075,0.03,0.116,0.042c0.012,0.005,0.021,0.021,0.027,0.032
										c0.021,0.032,0.043,0.063,0.064,0.093c0.02-0.006,0.039-0.013,0.061-0.018c0.005-0.043,0.006-0.086,0.011-0.13
										C20.768,5.247,20.828,5.207,20.891,5.167L20.891,5.167z"/>
									<path fill="#F8F604" d="M20.869,5.213c0.01-0.005,0.013-0.008,0.021-0.015c0.01,0.003,0.016,0.008,0.021,0.01
										c0.003,0.03,0.008,0.062,0.015,0.092c0.043,0,0.086-0.003,0.131-0.003c0,0.026,0,0.056,0.002,0.086
										c-0.033-0.008-0.07-0.016-0.108-0.021c-0.007-0.021-0.021-0.035-0.029-0.051c-0.021,0-0.039,0-0.06,0.002
										c-0.002,0.019-0.01,0.035-0.014,0.051c-0.039,0.005-0.078,0.007-0.117,0.01c0-0.017,0.002-0.037,0.004-0.054
										c0.041-0.008,0.082-0.013,0.125-0.021C20.859,5.27,20.866,5.242,20.869,5.213L20.869,5.213z"/>
									<path fill="#F8F604" d="M21.214,5.404c0.085-0.063,0.171-0.127,0.253-0.192c0.004,0.015,0.006,0.027,0.01,0.045
										c-0.033,0.045-0.068,0.094-0.103,0.143c-0.007,0.008-0.017,0.02-0.017,0.034c0,0.041,0.002,0.087,0.006,0.13
										c-0.01,0.01-0.02,0.021-0.03,0.032c-0.044,0.003-0.088,0.014-0.132,0.003c-0.188-0.035-0.387-0.02-0.564,0.047
										c-0.029,0.01-0.059,0.032-0.092,0.022c-0.023-0.003-0.047-0.003-0.07-0.006c0.003-0.035,0.007-0.068,0.012-0.104
										c-0.052-0.063-0.104-0.13-0.153-0.198c0.003-0.024,0.003-0.048,0.003-0.075c0.051,0.059,0.105,0.114,0.158,0.172
										c0.041,0,0.081,0,0.118,0c0.005,0.003,0.008,0.012,0.013,0.014c0.041-0.01,0.083-0.028,0.129-0.028
										c0.095-0.003,0.19-0.005,0.286-0.012c0.059,0.003,0.115,0.009,0.174,0.003C21.214,5.423,21.214,5.414,21.214,5.404
										L21.214,5.404z"/>
									<path fill="#F8F604" d="M20.632,5.677c0.147-0.057,0.312-0.081,0.47-0.064c0.039,0.005,0.082,0.012,0.127,0.017
										c0.026,0.042,0.056,0.087,0.086,0.125c0.026,0.035,0.011,0.08,0.016,0.118c-0.025,0.006-0.053,0.016-0.081,0.021
										c-0.033,0.003-0.063,0-0.103,0c-0.062-0.005-0.121,0-0.183-0.005c0-0.036,0-0.078,0-0.114
										c0.032-0.022,0.071-0.044,0.104-0.07c-0.071,0-0.141,0-0.209,0.003c-0.021,0-0.037,0.005-0.055,0.012
										c0.022,0.028,0.063,0.035,0.094,0.048c0,0.043,0.002,0.092,0.002,0.137C20.797,5.9,20.691,5.9,20.587,5.9
										c-0.019-0.025-0.038-0.044-0.047-0.075c-0.007-0.021-0.007-0.044-0.007-0.067C20.562,5.73,20.588,5.69,20.632,5.677
										L20.632,5.677z"/>
									<path fill="#F8F604" d="M21.245,5.983c0.03-0.032,0.071-0.056,0.104-0.086c0.01,0.008,0.021,0.013,0.025,0.015
										c0,0.09-0.005,0.175-0.01,0.264c-0.039,0.005-0.081,0.005-0.119,0.021c-0.006,0.05-0.006,0.104-0.01,0.157
										c-0.024,0.032-0.059,0.055-0.08,0.088c-0.061-0.009-0.12-0.015-0.182-0.023c-0.002-0.025-0.002-0.049-0.004-0.073
										c0.031-0.022,0.075-0.022,0.09-0.06c0.012-0.019,0.019-0.035,0.022-0.051c-0.032,0.015-0.06,0.037-0.099,0.038
										c-0.039,0-0.078,0.008-0.112,0C20.84,6.264,20.8,6.261,20.768,6.254c0.021,0.022,0.039,0.044,0.063,0.066
										c0.026,0.01,0.056,0.012,0.08,0.019c0,0.027,0.002,0.054,0.002,0.081c-0.029,0.017-0.062,0.034-0.088,0.055
										c-0.015-0.006-0.027-0.008-0.035-0.011c-0.011-0.037-0.017-0.08-0.03-0.117c-0.027-0.02-0.061-0.035-0.089-0.049
										c-0.001-0.026-0.005-0.049-0.007-0.075c-0.031-0.011-0.059-0.025-0.089-0.037c-0.007-0.021-0.007-0.042-0.017-0.065
										C20.55,6.11,20.533,6.1,20.52,6.09c-0.004-0.051-0.004-0.104-0.004-0.155c0.018,0,0.034-0.006,0.049-0.006
										c0.018,0.03,0.027,0.059,0.049,0.083c0.045,0.044,0.087,0.092,0.132,0.135c0.021,0.003,0.044,0.012,0.067,0.008
										c0.006-0.01,0.013-0.019,0.018-0.032c0.018-0.05,0.038-0.098,0.061-0.146c0.031-0.003,0.07-0.003,0.109-0.006
										c0.039,0.051,0.078,0.104,0.116,0.154c0.018-0.001,0.034-0.006,0.057-0.01C21.191,6.073,21.214,6.025,21.245,5.983
										L21.245,5.983z"/>
									<path fill="#F8F604" d="M21.521,6.105c0.054-0.003,0.107-0.011,0.16-0.017c-0.006,0.052,0.047,0.078,0.062,0.119
										c0.01,0.021,0.016,0.044,0.021,0.066c-0.022-0.003-0.043-0.003-0.072-0.005c-0.017-0.026-0.031-0.051-0.051-0.078
										c-0.004,0.006-0.015,0.012-0.022,0.017c0.021,0.032,0.04,0.054,0.057,0.083c0.011,0.062,0.011,0.119,0.015,0.176
										c-0.024,0-0.051,0-0.08,0c-0.01-0.037-0.021-0.075-0.028-0.115c-0.011,0.005-0.021,0.005-0.028,0.012
										c0.01,0.035,0.021,0.071,0.028,0.113c-0.004,0.054-0.015,0.112-0.021,0.173c-0.025,0-0.054,0-0.078,0
										c-0.021-0.044-0.053-0.087-0.071-0.13c-0.009-0.014-0.007-0.025-0.007-0.037c0-0.067,0-0.135,0-0.202
										c0-0.01,0.007-0.021,0.014-0.027C21.447,6.204,21.484,6.153,21.521,6.105L21.521,6.105z"/>
									<path fill="#F8F604" d="M20.199,6.204c0.042-0.001,0.083-0.006,0.125-0.006c0.01,0.047,0.022,0.097,0.03,0.146
										c-0.049,0.05-0.1,0.104-0.154,0.156c0.006,0.005,0.013,0.009,0.02,0.014c-0.007,0-0.015-0.003-0.021-0.005
										c-0.003-0.019-0.012-0.036-0.017-0.052c0.024-0.054,0.045-0.107,0.065-0.164C20.23,6.263,20.213,6.235,20.199,6.204
										L20.199,6.204z"/>
									<path fill="#F8F604" d="M20.305,6.543c0.021-0.061,0.048-0.116,0.07-0.177c0.013,0.011,0.024,0.021,0.035,0.03
										c0.003,0.095,0.005,0.187,0.01,0.282c-0.032-0.005-0.065-0.012-0.099-0.013C20.316,6.625,20.305,6.582,20.305,6.543
										L20.305,6.543z"/>
									<path fill="#F8F604" d="M20.85,6.525c0.037-0.02,0.066-0.04,0.1-0.062c0.064,0.017,0.13,0.032,0.191,0.042
										c-0.008,0.03-0.013,0.06-0.035,0.085c-0.019,0.021-0.037,0.044-0.056,0.07c-0.041,0-0.081,0-0.122,0.003
										c-0.023-0.024-0.049-0.046-0.068-0.07C20.859,6.568,20.854,6.55,20.85,6.525L20.85,6.525z"/>
									<path fill="#F8F604" d="M21.188,6.63c0.047-0.027,0.1-0.052,0.142-0.076c0.021,0.035,0.042,0.066,0.062,0.103
										c-0.015,0-0.031,0-0.047,0c-0.004,0.038,0,0.08-0.004,0.12c-0.013,0.022-0.027,0.04-0.042,0.063
										c-0.021-0.021-0.042-0.038-0.062-0.059c-0.01-0.01-0.021-0.021-0.021-0.032C21.204,6.708,21.197,6.667,21.188,6.63
										L21.188,6.63z"/>
									<path fill="#F8F604" d="M20.52,6.593c0.037-0.001,0.074-0.003,0.11-0.006c0.009,0.07,0.017,0.137,0.022,0.205
										c-0.006,0.008-0.016,0.013-0.021,0.021c0-0.006-0.002-0.015-0.004-0.021c-0.041-0.03-0.081-0.059-0.125-0.089
										C20.51,6.67,20.518,6.633,20.52,6.593L20.52,6.593z"/>
									<path fill="#F8F604" d="M21.014,6.781c0.021-0.006,0.043-0.016,0.067-0.022c0.021,0.033,0.044,0.07,0.063,0.104
										c-0.049,0.007-0.106,0.015-0.16,0.02C20.996,6.848,21.006,6.818,21.014,6.781L21.014,6.781z"/>
									<path fill="#F8F604" d="M20.855,6.813c0.021-0.003,0.049-0.006,0.07-0.006c0.014,0.027,0.029,0.05,0.045,0.078
										c-0.023,0.001-0.048,0.006-0.068,0.005c-0.026-0.005-0.055-0.018-0.08-0.024C20.833,6.847,20.844,6.83,20.855,6.813
										L20.855,6.813z"/>
									<ellipse fill="#F8F604" cx="20.736" cy="6.007" rx="0.061" ry="0.043"/>
									<ellipse fill="#F8F604" cx="21.125" cy="6.007" rx="0.059" ry="0.043"/>
								</g>
								<g>
									<path fill="#544B20" d="M19.88,6.925c0.067,0.032,0.131,0.063,0.198,0.097c0,0.049,0,0.097,0.005,0.143
										c0.03,0,0.062,0,0.092,0c-0.008-0.04-0.025-0.075-0.023-0.115c0.001-0.011-0.001-0.022,0.005-0.028
										c0.044-0.023,0.104,0,0.138-0.035c0.021-0.019,0.041-0.035,0.062-0.048c0.042,0,0.084,0,0.127,0.001
										c0.005,0.029,0.011,0.055,0.015,0.083c-0.04,0.056-0.08,0.108-0.118,0.166c-0.005,0.04,0.003,0.087,0.003,0.13
										c0.035,0.018,0.068,0.035,0.105,0.05c0.011,0.073,0.029,0.145,0.039,0.215c0.059,0.054,0.111,0.111,0.166,0.167
										C20.7,7.789,20.7,7.832,20.71,7.87c0.015,0.033,0.046,0.053,0.058,0.088s0.018,0.075,0.031,0.111
										c-0.033-0.001-0.064-0.006-0.104-0.011c0.008,0.067,0.012,0.135,0.015,0.2c-0.038,0-0.071,0-0.112,0
										c-0.008,0.059-0.012,0.116-0.019,0.177c-0.071,0.001-0.143,0.003-0.212,0.006c-0.003,0.035,0,0.067-0.005,0.1
										c-0.015,0.033-0.04,0.063-0.058,0.095c-0.132,0.015-0.265,0.03-0.397,0.043c-0.051-0.001-0.097-0.035-0.146-0.035
										c-0.051,0-0.102,0-0.155-0.007c-0.004-0.019-0.005-0.043-0.01-0.064c-0.024-0.027-0.058-0.042-0.086-0.063
										c-0.022-0.015-0.042-0.035-0.068-0.04c-0.049-0.005-0.099-0.011-0.145-0.021c-0.01-0.043-0.017-0.091-0.025-0.138
										c-0.035-0.005-0.067-0.006-0.1-0.015c-0.01-0.035-0.022-0.068-0.032-0.102c-0.01-0.032-0.032-0.054-0.05-0.078
										c0.015-0.042,0.035-0.09,0.048-0.137c-0.022-0.022-0.043-0.04-0.066-0.062c0.038-0.072,0.075-0.142,0.111-0.21
										c0.049-0.011,0.099-0.022,0.143-0.03C19.318,7.6,19.32,7.528,19.318,7.458c0.041-0.012,0.083-0.022,0.121-0.033
										c0.003-0.034,0.008-0.067,0.013-0.1c-0.05-0.067-0.102-0.13-0.148-0.194c-0.006-0.038,0-0.082,0-0.116
										c0.039,0.001,0.082-0.002,0.12,0.015c0.041,0.015,0.078,0.028,0.114,0.042c0.015,0.005,0.021,0.017,0.032,0.029
										c0.02,0.032,0.042,0.062,0.061,0.094c0.022-0.008,0.042-0.011,0.062-0.018c0.003-0.044,0.007-0.085,0.01-0.128
										C19.76,7.007,19.82,6.969,19.88,6.925L19.88,6.925z"/>
									<path fill="#F8F604" d="M19.862,6.977c0.006-0.008,0.013-0.011,0.022-0.02c0.006,0.007,0.015,0.012,0.021,0.014
										C19.91,7,19.916,7.03,19.918,7.06c0.042-0.003,0.085-0.003,0.129-0.006c0,0.03,0.002,0.057,0.004,0.087
										c-0.036-0.005-0.073-0.014-0.111-0.02c-0.008-0.017-0.021-0.034-0.03-0.048c-0.02,0-0.037,0-0.058,0.003
										c-0.003,0.016-0.01,0.032-0.016,0.046c-0.037,0.005-0.076,0.011-0.115,0.014c0-0.02,0-0.036,0.002-0.055
										c0.042-0.005,0.083-0.013,0.125-0.021C19.854,7.031,19.858,7,19.862,6.977L19.862,6.977z"/>
									<path fill="#F8F604" d="M20.208,7.165c0.083-0.063,0.168-0.127,0.253-0.191C20.463,6.988,20.466,7,20.469,7.015
										C20.433,7.063,20.4,7.11,20.365,7.157C20.36,7.168,20.35,7.179,20.35,7.191c0,0.042,0.005,0.087,0.005,0.129
										c-0.008,0.013-0.017,0.021-0.029,0.033c-0.044,0.001-0.088,0.015-0.132,0.005c-0.189-0.035-0.388-0.023-0.564,0.046
										c-0.032,0.011-0.058,0.032-0.093,0.022c-0.024-0.001-0.047-0.006-0.068-0.006c0.003-0.037,0.006-0.068,0.013-0.104
										c-0.054-0.065-0.103-0.132-0.154-0.198c0-0.025,0.001-0.048,0.001-0.073c0.051,0.057,0.106,0.111,0.16,0.17
										c0.038,0,0.079,0,0.119,0c0.001,0.001,0.006,0.01,0.006,0.013C19.659,7.217,19.7,7.2,19.744,7.2
										c0.096-0.003,0.191-0.008,0.288-0.011c0.057,0.003,0.116,0.006,0.175,0C20.208,7.185,20.208,7.169,20.208,7.165
										L20.208,7.165z"/>
									<path fill="#F8F604" d="M19.625,7.438c0.146-0.058,0.308-0.083,0.469-0.065c0.038,0.001,0.083,0.011,0.123,0.017
										c0.03,0.042,0.061,0.083,0.09,0.125c0.027,0.033,0.01,0.081,0.015,0.119c-0.027,0.003-0.053,0.012-0.08,0.017
										c-0.035,0.003-0.067,0-0.1,0c-0.062-0.002-0.124,0.003-0.185-0.002c0-0.035,0-0.076,0-0.115
										c0.035-0.022,0.07-0.044,0.103-0.068c-0.07,0-0.138-0.003-0.208,0.003c-0.019,0-0.037,0.005-0.054,0.011
										c0.025,0.027,0.062,0.035,0.093,0.049c0,0.043,0.002,0.088,0.002,0.137C19.79,7.66,19.685,7.66,19.579,7.659
										c-0.017-0.023-0.039-0.044-0.047-0.072c-0.006-0.023-0.006-0.043-0.006-0.066C19.557,7.49,19.579,7.448,19.625,7.438
										L19.625,7.438z"/>
									<path fill="#F8F604" d="M20.235,7.743c0.033-0.033,0.071-0.057,0.108-0.084c0.008,0.006,0.017,0.01,0.025,0.015
										c-0.004,0.084-0.006,0.173-0.009,0.26c-0.04,0.009-0.082,0.009-0.12,0.023c-0.007,0.054-0.007,0.105-0.01,0.159
										C20.204,8.147,20.172,8.168,20.15,8.2c-0.06-0.006-0.12-0.013-0.18-0.021c-0.001-0.027-0.001-0.05-0.005-0.076
										c0.032-0.02,0.077-0.02,0.092-0.056c0.008-0.019,0.013-0.035,0.021-0.052c-0.032,0.017-0.062,0.037-0.099,0.037
										c-0.04,0.002-0.078,0.011-0.113,0.002c-0.037-0.007-0.073-0.012-0.11-0.018c0.022,0.021,0.042,0.046,0.066,0.065
										c0.025,0.012,0.051,0.013,0.078,0.02c0,0.025,0,0.052,0,0.079c-0.028,0.021-0.06,0.035-0.088,0.055
										c-0.012-0.003-0.023-0.008-0.035-0.012c-0.012-0.038-0.016-0.076-0.03-0.113c-0.027-0.021-0.062-0.036-0.09-0.052
										c0-0.023-0.003-0.045-0.006-0.072c-0.029-0.015-0.057-0.027-0.089-0.038c-0.003-0.023-0.006-0.042-0.015-0.065
										c-0.011-0.015-0.03-0.022-0.045-0.032c-0.001-0.051-0.001-0.104-0.001-0.155c0.016-0.001,0.032-0.007,0.046-0.009
										c0.017,0.032,0.027,0.06,0.05,0.085c0.044,0.042,0.087,0.091,0.128,0.137c0.023,0.003,0.045,0.011,0.068,0.008
										c0.006-0.01,0.01-0.022,0.015-0.033c0.017-0.048,0.039-0.099,0.059-0.146c0.038-0.003,0.075-0.003,0.114-0.006
										c0.04,0.051,0.078,0.103,0.115,0.153c0.02-0.003,0.039-0.003,0.055-0.008C20.183,7.832,20.208,7.785,20.235,7.743
										L20.235,7.743z"/>
									<path fill="#F8F604" d="M20.514,7.865c0.053-0.007,0.106-0.01,0.159-0.018c-0.003,0.05,0.048,0.08,0.065,0.122
										c0.006,0.023,0.012,0.045,0.017,0.066c-0.022-0.003-0.047-0.003-0.067-0.008c-0.02-0.023-0.037-0.049-0.055-0.075
										c-0.008,0.005-0.016,0.011-0.023,0.017c0.021,0.028,0.039,0.055,0.059,0.083c0.007,0.059,0.007,0.118,0.016,0.177
										c-0.027,0-0.057,0-0.082,0C20.59,8.19,20.58,8.151,20.57,8.114c-0.01,0.001-0.021,0.005-0.03,0.008
										c0.009,0.039,0.022,0.077,0.03,0.112c-0.006,0.059-0.012,0.115-0.02,0.173c-0.025,0-0.054,0-0.08,0.003
										c-0.019-0.046-0.05-0.088-0.072-0.13c-0.007-0.015-0.002-0.026-0.005-0.039c0.001-0.064,0-0.132,0-0.199
										c-0.002-0.011,0.005-0.021,0.01-0.03C20.44,7.963,20.477,7.915,20.514,7.865L20.514,7.865z"/>
									<path fill="#F8F604" d="M19.192,7.963c0.042-0.001,0.083-0.005,0.125-0.006c0.006,0.049,0.021,0.095,0.028,0.145
										c-0.048,0.054-0.098,0.103-0.151,0.157c0.005,0.005,0.012,0.01,0.017,0.015c-0.005-0.003-0.015-0.005-0.021-0.008
										c-0.005-0.017-0.012-0.032-0.017-0.048c0.022-0.055,0.043-0.104,0.065-0.165C19.224,8.023,19.205,7.993,19.192,7.963
										L19.192,7.963z"/>
									<path fill="#F8F604" d="M19.297,8.302c0.02-0.062,0.046-0.117,0.072-0.178c0.011,0.011,0.021,0.022,0.035,0.033
										c0.003,0.094,0.007,0.187,0.01,0.28c-0.033-0.005-0.065-0.01-0.097-0.015C19.312,8.381,19.298,8.343,19.297,8.302
										L19.297,8.302z"/>
									<path fill="#F8F604" d="M19.844,8.284c0.031-0.021,0.062-0.039,0.096-0.059c0.065,0.015,0.128,0.027,0.192,0.04
										c-0.008,0.028-0.012,0.06-0.033,0.083s-0.039,0.045-0.057,0.07C20,8.422,19.962,8.422,19.92,8.425
										c-0.024-0.023-0.047-0.049-0.07-0.072C19.849,8.33,19.845,8.307,19.844,8.284L19.844,8.284z"/>
									<path fill="#F8F604" d="M20.18,8.385c0.049-0.022,0.097-0.049,0.142-0.076c0.022,0.035,0.042,0.068,0.061,0.104
										c-0.017,0-0.03,0-0.043,0c-0.003,0.04-0.003,0.081-0.008,0.122c-0.011,0.021-0.027,0.04-0.039,0.062
										c-0.023-0.022-0.043-0.041-0.065-0.061c-0.01-0.008-0.018-0.017-0.021-0.028C20.195,8.467,20.188,8.429,20.18,8.385
										L20.18,8.385z"/>
									<path fill="#F8F604" d="M19.512,8.355c0.038-0.002,0.073-0.006,0.11-0.007c0.008,0.068,0.019,0.137,0.025,0.205
										c-0.007,0.005-0.016,0.014-0.024,0.021c0-0.005-0.001-0.015-0.001-0.022c-0.042-0.027-0.083-0.056-0.125-0.086
										C19.5,8.429,19.507,8.39,19.512,8.355L19.512,8.355z"/>
									<path fill="#F8F604" d="M20.005,8.543c0.022-0.008,0.043-0.018,0.068-0.027c0.022,0.035,0.042,0.07,0.068,0.105
										c-0.055,0.006-0.11,0.012-0.165,0.02C19.985,8.61,19.995,8.577,20.005,8.543L20.005,8.543z"/>
									<path fill="#F8F604" d="M19.849,8.573c0.024-0.001,0.048-0.005,0.072-0.006c0.016,0.027,0.027,0.051,0.043,0.077
										C19.941,8.646,19.92,8.65,19.896,8.65c-0.028-0.005-0.053-0.018-0.083-0.025C19.827,8.607,19.836,8.59,19.849,8.573
										L19.849,8.573z"/>
									<ellipse fill="#F8F604" cx="19.73" cy="7.765" rx="0.059" ry="0.04"/>
									<ellipse fill="#F8F604" cx="20.116" cy="7.765" rx="0.061" ry="0.04"/>
								</g>
							</g>
						</g>
						<g>
							<path fill="#D61516" d="M26.037,7.546c0.467,0.105,0.936,0.227,1.396,0.36c0.526,0.155,1.055,0.333,1.565,0.53
								c0.269,0.104,0.526,0.205,0.792,0.315C29.666,9,29.548,9.25,29.424,9.499c-0.078,0.153-0.148,0.306-0.229,0.46
								c-0.59-0.233-1.182-0.443-1.786-0.639c-0.536-0.173-1.079-0.339-1.632-0.47c-0.035-0.01-0.066-0.021-0.104-0.023
								c0.015-0.018,0.019-0.037,0.021-0.053c0.029-0.112,0.066-0.224,0.097-0.337c0-0.001,0.003-0.006,0.003-0.011
								c0.004-0.017,0.012-0.037,0.018-0.055C25.882,8.097,25.962,7.821,26.037,7.546L26.037,7.546z"/>
							<path fill="#FFFFFF" d="M25.534,9.321l0.14-0.493c0,0,1.064,0.182,1.928,0.469c0.863,0.288,1.603,0.662,1.603,0.662
								l-0.229,0.458L25.534,9.321z"/>
							<path fill="#FFFFFF" d="M26.037,7.546l0.141-0.495c0,0,1.061,0.181,1.926,0.47c0.863,0.287,1.916,0.77,1.916,0.77
								L29.792,8.75L26.037,7.546z"/>
							<path fill="#3B75D9" d="M26.594,5.565c0,0,1.803-0.73,2.703-1.095c0.449,0.748,0.889,1.5,1.34,2.25
								c0.03,0.046,0.055,0.096,0.086,0.146v0.003c-0.021,0.03-0.033,0.063-0.052,0.099c-0.215,0.443-0.43,0.885-0.647,1.33
								c-0.521-0.222-1.047-0.438-1.578-0.623c-0.741-0.253-1.5-0.454-2.266-0.617L26.594,5.565z"/>
							<path fill="#3B75D9" d="M25.547,9.286c0,0,0.857,0.262,1.286,0.394c0.272,0.084,0.55,0.173,0.826,0.261
								c0.442,0.143,1.321,0.453,1.321,0.453s-0.082,0.188-0.308,0.642h-0.001c-0.131-0.054-0.263-0.105-0.396-0.157
								c-0.453-0.173-0.904-0.334-1.371-0.466c-0.52-0.151-1.049-0.273-1.572-0.39v-0.002C25.422,9.707,25.547,9.286,25.547,9.286z"
								/>
							<polygon fill="#FEC502" points="28.934,5.469 29.021,5.977 29.572,6.175 29.15,6.538 29.202,7.052 28.732,6.902 
								28.332,7.279 28.216,6.74 27.632,6.565 28.086,6.16 27.975,5.628 28.527,5.802 							"/>
							<polygon fill="#FAFC12" points="28.926,5.49 29.007,5.98 28.604,6.354 							"/>
							<polygon fill="#FAFC12" points="27.996,5.66 28.469,5.82 28.604,6.354 							"/>
							<polygon fill="#FAFC12" points="28.359,7.238 28.714,6.89 28.604,6.354 							"/>
							<polygon fill="#FAFC12" points="27.708,6.565 28.186,6.703 28.604,6.354 							"/>
							<polygon fill="#FAFC12" points="29.534,6.18 29.134,6.528 29.178,7.023 28.605,6.354 							"/>
							<path fill="#31120A" d="M26.333,7.977c0.114,0,0.231,0,0.349,0c0.004,0.042,0,0.084,0.008,0.126
								c0.062,0.032,0.119,0.074,0.183,0.106c0.097,0.051,0.196,0.079,0.296,0.124c0.016,0.005,0.027,0.01,0.039,0.01
								c0.24,0.021,0.479,0.04,0.717,0.062c0.107,0.021,0.221,0.051,0.32,0.104c0.066,0.04,0.13,0.1,0.173,0.168
								c0.011,0.011,0.017,0.033,0.035,0.037c0.269,0.086,0.554,0.121,0.834,0.132c0.049,0.006,0.104-0.006,0.146,0.024
								c0.021,0.016,0.034,0.047,0.021,0.074c-0.029,0.049-0.085,0.083-0.138,0.105c-0.106,0.043-0.229,0.04-0.342,0.021
								c-0.093-0.016-0.181-0.043-0.271-0.067c-0.058-0.016-0.114-0.033-0.175-0.033c0.011,0.032,0.021,0.055,0.039,0.081
								c0.039,0.058,0.102,0.11,0.16,0.15c0.021,0.01,0.043,0.016,0.061,0.027c-0.004,0.111-0.004,0.223-0.008,0.331
								c-0.018,0.027-0.045,0.043-0.064,0.063c-0.023-0.015-0.05-0.032-0.076-0.05c0.016-0.023,0.029-0.049,0.034-0.081
								C28.68,9.445,28.67,9.4,28.659,9.359c-0.007-0.038-0.031-0.062-0.054-0.09c-0.014-0.025-0.041-0.037-0.07-0.042
								c-0.102-0.007-0.198-0.042-0.286-0.099C28.223,9.112,28.2,9.093,28.171,9.08c-0.015-0.004-0.028,0.001-0.044,0.005
								c-0.031,0.053-0.074,0.103-0.136,0.123c-0.035,0.002-0.063-0.005-0.099-0.005c-0.049,0-0.1-0.013-0.144-0.023
								c-0.082-0.018-0.166-0.035-0.244-0.06c0.001-0.022-0.014-0.052,0.011-0.066c0.031-0.005,0.061-0.003,0.088-0.005
								c0.039-0.004,0.078,0.01,0.115,0.013c0.045,0.007,0.09,0.008,0.133,0.008c0-0.035-0.004-0.075-0.004-0.11
								c-0.111-0.008-0.223-0.016-0.322-0.055c-0.096-0.039-0.191-0.073-0.287-0.112c-0.029-0.01-0.061-0.025-0.092-0.028
								c-0.158-0.013-0.313-0.02-0.474,0.003c-0.044,0.009-0.091,0.022-0.139,0.03c-0.069,0.011-0.136,0.034-0.206,0.044
								C26.295,8.85,26.264,8.837,26.23,8.83c-0.016-0.005-0.033-0.013-0.043-0.03c-0.002-0.017,0.004-0.035,0.016-0.048
								c0.137-0.022,0.283-0.016,0.404-0.083c-0.01-0.028-0.021-0.05-0.039-0.073c-0.072-0.004-0.146-0.004-0.219-0.004
								c-0.057,0-0.113,0.012-0.17-0.008c-0.047-0.015-0.096-0.03-0.138-0.048c-0.008-0.005-0.021-0.008-0.021-0.021
								c-0.004-0.022-0.016-0.049-0.008-0.068c0.03-0.003,0.057,0.011,0.084,0.017c0.066,0.02,0.141,0.023,0.211,0.023
								c0.063-0.003,0.133-0.003,0.192-0.023c0-0.03,0.009-0.059,0.003-0.09c0-0.028-0.021-0.053-0.033-0.076
								c-0.089-0.019-0.178-0.021-0.266-0.032c-0.036-0.003-0.072-0.021-0.088-0.051c-0.01-0.025-0.01-0.052-0.006-0.083
								c0.048-0.032,0.104-0.046,0.148-0.084C26.292,8.031,26.312,8.005,26.333,7.977L26.333,7.977z"/>
							<path fill="#502D17" d="M26.341,7.992c0.106,0,0.22,0.001,0.326,0c0.005,0.04,0.005,0.083,0.005,0.124
								c0.071,0.035,0.133,0.083,0.205,0.118c0.081,0.038,0.167,0.066,0.242,0.098c0.027,0.012,0.046,0.027,0.07,0.027
								c0.238,0.024,0.477,0.043,0.713,0.063c0.08,0.01,0.156,0.034,0.229,0.058c0.107,0.037,0.205,0.103,0.266,0.198
								c0.015,0.017,0.021,0.043,0.043,0.048c0.295,0.102,0.609,0.13,0.92,0.14c0.027,0,0.056,0.012,0.072,0.03
								c0.01,0.008,0.014,0.019,0.01,0.028c-0.01,0.03-0.033,0.051-0.062,0.072c-0.083,0.06-0.188,0.077-0.29,0.075
								c-0.132-0.01-0.257-0.048-0.382-0.083c-0.063-0.015-0.127-0.035-0.19-0.03c0,0.028,0.006,0.052,0.021,0.075
								c0.053,0.09,0.137,0.162,0.233,0.207c0,0.077,0,0.15,0,0.227c-0.004,0.032,0,0.06-0.008,0.09
								c-0.014,0.019-0.035,0.032-0.052,0.049c-0.017-0.011-0.034-0.024-0.05-0.034c0.013-0.027,0.021-0.05,0.027-0.079
								c0.004-0.046,0.002-0.091-0.008-0.133c-0.014-0.044-0.039-0.077-0.065-0.111c-0.027-0.027-0.071-0.035-0.109-0.038
								c-0.112-0.016-0.218-0.07-0.312-0.133c-0.023-0.021-0.057-0.007-0.08-0.003c-0.028,0.05-0.068,0.097-0.122,0.119
								c-0.054,0.002-0.106,0.002-0.161-0.006c-0.104-0.03-0.212-0.045-0.314-0.076c0-0.015,0-0.028,0.004-0.038
								c0.039-0.012,0.078-0.008,0.117-0.002c0.072,0.014,0.149,0.017,0.229,0.017c0-0.042-0.005-0.083,0-0.125
								c0.073,0,0.146-0.01,0.221-0.01c-0.021-0.072-0.032-0.15-0.081-0.207c-0.031-0.05-0.088-0.075-0.145-0.088
								c-0.045-0.015-0.094-0.012-0.145-0.008c-0.189,0.005-0.375,0.01-0.562,0.019c0,0.028,0.002,0.055,0.007,0.086
								c-0.088-0.008-0.173-0.015-0.261-0.016c-0.078,0.005-0.164,0.005-0.241,0.018c-0.05,0.007-0.099,0.025-0.149,0.03
								c-0.07,0.013-0.137,0.038-0.205,0.046c-0.039-0.005-0.074-0.015-0.105-0.035c0.003-0.011,0.007-0.02,0.01-0.032
								c0.104-0.011,0.215-0.013,0.314-0.044c0.033-0.01,0.062-0.027,0.093-0.035c0.003-0.04-0.015-0.078-0.043-0.1
								c-0.021-0.005-0.039-0.005-0.06-0.005c-0.084,0-0.17,0-0.252,0.001c-0.048,0.003-0.094-0.015-0.138-0.032
								C26.1,8.541,26.075,8.536,26.05,8.52c-0.021-0.01-0.015-0.035-0.021-0.054c0.057,0.011,0.111,0.033,0.174,0.035
								c0.059,0,0.115,0.01,0.175,0.002c0.047-0.003,0.099-0.007,0.144-0.025c0-0.042,0.006-0.088,0-0.128
								c-0.016-0.028-0.026-0.064-0.06-0.068c-0.081-0.015-0.159-0.018-0.241-0.023c-0.029-0.003-0.062-0.014-0.082-0.04
								c-0.01-0.02-0.012-0.049-0.01-0.07c0.045-0.032,0.094-0.044,0.135-0.074C26.296,8.052,26.32,8.023,26.341,7.992L26.341,7.992
								z"/>
							<path fill="#FEFEFE" d="M27.171,8.678c0.197-0.005,0.396-0.008,0.591-0.015c0.068-0.007,0.143,0.013,0.197,0.051
								c0.07,0.048,0.09,0.142,0.109,0.22C28,8.938,27.928,8.945,27.854,8.949c-0.119-0.007-0.246-0.022-0.357-0.07
								c-0.104-0.042-0.208-0.085-0.312-0.122C27.178,8.728,27.178,8.704,27.171,8.678L27.171,8.678z"/>
						</g>
					</g>
				</g>
			</g>
		</g>
	</g>
</g>
<g>
	<path fill="#D0D0D5" d="M2.951,28.333C1.714,25.812,1,22.991,1,20c0-2.992,0.714-5.813,1.951-8.333H1.836
		C0.668,14.206,0,17.022,0,20c0,2.978,0.669,5.794,1.836,8.333H2.951z"/>
	<path fill="#D0D0D5" d="M37.049,28.333h1.115C39.331,25.794,40,22.978,40,20c0-2.978-0.669-5.794-1.836-8.333h-1.115
		C38.286,14.187,39,17.008,39,20C39,22.991,38.286,25.812,37.049,28.333z"/>
</g>
</svg>
