<?xml version="1.0" encoding="utf-8"?>
<!-- Generator: Adobe Illustrator 16.0.0, SVG Export Plug-In . SVG Version: 6.00 Build 0)  -->
<!DOCTYPE svg PUBLIC "-//W3C//DTD SVG 1.1//EN" "http://www.w3.org/Graphics/SVG/1.1/DTD/svg11.dtd">
<svg version="1.1" id="Layer_1" xmlns="http://www.w3.org/2000/svg" xmlns:xlink="http://www.w3.org/1999/xlink" x="0px" y="0px"
	 width="40px" height="40px" viewBox="0 0 40 40" enable-background="new 0 0 40 40" xml:space="preserve">
<g>
	<g>
		<polygon fill="#FFFFFF" points="24.225,18.499 25.027,17.111 23.428,17.111 		"/>
		<polygon fill="#FFFFFF" points="23.423,22.886 25.027,22.886 24.225,21.499 		"/>
		<polygon fill="#FFFFFF" points="18.307,17.111 16.641,20 18.307,22.886 21.691,22.886 23.359,20 21.691,17.111 		"/>
		<path fill="#FFFFFF" d="M8.097,36.071C11.422,38.54,15.54,40,20,40c4.459,0,8.577-1.46,11.904-3.929H8.097z"/>
		<path fill="#FFFFFF" d="M40,20c0-3.674-0.995-7.114-2.725-10.073H2.723C0.996,12.886,0,16.326,0,20s0.996,7.112,2.723,10.071
			h34.554C39.004,27.112,40,23.674,40,20z M20,28.821l-2.562-4.436h-3.765h-1.297L14.908,20l-1.885-3.265l-0.647-1.122h5.062
			L20,11.177l2.561,4.438h5.062l-2.531,4.385l2.534,4.389h-5.064L20,28.821z"/>
		<polygon fill="#FFFFFF" points="20,14.177 19.171,15.613 20.828,15.613 		"/>
		<path fill="#FFFFFF" d="M20,0c-4.46,0-8.578,1.461-11.903,3.927h23.807C28.577,1.461,24.459,0,20,0z"/>
		<polygon fill="#FFFFFF" points="15.774,18.498 16.573,17.111 14.974,17.111 		"/>
		<polygon fill="#FFFFFF" points="14.974,22.886 16.573,22.886 15.774,21.499 		"/>
		<polygon fill="#FFFFFF" points="20,25.82 20.828,24.387 19.171,24.387 		"/>
		<path fill="#3255A5" d="M31.904,3.927H8.097c-2.173,1.611-4.002,3.656-5.374,6h34.554C35.908,7.583,34.075,5.539,31.904,3.927z"/>
		<path fill="#3255A5" d="M37.275,30.071H2.723c1.372,2.346,3.201,4.389,5.374,6h23.807C34.072,34.46,35.908,32.417,37.275,30.071z"
			/>
		<path fill="#3255A5" d="M25.091,19.998l2.531-4.385h-5.062L20,11.177l-2.562,4.438h-5.062l0.647,1.122L14.908,20l-2.532,4.387
			h1.297h3.765L20,28.821l2.561-4.436h5.064L25.091,19.998z M20,14.177l0.828,1.438h-1.657L20,14.177z M14.974,22.886l0.801-1.387
			l0.799,1.387H14.974z M15.774,18.498l-0.801-1.387h1.6L15.774,18.498z M20,25.82l-0.829-1.435h1.657L20,25.82z M21.691,22.886
			h-3.385L16.641,20l1.666-2.889h3.386L23.359,20L21.691,22.886z M23.423,22.886l0.802-1.387l0.803,1.387H23.423z M24.225,18.499
			l-0.797-1.388h1.6L24.225,18.499z"/>
	</g>
</g>
<g>
	<path fill="#D0D0D5" d="M39,20c0,3.701-1.08,7.147-2.918,10.071h1.177C38.99,27.111,40,23.677,40,20
		c0-3.678-1.01-7.112-2.742-10.073H36.08C37.919,12.851,39,16.298,39,20z"/>
	<path fill="#D0D0D5" d="M1,20c0-3.702,1.081-7.149,2.919-10.073H2.742C1.01,12.888,0,16.322,0,20c0,3.677,1.009,7.111,2.741,10.071
		h1.178C2.081,27.147,1,23.701,1,20z"/>
	<path fill="#D0D0D5" d="M31.868,36.071h-1.779C27.161,37.916,23.709,39,20,39s-7.161-1.084-10.088-2.929h-1.78
		C11.454,38.529,15.55,40,20,40C24.45,40,28.546,38.529,31.868,36.071z"/>
	<path fill="#D0D0D5" d="M8.134,3.927h1.781C12.842,2.083,16.293,1,20,1c3.707,0,7.158,1.083,10.084,2.927h1.78
		C28.544,1.47,24.448,0,20,0C15.551,0,11.456,1.47,8.134,3.927z"/>
</g>
</svg>
