<?xml version="1.0" encoding="utf-8"?>
<!-- Generator: Adobe Illustrator 16.0.0, SVG Export Plug-In . SVG Version: 6.00 Build 0)  -->
<!DOCTYPE svg PUBLIC "-//W3C//DTD SVG 1.1//EN" "http://www.w3.org/Graphics/SVG/1.1/DTD/svg11.dtd">
<svg version="1.1" id="Layer_1" xmlns="http://www.w3.org/2000/svg" xmlns:xlink="http://www.w3.org/1999/xlink" x="0px" y="0px"
	 width="40px" height="40px" viewBox="0 0 40 40" enable-background="new 0 0 40 40" xml:space="preserve">
<g>
	<g>
		<g>
			<g>
				<path fill="#D91F26" d="M36.52,27.312h-2.498v-0.557h-0.275v0.557h-2.5v-0.557h-0.277v0.557h-2.498v-0.557h-0.279v0.557h-2.498
					v-0.557h-0.276v0.557h-2.5v-0.557h-0.278v0.557H20.14v-0.557h-0.276v0.557h-2.499v-0.557h-0.279v0.557h-2.497v-0.557H14.31
					v0.557h-2.498v-0.557h-0.278v0.557h-2.5v-0.557H8.756v0.557H6.26v-0.557H5.982v0.557h-2.5v-0.557H3.206v0.557H1.399
					c0.036,0.09,0.065,0.187,0.101,0.275h2.812v0.276H1.611c0.042,0.097,0.094,0.186,0.135,0.28h0.349v0.555H2.93v-0.278H2.373
					v-0.276h0.833v0.832H2.148C5.439,35.51,12.188,40,20,40c7.859,0,14.643-4.544,17.91-11.141v-0.438h-0.834v0.278h0.556v0.277
					h-0.834v-0.832h1.112v-0.558h0.275v0.696c0.092-0.2,0.193-0.395,0.278-0.598v-0.1h0.037c0.036-0.09,0.063-0.186,0.101-0.275
					h-1.805v-0.557H36.52V27.312z M5.982,28.977H4.595v-0.556H3.76v0.278h0.553v0.277h-0.83v-0.832h1.112v-0.558h0.278v1.111h0.276
					v-1.111h0.276v1.111h0.277v-1.111h0.279L5.982,28.977L5.982,28.977z M6.26,27.588h3.606v0.276H6.26V27.588z M7.09,28.977H6.812
					V28.7H7.09V28.977z M8.756,28.977H7.371v-0.556H6.536v0.556H6.26v-0.832h1.39V28.7h0.83v-0.278H7.926v-0.275h0.83V28.977z
					 M11.533,28.977h-1.387v-0.556H9.312v0.278h0.554v0.277H9.033v-0.832h1.113v-0.558h0.276v1.111h0.28v-1.111h0.276v1.111h0.276
					v-1.111h0.277v1.39H11.533z M11.812,27.588h3.606v0.276h-3.606V27.588z M12.643,28.977H12.37V28.7h0.273V28.977z M14.31,28.977
					h-1.387v-0.556h-0.835v0.556h-0.276v-0.832h1.39V28.7h0.832v-0.278h-0.557v-0.275h0.833V28.977z M17.085,28.977h-1.386v-0.556
					h-0.835v0.278h0.554v0.277h-0.83v-0.832h1.111v-0.558h0.277v1.111h0.276v-1.111h0.276v1.111h0.278v-1.111h0.277v1.39H17.085z
					 M18.196,28.977H17.92V28.7h0.276V28.977z M19.863,28.977h-1.391v-0.556h-0.831v0.556h-0.277v-0.832h1.389V28.7h0.83v-0.278
					h-0.554v-0.275h0.834V28.977z M17.364,27.864v-0.276h3.609v0.276H17.364z M22.639,28.977H21.25v-0.556h-0.834v0.278h0.557v0.277
					H20.14v-0.832h1.11v-0.558h0.279v1.111h0.277v-1.111h0.277v1.111h0.277v-1.111h0.275v1.39H22.639z M22.916,27.588h3.609v0.276
					h-3.609V27.588z M23.75,28.977h-0.277V28.7h0.277V28.977z M25.416,28.977h-1.387v-0.556h-0.836v0.556h-0.277v-0.832h1.391V28.7
					h0.832v-0.278h-0.556v-0.275h0.833V28.977z M28.191,28.977h-1.387v-0.556h-0.834v0.278h0.557v0.277h-0.834v-0.832h1.111v-0.558
					h0.278v1.111h0.276v-1.111h0.277v1.111h0.275v-1.111h0.277v1.39H28.191z M28.471,27.588h3.609v0.276h-3.609V27.588z
					 M29.303,28.977h-0.275V28.7h0.275V28.977z M30.967,28.977H29.58v-0.556h-0.834v0.556h-0.275v-0.832h1.389V28.7h0.83v-0.278
					h-0.553v-0.275h0.83V28.977z M33.745,28.977h-1.39v-0.556h-0.834v0.278h0.559v0.277h-0.835v-0.832h1.11v-0.558h0.276v1.111
					h0.277v-1.111h0.278v1.111h0.277v-1.111h0.278v1.39H33.745z M34.855,28.977H34.58V28.7h0.275V28.977z M36.52,28.977h-1.387
					v-0.556h-0.835v0.556h-0.276v-0.832h1.39V28.7h0.831v-0.278h-0.555v-0.275h0.832V28.977z M37.632,27.588v0.276h-3.61v-0.276
					H37.632z"/>
				<path fill="#FFFFFF" d="M1.196,26.756h2.01h0.276h2.5H6.26h2.496h0.277h2.5h0.278h2.498h0.278h2.497h0.279h2.499h0.276h2.499
					h0.277h2.5h0.277h2.498h0.277h2.497h0.278h2.5h0.275h2.498h0.278h2.007C39.562,24.645,40,22.375,40,20s-0.438-4.644-1.195-6.756
					H1.196C0.436,15.356,0,17.624,0,20C0,22.375,0.436,24.645,1.196,26.756z"/>
				<path fill="#269F49" d="M38.805,13.24H36.8v-0.555h1.802c-0.037-0.093-0.064-0.188-0.103-0.28H37.91v-0.553h-0.834v0.276h0.554
					v0.276H36.8v-0.833h1.11v-0.436C34.643,4.544,27.859,0,20,0C12.188,0,5.439,4.489,2.148,11.021h2.169v0.278H2.013
					c-0.044,0.091-0.089,0.183-0.132,0.276h0.214v0.557H2.93v-0.276H2.373v-0.28h0.833v0.834H1.819v-0.554H1.746
					c-0.066,0.148-0.142,0.293-0.207,0.446v0.107H1.5c-0.035,0.091-0.064,0.187-0.101,0.278h1.807v0.555h-2.01v0.002h37.609
					C38.805,13.242,38.805,13.242,38.805,13.24z M5.982,13.242h-2.5v-0.555h2.5V13.242z M5.982,12.409H4.595v-0.554H3.76v0.276
					h0.558v0.277H3.482v-0.834h1.112v-0.555h0.278v1.111h0.276v-1.111h0.276v1.111h0.277v-1.111H5.98v1.39H5.982z M28.471,11.019
					l3.609-0.001v0.278l-3.609,0.001V11.019z M22.916,11.019h3.609v0.278h-3.609V11.019z M17.364,11.019h3.611v0.278h-3.611V11.019z
					 M11.812,11.019h3.611v0.278h-3.611V11.019z M6.26,11.021h3.609v0.278H6.26V11.021z M8.756,13.242H6.26v-0.555h2.496V13.242z
					 M6.816,12.409v-0.277h0.276v0.277H6.816z M8.756,12.409H7.371v-0.554H6.536v0.554H6.26v-0.834h1.39v0.557h0.83v-0.276H7.926
					v-0.28h0.83V12.409z M11.533,13.242h-2.5v-0.555l2.5-0.002V13.242z M11.533,12.407l-1.387,0.002v-0.554H9.312v0.276h0.557v0.277
					H9.033v-0.834h1.113v-0.555h0.276v1.111h0.28v-1.111h0.276v1.111h0.276v-1.113h0.277v1.39H11.533z M14.31,13.242h-2.498v-0.557
					h2.498V13.242z M12.369,12.407v-0.276h0.277v0.276H12.369z M14.31,12.407h-1.387v-0.554h-0.835v0.554h-0.276v-0.833h1.39v0.557
					h0.832v-0.277h-0.557v-0.279h0.833V12.407z M17.085,13.242h-2.497v-0.557h2.497V13.242z M17.085,12.407h-1.386v-0.554h-0.835
					v0.277h0.559v0.276h-0.835v-0.833h1.111v-0.556h0.277v1.112h0.276v-1.112h0.276v1.112h0.278v-1.112h0.277v1.39H17.085z
					 M19.863,13.242h-2.499v-0.557h2.499V13.242z M17.918,12.407v-0.276h0.278v0.276H17.918z M19.863,12.407h-1.391v-0.554h-0.831
					v0.554h-0.277v-0.833h1.389v0.557h0.83v-0.277h-0.554v-0.279h0.834V12.407z M22.639,13.242H20.14v-0.557h2.499V13.242z
					 M22.639,12.407H21.25v-0.554h-0.834v0.277h0.559v0.276H20.14v-0.833h1.11v-0.556h0.279v1.112h0.277v-1.112h0.277v1.112h0.277
					v-1.112h0.275v1.39H22.639z M25.416,13.242h-2.5v-0.557h2.5V13.242z M23.471,12.407v-0.276h0.279v0.276H23.471z M25.416,12.407
					h-1.387v-0.554h-0.836v0.554h-0.277v-0.833h1.391v0.557h0.832v-0.277h-0.556v-0.279h0.833V12.407z M28.191,13.242h-2.498v-0.557
					h2.498V13.242z M28.191,12.407h-1.387v-0.554h-0.834v0.277h0.557v0.276h-0.834v-0.833h1.111v-0.556h0.278v1.112h0.276v-1.112
					h0.277v1.112h0.275v-1.112h0.277v1.39H28.191z M30.967,13.24l-2.496,0.002v-0.557h2.496V13.24z M29.023,12.405v-0.276H29.3
					v0.276H29.023z M30.967,12.405H29.58v-0.553l-0.834,0.001v0.554h-0.275v-0.833l1.389-0.002v0.557h0.83v-0.276h-0.553v-0.28h0.83
					V12.405z M33.745,13.24h-2.497v-0.555h2.497V13.24z M33.745,12.405h-1.39v-0.553h-0.834v0.276h0.559v0.276h-0.832v-0.833h1.107
					v-0.555h0.276v1.111h0.277v-1.111h0.278v1.111h0.277v-1.111h0.278v1.389H33.745z M34.021,11.018h3.607v0.278h-3.607V11.018z
					 M36.52,13.24h-2.498v-0.555h2.498V13.24z M34.576,12.405v-0.276h0.277v0.276H34.576z M36.52,12.405h-1.387v-0.553h-0.835v0.553
					h-0.276v-0.833h1.39v0.557h0.831v-0.276h-0.555v-0.28h0.832V12.405z"/>
			</g>
			<g>
				<path fill="none" d="M38.387,12.129c-0.061-0.144-0.135-0.275-0.199-0.415v0.415H38.387z"/>
				<polygon fill="#D91F26" points="16.808,28.699 16.529,28.699 16.529,27.588 16.253,27.588 16.253,28.699 15.977,28.699 
					15.977,27.588 15.699,27.588 15.699,28.145 14.588,28.145 14.588,28.977 15.418,28.977 15.418,28.699 14.864,28.699 
					14.864,28.421 15.699,28.421 15.699,28.977 17.085,28.977 17.085,27.588 16.808,27.588 				"/>
				<polygon fill="#D91F26" points="5.703,28.699 5.426,28.699 5.426,27.588 5.149,27.588 5.149,28.699 4.873,28.699 4.873,27.588 
					4.595,27.588 4.595,28.145 3.482,28.145 3.482,28.977 4.312,28.977 4.312,28.699 3.76,28.699 3.76,28.421 4.595,28.421 
					4.595,28.977 5.982,28.977 5.982,27.588 5.703,27.588 				"/>
				<rect x="6.26" y="26.756" fill="#D91F26" width="2.496" height="0.557"/>
				<rect x="6.812" y="28.699" fill="#D91F26" width="0.277" height="0.277"/>
				<rect x="3.482" y="26.756" fill="#D91F26" width="2.5" height="0.557"/>
				<rect x="12.369" y="28.699" fill="#D91F26" width="0.273" height="0.277"/>
				<rect x="11.812" y="27.588" fill="#D91F26" width="3.606" height="0.276"/>
				<polygon fill="#D91F26" points="11.256,28.699 10.979,28.699 10.979,27.588 10.703,27.588 10.703,28.699 10.423,28.699 
					10.423,27.588 10.146,27.588 10.146,28.145 9.033,28.145 9.033,28.977 9.866,28.977 9.866,28.699 9.312,28.699 9.312,28.421 
					10.146,28.421 10.146,28.977 11.533,28.977 11.533,27.588 11.256,27.588 				"/>
				<polygon fill="#D91F26" points="7.926,28.421 8.479,28.421 8.479,28.699 7.649,28.699 7.649,28.145 6.26,28.145 6.26,28.977 
					6.536,28.977 6.536,28.421 7.371,28.421 7.371,28.977 8.756,28.977 8.756,28.145 7.926,28.145 				"/>
				<rect x="6.26" y="27.588" fill="#D91F26" width="3.606" height="0.276"/>
				<rect x="28.471" y="26.756" fill="#D91F26" width="2.496" height="0.557"/>
				<rect x="9.033" y="26.756" fill="#D91F26" width="2.5" height="0.557"/>
				<rect x="22.916" y="26.756" fill="#D91F26" width="2.5" height="0.557"/>
				<rect x="31.245" y="26.756" fill="#D91F26" width="2.5" height="0.557"/>
				<rect x="34.021" y="26.756" fill="#D91F26" width="2.498" height="0.557"/>
				<rect x="25.693" y="26.756" fill="#D91F26" width="2.498" height="0.557"/>
				<rect x="14.588" y="26.756" fill="#D91F26" width="2.497" height="0.557"/>
				<rect x="11.812" y="26.756" fill="#D91F26" width="2.498" height="0.557"/>
				<rect x="17.364" y="26.756" fill="#D91F26" width="2.499" height="0.557"/>
				<rect x="20.14" y="26.756" fill="#D91F26" width="2.499" height="0.557"/>
				<polygon fill="#D91F26" points="13.477,28.421 14.033,28.421 14.033,28.699 13.201,28.699 13.201,28.145 11.812,28.145 
					11.812,28.977 12.088,28.977 12.088,28.421 12.923,28.421 12.923,28.977 14.31,28.977 14.31,28.145 13.477,28.145 				"/>
				<rect x="28.471" y="27.588" fill="#D91F26" width="3.609" height="0.276"/>
				<polygon fill="#D91F26" points="33.467,28.699 33.189,28.699 33.189,27.588 32.91,27.588 32.91,28.699 32.633,28.699 
					32.633,27.588 32.355,27.588 32.355,28.145 31.245,28.145 31.245,28.977 32.08,28.977 32.08,28.699 31.521,28.699 
					31.521,28.421 32.355,28.421 32.355,28.977 33.745,28.977 33.745,27.588 33.467,27.588 				"/>
				<polygon fill="#D91F26" points="30.137,28.421 30.689,28.421 30.689,28.699 29.857,28.699 29.857,28.145 28.471,28.145 
					28.471,28.977 28.746,28.977 28.746,28.421 29.58,28.421 29.58,28.977 30.967,28.977 30.967,28.145 30.137,28.145 				"/>
				<rect x="29.025" y="28.699" fill="#D91F26" width="0.277" height="0.277"/>
				<rect x="34.58" y="28.699" fill="#D91F26" width="0.275" height="0.277"/>
				<polygon fill="#D91F26" points="35.688,28.421 36.241,28.421 36.241,28.699 35.41,28.699 35.41,28.145 34.021,28.145 
					34.021,28.977 34.298,28.977 34.298,28.421 35.133,28.421 35.133,28.977 36.52,28.977 36.52,28.145 35.688,28.145 				"/>
				<rect x="34.021" y="27.588" fill="#D91F26" width="3.609" height="0.276"/>
				<rect x="17.92" y="28.699" fill="#D91F26" width="0.276" height="0.277"/>
				<polygon fill="#D91F26" points="22.363,28.699 22.085,28.699 22.085,27.588 21.807,27.588 21.807,28.699 21.529,28.699 
					21.529,27.588 21.25,27.588 21.25,28.145 20.14,28.145 20.14,28.977 20.973,28.977 20.973,28.699 20.416,28.699 20.416,28.421 
					21.25,28.421 21.25,28.977 22.639,28.977 22.639,27.588 22.363,27.588 				"/>
				<rect x="17.364" y="27.588" fill="#D91F26" width="3.609" height="0.276"/>
				<polygon fill="#D91F26" points="19.029,28.421 19.583,28.421 19.583,28.699 18.753,28.699 18.753,28.145 17.364,28.145 
					17.364,28.977 17.642,28.977 17.642,28.421 18.473,28.421 18.473,28.977 19.863,28.977 19.863,28.145 19.029,28.145 				"/>
				<rect x="22.916" y="27.588" fill="#D91F26" width="3.609" height="0.276"/>
				<polygon fill="#D91F26" points="27.913,28.699 27.637,28.699 27.637,27.588 27.359,27.588 27.359,28.699 27.083,28.699 
					27.083,27.588 26.805,27.588 26.805,28.145 25.693,28.145 25.693,28.977 26.525,28.977 26.525,28.699 25.971,28.699 
					25.971,28.421 26.805,28.421 26.805,28.977 28.191,28.977 28.191,27.588 27.913,27.588 				"/>
				<polygon fill="#D91F26" points="24.583,28.421 25.139,28.421 25.139,28.699 24.307,28.699 24.307,28.145 22.916,28.145 
					22.916,28.977 23.193,28.977 23.193,28.421 24.029,28.421 24.029,28.977 25.416,28.977 25.416,28.145 24.583,28.145 				"/>
				<rect x="23.473" y="28.699" fill="#D91F26" width="0.277" height="0.277"/>
				<polygon fill="#269F49" points="13.477,11.854 14.033,11.854 14.033,12.131 13.201,12.131 13.201,11.574 11.812,11.574 
					11.812,12.407 12.088,12.407 12.088,11.854 12.923,11.854 12.923,12.407 14.31,12.407 14.31,11.574 13.477,11.574 				"/>
				<rect x="12.369" y="12.131" fill="#269F49" width="0.277" height="0.276"/>
				<rect x="9.033" y="12.686" fill="#269F49" width="2.5" height="0.557"/>
				<polygon fill="#269F49" points="11.256,12.132 10.979,12.132 10.979,11.021 10.703,11.021 10.703,12.132 10.423,12.132 
					10.423,11.021 10.146,11.021 10.146,11.575 9.033,11.575 9.033,12.409 9.869,12.409 9.869,12.132 9.312,12.132 9.312,11.855 
					10.146,11.855 10.146,12.409 11.533,12.407 11.533,11.019 11.256,11.019 				"/>
				<rect x="11.812" y="12.686" fill="#269F49" width="2.498" height="0.557"/>
				<rect x="14.588" y="12.686" fill="#269F49" width="2.497" height="0.557"/>
				<rect x="17.364" y="12.686" fill="#269F49" width="2.499" height="0.557"/>
				<polygon fill="#269F49" points="16.808,12.131 16.529,12.131 16.529,11.019 16.253,11.019 16.253,12.131 15.977,12.131 
					15.977,11.019 15.699,11.019 15.699,11.574 14.588,11.574 14.588,12.407 15.423,12.407 15.423,12.131 14.864,12.131 
					14.864,11.854 15.699,11.854 15.699,12.407 17.085,12.407 17.085,11.019 16.808,11.019 				"/>
				<polygon fill="#269F49" points="19.029,11.854 19.583,11.854 19.583,12.131 18.753,12.131 18.753,11.574 17.364,11.574 
					17.364,12.407 17.642,12.407 17.642,11.854 18.473,11.854 18.473,12.407 19.863,12.407 19.863,11.574 19.029,11.574 				"/>
				<rect x="17.918" y="12.131" fill="#269F49" width="0.278" height="0.276"/>
				<rect x="28.471" y="11.018" fill="#269F49" width="3.609" height="0.278"/>
				<polygon fill="#269F49" points="5.703,12.132 5.426,12.132 5.426,11.021 5.149,11.021 5.149,12.132 4.873,12.132 4.873,11.021 
					4.595,11.021 4.595,11.575 3.482,11.575 3.482,12.409 4.317,12.409 4.317,12.132 3.76,12.132 3.76,11.855 4.595,11.855 
					4.595,12.409 5.982,12.409 5.982,11.021 5.703,11.021 				"/>
				<rect x="3.482" y="12.688" fill="#269F49" width="2.5" height="0.555"/>
				<rect x="6.816" y="12.132" fill="#269F49" width="0.276" height="0.277"/>
				<rect x="22.916" y="11.019" fill="#269F49" width="3.609" height="0.278"/>
				<rect x="17.364" y="11.019" fill="#269F49" width="3.611" height="0.278"/>
				<rect x="6.26" y="12.688" fill="#269F49" width="2.496" height="0.555"/>
				<rect x="6.26" y="11.021" fill="#269F49" width="3.609" height="0.278"/>
				<rect x="11.812" y="11.019" fill="#269F49" width="3.611" height="0.278"/>
				<polygon fill="#269F49" points="7.926,11.855 8.479,11.855 8.479,12.132 7.649,12.132 7.649,11.575 6.26,11.575 6.26,12.409 
					6.536,12.409 6.536,11.855 7.371,11.855 7.371,12.409 8.756,12.409 8.756,11.575 7.926,11.575 				"/>
				<rect x="34.021" y="11.018" fill="#269F49" width="3.607" height="0.278"/>
				<rect x="20.14" y="12.686" fill="#269F49" width="2.499" height="0.557"/>
				<rect x="31.248" y="12.686" fill="#269F49" width="2.497" height="0.555"/>
				<rect x="34.021" y="12.686" fill="#269F49" width="2.498" height="0.555"/>
				<polygon fill="#269F49" points="30.137,11.853 30.689,11.853 30.689,12.129 29.857,12.129 29.857,11.572 28.471,11.574 
					28.471,12.407 28.746,12.407 28.746,11.854 29.58,11.853 29.58,12.405 30.967,12.405 30.967,11.572 30.137,11.572 				"/>
				<rect x="34.576" y="12.129" fill="#269F49" width="0.277" height="0.276"/>
				<polygon fill="#269F49" points="35.688,11.853 36.241,11.853 36.241,12.129 35.41,12.129 35.41,11.572 34.021,11.572 
					34.021,12.405 34.298,12.405 34.298,11.853 35.133,11.853 35.133,12.405 36.52,12.405 36.52,11.572 35.688,11.572 				"/>
				<polygon fill="#269F49" points="33.467,12.129 33.189,12.129 33.189,11.018 32.91,11.018 32.91,12.129 32.633,12.129 
					32.633,11.018 32.355,11.018 32.355,11.572 31.248,11.572 31.248,12.405 32.08,12.405 32.08,12.129 31.521,12.129 
					31.521,11.853 32.355,11.853 32.355,12.405 33.745,12.405 33.745,11.018 33.467,11.018 				"/>
				<rect x="23.471" y="12.131" fill="#269F49" width="0.279" height="0.276"/>
				<rect x="22.916" y="12.686" fill="#269F49" width="2.5" height="0.557"/>
				<rect x="29.023" y="12.129" fill="#269F49" width="0.275" height="0.276"/>
				<polygon fill="#269F49" points="22.363,12.131 22.085,12.131 22.085,11.019 21.807,11.019 21.807,12.131 21.529,12.131 
					21.529,11.019 21.25,11.019 21.25,11.574 20.14,11.574 20.14,12.407 20.975,12.407 20.975,12.131 20.416,12.131 20.416,11.854 
					21.25,11.854 21.25,12.407 22.639,12.407 22.639,11.019 22.363,11.019 				"/>
				<polygon fill="#269F49" points="24.583,11.854 25.139,11.854 25.139,12.131 24.307,12.131 24.307,11.574 22.916,11.574 
					22.916,12.407 23.193,12.407 23.193,11.854 24.029,11.854 24.029,12.407 25.416,12.407 25.416,11.574 24.583,11.574 				"/>
				<rect x="28.471" y="12.687" fill="#269F49" width="2.496" height="0.555"/>
				<rect x="25.693" y="12.686" fill="#269F49" width="2.498" height="0.557"/>
				<polygon fill="#269F49" points="27.913,12.131 27.637,12.131 27.637,11.019 27.359,11.019 27.359,12.131 27.083,12.131 
					27.083,11.019 26.805,11.019 26.805,11.574 25.693,11.574 25.693,12.407 26.525,12.407 26.525,12.131 25.971,12.131 
					25.971,11.854 26.805,11.854 26.805,12.407 28.191,12.407 28.191,11.019 27.913,11.019 				"/>
				<polygon fill="#FFFFFF" points="5.703,12.132 5.426,12.132 5.426,11.021 5.149,11.021 5.149,12.132 4.873,12.132 4.873,11.021 
					4.595,11.021 4.595,11.575 3.482,11.575 3.482,12.409 4.317,12.409 4.317,12.132 3.76,12.132 3.76,11.855 4.595,11.855 
					4.595,12.409 5.982,12.409 5.982,11.021 5.703,11.021 				"/>
				<path fill="#FFFFFF" d="M4.317,11.021H2.148c-0.046,0.091-0.092,0.186-0.136,0.278h2.305V11.021z"/>
				<path fill="#FFFFFF" d="M1.539,12.302c-0.013,0.035-0.022,0.073-0.039,0.107h0.039V12.302z"/>
				<path fill="#FFFFFF" d="M1.819,12.409h1.387v-0.834H2.373v0.28H2.93v0.276H2.095v-0.557H1.881
					c-0.044,0.095-0.093,0.185-0.135,0.28h0.073V12.409z"/>
				<rect x="6.26" y="11.021" fill="#FFFFFF" width="3.609" height="0.278"/>
				<polygon fill="#FFFFFF" points="11.256,12.132 10.979,12.132 10.979,11.021 10.703,11.021 10.703,12.132 10.423,12.132 
					10.423,11.021 10.146,11.021 10.146,11.575 9.033,11.575 9.033,12.409 9.869,12.409 9.869,12.132 9.312,12.132 9.312,11.855 
					10.146,11.855 10.146,12.409 11.533,12.407 11.533,11.019 11.256,11.019 				"/>
				<polygon fill="#FFFFFF" points="6.536,11.855 7.371,11.855 7.371,12.409 8.756,12.409 8.756,11.575 7.926,11.575 7.926,11.855 
					8.479,11.855 8.479,12.132 7.649,12.132 7.649,11.575 6.26,11.575 6.26,12.409 6.536,12.409 				"/>
				<rect x="6.816" y="12.132" fill="#FFFFFF" width="0.276" height="0.277"/>
				<rect x="11.812" y="11.019" fill="#FFFFFF" width="3.611" height="0.278"/>
				<rect x="12.369" y="12.131" fill="#FFFFFF" width="0.277" height="0.276"/>
				<polygon fill="#FFFFFF" points="12.088,11.854 12.923,11.854 12.923,12.407 14.31,12.407 14.31,11.574 13.477,11.574 
					13.477,11.854 14.033,11.854 14.033,12.131 13.201,12.131 13.201,11.574 11.812,11.574 11.812,12.407 12.088,12.407 				"/>
				<polygon fill="#FFFFFF" points="16.808,12.131 16.529,12.131 16.529,11.019 16.253,11.019 16.253,12.131 15.977,12.131 
					15.977,11.019 15.699,11.019 15.699,11.574 14.588,11.574 14.588,12.407 15.423,12.407 15.423,12.131 14.864,12.131 
					14.864,11.854 15.699,11.854 15.699,12.407 17.085,12.407 17.085,11.019 16.808,11.019 				"/>
				<rect x="17.918" y="12.131" fill="#FFFFFF" width="0.278" height="0.276"/>
				<polygon fill="#FFFFFF" points="17.642,11.854 18.473,11.854 18.473,12.407 19.863,12.407 19.863,11.574 19.029,11.574 
					19.029,11.854 19.583,11.854 19.583,12.131 18.753,12.131 18.753,11.574 17.364,11.574 17.364,12.407 17.642,12.407 				"/>
				<polygon fill="#FFFFFF" points="22.363,12.131 22.085,12.131 22.085,11.019 21.807,11.019 21.807,12.131 21.529,12.131 
					21.529,11.019 21.25,11.019 21.25,11.574 20.14,11.574 20.14,12.407 20.975,12.407 20.975,12.131 20.416,12.131 20.416,11.854 
					21.25,11.854 21.25,12.407 22.639,12.407 22.639,11.019 22.363,11.019 				"/>
				<rect x="17.364" y="11.019" fill="#FFFFFF" width="3.611" height="0.278"/>
				<rect x="23.471" y="12.131" fill="#FFFFFF" width="0.279" height="0.276"/>
				<polygon fill="#FFFFFF" points="23.193,11.854 24.029,11.854 24.029,12.407 25.416,12.407 25.416,11.574 24.583,11.574 
					24.583,11.854 25.139,11.854 25.139,12.131 24.307,12.131 24.307,11.574 22.916,11.574 22.916,12.407 23.193,12.407 				"/>
				<polygon fill="#FFFFFF" points="27.913,12.131 27.637,12.131 27.637,11.019 27.359,11.019 27.359,12.131 27.083,12.131 
					27.083,11.019 26.805,11.019 26.805,11.574 25.693,11.574 25.693,12.407 26.525,12.407 26.525,12.131 25.971,12.131 
					25.971,11.854 26.805,11.854 26.805,12.407 28.191,12.407 28.191,11.019 27.913,11.019 				"/>
				<rect x="22.916" y="11.019" fill="#FFFFFF" width="3.609" height="0.278"/>
				<polygon fill="#FFFFFF" points="28.746,11.854 29.58,11.853 29.58,12.405 30.967,12.405 30.967,11.572 30.137,11.572 
					30.137,11.853 30.689,11.853 30.689,12.129 29.857,12.129 29.857,11.572 28.471,11.574 28.471,12.407 28.746,12.407 				"/>
				<polygon fill="#FFFFFF" points="33.467,12.129 33.189,12.129 33.189,11.018 32.91,11.018 32.91,12.129 32.633,12.129 
					32.633,11.018 32.355,11.018 32.355,11.572 31.248,11.572 31.248,12.405 32.08,12.405 32.08,12.129 31.521,12.129 
					31.521,11.853 32.355,11.853 32.355,12.405 33.745,12.405 33.745,11.018 33.467,11.018 				"/>
				<rect x="29.023" y="12.129" fill="#FFFFFF" width="0.275" height="0.276"/>
				<rect x="28.471" y="11.018" fill="#FFFFFF" width="3.609" height="0.278"/>
				<rect x="34.576" y="12.129" fill="#FFFFFF" width="0.277" height="0.276"/>
				<rect x="34.021" y="11.018" fill="#FFFFFF" width="3.607" height="0.278"/>
				<path fill="#FFFFFF" d="M36.8,11.572v0.833h0.83v-0.276h-0.554v-0.276h0.834v0.553h0.589c-0.039-0.091-0.071-0.187-0.112-0.276
					h-0.199v-0.415c-0.088-0.195-0.184-0.386-0.276-0.576v0.435H36.8V11.572z"/>
				<polygon fill="#FFFFFF" points="34.298,11.853 35.133,11.853 35.133,12.405 36.52,12.405 36.52,11.572 35.688,11.572 
					35.688,11.853 36.241,11.853 36.241,12.129 35.41,12.129 35.41,11.572 34.021,11.572 34.021,12.405 34.298,12.405 				"/>
				<rect x="3.482" y="12.688" fill="#FFFFFF" width="2.5" height="0.555"/>
				<path fill="#FFFFFF" d="M3.206,12.688H1.399c-0.071,0.182-0.137,0.367-0.203,0.555h2.01V12.688z"/>
				<rect x="6.26" y="12.688" fill="#FFFFFF" width="2.496" height="0.555"/>
				<rect x="9.033" y="12.686" fill="#FFFFFF" width="2.5" height="0.557"/>
				<rect x="14.588" y="12.686" fill="#FFFFFF" width="2.497" height="0.557"/>
				<rect x="11.812" y="12.686" fill="#FFFFFF" width="2.498" height="0.557"/>
				<rect x="20.14" y="12.686" fill="#FFFFFF" width="2.499" height="0.557"/>
				<rect x="17.364" y="12.686" fill="#FFFFFF" width="2.499" height="0.557"/>
				<rect x="22.916" y="12.686" fill="#FFFFFF" width="2.5" height="0.557"/>
				<rect x="25.693" y="12.686" fill="#FFFFFF" width="2.498" height="0.557"/>
				<rect x="28.471" y="12.686" fill="#FFFFFF" width="2.496" height="0.557"/>
				<rect x="31.248" y="12.686" fill="#FFFFFF" width="2.497" height="0.555"/>
				<rect x="34.021" y="12.686" fill="#FFFFFF" width="2.498" height="0.555"/>
				<path fill="#FFFFFF" d="M36.8,13.24h2.005c-0.068-0.188-0.132-0.372-0.203-0.555H36.8V13.24z"/>
				<polygon fill="#FFFFFF" points="5.703,28.699 5.426,28.699 5.426,27.588 5.149,27.588 5.149,28.699 4.873,28.699 4.873,27.588 
					4.595,27.588 4.595,28.145 3.482,28.145 3.482,28.977 4.312,28.977 4.312,28.699 3.76,28.699 3.76,28.421 4.595,28.421 
					4.595,28.977 5.982,28.977 5.982,27.588 5.703,27.588 				"/>
				<path fill="#FFFFFF" d="M3.206,28.145H2.373v0.276H2.93v0.278H2.095v-0.555H1.746c0.125,0.28,0.262,0.559,0.402,0.832h1.058
					V28.145z"/>
				<path fill="#FFFFFF" d="M4.312,27.588H1.5c0.039,0.094,0.072,0.188,0.111,0.276h2.701V27.588z"/>
				<polygon fill="#FFFFFF" points="7.926,28.421 8.479,28.421 8.479,28.699 7.649,28.699 7.649,28.145 6.26,28.145 6.26,28.977 
					6.536,28.977 6.536,28.421 7.371,28.421 7.371,28.977 8.756,28.977 8.756,28.145 7.926,28.145 				"/>
				<rect x="6.812" y="28.699" fill="#FFFFFF" width="0.277" height="0.277"/>
				<rect x="6.26" y="27.588" fill="#FFFFFF" width="3.606" height="0.276"/>
				<polygon fill="#FFFFFF" points="11.256,28.699 10.979,28.699 10.979,27.588 10.703,27.588 10.703,28.699 10.423,28.699 
					10.423,27.588 10.146,27.588 10.146,28.145 9.033,28.145 9.033,28.977 9.866,28.977 9.866,28.699 9.312,28.699 9.312,28.421 
					10.146,28.421 10.146,28.977 11.533,28.977 11.533,27.588 11.256,27.588 				"/>
				<rect x="11.812" y="27.588" fill="#FFFFFF" width="3.606" height="0.276"/>
				<polygon fill="#FFFFFF" points="13.477,28.421 14.033,28.421 14.033,28.699 13.201,28.699 13.201,28.145 11.812,28.145 
					11.812,28.977 12.088,28.977 12.088,28.421 12.923,28.421 12.923,28.977 14.31,28.977 14.31,28.145 13.477,28.145 				"/>
				<polygon fill="#FFFFFF" points="16.808,28.699 16.529,28.699 16.529,27.588 16.253,27.588 16.253,28.699 15.977,28.699 
					15.977,27.588 15.699,27.588 15.699,28.145 14.588,28.145 14.588,28.977 15.418,28.977 15.418,28.699 14.864,28.699 
					14.864,28.421 15.699,28.421 15.699,28.977 17.085,28.977 17.085,27.588 16.808,27.588 				"/>
				<rect x="12.369" y="28.699" fill="#FFFFFF" width="0.273" height="0.277"/>
				<polygon fill="#FFFFFF" points="19.029,28.421 19.583,28.421 19.583,28.699 18.753,28.699 18.753,28.145 17.364,28.145 
					17.364,28.977 17.642,28.977 17.642,28.421 18.473,28.421 18.473,28.977 19.863,28.977 19.863,28.145 19.029,28.145 				"/>
				<rect x="17.364" y="27.588" fill="#FFFFFF" width="3.609" height="0.276"/>
				<polygon fill="#FFFFFF" points="22.363,28.699 22.085,28.699 22.085,27.588 21.807,27.588 21.807,28.699 21.529,28.699 
					21.529,27.588 21.25,27.588 21.25,28.145 20.14,28.145 20.14,28.977 20.973,28.977 20.973,28.699 20.416,28.699 20.416,28.421 
					21.25,28.421 21.25,28.977 22.639,28.977 22.639,27.588 22.363,27.588 				"/>
				<rect x="17.92" y="28.699" fill="#FFFFFF" width="0.276" height="0.277"/>
				<polygon fill="#FFFFFF" points="24.583,28.421 25.139,28.421 25.139,28.699 24.307,28.699 24.307,28.145 22.916,28.145 
					22.916,28.977 23.193,28.977 23.193,28.421 24.029,28.421 24.029,28.977 25.416,28.977 25.416,28.145 24.583,28.145 				"/>
				<polygon fill="#FFFFFF" points="27.913,28.699 27.637,28.699 27.637,27.588 27.359,27.588 27.359,28.699 27.083,28.699 
					27.083,27.588 26.805,27.588 26.805,28.145 25.693,28.145 25.693,28.977 26.525,28.977 26.525,28.699 25.971,28.699 
					25.971,28.421 26.805,28.421 26.805,28.977 28.191,28.977 28.191,27.588 27.913,27.588 				"/>
				<rect x="22.916" y="27.588" fill="#FFFFFF" width="3.609" height="0.276"/>
				<rect x="23.473" y="28.699" fill="#FFFFFF" width="0.277" height="0.277"/>
				<rect x="29.025" y="28.699" fill="#FFFFFF" width="0.277" height="0.277"/>
				<rect x="28.471" y="27.588" fill="#FFFFFF" width="3.609" height="0.276"/>
				<polygon fill="#FFFFFF" points="33.467,28.699 33.189,28.699 33.189,27.588 32.91,27.588 32.91,28.699 32.633,28.699 
					32.633,27.588 32.355,27.588 32.355,28.145 31.245,28.145 31.245,28.977 32.08,28.977 32.08,28.699 31.521,28.699 
					31.521,28.421 32.355,28.421 32.355,28.977 33.745,28.977 33.745,27.588 33.467,27.588 				"/>
				<polygon fill="#FFFFFF" points="30.137,28.421 30.689,28.421 30.689,28.699 29.857,28.699 29.857,28.145 28.471,28.145 
					28.471,28.977 28.746,28.977 28.746,28.421 29.58,28.421 29.58,28.977 30.967,28.977 30.967,28.145 30.137,28.145 				"/>
				<path fill="#FFFFFF" d="M38.465,27.688c0.014-0.032,0.021-0.066,0.037-0.1h-0.037V27.688z"/>
				<polygon fill="#FFFFFF" points="35.688,28.421 36.241,28.421 36.241,28.699 35.41,28.699 35.41,28.145 34.021,28.145 
					34.021,28.977 34.298,28.977 34.298,28.421 35.133,28.421 35.133,28.977 36.52,28.977 36.52,28.145 35.688,28.145 				"/>
				<path fill="#FFFFFF" d="M38.188,27.588H37.91v0.557h-1.112v0.832h0.834V28.7h-0.556v-0.278h0.834v0.439
					c0.094-0.188,0.188-0.383,0.275-0.576v-0.697H38.188z"/>
				<rect x="34.58" y="28.699" fill="#FFFFFF" width="0.275" height="0.277"/>
				<rect x="34.021" y="27.588" fill="#FFFFFF" width="3.609" height="0.276"/>
				<rect x="3.482" y="26.756" fill="#FFFFFF" width="2.5" height="0.557"/>
				<path fill="#FFFFFF" d="M3.206,26.756h-2.01c0.066,0.186,0.132,0.373,0.203,0.557h1.807V26.756z"/>
				<rect x="6.26" y="26.756" fill="#FFFFFF" width="2.496" height="0.557"/>
				<rect x="9.033" y="26.756" fill="#FFFFFF" width="2.5" height="0.557"/>
				<rect x="11.812" y="26.756" fill="#FFFFFF" width="2.498" height="0.557"/>
				<rect x="14.588" y="26.756" fill="#FFFFFF" width="2.497" height="0.557"/>
				<rect x="20.14" y="26.756" fill="#FFFFFF" width="2.499" height="0.557"/>
				<rect x="17.364" y="26.756" fill="#FFFFFF" width="2.499" height="0.557"/>
				<rect x="25.693" y="26.756" fill="#FFFFFF" width="2.498" height="0.557"/>
				<rect x="22.916" y="26.756" fill="#FFFFFF" width="2.5" height="0.557"/>
				<rect x="28.471" y="26.756" fill="#FFFFFF" width="2.496" height="0.557"/>
				<rect x="31.245" y="26.756" fill="#FFFFFF" width="2.5" height="0.557"/>
				<path fill="#FFFFFF" d="M36.798,26.756v0.557h1.804c0.073-0.184,0.137-0.371,0.203-0.557H36.798z"/>
				<rect x="34.021" y="26.756" fill="#FFFFFF" width="2.498" height="0.557"/>
			</g>
		</g>
		<g>
			<path fill="#D91F26" d="M21.469,14.084c0,0,0.02,0.074,0.021,0.112c0.041,0.301-0.094,0.618-0.34,0.801
				c-0.182,0.138-0.42,0.198-0.646,0.166c-0.191-0.026-0.369-0.119-0.504-0.251c-0.132,0.132-0.312,0.225-0.502,0.251
				c-0.218,0.032-0.449-0.023-0.628-0.155c-0.29-0.196-0.433-0.584-0.339-0.924c0.046,0.064,0.093,0.128,0.15,0.186
				c0.169,0.169,0.4,0.273,0.641,0.288c0.239,0.02,0.485-0.058,0.681-0.199c0.095,0.068,0.205,0.124,0.319,0.161
				c0.245,0.075,0.516,0.048,0.743-0.069C21.23,14.37,21.37,14.238,21.469,14.084L21.469,14.084z"/>
			<path fill="#D91F26" d="M19.268,15.684c0.244-0.197,0.489-0.394,0.732-0.594c0.247,0.201,0.493,0.396,0.736,0.597
				c-0.014,0.791-0.021,1.577-0.035,2.368c0,0.337-0.012,0.674-0.018,1.013c-0.01,0.908-0.027,1.813-0.037,2.722
				c-0.006,0.354-0.006,0.711-0.017,1.06c-0.003,0.284-0.003,0.562-0.011,0.846c0.081-0.055,0.15-0.117,0.223-0.178
				c0.424-0.35,0.797-0.76,1.105-1.209c0.506-0.737,0.841-1.592,0.975-2.476c0.166-1.075,0.029-2.195-0.396-3.194
				c-0.176-0.435-0.414-0.844-0.688-1.221c0.561,0.442,1.028,1.001,1.377,1.622c0.463,0.837,0.71,1.797,0.696,2.758
				c-0.011,1.377-0.565,2.744-1.519,3.738c-0.393,0.415-0.854,0.765-1.355,1.043c0.848,0.29,1.753,0.381,2.637,0.283
				c-0.34,0.132-0.693,0.237-1.052,0.305c-0.667,0.124-1.354,0.119-2.021-0.002c0,0.031,0.004,0.065-0.022,0.085
				c-0.193,0.223-0.383,0.441-0.576,0.667h-0.005c-0.193-0.226-0.389-0.45-0.583-0.677c-0.02-0.021-0.011-0.051-0.015-0.075
				c-0.071,0.012-0.14,0.022-0.208,0.033c-0.96,0.145-1.963,0.024-2.864-0.337c0.403,0.044,0.811,0.05,1.207,0.018
				c0.485-0.042,0.961-0.145,1.423-0.3c-0.117-0.073-0.239-0.138-0.354-0.213c-0.767-0.496-1.407-1.193-1.847-1.999
				c-0.469-0.86-0.703-1.852-0.664-2.833c0.027-0.881,0.276-1.753,0.706-2.52c0.347-0.615,0.813-1.161,1.364-1.604
				c-0.046,0.073-0.102,0.145-0.15,0.217c-0.545,0.818-0.885,1.771-0.978,2.75c-0.104,1.105,0.107,2.236,0.606,3.232
				c0.404,0.813,1.003,1.535,1.733,2.084c0.005-0.238-0.001-0.477-0.001-0.713c-0.017-0.311-0.007-0.619-0.02-0.933
				c-0.012-0.913-0.026-1.827-0.038-2.742c-0.001-0.344-0.015-0.684-0.015-1.023C19.29,17.415,19.277,16.55,19.268,15.684
				L19.268,15.684z"/>
			<path fill="#D91F26" d="M15.369,16.453c0.579-0.582,1.313-1.011,2.104-1.224c-0.059,0.049-0.119,0.093-0.179,0.14
				c-0.661,0.521-1.211,1.177-1.599,1.926c-0.4,0.764-0.628,1.624-0.667,2.49c-0.054,1.109,0.213,2.229,0.762,3.195
				c0.191,0.336,0.42,0.656,0.67,0.957c-0.127-0.062-0.242-0.142-0.364-0.215c-0.781-0.519-1.399-1.274-1.755-2.144
				c-0.215-0.528-0.335-1.097-0.352-1.668v-0.257c0.01-0.39,0.068-0.778,0.176-1.149C14.386,17.732,14.801,17.017,15.369,16.453
				L15.369,16.453z"/>
			<path fill="#D91F26" d="M22.521,15.229c0.076,0.013,0.146,0.042,0.223,0.063c0.486,0.159,0.943,0.391,1.352,0.693
				c0.619,0.461,1.125,1.071,1.454,1.768c0.291,0.596,0.446,1.255,0.462,1.917v0.229c-0.008,0.203-0.021,0.408-0.055,0.611
				c-0.082,0.534-0.258,1.057-0.518,1.528c-0.433,0.803-1.104,1.475-1.904,1.903c0.49-0.576,0.879-1.242,1.119-1.963
				c0.248-0.711,0.354-1.47,0.318-2.22c-0.047-0.872-0.283-1.733-0.689-2.503C23.861,16.46,23.252,15.757,22.521,15.229
				L22.521,15.229z"/>
		</g>
	</g>
</g>
<g>
	<path fill="#D0D0D5" d="M39,20c0,2.382-0.46,4.653-1.264,6.756h1.068C39.564,24.643,40,22.375,40,20s-0.436-4.643-1.195-6.756
		h-1.068C38.54,15.347,39,17.618,39,20z"/>
	<path fill="#D0D0D5" d="M1,20c0-2.382,0.459-4.653,1.264-6.756H1.195C0.436,15.357,0,17.625,0,20s0.436,4.643,1.195,6.756h1.069
		C1.459,24.653,1,22.382,1,20z"/>
</g>
</svg>
