<?xml version="1.0" encoding="utf-8"?>
<!-- Generator: Adobe Illustrator 16.0.0, SVG Export Plug-In . SVG Version: 6.00 Build 0)  -->
<!DOCTYPE svg PUBLIC "-//W3C//DTD SVG 1.1//EN" "http://www.w3.org/Graphics/SVG/1.1/DTD/svg11.dtd">
<svg version="1.1" id="Layer_1" xmlns="http://www.w3.org/2000/svg" xmlns:xlink="http://www.w3.org/1999/xlink" x="0px" y="0px"
	 width="40px" height="40px" viewBox="0 0 40 40" enable-background="new 0 0 40 40" xml:space="preserve">
<g>
	<g>
		<path fill="#FFFFFF" d="M40,20.001C40,31.047,31.046,40,20.001,40C8.955,40,0,31.047,0,20.001C0,8.952,8.955,0,20.001,0
			C31.046,0,40,8.952,40,20.001z"/>
		<path fill="#BE0026" d="M30,20.001C30,25.521,25.523,30,20.001,30c-5.525,0-9.999-4.479-9.999-9.999
			c0-5.525,4.474-10.001,9.999-10.001C25.523,10,30,14.476,30,20.001z"/>
	</g>
</g>
<path fill="#D0D0D5" d="M20,1c10.477,0,19,8.523,19,19s-8.523,19-19,19S1,30.477,1,20S9.523,1,20,1 M20,0C8.954,0,0,8.954,0,20
	s8.954,20,20,20s20-8.954,20-20S31.046,0,20,0L20,0z"/>
</svg>
