<?xml version="1.0" encoding="utf-8"?>
<!-- Generator: Adobe Illustrator 16.0.0, SVG Export Plug-In . SVG Version: 6.00 Build 0)  -->
<!DOCTYPE svg PUBLIC "-//W3C//DTD SVG 1.1//EN" "http://www.w3.org/Graphics/SVG/1.1/DTD/svg11.dtd">
<svg version="1.1" id="Layer_1" xmlns="http://www.w3.org/2000/svg" xmlns:xlink="http://www.w3.org/1999/xlink" x="0px" y="0px"
	 width="40px" height="40px" viewBox="0 0 40 40" enable-background="new 0 0 40 40" xml:space="preserve">
<g>
	<g>
		<circle fill="#FFFFFF" cx="20" cy="20" r="20"/>
		<g>
			<g>
				<circle fill="#CE2028" cx="20.001" cy="20.215" r="7.942"/>
				<path fill="#1E4384" d="M13.209,16.111c-1.134,1.878-0.538,4.316,1.335,5.448c1.875,1.139,4.313,0.539,5.447-1.334
					c1.135-1.873,3.573-2.471,5.444-1.333c1.875,1.131,2.475,3.572,1.334,5.441c-2.268,3.75-7.141,4.943-10.892,2.675
					C12.135,24.736,10.94,19.861,13.209,16.111z"/>
			</g>
			<g>
				
					<rect x="5.246" y="6.883" transform="matrix(0.8287 0.5597 -0.5597 0.8287 7.0867 -1.4224)" fill="#010101" width="1.243" height="7.967"/>
				
					<rect x="6.835" y="7.951" transform="matrix(0.8281 0.5606 -0.5606 0.8281 7.9731 -2.1278)" fill="#010101" width="1.243" height="7.97"/>
				
					<rect x="8.422" y="9.023" transform="matrix(0.8292 0.559 -0.559 0.8292 8.8149 -2.8331)" fill="#010101" width="1.243" height="7.969"/>
			</g>
			<g>
				<g>
					
						<rect x="31.532" y="23.802" transform="matrix(0.8285 0.5599 -0.5599 0.8285 19.8741 -13.6072)" fill="#010101" width="1.247" height="3.69"/>
					
						<rect x="29.144" y="27.354" transform="matrix(0.8306 0.5569 -0.5569 0.8306 21.3021 -11.6289)" fill="#010101" width="1.242" height="3.688"/>
				</g>
				<g>
					
						<rect x="33.124" y="24.877" transform="matrix(0.8277 0.5612 -0.5612 0.8277 20.8124 -14.3331)" fill="#010101" width="1.242" height="3.691"/>
					
						<rect x="30.733" y="28.423" transform="matrix(0.8279 0.5608 -0.5608 0.8279 22.3713 -12.3765)" fill="#010101" width="1.243" height="3.691"/>
				</g>
				<g>
					
						<rect x="34.709" y="25.946" transform="matrix(0.8293 0.5589 -0.5589 0.8293 21.5635 -14.9998)" fill="#010101" width="1.242" height="3.688"/>
					
						<rect x="32.317" y="29.495" transform="matrix(0.8299 0.558 -0.558 0.8299 23.0903 -13.0464)" fill="#010101" width="1.243" height="3.69"/>
				</g>
			</g>
			<g>
				
					<rect x="31.929" y="7.95" transform="matrix(0.8301 -0.5576 0.5576 0.8301 -1.124 20.1767)" fill="#010101" width="1.24" height="7.967"/>
				<g>
					
						<rect x="32.318" y="7.248" transform="matrix(0.8286 -0.5599 0.5599 0.8286 0.5548 19.9999)" fill="#010101" width="1.241" height="3.692"/>
					<polygon fill="#010101" points="35.85,14.516 36.876,13.82 34.814,10.759 33.784,11.457 					"/>
				</g>
				<g>
					
						<rect x="29.146" y="9.388" transform="matrix(0.8291 -0.5591 0.5591 0.8291 -1.1953 18.5604)" fill="#010101" width="1.24" height="3.694"/>
					
						<rect x="31.536" y="12.933" transform="matrix(0.8288 -0.5595 0.5595 0.8288 -2.7645 20.5217)" fill="#010101" width="1.242" height="3.692"/>
				</g>
			</g>
			<g>
				
					<rect x="8.423" y="23.438" transform="matrix(0.8302 -0.5574 0.5574 0.8302 -13.7502 9.6959)" fill="#010101" width="1.239" height="7.967"/>
				
					<rect x="5.247" y="25.583" transform="matrix(0.829 -0.5592 0.5592 0.829 -15.5311 8.3365)" fill="#010101" width="1.24" height="7.966"/>
				<g>
					
						<rect x="5.64" y="24.88" transform="matrix(0.8284 -0.5601 0.5601 0.8284 -13.8948 8.093)" fill="#010101" width="1.243" height="3.688"/>
					
						<rect x="8.031" y="28.421" transform="matrix(0.8296 -0.5583 0.5583 0.8296 -15.4239 9.9874)" fill="#010101" width="1.242" height="3.69"/>
				</g>
			</g>
		</g>
	</g>
</g>
<path fill="#D0D0D5" d="M20,1c10.477,0,19,8.523,19,19s-8.523,19-19,19S1,30.477,1,20S9.523,1,20,1 M20,0C8.954,0,0,8.954,0,20
	s8.954,20,20,20s20-8.954,20-20S31.046,0,20,0L20,0z"/>
</svg>
