<?xml version="1.0" encoding="utf-8"?>
<!-- Generator: Adobe Illustrator 16.0.0, SVG Export Plug-In . SVG Version: 6.00 Build 0)  -->
<!DOCTYPE svg PUBLIC "-//W3C//DTD SVG 1.0//EN" "http://www.w3.org/TR/2001/REC-SVG-20010904/DTD/svg10.dtd">
<svg version="1.0" id="Layer_1" xmlns="http://www.w3.org/2000/svg" xmlns:xlink="http://www.w3.org/1999/xlink" x="0px" y="0px"
	 width="40px" height="40px" viewBox="0 0 40 40" enable-background="new 0 0 40 40" xml:space="preserve">
<g>
	<g>
		<path fill="#E8A723" d="M20.003,0C11.93,0,4.981,4.785,1.819,11.668h36.362C35.02,4.785,28.069,0,20.003,0z"/>
		<path fill="#115B40" d="M0,20.001c0,2.973,0.657,5.793,1.819,8.331h36.362C39.346,25.795,40,22.975,40,20.001
			c0-2.977-0.654-5.796-1.818-8.333H1.819C0.657,14.206,0,17.024,0,20.001z"/>
		<path fill="#AC2235" d="M20.003,40c8.066,0,15.017-4.783,18.179-11.668H1.819C4.981,35.217,11.93,40,20.003,40z"/>
	</g>
</g>
</svg>
