<?xml version="1.0" encoding="utf-8"?>
<!-- Generator: Adobe Illustrator 16.0.0, SVG Export Plug-In . SVG Version: 6.00 Build 0)  -->
<!DOCTYPE svg PUBLIC "-//W3C//DTD SVG 1.1//EN" "http://www.w3.org/Graphics/SVG/1.1/DTD/svg11.dtd">
<svg version="1.1" id="Layer_1" xmlns="http://www.w3.org/2000/svg" xmlns:xlink="http://www.w3.org/1999/xlink" x="0px" y="0px"
	 width="40px" height="40px" viewBox="0 0 40 40" enable-background="new 0 0 40 40" xml:space="preserve">
<g>
	<g>
		<path fill="#A22931" d="M20,40c9.018,0,16.639-5.965,19.135-14.165H0.867C3.362,34.035,10.986,40,20,40z"/>
		<path fill="#A22931" d="M20,0C10.986,0,3.362,5.969,0.867,14.168h38.267C36.639,5.969,29.018,0,20,0z"/>
		<path fill="#FFFFFF" d="M39.134,14.168H0.867C0.305,16.014,0,17.972,0,20c0,2.029,0.305,3.989,0.867,5.835h38.267
			C39.697,23.989,40,22.029,40,20C40,17.972,39.697,16.014,39.134,14.168z"/>
	</g>
</g>
<g>
	<path fill="#D0D0D5" d="M39,20c0,2.036-0.33,3.994-0.926,5.835h1.056C39.692,23.988,40,22.03,40,20
		c0-2.029-0.308-3.986-0.869-5.832h-1.056C38.67,16.007,39,17.965,39,20z"/>
	<path fill="#D0D0D5" d="M1,20c0-2.035,0.33-3.993,0.925-5.832H0.87C0.308,16.014,0,17.971,0,20c0,2.03,0.308,3.988,0.87,5.835
		h1.056C1.33,23.994,1,22.036,1,20z"/>
</g>
</svg>
