<?xml version="1.0" encoding="utf-8"?>
<!-- Generator: Adobe Illustrator 16.0.0, SVG Export Plug-In . SVG Version: 6.00 Build 0)  -->
<!DOCTYPE svg PUBLIC "-//W3C//DTD SVG 1.0//EN" "http://www.w3.org/TR/2001/REC-SVG-20010904/DTD/svg10.dtd">
<svg version="1.0" id="Layer_1" xmlns="http://www.w3.org/2000/svg" xmlns:xlink="http://www.w3.org/1999/xlink" x="0px" y="0px"
	 width="40px" height="40px" viewBox="0 0 40 40" enable-background="new 0 0 40 40" xml:space="preserve">
<g>
	<path fill="#E70013" d="M2.697,10h34.605C33.843,4.028,27.398,0,20,0S6.157,4.028,2.697,10z"/>
	<path fill="#239E46" d="M2.697,30C6.157,35.973,12.602,40,20,40s13.843-4.027,17.303-10H2.697z"/>
	<path d="M2.697,10C0.992,12.944,0,16.353,0,20s0.992,7.056,2.697,10h34.605C39.008,27.056,40,23.647,40,20s-0.992-7.056-2.697-10
		H2.697z"/>
	<g>
		<path fill="#FFFFFF" d="M18.489,23.536c-1.953-1.394-2.406-4.106-1.013-6.06s4.106-2.406,6.06-1.013
			c-1.952-1.952-5.118-1.952-7.07,0c-1.953,1.952-1.953,5.118-0.001,7.071s5.118,1.953,7.071,0.001
			C22.026,24.613,19.999,24.613,18.489,23.536z"/>
		<polygon fill="#FFFFFF" points="27.572,20 29.16,17.816 26.591,18.65 25,16.464 25,19.167 22.432,20 25,20.834 25,23.536 
			26.591,21.35 29.16,22.184 		"/>
	</g>
</g>
</svg>
