<?xml version="1.0" encoding="utf-8"?>
<!-- Generator: Adobe Illustrator 16.0.0, SVG Export Plug-In . SVG Version: 6.00 Build 0)  -->
<!DOCTYPE svg PUBLIC "-//W3C//DTD SVG 1.0//EN" "http://www.w3.org/TR/2001/REC-SVG-20010904/DTD/svg10.dtd">
<svg version="1.0" id="Layer_1" xmlns="http://www.w3.org/2000/svg" xmlns:xlink="http://www.w3.org/1999/xlink" x="0px" y="0px"
	 width="40px" height="40px" viewBox="0 0 40 40" enable-background="new 0 0 40 40" xml:space="preserve">
<g>
	<g>
		<circle fill="#E70013" cx="20" cy="20" r="20"/>
		<g>
			<g>
				<path fill="#008400" d="M17.627,17.635H9.958l8.73,6.646l1.31-0.996l-5.292-4.025l2.417-0.007L17.627,17.635z"/>
				<path d="M9.958,17.62l7.669,0v0.015l0.014,0.003l-0.518,1.63l-2.408-0.021l5.291,4.05l-1.326,0.996L9.958,17.62L9.958,17.62z
					 M18.68,24.271l1.308-0.974l-5.281-4.052l2.402,0.004l0.5-1.599l-7.642-0.026L18.68,24.271L18.68,24.271z"/>
			</g>
			<g>
				<path fill="#008400" d="M22.371,17.635l-2.376-7.634l-3.331,10.745l1.31,0.996l2.021-6.512l0.75,2.404H22.371z"/>
				<path d="M16.649,20.741l3.359-10.747l2.376,7.636l-0.014,0.004v0.015l-1.641-0.011l-0.725-2.404l-2.042,6.519L16.649,20.741
					L16.649,20.741z M16.673,20.734l1.286,1.005l2.047-6.515l0.739,2.396h1.606l-2.343-7.615L16.673,20.734L16.673,20.734z"/>
			</g>
			<g>
				<path fill="#008400" d="M23.836,22.363l6.197-4.729l-10.787,0.003l-0.5,1.614h6.539l-1.951,1.492L23.836,22.363z"/>
				<path d="M23.836,22.363l-0.014,0.004l-0.497-1.635l1.959-1.465l-6.554-0.02l0.516-1.624l10.796,0.022l-6.197,4.729
					L23.836,22.363L23.836,22.363z M18.746,19.238l6.548,0.025l-1.945,1.478l0.494,1.598l6.19-4.689L19.26,17.642L18.746,19.238
					L18.746,19.238z"/>
			</g>
			<g>
				<path fill="#008400" d="M19.995,25.281l6.208,4.715L22.87,19.252h-1.623l2.021,6.513l-1.959-1.482L19.995,25.281z"/>
				<path d="M19.985,25.293l0.01-0.012l-0.01-0.012l1.333-0.998l1.938,1.498l-2.009-6.531l1.636,0.009l3.311,10.758L19.985,25.293
					L19.985,25.293z M26.188,30L22.87,19.267l-1.61-0.02l2,6.53l-1.941-1.482l-1.3,0.984L26.188,30L26.188,30z"/>
			</g>
			<g>
				<path fill="#008400" d="M16.158,22.359L13.796,30l8.723-6.645l-0.497-1.613l-5.29,4.028l0.742-2.409L16.158,22.359z"/>
				<path d="M16.144,22.355l0.015,0.004l0.009-0.011l1.319,1.019l-0.765,2.391l5.313-4.021l0.491,1.63l-8.745,6.627L16.144,22.355
					L16.144,22.355z M13.787,29.987l8.718-6.628l-0.475-1.605l-5.312,4.012l0.745-2.393l-1.296-0.988L13.787,29.987L13.787,29.987z"
					/>
			</g>
		</g>
	</g>
</g>
</svg>
