<svg width="40" height="40" viewBox="0 0 40 40" xmlns="http://www.w3.org/2000/svg">
    <g fill="none" fill-rule="evenodd">
        <path d="M40 19.998C40 31.044 31.043 40 20 40 8.953 40 0 31.044 0 19.998 0 8.953 8.953 0 20 0c11.043 0 20 8.953 20 19.998" fill="#1EB53A"/>
        <path d="M20 24.365c-6.188 0-11.3-4.574-12.15-10.523a12.323 12.323 0 0 0-.118 1.673c0 6.773 5.493 12.269 12.267 12.269 6.777 0 12.266-5.496 12.266-12.27 0-.567-.04-1.123-.115-1.672-.853 5.949-5.967 10.523-12.15 10.523" fill="#FCD116"/>
        <path fill="#FCD116" d="m20 7.948 1.034 3.18h3.342l-2.704 1.964 1.033 3.182-2.706-1.966-2.705 1.966 1.034-3.182-2.706-1.965h3.343z"/>
    </g>
</svg>
