<?xml version="1.0" encoding="utf-8"?>
<!-- Generator: Adobe Illustrator 16.0.0, SVG Export Plug-In . SVG Version: 6.00 Build 0)  -->
<!DOCTYPE svg PUBLIC "-//W3C//DTD SVG 1.1//EN" "http://www.w3.org/Graphics/SVG/1.1/DTD/svg11.dtd">
<svg version="1.1" id="Layer_1" xmlns="http://www.w3.org/2000/svg" xmlns:xlink="http://www.w3.org/1999/xlink" x="0px" y="0px"
	 width="40px" height="40px" viewBox="0 0 40 40" enable-background="new 0 0 40 40" xml:space="preserve">
<g>
	<g>
		<g>
			<path fill="#FFFFFF" d="M0,19.999C0,31.043,8.953,40,20,40V0C8.953,0,0,8.954,0,19.999z"/>
			<path fill="#D0202D" d="M40,19.999C40,8.954,31.045,0,20,0v40C31.045,40,40,31.043,40,19.999z"/>
		</g>
		<g>
			<g>
				<path id="_x3C_Path_x3E__211_" fill="#E51D30" d="M5,11.338v2.614h2.618c0,0.439,0.435,0.871,0.871,0.871v2.62h2.619v-2.62
					c0.438,0,0.87-0.432,0.87-0.871h2.621v-2.614h-2.621c0-0.439-0.433-0.875-0.87-0.875V7.845H8.49v2.617
					c-0.437,0-0.871,0.436-0.871,0.875L5,11.338L5,11.338z"/>
				<path id="_x3C_Path_x3E__210_" fill="#D0202D" d="M5.088,11.421v2.446h2.617c0,0.433,0.436,0.871,0.872,0.871v2.616h2.441
					v-2.616c0.437,0,0.872-0.438,0.872-0.871h2.619v-2.446h-2.618c0-0.433-0.436-0.873-0.872-0.873V7.935H8.578v2.614
					c-0.437,0-0.872,0.439-0.872,0.873L5.088,11.421L5.088,11.421z"/>
				<path id="_x3C_Path_x3E__209_" fill="#96877D" d="M5.171,11.507v2.272h2.62c0,0.436,0.438,0.871,0.874,0.871v2.619h2.266V14.65
					c0.437,0,0.872-0.435,0.872-0.871h2.621v-2.272h-2.621c0-0.432-0.436-0.874-0.872-0.874V8.021H8.665v2.612
					c-0.437,0-0.874,0.442-0.874,0.874H5.171z"/>
				<path id="_x3C_Path_x3E__208_" fill="#CDCCCC" d="M5.26,11.597v2.09h2.621c0,0.439,0.433,0.873,0.869,0.873v2.619h2.096V14.56
					c0.437,0,0.873-0.433,0.873-0.873h2.615v-2.09h-2.615c0-0.438-0.437-0.871-0.873-0.871V8.109H8.75v2.617
					c-0.437,0-0.869,0.433-0.869,0.871H5.26z"/>
			</g>
			<path fill="#96887F" d="M9.74,10.812c0.197-0.01,0.394,0.013,0.586,0.073c0.296,0.086,0.571,0.254,0.788,0.474
				c0.216,0.222,0.376,0.498,0.459,0.804c0.078,0.287,0.083,0.594,0.015,0.894c-0.051,0.225-0.146,0.433-0.275,0.622
				c-0.127,0.187-0.288,0.345-0.472,0.471c-0.205,0.14-0.443,0.244-0.688,0.288c-0.311,0.057-0.631,0.037-0.931-0.063
				c-0.303-0.095-0.571-0.277-0.781-0.511c-0.203-0.229-0.352-0.506-0.42-0.802c-0.052-0.222-0.062-0.453-0.029-0.677
				c0.039-0.304,0.159-0.597,0.349-0.846c0.187-0.246,0.439-0.449,0.726-0.575C9.278,10.869,9.507,10.815,9.74,10.812L9.74,10.812z"
				/>
			<path fill="#CDCCCC" d="M9.152,10.962c0.365-0.146,0.771-0.161,1.145-0.057c0.311,0.088,0.596,0.266,0.817,0.495
				c0.198,0.208,0.345,0.465,0.423,0.744c0.085,0.306,0.095,0.633,0.013,0.941c-0.062,0.242-0.174,0.467-0.328,0.661
				c-0.131,0.174-0.3,0.317-0.482,0.433c-0.206,0.128-0.434,0.211-0.67,0.241c-0.078,0.008-0.154,0.023-0.237,0.017
				c0.015-0.012,0.018-0.034,0.018-0.047c0.009-0.036,0.009-0.065,0.01-0.101c0.041,0,0.082,0,0.124,0
				c0.022,0,0.051-0.003,0.07-0.02c0.011-0.01,0.015-0.034,0.001-0.045c-0.018-0.02-0.049-0.021-0.071-0.023
				c-0.042-0.003-0.083,0.002-0.124,0c0-0.034,0-0.065,0-0.101c-0.001-0.018-0.011-0.039-0.027-0.049
				c-0.021-0.017-0.051-0.015-0.066,0.003c-0.019,0.018-0.02,0.038-0.02,0.056c0,0.027,0,0.057,0,0.091c-0.043,0-0.082,0-0.122,0
				c-0.028,0.002-0.053,0.003-0.07,0.023c-0.015,0.01-0.015,0.036,0,0.045c0.02,0.017,0.046,0.02,0.071,0.02
				c0.039,0,0.082,0,0.121,0c0,0.029,0,0.056,0,0.083c0,0.021,0.001,0.046,0.013,0.059l0.007,0.007c-0.329,0-0.658-0.101-0.935-0.28
				c-0.264-0.169-0.481-0.407-0.625-0.685c-0.065-0.122-0.117-0.26-0.153-0.402C8,12.844,7.989,12.609,8.023,12.379
				c0.046-0.312,0.176-0.617,0.369-0.859C8.589,11.271,8.854,11.076,9.152,10.962L9.152,10.962z"/>
			<path fill="#020202" d="M9.73,10.887c0.047,0,0.095,0.008,0.144,0.008c0,0.003,0,0.01,0,0.01c-0.015,0-0.041,0-0.049,0.018
				c-0.009,0.018-0.004,0.039-0.007,0.06c-0.003,0.044-0.003,0.086-0.007,0.13c0,0.021-0.003,0.045,0.004,0.067
				c0.027,0.011,0.06,0.008,0.091,0.008c0.026,0,0.046-0.01,0.059-0.029c0.01-0.015,0.015-0.027,0.024-0.036
				c-0.005,0.036-0.018,0.057-0.027,0.091c-0.082-0.007-0.16-0.007-0.241-0.01c0-0.005,0-0.008,0-0.008
				c0.02,0,0.044-0.005,0.046-0.026c0.001-0.057,0.006-0.114,0.006-0.169c0.002-0.029,0.004-0.055,0.002-0.078
				c-0.005-0.018-0.026-0.024-0.041-0.024C9.733,10.895,9.73,10.895,9.73,10.887L9.73,10.887z"/>
			<path fill="#020202" d="M10.223,10.941c0.041,0.018,0.09,0.031,0.135,0.047c-0.016,0.013-0.032-0.006-0.049,0.002
				c-0.013,0.001-0.013,0.02-0.021,0.029c-0.021,0.065-0.043,0.132-0.063,0.197c-0.007,0.011-0.009,0.029,0.008,0.036
				c0.027,0.012,0.056,0.021,0.086,0.026c0.033,0.005,0.059-0.02,0.077-0.042c0.001,0.003,0.008,0.003,0.008,0.01
				c-0.018,0.02-0.036,0.045-0.052,0.068c-0.075-0.023-0.153-0.05-0.231-0.078c0.01-0.011,0.022,0.003,0.032-0.001
				c0.02,0.001,0.023-0.018,0.028-0.026c0.024-0.066,0.045-0.132,0.064-0.198c0.004-0.008,0.01-0.026,0.005-0.038
				c-0.005-0.01-0.018-0.016-0.032-0.021C10.218,10.947,10.223,10.942,10.223,10.941L10.223,10.941z"/>
			<path fill="#020202" d="M9.336,10.972c0-0.01,0-0.02,0.006-0.026c0.007,0,0.012,0.006,0.015,0.013
				c0.056,0.068,0.109,0.139,0.165,0.212c0.01,0.01,0.018,0.026,0.032,0.029c0.008,0.008,0.02,0.008,0.032,0.008v0.007
				c-0.04,0.01-0.079,0.021-0.12,0.031c0-0.001,0-0.006,0-0.01c0.013-0.001,0.031-0.015,0.022-0.028
				c-0.01-0.026-0.029-0.041-0.042-0.063c-0.042,0.007-0.076,0.023-0.117,0.028c-0.003,0.028-0.012,0.054-0.01,0.082
				c0.003,0.018,0.026,0.01,0.042,0.01v0.01c-0.032,0.008-0.064,0.018-0.094,0.029c0-0.02,0.016-0.02,0.02-0.029
				c0.01-0.017,0.01-0.034,0.013-0.049C9.312,11.141,9.327,11.056,9.336,10.972L9.336,10.972z"/>
			<path fill="#CDCCCC" d="M9.332,11.159c0.004-0.045,0.01-0.093,0.02-0.138c0.028,0.036,0.053,0.072,0.082,0.109
				C9.401,11.141,9.366,11.144,9.332,11.159L9.332,11.159z"/>
			<path fill="#020202" d="M8.929,11.112c0.007,0,0.013,0,0.015,0.001c0.018,0.028,0.041,0.054,0.057,0.075
				c-0.01,0.003-0.02-0.006-0.029-0.01c-0.02-0.018-0.052-0.026-0.078-0.018c-0.038,0.012-0.072,0.04-0.082,0.079
				c-0.008,0.042,0.005,0.084,0.029,0.12c0.024,0.036,0.065,0.072,0.11,0.078c0.049,0.005,0.095-0.022,0.114-0.06
				c-0.02-0.038-0.041-0.068-0.059-0.096c-0.015-0.019-0.036-0.008-0.049,0L8.95,11.276c0.029-0.02,0.058-0.037,0.087-0.057
				c0.005-0.005,0.015-0.012,0.024-0.005c-0.007,0.005-0.017,0.011-0.02,0.021c0,0.013,0.01,0.023,0.01,0.029
				c0.02,0.034,0.037,0.059,0.055,0.089c-0.025,0.046-0.074,0.088-0.13,0.104c-0.052,0.018-0.112,0.003-0.153-0.036
				c-0.054-0.045-0.068-0.137-0.032-0.203c0.029-0.041,0.068-0.068,0.114-0.078c0.01,0,0.022,0,0.029-0.01
				C8.936,11.122,8.934,11.113,8.929,11.112L8.929,11.112z"/>
			<path fill="#020202" d="M10.804,11.214c0.003,0,0.01-0.007,0.015,0c0,0.01-0.005,0.021-0.005,0.037
				c-0.02,0.068-0.034,0.139-0.049,0.207c-0.003,0.027-0.013,0.047-0.012,0.075c0.002,0.01,0.015,0.018,0.021,0.028
				c-0.003,0.003-0.01,0.003-0.013,0c-0.029-0.018-0.058-0.038-0.085-0.057c-0.007-0.005-0.007-0.01-0.007-0.016
				c0.014,0.006,0.031,0.018,0.039,0.001c0.014-0.021,0.015-0.05,0.02-0.078c-0.027-0.018-0.06-0.036-0.089-0.06
				c-0.009-0.012-0.014,0.003-0.023,0.006c-0.016,0.008-0.037,0.02-0.052,0.029c-0.008,0.019,0.01,0.031,0.02,0.038l-0.007,0.006
				c-0.027-0.02-0.055-0.038-0.083-0.054c0.01-0.011,0.023,0.001,0.033,0c0.02,0,0.032-0.011,0.047-0.02
				C10.651,11.309,10.729,11.263,10.804,11.214L10.804,11.214z"/>
			<path fill="#96887F" d="M9.751,11.244c0.196-0.01,0.398,0.027,0.579,0.099c0.271,0.107,0.501,0.306,0.656,0.552
				c0.091,0.137,0.156,0.296,0.188,0.459c0.037,0.186,0.037,0.377,0,0.566c-0.057,0.269-0.188,0.516-0.381,0.702
				c-0.188,0.188-0.427,0.325-0.681,0.381c-0.191,0.042-0.386,0.049-0.574,0.011c-0.298-0.059-0.571-0.215-0.773-0.439
				c-0.226-0.248-0.357-0.581-0.361-0.919c-0.005-0.261,0.065-0.521,0.202-0.741c0.144-0.239,0.364-0.435,0.618-0.548
				C9.391,11.291,9.572,11.251,9.751,11.244L9.751,11.244z"/>
			<path fill="#CDCCCC" d="M10.65,11.336c0.04-0.024,0.076-0.046,0.115-0.073c-0.01,0.045-0.02,0.091-0.029,0.13
				C10.706,11.377,10.677,11.357,10.65,11.336L10.65,11.336z"/>
			<path fill="#CDCCCC" d="M9.693,11.276c0.157-0.013,0.325,0.002,0.483,0.044c0.279,0.08,0.53,0.251,0.708,0.477
				c0.098,0.127,0.174,0.272,0.223,0.421c0.098,0.301,0.086,0.643-0.036,0.939c-0.099,0.241-0.273,0.459-0.488,0.604
				c-0.125,0.089-0.267,0.151-0.41,0.197c-0.325,0.091-0.677,0.055-0.978-0.093c-0.261-0.133-0.478-0.35-0.607-0.601
				c-0.095-0.179-0.145-0.368-0.153-0.565c0-0.039,0-0.08,0-0.117c0.009-0.278,0.111-0.56,0.285-0.783
				c0.174-0.221,0.412-0.391,0.682-0.472C9.496,11.302,9.591,11.283,9.693,11.276L9.693,11.276z"/>
			<path fill="#020202" d="M9.72,11.417c0.027-0.007,0.056-0.011,0.081-0.007c0.059,0.005,0.117,0.047,0.146,0.096
				c0.017,0.031,0.026,0.065,0.026,0.103c0.02-0.01,0.037-0.01,0.056,0c0.024-0.02,0.05-0.037,0.081-0.044
				c0.007,0.024,0.01,0.054,0,0.082c0.095-0.008,0.178,0.029,0.267,0.042c0.012,0,0.023,0,0.036,0.006
				c0.01,0.023,0.022,0.054,0.02,0.078c0,0.018,0,0.033-0.015,0.044c-0.012,0.016-0.032,0.008-0.041,0.018
				c-0.016,0.018-0.035,0.021-0.055,0.027c-0.034,0.038-0.073,0.083-0.114,0.121c0.032,0.038,0.062,0.077,0.083,0.124
				c0.012,0.024,0.018,0.046,0.015,0.07c0.042,0.031,0.071,0.07,0.101,0.109c0.063-0.039,0.134-0.077,0.18-0.14
				c0.045,0,0.088,0.02,0.127,0.036c0.052,0.022,0.101,0.047,0.156,0.057c0.001,0.008,0.005,0.008,0.01,0.01
				c0.05,0.042,0.099,0.085,0.149,0.121c0.002,0.006,0.007,0.01,0.005,0.01c-0.027,0.016-0.061,0.031-0.095,0.026
				c-0.022-0.01-0.04-0.021-0.052-0.041c-0.037-0.008-0.068-0.029-0.1-0.042c-0.055-0.031-0.12-0.05-0.182-0.041
				c-0.007,0.003-0.02-0.005-0.021,0.008c-0.007,0.089-0.066,0.156-0.137,0.21c0.066-0.007,0.139-0.007,0.197,0.026
				c0.06,0.052,0.123,0.103,0.182,0.15c0.01,0.008,0.019,0.016,0.02,0.026c0.033,0.054,0.067,0.112,0.098,0.167
				c-0.032,0.005-0.069-0.006-0.098-0.031c-0.02-0.02-0.029-0.038-0.039-0.062c-0.006,0.012-0.015,0.024-0.03,0.012
				c-0.009-0.01-0.021-0.026-0.028-0.041c-0.027-0.045-0.064-0.091-0.117-0.119c-0.024,0-0.049,0.006-0.071-0.005
				c-0.013-0.003-0.026-0.018-0.042-0.01c-0.075,0.021-0.15,0.052-0.229,0.062c-0.033,0.006-0.063,0.008-0.1,0.006
				c-0.017-0.006-0.036,0.006-0.051,0.011c0.01,0.02,0.021,0.051,0.034,0.068c0.003,0.013,0.013,0.021,0.023,0.027
				c0.039,0.037,0.084,0.066,0.123,0.094c0.004,0.008,0.007,0.011,0.01,0.01c0.049-0.05,0.095-0.098,0.153-0.133
				c0.029-0.015,0.062-0.029,0.093-0.015c-0.057,0.042-0.09,0.11-0.114,0.177c-0.005,0.018-0.008,0.038-0.015,0.055h0.002
				c0.021-0.022,0.054-0.037,0.085-0.027c0.045,0.015,0.074,0.057,0.115,0.08c0.015,0.013,0.032,0.015,0.049,0.008
				c0.013-0.012,0.008-0.023,0.007-0.038c-0.023-0.013-0.039-0.034-0.049-0.057c-0.023,0-0.049,0.005-0.07-0.008
				c-0.015-0.013-0.015-0.026-0.015-0.041c0.003,0,0.01,0,0.013,0c0,0-0.003,0-0.005-0.001c-0.018-0.018-0.037-0.036-0.05-0.054
				c-0.005-0.01,0-0.013,0.005-0.013c0.035,0.02,0.074,0.039,0.117,0.049c-0.028-0.02-0.061-0.042-0.07-0.078
				c-0.002-0.034,0.02-0.052,0.039-0.078c0.02-0.011,0.036-0.029,0.056-0.042c0.016,0.036,0.027,0.068,0.042,0.103
				c0.013,0,0.026,0.003,0.046,0.003c0.003,0.003,0.003,0.007,0.006,0.013c0.02,0.031,0.039,0.065,0.056,0.099
				c0.017,0,0.036,0,0.054,0.007c0,0.011,0,0.02-0.003,0.031c0.024,0,0.047,0,0.069,0c-0.006,0.008-0.022,0.016-0.032,0.028
				c0.017,0.005,0.029,0.018,0.042,0.027c-0.022,0.008-0.042,0.008-0.064,0.005c0.003,0.015,0.003,0.029,0.003,0.042
				c-0.026-0.008-0.051-0.021-0.073-0.034c-0.015,0.044-0.044,0.089-0.086,0.109c-0.028,0.017-0.059,0.01-0.083-0.005
				c-0.033-0.015-0.058-0.041-0.09-0.052c-0.013-0.008-0.022,0.008-0.02,0.018c-0.003,0.021,0.013,0.039,0.024,0.063
				c0.027,0.046,0.066,0.088,0.08,0.145c0.039-0.028,0.078-0.057,0.117-0.083c0-0.039,0.006-0.082,0.022-0.116
				c0.005-0.018,0.02-0.027,0.034-0.036c0.008,0.008,0.018,0.016,0.021,0.023c0.021,0,0.038,0.01,0.046,0.032
				c0.005,0,0.015,0,0.018,0.01c0.007,0.01,0.007,0.024,0.009,0.036c-0.017,0.003-0.039,0.006-0.058,0.013
				c-0.02,0.036-0.032,0.073-0.059,0.101c-0.032,0.049-0.071,0.094-0.113,0.132c0.021,0.018,0.042,0.038,0.069,0.034
				c0.031-0.016,0.031-0.054,0.034-0.084c0.017,0,0.017,0.013,0.026,0.021c0.003,0.01,0.013,0.006,0.013,0.006
				c0.009,0.003,0.009,0.01,0.01,0.013c0.004,0.015,0.014,0.018,0.026,0.02c-0.022,0.049-0.068,0.082-0.117,0.089
				c-0.056,0.002-0.11-0.027-0.156-0.052c-0.015,0-0.026,0.011-0.042,0.013c-0.014,0.002-0.024,0-0.029,0.008
				c-0.007,0.003-0.014,0.01-0.02,0.015c0.066,0.038,0.133,0.07,0.201,0.109c-0.035,0.028-0.073,0.056-0.107,0.083
				c-0.008,0.005-0.013,0.015-0.024,0.015c-0.262,0-0.522,0-0.787,0c-0.041,0-0.08,0-0.119,0c-0.14,0-0.276,0-0.413,0
				c-0.046,0-0.088-0.005-0.131,0c-0.013,0-0.022,0-0.027-0.005c-0.037-0.032-0.076-0.065-0.109-0.094
				c0.095,0.001,0.186,0.005,0.277,0.013c0.01,0.005,0.02,0,0.027,0c-0.024,0-0.046-0.008-0.07-0.012
				c-0.101-0.015-0.205-0.036-0.309-0.045c0-0.005,0.003-0.011,0.003-0.013c0.098,0,0.193,0.005,0.29,0.005
				c0.059-0.005,0.12-0.01,0.182-0.013c0.017-0.02,0.034-0.042,0.049-0.062c0.007-0.001,0.01-0.005,0.017-0.005
				c0.046-0.006,0.093-0.011,0.137-0.016c0.008,0,0.013-0.008,0.017-0.015c0.013-0.018,0.022-0.029,0.029-0.041
				c-0.039-0.024-0.08-0.037-0.127-0.044c-0.023-0.005-0.048-0.003-0.073-0.018c-0.014-0.002-0.017-0.018-0.015-0.029
				c0.003-0.065,0.042-0.127,0.032-0.189c-0.085-0.021-0.161-0.062-0.225-0.121c-0.037-0.034-0.066-0.075-0.091-0.12
				c-0.02,0.013-0.041,0.018-0.065,0.013c-0.052-0.006-0.095-0.044-0.146-0.062c-0.017-0.007-0.039,0-0.051,0.011
				c-0.008,0.006,0.004,0.021,0.005,0.031c0.033,0.042,0.072,0.07,0.095,0.112c0.013,0.024,0.013,0.061-0.007,0.082
				c-0.018,0.028-0.045,0.045-0.078,0.06c0.007,0.023,0.015,0.054,0.041,0.065c-0.008,0-0.018,0-0.027,0
				c0.01,0.026,0.02,0.052,0.02,0.081c-0.01,0.02-0.02,0.028-0.036,0.036c-0.017,0.001-0.039,0.001-0.059,0.001
				c-0.01,0.041-0.022,0.082-0.008,0.112c-0.012,0-0.024,0-0.031-0.011c-0.012-0.012-0.013-0.031-0.013-0.047
				c-0.014,0.001-0.023,0-0.033-0.006c-0.005-0.021-0.01-0.039-0.018-0.062c0-0.016,0.005-0.033,0.005-0.052
				c-0.013-0.011-0.034-0.018-0.042-0.037c-0.014-0.02-0.02-0.046-0.004-0.07c0.015-0.024,0.044-0.034,0.068-0.05
				c0.02-0.011,0.043-0.021,0.053-0.049c0.003-0.018-0.014-0.038-0.02-0.05C8.748,12.914,8.73,12.856,8.733,12.8
				c0.002-0.039,0.015-0.076,0.048-0.094c0.022-0.018,0.052-0.018,0.079-0.013c0.07,0.018,0.132,0.057,0.204,0.077
				c0.018,0,0.035,0,0.055,0c0.02-0.082,0.075-0.156,0.15-0.207c-0.043-0.034-0.083-0.07-0.122-0.101
				c-0.009-0.006-0.019-0.015-0.028-0.016c-0.024-0.006-0.043-0.009-0.061-0.026c-0.012-0.005-0.023-0.01-0.028-0.02
				c-0.011-0.007-0.021-0.018-0.021-0.033c-0.019-0.02-0.048-0.036-0.041-0.07c0.02-0.01,0.041,0,0.062,0.005
				c0.014-0.028,0.005-0.056,0.014-0.082c-0.062,0.044-0.107,0.102-0.17,0.143c-0.029,0.02-0.064,0.031-0.103,0.021
				c-0.039-0.006-0.071-0.041-0.099-0.071c0.013,0,0.024-0.003,0.032-0.01c0.007-0.008,0.01-0.02,0.01-0.028
				c0-0.003-0.003-0.01-0.003-0.015c-0.021,0.011-0.046,0.015-0.067,0.005c-0.015-0.01-0.018-0.028-0.018-0.047
				c0-0.019,0.013-0.042,0.013-0.065c0.005-0.039,0.01-0.084,0.033-0.122c0.015-0.019,0.037-0.029,0.06-0.038
				c-0.013-0.029-0.005-0.062,0.005-0.094c0.014-0.038,0.034-0.072,0.067-0.084c0.022-0.013,0.05-0.01,0.069-0.005
				c0.01-0.039,0.024-0.07,0.056-0.098c0.013-0.015,0.029-0.02,0.049-0.02c0.015-0.042,0.052-0.073,0.093-0.078
				c0.015-0.002,0.024,0.011,0.041,0.011c0.039,0.02,0.078,0.029,0.12,0.038c0.01-0.029,0.036-0.054,0.068-0.062
				c0.018-0.005,0.036-0.003,0.052-0.008c0.01-0.013,0.026-0.032,0.044-0.039c0.034-0.013,0.077-0.006,0.112,0.007
				c0.024-0.013,0.056-0.01,0.083-0.01C9.61,11.488,9.662,11.437,9.72,11.417L9.72,11.417z"/>
			<path fill="#96887F" d="M9.688,11.444c0.045-0.026,0.104-0.033,0.154-0.013c0.061,0.02,0.105,0.075,0.119,0.14
				c0.003,0.018,0.008,0.039-0.007,0.055c-0.026,0.044-0.049,0.091-0.08,0.133c0.002-0.02,0.005-0.042,0.019-0.057
				c0.029-0.038,0.016-0.088-0.01-0.122c-0.036-0.056-0.119-0.075-0.175-0.038c-0.011,0.008-0.022,0.021-0.034,0.038
				c-0.021-0.01-0.049-0.02-0.071-0.026C9.616,11.507,9.647,11.468,9.688,11.444L9.688,11.444z"/>
			<path fill="#020202" d="M11.097,11.461c0.007,0,0.012,0.007,0.017,0.01c0.013,0.019,0.029,0.042,0.042,0.057
				c-0.022,0.098-0.049,0.195-0.073,0.296c0.051-0.046,0.107-0.08,0.159-0.124c0.019-0.015,0-0.037-0.008-0.05
				c0.007,0,0.008,0,0.012,0.005c0.02,0.021,0.039,0.05,0.057,0.077c0.003,0,0,0.008,0,0.013c-0.01-0.013-0.017-0.022-0.026-0.027
				c-0.013-0.005-0.022,0.006-0.034,0.015c-0.071,0.047-0.138,0.101-0.208,0.151c-0.004,0.006-0.019,0.002-0.014-0.004
				c0.027-0.104,0.052-0.205,0.078-0.309c-0.051,0.037-0.098,0.075-0.148,0.106c-0.012,0.01-0.024,0.019-0.029,0.034
				c0,0.011,0.008,0.021,0.017,0.032c-0.004,0.003-0.007,0.005-0.007,0.005c-0.022-0.027-0.044-0.055-0.066-0.086
				c0.001-0.003,0.005-0.008,0.005-0.008c0.01,0.008,0.015,0.02,0.027,0.022c0.015,0.006,0.024-0.008,0.041-0.015
				c0.055-0.041,0.113-0.083,0.171-0.127c0-0.013,0.006-0.029,0.001-0.041C11.109,11.488,11.104,11.476,11.097,11.461L11.097,11.461
				z"/>
			<path fill="#96887F" d="M9.678,11.588c0.022-0.027,0.052-0.052,0.089-0.055c0.044,0,0.092,0.026,0.112,0.062
				c0.014,0.017,0.017,0.041,0.02,0.06c-0.02,0-0.04,0-0.062-0.005c-0.052-0.005-0.098-0.028-0.146-0.028
				c-0.017,0-0.029,0.003-0.046,0.012C9.61,11.65,9.572,11.665,9.54,11.688c-0.012,0.008-0.022,0.02-0.037,0.029
				c-0.046,0-0.087-0.023-0.131-0.041c-0.042-0.013-0.081-0.021-0.123-0.026c0.022-0.036,0.069-0.042,0.113-0.042
				c0.009-0.02,0.023-0.037,0.046-0.047c0.036-0.01,0.071,0,0.104,0.01c0.022-0.012,0.055-0.01,0.081-0.01
				C9.624,11.571,9.652,11.581,9.678,11.588L9.678,11.588z"/>
			<path fill="#96887F" d="M10.039,11.608c0.02-0.011,0.04-0.022,0.062-0.027c0.01,0.027,0.005,0.054-0.01,0.075
				c0.107-0.01,0.205,0.038,0.312,0.045c0.017,0.031,0.029,0.072,0.013,0.104c-0.006,0.011-0.025,0.01-0.035,0.01
				c-0.014,0.013-0.028,0.022-0.044,0.027c0.011-0.015,0.024-0.027,0.034-0.045c-0.014-0.001-0.033-0.001-0.046-0.001
				c-0.015,0.02-0.026,0.032-0.039,0.047c-0.017,0.01-0.031,0.015-0.046,0.021c-0.035,0.016-0.078,0.026-0.12,0.029
				c0.018,0.021,0.036,0.044,0.056,0.063c-0.085,0.075-0.18,0.14-0.283,0.177c-0.009-0.028-0.014-0.055-0.023-0.083
				c-0.02-0.045-0.01-0.091,0.005-0.137c0.021-0.072,0.067-0.127,0.109-0.186c0.02-0.033,0.042-0.063,0.056-0.094
				C10.045,11.626,10.042,11.618,10.039,11.608L10.039,11.608z"/>
			<path fill="#96887F" d="M9.974,11.618c0.02-0.008,0.044-0.01,0.056,0.005c-0.007,0.028-0.026,0.054-0.044,0.078
				c-0.044,0.068-0.097,0.132-0.119,0.208c-0.018,0.05-0.024,0.104-0.007,0.151c0.01,0.028,0.015,0.049,0.02,0.075
				c-0.011,0.008-0.025,0.01-0.037,0.013c-0.012-0.039-0.024-0.08-0.036-0.117c-0.008-0.026-0.005-0.044-0.005-0.067
				c0-0.037,0.005-0.07,0.005-0.103c0.021-0.02,0.048-0.034,0.062-0.06C9.903,11.74,9.94,11.678,9.974,11.618L9.974,11.618z"/>
			<path fill="#96887F" d="M8.991,11.701c0.007-0.037,0.034-0.063,0.072-0.075c0.02-0.003,0.035,0.011,0.055,0.02
				c0.095,0.031,0.194,0.047,0.295,0.062c0.018,0.005,0.042,0.015,0.061,0.016c0.016,0.008,0.035,0.005,0.057,0.008
				c-0.018,0.001-0.032,0.008-0.049,0.016c-0.037,0.013-0.08,0.031-0.11,0.067c-0.014,0.006-0.019,0.018-0.024,0.027
				c-0.036,0.015-0.068,0.044-0.088,0.077c-0.014,0.003-0.026,0.005-0.036,0.016c-0.029,0.021-0.049,0.052-0.07,0.085
				c-0.011,0.02-0.034,0.021-0.044,0.039c-0.039,0.041-0.054,0.094-0.067,0.149c-0.047,0.03-0.087,0.076-0.127,0.113
				c-0.033,0.028-0.072,0.057-0.114,0.057s-0.081-0.029-0.109-0.057c0.012-0.008,0.021-0.011,0.028-0.026
				c0.006-0.015,0.003-0.034-0.002-0.049c-0.018,0.01-0.037,0.015-0.061,0.01c-0.01,0-0.02-0.01-0.022-0.021
				c-0.003-0.026,0.015-0.054,0.018-0.083c0.002-0.038,0.005-0.083,0.033-0.121c0.015-0.019,0.04-0.028,0.069-0.028
				c-0.024-0.02-0.022-0.055-0.015-0.08c0.009-0.044,0.029-0.086,0.07-0.099c0.026-0.015,0.057-0.01,0.081,0.001
				c-0.016-0.024,0.004-0.05,0.014-0.067C8.924,11.729,8.952,11.698,8.991,11.701L8.991,11.701z"/>
			<path fill="#96887F" d="M9.664,11.637c0.082-0.015,0.153,0.033,0.231,0.029c-0.003,0.018-0.017,0.029-0.022,0.046
				c-0.005,0.02-0.007,0.047-0.015,0.068c-0.012,0-0.026-0.002-0.034-0.005c-0.019,0.021-0.039,0.049-0.067,0.049
				c-0.01,0.003-0.018,0.011-0.027,0.013c-0.007-0.001-0.013-0.005-0.02-0.01c-0.032-0.022-0.063-0.049-0.091-0.078
				c0.015-0.01,0.032-0.018,0.045-0.032C9.674,11.693,9.657,11.66,9.664,11.637L9.664,11.637z"/>
			<path fill="#96887F" d="M9.606,11.664c0.017-0.008,0.029-0.015,0.046-0.018c0,0.018,0.005,0.038,0.005,0.057
				c0,0.01-0.008,0.015-0.015,0.021C9.629,11.706,9.616,11.685,9.606,11.664L9.606,11.664z"/>
			<path fill="#CDCCCC" d="M9.23,11.665c0.048-0.01,0.097,0.01,0.142,0.023C9.323,11.685,9.278,11.67,9.23,11.665L9.23,11.665z"/>
			<path fill="#CDCCCC" d="M9.522,11.715c0.02-0.021,0.049-0.032,0.074-0.049c0.01,0.026,0.023,0.046,0.036,0.065
				c-0.007,0-0.01,0.008-0.017,0.008C9.585,11.732,9.554,11.724,9.522,11.715L9.522,11.715z"/>
			<path fill="#96887F" d="M9.473,11.761c0.032-0.012,0.066-0.029,0.101-0.021c0.018,0,0.032,0.01,0.042,0.021
				c0.026,0.034,0.059,0.054,0.093,0.076c0.024,0.024,0.058,0.028,0.087,0.042c0,0.015,0,0.028,0,0.039
				c-0.01-0.02-0.029-0.029-0.044-0.039c-0.024-0.023-0.061-0.023-0.09-0.016c0.007,0.016,0.021,0.026,0.039,0.036
				c0.003,0.001,0.01,0.011,0.018,0.02c0.019,0.005,0.029,0.018,0.051,0.026c0.003,0.003,0.005,0.01,0.005,0.015
				c-0.01,0.015-0.01,0.029-0.015,0.044c-0.004,0.047-0.006,0.102,0.016,0.141c0.01,0.026,0.03,0.036,0.052,0.038
				c0,0.036-0.003,0.063-0.007,0.093c-0.049-0.047-0.113-0.08-0.159-0.132c-0.021-0.024-0.046-0.047-0.047-0.083
				c-0.009-0.047-0.009-0.101-0.034-0.146c-0.029-0.041-0.068-0.072-0.1-0.117C9.476,11.787,9.473,11.776,9.473,11.761L9.473,11.761
				z"/>
			<path fill="#96887F" d="M9.372,11.821c0.026-0.026,0.058-0.041,0.088-0.052c0.005,0.012,0.007,0.026,0.014,0.036
				c0.029,0.047,0.068,0.075,0.098,0.119c0.029,0.05,0.021,0.107,0.039,0.165c0.021,0.05,0.062,0.088,0.104,0.12
				c0.031,0.02,0.059,0.039,0.086,0.067c0,0.023,0,0.045-0.003,0.073c0.09,0,0.181,0.029,0.241,0.088
				c0.015,0.013,0.013,0.036,0.016,0.049c0.021,0.091,0.056,0.174,0.095,0.257c0.007,0.015,0.017,0.034,0.031,0.044
				c0.054,0.05,0.11,0.089,0.166,0.133c0.015,0.013,0.024,0.024,0.034,0.038c-0.036,0.003-0.075-0.005-0.111-0.02
				c-0.015-0.002-0.029-0.013-0.037-0.028c0,0.003-0.005,0.01-0.005,0.01c-0.017,0-0.039,0-0.056-0.01
				c-0.015-0.01-0.013-0.031-0.013-0.047c-0.068-0.045-0.13-0.104-0.168-0.171c-0.03-0.052-0.047-0.11-0.04-0.172
				c-0.041,0.005-0.085,0-0.131-0.001c-0.078-0.015-0.156-0.033-0.232-0.051c-0.015-0.001-0.029-0.006-0.037-0.018
				c-0.029-0.024-0.046-0.062-0.062-0.095c-0.02-0.042-0.034-0.089-0.042-0.137c-0.031-0.031-0.049-0.075-0.049-0.119
				c-0.002-0.041,0.01-0.094,0.039-0.13c-0.007-0.003-0.008-0.005-0.01-0.005c-0.024,0.029-0.052,0.067-0.091,0.08
				c-0.019,0.015-0.039,0.015-0.059,0.015c-0.019,0.065-0.072,0.112-0.117,0.154c-0.017,0.018-0.023,0.042-0.023,0.07
				c-0.007,0.027,0.008,0.05,0.028,0.066c0.014,0.005,0.017,0.02,0.019,0.034c-0.015-0.005-0.029-0.015-0.048-0.02
				c-0.006,0.022,0,0.045,0,0.067c-0.02,0.005-0.042,0-0.059-0.005c-0.008-0.005-0.01-0.012-0.013-0.017
				C9.052,12.41,9.043,12.4,9.038,12.386c-0.02,0-0.024-0.018-0.02-0.033c0.005-0.021,0.024-0.041,0.024-0.059
				c0.01-0.06,0.015-0.119,0.037-0.169c0.01-0.027,0.022-0.049,0.044-0.066c0.013-0.013,0.026-0.018,0.036-0.028
				c0.02-0.036,0.039-0.067,0.069-0.089c0.01-0.007,0.024-0.01,0.038-0.01c0.016-0.039,0.045-0.068,0.088-0.078
				C9.362,11.842,9.362,11.828,9.372,11.821L9.372,11.821z"/>
			<path fill="#CDCCCC" d="M9.759,11.834c0.031-0.002,0.052-0.024,0.068-0.044c0.012,0.005,0.021,0.005,0.032,0.005
				c-0.013,0.026-0.042,0.039-0.064,0.059c0,0.003,0,0.01,0,0.016c-0.015-0.008-0.031-0.018-0.049-0.028
				C9.751,11.842,9.756,11.836,9.759,11.834L9.759,11.834z"/>
			<path fill="#96887F" d="M10.329,11.805c0.009,0,0.017,0,0.023,0c-0.095,0.122-0.209,0.234-0.342,0.303
				c-0.053,0.027-0.109,0.055-0.168,0.063c-0.021,0.005-0.044-0.007-0.057-0.028c-0.017-0.026-0.019-0.062-0.017-0.098
				c0.003-0.026-0.002-0.057,0.013-0.082c0.004,0.023,0,0.041,0,0.067c0,0.029,0,0.06,0.01,0.093
				c0.004,0.011,0.01,0.024,0.026,0.031c0.013,0.01,0.029,0.008,0.041,0c0.127-0.041,0.242-0.115,0.343-0.208
				C10.246,11.904,10.288,11.857,10.329,11.805L10.329,11.805z"/>
			<path fill="#CDCCCC" d="M10.143,11.899c0.043-0.005,0.09-0.016,0.127-0.038c-0.025,0.031-0.055,0.061-0.084,0.086
				C10.172,11.935,10.157,11.919,10.143,11.899L10.143,11.899z"/>
			<path fill="#96887F" d="M9.678,11.874c0.025-0.003,0.055,0.003,0.069,0.02c0.012,0.008,0.031,0.015,0.034,0.029
				c0.017,0.01,0.014,0.024,0.01,0.039c-0.006-0.007-0.011-0.017-0.015-0.024c-0.013-0.002-0.029-0.013-0.037-0.026
				c-0.015-0.001-0.027-0.011-0.032-0.024C9.698,11.883,9.688,11.88,9.678,11.874L9.678,11.874z"/>
			<path fill="#020202" d="M11.343,11.966c0.024-0.005,0.044-0.012,0.066-0.021c0.029,0.078,0.059,0.155,0.085,0.231
				c0,0.005,0.003,0.015,0,0.015c-0.023,0.008-0.046,0.018-0.068,0.027c-0.002-0.011,0.01-0.015,0.016-0.021
				c0.017-0.008,0.026-0.029,0.019-0.047c-0.002-0.018-0.012-0.034-0.019-0.052c-0.074,0.028-0.149,0.049-0.228,0.078
				c-0.012,0.007-0.026,0.008-0.029,0.024c0,0.01,0.003,0.02,0.005,0.031c0,0-0.002,0-0.005,0.001
				c-0.017-0.041-0.032-0.086-0.042-0.125c0.006,0,0.01,0.008,0.013,0.018c0.005,0.01,0.013,0.02,0.024,0.011
				c0.02-0.001,0.037-0.01,0.057-0.016c0.062-0.023,0.131-0.042,0.189-0.068c-0.012-0.026-0.012-0.062-0.044-0.077
				C11.368,11.969,11.348,11.982,11.343,11.966L11.343,11.966z"/>
			<path fill="#020202" d="M8.204,11.974c0.035-0.026,0.083-0.008,0.101,0.028c0.01,0.021,0.01,0.044,0.01,0.067
				c0.039-0.01,0.076-0.023,0.117-0.029c0.02-0.008,0.039-0.02,0.052-0.038c0.007-0.008,0.01-0.018,0.021-0.018
				c-0.005,0.029-0.02,0.056-0.029,0.085c-0.057,0.013-0.117,0.027-0.174,0.045c-0.004,0.011-0.007,0.02-0.01,0.029
				c0.032,0.01,0.069,0.028,0.107,0.038c0.02,0.006,0.029-0.017,0.034-0.033l0.008,0.003c-0.015,0.041-0.031,0.083-0.046,0.124
				c-0.005,0-0.006,0-0.006,0c0-0.015,0.01-0.029-0.004-0.044c-0.006-0.003-0.016-0.01-0.027-0.013
				c-0.062-0.027-0.127-0.047-0.19-0.075c-0.012,0-0.022-0.01-0.036-0.005c-0.01,0.005-0.015,0.016-0.02,0.033
				c-0.003,0-0.006,0-0.006,0c0.011-0.046,0.029-0.083,0.045-0.125C8.161,12.017,8.174,11.984,8.204,11.974L8.204,11.974z"/>
			<path fill="#96887F" d="M9.896,12.171c0.115-0.038,0.218-0.103,0.306-0.184c0.026,0.038,0.059,0.082,0.082,0.121
				c0.008,0.022,0.02,0.045,0.008,0.073c0.047,0.027,0.08,0.075,0.112,0.122c0.066-0.042,0.137-0.085,0.188-0.147
				c0.038,0.008,0.072,0.018,0.107,0.033c0.053,0.021,0.104,0.047,0.16,0.06c0.01,0.008,0.02,0.018,0.029,0.024
				c0.037,0.031,0.074,0.062,0.113,0.091c0.007,0.005,0.014,0.005,0.014,0.015c-0.028,0.01-0.059,0.023-0.085,0.01
				c-0.02-0.005-0.029-0.02-0.039-0.036c-0.039-0.003-0.068-0.031-0.107-0.046c-0.062-0.034-0.137-0.05-0.21-0.031
				c-0.002,0.073-0.047,0.135-0.1,0.186c-0.016,0.013-0.034,0.024-0.052,0.041v0.003c0.026,0.006,0.047-0.001,0.071,0
				c0.046,0,0.088,0.006,0.127,0.02c0.019,0.011,0.029,0.02,0.043,0.033c0.052,0.041,0.104,0.083,0.159,0.125
				c0.003,0.005,0.012,0.01,0.013,0.023c0.033,0.05,0.062,0.101,0.092,0.15c-0.026,0-0.054-0.007-0.072-0.028
				c-0.029-0.021-0.037-0.059-0.049-0.084c-0.003,0.011-0.01,0.026-0.02,0.041c-0.013-0.008-0.016-0.023-0.022-0.034
				c-0.032-0.057-0.075-0.107-0.134-0.132c-0.024,0.001-0.054,0.005-0.078-0.008c-0.01-0.005-0.016-0.016-0.027-0.011
				c-0.056,0.015-0.105,0.034-0.158,0.052c-0.059,0.013-0.118,0.024-0.179,0.018c-0.02-0.003-0.036,0.007-0.056,0.015
				c-0.029-0.063-0.052-0.127-0.064-0.197c-0.005-0.013-0.005-0.031-0.014-0.045c-0.059-0.065-0.149-0.1-0.237-0.1
				c0.013-0.024,0.015-0.045,0.024-0.07C9.869,12.238,9.901,12.208,9.896,12.171L9.896,12.171z"/>
			<path fill="#CDCCCC" d="M8.192,12.02c0.031-0.018,0.08,0,0.093,0.039c0.012,0.022,0,0.05-0.01,0.076
				c-0.037-0.011-0.078-0.029-0.115-0.044C8.161,12.069,8.167,12.04,8.192,12.02L8.192,12.02z"/>
			<path fill="#96887F" d="M9.342,12.059c0.023-0.013,0.043-0.028,0.061-0.044c-0.008,0.016-0.022,0.031-0.041,0.045
				c-0.032,0.031-0.071,0.054-0.112,0.073c0.019-0.02,0.028-0.042,0.036-0.065C9.307,12.069,9.327,12.065,9.342,12.059L9.342,12.059
				z"/>
			<path fill="#96887F" d="M9.795,12.023c0.01,0.046,0.025,0.085,0.035,0.129c-0.01-0.008-0.022-0.017-0.025-0.026
				C9.795,12.096,9.795,12.059,9.795,12.023L9.795,12.023z"/>
			<path fill="#CDCCCC" d="M9.235,12.153c0.056-0.028,0.111-0.057,0.156-0.103c-0.011,0.057,0,0.125,0.046,0.167
				c0.01,0.077,0.036,0.144,0.075,0.207c0.01,0.011,0.022,0.029,0.037,0.041c-0.061,0.015-0.119,0.026-0.174,0.047
				c-0.063-0.041-0.127-0.083-0.19-0.122c0.003,0,0.008-0.003,0.008-0.003c0.007-0.02-0.003-0.039-0.02-0.047
				c-0.026-0.02-0.032-0.045-0.026-0.07c0.009-0.023,0.01-0.042,0.029-0.057C9.196,12.196,9.215,12.173,9.235,12.153L9.235,12.153z"
				/>
			<path fill="#96887F" d="M9.842,12.183c0.017-0.001,0.031-0.006,0.046-0.01c-0.004,0.01-0.004,0.02-0.009,0.034
				c-0.011,0.021-0.029,0.039-0.047,0.054C9.837,12.235,9.839,12.208,9.842,12.183L9.842,12.183z"/>
			<path fill="#CDCCCC" d="M9.811,12.323c0-0.01,0-0.026,0-0.039c0.005,0.005,0.01,0.006,0.014,0.011
				C9.821,12.306,9.816,12.313,9.811,12.323L9.811,12.323z"/>
			<path fill="#96887F" d="M8.971,12.306c0.02,0,0.038,0.003,0.053,0.007c-0.01,0.015-0.015,0.027-0.017,0.039
				C8.993,12.34,8.981,12.323,8.971,12.306L8.971,12.306z"/>
			<path fill="#96887F" d="M9.146,12.378c0.099,0.062,0.193,0.125,0.291,0.189c0.013,0.008,0.022,0.018,0.029,0.029
				c0.022,0.036,0.049,0.068,0.07,0.105c-0.048-0.015-0.093-0.034-0.141-0.047c-0.021-0.005-0.034-0.021-0.047-0.034
				c-0.071-0.059-0.137-0.119-0.205-0.176C9.151,12.425,9.146,12.401,9.146,12.378L9.146,12.378z"/>
			<path fill="#020202" d="M8.174,12.411c0.029-0.005,0.062,0,0.089,0.01c0.043,0.016,0.08,0.054,0.095,0.099
				c0.008,0.042,0.003,0.089-0.021,0.127c-0.025,0.041-0.073,0.065-0.117,0.065c-0.025,0-0.049,0-0.073-0.006
				c-0.034-0.013-0.066-0.031-0.083-0.065c-0.029-0.042-0.032-0.096-0.015-0.142C8.075,12.45,8.123,12.414,8.174,12.411
				L8.174,12.411z"/>
			<path fill="#020202" d="M11.537,12.414h0.01c0,0.052,0.008,0.104,0.008,0.161c0,0.021-0.008,0.046-0.027,0.062
				c-0.024,0.028-0.066,0.031-0.095,0.01c-0.022-0.015-0.032-0.038-0.037-0.062c-0.027,0.024-0.057,0.047-0.083,0.07
				c-0.017,0.013-0.029,0.021-0.039,0.037c-0.01,0.013-0.013,0.031-0.013,0.051c0,0-0.007-0.008-0.009-0.008
				c0-0.024-0.006-0.052-0.001-0.08c0.042-0.038,0.088-0.073,0.135-0.111c0-0.011,0-0.024,0-0.039
				c-0.021,0.006-0.042,0.008-0.068,0.008c-0.017,0-0.037,0-0.054,0.005c-0.013,0.006-0.012,0.026-0.012,0.044h-0.01
				c-0.001-0.044-0.001-0.09-0.008-0.137c0.007,0,0.007,0,0.012,0.005c0,0.015,0,0.031,0.015,0.037c0.022,0.005,0.042,0,0.063,0
				c0.044-0.006,0.091-0.006,0.137-0.006c0.021,0,0.044,0,0.062-0.006C11.539,12.446,11.537,12.425,11.537,12.414L11.537,12.414z"/>
			<path fill="#CDCCCC" d="M8.138,12.467c0.036-0.006,0.075-0.006,0.11,0c0.023,0.005,0.056,0.013,0.073,0.036
				c0.026,0.029,0.031,0.073,0.012,0.105c-0.013,0.023-0.037,0.041-0.063,0.046c-0.041,0.013-0.083,0.01-0.125,0
				c-0.029-0.004-0.059-0.022-0.078-0.045c-0.019-0.027-0.019-0.065-0.002-0.096C8.08,12.485,8.109,12.472,8.138,12.467
				L8.138,12.467z"/>
			<path fill="#96887F" d="M9.39,12.518c0.057-0.02,0.112-0.033,0.172-0.044c0.067,0.011,0.139,0.031,0.204,0.044
				c0.059,0.006,0.117,0.018,0.179,0.015c-0.01,0.08,0.024,0.158,0.073,0.216c-0.063,0.05-0.129,0.091-0.207,0.106
				c-0.021,0.006-0.042-0.007-0.064-0.002c-0.021,0-0.043,0-0.065,0.002c-0.007,0.037-0.007,0.075-0.02,0.107
				c-0.007,0.013-0.02,0.027-0.032,0.032c0.018,0.026,0.006,0.063-0.004,0.09C9.613,13.123,9.594,13.16,9.56,13.18
				c0.012,0.049,0.044,0.086,0.083,0.106c0.026,0.02,0.059,0.038,0.086,0.054c0.023-0.008,0.051-0.016,0.073-0.008
				c0.029,0.008,0.046,0.028,0.058,0.047c0.021,0.033,0.037,0.068,0.052,0.101c-0.031,0-0.063,0.003-0.095,0
				c-0.021-0.008-0.03-0.023-0.047-0.033c-0.01-0.006-0.018-0.006-0.026-0.006c-0.057-0.047-0.12-0.091-0.196-0.114
				c-0.029-0.013-0.065-0.015-0.097-0.015c0,0-0.022-0.001-0.025-0.016c-0.005-0.02,0.005-0.047,0.013-0.065
				c0.01-0.049,0.029-0.098,0.018-0.148c-0.076-0.015-0.147-0.052-0.206-0.104c-0.049-0.041-0.092-0.086-0.112-0.146
				c-0.009-0.018-0.015-0.038-0.009-0.057c0.023-0.083,0.072-0.158,0.146-0.2c0.023,0.015,0.039,0.034,0.062,0.052
				c0.02,0.013,0.034,0.031,0.055,0.038c0.058,0.02,0.116,0.041,0.173,0.057c-0.027-0.041-0.057-0.084-0.085-0.128
				c-0.01-0.011-0.015-0.026-0.03-0.031C9.429,12.544,9.405,12.536,9.39,12.518L9.39,12.518z"/>
			<path fill="#CDCCCC" d="M11.4,12.505c0.042,0,0.085-0.003,0.127-0.003c0.01,0.023,0.013,0.054,0,0.075
				c-0.022,0.036-0.075,0.042-0.104,0.013C11.403,12.567,11.4,12.536,11.4,12.505L11.4,12.505z"/>
			<path fill="#96887F" d="M10.599,12.76c0.018-0.029,0.042-0.049,0.068-0.068c0.017,0.031,0.029,0.063,0.042,0.095
				c0.014,0,0.029,0,0.046,0c0.02,0.037,0.039,0.075,0.059,0.105c0.003,0.015,0.012,0.026,0.01,0.038
				c-0.007,0.045-0.022,0.094-0.052,0.132c-0.02,0.026-0.049,0.045-0.08,0.045c-0.041-0.01-0.075-0.039-0.109-0.057
				c-0.013-0.008-0.025-0.013-0.039-0.008c-0.011,0.006-0.021,0.02-0.016,0.036c0.005,0.02,0.013,0.029,0.021,0.047
				c0.022,0.038,0.052,0.077,0.071,0.119c0.009,0.013,0.01,0.033,0.014,0.051c0.042-0.026,0.081-0.056,0.122-0.086
				c0.005-0.003,0.015-0.006,0.015-0.015c0-0.036,0.003-0.07,0.018-0.106c0.005-0.013,0.015-0.026,0.024-0.029
				c0.013-0.001,0.017,0.01,0.013,0.021c0.01,0,0.023-0.005,0.038,0c0.006,0.005,0.01,0.018,0.013,0.027c0.007,0,0.012,0,0.02,0
				c0.002,0.013,0.005,0.018,0.008,0.026c-0.022,0.003-0.04,0.007-0.06,0.012c-0.011,0.024-0.022,0.049-0.039,0.075
				c-0.035,0.062-0.078,0.119-0.133,0.16c-0.017-0.01-0.033-0.028-0.048-0.047c0,0.002-0.01,0.007-0.01,0.008
				c0.023,0.029,0.051,0.054,0.083,0.072c0.02,0.015,0.043,0.029,0.062,0.02c0.022-0.015,0.027-0.044,0.032-0.072
				c0.01,0.01,0.02,0.016,0.029,0.02c0.003,0.01,0.012,0.02,0.022,0.028c-0.022,0.042-0.069,0.073-0.113,0.068
				c-0.059,0-0.114-0.034-0.163-0.068c0,0.003-0.005,0.005-0.005,0.01c0.003,0,0.008,0.006,0.015,0.01
				c-0.02,0.01-0.039,0.015-0.062,0.015c-0.02,0.016-0.038,0.031-0.062,0.029c-0.018,0.018-0.042,0.01-0.064,0.01
				c-0.02,0.008-0.033,0.015-0.049,0.01c-0.015,0-0.026-0.007-0.039-0.01c-0.029,0.01-0.059,0.018-0.09,0.018
				c0-0.008,0.002-0.022,0-0.031c-0.005-0.008-0.008-0.016-0.015-0.02c0-0.011,0.003-0.024,0-0.036
				c-0.01-0.013-0.024-0.013-0.036-0.013c-0.022,0.018-0.042,0.038-0.066,0.049c-0.01-0.011-0.018-0.016-0.027-0.026
				c0.018-0.023,0.029-0.052,0.013-0.077c-0.012,0.011,0,0.031-0.003,0.042c-0.01,0.029-0.041,0.044-0.059,0.07
				c-0.007,0.015,0.01,0.018,0.022,0.015c0.049-0.005,0.09-0.031,0.124-0.062c0.008,0,0.016,0.002,0.022,0.007
				c0,0.013-0.003,0.02-0.003,0.034c0.016,0.008,0.02,0.024,0.016,0.039c-0.016,0-0.027,0-0.042,0
				c0.007,0.008,0.007,0.022,0.007,0.032c-0.026-0.008-0.046-0.024-0.056-0.05c-0.032,0.026-0.081,0.033-0.122,0.042
				c-0.021,0.003-0.044,0.013-0.066,0.013c0.01-0.019,0.029-0.029,0.032-0.047c0.007-0.039,0.02-0.073,0.024-0.104l-0.008-0.006
				c-0.007,0.018-0.01,0.029-0.017,0.052c-0.026,0-0.049-0.023-0.065-0.042c-0.015-0.02-0.021-0.041-0.03-0.067
				c-0.012,0.002-0.026,0.02-0.038,0.015c-0.03-0.015-0.063-0.015-0.093,0c-0.011-0.005-0.024-0.015-0.037-0.021
				c0.026-0.034,0.057-0.067,0.104-0.075c0.035-0.002,0.064,0.011,0.098,0.024c0.068-0.012,0.133-0.036,0.198-0.049
				c0.039,0.024,0.081,0.024,0.122,0.022c-0.008-0.01-0.018-0.021-0.024-0.027c0.039,0.003,0.075,0.018,0.107,0.037
				c0.01,0.003,0.01,0.01,0.015,0.018c0.017,0.008,0.036,0.011,0.047,0.021c0.014,0.01,0.02,0.02,0.028,0.029
				c0.021,0.016,0.047,0.006,0.069,0c-0.003-0.01-0.018-0.001-0.018-0.001c-0.024,0.001-0.044,0-0.057-0.018
				c-0.01-0.018-0.033-0.029-0.054-0.038c-0.009,0-0.009-0.006-0.015-0.015c-0.01-0.022-0.024-0.041-0.043-0.052
				c-0.01-0.005-0.024-0.005-0.032-0.005c-0.005-0.01-0.012-0.02-0.022-0.021c-0.014-0.006-0.029-0.001-0.041,0
				c-0.005-0.021-0.008-0.036-0.024-0.049c-0.012-0.01-0.027-0.01-0.039-0.01c0-0.018,0-0.036-0.015-0.047
				c-0.018-0.026-0.051-0.029-0.08-0.029c-0.01-0.023-0.022-0.046-0.042-0.057c-0.029-0.016-0.063-0.018-0.1-0.02
				c0.087-0.034,0.185-0.031,0.269,0.001c0.117,0.039,0.212,0.119,0.29,0.212c0.02,0.016,0.032,0.036,0.047,0.05
				c0.005-0.006-0.005-0.016-0.01-0.028c0.012-0.013,0.028-0.022,0.044-0.031c-0.034-0.029-0.064-0.067-0.071-0.112
				c-0.01-0.047,0.042-0.096,0.09-0.077c0.045,0.015,0.073,0.059,0.112,0.082c0.018,0.008,0.045,0.015,0.06,0
				c0.017-0.015,0.012-0.038,0.005-0.049c-0.02-0.018-0.039-0.036-0.047-0.06c-0.022,0-0.046,0.003-0.063-0.005
				c-0.01-0.003-0.015-0.015-0.02-0.021c0.037,0.003,0.078-0.006,0.11-0.029c-0.032-0.015-0.071-0.034-0.091-0.065
				C10.589,12.799,10.589,12.777,10.599,12.76L10.599,12.76z"/>
			<path fill="#96887F" d="M8.799,12.705c0.035-0.015,0.074,0,0.11,0.016c0.067,0.025,0.134,0.066,0.203,0.062
				c0.003,0.023,0.01,0.041,0.016,0.065c-0.02,0.007-0.042,0.013-0.062,0.007c-0.052-0.007-0.095-0.042-0.146-0.056
				c-0.022-0.013-0.047-0.006-0.063,0.015c-0.005,0.013,0.003,0.029,0.01,0.041c0.031,0.044,0.073,0.07,0.093,0.119
				c0.013,0.021,0.01,0.047-0.008,0.068c-0.021,0.026-0.048,0.041-0.078,0.055c0.001,0.02,0.011,0.039,0.021,0.061H8.877
				c0.016,0.024,0.029,0.054,0.029,0.084c-0.004,0.013-0.014,0.024-0.023,0.026c-0.021,0.008-0.049,0.008-0.071,0.008
				c-0.01,0.036-0.017,0.075-0.013,0.111c-0.024-0.018-0.017-0.049-0.033-0.075c-0.005,0.01-0.006,0.015-0.01,0.02
				c-0.006-0.003-0.01-0.005-0.01-0.01c-0.01-0.019-0.013-0.036-0.015-0.054c-0.003-0.02,0.002-0.037,0.002-0.057
				c-0.015-0.01-0.036-0.018-0.046-0.038c-0.01-0.018-0.011-0.049,0.002-0.062c0.034-0.032,0.08-0.044,0.109-0.075
				c0.013-0.018,0.013-0.042,0-0.062c-0.038-0.047-0.058-0.112-0.056-0.169C8.744,12.764,8.76,12.721,8.799,12.705L8.799,12.705z"/>
			<path fill="#96887F" d="M10.485,12.769c0.023-0.013,0.043-0.02,0.065-0.023c-0.056,0.054-0.085,0.122-0.104,0.192
				c-0.016,0.057-0.027,0.119-0.032,0.177c-0.049-0.05-0.101-0.091-0.156-0.13c0.007-0.01,0.017-0.018,0.026-0.027
				c0.032,0.006,0.064,0.018,0.098,0.01c0.01-0.003,0.015-0.01,0.01-0.02c-0.014-0.018-0.036-0.034-0.054-0.049
				C10.381,12.852,10.431,12.806,10.485,12.769L10.485,12.769z"/>
			<path fill="#CDCCCC" d="M9.798,12.868c0.085-0.013,0.159-0.057,0.228-0.107c0.033,0.046,0.078,0.077,0.121,0.112
				c0.003,0.018,0.003,0.038,0.02,0.047c0.02,0.016,0.047,0.013,0.068,0.013c0.011,0.005,0.022,0.015,0.035,0.02
				c-0.006,0.008-0.015,0.021-0.024,0.022c0,0-0.005,0-0.011,0c-0.069-0.042-0.152-0.065-0.232-0.065
				c-0.059,0-0.115,0.015-0.166,0.038c0.002,0,0.002,0.01,0.005,0.01c0.037-0.005,0.083-0.005,0.119,0.016
				c0.024,0.01,0.042,0.031,0.045,0.059c0.028,0,0.062,0.003,0.082,0.024c0.013,0.011,0.013,0.033,0.003,0.05
				c0.021,0,0.037-0.001,0.049,0.01c0.018,0.015,0.022,0.034,0.026,0.052c0.015-0.006,0.039-0.011,0.052-0.001
				c0.007,0.01,0.008,0.02,0.01,0.026c0.013-0.001,0.026-0.006,0.036,0c0.016,0.008,0.024,0.015,0.032,0.026
				c-0.041-0.015-0.08-0.026-0.122-0.027c-0.034-0.034-0.066-0.067-0.104-0.09c-0.011-0.005-0.022-0.015-0.035-0.02
				c-0.039,0.015-0.083,0.024-0.124,0.024c-0.034,0-0.068,0.01-0.1,0c-0.01-0.01-0.006-0.032-0.01-0.047
				c0.014-0.018,0.02-0.036,0.023-0.057C9.828,12.958,9.815,12.91,9.798,12.868L9.798,12.868z"/>
			<path fill="#96887F" d="M10.55,12.845c0.036,0.019,0.071,0.036,0.114,0.034c-0.023,0.011-0.049,0.027-0.072,0.01
				C10.578,12.873,10.565,12.861,10.55,12.845L10.55,12.845z"/>
			<path fill="#96887F" d="M9.688,12.873c0-0.005,0.003-0.01,0.013-0.01c0.027,0,0.057-0.005,0.085,0.005
				c0.016,0.042,0.032,0.093,0.025,0.145c-0.003,0.015-0.013,0.029-0.025,0.045c0.01,0.017,0.006,0.038,0.013,0.049
				c0.008,0.018,0.029,0.018,0.044,0.018c0.063,0,0.127-0.005,0.184-0.028c0.012-0.001,0.02,0,0.028,0.01
				c0.047,0.029,0.093,0.07,0.135,0.112c-0.036,0-0.075-0.008-0.101-0.026c-0.017-0.013-0.023-0.031-0.033-0.049
				c-0.018,0-0.029,0.013-0.039,0.029c-0.01,0-0.02-0.006-0.03-0.011c-0.012-0.005-0.024,0.005-0.041,0.006
				c-0.062,0.018-0.127,0.033-0.19,0.018c-0.018,0.006-0.042,0.024-0.063,0.015c-0.015-0.008-0.017-0.02-0.017-0.033
				c0-0.044,0.007-0.086-0.008-0.127C9.664,13.027,9.655,13.013,9.647,13c0.008-0.006,0.018-0.016,0.021-0.026
				C9.683,12.938,9.683,12.907,9.688,12.873L9.688,12.873z"/>
			<path fill="#96887F" d="M10.827,12.907c0.019,0,0.029,0,0.043,0c-0.005,0.012-0.01,0.018-0.02,0.023
				c0.021,0.008,0.042,0.008,0.062,0.011c-0.01,0.007-0.02,0.012-0.027,0.017c0.015,0.003,0.032,0.01,0.045,0.021
				c-0.021,0.005-0.045,0-0.063-0.011c0.007,0.017,0.012,0.032,0.017,0.051c-0.021-0.006-0.044-0.019-0.06-0.034
				C10.827,12.96,10.836,12.933,10.827,12.907L10.827,12.907z"/>
			<path fill="#020202" d="M8.063,12.948c0.023-0.002,0.046-0.01,0.07-0.015c-0.002,0.008-0.012,0.013-0.018,0.02
				c-0.017,0.01-0.026,0.031-0.02,0.05c0.003,0.028,0.011,0.055,0.02,0.082c0.035-0.007,0.076-0.017,0.115-0.024
				c-0.002-0.018-0.008-0.036-0.01-0.056c-0.002-0.01-0.008-0.02-0.015-0.029c-0.013-0.008-0.026,0-0.039,0l-0.002-0.011
				c0.034-0.006,0.07-0.016,0.103-0.026c0,0.003,0.002,0.008,0.002,0.01c-0.017,0.005-0.032,0.013-0.032,0.027
				c0,0.029,0.008,0.052,0.015,0.082c0.042-0.015,0.084-0.02,0.123-0.036c0.014-0.017,0.004-0.036,0.01-0.054
				c0.005,0.011,0.01,0.026,0.01,0.036c0.01,0.034,0.019,0.065,0.026,0.104H8.41c-0.001-0.011-0.005-0.029-0.02-0.037
				c-0.011-0.002-0.024,0-0.034,0.005c-0.069,0.015-0.133,0.032-0.196,0.049c-0.014,0.001-0.031,0.001-0.033,0.021
				c-0.005,0.01,0,0.018,0,0.033h-0.01C8.099,13.097,8.08,13.024,8.063,12.948L8.063,12.948z"/>
			<path fill="#020202" d="M11.497,12.967c0.02-0.007,0.026-0.026,0.042-0.034c-0.006,0.042-0.022,0.088-0.035,0.128h-0.007
				c0.003-0.011,0.003-0.021,0-0.034c-0.008-0.003-0.017-0.006-0.026-0.003c-0.042,0.013-0.086,0.026-0.128,0.044
				c0.024,0.028,0.047,0.052,0.071,0.077c0.01,0.011,0.018,0.018,0.031,0.024c0.016,0.008,0.025-0.011,0.029-0.024
				c0.006,0.001,0.01,0.005,0.01,0.005c-0.01,0.033-0.017,0.07-0.026,0.106h-0.006c0-0.024-0.01-0.051-0.025-0.068
				c-0.036-0.041-0.072-0.08-0.109-0.119c-0.032-0.006-0.063-0.018-0.1-0.02c-0.02,0-0.024,0.02-0.029,0.034
				c0-0.003-0.003-0.003-0.008-0.003c0.013-0.042,0.022-0.086,0.037-0.132l0.004,0.005c0,0.011-0.004,0.022,0,0.037
				c0.006,0.01,0.02,0.013,0.029,0.015c0.022,0.008,0.045,0.015,0.066,0.02c0.008,0.003,0.018,0,0.027-0.003
				C11.395,13.003,11.449,12.985,11.497,12.967L11.497,12.967z"/>
			<path fill="#CDCCCC" d="M9.572,13.187c0.048-0.041,0.07-0.1,0.077-0.16c0.025,0.05,0.016,0.104,0.016,0.153
				c0,0.013,0.01,0.028,0.026,0.031c0.022,0.008,0.046-0.005,0.065-0.018c0.074,0.013,0.149,0,0.221-0.02
				c0.012,0.006,0.024,0.013,0.039,0.008c0.014,0,0.019-0.024,0.033-0.024c0.01,0.016,0.021,0.029,0.029,0.044
				c-0.015,0.003-0.033,0.003-0.049,0.006c-0.046,0.011-0.09,0.026-0.137,0.036c-0.034-0.02-0.077-0.032-0.116-0.02
				c-0.04,0.01-0.069,0.044-0.096,0.078C9.632,13.276,9.588,13.239,9.572,13.187L9.572,13.187z"/>
			<path fill="#CDCCCC" d="M10.421,13.125c0.002-0.028,0.002-0.05,0.012-0.075c0.01,0.034,0.036,0.066,0.059,0.094
				c-0.003,0.013-0.021,0.018-0.031,0.024C10.448,13.156,10.436,13.143,10.421,13.125L10.421,13.125z"/>
			<path fill="#96887F" d="M9.84,13.34c-0.001-0.008,0.007-0.013,0.01-0.008C9.85,13.338,9.847,13.341,9.84,13.34L9.84,13.34z"/>
			<path fill="#96887F" d="M9.847,13.345c0,0,0.003-0.003,0.012-0.003c0.011,0.028,0.021,0.047,0.037,0.065
				c0.017,0.015,0.036,0.024,0.059,0.026c-0.007,0.016-0.01,0.039-0.013,0.05c-0.014,0.015-0.033,0.031-0.029,0.052
				c0.032,0.006,0.062-0.011,0.094-0.018c0.036-0.003,0.07-0.008,0.102-0.027c0.015,0.024,0.042,0.041,0.068,0.045
				c0-0.011,0-0.021,0-0.031c0.025,0.005,0.05,0.008,0.074,0.005c0.017-0.005,0.033-0.012,0.049-0.02
				c0.012,0.005,0.026,0.013,0.039,0.008c0.017,0.007,0.033,0,0.053-0.003c0.022-0.005,0.05,0.003,0.069-0.015
				c0.01,0,0.028,0,0.038,0.003c0.062,0.034,0.118,0.062,0.179,0.098c-0.032,0.031-0.07,0.056-0.104,0.088c-0.481,0-0.963,0-1.445,0
				c-0.01-0.005-0.024,0-0.034-0.01c-0.027-0.022-0.055-0.047-0.083-0.066c0.127,0.001,0.258,0.011,0.385,0.016
				c0-0.008-0.009-0.015-0.015-0.015c-0.127-0.015-0.253-0.039-0.383-0.059c0.046,0,0.096,0,0.144,0
				c0.084,0.006,0.166-0.008,0.244-0.013c0.02-0.024,0.039-0.042,0.062-0.065c0.042-0.006,0.086-0.01,0.134-0.016
				c-0.009,0.006-0.014,0.01-0.019,0.011c0.051,0.018,0.103-0.001,0.146-0.026c0.01,0.01,0.02,0.015,0.031,0.026
				c0.008,0,0.017,0,0.024,0c0.017,0.015,0.027,0.031,0.047,0.038c0.038,0.008,0.077,0,0.116,0
				C9.906,13.441,9.879,13.389,9.847,13.345L9.847,13.345z"/>
			<path fill="#96887F" d="M9.588,13.449c0.021-0.021,0.036-0.05,0.052-0.07c0.021,0.015,0.041,0.028,0.061,0.038
				C9.664,13.436,9.625,13.451,9.588,13.449L9.588,13.449z"/>
			<path fill="#96887F" d="M10.03,13.46c0.01-0.01,0.02-0.024,0.029-0.031c0.01,0.007,0.02,0.012,0.024,0.021
				C10.069,13.458,10.047,13.467,10.03,13.46L10.03,13.46z"/>
			<path fill="#020202" d="M9.093,14.023c0.053-0.015,0.106,0.031,0.106,0.083c0.003,0.05-0.038,0.091-0.085,0.091
				c-0.049,0.003-0.091-0.041-0.09-0.088C9.024,14.072,9.053,14.032,9.093,14.023L9.093,14.023z"/>
			<path fill="#020202" d="M10.475,14.023c0.023-0.006,0.048,0,0.068,0.011c0.024,0.02,0.039,0.047,0.039,0.075
				c0,0.036-0.022,0.065-0.055,0.078c-0.029,0.016-0.062,0.01-0.087-0.013c-0.027-0.018-0.04-0.055-0.027-0.093
				C10.42,14.054,10.446,14.028,10.475,14.023L10.475,14.023z"/>
			<path fill="#020202" d="M9.766,14.054c0.016-0.018,0.045-0.02,0.066-0.003c0.017,0.01,0.026,0.031,0.027,0.049
				c0,0.036,0,0.066,0,0.101c0.041,0.002,0.082-0.003,0.124,0c0.022,0.002,0.054,0.003,0.071,0.023
				c0.014,0.011,0.01,0.036-0.001,0.045c-0.02,0.017-0.048,0.02-0.07,0.02c-0.042,0-0.083,0-0.124,0
				c-0.001,0.036-0.001,0.065-0.01,0.101c0,0.013-0.003,0.036-0.018,0.047c-0.015,0.026-0.055,0.018-0.072-0.007
				c-0.012-0.013-0.013-0.037-0.013-0.059c0-0.027,0-0.054,0-0.083c-0.039,0-0.082,0-0.121,0c-0.025,0-0.052-0.003-0.071-0.02
				c-0.015-0.01-0.015-0.036,0-0.045c0.018-0.02,0.042-0.021,0.07-0.023c0.04,0,0.079,0,0.122,0c0-0.034,0-0.063,0-0.091
				C9.747,14.092,9.747,14.071,9.766,14.054L9.766,14.054z"/>
			<path fill="#D0D1D1" d="M8.001,11.097L8.001,11.097L8.001,11.097z"/>
			<path fill="#D0D1D1" d="M8.001,11.097L8.001,11.097L8.001,11.097z"/>
			<g>
				<path fill="#D0D1D1" d="M8.775,10.522c0.154,0.156,0.029,0.524-0.275,0.835c-0.306,0.298-0.677,0.423-0.83,0.273
					c-0.153-0.155-0.029-0.524,0.276-0.829C8.248,10.493,8.624,10.37,8.775,10.522z"/>
				<path fill="#96887F" d="M8.589,10.708c0.154,0.155,0.112,0.443-0.09,0.649c-0.203,0.197-0.491,0.239-0.645,0.086
					c-0.153-0.153-0.114-0.439,0.091-0.642C8.146,10.596,8.434,10.557,8.589,10.708z"/>
				
					<rect x="8.346" y="10.692" transform="matrix(-0.7192 0.6948 -0.6948 -0.7192 22.0259 12.9976)" fill="#D0D1D1" width="0.08" height="0.516"/>
				<polygon fill="#D0D1D1" points="8.023,10.951 8.146,11.198 7.899,11.076 7.838,11.134 8.324,11.377 8.324,11.377 8.324,11.377 
					8.08,10.887 				"/>
			</g>
			<g>
				<path fill="#D0D1D1" d="M11.917,13.668c-0.153-0.156-0.522-0.032-0.827,0.273c-0.306,0.31-0.431,0.676-0.276,0.83
					c0.149,0.151,0.521,0.029,0.83-0.278C11.947,14.193,12.071,13.818,11.917,13.668z"/>
				<path fill="#96887F" d="M11.734,13.853c-0.155-0.156-0.441-0.109-0.644,0.089c-0.206,0.207-0.244,0.495-0.094,0.645
					c0.156,0.151,0.442,0.114,0.647-0.093C11.846,14.297,11.885,14.002,11.734,13.853z"/>
				
					<rect x="11.451" y="13.799" transform="matrix(-0.6958 0.7182 -0.7182 -0.6958 29.5882 15.5805)" fill="#D0D1D1" width="0.087" height="0.514"/>
				<polygon fill="#D0D1D1" points="11.495,14.419 11.246,14.297 11.368,14.54 11.309,14.603 11.068,14.12 11.068,14.12 
					11.068,14.12 11.554,14.355 				"/>
			</g>
			<g>
				<path fill="#D0D1D1" d="M10.824,10.513c-0.154,0.155-0.031,0.526,0.273,0.83c0.308,0.306,0.681,0.43,0.83,0.277
					c0.156-0.151,0.029-0.526-0.273-0.827C11.348,10.483,10.973,10.36,10.824,10.513z"/>
				<path fill="#96887F" d="M11.009,10.7c-0.153,0.151-0.112,0.441,0.088,0.643c0.205,0.205,0.495,0.246,0.646,0.091
					c0.151-0.151,0.11-0.441-0.09-0.642C11.449,10.586,11.163,10.548,11.009,10.7z"/>
				
					<rect x="11.167" y="10.682" transform="matrix(0.7241 0.6897 -0.6897 0.7241 10.637 -4.713)" fill="#D0D1D1" width="0.085" height="0.515"/>
				<polygon fill="#D0D1D1" points="11.573,10.941 11.452,11.188 11.7,11.066 11.758,11.123 11.273,11.366 11.273,11.366 
					11.273,11.366 11.514,10.88 				"/>
			</g>
			<g>
				<path fill="#D0D1D1" d="M7.679,13.654c0.151-0.156,0.524-0.026,0.83,0.277c0.303,0.311,0.43,0.677,0.276,0.833
					c-0.151,0.153-0.523,0.027-0.83-0.28C7.65,14.181,7.528,13.81,7.679,13.654z"/>
				<path fill="#96887F" d="M7.865,13.843c0.149-0.156,0.439-0.112,0.645,0.088c0.202,0.207,0.241,0.495,0.09,0.648
					c-0.151,0.149-0.439,0.112-0.644-0.095C7.752,14.286,7.711,13.998,7.865,13.843z"/>
				<polygon fill="#D0D1D1" points="8.257,13.83 8.314,13.893 7.953,14.259 7.894,14.198 				"/>
				<polygon fill="#D0D1D1" points="8.106,14.409 8.353,14.287 8.229,14.531 8.287,14.593 8.532,14.108 8.532,14.108 8.532,14.108 
					8.043,14.351 				"/>
			</g>
		</g>
	</g>
</g>
<path fill="#D0D0D5" d="M20,39C9.523,39,1,30.477,1,20S9.523,1,20,1V0C8.954,0,0,8.954,0,20s8.954,20,20,20V39z"/>
</svg>
