<?xml version="1.0" encoding="utf-8"?>
<!-- Generator: Adobe Illustrator 16.0.0, SVG Export Plug-In . SVG Version: 6.00 Build 0)  -->
<!DOCTYPE svg PUBLIC "-//W3C//DTD SVG 1.0//EN" "http://www.w3.org/TR/2001/REC-SVG-20010904/DTD/svg10.dtd">
<svg version="1.0" id="Layer_1" xmlns="http://www.w3.org/2000/svg" xmlns:xlink="http://www.w3.org/1999/xlink" x="0px" y="0px"
	 width="40px" height="40px" viewBox="0 0 40 40" enable-background="new 0 0 40 40" xml:space="preserve">
<g>
	<g>
		<path fill="#FFFFFF" d="M9.348,36.922h21.307c1.38-0.87,2.645-1.909,3.77-3.077H5.576C6.701,35.013,7.967,36.052,9.348,36.922z"/>
		<g>
			<path fill="#FFFFFF" d="M0.54,24.614h38.918c0.236-0.997,0.397-2.026,0.477-3.077H0.065C0.146,22.588,0.306,23.617,0.54,24.614z"
				/>
			<path fill="#FFFFFF" d="M3.151,30.769h33.697c0.624-0.972,1.166-2.001,1.618-3.078H1.536C1.985,28.768,2.529,29.797,3.151,30.769
				z"/>
			<path fill="#FFFFFF" d="M30.656,3.078H9.346c-1.38,0.871-2.646,1.904-3.77,3.076h28.848C33.301,4.982,32.036,3.949,30.656,3.078z
				"/>
			<g>
				<path fill="#DC2727" d="M1.536,27.69h36.931c0.41-0.986,0.742-2.017,0.991-3.076H0.54C0.794,25.674,1.123,26.704,1.536,27.69z"
					/>
				<path fill="#DC2727" d="M5.576,33.845h28.848c0.905-0.941,1.717-1.973,2.425-3.076H3.151C3.86,31.872,4.671,32.903,5.576,33.845
					z"/>
				<path fill="#DC2727" d="M20,40c3.918,0,7.568-1.133,10.654-3.078H9.348C12.432,38.867,16.084,40,20,40z"/>
				<path fill="#DC2727" d="M0.54,15.384h38.92c-0.251-1.06-0.583-2.088-0.993-3.076H1.533C1.123,13.296,0.793,14.325,0.54,15.384z"
					/>
				<path fill="#DC2727" d="M0,19.999c0,0.519,0.026,1.029,0.065,1.539h39.869c0.039-0.51,0.065-1.02,0.065-1.539
					c0-0.52-0.026-1.03-0.065-1.538H0.065C0.026,18.968,0,19.479,0,19.999z"/>
				<path fill="#DC2727" d="M5.576,6.154C4.67,7.098,3.859,8.125,3.151,9.23h33.697c-0.706-1.105-1.519-2.132-2.425-3.076H5.576z"/>
				<path fill="#DC2727" d="M20,0c-3.918,0-7.57,1.128-10.654,3.078h21.311C27.57,1.128,23.918,0,20,0z"/>
			</g>
			<path fill="#FFFFFF" d="M0.065,18.46h39.869c-0.079-1.05-0.24-2.077-0.475-3.076H0.54C0.306,16.383,0.146,17.411,0.065,18.46z"/>
			<path fill="#FFFFFF" d="M1.533,12.308h36.934c-0.451-1.078-0.994-2.104-1.618-3.078H3.151C2.527,10.204,1.985,11.23,1.533,12.308
				z"/>
			<path fill="#23449C" d="M19.987,0C8.947,0.006,0,8.957,0,19.997c0,0.527,0.026,1.046,0.066,1.564h19.921V0z"/>
			<g>
				<path fill="#FFD107" d="M10.378,17.03c-2.487,0-4.504-2.02-4.504-4.507c0-2.485,2.017-4.504,4.504-4.504
					c0.732,0,1.419,0.178,2.027,0.485c-0.862-0.674-1.949-1.083-3.131-1.083c-2.817,0-5.102,2.285-5.102,5.101
					c0,2.819,2.284,5.101,5.102,5.101c1.182,0,2.266-0.403,3.131-1.082C11.797,16.852,11.11,17.03,10.378,17.03z"/>
				<polygon fill="#FFD107" points="14.401,8.247 14.766,10.931 16.26,8.67 15.42,11.247 17.747,9.857 15.874,11.815 18.571,11.572 
					16.035,12.523 18.571,13.477 15.874,13.236 17.747,15.19 15.42,13.8 16.26,16.377 14.766,14.118 14.401,16.802 14.04,14.118 
					12.546,16.377 13.382,13.8 11.058,15.19 12.93,13.236 10.232,13.477 12.769,12.523 10.232,11.572 12.93,11.815 11.058,9.857 
					13.382,11.247 12.546,8.67 14.04,10.931 				"/>
			</g>
		</g>
	</g>
</g>
</svg>
