<svg xmlns="http://www.w3.org/2000/svg" width="40" height="40" viewBox="0 0 40 40">
    <g fill="none" fill-rule="evenodd">
        <g>
            <g transform="translate(-558.000000, -720.000000) translate(558.000000, 720.000000)">
                <circle cx="20" cy="20" r="20" fill="#FFF"/>
                <g fill="#D0D0D5" fill-rule="nonzero">
                    <path d="M20 0c11.046 0 20 8.954 20 20s-8.954 20-20 20S0 31.046 0 20 8.954 0 20 0zm0 1C9.507 1 1 9.507 1 20s8.507 19 19 19 19-8.507 19-19S30.493 1 20 1z"/>
                </g>
                <g>
                    <path fill="#0DB02B" d="M18.001 40c7.99 0 14.87-4.784 17.999-11.667H0C3.13 35.216 10.012 40 18.001 40" transform="translate(2.000000, 0.000000)"/>
                    <path fill="#E05206" d="M18.001 0C10.012 0 3.13 4.785 0 11.666h36C32.87 4.785 25.99 0 18.001 0M24.338 20c0 3.534-2.84 6.4-6.337 6.4-3.5 0-6.338-2.866-6.338-6.4 0-3.536 2.837-6.401 6.338-6.401 3.498 0 6.337 2.865 6.337 6.4" transform="translate(2.000000, 0.000000)"/>
                </g>
            </g>
        </g>
    </g>
</svg>
