<?xml version="1.0" encoding="utf-8"?>
<!-- Generator: Adobe Illustrator 16.0.0, SVG Export Plug-In . SVG Version: 6.00 Build 0)  -->
<!DOCTYPE svg PUBLIC "-//W3C//DTD SVG 1.1//EN" "http://www.w3.org/Graphics/SVG/1.1/DTD/svg11.dtd">
<svg version="1.1" id="Layer_1" xmlns="http://www.w3.org/2000/svg" xmlns:xlink="http://www.w3.org/1999/xlink" x="0px" y="0px"
	 width="40px" height="40px" viewBox="0 0 40 40" enable-background="new 0 0 40 40" xml:space="preserve">
<g>
	<g>
		<path fill="#008852" d="M0,20.001c0,8.069,4.782,15.017,11.667,18.177V1.821C4.782,4.982,0,11.932,0,20.001z"/>
		<path fill="#008852" d="M40,20.001c0-8.069-4.781-15.019-11.667-18.18v36.356C35.219,35.02,40,28.07,40,20.001z"/>
		<path fill="#FFFFFF" d="M20.002,0c-2.978,0-5.8,0.654-8.335,1.821v36.356C14.202,39.345,17.024,40,20.002,40
			c2.975,0,5.796-0.655,8.331-1.821V1.821C25.798,0.654,22.977,0,20.002,0z"/>
	</g>
</g>
<g>
	<path fill="#D0D0D5" d="M11.667,1.836v1.115C14.187,1.714,17.008,1,20,1c2.991,0,5.812,0.714,8.333,1.951V1.836
		C25.794,0.668,22.978,0,20,0C17.022,0,14.207,0.668,11.667,1.836z"/>
	<path fill="#D0D0D5" d="M28.333,38.164v-1.115C25.812,38.286,22.991,39,20,39c-2.992,0-5.813-0.714-8.333-1.951v1.115
		C14.207,39.331,17.022,40,20,40C22.978,40,25.794,39.331,28.333,38.164z"/>
</g>
</svg>
