<?xml version="1.0" encoding="utf-8"?>
<!-- Generator: Adobe Illustrator 16.0.0, SVG Export Plug-In . SVG Version: 6.00 Build 0)  -->
<!DOCTYPE svg PUBLIC "-//W3C//DTD SVG 1.0//EN" "http://www.w3.org/TR/2001/REC-SVG-20010904/DTD/svg10.dtd">
<svg version="1.0" id="Layer_1" xmlns="http://www.w3.org/2000/svg" xmlns:xlink="http://www.w3.org/1999/xlink" x="0px" y="0px"
	 width="40px" height="40px" viewBox="0 0 40 40" enable-background="new 0 0 40 40" xml:space="preserve">
<g>
	<g>
		<g>
			<path fill="#0067C6" d="M20,40c8.071,0,15.02-4.781,18.18-11.666H1.821C4.979,35.219,11.931,40,20,40z"/>
			<path fill="#0067C6" d="M20,0C11.931,0,4.979,4.787,1.821,11.667H38.18C35.02,4.787,28.07,0,20,0z"/>
			<path fill="#FFFFFF" d="M0,20c0,2.976,0.656,5.796,1.822,8.334H38.18C39.346,25.796,40,22.976,40,20
				c0-2.974-0.654-5.794-1.82-8.333H1.821C0.655,14.206,0,17.026,0,20z"/>
		</g>
		<g>
			<path fill="#3E3923" d="M19.97,12.443h0.068c0.303,0.029,0.606,0.042,0.913,0.064c0.029,0.111,0.055,0.215,0.084,0.324
				c-0.023,0.008-0.043,0.018-0.062,0.026c-0.1-0.146-0.246-0.278-0.432-0.298c-0.049-0.009-0.131,0-0.137,0.064
				c-0.02,0.129-0.02,0.263-0.029,0.391c0.059,0.005,0.123,0.015,0.182-0.013c0.068-0.029,0.098-0.093,0.123-0.149
				c0.027,0,0.053,0,0.078,0c-0.002,0.161-0.016,0.323-0.029,0.484c-0.025-0.001-0.051-0.003-0.078-0.005
				c-0.012-0.057-0.029-0.127-0.084-0.161c-0.055-0.05-0.133-0.052-0.199-0.057c-0.013,0.103-0.013,0.202-0.022,0.303
				c-0.004,0.049-0.01,0.098,0.01,0.14c0.035,0.044,0.094,0.043,0.14,0.043c0.179-0.002,0.345-0.106,0.468-0.229
				c0.018,0.01,0.033,0.022,0.053,0.035c-0.045,0.102-0.098,0.202-0.143,0.303c-0.332-0.021-0.655-0.047-0.981-0.063
				c0-0.021,0-0.045,0.004-0.071c0.064,0.007,0.162-0.007,0.162-0.096c0.02-0.266,0.033-0.526,0.053-0.795
				c0-0.039,0.006-0.086-0.014-0.123c-0.029-0.039-0.088-0.039-0.13-0.049C19.967,12.488,19.967,12.466,19.97,12.443L19.97,12.443z"
				/>
			<path fill="#FECE12" d="M19.984,12.464c0.318,0.015,0.631,0.041,0.95,0.065c0.023,0.096,0.059,0.193,0.072,0.293
				c-0.004,0-0.02,0.005-0.025,0.008c-0.088-0.115-0.199-0.223-0.34-0.269c-0.061-0.02-0.137-0.032-0.205-0.011
				c-0.046,0.015-0.059,0.073-0.062,0.117c-0.004,0.125-0.02,0.247-0.023,0.367c0.075,0.005,0.161,0.019,0.235-0.021
				c0.055-0.033,0.084-0.092,0.111-0.146c0.016,0.001,0.031,0.005,0.045,0.005c-0.016,0.147-0.02,0.299-0.033,0.444
				c-0.01-0.002-0.031-0.002-0.041-0.007c-0.018-0.061-0.039-0.124-0.096-0.163c-0.068-0.047-0.149-0.054-0.224-0.054
				c-0.01,0.141-0.022,0.28-0.022,0.415c-0.007,0.065,0.052,0.114,0.11,0.109c0.203,0.021,0.39-0.088,0.531-0.22
				c0.006,0.007,0.016,0.01,0.023,0.012c-0.043,0.096-0.088,0.188-0.131,0.278c-0.318-0.017-0.631-0.043-0.948-0.063v-0.026
				c0.049-0.005,0.102-0.007,0.134-0.044c0.032-0.044,0.036-0.103,0.039-0.148c0.017-0.255,0.036-0.511,0.046-0.768
				c0.006-0.053-0.02-0.116-0.072-0.131C20.029,12.498,19.98,12.507,19.984,12.464L19.984,12.464z"/>
			<path fill="#423E32" d="M18.566,12.576c0.204-0.025,0.402-0.047,0.606-0.069c0.153-0.014,0.306,0.018,0.429,0.112
				c0.254,0.193,0.313,0.601,0.121,0.854c-0.075,0.105-0.189,0.181-0.31,0.21c-0.12,0.03-0.248,0.035-0.376,0.052
				c-0.116,0.012-0.227,0.029-0.34,0.039c-0.005-0.026-0.006-0.051-0.01-0.073c0.042-0.008,0.084-0.012,0.117-0.039
				c0.029-0.032,0.026-0.08,0.023-0.122c-0.026-0.262-0.056-0.521-0.086-0.784c-0.005-0.033-0.011-0.07-0.039-0.093
				c-0.041-0.024-0.089-0.017-0.13-0.019C18.568,12.622,18.568,12.598,18.566,12.576L18.566,12.576z"/>
			<path fill="#FECE12" d="M18.593,12.593c0.188-0.024,0.376-0.042,0.568-0.063c0.152-0.021,0.312,0.013,0.432,0.11
				c0.251,0.195,0.3,0.601,0.098,0.845c-0.094,0.117-0.237,0.181-0.377,0.197c-0.203,0.024-0.401,0.049-0.602,0.065
				c0-0.004,0.003-0.019,0.003-0.023c0.05-0.018,0.119-0.034,0.13-0.094c0.013-0.075-0.006-0.15-0.011-0.224
				c-0.026-0.213-0.045-0.425-0.07-0.636c-0.005-0.043-0.013-0.093-0.049-0.122c-0.038-0.026-0.085-0.024-0.127-0.026
				C18.588,12.615,18.593,12.603,18.593,12.593L18.593,12.593z"/>
			<path fill="#473F2F" d="M19.125,12.576c0.1-0.015,0.204,0.002,0.279,0.073c0.101,0.098,0.127,0.246,0.144,0.381
				c0.02,0.156,0.032,0.331-0.049,0.476c-0.065,0.119-0.212,0.156-0.339,0.142c-0.057-0.017-0.065-0.073-0.07-0.12
				c-0.027-0.263-0.059-0.524-0.086-0.786c0-0.038-0.01-0.08,0.01-0.116C19.035,12.586,19.081,12.58,19.125,12.576L19.125,12.576z"
				/>
			<path fill="#FFFFFF" d="M19.131,12.595c0.1-0.014,0.217,0.011,0.279,0.098c0.094,0.113,0.107,0.269,0.123,0.413
				c0.01,0.129,0.01,0.266-0.048,0.379c-0.062,0.117-0.205,0.156-0.326,0.141c-0.038-0.01-0.044-0.053-0.046-0.085
				c-0.032-0.259-0.055-0.51-0.086-0.77c-0.002-0.048-0.017-0.095,0.003-0.139C19.058,12.604,19.096,12.603,19.131,12.595
				L19.131,12.595z"/>
			<path fill="#3E3923" d="M21.793,12.656c0.135,0.041,0.268,0.086,0.404,0.13c0.094,0.314,0.172,0.624,0.27,0.935
				c0.053-0.163,0.105-0.322,0.16-0.481c0.014-0.058,0.039-0.119,0.014-0.176c-0.027-0.044-0.072-0.062-0.111-0.09
				c0.01-0.02,0.016-0.037,0.023-0.059c0.143,0.041,0.279,0.091,0.42,0.144c-0.01,0.015-0.01,0.047-0.027,0.062
				c-0.059-0.002-0.139-0.015-0.172,0.046c-0.045,0.068-0.064,0.151-0.092,0.229c-0.08,0.249-0.162,0.498-0.244,0.747
				c-0.055-0.015-0.104-0.033-0.156-0.056c-0.104-0.347-0.205-0.696-0.312-1.045c-0.059,0.158-0.1,0.319-0.162,0.477
				c-0.02,0.075-0.059,0.151-0.055,0.234c0.016,0.067,0.084,0.095,0.133,0.129c-0.006,0.021-0.014,0.044-0.02,0.066
				c-0.15-0.047-0.299-0.101-0.445-0.151c0.002-0.022,0.012-0.044,0.02-0.068c0.059,0.007,0.123,0.024,0.168-0.02
				c0.043-0.037,0.059-0.091,0.078-0.142c0.076-0.229,0.154-0.457,0.225-0.687c-0.025-0.061-0.068-0.114-0.123-0.153
				C21.762,12.713,21.793,12.681,21.793,12.656L21.793,12.656z"/>
			<path fill="#FECE12" d="M21.797,12.692c0.025-0.009,0.055,0,0.082,0.01c0.1,0.034,0.197,0.066,0.299,0.104
				c0.094,0.312,0.182,0.62,0.27,0.935c0.008,0.008,0,0.046,0.02,0.036c0.068-0.188,0.127-0.378,0.189-0.568
				c0.025-0.066,0.025-0.161-0.043-0.205c-0.02-0.015-0.088-0.044-0.035-0.061c0.121,0.039,0.24,0.083,0.365,0.121
				c0,0.01,0,0.024,0,0.03c-0.047,0.01-0.102-0.006-0.145,0.02c-0.059,0.034-0.078,0.107-0.1,0.166
				c-0.092,0.278-0.186,0.561-0.277,0.837c-0.043-0.013-0.078-0.024-0.121-0.037c-0.113-0.365-0.217-0.732-0.328-1.098
				c-0.014,0.019-0.02,0.034-0.025,0.054c-0.062,0.19-0.125,0.375-0.186,0.566c-0.018,0.054-0.039,0.112-0.023,0.17
				c0.016,0.063,0.084,0.088,0.127,0.128l-0.014,0.021c-0.137-0.042-0.273-0.09-0.4-0.134c-0.002-0.008-0.006-0.024-0.01-0.032
				c0.062,0,0.135,0.017,0.186-0.031c0.047-0.047,0.062-0.108,0.082-0.167c0.072-0.219,0.143-0.425,0.215-0.644
				c0.02-0.049-0.016-0.091-0.039-0.127C21.859,12.749,21.811,12.732,21.797,12.692L21.797,12.692z"/>
			<path fill="#4C421D" d="M17.133,13.073c0.062-0.053,0.124-0.106,0.186-0.156c0.226,0.283,0.454,0.557,0.682,0.84
				c0.026,0.032,0.052,0.064,0.093,0.078c0.042,0.013,0.085-0.004,0.124-0.015c0.008,0.022,0.02,0.042,0.027,0.066
				c-0.182,0.073-0.363,0.151-0.545,0.218c-0.007-0.021-0.015-0.04-0.021-0.063c0.041-0.022,0.121-0.047,0.091-0.11
				c-0.045-0.081-0.114-0.148-0.172-0.225c-0.119,0.049-0.239,0.101-0.356,0.149c0.005,0.088-0.015,0.19,0.037,0.266
				c0.039,0.047,0.103,0.034,0.155,0.021c0.01,0.022,0.018,0.042,0.028,0.066c-0.139,0.057-0.275,0.117-0.417,0.166
				c-0.005-0.022-0.011-0.046-0.016-0.063c0.068-0.054,0.119-0.139,0.116-0.228c0-0.319-0.017-0.637-0.024-0.949
				C17.125,13.115,17.111,13.089,17.133,13.073L17.133,13.073z"/>
			<path fill="#FECE12" d="M17.152,13.086c0.054-0.046,0.104-0.098,0.159-0.132c0.018,0.005,0.028,0.024,0.038,0.036
				c0.21,0.26,0.423,0.519,0.631,0.781c0.039,0.052,0.104,0.103,0.173,0.088c0.022-0.004,0.073-0.023,0.055,0.016
				c-0.165,0.068-0.329,0.144-0.493,0.204c-0.006-0.004-0.008-0.015-0.01-0.021c0.029-0.029,0.075-0.039,0.089-0.08
				c0.007-0.045-0.02-0.083-0.041-0.113c-0.054-0.061-0.103-0.121-0.15-0.183c-0.128,0.052-0.259,0.107-0.389,0.161
				c0.008,0.093-0.012,0.198,0.041,0.285c0.034,0.059,0.116,0.047,0.174,0.045c-0.003,0.005-0.003,0.021-0.005,0.026
				c-0.119,0.052-0.241,0.103-0.36,0.148c-0.006-0.007-0.013-0.021-0.016-0.028c0.036-0.037,0.081-0.074,0.096-0.133
				c0.033-0.092,0.015-0.19,0.015-0.285c-0.011-0.247-0.011-0.493-0.02-0.735C17.146,13.142,17.131,13.105,17.152,13.086
				L17.152,13.086z"/>
			<path fill="#3E3923" d="M23.061,13.193c0.006-0.021,0.02-0.042,0.031-0.062c0.174,0.089,0.352,0.174,0.525,0.267
				c-0.014,0.02-0.02,0.039-0.029,0.063c-0.039-0.017-0.076-0.041-0.117-0.034c-0.039,0.013-0.059,0.046-0.076,0.078
				c-0.123,0.241-0.244,0.485-0.361,0.723c-0.012,0.037-0.031,0.073-0.012,0.104c0.02,0.037,0.061,0.054,0.098,0.078
				c-0.014,0.021-0.027,0.042-0.037,0.064c-0.178-0.091-0.352-0.177-0.527-0.267c0.01-0.024,0.018-0.044,0.029-0.066
				c0.047,0.021,0.098,0.052,0.145,0.022c0.049-0.037,0.064-0.098,0.09-0.146c0.115-0.227,0.229-0.446,0.332-0.672
				C23.184,13.276,23.119,13.221,23.061,13.193L23.061,13.193z"/>
			<path fill="#FECE12" d="M23.102,13.162c0.166,0.073,0.326,0.163,0.488,0.244c-0.002,0.004-0.01,0.015-0.016,0.026
				c-0.039-0.013-0.082-0.034-0.121-0.021c-0.059,0.026-0.08,0.088-0.104,0.141c-0.098,0.193-0.199,0.386-0.293,0.582
				c-0.029,0.061-0.068,0.117-0.062,0.183c0.01,0.054,0.062,0.08,0.098,0.109c-0.025,0.027-0.051,0.001-0.078-0.01
				c-0.139-0.073-0.285-0.141-0.426-0.215c-0.004-0.007-0.004-0.023-0.004-0.031c0.043,0.008,0.088,0.037,0.135,0.022
				c0.055-0.024,0.078-0.081,0.1-0.128c0.102-0.205,0.203-0.405,0.303-0.604c0.027-0.054,0.062-0.112,0.057-0.174
				c-0.008-0.051-0.057-0.076-0.096-0.105L23.102,13.162L23.102,13.162z"/>
			<path fill="#3E3923" d="M17.201,13.191c0.125,0.144,0.242,0.293,0.361,0.448c-0.116,0.047-0.228,0.096-0.347,0.14
				C17.212,13.584,17.201,13.389,17.201,13.191L17.201,13.191z"/>
			<path fill="#FFFFFF" d="M17.217,13.244c0.104,0.13,0.21,0.257,0.316,0.386c-0.101,0.035-0.197,0.088-0.3,0.118
				C17.23,13.582,17.226,13.408,17.217,13.244L17.217,13.244z"/>
			<path fill="#3E3923" d="M16.257,13.498c0.062-0.024,0.088-0.088,0.121-0.134c0.096,0.088,0.192,0.178,0.285,0.266
				c-0.016,0.024-0.036,0.045-0.059,0.071c-0.107-0.07-0.228-0.122-0.354-0.112c-0.109,0.005-0.22,0.076-0.24,0.19
				c-0.024,0.12,0.02,0.239,0.07,0.342c0.073,0.145,0.174,0.275,0.314,0.354c0.111,0.059,0.267,0.057,0.363-0.033
				c0.104-0.089,0.12-0.229,0.128-0.354c0.024,0,0.047,0.005,0.07,0.007c0.007,0.14-0.011,0.283-0.089,0.405
				c-0.104,0.151-0.29,0.247-0.472,0.235c-0.181-0.008-0.348-0.112-0.449-0.26c-0.091-0.134-0.143-0.293-0.133-0.453
				c0-0.186,0.094-0.374,0.262-0.464C16.127,13.527,16.195,13.516,16.257,13.498L16.257,13.498z"/>
			<path fill="#FECE12" d="M16.384,13.398c0.083,0.075,0.165,0.153,0.251,0.231c-0.008,0.015-0.021,0.027-0.033,0.044
				c-0.107-0.063-0.233-0.117-0.358-0.106c-0.117,0.007-0.235,0.088-0.256,0.212c-0.026,0.139,0.031,0.271,0.095,0.389
				c0.08,0.141,0.186,0.273,0.338,0.337c0.103,0.046,0.229,0.039,0.326-0.029c0.091-0.064,0.142-0.177,0.148-0.291
				c0.008-0.029-0.006-0.085,0.039-0.076c0.006,0.143-0.015,0.289-0.107,0.406c-0.099,0.121-0.257,0.204-0.417,0.202
				c-0.142-0.002-0.278-0.068-0.379-0.171c-0.14-0.142-0.212-0.339-0.202-0.54c0.007-0.158,0.083-0.319,0.22-0.407
				c0.068-0.047,0.146-0.059,0.22-0.085C16.324,13.494,16.35,13.44,16.384,13.398L16.384,13.398z"/>
			<path fill="#3E3923" d="M23.744,13.721c0.148-0.063,0.328-0.063,0.471,0.024c0.072,0.042,0.125,0.107,0.174,0.173
				c0.041,0.052,0.113,0.06,0.176,0.073c-0.037,0.12-0.082,0.245-0.127,0.366c-0.027-0.01-0.057-0.02-0.086-0.029
				c0.027-0.127,0.02-0.266-0.049-0.39c-0.049-0.086-0.156-0.156-0.26-0.127c-0.117,0.024-0.205,0.111-0.283,0.2
				c-0.098,0.124-0.176,0.271-0.191,0.43c-0.01,0.134,0.059,0.282,0.191,0.329c0.113,0.056,0.24,0.015,0.355-0.024
				c0.01,0.018,0.016,0.039,0.025,0.061c-0.133,0.073-0.293,0.117-0.443,0.073c-0.148-0.041-0.279-0.146-0.344-0.287
				c-0.049-0.104-0.068-0.22-0.049-0.327C23.34,14.021,23.52,13.816,23.744,13.721L23.744,13.721z"/>
			<path fill="#FECE12" d="M23.861,13.706c0.146-0.032,0.312,0.012,0.422,0.117c0.047,0.036,0.068,0.088,0.111,0.129
				c0.039,0.04,0.094,0.044,0.143,0.052c-0.035,0.107-0.07,0.223-0.113,0.329c-0.006-0.005-0.035-0.02-0.045-0.021
				c0.01-0.127,0.012-0.254-0.049-0.368c-0.053-0.098-0.16-0.179-0.277-0.156c-0.111,0.017-0.199,0.092-0.273,0.173
				c-0.121,0.135-0.221,0.31-0.23,0.493c-0.008,0.135,0.064,0.278,0.186,0.332c0.117,0.059,0.25,0.022,0.367-0.015
				c0.035,0.024-0.014,0.037-0.029,0.047c-0.111,0.053-0.24,0.078-0.365,0.048c-0.162-0.048-0.303-0.173-0.354-0.334
				c-0.066-0.163-0.037-0.35,0.059-0.496C23.51,13.874,23.672,13.747,23.861,13.706L23.861,13.706z"/>
			<path fill="#3E3923" d="M15.015,14.387c0.148-0.121,0.301-0.249,0.449-0.378c0.016,0.02,0.034,0.039,0.049,0.056
				c-0.033,0.03-0.073,0.062-0.077,0.108c-0.001,0.041,0.028,0.078,0.054,0.109c0.146,0.174,0.29,0.35,0.436,0.525
				c-0.006,0-0.015,0.005-0.016,0.009c-0.13-0.144-0.249-0.298-0.375-0.448c-0.044-0.057-0.104-0.108-0.119-0.184
				c-0.001-0.054,0.045-0.091,0.067-0.137c-0.028-0.002-0.049,0.017-0.067,0.031c-0.125,0.105-0.254,0.211-0.376,0.317
				c0.02,0.035,0.049-0.01,0.08-0.014c0.056-0.035,0.119,0.002,0.155,0.049c0.161,0.2,0.324,0.396,0.487,0.596
				c0.026,0.038,0.057,0.075,0.065,0.122c-0.003,0.054-0.047,0.087-0.07,0.139c0.055-0.013,0.096-0.065,0.14-0.096
				c0.098-0.088,0.202-0.166,0.298-0.254c-0.002-0.009-0.003-0.023-0.003-0.028c-0.045,0.021-0.089,0.061-0.143,0.048
				c-0.064-0.021-0.1-0.087-0.139-0.132l0.005-0.002c0.011,0.002,0.028,0.003,0.034,0.003c0.026,0.058,0.08,0.122,0.145,0.109
				c0.036-0.01,0.062-0.037,0.091-0.057c0.015,0.02,0.036,0.037,0.042,0.062c-0.148,0.129-0.301,0.251-0.453,0.379
				c-0.018-0.018-0.034-0.037-0.044-0.059c0.034-0.03,0.072-0.063,0.072-0.112c-0.005-0.052-0.041-0.093-0.073-0.132
				c-0.155-0.186-0.308-0.372-0.46-0.562c-0.028-0.03-0.061-0.069-0.106-0.069c-0.039,0.01-0.073,0.037-0.106,0.059
				C15.042,14.427,15.026,14.411,15.015,14.387L15.015,14.387z"/>
			<path fill="#FECE12" d="M15.417,14.079c0.018-0.015,0.039-0.033,0.067-0.031c-0.021,0.046-0.068,0.083-0.067,0.137
				c0.015,0.075,0.075,0.127,0.119,0.184c0.125,0.15,0.244,0.305,0.375,0.448l0.005,0.008l-0.005,0.002
				c0.039,0.045,0.075,0.11,0.139,0.132c0.054,0.013,0.098-0.026,0.143-0.048c0,0.005,0.001,0.02,0.003,0.028
				c-0.096,0.088-0.201,0.166-0.298,0.254c-0.044,0.03-0.084,0.083-0.14,0.096c0.022-0.052,0.066-0.085,0.07-0.139
				c-0.008-0.047-0.039-0.084-0.065-0.122c-0.163-0.2-0.326-0.396-0.487-0.596c-0.036-0.047-0.099-0.084-0.155-0.049
				c-0.031,0.004-0.06,0.049-0.08,0.014C15.163,14.29,15.292,14.185,15.417,14.079L15.417,14.079z"/>
			<polygon fill="#FECE00" points="20.006,14.214 14.916,23.03 25.092,23.03 			"/>
			<path fill="#3E3923" d="M25.078,14.575c0.016-0.01,0.035-0.018,0.055-0.01c0.068,0.037,0.141,0.073,0.215,0.107
				c-0.127,0.264-0.264,0.52-0.391,0.773c-0.041,0.089-0.088,0.169-0.119,0.257c-0.029,0.063,0.01,0.124,0.049,0.171
				c-0.014,0.017-0.029,0.031-0.049,0.047c-0.141-0.137-0.277-0.27-0.414-0.413c0.016-0.017,0.035-0.032,0.053-0.046
				c0.031,0.023,0.068,0.073,0.113,0.053c0.074-0.068,0.102-0.176,0.15-0.258c-0.092-0.096-0.184-0.187-0.277-0.278
				c-0.078,0.043-0.172,0.065-0.221,0.144c-0.037,0.057,0.02,0.109,0.035,0.159c-0.014,0.019-0.025,0.033-0.035,0.043
				c-0.102-0.092-0.199-0.188-0.293-0.278c-0.01-0.014-0.039-0.028-0.02-0.046c0.006-0.012,0.021-0.024,0.035-0.036
				c0.078,0.048,0.182,0.058,0.27,0.015C24.518,14.844,24.795,14.71,25.078,14.575L25.078,14.575z"/>
			<path fill="#FECE12" d="M24.312,14.968c0.264-0.131,0.531-0.258,0.795-0.388c0.072,0.034,0.146,0.068,0.211,0.107
				c-0.158,0.31-0.312,0.617-0.469,0.926c-0.031,0.059-0.064,0.132-0.031,0.199c0.01,0.03,0.059,0.059,0.02,0.081
				c-0.125-0.124-0.254-0.249-0.379-0.379c0.004-0.046,0.049,0,0.068,0.015c0.039,0.034,0.092,0.003,0.111-0.038
				c0.049-0.074,0.084-0.159,0.131-0.24c-0.098-0.098-0.199-0.197-0.301-0.293c-0.051,0.011-0.104,0.045-0.156,0.069
				c-0.055,0.029-0.119,0.09-0.098,0.161c0,0.036,0.057,0.075,0.027,0.112c-0.098-0.098-0.203-0.186-0.291-0.289
				c0.004-0.005,0.014-0.017,0.018-0.021c0.041,0.013,0.084,0.037,0.133,0.036C24.176,15.027,24.244,14.995,24.312,14.968
				L24.312,14.968z"/>
			<path fill="#443919" d="M24.527,14.93c0.17-0.086,0.346-0.174,0.521-0.249c-0.074,0.17-0.166,0.329-0.244,0.498
				c-0.004,0.024-0.029,0.009-0.039-0.003C24.688,15.09,24.604,15.015,24.527,14.93L24.527,14.93z"/>
			<path fill="#FEFEFE" d="M24.555,14.938c0.156-0.078,0.305-0.148,0.461-0.224c-0.08,0.146-0.146,0.3-0.23,0.446
				C24.711,15.088,24.635,15.007,24.555,14.938L24.555,14.938z"/>
			<path fill="#84D6FE" d="M20,14.803c0,0,0.498,0.863,0.739,1.281c-0.234-0.075-0.475-0.104-0.712-0.105c0-0.365,0-0.729,0-1.098
				c-0.017,0.004-0.036,0.01-0.042,0.01c-0.007,0.366-0.004,0.725-0.004,1.088c-0.237,0-0.476,0.03-0.706,0.091
				C19.504,15.657,20,14.803,20,14.803z"/>
			<path fill="#3E3923" d="M14.156,15.3c0.135-0.146,0.265-0.302,0.4-0.446c0.016,0.018,0.031,0.032,0.049,0.052
				c-0.029,0.039-0.072,0.083-0.056,0.137c0.018,0.049,0.068,0.085,0.107,0.119c0.183,0.168,0.365,0.335,0.552,0.505
				c0.023,0.027,0.077,0.044,0.107,0.006c0.158-0.143,0.176-0.376,0.15-0.577c0.018-0.007,0.038-0.019,0.054-0.024
				c0.059,0.103,0.119,0.201,0.177,0.303c-0.218,0.247-0.438,0.489-0.654,0.735c-0.018-0.015-0.039-0.029-0.055-0.046
				c0.044-0.049,0.089-0.128,0.029-0.181c-0.179-0.172-0.366-0.34-0.55-0.509c-0.041-0.036-0.076-0.08-0.13-0.097
				c-0.054-0.011-0.091,0.041-0.127,0.072C14.195,15.334,14.177,15.317,14.156,15.3L14.156,15.3z"/>
			<path fill="#FECE12" d="M14.546,14.896c0.01,0,0.026,0.004,0.032,0.004c-0.021,0.037-0.054,0.071-0.054,0.112
				c-0.005,0.049,0.033,0.088,0.067,0.118c0.2,0.185,0.397,0.363,0.599,0.549c0.031,0.031,0.089,0.051,0.13,0.015
				c0.169-0.145,0.189-0.389,0.169-0.594c0.006,0.003,0.018,0.006,0.028,0.011c0.054,0.085,0.103,0.173,0.154,0.259
				c-0.213,0.239-0.425,0.476-0.631,0.713c-0.005-0.003-0.016-0.016-0.023-0.021c0.02-0.041,0.054-0.073,0.052-0.117
				c-0.003-0.048-0.039-0.077-0.068-0.111c-0.181-0.166-0.368-0.335-0.55-0.501c-0.039-0.032-0.078-0.071-0.13-0.075
				c-0.052,0-0.083,0.043-0.121,0.063c-0.02-0.024,0.008-0.044,0.021-0.06C14.328,15.137,14.437,15.015,14.546,14.896L14.546,14.896
				z"/>
			<path fill="#FBFDFF" d="M19.984,14.891c0.006,0,0.025-0.006,0.042-0.01c0,0.368,0,0.732,0,1.098c-0.017,0-0.036,0-0.046,0
				C19.98,15.615,19.977,15.257,19.984,14.891L19.984,14.891z"/>
			<path fill="#3E3923" d="M25.781,15.314c0.02-0.012,0.039-0.024,0.062-0.038c0.129,0.192,0.264,0.391,0.396,0.586
				c0.064,0.1,0.107,0.23,0.074,0.346c-0.031,0.117-0.139,0.203-0.26,0.202c-0.102,0-0.191-0.059-0.264-0.122
				c-0.043,0.164-0.166,0.299-0.215,0.465c-0.02,0.062-0.004,0.129,0.025,0.185c-0.016,0.016-0.035,0.029-0.059,0.042
				c-0.068-0.119-0.152-0.229-0.225-0.345c0.059-0.137,0.146-0.256,0.213-0.386c0.039-0.073,0.08-0.161,0.039-0.246
				c-0.092,0.06-0.184,0.124-0.273,0.188c-0.037,0.023-0.078,0.051-0.096,0.103c0,0.046,0.029,0.08,0.049,0.117
				c-0.02,0.017-0.039,0.028-0.059,0.039c-0.113-0.157-0.225-0.328-0.334-0.493c0.02-0.013,0.039-0.029,0.059-0.041
				c0.021,0.028,0.045,0.062,0.078,0.078c0.049,0.024,0.094-0.006,0.127-0.032c0.215-0.146,0.426-0.291,0.635-0.438
				c0.025-0.02,0.059-0.043,0.068-0.078C25.836,15.397,25.805,15.356,25.781,15.314L25.781,15.314z"/>
			<path fill="#FECE12" d="M25.836,15.378c-0.002-0.021-0.039-0.059-0.002-0.073c0.127,0.174,0.244,0.362,0.367,0.54
				c0.072,0.096,0.123,0.217,0.102,0.339c-0.023,0.125-0.15,0.222-0.277,0.207c-0.098-0.02-0.176-0.078-0.248-0.148
				c-0.01,0.119-0.088,0.21-0.133,0.312c-0.055,0.101-0.123,0.215-0.084,0.335c0,0.019,0.025,0.053-0.008,0.059
				c-0.074-0.101-0.139-0.21-0.215-0.317c0.076-0.154,0.176-0.288,0.248-0.447c0.029-0.065,0.029-0.148-0.014-0.21
				c-0.098,0.063-0.191,0.139-0.293,0.202c-0.039,0.029-0.088,0.06-0.094,0.112c-0.01,0.044,0.023,0.081,0.033,0.122l-0.02,0.018
				c-0.105-0.154-0.209-0.306-0.312-0.464c0.01-0.002,0.016-0.015,0.025-0.02c0.025,0.034,0.055,0.076,0.104,0.078
				c0.049,0.006,0.092-0.028,0.135-0.051c0.215-0.148,0.426-0.298,0.637-0.446C25.834,15.496,25.863,15.435,25.836,15.378
				L25.836,15.378z"/>
			<path fill="#3E3923" d="M13.918,15.708c0.044-0.036,0.091-0.065,0.146-0.07c0.117-0.013,0.231,0.072,0.25,0.186
				c0.021,0.073,0,0.155-0.013,0.229c0.071-0.064,0.154-0.137,0.257-0.147c0.171-0.02,0.339,0.14,0.324,0.31
				c-0.005,0.11-0.052,0.208-0.111,0.301c-0.124,0.198-0.252,0.398-0.373,0.598c-0.021-0.014-0.042-0.026-0.062-0.039
				c0.016-0.041,0.047-0.078,0.041-0.122c-0.01-0.044-0.044-0.065-0.078-0.087c-0.21-0.142-0.431-0.278-0.646-0.42
				c-0.034-0.018-0.072-0.044-0.114-0.032c-0.041,0.017-0.063,0.057-0.09,0.09c-0.018-0.014-0.041-0.028-0.057-0.041
				c0.083-0.13,0.163-0.266,0.247-0.395C13.723,15.938,13.797,15.803,13.918,15.708L13.918,15.708z"/>
			<path fill="#FECE12" d="M13.907,15.74c0.055-0.047,0.119-0.086,0.188-0.086c0.103,0.012,0.189,0.086,0.205,0.188
				c0.018,0.087-0.016,0.178-0.036,0.27c0.034-0.014,0.054-0.045,0.08-0.067c0.068-0.065,0.153-0.124,0.248-0.124
				c0.099,0.007,0.195,0.068,0.243,0.158c0.031,0.053,0.031,0.121,0.022,0.186c-0.026,0.146-0.122,0.268-0.198,0.391
				c-0.091,0.142-0.176,0.293-0.273,0.432c-0.034-0.026,0.005-0.061,0.008-0.088c0.021-0.059-0.022-0.112-0.068-0.144
				c-0.218-0.142-0.444-0.284-0.667-0.428c-0.041-0.029-0.095-0.052-0.14-0.026c-0.034,0.026-0.054,0.056-0.084,0.075
				c-0.021-0.024,0.005-0.046,0.016-0.066c0.08-0.124,0.16-0.249,0.238-0.375C13.749,15.93,13.819,15.823,13.907,15.74L13.907,15.74
				z"/>
			<path fill="#3E3923" d="M25.934,15.723c0.029-0.021,0.078-0.042,0.115-0.013c0.051,0.047,0.09,0.118,0.113,0.187
				c0.02,0.077-0.01,0.156-0.072,0.206c-0.064,0.054-0.158,0.098-0.246,0.064c-0.105-0.04-0.17-0.135-0.229-0.223
				C25.723,15.871,25.83,15.794,25.934,15.723L25.934,15.723z"/>
			<path fill="#FFFFFF" d="M25.645,15.945c0.123-0.073,0.23-0.176,0.365-0.235c0.059,0.03,0.088,0.091,0.117,0.147
				c0.029,0.063,0.029,0.153-0.029,0.204c-0.066,0.065-0.174,0.13-0.264,0.08C25.748,16.103,25.689,16.022,25.645,15.945
				L25.645,15.945z"/>
			<path fill="#3E3923" d="M13.89,15.879c0.083-0.022,0.163,0.018,0.22,0.066c0.057,0.043,0.091,0.111,0.083,0.178
				c-0.011,0.102-0.081,0.189-0.128,0.272c-0.111-0.067-0.22-0.139-0.329-0.212c-0.049-0.027-0.042-0.095-0.018-0.137
				C13.757,15.974,13.812,15.9,13.89,15.879L13.89,15.879z"/>
			<path fill="#FFFFFF" d="M13.84,15.928c0.05-0.044,0.124-0.044,0.181-0.015c0.07,0.032,0.143,0.086,0.148,0.166
				c0.013,0.107-0.059,0.202-0.114,0.288c-0.098-0.06-0.197-0.127-0.298-0.191c-0.026-0.015-0.047-0.049-0.034-0.08
				C13.746,16.03,13.788,15.972,13.84,15.928L13.84,15.928z"/>
			<path fill="#1A4895" d="M19.274,16.069c0.23-0.061,0.469-0.091,0.706-0.091c0.01,0,0.029,0,0.046,0
				c0.237,0.001,0.478,0.03,0.712,0.105l0.004,0.004c0.043,0.081,0.102,0.167,0.143,0.254c-0.234-0.122-0.5-0.166-0.764-0.18
				c-0.339-0.01-0.694,0.023-0.999,0.176c0.048-0.089,0.097-0.176,0.146-0.264L19.274,16.069L19.274,16.069z"/>
			<path fill="#443919" d="M14.33,16.151c0.057-0.033,0.134-0.031,0.195,0c0.083,0.04,0.166,0.105,0.194,0.2
				c0.026,0.11-0.031,0.223-0.109,0.304c-0.039,0.038-0.1,0.026-0.144,0c-0.122-0.078-0.237-0.154-0.358-0.228
				C14.168,16.327,14.229,16.215,14.33,16.151L14.33,16.151z"/>
			<path fill="#FFFFFF" d="M14.295,16.203c0.052-0.051,0.132-0.08,0.202-0.042c0.096,0.042,0.198,0.122,0.207,0.235
				c0.001,0.092-0.045,0.18-0.111,0.239c-0.032,0.036-0.08,0.024-0.11,0c-0.116-0.066-0.227-0.146-0.342-0.216
				C14.177,16.343,14.23,16.267,14.295,16.203L14.295,16.203z"/>
			<path fill="#4D94C2" d="M19.122,16.338c0.305-0.152,0.66-0.186,0.999-0.176c0.264,0.014,0.53,0.058,0.764,0.18
				c0.047,0.068,0.086,0.142,0.127,0.215c-0.064-0.017-0.127-0.048-0.191-0.072c-0.283-0.098-0.589-0.145-0.895-0.135
				c-0.339,0.012-0.665,0.112-0.968,0.264C19.011,16.519,19.066,16.428,19.122,16.338L19.122,16.338z"/>
			<path fill="#8DC32F" d="M18.957,16.613c0.304-0.151,0.629-0.252,0.968-0.264c0.306-0.01,0.612,0.037,0.895,0.135
				c0.064,0.024,0.127,0.056,0.191,0.072l0.004,0.001c0.062,0.107,0.117,0.217,0.182,0.312c-0.078-0.034-0.148-0.083-0.234-0.117
				c-0.537-0.239-1.162-0.265-1.718-0.078c-0.156,0.056-0.307,0.122-0.442,0.22c0.042-0.098,0.104-0.186,0.151-0.279L18.957,16.613
				L18.957,16.613z"/>
			<path fill="#FECE12" d="M19.245,16.675c0.557-0.187,1.182-0.161,1.718,0.078c0.086,0.034,0.156,0.083,0.234,0.117
				c0.027,0.01,0.033,0.036,0.047,0.053c0.029,0.063,0.064,0.118,0.094,0.179c0.014,0.018,0.016,0.047,0.014,0.073
				c-0.209-0.161-0.449-0.267-0.707-0.33c-0.342-0.085-0.713-0.1-1.068-0.048c-0.339,0.058-0.675,0.176-0.945,0.395
				c0.027-0.072,0.071-0.132,0.107-0.195c0.018-0.034,0.036-0.073,0.063-0.102C18.938,16.797,19.089,16.73,19.245,16.675
				L19.245,16.675z"/>
			<path fill="#614F0E" d="M13.177,16.955c0.051-0.129,0.103-0.252,0.155-0.384c0.023,0.006,0.045,0.016,0.067,0.027
				c-0.015,0.037-0.031,0.081-0.02,0.13c0.022,0.041,0.071,0.061,0.114,0.077c0.163,0.064,0.327,0.137,0.493,0.203
				c0.106,0.042,0.213,0.101,0.269,0.207c0.057,0.108,0.036,0.245-0.005,0.359c-0.047,0.12-0.112,0.237-0.223,0.311
				c-0.098,0.062-0.229,0.062-0.337,0.02c-0.172-0.071-0.353-0.147-0.527-0.215c-0.042-0.021-0.084-0.042-0.13-0.04
				c-0.059,0.005-0.08,0.064-0.098,0.107c-0.026-0.007-0.049-0.019-0.068-0.026c0.073-0.186,0.148-0.369,0.221-0.552
				c0.024,0.01,0.045,0.02,0.07,0.027c-0.011,0.043-0.039,0.088-0.016,0.131c0.016,0.04,0.057,0.052,0.091,0.069
				c0.184,0.073,0.369,0.153,0.555,0.229c0.077,0.03,0.166,0.06,0.249,0.037c0.063-0.012,0.106-0.07,0.132-0.127
				c0.039-0.08,0.061-0.178,0.015-0.261c-0.052-0.096-0.156-0.143-0.252-0.186c-0.168-0.071-0.332-0.137-0.498-0.205
				c-0.038-0.013-0.073-0.032-0.111-0.015c-0.045,0.017-0.059,0.072-0.08,0.107C13.221,16.979,13.199,16.967,13.177,16.955
				L13.177,16.955z"/>
			<path fill="#FECE12" d="M13.345,16.602c0.05,0,0,0.068,0.01,0.093c-0.005,0.059,0.05,0.1,0.096,0.117
				c0.189,0.078,0.379,0.156,0.566,0.234c0.103,0.044,0.204,0.121,0.238,0.227c0.036,0.135-0.01,0.273-0.072,0.394
				c-0.052,0.1-0.128,0.199-0.239,0.236c-0.081,0.027-0.174,0.015-0.254-0.021c-0.184-0.074-0.374-0.156-0.56-0.23
				c-0.041-0.015-0.083-0.039-0.124-0.019c-0.049,0.019-0.066,0.068-0.094,0.103l-0.015-0.016c0.063-0.175,0.135-0.342,0.205-0.513
				c0.034,0.013,0.01,0.05,0.01,0.079c-0.018,0.063,0.039,0.112,0.093,0.132c0.19,0.08,0.382,0.161,0.576,0.244
				c0.089,0.029,0.192,0.063,0.283,0.024c0.094-0.037,0.138-0.14,0.16-0.229c0.022-0.086,0-0.181-0.059-0.24
				c-0.065-0.067-0.148-0.103-0.229-0.136c-0.166-0.068-0.334-0.14-0.5-0.21c-0.047-0.018-0.107-0.034-0.149,0.005
				c-0.029,0.021-0.036,0.077-0.08,0.08C13.244,16.835,13.296,16.718,13.345,16.602L13.345,16.602z"/>
			<path fill="#D21734" d="M19.577,16.797c0.354-0.052,0.726-0.037,1.068,0.048c0.258,0.063,0.498,0.169,0.707,0.33
				c0.055,0.041,0.08,0.11,0.117,0.169c0.039,0.072,0.088,0.137,0.119,0.209c-0.156-0.158-0.348-0.28-0.549-0.375
				c-0.268-0.127-0.551-0.191-0.837-0.215c-0.375-0.025-0.755,0.02-1.101,0.153c-0.251,0.1-0.485,0.239-0.679,0.423
				c0.037-0.074,0.084-0.147,0.125-0.22c0.029-0.044,0.051-0.088,0.085-0.128C18.902,16.973,19.238,16.854,19.577,16.797
				L19.577,16.797z"/>
			<path fill="#C0148C" d="M19.101,17.116c0.346-0.134,0.726-0.179,1.101-0.153c0.286,0.023,0.57,0.088,0.837,0.215
				c0.201,0.095,0.393,0.217,0.549,0.375c0.076,0.127,0.146,0.249,0.215,0.377c-0.068-0.068-0.139-0.135-0.215-0.2
				c-0.012-0.006-0.025-0.018-0.031-0.024c-0.225-0.182-0.479-0.327-0.752-0.425c-0.014-0.003-0.029-0.008-0.039-0.01
				c-0.242-0.086-0.489-0.128-0.74-0.13c-0.017,0-0.036,0-0.046,0c-0.244,0.002-0.491,0.044-0.723,0.12
				c-0.016,0.004-0.029,0.012-0.042,0.015c-0.273,0.098-0.53,0.241-0.758,0.424c-0.01,0.008-0.024,0.02-0.038,0.025
				c-0.078,0.065-0.146,0.137-0.221,0.207c0.072-0.13,0.148-0.262,0.223-0.393C18.615,17.355,18.85,17.216,19.101,17.116
				L19.101,17.116z"/>
			<path fill="#433C21" d="M25.561,17.002c0.021-0.006,0.045-0.015,0.064-0.022c0.053,0.07,0.131,0.122,0.221,0.12
				c0.301,0,0.6-0.02,0.898-0.025c0.037,0.006,0.078-0.017,0.105,0.013c0.051,0.061,0.1,0.124,0.152,0.186
				c-0.279,0.237-0.57,0.472-0.85,0.716c-0.064,0.048-0.068,0.131-0.043,0.195c-0.016,0.009-0.039,0.02-0.059,0.028
				c-0.078-0.185-0.156-0.365-0.221-0.549c0.023-0.002,0.045-0.024,0.064-0.015c0.023,0.034,0.039,0.066,0.068,0.095
				c0.105-0.028,0.174-0.124,0.258-0.181c-0.039-0.126-0.094-0.244-0.143-0.371c-0.088,0.01-0.184-0.007-0.258,0.04
				c-0.055,0.033-0.043,0.111-0.029,0.16c-0.02,0.011-0.043,0.022-0.064,0.025C25.674,17.277,25.611,17.143,25.561,17.002
				L25.561,17.002z"/>
			<path fill="#FECE12" d="M25.586,17.014c0.01-0.002,0.025-0.005,0.029-0.005c0.043,0.041,0.094,0.086,0.152,0.101
				c0.098,0.021,0.203,0.005,0.301,0.005c0.254-0.01,0.508-0.013,0.754-0.024c0.053,0.059,0.102,0.121,0.154,0.181
				c-0.281,0.231-0.557,0.461-0.838,0.698c-0.029,0.026-0.059,0.065-0.061,0.109c0,0.036,0.002,0.071,0.002,0.104
				c-0.029,0.001-0.031-0.033-0.045-0.058c-0.055-0.152-0.127-0.301-0.18-0.455c0.053-0.004,0.049,0.062,0.092,0.081
				c0.035,0.022,0.082-0.008,0.113-0.029c0.066-0.052,0.127-0.104,0.186-0.159c-0.049-0.131-0.104-0.259-0.156-0.39
				c-0.074,0.002-0.146,0.002-0.221,0.015c-0.039,0.01-0.082,0.031-0.098,0.067c-0.023,0.04-0.01,0.088-0.01,0.127
				c-0.004,0.005-0.016,0.005-0.023,0.006C25.684,17.261,25.635,17.138,25.586,17.014L25.586,17.014z"/>
			<path fill="#84D6FE" d="M19.257,17.261c0.231-0.076,0.479-0.118,0.723-0.12c-0.003,0.262-0.003,0.529,0,0.791
				c0.01,0,0.029,0,0.046,0c0-0.262,0-0.529,0-0.791c0.251,0.002,0.498,0.044,0.74,0.13c-0.146,0.246-0.291,0.497-0.434,0.749
				c0.017,0.005,0.026,0.008,0.043,0.015c0.139-0.252,0.284-0.505,0.43-0.754c0.273,0.098,0.527,0.243,0.752,0.425
				c-0.326,0.192-0.654,0.371-0.977,0.566c0.029,0.054,0.078-0.008,0.117-0.021c0.295-0.175,0.596-0.346,0.891-0.521
				c0.076,0.065,0.146,0.132,0.215,0.2c0.229,0.386,0.447,0.773,0.674,1.157c0.18,0.321,0.361,0.637,0.547,0.956
				c0.082,0.146,0.17,0.284,0.248,0.431c-0.248-0.127-0.479-0.273-0.719-0.408c-0.584-0.339-1.166-0.674-1.756-1.013
				c-0.068-0.04-0.139-0.084-0.211-0.12c-0.004,0.013-0.006,0.024-0.014,0.041c0.883,0.504,1.762,1.012,2.645,1.523
				c0.021,0.013,0.045,0.009,0.07,0.004l0.004-0.001c0.15,0.264,0.307,0.527,0.453,0.797c-0.086-0.001-0.17,0.004-0.254-0.001
				c-0.062-0.024-0.117-0.068-0.174-0.104c-0.158-0.117-0.305-0.259-0.459-0.388c-0.016-0.013-0.029-0.025-0.045-0.035
				c-0.016-0.024-0.039-0.044-0.064-0.059c-0.02-0.02-0.037-0.038-0.057-0.053c-0.01-0.021-0.025-0.04-0.051-0.044
				c-0.014-0.008-0.027-0.018-0.037-0.027c-0.01-0.018-0.02-0.029-0.039-0.031l0,0c-0.117-0.104-0.246-0.201-0.387-0.281
				c-0.059-0.027-0.123-0.071-0.191-0.044c-0.076,0.053-0.102,0.153-0.127,0.236c-0.146-0.081-0.293-0.163-0.447-0.225
				c-0.064-0.021-0.127-0.044-0.191-0.034c-0.082,0.022-0.137,0.093-0.17,0.168c-0.166-0.285-0.332-0.575-0.494-0.858
				c-0.069-0.11-0.13-0.23-0.202-0.343c-0.007,0.008-0.02,0.024-0.023,0.034c0.163,0.283,0.327,0.571,0.493,0.857
				c0.07,0.117,0.133,0.241,0.207,0.356c0,0,0,0.012,0,0.018c-0.055-0.027-0.1-0.068-0.146-0.103
				c-0.201-0.143-0.393-0.294-0.605-0.42c-0.039-0.021-0.091-0.06-0.137-0.027c-0.068,0.047-0.095,0.135-0.117,0.21
				c-0.01-0.275,0-0.552-0.007-0.823c-0.029,0-0.045,0.016-0.039,0.05c0,0.268-0.003,0.547,0,0.82
				c-0.149-0.099-0.3-0.193-0.462-0.271c-0.062-0.029-0.137-0.059-0.202-0.01c0.111-0.205,0.234-0.408,0.354-0.615
				c0.01-0.021,0.026-0.068-0.016-0.059c-0.075,0.122-0.146,0.256-0.218,0.376c-0.104,0.184-0.211,0.369-0.315,0.552
				c-0.086-0.056-0.169-0.119-0.26-0.166c-0.121-0.057-0.262-0.051-0.378-0.122c-0.066-0.062-0.101-0.149-0.163-0.215
				c0.294-0.159,0.586-0.339,0.881-0.505c0.075-0.049,0.156-0.081,0.225-0.133c0-0.012-0.006-0.031-0.006-0.043
				c-0.281,0.163-0.561,0.326-0.841,0.487c-0.096,0.057-0.195,0.107-0.287,0.167c-0.066-0.059-0.158-0.081-0.246-0.055
				c-0.153,0.047-0.287,0.147-0.415,0.245c-0.186,0.148-0.35,0.321-0.516,0.49c-0.132,0.071-0.262,0.151-0.396,0.225
				c0.127-0.229,0.264-0.454,0.391-0.679c0.234-0.402,0.462-0.809,0.7-1.211c0.011,0.013,0.022,0.02,0.041,0.022
				c0.49,0,0.981-0.003,1.474,0c0-0.013,0.003-0.03,0.003-0.042c-0.502-0.002-1.007,0-1.511,0c0.13-0.215,0.249-0.437,0.381-0.654
				c0.075-0.07,0.143-0.142,0.221-0.207c0.292,0.171,0.578,0.339,0.874,0.505c0.036,0.021,0.071,0.054,0.117,0.057
				c0.003-0.005,0.006-0.021,0.01-0.025c-0.318-0.19-0.644-0.375-0.963-0.562c0.228-0.183,0.485-0.326,0.758-0.424
				c0.143,0.249,0.293,0.505,0.433,0.759c0.013-0.015,0.042-0.021,0.029-0.042C19.538,17.748,19.394,17.505,19.257,17.261
				L19.257,17.261z"/>
			<path fill="#FBFDFF" d="M19.98,17.141c0.01,0,0.029,0,0.046,0c0,0.262,0,0.529,0,0.791c-0.017,0-0.036,0-0.046,0
				C19.977,17.67,19.977,17.402,19.98,17.141L19.98,17.141z"/>
			<path fill="#494323" d="M26.152,17.173c0.191-0.006,0.385-0.013,0.58-0.018c-0.125,0.117-0.264,0.222-0.391,0.334
				c-0.02,0.008-0.033,0.03-0.053,0.027C26.244,17.402,26.195,17.289,26.152,17.173L26.152,17.173z"/>
			<path fill="#FFFFFF" d="M26.178,17.197c0.166-0.018,0.34-0.015,0.498-0.022c-0.119,0.11-0.25,0.212-0.373,0.315
				C26.256,17.392,26.221,17.292,26.178,17.197L26.178,17.197z"/>
			<path fill="#FEFEFE" d="M19.215,17.275c0.013-0.003,0.026-0.011,0.042-0.015c0.137,0.244,0.28,0.487,0.42,0.731
				c0.013,0.021-0.017,0.027-0.029,0.042C19.508,17.78,19.358,17.524,19.215,17.275L19.215,17.275z"/>
			<path fill="#FEFEFE" d="M20.766,17.271c0.01,0.002,0.025,0.007,0.039,0.01c-0.146,0.249-0.291,0.502-0.43,0.754
				c-0.017-0.007-0.026-0.01-0.043-0.015C20.475,17.768,20.619,17.517,20.766,17.271L20.766,17.271z"/>
			<path fill="#FEFEFE" d="M18.42,17.725c0.013-0.006,0.028-0.018,0.038-0.025c0.319,0.187,0.645,0.371,0.963,0.562
				c-0.003,0.005-0.007,0.021-0.01,0.025c-0.046-0.003-0.082-0.035-0.117-0.057C18.998,18.063,18.711,17.896,18.42,17.725
				L18.42,17.725z"/>
			<path fill="#FEFEFE" d="M21.557,17.705c0.006,0.007,0.02,0.019,0.031,0.024c-0.295,0.176-0.596,0.347-0.891,0.521
				c-0.039,0.013-0.088,0.074-0.117,0.021C20.902,18.076,21.23,17.897,21.557,17.705L21.557,17.705z"/>
			<g>
				<path fill="#3E3923" d="M12.946,17.932c0.148-0.107,0.387-0.018,0.433,0.158c0.05,0.174-0.005,0.35-0.039,0.521
					c0.089,0.02,0.177,0.039,0.262,0.061c0.049,0.008,0.1,0.027,0.146,0.016c0.054-0.02,0.068-0.076,0.082-0.122
					c0.023,0.004,0.044,0.007,0.065,0.012c-0.037,0.197-0.078,0.391-0.128,0.589c-0.02-0.008-0.042-0.013-0.065-0.021
					c0.005-0.041,0.016-0.087-0.005-0.131c-0.024-0.032-0.065-0.045-0.107-0.054c-0.243-0.055-0.483-0.11-0.723-0.166
					c-0.042-0.006-0.09-0.02-0.129,0c-0.041,0.026-0.049,0.073-0.062,0.117c-0.024-0.005-0.044-0.006-0.067-0.01
					c0.036-0.2,0.088-0.4,0.128-0.602C12.772,18.163,12.824,18.018,12.946,17.932L12.946,17.932z"/>
				<path fill="#FECE12" d="M12.868,18.037c0.049-0.073,0.132-0.132,0.221-0.132c0.116,0,0.239,0.072,0.272,0.188
					c0.049,0.179-0.016,0.358-0.044,0.535c0.124,0.024,0.249,0.058,0.373,0.078c0.054,0.014,0.112-0.008,0.132-0.062
					c0.013-0.021,0.015-0.062,0.052-0.059c-0.034,0.186-0.082,0.366-0.121,0.547c-0.005,0-0.022-0.002-0.029-0.005
					c0-0.042,0.017-0.091-0.015-0.129c-0.029-0.045-0.089-0.052-0.138-0.066c-0.238-0.052-0.472-0.104-0.711-0.158
					c-0.047-0.01-0.103-0.022-0.142,0.012c-0.034,0.022-0.041,0.063-0.059,0.101H12.63c0.034-0.149,0.067-0.301,0.1-0.447
					C12.757,18.3,12.787,18.158,12.868,18.037L12.868,18.037z"/>
			</g>
			<path fill="#3E3923" d="M26.406,18.13c0.215-0.105,0.488-0.094,0.689,0.034c0.145,0.092,0.252,0.254,0.254,0.425
				c0.008,0.068-0.025,0.142,0.01,0.205c0.01,0.038,0.047,0.056,0.059,0.093c-0.109,0.059-0.217,0.112-0.328,0.171
				c-0.014-0.021-0.025-0.044-0.039-0.063c0.078-0.089,0.16-0.177,0.205-0.289c0.039-0.095,0.016-0.212-0.062-0.277
				c-0.084-0.076-0.205-0.091-0.312-0.089c-0.148,0.006-0.295,0.037-0.432,0.089c-0.088,0.031-0.176,0.083-0.225,0.166
				c-0.047,0.078-0.037,0.181,0.016,0.256c0.049,0.065,0.133,0.065,0.205,0.056c0.055-0.01,0.117-0.015,0.156-0.053
				c0.033-0.039,0.006-0.094,0.014-0.142c0.021-0.008,0.049-0.01,0.078-0.018c0.031,0.186,0.07,0.373,0.104,0.562
				c-0.025,0.005-0.045,0.012-0.074,0.018c-0.014-0.044-0.029-0.091-0.072-0.115c-0.033-0.018-0.074-0.007-0.113,0
				c-0.082,0.018-0.164,0.031-0.242,0.051c-0.021-0.163-0.146-0.292-0.178-0.449c-0.023-0.126-0.02-0.253,0.031-0.366
				C26.197,18.278,26.295,18.183,26.406,18.13L26.406,18.13z"/>
			<path fill="#FECE12" d="M26.393,18.159c0.215-0.115,0.496-0.108,0.703,0.031c0.121,0.076,0.205,0.202,0.229,0.34
				c0.01,0.072,0,0.137,0,0.207c0,0.056,0.035,0.098,0.068,0.139c-0.088,0.045-0.18,0.093-0.27,0.138
				c-0.018,0.017-0.047,0.009-0.039-0.02c0.074-0.099,0.166-0.191,0.197-0.317c0.033-0.104-0.006-0.226-0.094-0.284
				c-0.131-0.088-0.303-0.087-0.449-0.063c-0.156,0.027-0.312,0.063-0.439,0.156c-0.084,0.057-0.137,0.154-0.121,0.255
				c0.008,0.082,0.062,0.171,0.15,0.183c0.092,0.01,0.189,0,0.268-0.036c0.055-0.034,0.039-0.104,0.041-0.159
				c0.008-0.003,0.029-0.005,0.037-0.005c0.035,0.171,0.068,0.344,0.104,0.518c-0.014,0.002-0.025,0.003-0.039,0.003
				c-0.025-0.045-0.045-0.115-0.111-0.117c-0.107,0.005-0.211,0.043-0.322,0.056c-0.016-0.137-0.117-0.246-0.152-0.376
				c-0.043-0.135-0.043-0.286,0.02-0.413C26.215,18.293,26.299,18.212,26.393,18.159L26.393,18.159z"/>
			<path fill="#D21734" d="M19.736,18.135c0.088-0.035,0.189-0.016,0.268,0.029c0.11,0.065,0.205,0.161,0.309,0.229
				c0.072,0.044,0.092,0.132,0.092,0.21c0.006,0.161-0.072,0.322-0.202,0.427c-0.062,0.052-0.144,0.09-0.231,0.083
				c-0.127-0.005-0.241-0.08-0.315-0.181c-0.033-0.044-0.065-0.098-0.049-0.149c0.062-0.124,0.162-0.225,0.201-0.36
				c0.023-0.068-0.025-0.138-0.084-0.172c-0.02-0.021-0.062-0.031-0.068-0.067C19.665,18.151,19.709,18.149,19.736,18.135
				L19.736,18.135z"/>
			<path fill="#3E3923" d="M12.946,18.164c0.084-0.02,0.172,0,0.246,0.034c0.067,0.031,0.109,0.095,0.116,0.166
				c0.01,0.082-0.011,0.166-0.034,0.246c-0.121-0.013-0.243-0.052-0.366-0.078c-0.049-0.008-0.114-0.021-0.124-0.081
				C12.772,18.339,12.826,18.197,12.946,18.164L12.946,18.164z"/>
			<path fill="#FFFFFF" d="M12.894,18.212c0.065-0.048,0.151-0.044,0.225-0.02c0.065,0.02,0.139,0.059,0.158,0.13
				c0.031,0.086,0,0.179-0.017,0.267c-0.115-0.018-0.232-0.05-0.352-0.076c-0.042-0.01-0.103-0.022-0.109-0.073
				C12.801,18.356,12.826,18.266,12.894,18.212L12.894,18.212z"/>
			<path fill="#FDFEFF" d="M17.818,18.586c0.504,0,1.009-0.002,1.511,0c0,0.012-0.003,0.029-0.003,0.042
				c-0.492-0.003-0.984,0-1.474,0c-0.018-0.003-0.029-0.01-0.041-0.022L17.818,18.586L17.818,18.586z"/>
			<path fill="#FDFEFF" d="M20.67,18.586c0.453-0.002,0.906,0,1.357,0c0.057,0,0.102-0.003,0.154,0.003l0.006,0.015
				c0,0.007-0.01,0.015-0.014,0.021c-0.498,0.003-0.992,0.003-1.494,0C20.68,18.613,20.67,18.598,20.67,18.586L20.67,18.586z"/>
			<path fill="#2F050B" d="M19.67,18.862c-0.055-0.013-0.039-0.103,0.014-0.104c0.133-0.014,0.257,0.064,0.349,0.157
				c0.029,0.033,0.071,0.073,0.064,0.124c-0.01,0.027-0.049,0.029-0.071,0.031c0-0.023,0.022-0.034,0.042-0.049
				c-0.078-0.136-0.231-0.248-0.391-0.234C19.674,18.813,19.674,18.838,19.67,18.862L19.67,18.862z"/>
			<path fill="#FEFEFE" d="M20.586,18.933c0.072,0.036,0.143,0.08,0.211,0.12c0.59,0.339,1.172,0.674,1.756,1.013
				c0.24,0.135,0.471,0.281,0.719,0.408c0.004,0.005,0.01,0.021,0.016,0.027c-0.025,0.005-0.049,0.009-0.07-0.004
				c-0.883-0.512-1.762-1.02-2.645-1.523C20.58,18.957,20.582,18.945,20.586,18.933L20.586,18.933z"/>
			<path fill="#FEFEFE" d="M18.58,19.423c0.28-0.161,0.56-0.324,0.841-0.487c0,0.012,0.006,0.031,0.006,0.043
				c-0.068,0.052-0.15,0.084-0.225,0.133c-0.295,0.166-0.587,0.346-0.881,0.505c-0.008-0.007-0.021-0.022-0.028-0.026
				C18.384,19.53,18.483,19.479,18.58,19.423L18.58,19.423z"/>
			<path fill="#484225" d="M12.572,19.272c0.106-0.032,0.212-0.068,0.317-0.098c0.007,0.024,0.013,0.049,0.02,0.068
				c-0.117,0.09-0.223,0.207-0.259,0.351c-0.013,0.066-0.026,0.13-0.003,0.187c0.018,0.046,0.073,0.048,0.112,0.049
				c0.109,0,0.221,0.007,0.329,0.01c0.001-0.069,0.011-0.147-0.028-0.211c-0.034-0.051-0.096-0.077-0.146-0.098
				c0-0.026,0-0.053,0.002-0.078c0.159,0.005,0.319,0.011,0.48,0.021c-0.001,0.023-0.001,0.046-0.001,0.075
				c-0.059,0.018-0.121,0.034-0.161,0.086c-0.042,0.062-0.047,0.137-0.049,0.212c0.117,0,0.234,0.012,0.356,0.012
				c0.032,0,0.073-0.002,0.099-0.029c0.024-0.036,0.018-0.085,0.018-0.131c-0.007-0.181-0.109-0.342-0.239-0.464
				c0.015-0.016,0.018-0.039,0.034-0.052c0.104,0.042,0.203,0.091,0.308,0.135c-0.012,0.331-0.024,0.659-0.038,0.993
				c-0.024,0-0.045,0-0.072-0.002c-0.003-0.04,0-0.078-0.016-0.113c-0.026-0.044-0.083-0.046-0.125-0.048
				c-0.218-0.011-0.428-0.016-0.646-0.025c-0.067,0-0.138-0.019-0.204,0.01c-0.05,0.022-0.049,0.089-0.057,0.137
				c-0.024,0-0.046-0.002-0.07-0.002v-0.135C12.551,19.843,12.557,19.551,12.572,19.272L12.572,19.272z"/>
			<path fill="#FEFEFE" d="M20.355,19.174c0.071,0.112,0.133,0.232,0.202,0.343c0.162,0.283,0.328,0.573,0.494,0.858
				c-0.002,0.01-0.012,0.034-0.02,0.047c-0.074-0.115-0.137-0.239-0.207-0.356c-0.166-0.286-0.33-0.574-0.493-0.857
				C20.335,19.198,20.348,19.182,20.355,19.174L20.355,19.174z"/>
			<path fill="#FEFEFE" d="M19.655,19.191c0.042-0.01,0.025,0.037,0.016,0.059c-0.12,0.207-0.244,0.41-0.354,0.615
				c-0.068,0.078-0.12,0.171-0.159,0.271c-0.01-0.005-0.026-0.014-0.036-0.017c0.104-0.183,0.211-0.368,0.315-0.552
				C19.508,19.447,19.58,19.313,19.655,19.191L19.655,19.191z"/>
			<path fill="#FECE12" d="M12.586,19.291c0.095-0.031,0.189-0.063,0.287-0.083c0.006,0.005,0.013,0.02,0.015,0.024
				c-0.128,0.101-0.241,0.237-0.269,0.401c-0.005,0.056-0.01,0.114,0.011,0.166c0.021,0.039,0.072,0.046,0.111,0.053
				c0.122,0.001,0.246,0.005,0.371,0.008c-0.006-0.08,0.01-0.168-0.034-0.241c-0.031-0.052-0.089-0.078-0.14-0.103
				c0-0.011-0.003-0.029-0.003-0.04c0.146,0,0.293,0.01,0.439,0.011c0,0.014,0,0.029-0.002,0.044
				c-0.066,0.02-0.14,0.049-0.171,0.116c-0.032,0.066-0.044,0.145-0.032,0.221c0.132-0.003,0.267,0.014,0.402,0.012
				c0.052,0.002,0.101-0.041,0.106-0.093c0.024-0.171-0.049-0.34-0.156-0.474c-0.023-0.036-0.061-0.059-0.078-0.101
				c0.026-0.005,0.05,0.006,0.071,0.016c0.07,0.033,0.144,0.063,0.22,0.098c-0.003,0.321-0.021,0.642-0.032,0.957
				c-0.008,0-0.021,0-0.029,0c0-0.062-0.017-0.135-0.088-0.149c-0.103-0.02-0.21-0.013-0.312-0.018
				c-0.183-0.012-0.363-0.014-0.542-0.023c-0.057-0.001-0.121,0.026-0.135,0.088c-0.015,0.021,0,0.073-0.038,0.068
				C12.564,19.929,12.579,19.608,12.586,19.291L12.586,19.291z"/>
			<path fill="#494836" d="M27.377,19.24c0.021-0.002,0.045-0.007,0.068-0.012c0.012,0.204,0.01,0.405,0.012,0.607
				c-0.02,0-0.045,0-0.064,0c-0.006-0.039-0.006-0.08-0.025-0.112c-0.033-0.044-0.092-0.042-0.145-0.042
				c-0.197,0.008-0.4,0.008-0.598,0.011c-0.092,0.01-0.205,0.021-0.264,0.103c-0.049,0.08-0.043,0.18-0.02,0.268
				c0.012,0.073,0.078,0.132,0.148,0.156c0.125,0.042,0.262,0.022,0.391,0.021c0.125-0.003,0.248-0.003,0.375-0.005
				c0.039-0.005,0.082-0.005,0.111-0.037s0.02-0.081,0.025-0.124c0.025,0,0.049,0,0.074,0v0.414c-0.021,0-0.041,0.005-0.064,0.008
				c-0.006-0.041-0.006-0.073-0.023-0.11c-0.021-0.046-0.078-0.046-0.123-0.046c-0.18,0-0.361,0.01-0.543,0.012
				c-0.121,0.005-0.248-0.009-0.346-0.09c-0.094-0.083-0.123-0.215-0.127-0.334c-0.004-0.14,0.014-0.293,0.107-0.401
				c0.072-0.083,0.186-0.119,0.293-0.117c0.195-0.004,0.391-0.009,0.582-0.009c0.043-0.006,0.098-0.003,0.127-0.04
				C27.379,19.326,27.369,19.277,27.377,19.24L27.377,19.24z"/>
			<path fill="#FECE12" d="M27.357,19.384c0.039-0.036,0.035-0.092,0.045-0.134c0.035,0.005,0.025,0.037,0.025,0.061
				c0,0.169,0.01,0.342,0.008,0.511c-0.037-0.005-0.029-0.052-0.039-0.078c-0.01-0.057-0.072-0.083-0.125-0.081
				c-0.197,0.001-0.4,0.008-0.602,0.011c-0.102,0.002-0.211,0.009-0.297,0.075c-0.07,0.065-0.078,0.171-0.068,0.259
				c0.01,0.093,0.057,0.181,0.145,0.215c0.119,0.061,0.256,0.041,0.387,0.041c0.156-0.009,0.318,0.003,0.479-0.014
				c0.055-0.008,0.092-0.055,0.094-0.112c0.01-0.018-0.002-0.06,0.033-0.045c0.006,0.108,0.01,0.22,0.01,0.33
				c0,0.02-0.004,0.039-0.014,0.059c-0.031-0.027-0.016-0.075-0.041-0.105c-0.027-0.053-0.092-0.056-0.141-0.056
				c-0.209,0.002-0.42,0.01-0.631,0.008c-0.125,0-0.264-0.057-0.316-0.177c-0.062-0.144-0.062-0.305-0.025-0.453
				c0.021-0.096,0.088-0.191,0.182-0.232c0.082-0.041,0.17-0.036,0.248-0.041c0.172-0.001,0.344-0.008,0.518-0.008
				C27.271,19.414,27.324,19.414,27.357,19.384L27.357,19.384z"/>
			<path fill="#FBFDFE" d="M19.98,19.326c-0.006-0.034,0.01-0.05,0.039-0.05c0.007,0.271-0.003,0.548,0.007,0.823
				c-0.007,0.021-0.01,0.046-0.02,0.071c-0.007-0.006-0.02-0.018-0.026-0.024C19.977,19.873,19.98,19.594,19.98,19.326L19.98,19.326
				z"/>
			<path fill="#57702E" d="M17.632,19.78c0.128-0.098,0.262-0.198,0.415-0.245c0.088-0.026,0.179-0.004,0.246,0.055
				c0.007,0.004,0.02,0.02,0.028,0.026c0.062,0.065,0.096,0.153,0.163,0.215c0.116,0.071,0.257,0.065,0.378,0.122
				c0.091,0.047,0.174,0.11,0.26,0.166c0.01,0.003,0.026,0.012,0.036,0.017c0.039-0.1,0.09-0.192,0.159-0.271
				c0.065-0.049,0.14-0.02,0.202,0.01c0.162,0.078,0.312,0.173,0.462,0.271c0.007,0.007,0.02,0.019,0.026,0.024
				c0.01-0.025,0.013-0.05,0.02-0.071c0.022-0.075,0.049-0.163,0.117-0.21c0.046-0.032,0.098,0.007,0.137,0.027
				c0.212,0.126,0.404,0.277,0.605,0.42c0.047,0.034,0.092,0.075,0.146,0.103c0-0.006,0-0.016,0-0.016
				c0.008-0.015,0.018-0.039,0.02-0.049c0.033-0.075,0.088-0.146,0.17-0.168c0.064-0.01,0.127,0.013,0.191,0.034
				c0.154,0.062,0.301,0.144,0.447,0.225c0.025-0.083,0.051-0.184,0.127-0.236c0.068-0.027,0.133,0.017,0.191,0.044
				c0.141,0.08,0.27,0.178,0.387,0.281c-0.07-0.024-0.119-0.076-0.186-0.113c-0.107-0.062-0.23-0.134-0.367-0.12
				c0.016,0.071,0.074,0.112,0.117,0.162c0.16,0.142,0.326,0.271,0.492,0.394c0.133,0.102,0.266,0.202,0.412,0.28
				c0.037,0.021,0.078,0.034,0.117,0.041c-0.012-0.085-0.078-0.146-0.129-0.209c-0.053-0.063-0.121-0.112-0.164-0.186
				c0.154,0.129,0.301,0.271,0.459,0.388c0.057,0.036,0.111,0.08,0.174,0.104c0.002,0.005,0.01,0.021,0.012,0.029
				c-0.021,0.006-0.045,0.018-0.07,0.029c-0.086,0.005-0.174,0.001-0.254-0.024c-0.125-0.034-0.234-0.114-0.342-0.186
				c-0.297-0.204-0.59-0.412-0.896-0.604c0.043,0.043,0.092,0.077,0.145,0.111c0.264,0.2,0.527,0.394,0.793,0.591
				c0.096,0.066,0.184,0.143,0.277,0.201c0.039,0.033,0.053,0.083,0.039,0.127c-0.004,0.002-0.016,0.005-0.02,0.005
				c-0.201-0.013-0.406-0.02-0.605-0.071c-0.186-0.049-0.348-0.164-0.502-0.278c-0.312-0.228-0.607-0.469-0.924-0.688
				c0.113,0.114,0.258,0.197,0.365,0.322c-0.076-0.041-0.137-0.1-0.205-0.146c-0.234-0.171-0.473-0.328-0.721-0.481
				c-0.049-0.031-0.1-0.059-0.156-0.081c0.036,0.071,0.097,0.127,0.154,0.188c0.264,0.271,0.537,0.532,0.84,0.753
				c0.104,0.07,0.211,0.151,0.334,0.18c0.039,0.01,0.111,0,0.096-0.051c-0.037-0.1-0.127-0.153-0.186-0.232
				c0.031,0.021,0.064,0.039,0.09,0.068c0.137,0.115,0.273,0.239,0.4,0.367c0.047,0.049,0.105,0.098,0.102,0.171
				c-0.049,0-0.094-0.003-0.137-0.006c-0.02-0.017-0.043-0.029-0.062-0.039c-0.221-0.112-0.43-0.249-0.637-0.385
				c-0.277-0.182-0.551-0.367-0.82-0.56c-0.127-0.086-0.245-0.182-0.375-0.259c0.195,0.163,0.405,0.311,0.606,0.476
				c0.326,0.254,0.65,0.503,0.973,0.757c0.01,0.034,0.02,0.068,0.029,0.103c-0.025,0.027-0.055,0.029-0.088,0.032
				c-0.197-0.012-0.391-0.017-0.588-0.036c-0.164-0.015-0.326-0.032-0.477-0.105c-0.123-0.062-0.202-0.183-0.276-0.286
				c-0.283-0.4-0.668-0.71-1.065-0.983c0.338,0.275,0.677,0.56,0.924,0.923c0.075,0.114,0.153,0.244,0.163,0.379
				c0.01,0.056-0.017,0.103-0.046,0.142c0.017,0,0.039,0,0.056,0c-0.264,0.007-0.534,0.005-0.798,0.017
				c-0.439,0.003-0.879,0.003-1.319,0.015c-0.422,0-0.843,0.003-1.262,0.007c-0.308,0.01-0.612,0.001-0.918,0.01
				c-0.052,0-0.109,0.006-0.161-0.009c-0.003-0.001-0.008-0.008-0.008-0.008c0.044-0.042,0.061-0.103,0.096-0.154
				c0.282-0.437,0.601-0.859,0.954-1.243c0.032-0.038,0.063-0.073,0.096-0.109C17.282,20.102,17.447,19.929,17.632,19.78
				L17.632,19.78z"/>
			<path fill="#8DC32F" d="M18.117,19.691c0.049-0.026,0.109-0.043,0.166-0.031c0.096,0.059,0.106,0.195,0.21,0.241
				c0.248,0.125,0.49,0.264,0.712,0.431c0.153,0.111,0.273,0.264,0.413,0.393c0.13,0.133,0.268,0.255,0.381,0.401
				c0.029,0.044,0.072,0.095,0.072,0.151c0,0.038-0.043,0.039-0.072,0.048c-0.107,0.008-0.205-0.054-0.28-0.117
				c0.036,0.091,0.088,0.195,0.059,0.298c-0.039,0.093-0.162,0.112-0.247,0.073c-0.117-0.051-0.205-0.137-0.296-0.229
				c-0.256-0.263-0.476-0.565-0.689-0.869c0.001,0.039,0.015,0.069,0.026,0.104c0.047,0.168,0.086,0.337,0.1,0.513
				c0.001,0.09-0.003,0.189-0.041,0.269c-0.027,0.062-0.093,0.107-0.163,0.106c-0.135,0.005-0.269-0.068-0.34-0.185
				c-0.109-0.177-0.13-0.394-0.13-0.601c-0.059,0.111-0.091,0.231-0.179,0.317c-0.023,0.023-0.073,0.02-0.078-0.021
				c-0.021-0.134,0.015-0.272,0.021-0.407c-0.167,0.242-0.319,0.503-0.537,0.705c-0.057,0.042-0.119,0.096-0.197,0.081
				c-0.026-0.002-0.041-0.032-0.041-0.054c-0.005-0.081,0.026-0.156,0.055-0.227c0.084-0.201,0.194-0.384,0.308-0.562
				c0.143-0.213,0.299-0.419,0.48-0.602C17.917,19.829,18.007,19.748,18.117,19.691L18.117,19.691z"/>
			<path fill="#8DC32F" d="M19.417,19.927c0.026-0.005,0.045-0.016,0.072-0.001c0.191,0.057,0.348,0.19,0.508,0.306
				c0.352,0.266,0.701,0.538,1.025,0.838c0.059,0.057,0.131,0.114,0.16,0.2c-0.072,0.008-0.131-0.026-0.191-0.047
				c-0.176-0.078-0.34-0.17-0.505-0.266c-0.237-0.145-0.476-0.303-0.688-0.486c-0.12-0.101-0.247-0.22-0.325-0.359
				C19.44,20.058,19.414,19.992,19.417,19.927L19.417,19.927z"/>
			<path fill="#8DC32F" d="M20.426,20.15c0.056,0.022,0.107,0.05,0.156,0.081c0.248,0.153,0.486,0.311,0.721,0.481
				c0.068,0.047,0.129,0.105,0.205,0.146c0.055,0.042,0.1,0.085,0.156,0.129c0.059,0.079,0.148,0.133,0.186,0.232
				c0.016,0.051-0.057,0.061-0.096,0.051c-0.123-0.028-0.23-0.109-0.334-0.18c-0.303-0.221-0.576-0.481-0.84-0.753
				C20.523,20.277,20.462,20.222,20.426,20.15L20.426,20.15z"/>
			<path fill="#8DC32F" d="M21.26,20.254c0.084,0.014,0.156,0.056,0.229,0.095c0.266,0.149,0.527,0.322,0.783,0.509
				c0.15,0.111,0.301,0.225,0.424,0.366c0.025,0.033,0.064,0.077,0.045,0.121c-0.055,0.032-0.119,0.003-0.176-0.02
				c-0.178-0.08-0.334-0.199-0.494-0.314c-0.248-0.188-0.482-0.388-0.699-0.605C21.332,20.356,21.273,20.319,21.26,20.254
				L21.26,20.254z"/>
			<path fill="#FEFEFE" d="M16.721,20.495c0.134-0.073,0.264-0.153,0.396-0.225c-0.032,0.036-0.063,0.071-0.096,0.109
				c-0.098,0.042-0.183,0.105-0.277,0.145c-0.01-0.005-0.023-0.023-0.029-0.026L16.721,20.495L16.721,20.495z"/>
			<path fill="#1D3330" d="M19.339,20.303c0.397,0.273,0.782,0.583,1.065,0.983c0.074,0.104,0.153,0.225,0.276,0.286
				c0.15,0.073,0.312,0.091,0.477,0.105c0.197,0.02,0.391,0.024,0.588,0.036c-0.432,0.022-0.869,0.024-1.308,0.032
				c-0.017,0-0.039,0-0.056,0c0.029-0.039,0.056-0.086,0.046-0.142c-0.01-0.135-0.088-0.265-0.163-0.379
				C20.016,20.862,19.677,20.578,19.339,20.303L19.339,20.303z"/>
			<path fill="#8DC32F" d="M22.012,20.321c0.137-0.014,0.26,0.059,0.367,0.12c0.066,0.037,0.115,0.089,0.186,0.113l0,0
				c0.004,0.023,0.018,0.031,0.039,0.031c0.01,0.01,0.023,0.02,0.037,0.027c0,0.029,0.025,0.044,0.051,0.044
				c0.02,0.015,0.037,0.033,0.057,0.053c0,0.035,0.025,0.066,0.064,0.059c0.016,0.01,0.029,0.022,0.045,0.035
				c0.043,0.073,0.111,0.122,0.164,0.186c0.051,0.063,0.117,0.124,0.129,0.209c-0.039-0.007-0.08-0.02-0.117-0.041
				c-0.146-0.078-0.279-0.179-0.412-0.28c-0.166-0.122-0.332-0.252-0.492-0.394C22.086,20.434,22.027,20.393,22.012,20.321
				L22.012,20.321z"/>
			<path fill="#47402D" d="M13.641,20.356c0.024-0.001,0.049-0.018,0.073-0.006c0.021,0.128,0.042,0.258,0.059,0.384
				c0.008,0.024-0.016,0.037-0.027,0.05c-0.111,0.075-0.225,0.148-0.335,0.231c-0.063,0.051-0.137,0.107-0.133,0.198
				c0.119-0.016,0.237-0.035,0.354-0.054c0.033-0.008,0.075-0.016,0.096-0.047c0.028-0.034,0.016-0.086,0.016-0.13
				c0.02,0,0.068-0.026,0.073,0.006c0.028,0.197,0.059,0.385,0.085,0.576c-0.023,0.004-0.046,0.007-0.072,0.01
				c-0.01-0.039-0.011-0.093-0.052-0.117c-0.029-0.022-0.068-0.021-0.101-0.015c-0.252,0.039-0.506,0.078-0.755,0.117
				c-0.045,0.01-0.101,0.015-0.122,0.062c-0.015,0.039-0.005,0.081-0.005,0.122c-0.024,0.001-0.047,0.001-0.07,0.006
				c-0.036-0.205-0.061-0.411-0.095-0.611c-0.021-0.124-0.039-0.269,0.026-0.385c0.063-0.123,0.223-0.179,0.343-0.125
				c0.099,0.041,0.158,0.134,0.195,0.229c0.112-0.13,0.282-0.2,0.394-0.329C13.631,20.483,13.648,20.422,13.641,20.356
				L13.641,20.356z"/>
			<path fill="#1D3330" d="M20.224,20.347c0.131,0.077,0.248,0.173,0.375,0.259c0.27,0.192,0.543,0.378,0.82,0.56
				c0.207,0.136,0.416,0.272,0.637,0.385c0.02,0.01,0.043,0.022,0.062,0.039c-0.107,0-0.211-0.009-0.316-0.01
				c-0.322-0.254-0.646-0.503-0.973-0.757C20.629,20.657,20.419,20.51,20.224,20.347L20.224,20.347z"/>
			<path fill="#FECE12" d="M13.666,20.38l0.031-0.01c0.018,0.125,0.047,0.253,0.057,0.382c-0.13,0.093-0.269,0.174-0.391,0.271
				c-0.065,0.053-0.119,0.129-0.098,0.215c0.119-0.016,0.244-0.039,0.366-0.057c0.049-0.01,0.104-0.026,0.125-0.076
				c0.018-0.036-0.008-0.088,0.029-0.117c0.021,0.063,0.026,0.133,0.036,0.2c0.018,0.12,0.042,0.244,0.054,0.361l-0.02,0.001
				c-0.022-0.037-0.027-0.093-0.075-0.118c-0.05-0.019-0.101-0.012-0.15,0c-0.247,0.037-0.485,0.071-0.73,0.112
				c-0.041,0.005-0.08,0.018-0.109,0.05c-0.029,0.039-0.02,0.092-0.021,0.139l-0.031-0.013c-0.029-0.194-0.061-0.396-0.09-0.595
				c-0.029-0.128-0.036-0.269,0.039-0.382c0.07-0.107,0.227-0.148,0.339-0.08c0.084,0.054,0.13,0.148,0.159,0.239
				c0.026-0.026,0.041-0.054,0.065-0.075c0.11-0.099,0.246-0.169,0.347-0.273C13.645,20.508,13.664,20.441,13.666,20.38
				L13.666,20.38z"/>
			<path fill="#83D5FD" d="M16.744,20.524c0.094-0.039,0.179-0.103,0.277-0.145c-0.354,0.384-0.672,0.807-0.954,1.243
				c0.212-0.373,0.435-0.747,0.648-1.125C16.721,20.501,16.734,20.52,16.744,20.524L16.744,20.524z"/>
			<path fill="#3E3923" d="M26.221,20.83c0.023-0.148,0.045-0.296,0.074-0.438c0.02,0.002,0.039,0.005,0.066,0.008
				c0.006,0.053,0.02,0.101,0.051,0.148c0.037,0.05,0.096,0.083,0.15,0.115c0.244,0.146,0.492,0.288,0.742,0.433
				c0.016,0.009,0.039,0.017,0.043,0.043c0.012,0.083,0.029,0.161,0.035,0.245c-0.352,0.048-0.699,0.098-1.039,0.148
				c-0.045,0.003-0.098,0.01-0.129,0.037c-0.039,0.028-0.047,0.077-0.062,0.117c-0.025-0.001-0.045-0.008-0.068-0.013
				c0.029-0.192,0.064-0.384,0.094-0.578c0.023,0,0.047,0.007,0.068,0.009c0,0.044-0.021,0.118,0.037,0.138
				c0.098,0.012,0.191-0.018,0.285-0.03c0.023-0.131,0.047-0.263,0.066-0.391c-0.076-0.039-0.145-0.1-0.232-0.106
				c-0.07,0.002-0.098,0.078-0.117,0.132C26.266,20.843,26.244,20.833,26.221,20.83L26.221,20.83z"/>
			<path fill="#FECE12" d="M26.305,20.422c0.049-0.024,0.039,0.047,0.057,0.073c0.025,0.081,0.094,0.135,0.168,0.174
				c0.262,0.156,0.527,0.31,0.795,0.467c0.01,0.077,0.025,0.155,0.035,0.233c-0.211,0.022-0.422,0.059-0.631,0.089
				c-0.152,0.019-0.309,0.036-0.463,0.068c-0.07,0.01-0.113,0.075-0.129,0.139c-0.01-0.002-0.023-0.005-0.029-0.01
				c0.029-0.178,0.055-0.352,0.09-0.53c0.004,0,0.018-0.002,0.027-0.004c0,0.049-0.01,0.134,0.059,0.144
				c0.1,0.01,0.197-0.022,0.299-0.029c0.033-0.139,0.049-0.285,0.072-0.423c-0.076-0.043-0.146-0.102-0.234-0.114
				c-0.078-0.013-0.125,0.062-0.146,0.127c-0.008-0.003-0.02-0.007-0.029-0.008C26.266,20.682,26.285,20.55,26.305,20.422
				L26.305,20.422z"/>
			<path fill="#1D3330" d="M21.143,20.537c0.316,0.22,0.611,0.461,0.924,0.688c0.154,0.114,0.316,0.229,0.502,0.278
				c0.199,0.052,0.404,0.059,0.605,0.071c-0.045,0.014-0.092,0.02-0.137,0.02c-0.264,0.01-0.523,0.007-0.781,0
				c0.004-0.073-0.055-0.122-0.102-0.171c-0.127-0.128-0.264-0.252-0.4-0.367c-0.025-0.029-0.059-0.048-0.09-0.068
				c-0.057-0.044-0.102-0.087-0.156-0.129C21.4,20.734,21.256,20.651,21.143,20.537L21.143,20.537z"/>
			<path fill="#1D3330" d="M21.939,20.54c0.307,0.192,0.6,0.4,0.896,0.604c0.107,0.071,0.217,0.151,0.342,0.186
				c0.08,0.025,0.168,0.029,0.254,0.024c-0.092,0.034-0.184,0.06-0.277,0.089c-0.094-0.059-0.182-0.135-0.277-0.201
				c-0.266-0.197-0.529-0.391-0.793-0.591C22.031,20.617,21.982,20.583,21.939,20.54L21.939,20.54z"/>
			<path fill="#6C996C" d="M22.564,20.555c0.02,0.002,0.029,0.014,0.039,0.031C22.582,20.586,22.568,20.578,22.564,20.555
				L22.564,20.555z"/>
			<path fill="#73AD95" d="M22.641,20.613c0.025,0.004,0.041,0.023,0.051,0.044C22.666,20.657,22.641,20.643,22.641,20.613
				L22.641,20.613z"/>
			<path fill="#57702E" d="M22.748,20.71c0.025,0.015,0.049,0.034,0.064,0.059C22.773,20.776,22.748,20.745,22.748,20.71
				L22.748,20.71z"/>
			<path fill="#443919" d="M26.709,20.845c0.166,0.096,0.336,0.192,0.502,0.291c-0.047,0.017-0.096,0.017-0.141,0.024
				c-0.141,0.026-0.287,0.039-0.424,0.063C26.664,21.097,26.68,20.969,26.709,20.845L26.709,20.845z"/>
			<path fill="#3F3B25" d="M12.725,20.988c0.05-0.083,0.156-0.103,0.244-0.102c0.073,0,0.143,0.046,0.176,0.111
				c0.039,0.078,0.057,0.162,0.062,0.252c-0.132,0.02-0.265,0.046-0.4,0.063c-0.044,0.005-0.081-0.022-0.094-0.062
				C12.692,21.162,12.681,21.067,12.725,20.988L12.725,20.988z"/>
			<path fill="#FFFFFF" d="M26.723,20.876c0.143,0.083,0.293,0.164,0.436,0.25c-0.166,0.024-0.328,0.051-0.488,0.072
				C26.684,21.091,26.705,20.983,26.723,20.876L26.723,20.876z"/>
			<path fill="#FFFFFF" d="M12.823,20.933c0.086-0.031,0.197-0.044,0.267,0.026c0.068,0.078,0.086,0.181,0.098,0.271
				c-0.105,0.02-0.215,0.034-0.32,0.056c-0.038,0.001-0.073,0.013-0.109,0c-0.044-0.048-0.037-0.119-0.039-0.176
				C12.712,21.04,12.748,20.959,12.823,20.933L12.823,20.933z"/>
			<path fill="#317CA6" d="M23.49,21.296c0.084,0.005,0.168,0,0.254,0.001h0.006c0.264,0.468,0.537,0.932,0.801,1.396
				c0.006,0.007,0.01,0.02,0.014,0.028c-0.303-0.028-0.613-0.053-0.918-0.09c0.133-0.031,0.273-0.047,0.402-0.096
				c0.037-0.021,0.068-0.038,0.092-0.072c0.004-0.037-0.039-0.059-0.072-0.068c-0.109-0.032-0.23-0.042-0.344-0.049
				c-0.293-0.02-0.59-0.006-0.889-0.02c0.02-0.013,0.039-0.021,0.064-0.021c0.201-0.017,0.404-0.031,0.6-0.065
				c0.051-0.012,0.104-0.018,0.156-0.041c0.016-0.008,0.045-0.027,0.029-0.047c-0.029-0.027-0.068-0.034-0.102-0.044
				c-0.156-0.034-0.316-0.041-0.473-0.052c-0.393-0.021-0.781-0.026-1.172-0.029c0.498-0.026,0.994-0.046,1.488-0.117
				c0.107-0.02,0.229-0.029,0.318-0.093c-0.041-0.063-0.119-0.063-0.186-0.077c-0.387-0.054-0.781-0.054-1.172-0.06
				c-0.117-0.007-0.24-0.002-0.361-0.004c-0.068,0-0.133-0.003-0.195,0.004c-0.01-0.034-0.02-0.068-0.029-0.103
				c0.105,0.001,0.209,0.01,0.316,0.01c0.043,0.003,0.088,0.006,0.137,0.006c0.258,0.007,0.518,0.01,0.781,0
				c0.045,0,0.092-0.006,0.137-0.02c0.004,0,0.016-0.003,0.02-0.005c0.014-0.044,0-0.094-0.039-0.127
				c0.094-0.029,0.186-0.055,0.277-0.089c0.025-0.012,0.049-0.023,0.07-0.029C23.5,21.316,23.492,21.301,23.49,21.296L23.49,21.296z
				"/>
			<path fill="#84D6FE" d="M21.832,21.682c0.062-0.007,0.127-0.004,0.195-0.004c0.121,0.002,0.244-0.003,0.361,0.004
				c0.391,0.006,0.785,0.006,1.172,0.06c0.066,0.014,0.145,0.014,0.186,0.077c-0.09,0.063-0.211,0.073-0.318,0.093
				c-0.494,0.071-0.99,0.091-1.488,0.117c0.391,0.003,0.779,0.008,1.172,0.029c0.156,0.011,0.316,0.018,0.473,0.052
				c0.033,0.01,0.072,0.017,0.102,0.044c0.016,0.02-0.014,0.039-0.029,0.047c-0.053,0.023-0.105,0.029-0.156,0.041
				c-0.195,0.034-0.398,0.049-0.6,0.065c-0.025,0-0.045,0.008-0.064,0.021c0.299,0.014,0.596,0,0.889,0.02
				c0.113,0.007,0.234,0.017,0.344,0.049c0.033,0.01,0.076,0.031,0.072,0.068c-0.023,0.034-0.055,0.051-0.092,0.072
				c-0.129,0.049-0.27,0.064-0.402,0.096c0.305,0.037,0.615,0.062,0.918,0.09c-0.004-0.009-0.008-0.021-0.014-0.028
				c0.006,0.009,0.014,0.021,0.016,0.033c-2.266,0-4.538,0-6.806,0c-0.749-0.004-1.496,0.001-2.251-0.005
				c0.22-0.024,0.438-0.033,0.653-0.049c0.132,0.003,0.254-0.02,0.384-0.024c-0.16-0.012-0.316-0.005-0.472-0.01
				c-0.127-0.009-0.257-0.009-0.378-0.053c-0.027-0.005-0.052-0.037-0.024-0.063c0.08-0.047,0.173-0.055,0.261-0.068
				c0.436-0.059,0.879-0.062,1.322-0.074c-0.234-0.031-0.476-0.048-0.71-0.087c-0.159-0.024-0.317-0.045-0.467-0.091
				c-0.029-0.015-0.083-0.026-0.072-0.066c0.039-0.029,0.088-0.036,0.13-0.048c0.135-0.022,0.273-0.04,0.405-0.057
				c0.56-0.047,1.115-0.073,1.675-0.091c0.08-0.01,0.159-0.012,0.237-0.012c-0.104-0.01-0.208-0.01-0.315-0.018
				c-0.532-0.031-1.064-0.058-1.594-0.087c-0.187-0.005-0.369-0.03-0.555-0.018c-0.001-0.003-0.006-0.013-0.006-0.015l-0.005-0.007
				c0.052,0.015,0.109,0.009,0.161,0.009c0.306-0.009,0.61,0,0.918-0.01c0.418-0.004,0.84-0.007,1.262-0.007
				c0.439-0.012,0.879-0.012,1.319-0.015c0.264-0.012,0.534-0.01,0.798-0.017c0.439-0.008,0.876-0.01,1.308-0.032
				C21.777,21.711,21.807,21.709,21.832,21.682L21.832,21.682z"/>
			<path fill="#317CA6" d="M15.975,21.784l0.008,0.008c0,0.002,0.005,0.012,0.006,0.015c0.186-0.013,0.368,0.013,0.555,0.018
				c0.529,0.029,1.062,0.056,1.594,0.087c0.107,0.008,0.211,0.008,0.315,0.018c-0.078,0-0.158,0.002-0.237,0.012
				c-0.56,0.018-1.115,0.044-1.675,0.091c-0.132,0.017-0.271,0.034-0.405,0.057c-0.042,0.012-0.091,0.019-0.13,0.048
				c-0.012,0.04,0.042,0.052,0.072,0.066c0.149,0.046,0.308,0.066,0.467,0.091c0.234,0.039,0.476,0.056,0.71,0.087
				c-0.443,0.013-0.886,0.016-1.322,0.074c-0.088,0.014-0.181,0.021-0.261,0.068c-0.027,0.026-0.003,0.059,0.024,0.063
				c0.121,0.044,0.251,0.044,0.378,0.053c0.072,0.011,0.146,0.011,0.218,0.011c-0.044,0.005-0.086,0.015-0.13,0.023
				c-0.215,0.016-0.433,0.024-0.653,0.049c-0.026,0.005-0.05,0.005-0.077,0.005c0.129-0.231,0.262-0.454,0.391-0.684
				C15.875,21.956,15.92,21.868,15.975,21.784L15.975,21.784z"/>
			<path fill="#FFFFFF" d="M18.905,21.868c0.274,0.007,0.547,0,0.824,0.012c0.401,0.002,0.802,0.005,1.203,0.012
				c0.07,0,0.143,0.001,0.211,0.008c-0.121,0.022-0.25,0.022-0.361,0.085c0.023,0.011,0.049,0.018,0.074,0.022
				c0.164,0.021,0.336,0.024,0.498,0.039c0.076,0.002,0.15,0.008,0.223,0.002c-0.145,0.035-0.303,0.025-0.449,0.071
				c-0.018,0.003-0.043,0.017-0.023,0.037c0.068,0.034,0.146,0.044,0.221,0.046c-0.133,0.026-0.266,0.031-0.393,0.066
				c-0.02,0.007-0.037,0.021-0.057,0.031c0.023,0.012,0.047,0.022,0.072,0.027c0.137,0.021,0.279,0.026,0.424,0.041
				c-0.15,0.005-0.297,0.012-0.443,0.02c-0.094,0.012-0.195,0.008-0.283,0.049c0.025,0.032,0.074,0.047,0.113,0.063
				c0.131,0.046,0.264,0.083,0.398,0.112c-0.199,0.012-0.4,0.01-0.6,0.012c-0.29,0.013-0.583,0.013-0.873,0.016
				c-0.277,0.014-0.549,0.014-0.826,0.015c-0.229,0.012-0.462,0.012-0.692,0.014c0.125-0.024,0.252-0.044,0.371-0.092
				c0.031-0.011,0.068-0.025,0.091-0.057c0.005-0.026-0.015-0.052-0.036-0.057c-0.082-0.044-0.174-0.053-0.261-0.067
				c0.381-0.003,0.764,0.01,1.147-0.016c0.029-0.007,0.064-0.007,0.098-0.021c0.003-0.02,0-0.031-0.02-0.039
				c-0.068-0.037-0.144-0.044-0.218-0.059c0.166-0.003,0.338,0.02,0.498-0.022c0-0.036-0.042-0.039-0.068-0.051
				c-0.188-0.054-0.384-0.078-0.579-0.105c0.124,0,0.251,0,0.371-0.026c0.036-0.008,0.065-0.024,0.091-0.044
				c-0.068-0.046-0.149-0.054-0.23-0.068C19.254,21.909,19.078,21.896,18.905,21.868L18.905,21.868z"/>
			<path fill="#3E3923" d="M26.646,21.995c0.092-0.022,0.189,0.058,0.189,0.155c0.004,0.088-0.088,0.172-0.182,0.156
				c-0.102-0.007-0.164-0.139-0.117-0.231C26.562,22.031,26.602,22.002,26.646,21.995L26.646,21.995z"/>
			<path fill="#443919" d="M13.273,22c0.101-0.045,0.228,0.053,0.21,0.165c-0.005,0.11-0.148,0.182-0.239,0.115
				C13.142,22.22,13.158,22.036,13.273,22L13.273,22z"/>
			<path fill="#FECE12" d="M13.288,22.015c0.084-0.03,0.179,0.043,0.176,0.136c0.008,0.098-0.121,0.174-0.205,0.115
				C13.163,22.214,13.181,22.044,13.288,22.015L13.288,22.015z"/>
			<path fill="#FECE12" d="M26.654,22.015c0.104-0.02,0.191,0.098,0.146,0.189c-0.029,0.086-0.154,0.115-0.215,0.044
				C26.504,22.183,26.549,22.024,26.654,22.015L26.654,22.015z"/>
			<path fill="#483F2E" d="M12.997,22.659c0.023-0.01,0.044-0.02,0.063-0.029c0.029,0.034,0.062,0.065,0.106,0.085
				c0.062,0.027,0.13,0.024,0.194,0.018c0.306-0.024,0.613-0.052,0.916-0.078c0.059,0.063,0.124,0.126,0.178,0.194
				c-0.261,0.245-0.524,0.496-0.793,0.738c-0.029,0.028-0.06,0.063-0.068,0.107c-0.005,0.039,0.015,0.078,0.023,0.112
				c-0.023,0.01-0.038,0.023-0.063,0.031c-0.084-0.176-0.169-0.35-0.25-0.529c0.022-0.01,0.044-0.021,0.063-0.029
				c0.024,0.034,0.057,0.117,0.114,0.082c0.078-0.044,0.138-0.121,0.211-0.181c-0.054-0.121-0.11-0.246-0.172-0.365
				c-0.082,0.021-0.174,0.007-0.244,0.058c-0.055,0.034-0.041,0.108-0.021,0.166c-0.021,0.01-0.046,0.021-0.065,0.029
				C13.127,22.932,13.06,22.796,12.997,22.659L12.997,22.659z"/>
			<path fill="#4894BE" d="M16.075,22.639c0.156,0.005,0.312-0.002,0.472,0.01c-0.13,0.005-0.252,0.027-0.384,0.024
				c0.044-0.009,0.086-0.019,0.13-0.023C16.221,22.649,16.146,22.649,16.075,22.639L16.075,22.639z"/>
			<path fill="#FECE12" d="M13.047,22.659c0.034,0.009,0.052,0.043,0.084,0.062c0.077,0.049,0.177,0.037,0.273,0.03
				c0.285-0.025,0.571-0.05,0.861-0.073c0.052,0.049,0.103,0.109,0.158,0.165c-0.2,0.196-0.409,0.386-0.612,0.582
				c-0.071,0.065-0.156,0.131-0.213,0.204c-0.042,0.049-0.017,0.113-0.018,0.167l-0.013,0.02c-0.084-0.166-0.163-0.333-0.239-0.503
				c0.034-0.02,0.044,0.024,0.061,0.041c0.013,0.02,0.037,0.031,0.057,0.042c0.112-0.035,0.179-0.142,0.272-0.213
				c-0.062-0.132-0.122-0.257-0.184-0.388c-0.062,0.005-0.127,0.015-0.193,0.023c-0.042,0.01-0.09,0.024-0.112,0.068
				c-0.024,0.045-0.007,0.101-0.005,0.149c-0.005,0-0.021-0.005-0.028-0.007c-0.054-0.108-0.103-0.218-0.153-0.328
				C13.036,22.688,13.023,22.664,13.047,22.659L13.047,22.659z"/>
			<path fill="#3E3923" d="M26.607,22.686c0.018-0.007,0.029-0.021,0.043-0.036c0.088,0.078,0.17,0.163,0.254,0.244
				c-0.141,0.297-0.289,0.593-0.43,0.886c-0.023-0.007-0.045-0.015-0.062-0.022c0.02-0.058,0.053-0.139-0.01-0.175
				c-0.109-0.068-0.23-0.12-0.344-0.181c-0.15-0.071-0.293-0.147-0.443-0.218c-0.068-0.036-0.117,0.041-0.146,0.098
				c-0.02-0.01-0.043-0.024-0.062-0.031c0.082-0.182,0.174-0.357,0.258-0.538c0.023,0.01,0.045,0.018,0.064,0.03
				c-0.012,0.043-0.041,0.087-0.025,0.132c0.023,0.043,0.068,0.063,0.113,0.087c0.186,0.091,0.371,0.187,0.561,0.279
				c0.064,0.031,0.123,0.073,0.191,0.088c0.047-0.006,0.066-0.062,0.082-0.099C26.723,23.052,26.676,22.858,26.607,22.686
				L26.607,22.686z"/>
			<path fill="#FECE12" d="M26.645,22.702c0-0.007,0.002-0.021,0.006-0.026c0.074,0.076,0.152,0.149,0.23,0.225
				c-0.133,0.276-0.266,0.549-0.402,0.827c-0.004,0.022-0.023,0.029-0.043,0.018c0.014-0.044,0.035-0.09,0.016-0.135
				c-0.02-0.048-0.068-0.068-0.107-0.09c-0.227-0.109-0.449-0.222-0.666-0.337c-0.043-0.017-0.086-0.036-0.131-0.022
				c-0.043,0.016-0.064,0.06-0.092,0.094l-0.02-0.015c0.076-0.172,0.16-0.338,0.242-0.508c0.039,0.021,0.006,0.059,0.002,0.09
				c-0.016,0.059,0.033,0.109,0.078,0.13c0.248,0.127,0.496,0.253,0.742,0.376c0.039,0.023,0.102,0.028,0.131-0.016
				c0.082-0.129,0.094-0.293,0.062-0.438C26.68,22.815,26.654,22.761,26.645,22.702L26.645,22.702z"/>
			<path fill="#443919" d="M13.607,22.795c0.186-0.02,0.379-0.036,0.566-0.053c-0.015,0.026-0.037,0.046-0.063,0.068
				c-0.115,0.109-0.231,0.222-0.353,0.329c-0.055-0.109-0.106-0.223-0.156-0.334C13.602,22.801,13.607,22.796,13.607,22.795
				L13.607,22.795z"/>
			<path fill="#FEFEFE" d="M13.625,22.814c0.166-0.02,0.337-0.029,0.503-0.048c-0.121,0.117-0.243,0.227-0.365,0.342
				C13.718,23.011,13.672,22.91,13.625,22.814L13.625,22.814z"/>
			<path fill="#3E3923" d="M14.466,23.205c0.018-0.019,0.038-0.028,0.054-0.044c0.093,0.118,0.176,0.235,0.264,0.356
				c0.012,0.016,0.038,0.039,0.015,0.054c-0.138,0.206-0.278,0.411-0.415,0.618c0.243-0.075,0.487-0.151,0.731-0.22
				c0.084,0.114,0.166,0.234,0.249,0.349c0.01,0.013,0.033,0.03,0.016,0.044c-0.016,0.015-0.031,0.024-0.047,0.034
				c-0.024-0.026-0.047-0.062-0.085-0.08c-0.044-0.015-0.086,0.013-0.117,0.037c-0.21,0.155-0.42,0.312-0.626,0.464
				c-0.031,0.026-0.059,0.058-0.072,0.095c0.013,0.041,0.028,0.08,0.059,0.114c-0.021,0.01-0.044,0.025-0.063,0.042
				c-0.115-0.164-0.229-0.325-0.345-0.485c0.018-0.015,0.037-0.027,0.059-0.04c0.027,0.037,0.062,0.091,0.119,0.081
				c0.049-0.003,0.082-0.044,0.124-0.07c0.194-0.145,0.393-0.289,0.588-0.438c-0.339,0.1-0.671,0.212-1.003,0.312
				c-0.015-0.02-0.031-0.037-0.044-0.057c0.188-0.288,0.378-0.571,0.566-0.856c-0.169,0.112-0.327,0.244-0.496,0.363
				c-0.059,0.047-0.125,0.088-0.161,0.156c-0.021,0.047,0.015,0.089,0.031,0.135c-0.016,0.015-0.034,0.029-0.052,0.042
				c-0.088-0.113-0.167-0.229-0.254-0.343c0.021-0.019,0.038-0.033,0.056-0.048c0.037,0.033,0.08,0.083,0.135,0.075
				c0.063-0.013,0.112-0.052,0.16-0.086c0.184-0.132,0.358-0.264,0.537-0.397c0.031-0.024,0.067-0.052,0.07-0.091
				C14.519,23.278,14.488,23.24,14.466,23.205L14.466,23.205z"/>
			<path fill="#FECE12" d="M14.537,23.308c0.003-0.044-0.052-0.083-0.023-0.124c0.094,0.125,0.184,0.247,0.273,0.374
				c-0.15,0.22-0.301,0.438-0.448,0.661c0.254-0.066,0.51-0.158,0.765-0.223c0.088,0.113,0.169,0.232,0.254,0.35
				c-0.008,0.005-0.015,0.018-0.021,0.026c-0.028-0.029-0.052-0.068-0.096-0.08c-0.047-0.008-0.088,0.021-0.124,0.044
				c-0.21,0.158-0.415,0.31-0.625,0.466c-0.033,0.025-0.067,0.055-0.072,0.094c-0.01,0.049,0.021,0.09,0.036,0.137
				c-0.031,0.004-0.044-0.029-0.062-0.047c-0.093-0.129-0.186-0.261-0.28-0.391c0.005-0.008,0.012-0.018,0.013-0.027
				c0.036,0.027,0.059,0.068,0.103,0.078c0.05,0.006,0.094-0.023,0.133-0.051c0.223-0.166,0.449-0.332,0.677-0.505
				c-0.015-0.013-0.031-0.013-0.047-0.006c-0.342,0.107-0.679,0.215-1.017,0.32c-0.003-0.008-0.02-0.024-0.028-0.032
				c0.176-0.263,0.347-0.526,0.518-0.786c0.026-0.041,0.063-0.082,0.078-0.127c-0.02,0.003-0.041,0.013-0.059,0.029
				c-0.192,0.145-0.391,0.286-0.583,0.433c-0.055,0.047-0.122,0.115-0.084,0.19c0.003,0.02,0.039,0.071-0.005,0.063
				c-0.083-0.098-0.153-0.205-0.229-0.306c0.008-0.005,0.024-0.014,0.029-0.019c0.042,0.028,0.083,0.077,0.14,0.067
				c0.077-0.015,0.137-0.072,0.2-0.112c0.171-0.127,0.337-0.249,0.505-0.378C14.499,23.4,14.542,23.361,14.537,23.308L14.537,23.308
				z"/>
			<path fill="#3E3923" d="M25.156,23.532c0.146,0.035,0.287,0.091,0.43,0.138c0.199,0.063,0.396,0.131,0.596,0.197
				c0.043,0.012,0.088,0.022,0.127,0.007c0.035-0.012,0.062-0.044,0.084-0.073c0.023,0.015,0.039,0.029,0.059,0.04
				c-0.109,0.161-0.225,0.324-0.338,0.48c-0.014-0.018-0.045-0.022-0.053-0.046c0.018-0.03,0.037-0.063,0.049-0.101
				c-0.02-0.032-0.049-0.051-0.084-0.063c-0.072-0.026-0.141-0.046-0.209-0.071c-0.07,0.099-0.139,0.195-0.205,0.291
				c-0.01,0.015-0.031,0.031-0.016,0.046c0.045,0.064,0.082,0.142,0.15,0.186c0.061,0.032,0.117-0.021,0.158-0.065
				c0.02,0.013,0.039,0.026,0.057,0.039c-0.078,0.127-0.174,0.242-0.254,0.368c-0.02-0.014-0.039-0.024-0.059-0.038
				c0.012-0.054,0.031-0.11,0.016-0.164c-0.02-0.081-0.072-0.151-0.117-0.222c-0.152-0.232-0.309-0.469-0.469-0.699
				C25.102,23.694,25.133,23.615,25.156,23.532L25.156,23.532z"/>
			<path fill="#FECE12" d="M25.17,23.557c0.342,0.105,0.686,0.223,1.027,0.337c0.076,0.027,0.156-0.004,0.205-0.063
				c0.004,0.003,0.01,0.016,0.018,0.024c-0.102,0.147-0.205,0.291-0.311,0.436c-0.002-0.005-0.016-0.015-0.021-0.02
				c0.02-0.034,0.045-0.071,0.031-0.11c-0.012-0.036-0.051-0.052-0.084-0.07c-0.074-0.022-0.152-0.05-0.229-0.071
				c-0.084,0.11-0.162,0.229-0.246,0.344c0.031,0.055,0.068,0.105,0.107,0.156c0.029,0.039,0.078,0.081,0.133,0.068
				c0.049,0,0.074-0.044,0.117-0.059c0.004,0.006,0.01,0.013,0.014,0.02c-0.076,0.113-0.154,0.221-0.234,0.332
				c-0.037-0.024-0.01-0.067-0.01-0.102c0.021-0.117-0.062-0.215-0.127-0.309c-0.15-0.233-0.307-0.463-0.459-0.697
				C25.123,23.699,25.146,23.626,25.17,23.557L25.17,23.557z"/>
			<path fill="#3E3923" d="M25.201,23.821c0.184,0.053,0.359,0.121,0.545,0.178c-0.066,0.109-0.145,0.208-0.215,0.314
				C25.42,24.148,25.309,23.984,25.201,23.821L25.201,23.821z"/>
			<path fill="#FFFFFF" d="M25.248,23.855c0.158,0.049,0.312,0.106,0.469,0.155c-0.062,0.088-0.121,0.179-0.186,0.265
				C25.436,24.139,25.342,23.999,25.248,23.855L25.248,23.855z"/>
			<path fill="#3E3923" d="M24.609,24.343c0.072-0.039,0.156-0.053,0.234-0.029c0.113,0.029,0.205,0.137,0.201,0.254
				c0.004,0.084-0.035,0.159-0.074,0.235c0.176,0.021,0.326,0.127,0.502,0.141c0.059,0.001,0.113-0.024,0.158-0.061
				c0.02,0.017,0.033,0.032,0.053,0.047c-0.092,0.103-0.199,0.19-0.287,0.293c-0.168-0.047-0.324-0.123-0.494-0.166
				c-0.059-0.022-0.121-0.016-0.172,0.023c0.061,0.069,0.127,0.132,0.195,0.196c0.035,0.041,0.07,0.09,0.119,0.111
				c0.057,0.02,0.102-0.024,0.141-0.061c0.016,0.017,0.033,0.036,0.049,0.052c-0.137,0.137-0.279,0.273-0.42,0.415
				c-0.02-0.015-0.033-0.03-0.055-0.044c0.025-0.032,0.059-0.063,0.068-0.103c0.01-0.04-0.02-0.074-0.047-0.104
				c-0.129-0.137-0.254-0.268-0.387-0.4c-0.072-0.068-0.131-0.146-0.209-0.209c-0.059-0.04-0.117,0.014-0.158,0.051
				c-0.018-0.021-0.066-0.044-0.027-0.07c0.117-0.115,0.234-0.237,0.355-0.352C24.438,24.489,24.508,24.395,24.609,24.343
				L24.609,24.343z"/>
			<path fill="#FECE12" d="M24.398,24.549c0.094-0.091,0.186-0.2,0.314-0.221c0.145-0.038,0.297,0.073,0.316,0.21
				c0.01,0.107-0.045,0.201-0.102,0.291c0.105-0.013,0.203,0.037,0.297,0.07c0.094,0.03,0.189,0.069,0.289,0.06
				c0.047-0.003,0.086-0.037,0.135-0.047c0,0.034-0.033,0.056-0.057,0.08c-0.07,0.066-0.133,0.143-0.211,0.205
				c-0.156-0.044-0.307-0.122-0.469-0.163c-0.068-0.017-0.16-0.017-0.205,0.051c0.072,0.081,0.15,0.154,0.225,0.232
				c0.035,0.037,0.074,0.086,0.131,0.095c0.049,0.003,0.09-0.028,0.127-0.059c0,0.011,0.002,0.025,0.006,0.034
				c-0.131,0.127-0.258,0.257-0.387,0.382c-0.027-0.027,0.016-0.054,0.021-0.083c0.039-0.049,0.01-0.11-0.029-0.149
				c-0.182-0.193-0.363-0.378-0.543-0.569c-0.033-0.026-0.068-0.063-0.111-0.067c-0.049-0.005-0.09,0.031-0.123,0.059
				c0-0.006-0.006-0.018-0.01-0.029C24.141,24.8,24.271,24.678,24.398,24.549L24.398,24.549z"/>
			<path fill="#3E3923" d="M15.389,24.431c0.015-0.02,0.029-0.039,0.044-0.059c0.248,0.215,0.488,0.44,0.736,0.66
				c-0.044,0.103-0.086,0.207-0.132,0.312c-0.021-0.007-0.044-0.017-0.067-0.021c0.01-0.146-0.01-0.296-0.089-0.418
				c-0.036-0.056-0.084-0.104-0.145-0.139c-0.049-0.017-0.08,0.024-0.107,0.057c-0.076,0.083-0.151,0.166-0.225,0.253
				c0.056,0.054,0.116,0.11,0.194,0.112c0.055,0.003,0.104-0.028,0.155-0.048c0.021,0.012,0.036,0.028,0.059,0.048
				c-0.104,0.125-0.215,0.242-0.319,0.367c-0.024-0.016-0.042-0.039-0.06-0.055c0.021-0.058,0.049-0.116,0.034-0.183
				c-0.016-0.07-0.073-0.12-0.128-0.166c-0.067,0.068-0.124,0.146-0.194,0.22c-0.029,0.036-0.073,0.075-0.083,0.129
				c0.01,0.066,0.07,0.101,0.117,0.132c0.143,0.096,0.317,0.104,0.48,0.094c0.008,0.02,0.013,0.038,0.02,0.059
				c-0.103,0.049-0.203,0.102-0.304,0.15c-0.243-0.22-0.488-0.444-0.729-0.661c0.015-0.02,0.029-0.036,0.047-0.054
				c0.039,0.024,0.075,0.07,0.127,0.057c0.026-0.006,0.052-0.029,0.073-0.05c0.178-0.2,0.354-0.397,0.527-0.6
				c0.018-0.022,0.044-0.052,0.041-0.089C15.459,24.494,15.418,24.463,15.389,24.431L15.389,24.431z"/>
			<path fill="#FECE12" d="M15.417,24.417c0.005-0.001,0.016-0.008,0.023-0.013c0.232,0.21,0.467,0.42,0.697,0.63
				c-0.005,0.052-0.033,0.096-0.049,0.14c-0.024,0.049-0.034,0.102-0.067,0.144l-0.026-0.01c0.005-0.156-0.021-0.322-0.122-0.449
				c-0.037-0.046-0.081-0.093-0.137-0.114c-0.054-0.018-0.094,0.026-0.124,0.062c-0.08,0.089-0.163,0.179-0.239,0.271
				c0.059,0.052,0.111,0.107,0.189,0.125c0.066,0.017,0.127-0.013,0.186-0.039c0.008,0.004,0.026,0.014,0.034,0.023
				c-0.096,0.117-0.197,0.225-0.292,0.335c-0.01-0.007-0.026-0.018-0.034-0.022c0.024-0.063,0.049-0.136,0.024-0.204
				c-0.028-0.073-0.084-0.13-0.148-0.176c-0.085,0.103-0.174,0.202-0.257,0.302c-0.038,0.04-0.049,0.104-0.006,0.147
				c0.109,0.119,0.278,0.176,0.438,0.178c0.049,0.012,0.122-0.029,0.146,0.022c-0.073,0.041-0.148,0.08-0.223,0.116
				c-0.023,0.008-0.052,0.029-0.07,0.006c-0.228-0.21-0.459-0.411-0.687-0.621c0.005-0.005,0.013-0.017,0.018-0.023
				c0.034,0.023,0.068,0.058,0.112,0.051c0.062,0,0.1-0.057,0.14-0.1c0.156-0.181,0.317-0.359,0.475-0.542
				c0.028-0.029,0.056-0.063,0.062-0.103C15.49,24.497,15.443,24.46,15.417,24.417L15.417,24.417z"/>
			<path fill="#443919" d="M24.463,24.549c0.059-0.049,0.146-0.079,0.221-0.039c0.096,0.054,0.176,0.153,0.16,0.264
				c-0.016,0.112-0.104,0.189-0.176,0.268c-0.078-0.077-0.156-0.156-0.23-0.234c-0.033-0.036-0.076-0.07-0.082-0.121
				C24.361,24.624,24.418,24.587,24.463,24.549L24.463,24.549z"/>
			<path fill="#FFFFFF" d="M24.541,24.526c0.062-0.031,0.131-0.008,0.182,0.036c0.062,0.052,0.121,0.13,0.105,0.216
				c-0.02,0.097-0.098,0.166-0.164,0.234c-0.08-0.083-0.162-0.166-0.244-0.255c-0.025-0.024-0.059-0.061-0.039-0.097
				C24.424,24.604,24.479,24.556,24.541,24.526L24.541,24.526z"/>
			<path fill="#403B29" d="M23.129,25.52c0.266-0.183,0.533-0.37,0.803-0.557c0.088,0.081,0.18,0.151,0.258,0.23
				c-0.006,0.021-0.025,0.041-0.043,0.059c-0.139-0.054-0.309-0.101-0.451-0.025c0.158,0.245,0.328,0.488,0.488,0.73
				c0.025,0.036,0.049,0.075,0.088,0.095c0.051,0.016,0.094-0.02,0.139-0.043c0.014,0.019,0.023,0.043,0.037,0.062
				c-0.164,0.11-0.33,0.228-0.492,0.335c-0.014-0.02-0.023-0.041-0.035-0.061c0.035-0.027,0.08-0.059,0.088-0.11
				c-0.008-0.047-0.037-0.081-0.057-0.12c-0.162-0.241-0.328-0.485-0.494-0.72c-0.104,0.109-0.141,0.271-0.133,0.427
				c-0.023,0.01-0.053,0.016-0.076,0.027C23.213,25.735,23.164,25.63,23.129,25.52L23.129,25.52z"/>
			<path fill="#FECE12" d="M23.17,25.515c0.254-0.175,0.502-0.347,0.756-0.522c0.084,0.064,0.162,0.138,0.24,0.205
				c-0.01,0.006-0.02,0.022-0.021,0.034c-0.135-0.054-0.283-0.088-0.424-0.039c-0.02,0.011-0.072,0.02-0.043,0.052
				c0.174,0.256,0.346,0.508,0.518,0.764c0.029,0.054,0.098,0.086,0.156,0.059c0.02-0.009,0.059-0.043,0.066,0
				c-0.154,0.105-0.303,0.208-0.457,0.315c-0.025-0.042,0.033-0.062,0.049-0.09c0.029-0.049,0.01-0.112-0.02-0.156
				c-0.176-0.26-0.352-0.513-0.523-0.771c-0.111,0.082-0.152,0.231-0.16,0.361c-0.006,0.034,0.014,0.103-0.049,0.097
				c-0.029-0.08-0.059-0.165-0.09-0.246C23.164,25.555,23.148,25.527,23.17,25.515L23.17,25.515z"/>
			<path fill="#4B4841" d="M16.203,25.075c0.146,0.089,0.293,0.186,0.443,0.278c0.098,0.066,0.208,0.118,0.282,0.213
				c0.066,0.071,0.101,0.179,0.075,0.276c-0.021,0.092-0.093,0.176-0.187,0.199c-0.082,0.025-0.169,0.006-0.252-0.019
				c0.018,0.137-0.016,0.273-0.016,0.407c0,0.061-0.005,0.115,0.021,0.169c0.015,0.038,0.047,0.067,0.075,0.093
				c-0.001,0.026-0.022,0.043-0.032,0.062c-0.121-0.077-0.243-0.146-0.355-0.227c0.015-0.091,0.021-0.181,0.031-0.271
				c0.01-0.107,0.038-0.217,0.012-0.324c-0.005-0.034-0.031-0.057-0.056-0.08c-0.059,0.093-0.115,0.189-0.176,0.282
				c-0.02,0.039-0.052,0.083-0.044,0.132c0.021,0.039,0.061,0.063,0.096,0.088c-0.016,0.021-0.029,0.04-0.041,0.063
				c-0.173-0.104-0.337-0.215-0.506-0.319c0.013-0.021,0.026-0.041,0.041-0.063c0.039,0.022,0.075,0.047,0.124,0.042
				c0.046-0.011,0.067-0.059,0.091-0.098c0.128-0.205,0.252-0.403,0.379-0.608c0.024-0.044,0.059-0.086,0.049-0.137
				c-0.011-0.047-0.052-0.068-0.088-0.096C16.181,25.117,16.192,25.095,16.203,25.075L16.203,25.075z"/>
			<path fill="#FECE12" d="M16.252,25.176c-0.016-0.022-0.066-0.036-0.039-0.071c0.156,0.099,0.317,0.205,0.48,0.304
				c0.11,0.067,0.229,0.141,0.276,0.264c0.062,0.134-0.016,0.31-0.158,0.349c-0.096,0.031-0.192-0.002-0.282-0.031
				c0.054,0.192-0.047,0.396,0.007,0.591c0.015,0.051,0.047,0.088,0.083,0.122c-0.005,0.004-0.018,0.017-0.026,0.02
				c-0.105-0.066-0.21-0.133-0.315-0.2c0.016-0.162,0.044-0.322,0.049-0.481c0.01-0.083-0.015-0.179-0.091-0.213
				c-0.07,0.108-0.142,0.225-0.213,0.338c-0.029,0.049-0.029,0.127,0.023,0.161c0.013,0.017,0.057,0.044,0.021,0.059
				c-0.16-0.098-0.314-0.196-0.469-0.303c0.023-0.024,0.055,0.002,0.082,0.01c0.059,0.029,0.119-0.015,0.145-0.066
				c0.145-0.231,0.285-0.456,0.428-0.686C16.281,25.293,16.296,25.22,16.252,25.176L16.252,25.176z"/>
			<path fill="#3E3923" d="M16.479,25.432c0.022-0.034,0.07-0.054,0.11-0.034c0.067,0.029,0.127,0.078,0.171,0.145
				c0.044,0.071,0.021,0.158-0.026,0.227c-0.039,0.066-0.106,0.125-0.189,0.123c-0.104-0.001-0.197-0.055-0.28-0.117
				C16.337,25.659,16.402,25.545,16.479,25.432L16.479,25.432z"/>
			<path fill="#FFFFFF" d="M16.501,25.438c0.018-0.034,0.061-0.039,0.088-0.018c0.067,0.037,0.134,0.085,0.165,0.156
				c0.028,0.056,0,0.124-0.031,0.174c-0.034,0.058-0.09,0.114-0.165,0.122c-0.098,0.004-0.189-0.05-0.265-0.099
				C16.359,25.659,16.426,25.547,16.501,25.438L16.501,25.438z"/>
			<path fill="#3E3923" d="M22.676,25.742c0.137-0.062,0.27-0.124,0.406-0.181c0.01,0.022,0.018,0.042,0.027,0.063
				c-0.039,0.032-0.088,0.062-0.102,0.109c-0.01,0.066,0.023,0.127,0.049,0.188c0.113,0.269,0.234,0.542,0.352,0.809
				c-0.053,0.023-0.102,0.044-0.15,0.065c-0.312-0.188-0.617-0.378-0.928-0.563c0.072,0.173,0.146,0.344,0.219,0.517
				c0.025,0.052,0.045,0.118,0.098,0.161c0.055,0.032,0.123,0.006,0.182,0.005c0.008,0.021,0.014,0.042,0.023,0.063
				c-0.143,0.062-0.287,0.128-0.43,0.191c-0.01-0.022-0.02-0.045-0.025-0.068c0.041-0.027,0.08-0.055,0.104-0.099
				c0.023-0.051,0-0.107-0.02-0.155c-0.094-0.225-0.189-0.447-0.289-0.669c-0.01-0.035-0.049-0.04-0.072-0.049
				c-0.049-0.018-0.104-0.01-0.15-0.005c-0.01-0.02-0.016-0.044-0.025-0.06c0.117-0.056,0.238-0.106,0.357-0.16
				c0.014-0.008,0.029-0.016,0.047-0.005c0.264,0.166,0.527,0.337,0.797,0.5c-0.053-0.153-0.127-0.301-0.189-0.449
				c-0.025-0.061-0.051-0.13-0.117-0.161c-0.045-0.012-0.09,0-0.137,0.015C22.695,25.784,22.686,25.762,22.676,25.742L22.676,25.742
				z"/>
			<path fill="#FECE12" d="M22.701,25.75c0.121-0.05,0.242-0.108,0.365-0.154l0.014,0.007c-0.008,0.044-0.062,0.055-0.078,0.098
				c-0.043,0.088,0.016,0.174,0.045,0.252c0.111,0.257,0.221,0.515,0.336,0.77c-0.043,0.019-0.078,0.034-0.125,0.049
				c-0.279-0.166-0.559-0.338-0.836-0.509c-0.045-0.023-0.088-0.054-0.133-0.073c0.078,0.186,0.158,0.369,0.236,0.555
				c0.029,0.059,0.049,0.134,0.102,0.181c0.055,0.042,0.127,0.018,0.189,0.018l0.01,0.017c-0.125,0.073-0.264,0.124-0.398,0.186
				c-0.021-0.041,0.033-0.056,0.053-0.083c0.059-0.047,0.059-0.132,0.029-0.197c-0.098-0.228-0.199-0.455-0.293-0.684
				c-0.01-0.018-0.016-0.04-0.039-0.05c-0.059-0.031-0.131-0.023-0.195-0.031l-0.016-0.02c0.117-0.054,0.24-0.112,0.361-0.159
				c0.285,0.172,0.572,0.361,0.861,0.532c-0.055-0.155-0.129-0.312-0.195-0.461c-0.035-0.073-0.059-0.158-0.123-0.205
				c-0.049-0.034-0.104-0.013-0.156-0.012L22.701,25.75L22.701,25.75z"/>
			<path fill="#3E3923" d="M17.116,25.718c0.015-0.026,0.024-0.042,0.036-0.065c0.181,0.083,0.356,0.168,0.539,0.253
				c-0.01,0.018-0.024,0.04-0.036,0.062c-0.038-0.015-0.077-0.034-0.121-0.026c-0.042,0.014-0.059,0.059-0.08,0.095
				c-0.103,0.236-0.205,0.466-0.31,0.696c-0.015,0.036-0.034,0.075-0.021,0.119c0.016,0.044,0.059,0.059,0.093,0.085
				c0.006,0.018-0.013,0.04-0.018,0.062c-0.184-0.076-0.363-0.161-0.539-0.244c-0.003-0.022,0.015-0.044,0.023-0.065
				c0.044,0.015,0.089,0.034,0.132,0.021c0.032-0.017,0.05-0.049,0.065-0.076c0.106-0.238,0.213-0.473,0.319-0.708
				c0.015-0.036,0.033-0.073,0.024-0.109C17.212,25.762,17.157,25.742,17.116,25.718L17.116,25.718z"/>
			<path fill="#FECE12" d="M17.149,25.715c0-0.012,0.006-0.028,0.008-0.034c0.164,0.078,0.33,0.154,0.498,0.226
				c-0.003,0.009-0.005,0.026-0.007,0.034c-0.042-0.015-0.089-0.032-0.133-0.011c-0.038,0.016-0.057,0.055-0.073,0.089
				c-0.107,0.243-0.216,0.485-0.326,0.725c-0.018,0.046-0.032,0.105,0.008,0.144c0.018,0.03,0.075,0.04,0.07,0.086
				c-0.159-0.063-0.314-0.144-0.472-0.213c-0.015-0.007-0.062-0.021-0.029-0.041c0.041,0.003,0.093,0.029,0.133,0.005
				c0.049-0.021,0.067-0.073,0.088-0.12c0.107-0.243,0.225-0.482,0.326-0.728C17.271,25.806,17.214,25.735,17.149,25.715
				L17.149,25.715z"/>
			<path fill="#443919" d="M17.614,26.162c0.14-0.129,0.344-0.198,0.529-0.137c0.073,0.022,0.133,0.073,0.195,0.114
				c0.052,0.039,0.119,0.016,0.177,0.015c-0.005,0.132-0.016,0.259-0.016,0.384c-0.033,0.008-0.062,0.008-0.093,0
				c-0.018-0.125-0.057-0.264-0.155-0.358c-0.07-0.069-0.182-0.103-0.275-0.059c-0.107,0.058-0.176,0.166-0.222,0.273
				c-0.065,0.158-0.107,0.337-0.06,0.507c0.029,0.118,0.133,0.221,0.262,0.239c0.127,0.011,0.239-0.063,0.335-0.137
				c0.012,0.02,0.042,0.039,0.033,0.066c-0.106,0.105-0.248,0.181-0.397,0.184c-0.148,0-0.295-0.055-0.396-0.162
				c-0.098-0.103-0.155-0.239-0.158-0.373C17.37,26.509,17.461,26.302,17.614,26.162L17.614,26.162z"/>
			<path fill="#FECE12" d="M17.689,26.13c0.135-0.104,0.327-0.137,0.486-0.068c0.061,0.021,0.106,0.073,0.165,0.104
				c0.049,0.026,0.101,0.015,0.155,0.014c-0.008,0.113-0.01,0.228-0.017,0.35c-0.02,0-0.037,0-0.052,0
				c-0.024-0.134-0.061-0.269-0.16-0.363c-0.078-0.074-0.205-0.108-0.306-0.059c-0.122,0.063-0.188,0.194-0.237,0.312
				c-0.063,0.163-0.101,0.346-0.041,0.517c0.041,0.12,0.156,0.221,0.288,0.221c0.103,0.009,0.195-0.034,0.275-0.091
				c0.02-0.013,0.036-0.031,0.06-0.024c-0.006,0.036-0.041,0.052-0.065,0.078c-0.103,0.076-0.229,0.125-0.36,0.114
				c-0.121-0.012-0.241-0.059-0.326-0.146c-0.12-0.112-0.171-0.287-0.163-0.444C17.416,26.443,17.523,26.248,17.689,26.13
				L17.689,26.13z"/>
			<path fill="#3E3923" d="M20.898,26.306c0.316-0.08,0.635-0.151,0.953-0.229c0.062,0.095,0.121,0.194,0.176,0.288
				c-0.016,0.01-0.035,0.026-0.055,0.038c-0.104-0.085-0.229-0.148-0.365-0.16c-0.074-0.005-0.152,0.004-0.217,0.044
				c-0.039,0.024-0.023,0.077-0.02,0.114c0.025,0.109,0.051,0.222,0.074,0.33c0.068-0.01,0.143-0.027,0.191-0.076
				c0.039-0.046,0.057-0.109,0.059-0.171c0.027-0.007,0.053-0.015,0.082-0.02c0.033,0.156,0.068,0.312,0.107,0.471
				c-0.025,0.006-0.053,0.016-0.078,0.018c-0.029-0.052-0.064-0.11-0.127-0.134c-0.064-0.025-0.137-0.01-0.209,0.009
				c0.023,0.118,0.053,0.232,0.076,0.353c0.012,0.048,0.049,0.107,0.104,0.095c0.211-0.032,0.367-0.193,0.465-0.374
				c0.02,0.001,0.039,0.01,0.059,0.013c-0.012,0.112-0.031,0.227-0.049,0.335c-0.318,0.078-0.637,0.156-0.959,0.224
				c-0.004-0.02-0.01-0.041-0.014-0.065c0.059-0.012,0.127-0.037,0.131-0.109c0-0.054-0.023-0.105-0.033-0.162
				c-0.053-0.22-0.102-0.441-0.152-0.658c-0.008-0.04-0.02-0.086-0.062-0.107c-0.039-0.016-0.078-0.005-0.121,0
				C20.908,26.348,20.904,26.326,20.898,26.306L20.898,26.306z"/>
			<path fill="#FECE12" d="M20.918,26.318c0.309-0.073,0.621-0.146,0.932-0.22c0.045,0.085,0.1,0.163,0.146,0.247
				c0.012,0.02-0.027,0.046-0.039,0.02c-0.121-0.093-0.283-0.157-0.443-0.14c-0.053,0.008-0.107,0.018-0.146,0.056
				c-0.033,0.025-0.023,0.073-0.02,0.112c0.029,0.125,0.055,0.244,0.084,0.362c0.072-0.013,0.154-0.029,0.213-0.079
				c0.051-0.046,0.061-0.122,0.074-0.185c0.014,0,0.033,0,0.043,0c0.031,0.134,0.061,0.268,0.09,0.404
				c0.01,0.024-0.002,0.039-0.031,0.039c-0.037-0.058-0.072-0.112-0.135-0.136c-0.078-0.03-0.162-0.006-0.24,0.01
				c0.025,0.127,0.055,0.249,0.084,0.378c0.01,0.046,0.039,0.103,0.096,0.107c0.068,0.003,0.137-0.026,0.195-0.057
				c0.133-0.062,0.227-0.183,0.305-0.31c0.004,0,0.02-0.002,0.029-0.002c-0.016,0.1-0.029,0.205-0.049,0.307
				c-0.309,0.071-0.611,0.151-0.918,0.216c-0.002-0.006-0.006-0.018-0.006-0.022c0.033-0.021,0.074-0.029,0.102-0.061
				c0.025-0.039,0.02-0.084,0.012-0.128c-0.061-0.256-0.117-0.515-0.178-0.769c-0.01-0.063-0.049-0.137-0.125-0.125
				C20.967,26.34,20.928,26.359,20.918,26.318L20.918,26.318z"/>
			<path fill="#3E3923" d="M18.926,26.281c0.077-0.012,0.155-0.026,0.234-0.038c0.051,0.366,0.1,0.736,0.155,1.104
				c0.003,0.08,0.078,0.126,0.146,0.141c-0.003,0.022-0.006,0.049-0.01,0.071H19.44c-0.183-0.032-0.372-0.065-0.558-0.091
				c0.003-0.026,0.005-0.046,0.008-0.07c0.044-0.003,0.112,0.018,0.132-0.036c0.013-0.101-0.02-0.2-0.026-0.296
				c-0.13-0.022-0.26-0.046-0.392-0.063c-0.036,0.081-0.098,0.149-0.098,0.241c0.003,0.063,0.073,0.091,0.124,0.11
				c-0.001,0.022-0.005,0.046-0.011,0.07c-0.124-0.02-0.249-0.039-0.373-0.062c-0.015-0.006-0.034-0.011-0.049-0.015
				c-0.003-0.022-0.003-0.044-0.005-0.064c0.093-0.01,0.179-0.059,0.225-0.139c0.159-0.28,0.312-0.557,0.47-0.837
				C18.896,26.297,18.907,26.281,18.926,26.281L18.926,26.281z"/>
			<path fill="#FECE12" d="M18.917,26.302c0.073-0.011,0.15-0.027,0.231-0.03c0.048,0.364,0.1,0.726,0.152,1.092
				c0.006,0.075,0.075,0.122,0.143,0.144l-0.003,0.025c-0.179-0.029-0.354-0.054-0.528-0.088c0-0.006-0.005-0.021-0.005-0.029
				c0.041,0,0.088,0.012,0.121-0.02c0.029-0.032,0.021-0.083,0.02-0.123c-0.015-0.073-0.021-0.151-0.034-0.227
				c-0.139-0.021-0.277-0.046-0.414-0.066c-0.042,0.078-0.101,0.156-0.112,0.244c-0.01,0.081,0.068,0.125,0.128,0.152
				c-0.011,0.034-0.047,0.017-0.071,0.017c-0.111-0.022-0.223-0.037-0.334-0.061c-0.021-0.039,0.041-0.037,0.063-0.045
				c0.085-0.023,0.14-0.095,0.181-0.166C18.605,26.844,18.76,26.575,18.917,26.302L18.917,26.302z"/>
			<path fill="#3C3105" d="M20.693,26.333c0.045-0.003,0.088-0.031,0.137-0.052c0.043,0.12,0.082,0.247,0.121,0.367
				c-0.029,0.009-0.057,0.021-0.082,0.031c-0.064-0.112-0.15-0.223-0.27-0.278c-0.102-0.042-0.229-0.027-0.297,0.063
				c-0.084,0.112-0.101,0.266-0.094,0.402c0.006,0.149,0.039,0.313,0.14,0.43c0.078,0.096,0.208,0.14,0.326,0.101
				c0.117-0.036,0.191-0.146,0.258-0.241c0.02,0.014,0.035,0.024,0.055,0.036c-0.082,0.183-0.23,0.34-0.436,0.366h-0.154
				c-0.179-0.022-0.335-0.144-0.41-0.305c-0.131-0.257-0.075-0.594,0.124-0.802c0.11-0.117,0.279-0.176,0.43-0.146
				C20.592,26.316,20.639,26.333,20.693,26.333L20.693,26.333z"/>
			<path fill="#FECE12" d="M20.693,26.354c0.045-0.005,0.082-0.028,0.123-0.048c0.033,0.106,0.068,0.204,0.102,0.303
				c0.025,0.036-0.023,0.036-0.043,0.046c-0.061-0.109-0.143-0.212-0.264-0.266c-0.1-0.047-0.227-0.042-0.305,0.041
				c-0.088,0.098-0.107,0.222-0.117,0.34c-0.007,0.188,0.02,0.386,0.14,0.534c0.085,0.107,0.234,0.158,0.369,0.107
				c0.107-0.037,0.178-0.137,0.236-0.227c0.01,0.004,0.018,0.01,0.023,0.017c-0.059,0.137-0.17,0.264-0.316,0.31
				c-0.078,0.032-0.166,0.032-0.244,0.025c-0.195-0.025-0.354-0.171-0.423-0.348c-0.092-0.263-0.02-0.586,0.201-0.767
				c0.098-0.078,0.229-0.121,0.348-0.098C20.582,26.33,20.639,26.354,20.693,26.354L20.693,26.354z"/>
			<path fill="#443919" d="M18.861,26.509c0.018-0.031,0.034-0.062,0.059-0.091c0.029,0.19,0.06,0.377,0.078,0.571
				c-0.122-0.02-0.248-0.038-0.368-0.062C18.707,26.784,18.785,26.648,18.861,26.509L18.861,26.509z"/>
			<path fill="#FFFFFF" d="M18.764,26.73c0.05-0.088,0.089-0.178,0.146-0.256c0.021,0.163,0.047,0.325,0.068,0.493
				c-0.104-0.02-0.208-0.039-0.317-0.054C18.692,26.851,18.731,26.789,18.764,26.73L18.764,26.73z"/>
			<path fill="#4B4841" d="M18.179,27.351c0.006-0.023,0.01-0.046,0.013-0.068c0.001,0.021,0.001,0.042,0.005,0.064
				c0.015,0.004,0.034,0.009,0.049,0.015C18.225,27.358,18.199,27.354,18.179,27.351L18.179,27.351z"/>
		</g>
	</g>
</g>
<g>
	<path fill="#D0D0D5" d="M39,20c0,2.991-0.714,5.812-1.95,8.332h1.115C39.332,25.793,40,22.979,40,20
		c0-2.979-0.669-5.794-1.836-8.334h-1.115C38.286,14.187,39,17.008,39,20z"/>
	<path fill="#D0D0D5" d="M1,20c0-2.992,0.714-5.813,1.952-8.334H1.836C0.669,14.206,0,17.021,0,20c0,2.979,0.668,5.793,1.835,8.332
		h1.116C1.714,25.812,1,22.991,1,20z"/>
</g>
</svg>
