<?xml version="1.0" encoding="utf-8"?>
<!-- Generator: Adobe Illustrator 16.0.0, SVG Export Plug-In . SVG Version: 6.00 Build 0)  -->
<!DOCTYPE svg PUBLIC "-//W3C//DTD SVG 1.0//EN" "http://www.w3.org/TR/2001/REC-SVG-20010904/DTD/svg10.dtd">
<svg version="1.0" id="Layer_1" xmlns="http://www.w3.org/2000/svg" xmlns:xlink="http://www.w3.org/1999/xlink" x="0px" y="0px"
	 width="40px" height="40px" viewBox="0 0 40 40" enable-background="new 0 0 40 40" xml:space="preserve">
<g>
	<g>
		<path fill="#EE2E2F" d="M39.37,15.001C37.148,6.374,29.319,0,20,0v15.001H39.37z"/>
		<path fill="#EE2E2F" d="M0.628,25C1.982,30.254,5.417,34.665,10,37.316V25H0.628z"/>
		<path fill="#EE2E2F" d="M10,2.683C5.417,5.334,1.982,9.746,0.628,15.001H10V2.683z"/>
		<path fill="#EE2E2F" d="M39.37,25H20v15C29.319,40,37.148,33.627,39.37,25z"/>
		<path fill="#FFFFFF" d="M12.5,1.46c-0.866,0.352-1.702,0.759-2.5,1.223v12.319H0.628C0.42,15.813,0.267,16.648,0.159,17.5H12.5
			V1.46z"/>
		<path fill="#FFFFFF" d="M0.159,22.5c0.107,0.852,0.261,1.686,0.469,2.5H10v12.316c0.798,0.466,1.634,0.872,2.5,1.224V22.5H0.159z"
			/>
		<path fill="#FFFFFF" d="M39.37,25c0.21-0.814,0.363-1.648,0.469-2.5H17.5v17.339C18.317,39.941,19.15,40,20,40V25H39.37z"/>
		<path fill="#FFFFFF" d="M39.839,17.5c-0.105-0.851-0.259-1.686-0.469-2.498H20V0c-0.85,0-1.683,0.059-2.5,0.161V17.5H39.839z"/>
		<path fill="#213065" d="M39.839,22.5C39.941,21.68,40,20.846,40,20.001c0-0.848-0.059-1.682-0.161-2.502H17.5V0.161
			c-1.746,0.218-3.425,0.661-5,1.299V17.5H0.159C0.057,18.32,0,19.153,0,20.001c0,0.845,0.057,1.678,0.159,2.499H12.5v16.04
			c1.575,0.639,3.254,1.081,5,1.299V22.5H39.839z"/>
	</g>
</g>
</svg>
