<?xml version="1.0" encoding="utf-8"?>
<!-- Generator: Adobe Illustrator 16.0.0, SVG Export Plug-In . SVG Version: 6.00 Build 0)  -->
<!DOCTYPE svg PUBLIC "-//W3C//DTD SVG 1.0//EN" "http://www.w3.org/TR/2001/REC-SVG-20010904/DTD/svg10.dtd">
<svg version="1.0" id="Layer_1" xmlns="http://www.w3.org/2000/svg" xmlns:xlink="http://www.w3.org/1999/xlink" x="0px" y="0px"
	 width="40px" height="40px" viewBox="0 0 40 40" enable-background="new 0 0 40 40" xml:space="preserve">
<g>
	<g>
		<path fill="#009543" d="M20.001,40c8.07,0,15.02-4.781,18.18-11.665H1.821C4.98,35.219,11.932,40,20.001,40z"/>
		<path fill="#FFFFFF" d="M20.001,0C11.932,0,4.98,4.787,1.821,11.668h36.359C35.021,4.787,28.071,0,20.001,0z"/>
		<path fill="#FC3D32" d="M0,20.001c0,2.974,0.655,5.796,1.821,8.334h36.359c1.165-2.538,1.82-5.36,1.82-8.334
			c0-2.975-0.655-5.797-1.82-8.333H1.821C0.655,14.204,0,17.026,0,20.001z"/>
		<path fill="#FC3D32" d="M0,20.001c0,8.069,4.785,15.02,11.667,18.18V1.821C4.785,4.979,0,11.931,0,20.001z"/>
	</g>
</g>
<path fill="#D0D0D5" d="M11.667,2.951C14.187,1.714,17.008,1,20,1c7.485,0,13.955,4.362,17.05,10.668h1.115
	C35.003,4.788,28.068,0,20,0c-2.978,0-5.793,0.668-8.333,1.836V2.951z"/>
</svg>
