<svg xmlns="http://www.w3.org/2000/svg" xmlns:xlink="http://www.w3.org/1999/xlink" width="40" height="40" viewBox="0 0 40 40">
    <defs>
        <path id="8k1hktfisa" d="M40 20c0 11.046-8.954 20-20 20S0 31.046 0 20C0 8.956 8.954 0 20 0s20 8.956 20 20"/>
    </defs>
    <g fill="none" fill-rule="evenodd">
        <g>
            <g>
                <g fill="#D0D0D5" fill-rule="nonzero">
                    <path d="M20 0c11.046 0 20 8.954 20 20s-8.954 20-20 20S0 31.046 0 20 8.954 0 20 0zm0 1C9.507 1 1 9.507 1 20s8.507 19 19 19 19-8.507 19-19S30.493 1 20 1z" transform="translate(-78.000000, -720.000000) translate(78.000000, 720.000000)"/>
                </g>
                <g transform="translate(-78.000000, -720.000000) translate(78.000000, 720.000000)">
                    <mask id="rbxm6hj8bb" fill="#fff">
                        <use xlink:href="#8k1hktfisa"/>
                    </mask>
                    <use fill="#000" xlink:href="#8k1hktfisa"/>
                    <path fill="#CE1126" d="M41.161 20.227C41.161 8.505 31.796-1 20.243-1 12.98-1 6.589 2.756 2.839 8.455L37.645 32c2.219-3.371 3.516-7.417 3.516-11.773" mask="url(#rbxm6hj8bb)"/>
                </g>
                <path fill="#FFF" d="M11 15L11.473 16.527 13 16.527 11.763 17.474 12.237 19 11 18.059 9.765 19 10.236 17.474 9 16.527 10.53 16.527zM11 30L11.473 31.531 13 31.531 11.763 32.478 12.237 34 11 33.054 9.765 34 10.236 32.478 9 31.531 10.53 31.531zM6 21L6.47 22.523 8 22.523 6.765 23.467 7.234 25 6 24.056 4.764 25 5.236 23.467 4 22.523 5.525 22.523zM15.001 21L15.471 22.531 17 22.531 15.766 23.476 16.235 25 15.001 24.058 13.764 25 14.236 23.476 13 22.531 14.526 22.531zM13 26L13.238 26.768 14 26.768 13.383 27.244 13.616 28 13 27.529 12.384 28 12.617 27.244 12 26.768 12.763 26.768z" transform="translate(-78.000000, -720.000000) translate(78.000000, 720.000000)"/>
                <path fill="#FDD116" d="M30.314 16.298c-.3-.316-.622-.607-.956-.887-.238-.202-.482-.388-.735-.562 0-.043 0-.083.002-.13.056-.021.11.005.16.026.208.092.408.216.617.308.047.016.11.035.15 0 .06-.062.063-.154.09-.239.008 0 .022.008.03.011.124.119.235.26.34.406.29.403.522.847.659 1.336.015.05.022.1.022.159-.12-.15-.25-.286-.379-.428m1.543 2.378c-.011-.032-.025-.061-.035-.094-.116-.34-.278-.66-.47-.96-.047-.092-.107-.163-.151-.247-.009-.165-.032-.33-.052-.49-.025-.151-.05-.3-.089-.448-.008-.04-.019-.083-.029-.115-.023-.092-.05-.171-.08-.252-.08-.22-.19-.433-.332-.622-.066-.09-.14-.176-.184-.28-.001-.027-.005-.06-.005-.093.11.072.191.179.308.233.03.018.06.016.09.018.003-.054.007-.105-.008-.15-.039-.153-.112-.295-.147-.444.074-.008.128.044.185.09.15.108.291.23.444.345.033.027.073.042.118.048 0-.03 0-.064-.002-.098-.012-.064-.025-.13-.043-.202l-.061-.215c-.098-.306-.202-.607-.345-.9-.029-.06-.072-.112-.127-.155.106.018.199.08.303.106-.033-.12-.104-.217-.161-.328-.158-.257-.322-.515-.501-.764-.127-.173-.246-.348-.406-.487-.045-.05-.108-.058-.167-.062.129-.038.259-.066.393-.083-.084-.12-.205-.206-.313-.309-.249-.212-.51-.415-.782-.602-.116-.079-.233-.156-.372-.179.056-.055.127-.088.194-.12.134-.063.275-.114.414-.165-.09-.053-.175-.095-.267-.135-.562-.228-1.18-.307-1.773-.205-.28.047-.548.137-.795.278-.053.028-.1.07-.16.07.06-.095.149-.175.226-.253.096-.087.181-.178.27-.266.077-.075.162-.164.214-.256.017-.031.01-.067.012-.097-.09-.085-.197-.146-.274-.24.09-.109.222-.172.327-.276.047-.041.104-.097.107-.163-.015-.012-.028-.028-.042-.033-.102-.082-.234-.056-.349-.079.004-.035.006-.07.027-.102.077-.127.187-.24.262-.37.023-.034.032-.085.042-.124-.11-.095-.268-.09-.398-.062.052-.107.1-.219.137-.338.02-.042.02-.096.02-.148-.103-.047-.213.014-.32.019.01-.07.048-.137.084-.201.09-.17.187-.345.26-.526.01-.044.017-.096.017-.14-.037 0-.075-.01-.112 0-.113.038-.222.102-.325.162-.425.266-.816.582-1.16.953-.23.247-.437.53-.57.848-.073.176-.119.359-.148.539-.018.168-.019.342-.015.506.016.209.051.404.084.61.003.09.009.181-.01.27-.024.106-.045.213-.087.322-.026.081-.063.16-.124.228-.055.052-.135.082-.21.058-.097-.022-.191-.066-.28-.112-.177-.101-.348-.21-.5-.35-.104-.08-.175-.195-.267-.288-.107-.099-.254-.156-.394-.144-.247.02-.483.1-.72.156-.06.013-.124.02-.185.017-.228-.024-.454-.062-.678-.09-.098-.019-.2-.033-.3-.019.029.036.07.059.111.082.233.124.48.214.718.318.094.043.187.084.262.155.075.074.12.173.198.235.066.045.144.065.215.098.246.109.492.214.7.39.09.07.161.167.191.29.012.116-.045.228-.132.304-.08.068-.198.061-.296.036-.193-.06-.368-.155-.553-.247-.3-.135-.624-.255-.96-.249-.38.026-.725.228-1 .491-.206.178-.374.39-.546.6-.05.07-.1.143-.145.213-.117.194-.228.397-.335.585-.156.307-.31.608-.44.917-.03.072-.061.134-.058.216.047-.002.087-.022.119-.055.172-.157.315-.335.492-.491h.03c.011.182-.12.322-.147.494.036.002.073.005.103-.016.164-.095.317-.215.48-.32.069-.034.134-.085.21-.095.006.063.005.13-.016.189-.043.097-.048.205-.037.303.023 0 .053 0 .074-.015.097-.065.169-.157.251-.232.08-.066.156-.152.255-.184.006.068-.015.133-.033.204-.047.136-.11.295-.035.44.09-.04.155-.118.223-.18.165-.156.308-.325.487-.464.03-.024.068-.028.104-.028.02.212-.081.41-.07.618h.037c.216-.2.412-.422.631-.62.045-.041.089-.089.144-.104l.034.015c.017.145.004.285 0 .427-.02.093-.01.186-.01.273.004 0 .018-.007.029-.007.06-.058.12-.116.18-.19.179-.22.347-.445.498-.684.01 0 .02-.004.027-.004.018.096.006.195.02.292.009.105.025.213.039.32.026.156.063.31.115.467.066.186.155.364.286.503.261.3.545.578.84.842.164.14.325.29.504.413.025.018.055.01.081.009.008-.068.024-.134.02-.213.007-.112-.027-.225-.014-.349.028.015.054.033.073.058.048.051.103.104.158.158.156.144.313.286.495.401.032.028.071.028.11.027.002-.073.005-.15-.012-.215-.007-.058-.007-.119-.002-.171.012-.011.022-.02.034-.036.03.025.058.051.084.074.258.292.542.57.846.819.42.336.889.602 1.39.786.087.035.173.073.265.085-.07-.214-.2-.39-.298-.592-.018-.03-.024-.063-.027-.096.18.042.337.157.524.172-.038-.104-.105-.186-.163-.273-.135-.2-.266-.393-.39-.588-.064-.104-.132-.206-.16-.326.04-.004.08-.004.116 0 .076.019.154.063.231.027-.009-.029-.024-.061-.049-.088-.197-.248-.396-.498-.58-.755-.053-.082-.108-.16-.143-.245-.025-.048-.016-.095-.015-.147.105-.025.183.077.286.078 0-.048 0-.084-.014-.126-.05-.186-.127-.364-.178-.555-.019-.061-.026-.123-.022-.182.073-.014.138.023.2.057.239.127.463.282.706.39.041.024.087.025.132.024.053-.06.066-.143.07-.215.067.034.125.092.185.146.734.615 1.437 1.288 1.972 2.097.008.2-.024.399-.07.593-.027.135-.091.254-.149.38-.176.347-.412.683-.725.924-.31.242-.696.379-1.086.39-.37.018-.737-.073-1.082-.197.143.18.332.308.525.41.364.192.791.286 1.189.176.49-.125.96-.385 1.298-.782.186-.228.328-.484.415-.764.023-.083.041-.153.06-.236l.02-.115.034.01c.031.092.073.188.106.287.055.148.09.302.123.456.023.145.051.29.051.437 0 .204.005.401-.024.598-.01.063-.018.13-.033.19-.031.157-.077.308-.141.447-.086.202-.208.384-.36.53-.168.174-.37.295-.581.385-.341.138-.713.19-1.077.18-.12.004-.24-.013-.36-.013.083.05.164.103.255.141.296.116.626.14.943.107.307-.03.615-.124.88-.289.21-.128.393-.298.541-.49.146-.196.251-.418.33-.645.047-.157.085-.32.11-.489.021-.12.017-.25.03-.376.015-.341-.037-.687-.14-1.02" transform="translate(-78.000000, -720.000000) translate(78.000000, 720.000000)"/>
            </g>
        </g>
    </g>
</svg>
