<?xml version="1.0" encoding="utf-8"?>
<!-- Generator: Adobe Illustrator 16.0.0, SVG Export Plug-In . SVG Version: 6.00 Build 0)  -->
<!DOCTYPE svg PUBLIC "-//W3C//DTD SVG 1.1//EN" "http://www.w3.org/Graphics/SVG/1.1/DTD/svg11.dtd">
<svg version="1.1" id="Layer_1" xmlns="http://www.w3.org/2000/svg" xmlns:xlink="http://www.w3.org/1999/xlink" x="0px" y="0px"
	 width="40px" height="40px" viewBox="0 0 40 40" enable-background="new 0 0 40 40" xml:space="preserve">
<g>
	<g>
		<g>
			<path fill="#FFFFFF" d="M0,20c0,7.885,4.572,14.686,11.199,17.939V2.061C4.572,5.319,0,12.116,0,20z"/>
			<path fill="#166734" d="M20,40c11.045,0,20-8.953,20-20C40,8.955,31.045,0,20,0c-3.162,0-6.143,0.757-8.801,2.061v35.878
				C13.857,39.246,16.838,40,20,40z"/>
		</g>
		<g>
			<path fill="#FFFFFF" d="M33.88,24.27c-3.717,3.31-9.414,2.976-12.721-0.748c-3.305-3.718-2.973-9.414,0.747-12.719
				c0.16-0.146,0.332-0.272,0.498-0.402c-3.974,1.261-6.854,4.976-6.854,9.369c0,5.431,4.404,9.833,9.833,9.833
				c3.979,0,7.395-2.367,8.943-5.77C34.182,23.984,34.036,24.136,33.88,24.27z"/>
			<polygon fill="#FFFFFF" points="28.887,12.515 30.479,14.222 32.596,13.237 31.463,15.278 33.057,16.986 30.766,16.54 
				29.632,18.584 29.346,16.265 27.059,15.824 29.172,14.835 			"/>
		</g>
	</g>
</g>
<path fill="#D0D0D5" d="M11.199,36.823C5.145,33.643,1,27.301,1,20C1,12.7,5.145,6.357,11.199,3.177V2.062
	C4.572,5.319,0,12.117,0,20s4.572,14.681,11.199,17.938V36.823z"/>
</svg>
