<?xml version="1.0" encoding="utf-8"?>
<!-- Generator: Adobe Illustrator 16.0.0, SVG Export Plug-In . SVG Version: 6.00 Build 0)  -->
<!DOCTYPE svg PUBLIC "-//W3C//DTD SVG 1.1//EN" "http://www.w3.org/Graphics/SVG/1.1/DTD/svg11.dtd">
<svg version="1.1" id="Layer_1" xmlns="http://www.w3.org/2000/svg" xmlns:xlink="http://www.w3.org/1999/xlink" x="0px" y="0px"
	 width="40px" height="40px" viewBox="0 0 40 40" enable-background="new 0 0 40 40" xml:space="preserve">
<g>
	<g>
		<path fill="#D41F3C" d="M20,40c11.045,0,20-8.953,20-20H0C0,31.047,8.955,40,20,40z"/>
		<path fill="#FFFFFF" d="M20,0C8.955,0,0,8.955,0,20h40C40,8.955,31.045,0,20,0z"/>
	</g>
</g>
<path fill="#D0D0D5" d="M20,1c10.477,0,19,8.523,19,19h1C40,8.954,31.046,0,20,0S0,8.954,0,20h1C1,9.523,9.523,1,20,1z"/>
</svg>
