<?xml version="1.0" encoding="utf-8"?>
<!-- Generator: Adobe Illustrator 20.1.0, SVG Export Plug-In . SVG Version: 6.00 Build 0)  -->
<svg version="1.1" id="Layer_1" xmlns="http://www.w3.org/2000/svg" xmlns:xlink="http://www.w3.org/1999/xlink" x="0px" y="0px"
	 viewBox="0 0 40 40" style="enable-background:new 0 0 40 40;" xml:space="preserve">
<style type="text/css">
	.st0{fill:#0038A8;}
	.st1{fill:#CE1126;}
	.st2{fill:#FFFFFF;}
	.st3{fill:#2563C1;}
	.st4{fill:#006700;}
	.st5{fill:#FFCE00;}
	.st6{fill:#D0D0D5;}
</style>
<path class="st0" d="M20,40c8.1,0,15-4.8,18.2-11.7H1.8C5,35.2,11.9,40,20,40z"/>
<path class="st1" d="M20,0C11.9,0,5,4.8,1.8,11.7h36.4C35,4.8,28.1,0,20,0z"/>
<path class="st2" d="M0,20c0,3,0.7,5.8,1.8,8.3h36.4C39.3,25.8,40,23,40,20s-0.7-5.8-1.8-8.3H1.8C0.7,14.2,0,17,0,20z"/>
<path d="M14.1,20c0-3.2,2.6-5.9,5.9-5.9l0,0c3.2,0,5.9,2.6,5.9,5.9l0,0c0,3.2-2.6,5.9-5.9,5.9l0,0C16.8,25.9,14.1,23.2,14.1,20
	L14.1,20z M16,16c-1,1-1.7,2.4-1.7,4l0,0c0,1.6,0.6,3,1.7,4l0,0c1,1,2.4,1.7,4,1.7l0,0c1.6,0,3-0.6,4-1.7l0,0c1-1,1.7-2.4,1.7-4l0,0
	c0-1.6-0.6-3-1.7-4l0,0c-1-1-2.4-1.7-4-1.7l0,0C18.4,14.3,17,15,16,16L16,16z"/>
<path class="st1" d="M20,15.1c-2.7,0-4.9,2.2-4.9,4.9c0,2.7,2.2,4.9,4.9,4.9c2.7,0,4.9-2.2,4.9-4.9C24.9,17.3,22.7,15.1,20,15.1z
	 M20,23.7c-2.1,0-3.7-1.7-3.7-3.7c0-2.1,1.7-3.7,3.7-3.7c2.1,0,3.7,1.7,3.7,3.7C23.7,22.1,22.1,23.7,20,23.7z"/>
<path class="st3" d="M21.9,20c0,1-0.8,1.9-1.9,1.9c-1,0-1.9-0.8-1.9-1.9c0-1,0.8-1.9,1.9-1.9C21,18.1,21.9,19,21.9,20z"/>
<path class="st4" d="M23.4,20.4c-0.1-0.2-0.4,0-0.5,0c0-0.2,0.5-0.5,0.4-0.8c-0.1,0-0.2,0-0.2,0.1c0,0.1,0.2-0.5,0.2-0.5
	c-0.1,0.1-0.2,0.1-0.4,0.2c0.1-0.1,0.3-0.9,0-0.9c-0.1,0-0.1,0.1-0.2,0.2c-0.1-0.2,0-0.3,0.1-0.5c-0.1,0.1-0.2,0.2-0.3,0.3
	c0-0.1,0.1-0.8-0.1-0.8c-0.1,0.1-0.1,0.1-0.1,0.2c-0.1-0.1-0.2-0.5-0.3-0.2c0-0.1-0.1-0.6-0.4-0.6c-0.1,0.1-0.1,0.2,0,0.2
	c0,0-0.4-0.4-0.2-0.4c-0.2,0-0.1,0.4-0.1,0.4c0-0.1-0.5-0.6-0.6-0.4c0.2,0.2,0.2,0.3-0.1,0.3c0.2,0.7-0.1-0.1,0,0.3
	c0.1,0.1,0.3,0.1,0.4,0.1c-0.2,0.1,0.4,0,0.2,0.3c0,0.1,0.4,0.2,0.4,0.2c-0.5,0,0.2,0.2,0.3,0.2c-0.4-0.1,0.2,0.5,0.3,0.7
	c-0.5-0.4,0,0.3,0.1,0.3c-0.3,0.1-0.1,0.5,0,0.7c-0.3,0-0.2,0.6-0.2,0.8c-0.3-0.3-0.6,0.9-0.6,1c0,0,0-0.8-0.3-0.3
	c-0.2,0.3-0.7,1-1.1,0.9c-0.5-0.1-1.3-0.8-1.7-1.1c-0.6-0.5-0.5-1.6-0.5-2.3c0-0.3,1.1-1,1-1c0.1,0,0.7-0.1,0.4-0.2
	c0.1,0,0.2,0,0.2,0c0-0.1-0.1-0.1-0.2-0.1c0.1,0,0.5-0.1,0.5-0.1c0,0-0.3-0.1-0.5-0.1c0.1,0,0.1-0.1,0.1-0.1c-0.1,0-0.1,0-0.2,0.1
	c0.1,0,0.1-0.1,0.1-0.1c-0.1-0.1,0,0.2-0.1,0c-0.1,0-0.1,0.1-0.2,0.2c0-0.1,0.1-0.1,0.1-0.2c-0.1,0.1-0.2,0.1-0.2,0.2
	c0.1-0.1,0.1-0.2,0.1-0.3c-0.1,0.1-0.1,0.1-0.2,0.2c0-0.1,0-0.1,0-0.2c-0.1,0-0.1,0.1-0.1,0.2c0-0.1,0-0.1,0-0.2
	c-0.2,0-0.2,0.3-0.3,0.4c0-0.1,0.1-0.2,0.1-0.4c-0.1,0.1-0.1,0.2-0.2,0.4c0.1-0.1,0.1-0.2,0.1-0.3c-0.1,0-0.2,0.3-0.2,0.3
	c0-0.1,0.1-0.2,0-0.2c-0.1,0.1-0.2,0.2-0.1,0.3c0-0.1,0-0.2,0-0.3c-0.1,0-0.1,0.4-0.1,0.4c0-0.1,0-0.2,0-0.3c-0.2,0-0.2,0.2-0.3,0.4
	c0-0.1,0-0.2,0-0.3c-0.1,0-0.1,0.5-0.1,0.6c-0.1,0,0.1-0.5,0-0.5c-0.1,0-0.1,0.5-0.1,0.6c0-0.1,0-0.4,0-0.4c-0.1,0-0.1,0.3-0.1,0.4
	c0-0.1,0-0.2-0.1-0.2c0,0.1,0,0.2,0,0.4c0-0.1,0-0.2-0.1-0.3c-0.1,0,0,0.4,0,0.4c0-0.1-0.1-0.2-0.1-0.3c-0.1,0,0,0.5,0,0.6
	c0,0-0.1-0.4-0.1-0.3c-0.1,0,0,0.4,0.1,0.4c0,0-0.1-0.3-0.1-0.3c0,0.1,0,0.2,0,0.2c0,0,0-0.1-0.1-0.1c-0.2,0.1,0.1,0.7,0.1,0.8
	c-0.1-0.1-0.1-0.2-0.2-0.3c-0.1,0,0.1,0.3,0.1,0.4c0-0.1-0.1-0.1-0.1-0.1c-0.1,0,0.2,0.4,0.2,0.4c-0.1-0.1-0.1-0.2-0.2-0.2
	c-0.1,0,0.2,0.3,0.2,0.4c-0.1-0.1-0.1-0.1-0.2-0.2c-0.1,0,0.3,0.4,0.4,0.5c0,0-0.3-0.3-0.4-0.2c0,0,0.3,0.3,0.4,0.4
	c-0.1,0-0.2,0-0.3,0c0.1,0.1,0.2,0.2,0.4,0.3c0,0-0.3-0.2-0.3-0.1c-0.1,0.1,0.5,0.3,0.5,0.4c-0.1,0-0.5-0.3-0.5-0.2
	c0,0.1,0.4,0.3,0.4,0.3c-0.1-0.1-0.2-0.1-0.3-0.1c-0.1,0.1,0.5,0.3,0.6,0.3c-0.1,0-0.4-0.1-0.4-0.1c0,0,0.4,0.2,0.4,0.2
	c-0.1,0-0.2,0-0.3,0c0,0.1,0.4,0.1,0.5,0.2c-0.1,0-0.2,0-0.3,0c0,0.1,0.3,0.1,0.4,0.1c-0.1,0-0.2,0-0.3,0c0.1,0.1,0.3,0.1,0.4,0.1
	c-0.1,0-0.2,0-0.2,0.1c0,0,0.5,0,0.5,0c-0.1,0-0.4,0.1-0.4,0.1c0.1,0,0.3,0,0.4,0c-0.1,0-0.2,0.1-0.3,0.1c0,0,0.6-0.1,0.6-0.1
	c-0.1,0-0.1,0-0.2,0.1c0.1,0,0.2,0,0.3,0c-0.1,0-0.4,0.1-0.4,0.2c0.1,0,0.3,0,0.4-0.1c-0.1,0-0.2,0.1-0.2,0.1c0,0,0.5-0.1,0.5-0.1
	c-0.1,0,0.9,0.1,1,0.2c-0.2,0.1-0.3,0.2-0.5,0.4c-0.2,0.1-0.7-0.1-0.7,0c-0.1,0.1,0.3,0.4,0.4,0.4c0.4,0,0.7-0.3,1-0.6
	c0.3,0.2,0.6,0.6,1,0.6c0.1,0,0.5-0.3,0.4-0.4c-0.1,0-0.3,0.1-0.4,0.1c-0.3-0.1-0.5-0.3-0.8-0.5c0.6-0.4,1.2-0.1,1.7-0.2
	c0.4,0-0.4-0.5-0.4-0.4c0.1-0.1,0.6,0.1,0.8,0.1c0.3,0,0.7-0.3,0.1-0.3c0,0,0.5-0.3,0.5-0.3c0-0.3-0.3-0.1-0.4-0.2
	c0,0,1.3-1,0.5-0.6c0.2-0.2,0.2-0.4-0.1-0.2C22.9,20.6,23.5,20.5,23.4,20.4C23.3,20.2,23.4,20.4,23.4,20.4z M17,20.1
	C17,20.1,17,20.1,17,20.1C17,20.1,17,20.1,17,20.1z"/>
<polygon class="st5" points="20,18.7 20.4,19.5 21.2,19.5 20.5,20.2 20.8,21 20,20.6 19.2,21 19.5,20.2 18.8,19.5 19.6,19.5 "/>
<g>
	<path class="st6" d="M39,20c0,3-0.7,5.8-1.9,8.3h1.1C39.3,25.8,40,23,40,20s-0.7-5.8-1.8-8.3h-1.1C38.3,14.2,39,17,39,20z"/>
	<path class="st6" d="M1,20c0-3,0.7-5.8,1.9-8.3H1.8C0.7,14.2,0,17,0,20s0.7,5.8,1.8,8.3h1.1C1.7,25.8,1,23,1,20z"/>
</g>
</svg>
