<?xml version="1.0" encoding="utf-8"?>
<!-- Generator: Adobe Illustrator 16.0.0, SVG Export Plug-In . SVG Version: 6.00 Build 0)  -->
<!DOCTYPE svg PUBLIC "-//W3C//DTD SVG 1.0//EN" "http://www.w3.org/TR/2001/REC-SVG-20010904/DTD/svg10.dtd">
<svg version="1.0" id="Layer_1" xmlns="http://www.w3.org/2000/svg" xmlns:xlink="http://www.w3.org/1999/xlink" x="0px" y="0px"
	 width="40px" height="40px" viewBox="0 0 40 40" enable-background="new 0 0 40 40" xml:space="preserve">
<g>
	<g>
		<path fill="#3A59A8" d="M0,20C0,28.069,4.782,35.02,11.668,38.18V1.82C4.782,4.979,0,11.931,0,20z"/>
		<path fill="#EE2133" d="M40,20c0-8.069-4.782-15.021-11.667-18.18V38.18C35.218,35.02,40,28.069,40,20z"/>
		<path fill="#FEE602" d="M20.001,0c-2.977,0-5.799,0.656-8.333,1.82V38.18c2.534,1.166,5.356,1.82,8.333,1.82
			c2.974,0,5.796-0.654,8.332-1.82V1.82C25.798,0.657,22.976,0,20.001,0z"/>
	</g>
</g>
</svg>
