<?xml version="1.0" encoding="utf-8"?>
<!-- Generator: Adobe Illustrator 16.0.0, SVG Export Plug-In . SVG Version: 6.00 Build 0)  -->
<!DOCTYPE svg PUBLIC "-//W3C//DTD SVG 1.1//EN" "http://www.w3.org/Graphics/SVG/1.1/DTD/svg11.dtd">
<svg version="1.1" id="Layer_1" xmlns="http://www.w3.org/2000/svg" xmlns:xlink="http://www.w3.org/1999/xlink" x="0px" y="0px"
	 width="40px" height="40px" viewBox="0 0 40 40" enable-background="new 0 0 40 40" xml:space="preserve">
<g>
	<g>
		<path fill="#CE2028" d="M20,40c8.068,0,15.02-4.782,18.18-11.666H1.819C4.98,35.218,11.93,40,20,40z"/>
		<path fill="#FFFFFF" d="M20,0C11.93,0,4.98,4.782,1.819,11.667H38.18C35.02,4.782,28.068,0,20,0z"/>
		<path fill="#1D439B" d="M0,20c0,2.977,0.654,5.796,1.819,8.334H38.18C39.346,25.796,40,22.977,40,20
			c0-2.975-0.654-5.796-1.82-8.333H1.819C0.654,14.204,0,17.025,0,20z"/>
		<g>
			<g>
				<path fill="#FFFFFF" d="M24.389,8.4c-5.812,0-11.628,0-17.44,0c-0.257,3.574-0.66,7.183-0.249,10.768
					c0.266,2.365,0.986,4.723,2.343,6.707c1.617,2.4,4.051,4.132,6.626,5.382c2.571-1.261,5.009-2.981,6.626-5.382
					c1.354-1.982,2.076-4.342,2.342-6.707C25.047,15.583,24.637,11.974,24.389,8.4z"/>
			</g>
			<g>
				<path fill="#CE2028" d="M7.363,8.945c5.537,0,11.075,0,16.608,0c0.237,3.403,0.629,6.841,0.237,10.254
					c-0.254,2.254-0.938,4.498-2.229,6.385c0.178-1.004-0.498-2.039-1.465-2.336c-0.757-0.248-1.647-0.047-2.205,0.541
					c-0.3-0.785-0.903-1.479-1.721-1.754c-0.008-1.055,0-2.108,0-3.162c0.427-0.008,0.857,0,1.282,0
					c1.037,0.012,2.056,0.204,3.071,0.391c-0.303-0.848-0.303-1.777-0.01-2.627c-0.979,0.188-1.977,0.373-2.979,0.391
					c-0.448,0.013-0.897,0-1.35,0.013c-0.022-0.716-0.022-1.426-0.007-2.135c1.152-0.008,2.295,0.177,3.42,0.397
					c-0.293-0.85-0.293-1.779,0.012-2.628c-1.137,0.22-2.279,0.423-3.439,0.391c-0.008-1.11,0.188-2.204,0.398-3.29
					c-0.855,0.293-1.785,0.293-2.643,0c0.211,1.086,0.41,2.18,0.4,3.29c-1.162,0.033-2.305-0.171-3.438-0.391
					c0.301,0.85,0.293,1.779,0.01,2.628c1.133-0.21,2.275-0.43,3.438-0.391c-0.026,0.711,0.013,1.421-0.026,2.127
					c-0.449-0.013-0.898,0-1.348-0.013c-1.003-0.018-2-0.203-2.981-0.391c0.293,0.85,0.293,1.779-0.007,2.627
					c1.436-0.291,2.891-0.465,4.353-0.379c-0.01,1.05,0.01,2.095,0,3.15c-0.681,0.231-1.244,0.746-1.552,1.383
					c-0.059,0.127-0.101,0.258-0.174,0.371c-0.569-0.604-1.502-0.801-2.275-0.517c-0.925,0.32-1.562,1.341-1.39,2.312
					c-1.289-1.887-1.977-4.131-2.229-6.385C6.736,15.786,7.119,12.349,7.363,8.945L7.363,8.945z"/>
				<path fill="#FFFFFF" d="M14.346,9.777c0.857,0.293,1.787,0.293,2.643,0c-0.211,1.086-0.406,2.18-0.398,3.29
					c1.16,0.033,2.303-0.171,3.439-0.391c-0.305,0.85-0.305,1.779-0.012,2.628c-1.125-0.221-2.268-0.407-3.42-0.397
					c-0.016,0.709-0.016,1.419,0.007,2.135c0.452-0.013,0.901,0,1.35-0.013c1.004-0.018,2-0.203,2.979-0.391
					c-0.293,0.851-0.293,1.779,0.01,2.627c-1.015-0.187-2.033-0.379-3.07-0.391c-0.425,0-0.855-0.008-1.282,0
					c0,1.053-0.008,2.105,0,3.162c-0.588-0.215-1.258-0.215-1.844,0c0.01-1.055-0.01-2.1,0-3.15
					c-1.462-0.086-2.917,0.088-4.353,0.379c0.3-0.848,0.3-1.777,0.007-2.627c0.981,0.188,1.979,0.373,2.981,0.391
					c0.449,0.013,0.898,0,1.348,0.013c0.039-0.707,0-1.416,0.026-2.127c-1.162-0.039-2.305,0.181-3.438,0.391
					c0.283-0.85,0.291-1.779-0.01-2.628c1.133,0.22,2.275,0.423,3.438,0.391C14.756,11.957,14.557,10.863,14.346,9.777L14.346,9.777
					z"/>
				<path fill="#1D439B" d="M14.746,22.035c0.586-0.215,1.256-0.215,1.844,0c0.817,0.273,1.421,0.969,1.721,1.754
					c0.557-0.588,1.448-0.789,2.205-0.541c0.967,0.297,1.644,1.332,1.465,2.336c-1.544,2.285-3.864,3.926-6.312,5.126
					c-2.45-1.19-4.771-2.841-6.313-5.126c-0.173-0.971,0.465-1.99,1.39-2.311c0.773-0.285,1.706-0.09,2.275,0.516
					c0.073-0.113,0.115-0.244,0.174-0.371C13.502,22.781,14.065,22.268,14.746,22.035L14.746,22.035z"/>
			</g>
		</g>
	</g>
</g>
<path fill="#D0D0D5" d="M20,0C11.932,0,4.998,4.787,1.836,11.667h1.115C6.046,5.361,12.515,1,20,1
	c7.485,0,13.954,4.361,17.049,10.667h1.115C35.002,4.787,28.068,0,20,0z"/>
</svg>
