<?xml version="1.0" encoding="utf-8"?>
<!-- Generator: Adobe Illustrator 16.0.0, SVG Export Plug-In . SVG Version: 6.00 Build 0)  -->
<!DOCTYPE svg PUBLIC "-//W3C//DTD SVG 1.0//EN" "http://www.w3.org/TR/2001/REC-SVG-20010904/DTD/svg10.dtd">
<svg version="1.0" id="Layer_1" xmlns="http://www.w3.org/2000/svg" xmlns:xlink="http://www.w3.org/1999/xlink" x="0px" y="0px"
	 width="40px" height="40px" viewBox="0 0 40 40" enable-background="new 0 0 40 40" xml:space="preserve">
<g>
	<g>
		<g>
			<circle fill="#28AE66" cx="20" cy="20" r="19.999"/>
			<g>
				<path fill="#FFFFFF" d="M25.062,7.717c1.174,0.908,1.928,2.331,1.928,3.931c0,2.744-2.224,4.969-4.968,4.969
					c-0.733,0-1.429-0.158-2.059-0.444c0.889,0.794,2.062,1.278,3.348,1.278c2.773,0,5.022-2.251,5.022-5.022
					C28.333,10.271,26.973,8.428,25.062,7.717z"/>
				<polygon fill="#FFFFFF" points="22.461,8.532 23.041,8.936 23.605,8.513 23.398,9.188 23.975,9.594 23.271,9.606 23.062,10.28 
					22.834,9.615 22.128,9.626 22.692,9.2 				"/>
				<polygon fill="#FFFFFF" points="19.919,7.251 20.498,7.658 21.062,7.233 20.854,7.907 21.433,8.314 20.725,8.326 20.521,9.001 
					20.29,8.334 19.584,8.345 20.15,7.92 				"/>
				<polygon fill="#FFFFFF" points="17.387,11.066 17.963,11.47 18.529,11.048 18.32,11.719 18.9,12.126 18.193,12.137 
					17.985,12.813 17.754,12.146 17.051,12.16 17.614,11.735 				"/>
				<polygon fill="#FFFFFF" points="19.919,9.812 20.498,10.218 21.062,9.791 20.854,10.467 21.433,10.875 20.725,10.884 
					20.521,11.56 20.29,10.891 19.584,10.905 20.15,10.479 				"/>
				<polygon fill="#FFFFFF" points="19.919,12.374 20.498,12.78 21.062,12.355 20.854,13.031 21.433,13.436 20.725,13.448 
					20.521,14.121 20.29,13.458 19.584,13.467 20.15,13.044 				"/>
			</g>
		</g>
	</g>
	<g>
		<defs>
			<circle id="SVGID_1_" cx="20" cy="20" r="20"/>
		</defs>
		<clipPath id="SVGID_2_">
			<use xlink:href="#SVGID_1_"  overflow="visible"/>
		</clipPath>
		<g clip-path="url(#SVGID_2_)">
			<rect x="3.334" y="0.001" fill="#CA3745" width="11.665" height="39.998"/>
			<g id="ornm5">
				<g>
					<g id="ornm_1_">
						<path fill="#383739" d="M3.334,4.643v0.386l0.658,0.573L3.768,5.789l0.47,0.405L4.031,6.366V6.115h-0.4v0.298l0.904,0.788
							h0.459l0.049-0.28H4.779l0.287-0.244l0.716,0.605L5.066,7.888L4.779,7.641h0.264L4.994,7.36H4.535L3.631,8.145v0.298h0.4
							V8.197l0.206,0.167L3.768,8.77l0.221,0.194L3.334,9.53v0.392l1.108-0.958L4.223,8.77l0.464-0.405l-0.4-0.342l0.269-0.226
							l0.512,0.435l1.119-0.949L5.066,6.327L4.555,6.771L4.286,6.54l0.4-0.347L4.223,5.789l0.22-0.188L3.334,4.643L3.334,4.643z
							 M3.334,6.542v1.476l0.259-0.243V7.487h0.273L4.09,7.282L3.866,7.074H3.593v-0.29L3.334,6.542L3.334,6.542z M5.226,7.067
							l-0.036,0.2l0.036,0.204l0.237-0.204L5.226,7.067z"/>
						<path fill="#FAAE29" d="M3.334,4.683v0.311l0.7,0.607L3.816,5.789l0.469,0.405L4.002,6.435V6.143H3.661v0.262L4.55,7.172
							h0.412l0.042-0.22H4.701l0.365-0.317l0.762,0.647L5.066,7.927L4.701,7.614h0.303L4.962,7.388H4.55L3.661,8.153v0.264h0.341
							V8.124l0.283,0.241L3.816,8.77l0.218,0.194l-0.7,0.604V9.88l1.064-0.916L4.178,8.77l0.465-0.405l-0.4-0.342l0.312-0.27
							l0.512,0.444l1.07-0.915l-1.07-0.916L4.555,6.807L4.242,6.54l0.4-0.347L4.178,5.789l0.221-0.188L3.334,4.683L3.334,4.683z
							 M3.334,6.586v1.39l0.229-0.215V7.458h0.293l0.191-0.176L3.855,7.105H3.562V6.797L3.334,6.586z M5.248,7.123L5.223,7.268
							l0.025,0.142l0.17-0.142L5.248,7.123z"/>
					</g>
				</g>
				<g>
					<g id="ornm_2_">
						<path fill="#383739" d="M3.334,12.162v0.391l0.658,0.568l-0.225,0.187l0.47,0.405l-0.206,0.172v-0.25h-0.4v0.298l0.904,0.788
							h0.459l0.049-0.278H4.779l0.287-0.246l0.716,0.605l-0.716,0.605L4.779,15.16h0.264l-0.049-0.278H4.535l-0.904,0.783v0.3h0.4
							v-0.248l0.206,0.171l-0.47,0.404l0.221,0.192l-0.654,0.566v0.392l1.108-0.958l-0.22-0.192l0.464-0.404l-0.4-0.345l0.269-0.226
							l0.512,0.436l1.119-0.95l-1.119-0.956l-0.512,0.444L4.286,14.06l0.4-0.347l-0.464-0.405l0.22-0.187L3.334,12.162L3.334,12.162
							z M3.334,14.061v1.475l0.259-0.241v-0.288h0.273l0.224-0.205l-0.224-0.208H3.593v-0.29L3.334,14.061L3.334,14.061z
							 M5.226,14.587l-0.036,0.2l0.036,0.202l0.237-0.202L5.226,14.587z"/>
						<path fill="#FAAE29" d="M3.334,12.203v0.311l0.7,0.607l-0.218,0.187l0.469,0.405l-0.283,0.243v-0.295H3.661v0.264l0.889,0.767
							h0.412l0.042-0.22H4.701l0.365-0.316l0.762,0.646l-0.762,0.645l-0.365-0.312h0.303l-0.042-0.227H4.55l-0.889,0.767v0.262
							h0.341v-0.293l0.283,0.244l-0.469,0.404l0.218,0.192l-0.7,0.604v0.312l1.064-0.917l-0.221-0.192l0.465-0.404l-0.4-0.345
							l0.312-0.27l0.512,0.444l1.07-0.915l-1.07-0.917l-0.512,0.439L4.242,14.06l0.4-0.347l-0.465-0.405l0.221-0.187L3.334,12.203
							L3.334,12.203z M3.334,14.105v1.39l0.229-0.208v-0.309h0.293l0.191-0.176l-0.191-0.178H3.562v-0.308L3.334,14.105z
							 M5.248,14.642l-0.025,0.145l0.025,0.142l0.17-0.142L5.248,14.642z"/>
					</g>
				</g>
				<g>
					<g id="ornm_3_">
						<path fill="#383739" d="M3.334,19.681v0.391l0.658,0.568l-0.225,0.19l0.47,0.402l-0.206,0.174v-0.252h-0.4v0.297l0.904,0.788
							h0.459l0.049-0.276H4.779l0.287-0.248l0.716,0.605l-0.716,0.605l-0.287-0.247h0.264L4.994,22.4H4.535l-0.904,0.783v0.299h0.4
							v-0.247l0.206,0.173l-0.47,0.402l0.221,0.191l-0.654,0.566v0.393l1.108-0.959l-0.22-0.191l0.464-0.402l-0.4-0.346l0.269-0.228
							l0.512,0.439l1.119-0.954l-1.119-0.955l-0.512,0.445l-0.269-0.232l0.4-0.346L4.223,20.83l0.22-0.19L3.334,19.681L3.334,19.681
							z M3.334,21.58v1.477l0.259-0.242v-0.289h0.273L4.09,22.32l-0.224-0.206H3.593v-0.29L3.334,21.58L3.334,21.58z M5.226,22.105
							l-0.036,0.201l0.036,0.206l0.237-0.206L5.226,22.105z"/>
						<path fill="#FAAE29" d="M3.334,19.722v0.311l0.7,0.607l-0.218,0.19l0.469,0.402l-0.283,0.24v-0.291H3.661v0.262L4.55,22.21
							h0.412l0.042-0.22H4.701l0.365-0.315l0.762,0.646l-0.762,0.645l-0.365-0.312h0.303l-0.042-0.226H4.55l-0.889,0.77v0.261h0.341
							v-0.295l0.283,0.246l-0.469,0.402l0.218,0.191l-0.7,0.604v0.312l1.064-0.916l-0.221-0.191l0.465-0.402l-0.4-0.346l0.312-0.271
							l0.512,0.444l1.07-0.915l-1.07-0.914l-0.512,0.439l-0.312-0.268l0.4-0.346L4.178,20.83l0.221-0.19L3.334,19.722L3.334,19.722z
							 M3.334,21.625v1.389l0.229-0.208v-0.31h0.293l0.191-0.176l-0.191-0.176H3.562v-0.309L3.334,21.625z M5.248,22.161
							l-0.025,0.146l0.025,0.141l0.17-0.141L5.248,22.161z"/>
					</g>
				</g>
				<g>
					<g id="ornm_4_">
						<path fill="#383739" d="M3.334,27.2v0.391l0.658,0.568l-0.225,0.188l0.47,0.403l-0.206,0.175v-0.253h-0.4v0.3l0.904,0.786
							h0.459l0.049-0.278H4.779l0.287-0.246l0.716,0.605l-0.716,0.607l-0.287-0.249h0.264l-0.049-0.28H4.535l-0.904,0.785v0.299h0.4
							v-0.247l0.206,0.169l-0.47,0.404l0.221,0.193l-0.654,0.566v0.392l1.108-0.958l-0.22-0.193l0.464-0.404l-0.4-0.342l0.269-0.228
							l0.512,0.439l1.119-0.954l-1.119-0.955l-0.512,0.444l-0.269-0.231l0.4-0.347l-0.464-0.403l0.22-0.188L3.334,27.2L3.334,27.2z
							 M3.334,29.1v1.479l0.259-0.246v-0.288h0.273L4.09,29.84l-0.224-0.206H3.593v-0.288L3.334,29.1L3.334,29.1z M5.226,29.625
							l-0.036,0.2l0.036,0.207l0.237-0.207L5.226,29.625z"/>
						<path fill="#FAAE29" d="M3.334,27.242v0.31l0.7,0.607l-0.218,0.188l0.469,0.403l-0.283,0.243v-0.295H3.661v0.264l0.889,0.767
							h0.412l0.042-0.22H4.701l0.365-0.315l0.762,0.646l-0.762,0.645l-0.365-0.312h0.303l-0.042-0.225H4.55l-0.889,0.769v0.261
							h0.341v-0.293l0.283,0.24l-0.469,0.404l0.218,0.193l-0.7,0.604v0.312l1.064-0.916l-0.221-0.193l0.465-0.404l-0.4-0.342
							l0.312-0.271l0.512,0.444l1.07-0.915l-1.07-0.914l-0.512,0.438l-0.312-0.266l0.4-0.347l-0.465-0.403l0.221-0.188L3.334,27.242
							L3.334,27.242z M3.334,29.144v1.39l0.229-0.208v-0.31h0.293l0.191-0.176l-0.191-0.176H3.562v-0.309L3.334,29.144z
							 M5.248,29.681l-0.025,0.145l0.025,0.142l0.17-0.142L5.248,29.681z"/>
					</g>
				</g>
			</g>
			<g>
				<g id="ornm5_1_">
					<g>
						<g id="ornm_6_">
							<path fill="#383739" d="M14.999,4.643v0.386l-0.656,0.573l0.222,0.188l-0.469,0.405l0.205,0.173V6.115h0.4v0.298
								l-0.903,0.788h-0.457l-0.051-0.28h0.264l-0.285-0.244L12.55,7.282l0.719,0.605l0.285-0.247H13.29l0.051-0.28h0.457
								l0.903,0.785v0.298h-0.4V8.197l-0.205,0.167l0.469,0.405l-0.222,0.194l0.656,0.566v0.392l-1.108-0.958l0.22-0.194
								l-0.464-0.405l0.4-0.342l-0.269-0.226l-0.51,0.435l-1.123-0.949l1.123-0.955l0.51,0.444l0.269-0.231l-0.4-0.347l0.464-0.405
								l-0.22-0.188L14.999,4.643L14.999,4.643z M14.999,6.542v1.476L14.74,7.775V7.487h-0.273l-0.222-0.205l0.222-0.208h0.273
								v-0.29L14.999,6.542L14.999,6.542z M13.109,7.067l0.036,0.2l-0.036,0.204L12.87,7.268L13.109,7.067z"/>
							<path fill="#FAAE29" d="M14.999,4.683v0.311l-0.701,0.607l0.221,0.188L14.05,6.193l0.283,0.241V6.143h0.339v0.262
								l-0.889,0.767h-0.41l-0.044-0.22h0.305l-0.365-0.317l-0.762,0.647l0.762,0.645l0.365-0.312h-0.305l0.044-0.226h0.41
								l0.889,0.765v0.264h-0.339V8.124L14.05,8.365l0.469,0.405l-0.221,0.194l0.701,0.604V9.88l-1.064-0.916l0.223-0.194
								L13.69,8.365l0.4-0.342l-0.312-0.27l-0.51,0.444l-1.072-0.915l1.072-0.916l0.51,0.441l0.312-0.267l-0.4-0.347l0.467-0.405
								l-0.223-0.188L14.999,4.683L14.999,4.683z M14.999,6.586v1.39L14.77,7.761V7.458h-0.293l-0.19-0.176l0.19-0.177h0.293V6.797
								L14.999,6.586z M13.083,7.123l0.029,0.145l-0.029,0.142l-0.166-0.142L13.083,7.123z"/>
						</g>
					</g>
					<g>
						<g id="ornm_7_">
							<path fill="#383739" d="M14.999,12.162v0.391l-0.656,0.568l0.222,0.187l-0.469,0.405l0.205,0.172v-0.25h0.4v0.298
								l-0.903,0.788h-0.457l-0.051-0.278h0.264l-0.285-0.246l-0.719,0.605l0.719,0.605l0.285-0.248H13.29l0.051-0.278h0.457
								l0.903,0.783v0.3h-0.4v-0.248l-0.205,0.171l0.469,0.404l-0.222,0.192l0.656,0.566v0.392l-1.108-0.958l0.22-0.192
								l-0.464-0.404l0.4-0.345l-0.269-0.226l-0.51,0.436l-1.123-0.95l1.123-0.956l0.51,0.444l0.269-0.231l-0.4-0.347l0.464-0.405
								l-0.22-0.187L14.999,12.162L14.999,12.162z M14.999,14.061v1.475l-0.259-0.241v-0.288h-0.273l-0.222-0.205l0.222-0.208h0.273
								v-0.29L14.999,14.061L14.999,14.061z M13.109,14.587l0.036,0.2l-0.036,0.202l-0.239-0.202L13.109,14.587z"/>
							<path fill="#FAAE29" d="M14.999,12.203v0.311l-0.701,0.607l0.221,0.187l-0.469,0.405l0.283,0.243v-0.295h0.339v0.264
								l-0.889,0.767h-0.41l-0.044-0.22h0.305l-0.365-0.316l-0.762,0.646l0.762,0.645l0.365-0.312h-0.305l0.044-0.227h0.41
								l0.889,0.767v0.262h-0.339v-0.293l-0.283,0.244l0.469,0.404l-0.221,0.192l0.701,0.604v0.312l-1.064-0.917l0.223-0.192
								l-0.467-0.404l0.4-0.345l-0.312-0.27l-0.51,0.444l-1.072-0.915l1.072-0.917l0.51,0.439l0.312-0.265l-0.4-0.347l0.467-0.405
								l-0.223-0.187L14.999,12.203L14.999,12.203z M14.999,14.105v1.39l-0.229-0.208v-0.309h-0.293l-0.19-0.176l0.19-0.178h0.293
								v-0.308L14.999,14.105z M13.083,14.642l0.029,0.145l-0.029,0.142l-0.166-0.142L13.083,14.642z"/>
						</g>
					</g>
					<g>
						<g id="ornm_8_">
							<path fill="#383739" d="M14.999,19.681v0.391l-0.656,0.568l0.222,0.19l-0.469,0.402l0.205,0.174v-0.252h0.4v0.297
								l-0.903,0.788h-0.457l-0.051-0.276h0.264l-0.285-0.248L12.55,22.32l0.719,0.605l0.285-0.247H13.29l0.051-0.278h0.457
								l0.903,0.783v0.299h-0.4v-0.247l-0.205,0.173l0.469,0.402l-0.222,0.191l0.656,0.566v0.393l-1.108-0.959l0.22-0.191
								l-0.464-0.402l0.4-0.346l-0.269-0.228l-0.51,0.439l-1.123-0.954l1.123-0.955l0.51,0.445l0.269-0.232l-0.4-0.346l0.464-0.402
								l-0.22-0.19L14.999,19.681L14.999,19.681z M14.999,21.58v1.477l-0.259-0.242v-0.289h-0.273l-0.222-0.205l0.222-0.206h0.273
								v-0.29L14.999,21.58L14.999,21.58z M13.109,22.105l0.036,0.201l-0.036,0.206l-0.239-0.206L13.109,22.105z"/>
							<path fill="#FAAE29" d="M14.999,19.722v0.311l-0.701,0.607l0.221,0.19l-0.469,0.402l0.283,0.24v-0.291h0.339v0.262
								l-0.889,0.767h-0.41l-0.044-0.22h0.305l-0.365-0.315l-0.762,0.646l0.762,0.645l0.365-0.312h-0.305l0.044-0.226h0.41
								l0.889,0.77v0.261h-0.339v-0.295l-0.283,0.246l0.469,0.402l-0.221,0.191l0.701,0.604v0.312l-1.064-0.916l0.223-0.191
								l-0.467-0.402l0.4-0.346l-0.312-0.271l-0.51,0.444l-1.072-0.915l1.072-0.914l0.51,0.439l0.312-0.268l-0.4-0.346l0.467-0.402
								l-0.223-0.19L14.999,19.722L14.999,19.722z M14.999,21.625v1.389l-0.229-0.208v-0.31h-0.293l-0.19-0.176l0.19-0.176h0.293
								v-0.309L14.999,21.625z M13.083,22.161l0.029,0.146l-0.029,0.141l-0.166-0.141L13.083,22.161z"/>
						</g>
					</g>
					<g transform="matrix(-1,0,0,1,377.99597,0)">
						<g id="ornm_9_">
							<path fill="#383739" d="M14.999,27.2v0.391l-0.656,0.568l0.222,0.188l-0.469,0.403l0.205,0.175v-0.253h0.4v0.3l-0.903,0.786
								h-0.457L13.29,29.48h0.264l-0.285-0.246L12.55,29.84l0.719,0.607l0.285-0.249H13.29l0.051-0.28h0.457l0.903,0.785v0.299h-0.4
								v-0.247l-0.205,0.169l0.469,0.404l-0.222,0.193l0.656,0.566v0.392l-1.108-0.958l0.22-0.193l-0.464-0.404l0.4-0.342
								l-0.269-0.228l-0.51,0.439l-1.123-0.954l1.123-0.955l0.51,0.444l0.269-0.231l-0.4-0.347l0.464-0.403l-0.22-0.188L14.999,27.2
								L14.999,27.2z M14.999,29.1v1.479l-0.259-0.246v-0.288h-0.273l-0.222-0.205l0.222-0.206h0.273v-0.288L14.999,29.1
								L14.999,29.1z M13.109,29.625l0.036,0.2l-0.036,0.207l-0.239-0.207L13.109,29.625z"/>
							<path fill="#FAAE29" d="M14.999,27.242v0.31l-0.701,0.607l0.221,0.188l-0.469,0.403l0.283,0.243v-0.295h0.339v0.264
								l-0.889,0.767h-0.41l-0.044-0.22h0.305l-0.365-0.315l-0.762,0.646l0.762,0.645l0.365-0.312h-0.305l0.044-0.225h0.41
								l0.889,0.769v0.261h-0.339v-0.293l-0.283,0.24l0.469,0.404l-0.221,0.193l0.701,0.604v0.312l-1.064-0.916l0.223-0.193
								l-0.467-0.404l0.4-0.342l-0.312-0.271l-0.51,0.444l-1.072-0.915l1.072-0.914l0.51,0.438l0.312-0.266l-0.4-0.347l0.467-0.403
								l-0.223-0.188L14.999,27.242L14.999,27.242z M14.999,29.144v1.39l-0.229-0.208v-0.31h-0.293l-0.19-0.176l0.19-0.176h0.293
								v-0.309L14.999,29.144z M13.083,29.681l0.029,0.145l-0.029,0.142l-0.166-0.142L13.083,29.681z"/>
						</g>
					</g>
				</g>
				<path id="branch" fill="#FAAE29" d="M4.281,35.389c0.056,0.223,0.251,0.396,0.298,0.631c0.093-0.242,0.178-0.45,0.116-0.721
					c-0.048-0.188-0.222-0.325-0.243-0.527C4.262,34.935,4.223,35.157,4.281,35.389L4.281,35.389z M4.232,36.341
					c0.16,0.203,0.386,0.361,0.635,0.465c-0.049-0.181,0.043-0.315,0.144-0.457c0.124-0.173,0.183-0.339,0.081-0.535
					c-0.045,0.101-0.107,0.186-0.182,0.274c-0.107,0.137-0.18,0.258-0.195,0.434c-0.127-0.088-0.183-0.214-0.248-0.337
					c-0.103-0.183-0.269-0.329-0.459-0.427C4.061,35.956,4.1,36.168,4.232,36.341L4.232,36.341z M5.138,36.949
					c-0.032,0.115-0.065,0.227-0.059,0.349c-0.104-0.109-0.247-0.189-0.374-0.273c-0.173-0.131-0.371-0.224-0.512-0.386
					c0.02,0.239,0.131,0.438,0.342,0.586c0.225,0.154,0.495,0.239,0.717,0.401c-0.033-0.221,0.055-0.396,0.128-0.597
					c0.063-0.192,0.002-0.39-0.138-0.536C5.243,36.656,5.187,36.796,5.138,36.949L5.138,36.949z M5.643,37.691
					c0.045,0.166,0.176,0.301,0.264,0.451c-0.238-0.068-0.449-0.189-0.664-0.298c-0.254-0.131-0.534-0.212-0.766-0.385
					c0.117,0.396,0.4,0.625,0.82,0.742c0.283,0.08,0.524,0.039,0.873,0.171c-0.039-0.216-0.111-0.45-0.222-0.646
					c-0.085-0.146-0.183-0.283-0.234-0.439C5.636,37.418,5.6,37.545,5.643,37.691L5.643,37.691z M6.515,38.297
					c0.081,0.127,0.192,0.237,0.325,0.324c-0.338,0.018-0.61-0.18-0.938-0.186c-0.205-0.005-0.396,0.055-0.602,0.037
					c0.244,0.153,0.501,0.283,0.801,0.319c0.387,0.05,0.748-0.041,1.178-0.007c-0.201-0.132-0.303-0.306-0.426-0.495
					c-0.166-0.237-0.316-0.403-0.635-0.442C6.346,37.982,6.42,38.144,6.515,38.297L6.515,38.297z M7.713,38.812
					c-0.595,0.097-1.162,0.215-1.771,0.224c0.681,0.218,1.322,0.257,1.996,0.029c0.36-0.121,0.641-0.186,0.914-0.166
					c0.403,0.024,0.892,0.172,1.433,0.698l0.211-0.158C9.721,38.805,8.708,38.656,7.713,38.812L7.713,38.812z"/>
				<g transform="matrix(-1,0,0,1,378.03633,0)">
					<path id="branch_1_" fill="#FAAE29" d="M14.057,35.389c-0.059,0.223-0.254,0.396-0.3,0.631
						c-0.094-0.242-0.179-0.45-0.115-0.721c0.047-0.188,0.22-0.325,0.242-0.527C14.073,34.935,14.115,35.157,14.057,35.389
						L14.057,35.389z M14.105,36.341c-0.163,0.203-0.388,0.361-0.635,0.465c0.049-0.181-0.044-0.315-0.144-0.457
						c-0.123-0.173-0.184-0.339-0.084-0.535c0.045,0.101,0.11,0.186,0.182,0.274c0.109,0.137,0.183,0.258,0.197,0.434
						c0.125-0.088,0.181-0.214,0.249-0.337c0.101-0.183,0.267-0.329,0.456-0.427C14.276,35.956,14.237,36.168,14.105,36.341
						L14.105,36.341z M13.2,36.949c0.031,0.115,0.062,0.227,0.056,0.349c0.107-0.109,0.247-0.189,0.374-0.273
						c0.173-0.131,0.373-0.224,0.515-0.386c-0.02,0.239-0.134,0.438-0.345,0.586c-0.225,0.154-0.495,0.239-0.717,0.401
						c0.036-0.221-0.052-0.396-0.127-0.597c-0.062-0.192-0.003-0.39,0.139-0.536C13.093,36.656,13.148,36.796,13.2,36.949
						L13.2,36.949z M12.694,37.691c-0.044,0.166-0.174,0.301-0.262,0.451c0.237-0.068,0.445-0.189,0.66-0.298
						c0.256-0.131,0.534-0.212,0.766-0.385c-0.114,0.396-0.4,0.625-0.817,0.742c-0.286,0.08-0.527,0.039-0.874,0.171
						c0.039-0.216,0.109-0.45,0.22-0.646c0.088-0.146,0.183-0.283,0.237-0.439C12.699,37.418,12.735,37.545,12.694,37.691
						L12.694,37.691z M11.82,38.297c-0.081,0.127-0.188,0.237-0.322,0.324c0.335,0.018,0.608-0.18,0.938-0.186
						c0.202-0.005,0.394,0.055,0.603,0.037c-0.246,0.153-0.502,0.283-0.803,0.319c-0.389,0.05-0.747-0.041-1.177-0.007
						c0.2-0.132,0.303-0.306,0.427-0.495c0.162-0.237,0.315-0.403,0.631-0.442C11.991,37.982,11.918,38.144,11.82,38.297
						L11.82,38.297z M10.624,38.812c0.594,0.097,1.162,0.215,1.77,0.224c-0.678,0.218-1.32,0.257-1.994,0.029
						c-0.363-0.121-0.64-0.186-0.916-0.166c-0.402,0.024-0.891,0.172-1.429,0.698l-0.214-0.158
						C8.614,38.805,9.628,38.656,10.624,38.812L10.624,38.812z"/>
				</g>
				<g>
					<path fill="#383739" d="M4.793,4.688l-0.935-0.53V2.885l0.935-0.534V1.677l0.885-0.492h0.707l1.341-0.698h2.884l1.341,0.698
						h0.705l0.884,0.492v0.674l0.938,0.534v1.273l-0.938,0.53v0.677l-0.884,0.492H11.95l-1.341,0.7H7.726l-1.341-0.7H5.678
						L4.793,5.365V4.688z"/>
					<path fill="#28AE66" d="M7.732,0.515l-1.342,0.7H5.688l-0.862,0.48v0.672L3.891,2.896v1.247l0.935,0.529v0.679l0.857,0.48
						h0.708l1.342,0.697H10.6l1.343-0.697h0.705l0.862-0.48V4.672l0.935-0.529V2.896L13.51,2.367V1.695l-0.862-0.48h-0.705
						l-1.343-0.7H7.732z M7.812,0.771h2.713l1.342,0.7h0.701l0.652,0.366v0.677l0.938,0.529v0.959L13.22,4.53v0.675l-0.652,0.363
						h-0.701l-1.342,0.7H7.812l-1.343-0.7H5.766L5.111,5.206V4.53L4.178,4.001V3.042l0.934-0.529V1.837l0.654-0.366h0.703
						L7.812,0.771z"/>
					<path fill="#FAAE29" d="M9.149,3.536V0.8H7.82L6.476,1.501h-0.7L5.141,1.854v0.67L4.207,3.057v0.448h4.977v2.732h1.331
						l1.345-0.695h0.698l0.633-0.353V4.516l0.935-0.531V3.536H9.149z"/>
					<path fill="#FFFFFF" d="M4.207,3.536v0.449l0.934,0.531v0.674l0.635,0.353h0.7L7.82,6.237h1.329V3.505h4.976V3.057L13.19,2.525
						v-0.67l-0.633-0.353h-0.701L10.515,0.8H9.184v2.736H4.207z"/>
					<g id="carp1h">
						<g id="carp1q">
							<path fill="#383739" d="M6.248,1.755L6.017,1.552L5.789,1.684l0.23,0.199L5.722,2.051h0.646L6.925,2.54l0.179-0.176
								L6.562,1.892V1.57L6.248,1.755z"/>
							<path fill="#383739" d="M7.335,1.664L7.107,1.467L6.879,1.599l0.229,0.195L6.811,1.967h0.648l0.557,0.482l0.177-0.169
								L7.65,1.804V1.485L7.335,1.664z"/>
							<path fill="#383739" d="M6.166,2.322L5.937,2.126L5.711,2.253l0.228,0.202L5.643,2.621h0.646l0.557,0.487l0.181-0.174
								l-0.543-0.47V2.144L6.166,2.322z"/>
							<path fill="#383739" d="M9.167,0.771H8.583L8.278,1.044H7.684L7.244,1.256l0.104,0.232l0.391-0.193h0.173l0.602,0.645
								l0.654-0.37V0.771z"/>
							<path fill="#CA3745" d="M6.014,1.589L6.22,1.765L6.046,1.869L5.839,1.687L6.014,1.589z M6.531,1.624v0.278L7.06,2.366
								L6.923,2.499L6.381,2.025h-0.55L6.531,1.624z"/>
							<path fill="#CA3745" d="M7.104,1.501l0.205,0.179L7.137,1.781L6.928,1.601L7.104,1.501z M7.621,1.534v0.283l0.527,0.463
								L8.012,2.41L7.47,1.938H6.922L7.621,1.534z"/>
							<path fill="#CA3745" d="M5.932,2.159l0.209,0.181l-0.175,0.1L5.76,2.261L5.932,2.159z M6.453,2.191v0.285L6.98,2.935
								L6.845,3.069L6.303,2.595H5.751L6.453,2.191L6.453,2.191z"/>
							<path fill="#CA3745" d="M9.149,0.8H8.598L8.29,1.073H7.693L7.284,1.269l0.078,0.179l0.37-0.181h0.191L8.517,1.9l0.633-0.355
								V0.8z"/>
						</g>
						<g transform="matrix(1,0,0,-1,0,105.62254)">
							<g id="carp1q_1_">
								<path fill="#383739" d="M6.248,5.291L6.017,5.489L5.789,5.357l0.23-0.198L5.722,4.988h0.646l0.557-0.485l0.179,0.173
									L6.562,5.152v0.319L6.248,5.291z"/>
								<path fill="#383739" d="M7.335,5.375L7.107,5.574L6.879,5.447l0.229-0.199L6.811,5.077h0.648L8.016,4.59l0.177,0.174
									L7.65,5.237v0.324L7.335,5.375z"/>
								<path fill="#383739" d="M6.166,4.722L5.937,4.919L5.711,4.788l0.228-0.199L5.643,4.418h0.646l0.557-0.487l0.181,0.174
									L6.482,4.578V4.9L6.166,4.722z"/>
								<path fill="#383739" d="M9.167,6.27H8.583L8.278,5.997H7.684L7.244,5.785l0.104-0.233l0.391,0.194h0.173l0.602-0.645
									l0.654,0.37V6.27z"/>
								<path fill="#CA3745" d="M6.014,5.452L6.22,5.274L6.046,5.175L5.839,5.354L6.014,5.452z M6.531,5.417V5.139L7.06,4.675
									l-0.137-0.13L6.381,5.019h-0.55L6.531,5.417z"/>
								<path fill="#CA3745" d="M7.104,5.541l0.205-0.179L7.137,5.259L6.928,5.44L7.104,5.541z M7.621,5.507V5.224l0.527-0.46
									L8.012,4.629L7.47,5.103H6.922L7.621,5.507z"/>
								<path fill="#CA3745" d="M5.932,4.882l0.209-0.177l-0.175-0.1L5.76,4.783L5.932,4.882z M6.453,4.848v-0.28L6.98,4.105
									L6.845,3.972L6.303,4.449H5.751L6.453,4.848L6.453,4.848z"/>
								<path fill="#CA3745" d="M9.149,6.237H8.598L8.29,5.971H7.693L7.284,5.775l0.078-0.182l0.37,0.182h0.191l0.593-0.635
									l0.633,0.353V6.237z"/>
							</g>
						</g>
						<path fill="#383739" d="M5.857,2.65L5.58,2.553L5.574,2.556l-0.36,0.231v0.062L4.64,3.52l0.574,0.677v0.059L5.58,4.491
							l0.277-0.098L5.691,4.291v-0.2l0.064-0.072h0.303V3.025H5.756L5.691,2.948V2.751L5.857,2.65z"/>
						<path fill="#CA3745" d="M5.245,2.8l0.339-0.218L5.79,2.655L5.658,2.737v0.221l0.083,0.093h0.285v0.938H5.741L5.658,4.081
							v0.223L5.79,4.389L5.584,4.457L5.245,4.241V4.184L4.682,3.52l0.563-0.663V2.8z"/>
					</g>
					<g id="carp1">
						<g id="carp1h_1_">
							<g id="carp1q_2_">
								<path fill="#383739" d="M12.087,1.755l0.229-0.204l0.23,0.132l-0.232,0.199l0.298,0.169h-0.647L11.407,2.54l-0.18-0.176
									l0.544-0.472V1.57L12.087,1.755z"/>
								<path fill="#383739" d="M10.997,1.664l0.23-0.197l0.229,0.132l-0.231,0.195l0.296,0.172h-0.645l-0.557,0.482l-0.179-0.169
									l0.54-0.475V1.485L10.997,1.664z"/>
								<path fill="#383739" d="M12.165,2.322l0.231-0.195l0.228,0.127l-0.23,0.202l0.296,0.166h-0.645l-0.557,0.487L11.31,2.934
									l0.54-0.47V2.144L12.165,2.322z"/>
								<path fill="#383739" d="M9.167,0.771H9.75l0.303,0.273h0.596l0.439,0.212l-0.103,0.232l-0.393-0.193h-0.169L9.821,1.939
									L9.167,1.57V0.771z"/>
								<path fill="#CA3745" d="M12.321,1.589l-0.208,0.176l0.173,0.104l0.208-0.182L12.321,1.589z M11.801,1.624v0.278
									l-0.527,0.464l0.137,0.133l0.54-0.474h0.551L11.801,1.624z"/>
								<path fill="#CA3745" d="M11.231,1.501l-0.207,0.179l0.174,0.101l0.207-0.181L11.231,1.501z M10.712,1.534v0.283
									l-0.529,0.463l0.137,0.129l0.544-0.472h0.55L10.712,1.534L10.712,1.534z"/>
								<path fill="#CA3745" d="M12.399,2.159l-0.205,0.181l0.173,0.1l0.208-0.178L12.399,2.159z M11.882,2.191v0.285l-0.53,0.459
									l0.137,0.134l0.542-0.474h0.552L11.882,2.191L11.882,2.191z"/>
								<path fill="#CA3745" d="M9.181,0.8h0.557l0.306,0.273h0.599l0.407,0.195l-0.078,0.179l-0.368-0.181h-0.195L9.815,1.9
									L9.181,1.545V0.8z"/>
							</g>
							<g transform="matrix(-1,0,0,1,377.99368,0)">
								<g id="carp1q_3_">
									<path fill="#383739" d="M12.087,5.291l0.229,0.198l0.23-0.132l-0.232-0.198l0.298-0.171h-0.647l-0.557-0.485l-0.18,0.173
										l0.544,0.477v0.319L12.087,5.291z"/>
									<path fill="#383739" d="M10.997,5.375l0.23,0.199l0.229-0.127l-0.231-0.199l0.296-0.171h-0.645L10.319,4.59l-0.179,0.174
										l0.54,0.472v0.324L10.997,5.375z"/>
									<path fill="#383739" d="M12.165,4.722l0.231,0.197l0.228-0.132l-0.23-0.199l0.296-0.171h-0.645l-0.557-0.487L11.31,4.105
										l0.54,0.472V4.9L12.165,4.722z"/>
									<path fill="#383739" d="M9.167,6.27H9.75l0.303-0.273h0.596l0.439-0.211l-0.103-0.233l-0.393,0.194h-0.169L9.821,5.102
										l-0.654,0.37V6.27z"/>
									<path fill="#CA3745" d="M12.321,5.452l-0.208-0.178l0.173-0.099l0.208,0.179L12.321,5.452z M11.801,5.417V5.139
										l-0.527-0.464l0.137-0.13l0.54,0.474h0.551L11.801,5.417z"/>
									<path fill="#CA3745" d="M11.231,5.541l-0.207-0.179l0.174-0.103l0.207,0.181L11.231,5.541z M10.712,5.507V5.224
										l-0.529-0.46l0.137-0.134l0.544,0.474h0.55L10.712,5.507L10.712,5.507z"/>
									<path fill="#CA3745" d="M12.399,4.882l-0.205-0.177l0.173-0.1l0.208,0.178L12.399,4.882z M11.882,4.848v-0.28l-0.53-0.462
										l0.137-0.133l0.542,0.477h0.552L11.882,4.848L11.882,4.848z"/>
									<path fill="#CA3745" d="M9.181,6.237h0.557l0.306-0.267h0.599l0.407-0.195l-0.078-0.182l-0.368,0.182h-0.195L9.815,5.141
										L9.181,5.494V6.237z"/>
								</g>
							</g>
							<path fill="#383739" d="M12.475,2.65l0.278-0.098l0.008,0.003l0.358,0.231v0.062l0.573,0.67l-0.573,0.677v0.059l-0.366,0.236
								l-0.278-0.098l0.169-0.103v-0.2l-0.068-0.072h-0.299V3.025h0.299l0.068-0.077V2.751L12.475,2.65z"/>
							<path fill="#CA3745" d="M13.087,2.8l-0.339-0.218l-0.205,0.073l0.132,0.082v0.221l-0.083,0.093h-0.283v0.938h0.283
								l0.083,0.093v0.223l-0.132,0.084l0.205,0.068l0.339-0.216V4.184l0.566-0.664l-0.566-0.663V2.8z"/>
						</g>
						<path fill="#383739" d="M5.365,4.084L5.209,3.962V3.9L4.872,3.52l0.337-0.377V3.083l0.156-0.13l0.28,0.215H5.486l0.235,0.225
							h0.549L6.7,3.082V2.26h1.081L9.03,1.547V1.363L8.839,1.244H8.776L8.568,1.371L8.536,1.469l-0.16-0.205L8.69,1.017h0.051
							l0.357-0.246h0.137l0.355,0.246h0.052l0.315,0.247L9.796,1.469L9.763,1.371L9.555,1.244H9.496L9.304,1.363v0.184l1.25,0.713
							h1.076v0.822l0.432,0.311h0.55l0.237-0.225h-0.162l0.281-0.215l0.156,0.13v0.059l0.337,0.377L13.124,3.9v0.062l-0.156,0.122
							l-0.281-0.213l0.162,0.001L12.611,3.65h-0.55L11.63,3.962v0.822h-1.076l-1.25,0.708v0.189L9.496,5.8h0.059l0.208-0.13
							l0.033-0.098L9.958,5.78L9.643,6.026H9.591L9.235,6.27H9.099L8.741,6.026H8.69L8.373,5.78l0.163-0.208l0.032,0.098L8.776,5.8
							h0.062L9.03,5.681V5.492L7.781,4.784H6.7V3.962L6.271,3.65H5.722L5.486,3.873l0.159-0.001L5.365,4.084z"/>
						<path fill="#FAAE29" d="M9.181,5.823l0.14,0.096l-0.14,0.096V5.823z M8.747,5.997h0.004l0.357,0.241h0.041V6.052L8.962,5.918
							l0.188-0.133V5.43L7.812,4.67H6.824V3.905l-0.512-0.37H5.541l-0.191,0.2l-0.195-0.2H4.926l0.312,0.354v0.057l0.124,0.101
							l0.202-0.143L5.447,3.905V3.868l0.26-0.247h0.576l0.449,0.327v0.806h1.055L9.06,5.476v0.223L8.847,5.826H8.769L8.542,5.688
							L8.524,5.635L8.415,5.777l0.287,0.22H8.747L8.747,5.997z M5.35,3.345l0.149,0.16H5.194L5.35,3.345z M9.149,1.026L9.013,1.122
							l0.137,0.096V1.026z M12.833,3.536l0.152,0.16l0.153-0.16H12.833z M9.581,1.042L9.223,0.8H9.181v0.192l0.188,0.13L9.181,1.256
							v0.356l1.341,0.758h0.989v0.768l0.51,0.366h0.77l0.195-0.2l0.195,0.2h0.227L13.093,3.15V3.093l-0.123-0.1l-0.199,0.145h0.117
							v0.036L12.624,3.42h-0.572l-0.453-0.327V2.286h-1.055L9.271,1.562V1.345l0.215-0.132h0.078l0.225,0.14l0.017,0.054l0.11-0.14
							L9.63,1.042H9.581L9.581,1.042z"/>
						<path fill="#FFFFFF" d="M9.149,6.015L9.013,5.918l0.137-0.096V6.015z M5.499,3.536L5.35,3.695l-0.155-0.16H5.499z
							 M9.587,5.997H9.581L9.223,6.237H9.181V6.192v-0.14l0.188-0.133L9.181,5.785V5.43l1.341-0.76h0.989V3.905l0.51-0.37h0.77
							l0.195,0.2l0.195-0.2h0.227l-0.314,0.354v0.057L12.97,4.047l-0.199-0.143l0.117,0.001V3.868l-0.264-0.247h-0.572l-0.453,0.327
							v0.806h-1.055L9.271,5.476v0.223l0.215,0.127h0.078l0.225-0.138l0.017-0.052l0.11,0.142L9.63,5.997H9.587L9.587,5.997z
							 M12.985,3.345l-0.152,0.16h0.306L12.985,3.345z M8.751,1.042L9.108,0.8h0.041v0.192l-0.188,0.13l0.188,0.134v0.356
							L7.812,2.371H6.824v0.768L6.312,3.505H5.541l-0.191-0.2l-0.195,0.2H4.926L5.238,3.15V3.093l0.127-0.1l0.199,0.145H5.447v0.036
							l0.26,0.246h0.576l0.449-0.327V2.286h1.055L9.06,1.562V1.345L8.847,1.213H8.769l-0.227,0.14L8.524,1.407l-0.109-0.14
							l0.287-0.225H8.751z M9.181,1.218l0.14-0.096l-0.14-0.096V1.218z"/>
						<path fill="#28AE66" d="M9.149,3.536V1.645L7.82,2.401H6.854V3.15L6.361,3.505h2.822v1.89l1.328-0.752h0.967V3.891
							l0.491-0.355H9.149z"/>
						<path fill="#CA3745" d="M6.361,3.536l0.492,0.355v0.752H7.82l1.329,0.752v-1.89h2.82L11.479,3.15V2.401h-0.967L9.184,1.645
							v1.891H6.361z"/>
						<path fill="#383739" d="M7.733,2.603L7.504,2.406l-0.228,0.13l0.231,0.198L7.211,2.908h0.648l0.556,0.485l0.176-0.174
							l-0.54-0.477V2.422L7.733,2.603z"/>
						<path fill="#383739" d="M10.597,4.438l0.23,0.197l0.229-0.128l-0.231-0.199l0.296-0.169h-0.645L9.919,3.651L9.74,3.826
							l0.54,0.474v0.32L10.597,4.438z"/>
						<path fill="#383739" d="M7.733,4.438L7.504,4.634L7.276,4.506l0.231-0.199L7.211,4.138h0.648l0.556-0.487l0.176,0.174
							l-0.54,0.474v0.32L7.733,4.438z"/>
						<path fill="#383739" d="M10.597,2.603l0.23-0.197l0.229,0.13l-0.231,0.198l0.296,0.173h-0.645L9.919,3.393L9.74,3.218
							l0.54-0.477V2.422L10.597,2.603z"/>
						<path fill="#CA3745" d="M10.831,4.599l-0.207-0.179l0.174-0.098L11.005,4.5L10.831,4.599z M10.312,4.568V4.285L9.784,3.826
							L9.919,3.69l0.544,0.474h0.55L10.312,4.568z M7.501,2.442l0.208,0.179L7.537,2.719L7.328,2.542L7.501,2.442z M8.021,2.476
							v0.28l0.527,0.462L8.412,3.354L7.869,2.875H7.318L8.021,2.476z"/>
						<path fill="#28AE66" d="M10.831,2.442l-0.207,0.179l0.174,0.098l0.207-0.177L10.831,2.442z M10.312,2.476v0.28L9.784,3.218
							l0.135,0.135l0.544-0.479h0.55L10.312,2.476z M7.501,4.599l0.208-0.179L7.537,4.322L7.328,4.5L7.501,4.599z M8.021,4.568
							V4.285l0.527-0.459L8.412,3.69L7.869,4.164H7.318L8.021,4.568L8.021,4.568z"/>
						<path fill="#383739" d="M10.597,3.52l-1.43,0.882L7.738,3.52l1.429-0.882L10.597,3.52z"/>
						<path fill="#FFFFFF" d="M9.149,2.681L7.816,3.505h2.7L9.184,2.681v1.678l1.333-0.824h-2.7l1.333,0.824V2.681z"/>
						<path fill="#383739" d="M9.548,3.826v0.241H8.783V3.826H8.288V3.218h0.495V2.973h0.765v0.246h0.495v0.607H9.548z"/>
						<path fill="#CA3745" d="M8.815,3.005v0.241H8.319v0.259h0.83v-0.5H8.815L8.815,3.005z M9.184,3.505h0.83V3.246H9.519V3.005
							H9.184V3.505z M8.319,3.536v0.257h0.496v0.248h0.334V3.536H8.319z M9.184,4.041h0.335V3.793h0.495V3.536h-0.83V4.041
							L9.184,4.041z"/>
					</g>
					<g id="carpets">
						<path fill="#383739" d="M11.605,13.575v-0.389h1.152v-0.389h1.152V9.283h-1.152V8.896h-1.152V8.51h-1.149V8.121H7.879V8.51
							H6.728v0.386H5.575v0.387H4.423v3.514h1.152v0.389h1.152v0.389h1.151v0.387h2.577v-0.387H11.605z"/>
						<path fill="#CA3745" d="M7.911,8.146v0.389H6.759v0.387H5.606v0.389H4.454v3.458h1.152v0.387h1.152v0.384h1.152v0.389h2.513
							v-0.389h1.152v-0.384h1.152v-0.387h1.152V9.312h-1.152V8.923h-1.152V8.536h-1.152V8.146H7.911L7.911,8.146z M8.217,8.432
							h1.901v0.384h1.152v0.388h1.152v0.391h1.152v2.89h-1.152v0.391h-1.152v0.389h-1.152v0.386H8.217v-0.386H7.064v-0.389H5.912
							v-0.391H4.76v-2.89h1.152V9.203h1.152V8.815h1.152V8.432z"/>
						<path fill="#CA3745" d="M7.094,13.236v-0.389H5.941v-0.389H4.793V9.625h1.148V9.235h1.152V8.847h1.152V8.458h1.843v0.389h1.15
							v0.389h1.15v0.389h1.152v2.833H12.39v0.389h-1.15v0.389h-1.15v0.384H8.246v-0.384H7.094z"/>
						<path fill="#383739" d="M7.361,9.136l-0.297-0.21v0.399L6.776,9.494V9.242L6.502,9.47L6.229,9.242v0.252L5.912,9.307v0.37
							L5.655,9.849V9.625L5.351,9.826L5.047,9.625v0.225L4.76,9.662v1.121H4.423v0.511H4.76v1.128l0.287-0.194v0.229l0.304-0.207
							l0.303,0.207l0.002-0.229l0.257,0.172v0.371l0.316-0.187v0.252l0.273-0.227l0.274,0.227v-0.252l0.288,0.169v0.403l0.297-0.21
							v0.278l0.293-0.241l0.293,0.241v-0.278l0.267,0.184v0.428l0.4-0.337v0.396l0.553-0.327l0.554,0.327v-0.396l0.4,0.337v-0.428
							l0.267-0.184v0.278l0.293-0.241l0.29,0.241l0.003-0.278l0.297,0.21v-0.403l0.286-0.169v0.252l0.273-0.227l0.273,0.227
							l0.003-0.252l0.314,0.187v-0.371l0.259-0.172v0.229l0.303-0.207l0.303,0.207l0.003-0.229l0.285,0.194v-1.128h0.337v-0.511
							h-0.337V9.662l-0.285,0.187l-0.003-0.225l-0.303,0.202L12.68,9.625v0.225l-0.259-0.172v-0.37l-0.314,0.187l-0.003-0.252
							L11.83,9.47l-0.273-0.228v0.252l-0.286-0.169V8.926l-0.297,0.21l-0.003-0.283l-0.29,0.244l-0.293-0.244v0.283l-0.267-0.19
							V8.52l-0.4,0.335V8.461l-0.554,0.33l-0.553-0.33v0.394l-0.4-0.335v0.426l-0.267,0.19V8.853L7.654,9.097L7.361,8.853V9.136z"/>
						<g>
							<path fill="#28AE66" d="M5.077,9.906V9.677l0.273,0.186l0.01-0.005l0.264-0.181v0.229l0.288-0.192v2.653l-0.288-0.195v0.231
								L5.351,12.22l-0.273,0.183v-0.231l-0.284,0.195v-1.099H4.454v-0.454h0.339v-1.1L5.077,9.906z"/>
							<path fill="#28AE66" d="M7.392,8.92l0.263,0.216L7.918,8.92v0.273l0.296-0.21v4.116l-0.296-0.211v0.275l-0.264-0.216
								l-0.263,0.216v-0.275l-0.298,0.211V8.983l0.298,0.21V8.92z"/>
							<path fill="#28AE66" d="M10.941,8.92l-0.261,0.216L10.417,8.92v0.273l-0.296-0.21v4.116l0.296-0.211v0.275l0.264-0.216
								l0.261,0.216v-0.275l0.298,0.211V8.983l-0.298,0.21V8.92z"/>
							<path fill="#28AE66" d="M13.256,9.906V9.677l-0.273,0.186l-0.01-0.005l-0.264-0.181v0.229l-0.288-0.192v2.653l0.288-0.195
								v0.231l0.273-0.183l0.273,0.183v-0.231l0.286,0.195v-1.099h0.336v-0.454h-0.336v-1.1L13.256,9.906z"/>
						</g>
						<g>
							<path fill="#FAAE29" d="M6.259,9.307l0.243,0.202l0.244-0.202v0.241l0.318-0.188v3.359l-0.318-0.182v0.238l-0.244-0.202
								l-0.243,0.202v-0.238l-0.317,0.182V9.359l0.317,0.188V9.307z"/>
							<path fill="#FAAE29" d="M8.646,8.923l-0.4-0.34v4.914l0.4-0.335v0.409l0.521-0.312l0,0l0,0l0.521,0.312v-0.409l0.398,0.335
								V8.583l-0.398,0.34v-0.41L9.167,8.825l0,0l0,0L8.646,8.513V8.923z"/>
							<path fill="#FAAE29" d="M12.074,9.307L11.83,9.509l-0.244-0.202v0.241l-0.315-0.188v3.359l0.315-0.182v0.238l0.244-0.202
								l0.244,0.202v-0.238l0.315,0.182V9.359l-0.315,0.188V9.307z"/>
						</g>
						<g id="carp2h">
							<g id="carp2q">
								<path fill="#383739" d="M5.229,10.56c0.033,0.029,0.075,0.047,0.122,0.047c0.048,0,0.088-0.018,0.126-0.047
									c0.107-0.105,0.11-0.288,0.11-0.421c0,0-0.127,0.121-0.149,0.145c-0.014-0.026-0.087-0.14-0.087-0.14
									s-0.069,0.114-0.088,0.14c-0.021-0.024-0.147-0.145-0.147-0.145C5.115,10.272,5.116,10.455,5.229,10.56L5.229,10.56z"/>
								<path fill="#383739" d="M6.427,10.272l-0.091-0.083v-0.172l-0.212,0.182l0.378,0.349l0.377-0.349l-0.21-0.182v0.172
									l-0.093,0.083V9.971l0.163-0.128l-0.237-0.19l-0.238,0.19l0.163,0.128V10.272z"/>
								<path fill="#383739" d="M7.579,9.937L7.488,9.848V9.677L7.274,9.86l0.38,0.352L8.031,9.86L7.82,9.677v0.171L7.729,9.937
									V9.633l0.163-0.127L7.654,9.313L7.416,9.506l0.163,0.127V9.937z"/>
								<path fill="#FFFFFF" d="M5.351,10.201c0.02,0.031,0.083,0.13,0.083,0.13s0.085-0.083,0.121-0.119
									c-0.004,0.15-0.039,0.27-0.102,0.324C5.424,10.563,5.39,10.58,5.351,10.58s-0.073-0.016-0.103-0.044
									c-0.062-0.054-0.098-0.174-0.101-0.324c0.036,0.036,0.124,0.119,0.124,0.119C5.297,10.29,5.323,10.248,5.351,10.201z"/>
								<path fill="#FFFFFF" d="M7.696,9.623v0.381L7.851,9.86V9.745l0.137,0.117l-0.333,0.311L7.318,9.862l0.137-0.117V9.86
									l0.156,0.144V9.623L7.465,9.506l0.189-0.153l0.191,0.153L7.696,9.623z"/>
								<path fill="#CA3745" d="M6.547,9.958v0.382L6.7,10.199v-0.117l0.135,0.117l-0.333,0.31l-0.332-0.31l0.137-0.117v0.117
									l0.152,0.142V9.958L6.312,9.843l0.189-0.151l0.191,0.151L6.547,9.958z"/>
							</g>
							<g transform="matrix(-1,0,0,1,377.9958,0)">
								<g id="carp2q_1_">
									<path fill="#383739" d="M13.106,10.56c-0.036,0.029-0.078,0.047-0.124,0.047c-0.049,0-0.088-0.018-0.124-0.047
										c-0.11-0.105-0.113-0.288-0.11-0.421c0,0,0.124,0.121,0.146,0.145c0.017-0.026,0.088-0.14,0.088-0.14
										s0.071,0.114,0.088,0.14c0.022-0.024,0.149-0.145,0.149-0.145C13.22,10.272,13.217,10.455,13.106,10.56L13.106,10.56z"/>
									<path fill="#383739" d="M11.905,10.272l0.094-0.083v-0.172l0.212,0.182l-0.381,0.349l-0.378-0.349l0.212-0.182v0.172
										l0.091,0.083V9.971l-0.162-0.128l0.237-0.19l0.237,0.19l-0.162,0.128V10.272z"/>
									<path fill="#383739" d="M10.756,9.937l0.091-0.089V9.677l0.212,0.184l-0.378,0.352L10.3,9.86l0.215-0.184v0.171l0.09,0.089
										V9.633l-0.161-0.127l0.237-0.192l0.236,0.192l-0.161,0.127V9.937z"/>
									<path fill="#FFFFFF" d="M12.982,10.201c-0.02,0.031-0.081,0.13-0.081,0.13s-0.088-0.083-0.124-0.119
										c0.005,0.15,0.042,0.27,0.103,0.324c0.027,0.028,0.063,0.044,0.103,0.044s0.073-0.016,0.101-0.044
										c0.062-0.054,0.098-0.174,0.104-0.324c-0.036,0.036-0.124,0.119-0.124,0.119C13.034,10.29,13.009,10.248,12.982,10.201z"/>
									<path fill="#FFFFFF" d="M10.636,9.623v0.381L10.482,9.86V9.745l-0.137,0.117l0.335,0.311l0.332-0.311l-0.137-0.117V9.86
										l-0.152,0.144V9.623l0.145-0.117l-0.188-0.153l-0.191,0.153L10.636,9.623z"/>
									<path fill="#CA3745" d="M11.788,9.958v0.382l-0.153-0.142v-0.117l-0.137,0.117l0.332,0.31l0.335-0.31l-0.137-0.117v0.117
										l-0.154,0.142V9.958l0.146-0.115l-0.19-0.151l-0.19,0.151L11.788,9.958z"/>
								</g>
							</g>
							<path fill="#383739" d="M9.618,10.062L9.496,9.904l0.315-0.271L9.519,9.41v0.158L9.392,9.665v-0.29l0.28-0.192L9.167,8.838
								L8.659,9.184l0.28,0.192v0.29L8.815,9.567V9.41L8.52,9.633l0.317,0.271l-0.122,0.158H9.618z"/>
							<path fill="#CA3745" d="M8.773,10.036l0.104-0.135l-0.31-0.269l0.218-0.165v0.112l0.186,0.146V9.359l-0.26-0.176l0.455-0.31
								l0.453,0.31L9.362,9.359v0.368l0.186-0.146V9.468l0.219,0.165L9.454,9.901l0.104,0.135H8.773z"/>
							<path fill="#383739" d="M8.935,9.184l0.232,0.158l0.231-0.158L9.167,9.025l-0.01,0.008L8.935,9.184z"/>
							<path fill="#28AE66" d="M9.167,9.063c0.014,0.01,0.15,0.101,0.178,0.121c-0.027,0.02-0.164,0.114-0.178,0.124
								c-0.016-0.01-0.154-0.104-0.179-0.124C9.013,9.164,9.151,9.073,9.167,9.063z"/>
						</g>
						<g id="carp2">
							<g id="carp2h_1_">
								<g id="carp2q_2_">
									<path fill="#383739" d="M5.229,11.522c0.033-0.034,0.075-0.049,0.122-0.049c0.048,0,0.088,0.015,0.126,0.049
										c0.107,0.103,0.11,0.288,0.11,0.418c0,0-0.127-0.121-0.149-0.143c-0.014,0.022-0.087,0.138-0.087,0.138
										s-0.069-0.116-0.088-0.138C5.242,11.82,5.115,11.94,5.115,11.94C5.115,11.81,5.116,11.625,5.229,11.522L5.229,11.522z"/>
									<path fill="#383739" d="M6.427,11.81l-0.091,0.085v0.171L6.124,11.88l0.378-0.35l0.377,0.35l-0.21,0.186v-0.171
										L6.576,11.81v0.3l0.163,0.132l-0.237,0.186l-0.238-0.186l0.163-0.132V11.81z"/>
									<path fill="#383739" d="M7.579,12.146L7.488,12.23v0.171l-0.214-0.179l0.38-0.35l0.377,0.35L7.82,12.401V12.23
										l-0.092-0.084v0.301l0.163,0.13l-0.237,0.19l-0.238-0.19l0.163-0.13V12.146z"/>
									<path fill="#FFFFFF" d="M5.351,11.878c0.02-0.029,0.083-0.132,0.083-0.132s0.085,0.086,0.121,0.125
										c-0.004-0.153-0.039-0.272-0.102-0.329c-0.029-0.026-0.063-0.041-0.103-0.041s-0.073,0.015-0.103,0.041
										C5.187,11.6,5.15,11.719,5.147,11.872c0.036-0.039,0.124-0.125,0.124-0.125C5.297,11.794,5.323,11.834,5.351,11.878z"/>
									<path fill="#FFFFFF" d="M7.696,12.459v-0.384l0.154,0.145v0.112l0.137-0.112l-0.333-0.309L7.318,12.22l0.137,0.112V12.22
										l0.156-0.145v0.384l-0.146,0.117l0.189,0.151l0.191-0.151L7.696,12.459z"/>
									<path fill="#CA3745" d="M6.547,12.125V11.74L6.7,11.88v0.117l0.135-0.117l-0.333-0.308L6.17,11.88l0.137,0.117V11.88
										l0.152-0.14v0.384l-0.146,0.117l0.189,0.148l0.191-0.148L6.547,12.125z"/>
								</g>
								<g transform="matrix(1,0,0,-1,0,331.21644)">
									<g id="carp2q_3_">
										<path fill="#383739" d="M13.106,11.522c-0.036-0.034-0.078-0.049-0.124-0.049c-0.049,0-0.088,0.015-0.124,0.049
											c-0.11,0.103-0.113,0.288-0.11,0.418c0,0,0.124-0.121,0.146-0.143c0.017,0.022,0.088,0.138,0.088,0.138
											s0.071-0.116,0.088-0.138c0.022,0.022,0.149,0.143,0.149,0.143C13.22,11.81,13.217,11.625,13.106,11.522L13.106,11.522z"
											/>
										<path fill="#383739" d="M11.905,11.81l0.094,0.085v0.171l0.212-0.186l-0.381-0.35l-0.378,0.35l0.212,0.186v-0.171
											l0.091-0.085v0.3l-0.162,0.132l0.237,0.186l0.237-0.186l-0.162-0.132V11.81z"/>
										<path fill="#383739" d="M10.756,12.146l0.091,0.084v0.171l0.212-0.179l-0.378-0.35l-0.381,0.35l0.215,0.179V12.23
											l0.09-0.084v0.301l-0.161,0.13l0.237,0.19l0.236-0.19l-0.161-0.13V12.146z"/>
										<path fill="#FFFFFF" d="M12.982,11.878c-0.02-0.029-0.081-0.132-0.081-0.132s-0.088,0.086-0.124,0.125
											c0.005-0.153,0.042-0.272,0.103-0.329c0.027-0.026,0.063-0.041,0.103-0.041s0.073,0.015,0.101,0.041
											c0.062,0.057,0.098,0.176,0.104,0.329c-0.036-0.039-0.124-0.125-0.124-0.125C13.034,11.794,13.009,11.834,12.982,11.878z"
											/>
										<path fill="#FFFFFF" d="M10.636,12.459v-0.384l-0.153,0.145v0.112l-0.137-0.112l0.335-0.309l0.332,0.309l-0.137,0.112
											V12.22l-0.152-0.145v0.384l0.145,0.117l-0.188,0.151l-0.191-0.151L10.636,12.459z"/>
										<path fill="#CA3745" d="M11.788,12.125V11.74l-0.153,0.14v0.117l-0.137-0.117l0.332-0.308l0.335,0.308l-0.137,0.117V11.88
											l-0.154-0.14v0.384l0.146,0.117l-0.19,0.148l-0.19-0.148L11.788,12.125z"/>
									</g>
								</g>
								<path fill="#383739" d="M9.618,12.015l-0.122,0.16l0.315,0.272l-0.293,0.226v-0.158l-0.127-0.098v0.285l0.28,0.192
									l-0.505,0.349l-0.508-0.349l0.28-0.192v-0.285l-0.124,0.098v0.158L8.52,12.447l0.317-0.272l-0.122-0.16H9.618z"/>
								<path fill="#CA3745" d="M8.773,12.048l0.104,0.135l-0.31,0.264l0.218,0.167v-0.112l0.186-0.148v0.364l-0.26,0.176
									l0.455,0.312l0.453-0.312l-0.258-0.176v-0.364l0.186,0.148v0.112l0.219-0.167l-0.312-0.264l0.104-0.135H8.773z"/>
								<path fill="#383739" d="M8.935,12.894l0.232-0.156l0.231,0.156l-0.231,0.16l-0.01-0.005L8.935,12.894z"/>
								<path fill="#28AE66" d="M9.167,13.018c0.014-0.01,0.15-0.104,0.178-0.124c-0.027-0.018-0.164-0.11-0.178-0.12
									c-0.016,0.01-0.154,0.103-0.179,0.12C9.013,12.914,9.151,13.008,9.167,13.018z"/>
							</g>
							<path fill="#383739" d="M13.266,10.876h-0.508v-0.187h-1.55l-1.077-0.653h-0.007H8.202l-1.075,0.653H5.575v0.187H5.069v0.329
								h0.506v0.186h1.552l1.075,0.658h1.929l1.077-0.658h1.55v-0.186h0.508V10.876z"/>
							<path fill="#CA3745" d="M8.212,10.062l-1.079,0.656H5.606v0.184H5.102v0.273h0.505v0.189h1.526l1.079,0.653h1.912
								l1.074-0.653h1.53v-0.189h0.508v-0.273h-0.508v-0.184h-1.53l-1.074-0.656H8.212z M8.236,10.16h1.858l0.988,0.599v0.094h1.104
								v0.378h-1.104v0.094l-0.988,0.594H8.236L7.25,11.325v-0.094H6.144v-0.378H7.25v-0.094L8.236,10.16z"/>
							<path fill="#CA3745" d="M10.089,10.191l0.963,0.584v0.103h1.104v0.327h-1.104v0.101l-0.963,0.587H8.246l-0.963-0.587v-0.101
								H6.18v-0.327h1.104v-0.103l0.963-0.584H10.089z"/>
							<g>
								<path fill="#383739" d="M7.765,11.373l0.418,0.291l0.273-0.192l-0.158-0.109l-0.115,0.08l-0.098-0.07l1.57-1.094H9.337
									L7.765,11.373z M8.676,11.799h0.319l1.57-1.092l-0.415-0.291l-0.276,0.193l0.159,0.111l0.117-0.078l0.098,0.065
									L8.676,11.799z M9.337,11.799h0.318l-1.57-1.092l0.098-0.065l0.115,0.078l0.158-0.111l-0.273-0.193l-0.418,0.291
									L9.337,11.799z M10.248,11.373l-0.098,0.07l-0.117-0.08l-0.159,0.109l0.276,0.192l0.415-0.291l-1.57-1.094H8.676
									L10.248,11.373z"/>
								<path fill="#383739" d="M7.45,11.039l0.282,0.174l0.279-0.174L7.732,10.87L7.45,11.039z"/>
								<path fill="#383739" d="M8.886,11.039l0.281,0.174l0.28-0.174l-0.28-0.169L8.886,11.039z"/>
								<path fill="#383739" d="M10.883,11.039l-0.28,0.174l-0.281-0.174l0.281-0.169L10.883,11.039z"/>
								<path fill="#FAAE29" d="M10.515,11.373l-0.364,0.252l-0.225-0.153l0.11-0.077l0.114,0.083l0.149-0.105L8.769,10.31h0.217
									L10.515,11.373z M9.564,11.773H9.347L7.82,10.707l0.362-0.254l0.223,0.156l-0.107,0.075l-0.115-0.08l-0.147,0.103
									L9.564,11.773z M8.985,11.773H8.769l1.531-1.066l-0.149-0.103l-0.114,0.08l-0.11-0.075l0.225-0.156l0.364,0.254
									L8.985,11.773z M9.347,10.31h0.218l-1.529,1.063l0.147,0.105l0.115-0.083l0.107,0.077l-0.223,0.153L7.82,11.373L9.347,10.31
									z"/>
								<path fill="#28AE66" d="M7.732,10.902l0.225,0.137l-0.225,0.137l-0.225-0.137L7.732,10.902z"/>
								<path fill="#28AE66" d="M9.167,10.902l0.225,0.137l-0.225,0.137l-0.225-0.137L9.167,10.902z"/>
								<path fill="#28AE66" d="M10.603,10.902l-0.225,0.137l0.225,0.137l0.225-0.137L10.603,10.902z"/>
							</g>
						</g>
						<g id="carp3">
							<g>
								<path fill="#383739" d="M4.236,18.276l-0.111,0.143l0.199,0.139l-0.199,0.14l0.111,0.146l0.228,0.023l0.223-0.158
									l0.552,0.324v-0.267l-0.348-0.208l0.348-0.202v-0.271l-0.552,0.329l-0.223-0.161L4.236,18.276z"/>
								<path fill="#383739" d="M4.236,17.339l-0.111,0.144l0.199,0.138l-0.199,0.138l0.111,0.148l0.228,0.022l0.223-0.159
									l0.552,0.329v-0.272l-0.348-0.207l0.348-0.202v-0.273l-0.552,0.329l-0.223-0.163L4.236,17.339z"/>
								<path fill="#383739" d="M4.236,19.782l-0.111-0.146l0.199-0.138l-0.199-0.138l0.111-0.144l0.228-0.026l0.223,0.161
									l0.552-0.327v0.27l-0.348,0.204l0.348,0.207v0.272l-0.552-0.327l-0.223,0.16L4.236,19.782z"/>
								<path fill="#383739" d="M14.099,18.276l0.109,0.143l-0.197,0.139l0.197,0.14l-0.109,0.146l-0.23,0.023l-0.222-0.158
									l-0.554,0.324v-0.267l0.349-0.208l-0.349-0.202v-0.271l0.554,0.329l0.222-0.161L14.099,18.276z"/>
								<path fill="#383739" d="M14.099,17.339l0.109,0.144l-0.197,0.138l0.197,0.138l-0.109,0.148l-0.23,0.022l-0.222-0.159
									l-0.554,0.329v-0.272l0.349-0.207l-0.349-0.202v-0.273l0.554,0.329l0.222-0.163L14.099,17.339z"/>
								<path fill="#383739" d="M14.099,19.782l0.109-0.146l-0.197-0.138l0.197-0.138l-0.109-0.144l-0.23-0.026l-0.222,0.161
									l-0.554-0.327v0.27l0.349,0.204l-0.349,0.207v0.272l0.554-0.327l0.222,0.16L14.099,19.782z"/>
								<path fill="#383739" d="M11.882,15.716v0.391h0.31v0.169h0.3V15.96h-0.268v-0.244H11.882z"/>
								<path fill="#383739" d="M12.787,16.33v0.391h0.306v0.172h0.303v-0.314h-0.27V16.33H12.787L12.787,16.33z"/>
								<path fill="#383739" d="M6.449,15.716v0.391H6.142v0.169H5.841V15.96h0.271v-0.244H6.449z"/>
								<path fill="#383739" d="M11.882,21.406v-0.391h0.31v-0.174h0.3v0.314h-0.268v0.25H11.882z"/>
								<path fill="#383739" d="M6.449,21.406v-0.391H6.142v-0.174H5.841v0.314h0.271v0.25H6.449z"/>
								<path fill="#383739" d="M12.787,20.787v-0.39h0.306v-0.169h0.303v0.314h-0.27v0.245H12.787L12.787,20.787z"/>
								<path fill="#383739" d="M5.546,16.33v0.391H5.238v0.172H4.939v-0.314h0.267V16.33H5.546L5.546,16.33z"/>
								<path fill="#383739" d="M5.546,20.787v-0.39H5.238v-0.169H4.939v0.314h0.267v0.245H5.546L5.546,20.787z"/>
								<path fill="#383739" d="M10.3,15.707c-0.02-0.02-0.232-0.211-0.232-0.211L9.838,15.69c0,0,0.179,0.166,0.198,0.184
									l-0.257,0.233h0.384L10.3,15.98l0.139,0.127h0.386l-0.261-0.233c0.021-0.018,0.202-0.184,0.202-0.184l-0.231-0.195
									C10.456,15.565,10.378,15.638,10.3,15.707L10.3,15.707z"/>
								<path fill="#383739" d="M9.167,15.707c-0.02-0.02-0.234-0.211-0.234-0.211l-0.23,0.195c0,0,0.182,0.166,0.201,0.184
									l-0.257,0.233H9.03l0.137-0.127l0.137,0.127h0.385l-0.258-0.233C9.45,15.856,9.63,15.69,9.63,15.69l-0.229-0.195
									C9.323,15.565,9.245,15.638,9.167,15.707L9.167,15.707z"/>
								<path fill="#383739" d="M8.031,15.707c0.02-0.02,0.234-0.211,0.234-0.211l0.231,0.195c0,0-0.183,0.166-0.202,0.184
									l0.259,0.233H8.172L8.031,15.98l-0.137,0.127H7.509l0.259-0.233c-0.02-0.018-0.2-0.184-0.2-0.184l0.229-0.195
									C7.875,15.565,7.953,15.638,8.031,15.707z"/>
								<path fill="#383739" d="M10.3,21.412c-0.02,0.019-0.232,0.213-0.232,0.213l-0.229-0.199c0,0,0.179-0.16,0.198-0.178
									l-0.257-0.232h0.384l0.137,0.121l0.139-0.121h0.386l-0.261,0.232c0.021,0.018,0.202,0.178,0.202,0.178l-0.231,0.199
									C10.456,21.557,10.378,21.484,10.3,21.412L10.3,21.412z"/>
								<path fill="#383739" d="M9.167,21.412c-0.02,0.019-0.234,0.213-0.234,0.213l-0.23-0.199c0,0,0.182-0.16,0.201-0.178
									l-0.257-0.232H9.03l0.137,0.121l0.137-0.121h0.385l-0.258,0.232c0.02,0.018,0.199,0.178,0.199,0.178l-0.229,0.199
									C9.323,21.557,9.245,21.484,9.167,21.412L9.167,21.412z"/>
								<path fill="#383739" d="M8.031,21.412c0.02,0.019,0.234,0.213,0.234,0.213l0.231-0.199c0,0-0.183-0.16-0.202-0.178
									l0.259-0.232H8.172l-0.141,0.121l-0.137-0.121H7.509l0.259,0.232c-0.02,0.018-0.2,0.178-0.2,0.178l0.229,0.199
									C7.875,21.557,7.953,21.484,8.031,21.412z"/>
							</g>
							<g>
								<path fill="#28AE66" d="M5.209,18.783v0.2l-0.523-0.308l-0.231,0.163l-0.202-0.023l-0.084-0.107l0.205-0.149l-0.205-0.144
									l0.084-0.112l0.202-0.021l0.231,0.163l0.523-0.306v0.202l-0.376,0.218L5.209,18.783z"/>
								<path fill="#28AE66" d="M5.209,17.84v0.205l-0.523-0.309l-0.231,0.161l-0.202-0.021l-0.084-0.107l0.205-0.148l-0.205-0.143
									l0.084-0.112l0.202-0.023l0.231,0.163l0.523-0.308v0.204l-0.376,0.22L5.209,17.84z"/>
								<path fill="#28AE66" d="M5.209,19.279v-0.202l-0.523,0.308l-0.231-0.166l-0.202,0.023l-0.084,0.11l0.205,0.145l-0.205,0.148
									l0.084,0.109l0.202,0.024l0.231-0.166l0.523,0.309V19.72l-0.376-0.223L5.209,19.279z"/>
								<path fill="#28AE66" d="M13.124,18.783v0.2l0.525-0.308l0.229,0.163l0.201-0.023l0.088-0.107l-0.208-0.149l0.208-0.144
									l-0.088-0.112l-0.201-0.021l-0.229,0.163l-0.525-0.306v0.202l0.376,0.218L13.124,18.783z"/>
								<path fill="#28AE66" d="M13.124,17.84v0.205l0.525-0.309l0.229,0.161l0.201-0.021l0.088-0.107l-0.208-0.148l0.208-0.143
									l-0.088-0.112l-0.201-0.023l-0.229,0.163l-0.525-0.308v0.204l0.376,0.22L13.124,17.84z"/>
								<path fill="#28AE66" d="M13.124,19.279v-0.202l0.525,0.308l0.229-0.166l0.201,0.023l0.088,0.11l-0.208,0.145l0.208,0.148
									l-0.088,0.109l-0.201,0.024l-0.229-0.166l-0.525,0.309V19.72l0.376-0.223L13.124,19.279z"/>
								<path fill="#28AE66" d="M12.191,15.744v0.249h0.269v0.255h-0.239v-0.171h-0.308v-0.333H12.191z"/>
								<path fill="#28AE66" d="M13.095,16.356v0.25h0.271v0.257h-0.242v-0.171h-0.305v-0.337H13.095z"/>
								<path fill="#28AE66" d="M6.141,15.744v0.249H5.873v0.255h0.238v-0.171H6.42v-0.333H6.141z"/>
								<path fill="#28AE66" d="M12.191,21.373v-0.244h0.269v-0.256h-0.239v0.168h-0.308v0.332H12.191L12.191,21.373z"/>
								<path fill="#28AE66" d="M6.141,21.373v-0.244H5.873v-0.256h0.238v0.168H6.42v0.332H6.141L6.141,21.373z"/>
								<path fill="#28AE66" d="M13.095,20.76v-0.248h0.271v-0.256h-0.242v0.171h-0.305v0.333H13.095L13.095,20.76z"/>
								<path fill="#28AE66" d="M5.238,16.356v0.25h-0.27v0.257h0.24v-0.171h0.307v-0.337H5.238z"/>
								<path fill="#28AE66" d="M5.238,20.76v-0.248h-0.27v-0.256h0.24v0.171h0.307v0.333H5.238L5.238,20.76z"/>
								<path fill="#28AE66" d="M10.065,15.532c0.02,0.018,0.234,0.213,0.234,0.213s0.217-0.195,0.234-0.213
									c0.02,0.018,0.166,0.146,0.186,0.16c-0.02,0.018-0.198,0.182-0.198,0.182l0.228,0.204h-0.296L10.3,15.941l-0.149,0.137
									H9.854l0.228-0.204c0,0-0.181-0.164-0.2-0.182C9.901,15.679,10.048,15.55,10.065,15.532L10.065,15.532z"/>
								<path fill="#28AE66" d="M8.933,15.532c0.02,0.018,0.234,0.213,0.234,0.213s0.215-0.195,0.234-0.213
									c0.02,0.018,0.163,0.146,0.186,0.16c-0.022,0.018-0.201,0.182-0.201,0.182l0.228,0.204H9.317l-0.15-0.137l-0.149,0.137H8.72
									l0.229-0.204c0,0-0.181-0.164-0.202-0.182C8.767,15.679,8.913,15.55,8.933,15.532z"/>
								<path fill="#28AE66" d="M8.269,15.532c-0.022,0.018-0.237,0.213-0.237,0.213s-0.215-0.195-0.234-0.213
									c-0.016,0.018-0.162,0.146-0.182,0.16c0.02,0.018,0.196,0.182,0.196,0.182l-0.226,0.204h0.296l0.149-0.137l0.151,0.137
									h0.295l-0.227-0.204c0,0,0.181-0.164,0.2-0.182C8.432,15.679,8.285,15.55,8.269,15.532z"/>
								<path fill="#28AE66" d="M10.065,21.584c0.02-0.018,0.234-0.212,0.234-0.212s0.217,0.194,0.234,0.212
									c0.02-0.016,0.166-0.141,0.186-0.158c-0.02-0.018-0.198-0.178-0.198-0.178l0.228-0.207h-0.296L10.3,21.177l-0.149-0.136
									H9.854l0.228,0.207c0,0-0.181,0.16-0.2,0.178C9.901,21.443,10.048,21.568,10.065,21.584L10.065,21.584z"/>
								<path fill="#28AE66" d="M8.933,21.584c0.02-0.018,0.234-0.212,0.234-0.212s0.215,0.194,0.234,0.212
									c0.02-0.016,0.163-0.141,0.186-0.158c-0.022-0.018-0.201-0.178-0.201-0.178l0.228-0.207H9.317l-0.15,0.136l-0.149-0.136
									H8.72l0.229,0.207c0,0-0.181,0.16-0.202,0.178C8.767,21.443,8.913,21.568,8.933,21.584z"/>
								<path fill="#28AE66" d="M8.269,21.584c-0.022-0.018-0.237-0.212-0.237-0.212s-0.215,0.194-0.234,0.212
									c-0.016-0.016-0.162-0.141-0.182-0.158c0.02-0.018,0.196-0.178,0.196-0.178l-0.226-0.207h0.296l0.149,0.136l0.151-0.136
									h0.295l-0.227,0.207c0,0,0.181,0.16,0.2,0.178C8.432,21.443,8.285,21.568,8.269,21.584z"/>
							</g>
							<path fill="#383739" d="M6.111,20.426v0.615h6.109v-0.615h0.903v-3.733h-0.903v-0.615H6.111v0.615H5.209v3.733H6.111z"/>
							<path fill="#CA3745" d="M6.144,16.107v0.612H5.242v3.677h0.901v0.618h6.048v-0.618h0.901v-3.677h-0.901v-0.612H6.144
								L6.144,16.107z M6.532,16.343h5.269v0.591l0.218,0.151h0.82v2.954h-0.823l-0.215,0.142v0.599H6.532v-0.595l-0.216-0.145
								H5.492v-2.954h0.82l0.22-0.151V16.343L6.532,16.343z"/>
							<path fill="#CA3745" d="M6.563,16.369v0.545l0.794-0.545H6.563z M10.974,16.369l0.793,0.545v-0.545H10.974z M5.526,17.111
								v0.508l0.747-0.508H5.526L5.526,17.111z M12.058,17.111l0.752,0.511v-0.511H12.058z M12.81,19.496l-0.752,0.514h0.752V19.496
								z M5.526,19.497v0.513h0.747L5.526,19.497z M6.563,20.21v0.537h0.789L6.563,20.21z M11.767,20.21l-0.789,0.537h0.789V20.21z"
								/>
							<path fill="#28AE66" d="M10.922,16.371c0.01,0.003,1.875,1.283,1.888,1.289v1.8c-0.013,0.01-1.878,1.285-1.888,1.289H7.411
								c-0.008-0.004-1.875-1.279-1.886-1.289v-1.8c0.011-0.006,1.878-1.286,1.886-1.289H10.922z"/>
							<path fill="#383739" d="M5.975,19.667L5.76,19.435l0.201-0.22L5.76,18.999l0.201-0.221l-0.201-0.22l0.201-0.217L5.76,18.124
								l0.201-0.218L5.76,17.684l0.215-0.234h6.386l0.215,0.234l-0.203,0.221l0.203,0.218l-0.203,0.218l0.203,0.217l-0.203,0.22
								l0.203,0.221l-0.203,0.216l0.203,0.22l-0.215,0.231H5.975z M10.362,16.654l-0.251-0.204l-0.237,0.189L9.638,16.45
								l-0.236,0.189L9.167,16.45L8.93,16.639L8.695,16.45l-0.237,0.189L8.222,16.45L7.97,16.654v3.815l0.252,0.199l0.236-0.186
								l0.237,0.186l0.234-0.186l0.237,0.186l0.234-0.186l0.236,0.186l0.236-0.186l0.237,0.186l0.251-0.199V16.654z"/>
							<g>
								<path fill="#FAAE29" d="M9.86,16.664l-0.223-0.176l-0.22,0.176v3.789l0.22,0.176l0.223-0.176V16.664z"/>
								<path fill="#FAAE29" d="M8.913,16.664l-0.218-0.176l-0.222,0.176v3.789l0.222,0.176l0.218-0.176V16.664z"/>
								<path fill="#FAAE29" d="M5.987,19.637l-0.188-0.202l0.188-0.203h6.357l0.188,0.203l-0.188,0.202H5.987z"/>
								<path fill="#FAAE29" d="M12.345,18.356l0.191,0.202l-0.191,0.208H5.99l-0.191-0.208l0.191-0.202H12.345z"/>
								<path fill="#FAAE29" d="M12.345,17.891l0.188-0.207l-0.188-0.204H5.987l-0.188,0.204l0.188,0.207H12.345z"/>
							</g>
							<g>
								<path fill="#CA3745" d="M10.331,16.664l-0.22-0.176L9.89,16.664v3.789l0.222,0.176l0.22-0.176V16.664z"/>
								<path fill="#CA3745" d="M8.441,16.664l-0.22-0.176l-0.22,0.176v3.789l0.22,0.176l0.22-0.176V16.664z"/>
								<path fill="#CA3745" d="M5.987,19.203l-0.188-0.204l0.188-0.207h6.357l0.191,0.207l-0.191,0.204H5.987z"/>
								<path fill="#CA3745" d="M5.987,18.325l-0.188-0.202l0.188-0.207h6.357l0.191,0.207l-0.191,0.202H5.987z"/>
								<path fill="#CA3745" d="M9.389,20.453l-0.222,0.176l-0.223-0.176v-3.789l0.223-0.176l0.222,0.176V20.453z"/>
							</g>
							<path fill="#383739" d="M11.3,16.738H7.016v0.316H6.469v3.011h0.547v0.314h4.3v-0.314h0.547v-3.011h-0.547v-0.316H11.3z"/>
							<path fill="#CA3745" d="M7.049,16.768v0.317H6.502v2.954h0.547v0.312h0.449l-0.896-0.697v-2.19l0.896-0.697H7.049z
								 M10.837,16.768l0.891,0.697v2.19l-0.891,0.697h0.449v-0.312h0.547v-2.954h-0.547v-0.317H10.837L10.837,16.768z"/>
							<g>
								<path fill="#28AE66" d="M7.548,16.768c-0.008,0.007-0.903,0.703-0.916,0.711v2.165c0.013,0.008,0.908,0.703,0.916,0.708
									h3.24c0.007-0.005,0.898-0.7,0.908-0.708v-2.165c-0.01-0.008-0.901-0.705-0.908-0.711H7.548z M7.596,16.892h3.141
									l0.833,0.645v2.05l-0.833,0.645H7.596l-0.829-0.645v-2.05L7.596,16.892z"/>
								<path fill="#28AE66" d="M8.425,19.619l0.144,0.055l0.024,0.151l-0.178,0.145L8.673,20.2H8.425l-0.176-0.158L8.07,20.2H7.823
									l0.261-0.229l-0.18-0.145l0.026-0.151l0.14-0.055l0.179,0.13l0.01-0.007L8.425,19.619z"/>
								<path fill="#28AE66" d="M9.345,19.619l0.142,0.055l0.024,0.151l-0.178,0.145L9.591,20.2H9.343l-0.176-0.158L8.988,20.2
									H8.741l0.257-0.229l-0.176-0.145l0.024-0.151l0.142-0.055l0.179,0.13l0.01-0.007L9.345,19.619z"/>
								<path fill="#28AE66" d="M9.906,19.619l-0.14,0.055L9.74,19.826l0.176,0.145L9.662,20.2h0.247l0.176-0.158l0.176,0.158h0.248
									l-0.258-0.229l0.178-0.145l-0.024-0.151l-0.144-0.055l-0.176,0.13l-0.01-0.007L9.906,19.619z"/>
								<path fill="#28AE66" d="M8.425,17.502l0.144-0.057l0.024-0.155l-0.178-0.142l0.258-0.231H8.425l-0.176,0.158L8.07,16.917
									H7.823l0.261,0.231l-0.18,0.142l0.026,0.155l0.14,0.057l0.179-0.134l0.01,0.01L8.425,17.502z"/>
								<path fill="#28AE66" d="M9.345,17.502l0.142-0.057l0.024-0.155l-0.178-0.142l0.258-0.231H9.343l-0.176,0.158l-0.179-0.158
									H8.741l0.257,0.231L8.822,17.29l0.024,0.155l0.142,0.057l0.179-0.134l0.01,0.01L9.345,17.502z"/>
								<path fill="#28AE66" d="M9.906,17.502l-0.14-0.057L9.74,17.29l0.176-0.142l-0.254-0.231h0.247l0.176,0.158l0.176-0.158
									h0.248l-0.258,0.231l0.178,0.142l-0.024,0.155l-0.144,0.057l-0.176-0.134l-0.01,0.01L9.906,17.502z"/>
								<path fill="#28AE66" d="M11.537,17.744l-0.142,0.107l0.142,0.106v0.182l-0.218-0.167c0,0-0.144,0.124-0.153,0.132
									c-0.015-0.002-0.153-0.02-0.166-0.021c-0.007-0.011-0.052-0.086-0.059-0.097c0.013-0.015,0.142-0.134,0.142-0.134
									s-0.129-0.119-0.142-0.133c0.007-0.013,0.052-0.086,0.059-0.099c0.013-0.002,0.151-0.018,0.166-0.018
									c0.01,0.005,0.153,0.13,0.153,0.13l0.218-0.168V17.744z"/>
								<path fill="#28AE66" d="M11.537,18.454l-0.142,0.104l0.142,0.11v0.178l-0.218-0.165c0,0-0.144,0.124-0.153,0.13
									c-0.015-0.002-0.153-0.02-0.166-0.02c-0.007-0.01-0.052-0.085-0.059-0.101c0.013-0.015,0.142-0.133,0.142-0.133
									s-0.129-0.117-0.142-0.132c0.007-0.012,0.052-0.088,0.059-0.101c0.013-0.001,0.151-0.016,0.166-0.018
									c0.01,0.01,0.153,0.132,0.153,0.132l0.218-0.164V18.454z"/>
								<path fill="#28AE66" d="M11.537,19.375l-0.142-0.107l0.142-0.107v-0.179l-0.218,0.165c0,0-0.144-0.121-0.153-0.127
									c-0.015,0.001-0.153,0.015-0.166,0.018c-0.007,0.01-0.052,0.084-0.059,0.101c0.013,0.013,0.142,0.13,0.142,0.13
									s-0.129,0.122-0.142,0.13c0.007,0.018,0.052,0.093,0.059,0.101c0.013,0.003,0.151,0.018,0.166,0.02
									c0.01-0.008,0.153-0.127,0.153-0.127l0.218,0.163V19.375z"/>
								<path fill="#28AE66" d="M6.798,17.744l0.14,0.107l-0.14,0.106v0.182l0.215-0.167c0,0,0.145,0.124,0.154,0.132
									c0.015-0.002,0.155-0.02,0.168-0.021c0.007-0.011,0.049-0.086,0.057-0.097c-0.011-0.015-0.142-0.134-0.142-0.134
									s0.131-0.119,0.142-0.133c-0.008-0.013-0.05-0.086-0.057-0.099c-0.013-0.002-0.153-0.018-0.168-0.018
									c-0.01,0.005-0.154,0.13-0.154,0.13l-0.215-0.168V17.744z"/>
								<path fill="#28AE66" d="M6.798,18.454l0.14,0.104l-0.14,0.11v0.178l0.215-0.165c0,0,0.145,0.124,0.154,0.13
									c0.015-0.002,0.155-0.02,0.168-0.02c0.007-0.01,0.049-0.085,0.057-0.101c-0.011-0.015-0.142-0.133-0.142-0.133
									s0.131-0.117,0.142-0.132c-0.008-0.012-0.05-0.088-0.057-0.101c-0.013-0.001-0.153-0.016-0.168-0.018
									c-0.01,0.01-0.154,0.132-0.154,0.132l-0.215-0.164V18.454z"/>
								<path fill="#28AE66" d="M6.798,19.375l0.14-0.107l-0.14-0.107v-0.179l0.215,0.165c0,0,0.145-0.121,0.154-0.127
									c0.015,0.001,0.155,0.015,0.168,0.018c0.007,0.01,0.049,0.084,0.057,0.101c-0.011,0.013-0.142,0.13-0.142,0.13
									s0.131,0.122,0.142,0.13c-0.008,0.018-0.05,0.093-0.057,0.101c-0.013,0.003-0.153,0.018-0.168,0.02
									c-0.01-0.008-0.154-0.127-0.154-0.127l-0.215,0.163V19.375z"/>
							</g>
							<path fill="#CA3745" d="M7.605,16.917c-0.009,0.006-0.762,0.589-0.798,0.619c0.068,0.049,0.134,0.104,0.202,0.158
								c0.02-0.015,0.149-0.122,0.149-0.122l0.193,0.024l0.077,0.132c0,0-0.117,0.107-0.137,0.124
								c0.02,0.018,0.137,0.127,0.137,0.127l-0.077,0.13L7.159,18.13c0,0-0.13-0.104-0.149-0.119l-0.214,0.167v0.057
								c0.073,0.052,0.142,0.107,0.214,0.164c0.02-0.016,0.149-0.119,0.149-0.119l0.193,0.02l0.077,0.132
								c0,0-0.117,0.107-0.137,0.125c0.02,0.018,0.137,0.13,0.137,0.13l-0.077,0.134l-0.193,0.021c0,0-0.13-0.111-0.149-0.127
								l-0.214,0.169v0.059l0.214,0.164c0.02-0.011,0.149-0.124,0.149-0.124l0.193,0.024l0.077,0.132c0,0-0.117,0.112-0.137,0.127
								c0.02,0.016,0.137,0.128,0.137,0.128l-0.077,0.132l-0.193,0.023c0,0-0.13-0.111-0.149-0.122
								c-0.067,0.049-0.134,0.103-0.202,0.155c0.036,0.026,0.789,0.61,0.798,0.617h0.176l0.255-0.229l-0.164-0.132l0.032-0.187
								l0.17-0.065l0.175,0.125l0.173-0.125l0.171,0.065l0.034,0.187l-0.166,0.132l0.247,0.22l0.248-0.22l-0.168-0.132l0.031-0.187
								l0.174-0.065l0.174,0.125l0.173-0.125l0.173,0.065l0.032,0.187l-0.166,0.132l0.244,0.221l0.247-0.221l-0.164-0.132
								l0.031-0.187l0.176-0.065l0.172,0.125l0.173-0.125l0.173,0.065l0.032,0.187L10.3,19.971l0.254,0.229h0.173
								c0.007-0.006,0.762-0.591,0.796-0.617c-0.068-0.052-0.135-0.106-0.2-0.155c-0.02,0.011-0.146,0.122-0.146,0.122l-0.195-0.023
								l-0.078-0.132c0,0,0.117-0.112,0.137-0.128c-0.02-0.015-0.137-0.127-0.137-0.127l0.078-0.132l0.195-0.024
								c0,0,0.127,0.112,0.146,0.124l0.212-0.164v-0.059l-0.212-0.169c-0.02,0.016-0.146,0.127-0.146,0.127l-0.195-0.021
								l-0.078-0.134c0,0,0.117-0.112,0.137-0.13c-0.02-0.018-0.137-0.125-0.137-0.125l0.078-0.132l0.195-0.02
								c0,0,0.127,0.103,0.146,0.119c0.071-0.057,0.14-0.109,0.212-0.161v-0.065l-0.212-0.163c-0.02,0.015-0.146,0.119-0.146,0.119
								l-0.195-0.021l-0.078-0.13c0,0,0.117-0.109,0.137-0.127c-0.02-0.016-0.137-0.124-0.137-0.124l0.078-0.132l0.195-0.024
								c0,0,0.127,0.107,0.146,0.122c0.065-0.054,0.137-0.103,0.205-0.156c-0.026-0.02-0.794-0.614-0.801-0.62h-0.173L10.3,17.146
								l0.163,0.137l-0.032,0.182l-0.173,0.072l-0.173-0.13l-0.172,0.13l-0.176-0.072l-0.031-0.182l0.164-0.137l-0.244-0.217
								l-0.247,0.217l0.166,0.137l-0.032,0.182L9.34,17.536l-0.173-0.13l-0.174,0.13l-0.174-0.072l-0.031-0.182l0.168-0.137
								l-0.248-0.217l-0.247,0.217l0.166,0.137l-0.034,0.182l-0.171,0.072l-0.173-0.13l-0.175,0.13l-0.17-0.072l-0.032-0.182
								l0.164-0.137l-0.259-0.228H7.605z M6.796,18.491v0.142l0.093-0.075L6.796,18.491z"/>
							<g>
								<path fill="#FFFFFF" d="M8.249,20.082l-0.133,0.117H8.38L8.249,20.082z"/>
								<path fill="#FFFFFF" d="M9.167,20.082l-0.13,0.117h0.261L9.167,20.082z"/>
								<path fill="#FFFFFF" d="M10.085,20.082L9.95,20.199h0.269L10.085,20.082z"/>
								<path fill="#FFFFFF" d="M8.113,16.917l0.136,0.117l0.134-0.117H8.113z"/>
								<path fill="#FFFFFF" d="M9.03,16.917l0.137,0.117l0.137-0.117H9.03z"/>
								<path fill="#FFFFFF" d="M9.95,16.917l0.135,0.117l0.134-0.117H9.95L9.95,16.917z"/>
								<path fill="#FFFFFF" d="M11.534,17.78l-0.092,0.071l0.092,0.067V17.78z"/>
								<path fill="#FFFFFF" d="M11.534,18.491l-0.092,0.067l0.092,0.071V18.491z"/>
								<path fill="#FFFFFF" d="M11.534,19.199l-0.092,0.068l0.092,0.072V19.199z"/>
								<path fill="#FFFFFF" d="M6.796,17.777v0.148l0.093-0.073L6.796,17.777z"/>
								<path fill="#FFFFFF" d="M6.796,18.491v0.142l0.093-0.075L6.796,18.491z"/>
								<path fill="#FFFFFF" d="M6.796,19.196v0.144l0.093-0.072L6.796,19.196z"/>
							</g>
							<g>
								<path fill="#383739" d="M9.952,18.322V18.07H9.675v-0.277H8.659v0.277H8.383v0.252H7.999v0.472h0.384v0.254h0.276v0.277
									h1.016v-0.277h0.277v-0.254h0.381v-0.472H9.952z"/>
								<path fill="#FAAE29" d="M9.149,17.822v0.285l-0.435,0.231v0.21H8.031v-0.195h0.381v-0.252h0.276v-0.278H9.149z"/>
								<path fill="#FAAE29" d="M9.184,19.297V19.01l0.435-0.226v-0.21h0.684v0.194H9.921v0.252H9.646v0.277H9.184z"/>
								<path fill="#FFFFFF" d="M9.618,18.548v-0.21l-0.435-0.231v-0.285h0.462v0.278h0.275v0.252h0.381v0.195H9.618z"/>
								<path fill="#FFFFFF" d="M8.031,18.574h0.684v0.21l0.435,0.226v0.287H8.688V19.02H8.412v-0.252H8.031V18.574z"/>
								<path fill="#CA3745" d="M8.744,18.574v0.192l0.405,0.215v-0.407H8.744z"/>
								<path fill="#28AE66" d="M9.149,18.14l-0.405,0.215v0.194h0.405V18.14z"/>
								<path fill="#CA3745" d="M9.587,18.548v-0.194L9.184,18.14v0.409H9.587z"/>
								<path fill="#28AE66" d="M9.184,18.981l0.403-0.215v-0.192H9.184V18.981z"/>
							</g>
						</g>
						<g id="carp4">
							<path fill="#383739" d="M5.468,23.579v0.781H4.666v0.713H3.849v2.015h0.817v0.708h0.802v0.781h2.925l0.513,0.286
								l-0.246,0.139H7.616l-0.089-0.095h0.943l-0.264-0.249H6.854l0.615,0.593h1.266l0.433-0.244l0.432,0.244h1.268l0.612-0.593
								h-1.353L9.86,28.907h0.947l-0.091,0.095H9.675l-0.247-0.139l0.513-0.286h2.925v-0.781h0.804v-0.708h0.814v-2.015h-0.814
								V24.36h-0.804v-0.781H9.94l-0.513-0.283l0.247-0.137h1.042l0.091,0.093H9.86l0.266,0.247h1.353l-0.612-0.589H9.599
								l-0.432,0.239L8.734,22.91H7.469l-0.615,0.589h1.354l0.264-0.247H7.527l0.089-0.093h1.043l0.246,0.137l-0.513,0.283H5.468z"
								/>
							<path fill="#CA3745" d="M9.933,28.55h2.903v-0.78h0.801v-0.713h0.813v-1.959h-0.813v-0.707h-0.801v-0.781H9.933l-1.205-0.674
								H7.479l-0.552,0.536h1.265l0.207-0.192H7.455l0.146-0.151h1.067l1.367,0.762h2.494v0.781h0.804v0.708h0.817v1.399h-0.817
								v0.708H12.53v0.781h-2.494l-1.367,0.759H7.602l-0.146-0.145h0.944l-0.207-0.192H6.928l0.552,0.532h1.248L9.933,28.55z
								 M8.295,28.268H5.802v-0.781H4.999v-0.708H4.184v-1.399h0.815v-0.708h0.803V23.89h2.493l1.37-0.762h1.064l0.144,0.151H9.936
								l0.208,0.192h1.264l-0.551-0.536h-1.25l-1.204,0.674H5.499v0.781H4.695v0.707H3.878v1.959h0.817v0.713h0.804v0.78h2.903
								l1.204,0.672h1.25l0.551-0.532h-1.264l-0.208,0.192h0.938l-0.144,0.145H9.665L8.295,28.268z"/>
							<path fill="#FAAE29" d="M9.167,23.439l-0.862,0.481H5.831V24.7H5.03v0.708H4.217v1.345H5.03v0.708h0.801v0.781h2.474
								l0.862,0.474l0.859-0.474h2.473v-0.781h0.806v-0.708h0.815v-1.345h-0.815V24.7h-0.806v-0.779h-2.473L9.167,23.439z
								 M9.167,23.636l0.811,0.451h2.344v0.779h0.803v0.706h0.812v1.008h-0.812v0.708h-0.803v0.781H9.978l-0.811,0.451l-0.811-0.451
								H6.015v-0.781H5.209V26.58H4.394v-1.008h0.815v-0.706h0.806v-0.779h2.342L9.167,23.636z"/>
							<path fill="#28AE66" d="M12.289,27.262v0.781H9.968l-0.801,0.448l-0.804-0.448H6.044v-0.781H5.242v-0.711H4.428v-0.947h0.814
								v-0.706h0.802v-0.78H8.36h0.003l0.804-0.449l0.801,0.449h2.321v0.78h0.804v0.706h0.812v0.947h-0.812v0.711H12.289z"/>
							<g>
								<path fill="#383739" d="M6.349,26.988v0.759h1.276l-1.276-0.784V26.988z"/>
								<path fill="#383739" d="M6.349,25.172v-0.758h1.276l-1.276,0.783V25.172z"/>
								<path fill="#383739" d="M11.983,26.988v0.759H10.71l1.273-0.784V26.988z"/>
								<path fill="#383739" d="M11.983,25.172v-0.758H10.71l1.273,0.783V25.172z"/>
								<path fill="#CA3745" d="M6.381,27.015l1.14,0.701h-1.14V27.015z"/>
								<path fill="#CA3745" d="M6.381,25.142c0.043-0.024,1.062-0.651,1.14-0.702h-1.14V25.142z"/>
								<path fill="#CA3745" d="M11.952,27.015c-0.044,0.029-1.062,0.656-1.141,0.701h1.141V27.015z"/>
								<path fill="#CA3745" d="M11.952,25.142c-0.044-0.024-1.062-0.651-1.141-0.702h1.141V25.142z"/>
							</g>
							<g id="carp4y">
								<path fill="#383739" d="M7.977,25.872v-0.386H7.831l-0.682-0.394l-0.007,0.003l-0.674,0.391H6.326v0.386H6.005v0.413h0.321
									v0.39h0.143l0.681,0.392l0.682-0.392h0.146v-0.39h0.487v-0.413H7.977z"/>
								<path fill="#CA3745" d="M7.149,25.123l0.625,0.363H6.527L7.149,25.123L7.149,25.123z M7.774,26.675l-0.625,0.359
									l-0.622-0.359H7.774z"/>
								<path fill="#CA3745" d="M7.625,25.901v0.354h-0.78v-0.354H7.625z"/>
								<g>
									<path fill="#FAAE29" d="M7.943,26.285v0.358H7.166v-0.358H7.943z"/>
									<path fill="#FAAE29" d="M7.133,26.285v0.358H6.356v-0.358H7.133z"/>
									<path fill="#FAAE29" d="M8.432,25.901v0.354H7.654v-0.354H8.432z"/>
									<path fill="#FAAE29" d="M6.814,25.901v0.354H6.036v-0.354H6.814z"/>
									<path fill="#FAAE29" d="M7.943,25.513v0.359H7.166v-0.359H7.943z"/>
									<path fill="#FAAE29" d="M7.133,25.513v0.359H6.356v-0.359H7.133z"/>
								</g>
								<g>
									<path fill="#383739" d="M6.6,25.979v0.197H6.249v-0.197H6.6z"/>
									<path fill="#383739" d="M6.922,25.592v0.202H6.57v-0.202H6.922z"/>
									<path fill="#383739" d="M7.729,25.592v0.202H7.381v-0.202H7.729z"/>
									<path fill="#383739" d="M7.41,25.979v0.197H7.059v-0.197H7.41z"/>
									<path fill="#383739" d="M8.217,25.979v0.197H7.869v-0.197H8.217z"/>
									<path fill="#383739" d="M7.729,26.365v0.2H7.381v-0.2H7.729z"/>
									<path fill="#383739" d="M6.922,26.365v0.2H6.57v-0.2H6.922z"/>
								</g>
								<g>
									<path fill="#FFFFFF" d="M6.566,26.012H6.283v0.137h0.283V26.012z"/>
									<path fill="#FFFFFF" d="M6.889,25.625H6.605v0.137h0.283V25.625z"/>
									<path fill="#FFFFFF" d="M7.696,25.625H7.411v0.137h0.285V25.625z"/>
									<path fill="#FFFFFF" d="M7.377,26.012H7.094v0.137h0.283V26.012z"/>
									<path fill="#FFFFFF" d="M8.185,26.012H7.899v0.137h0.285V26.012z"/>
									<path fill="#FFFFFF" d="M7.696,26.395H7.411v0.142h0.285V26.395z"/>
									<path fill="#FFFFFF" d="M6.889,26.395H6.605v0.142h0.283V26.395z"/>
								</g>
							</g>
							<g transform="matrix(-1,0,0,1,377.99506,0)">
								<g id="carp4y_1_">
									<path fill="#383739" d="M10.358,25.872v-0.386h0.144l0.681-0.394l0.008,0.003l0.674,0.391h0.145v0.386h0.319v0.413h-0.319
										v0.39h-0.145l-0.682,0.392l-0.681-0.392h-0.144v-0.39H9.87v-0.413H10.358z"/>
									<path fill="#CA3745" d="M11.183,25.123l-0.622,0.363h1.247L11.183,25.123L11.183,25.123z M10.561,26.675l0.622,0.359
										l0.625-0.359H10.561z"/>
									<path fill="#CA3745" d="M10.71,25.901v0.354h0.778v-0.354H10.71z"/>
									<g>
										<path fill="#FAAE29" d="M10.39,26.285v0.358h0.776v-0.358H10.39z"/>
										<path fill="#FAAE29" d="M11.198,26.285v0.358h0.778v-0.358H11.198z"/>
										<path fill="#FAAE29" d="M9.901,25.901v0.354h0.776v-0.354H9.901z"/>
										<path fill="#FAAE29" d="M11.521,25.901v0.354h0.778v-0.354H11.521z"/>
										<path fill="#FAAE29" d="M10.39,25.513v0.359h0.776v-0.359H10.39z"/>
										<path fill="#FAAE29" d="M11.198,25.513v0.359h0.778v-0.359H11.198z"/>
									</g>
									<g>
										<path fill="#383739" d="M11.732,25.979v0.197h0.352v-0.197H11.732z"/>
										<path fill="#383739" d="M11.413,25.592v0.202h0.349v-0.202H11.413z"/>
										<path fill="#383739" d="M10.603,25.592v0.202h0.352v-0.202H10.603z"/>
										<path fill="#383739" d="M10.925,25.979v0.197h0.349v-0.197H10.925z"/>
										<path fill="#383739" d="M10.114,25.979v0.197h0.352v-0.197H10.114z"/>
										<path fill="#383739" d="M10.603,26.365v0.2h0.352v-0.2H10.603z"/>
										<path fill="#383739" d="M11.413,26.365v0.2h0.349v-0.2H11.413z"/>
									</g>
									<g>
										<path fill="#FFFFFF" d="M11.767,26.012h0.283v0.137h-0.283V26.012z"/>
										<path fill="#FFFFFF" d="M11.444,25.625h0.285v0.137h-0.285V25.625z"/>
										<path fill="#FFFFFF" d="M10.639,25.625h0.28v0.137h-0.28V25.625z"/>
										<path fill="#FFFFFF" d="M10.956,26.012h0.285v0.137h-0.285V26.012z"/>
										<path fill="#FFFFFF" d="M10.147,26.012h0.283v0.137h-0.283V26.012z"/>
										<path fill="#FFFFFF" d="M10.639,26.395h0.28v0.142h-0.28V26.395z"/>
										<path fill="#FFFFFF" d="M11.444,26.395h0.285v0.142h-0.285V26.395z"/>
									</g>
								</g>
							</g>
							<g id="carp4r">
								<path fill="#383739" d="M9.991,25.229v0.382H9.848l-0.681,0.399l-0.01-0.01l-0.674-0.39h-0.14v-0.382H7.938v-0.419h0.406
									v-0.384h0.14l0.684-0.398l0.681,0.398h0.144v0.384h0.406v0.419H9.991z"/>
								<path fill="#FAAE29" d="M9.167,25.973l0.625-0.361h-1.25L9.167,25.973L9.167,25.973z M9.792,24.427l-0.625-0.361
									l-0.625,0.361H9.792L9.792,24.427z"/>
								<g>
									<path fill="#CA3745" d="M9.96,24.811v-0.354H9.184v0.354H9.96z"/>
									<path fill="#CA3745" d="M9.151,24.811v-0.354H8.373v0.354H9.151z"/>
									<path fill="#CA3745" d="M10.365,25.198V24.84H9.587v0.358H10.365z"/>
									<path fill="#CA3745" d="M9.555,25.198V24.84H8.776v0.358H9.555z"/>
									<path fill="#CA3745" d="M8.747,25.198V24.84H7.968v0.358H8.747z"/>
									<path fill="#CA3745" d="M9.96,25.586v-0.356H9.184v0.356H9.96z"/>
									<path fill="#CA3745" d="M9.151,25.586v-0.356H8.373v0.356H9.151z"/>
								</g>
								<g>
									<path fill="#383739" d="M8.937,24.534v0.197H8.588v-0.197H8.937z"/>
									<path fill="#383739" d="M9.745,24.534v0.197h-0.35v-0.197H9.745z"/>
									<path fill="#383739" d="M8.532,24.92v0.2h-0.35v-0.2H8.532z"/>
									<path fill="#383739" d="M9.343,24.92v0.2H8.991v-0.2H9.343z"/>
									<path fill="#383739" d="M10.15,24.92v0.2H9.802v-0.2H10.15z"/>
									<path fill="#383739" d="M8.937,25.309v0.197H8.588v-0.197H8.937z"/>
									<path fill="#383739" d="M9.745,25.309v0.197h-0.35v-0.197H9.745z"/>
								</g>
								<g>
									<path fill="#FFFFFF" d="M8.903,24.566H8.62v0.137h0.283V24.566z"/>
									<path fill="#FFFFFF" d="M9.714,24.566H9.428v0.137h0.286V24.566z"/>
									<path fill="#FFFFFF" d="M8.5,24.947H8.217v0.144H8.5V24.947z"/>
									<path fill="#FFFFFF" d="M9.308,24.947H9.024v0.144h0.283V24.947z"/>
									<path fill="#FFFFFF" d="M10.118,24.947H9.833v0.144h0.285V24.947z"/>
									<path fill="#FFFFFF" d="M8.903,25.335H8.62v0.137h0.283V25.335z"/>
									<path fill="#FFFFFF" d="M9.714,25.335H9.428v0.137h0.286V25.335z"/>
								</g>
							</g>
							<g>
								<g id="carp4r_1_">
									<path fill="#383739" d="M9.991,27.347v0.386H9.848l-0.681,0.394l-0.01-0.005l-0.674-0.389h-0.14v-0.386H7.938v-0.415h0.406
										v-0.386h0.14l0.684-0.396l0.681,0.396h0.144v0.386h0.406v0.415H9.991z"/>
									<path fill="#FAAE29" d="M9.167,28.092l0.625-0.359h-1.25L9.167,28.092L9.167,28.092z M9.792,26.546l-0.625-0.361
										l-0.625,0.361H9.792L9.792,26.546z"/>
									<g>
										<path fill="#CA3745" d="M9.96,26.932v-0.356H9.184v0.356H9.96z"/>
										<path fill="#CA3745" d="M9.151,26.932v-0.356H8.373v0.356H9.151z"/>
										<path fill="#CA3745" d="M10.365,27.32v-0.361H9.587v0.361H10.365z"/>
										<path fill="#CA3745" d="M9.555,27.32v-0.361H8.776v0.361H9.555z"/>
										<path fill="#CA3745" d="M8.747,27.32v-0.361H7.968v0.361H8.747z"/>
										<path fill="#CA3745" d="M9.96,27.701v-0.354H9.184v0.354H9.96z"/>
										<path fill="#CA3745" d="M9.151,27.701v-0.354H8.373v0.354H9.151z"/>
									</g>
									<g>
										<path fill="#383739" d="M8.937,26.655v0.196H8.588v-0.196H8.937z"/>
										<path fill="#383739" d="M9.745,26.655v0.196h-0.35v-0.196H9.745z"/>
										<path fill="#383739" d="M8.532,27.037v0.202h-0.35v-0.202H8.532z"/>
										<path fill="#383739" d="M9.343,27.037v0.202H8.991v-0.202H9.343z"/>
										<path fill="#383739" d="M10.15,27.037v0.202H9.802v-0.202H10.15z"/>
										<path fill="#383739" d="M8.937,27.425v0.197H8.588v-0.197H8.937z"/>
										<path fill="#383739" d="M9.745,27.425v0.197h-0.35v-0.197H9.745z"/>
									</g>
									<g>
										<path fill="#FFFFFF" d="M8.903,26.683H8.62v0.139h0.283V26.683z"/>
										<path fill="#FFFFFF" d="M9.714,26.683H9.428v0.139h0.286V26.683z"/>
										<path fill="#FFFFFF" d="M8.5,27.07H8.217v0.137H8.5V27.07z"/>
										<path fill="#FFFFFF" d="M9.308,27.07H9.024v0.137h0.283V27.07z"/>
										<path fill="#FFFFFF" d="M10.118,27.07H9.833v0.137h0.285V27.07z"/>
										<path fill="#FFFFFF" d="M8.903,27.457H8.62v0.137h0.283V27.457z"/>
										<path fill="#FFFFFF" d="M9.714,27.457H9.428v0.137h0.286V27.457z"/>
									</g>
								</g>
							</g>
						</g>
						<g id="carp5">
							<path fill="#383739" d="M4.75,31.956l3.031-1.509h0.001h2.771l3.027,1.509v2.485l-3.027,1.51H7.781l-3.031-1.51V31.956z"/>
							<path fill="#28AE66" d="M7.787,30.475l-3.004,1.499v2.449l3.004,1.498h2.759l3.006-1.498v-2.449l-3.006-1.499H7.787z
								 M7.843,30.679h2.649l2.845,1.414v2.213l-2.845,1.416H7.841l-2.847-1.416v-2.213L7.843,30.679z"/>
							<path fill="#FAAE29" d="M9.184,33.185v2.507h1.302l2.822-1.401v-1.078H9.149v-2.509h-1.3l-2.822,1.405v1.076H9.184z"/>
							<path fill="#FFFFFF" d="M9.149,33.185v2.507h-1.3L5.027,34.29v-1.078h4.153v-2.509h1.305l2.822,1.405v1.076H9.149z"/>
							<path fill="#383739" d="M9.421,35.551v-0.724l-0.254,0.149l-0.254-0.149v0.724H8.126l0.53-0.359v-0.516L7.846,34.2H7.279
								v-2.004h0.566l0.811-0.477v-0.514l-0.53-0.363h0.046h0.741v0.725l0.254-0.146l0.254,0.146v-0.725h0.788l-0.534,0.363v0.514
								l0.811,0.477h0.566V34.2h-0.566l-0.811,0.476v0.516l0.534,0.359H9.421z"/>
							<path fill="#FAAE29" d="M9.45,30.875v0.747l-0.27-0.157v0.211l1.24,0.729h0.406v0.779h0.195v-0.962h-0.545l-0.832-0.486
								v-0.544l0.469-0.317H9.45z M7.312,33.212v0.962h0.543l0.833,0.49v0.545L8.22,35.525h0.664v-0.747l0.266,0.157v-0.221
								l-1.238-0.722H7.508v-0.781H7.312L7.312,33.212z"/>
							<path fill="#FFFFFF" d="M8.22,30.875l0.469,0.317v0.544l-0.833,0.486H7.312v0.962h0.195v-0.779h0.403l1.238-0.725v-0.216
								l-0.266,0.157v-0.747H8.22L8.22,30.875z M10.827,33.212v0.781h-0.406l-1.24,0.722v0.221l0.27-0.157v0.747h0.664l-0.469-0.316
								v-0.545l0.832-0.49h0.545v-0.962H10.827L10.827,33.212z"/>
							<path fill="#CA3745" d="M7.537,33.963h0.382l1.248,0.729l1.247-0.729h0.384v-1.527h-0.381h-0.003l-1.247-0.733l-1.248,0.733
								H7.537V33.963z"/>
							<path fill="#383739" d="M10.028,33.561h0.269v-0.117h-0.202v-0.208h0.427v0.537h-0.407v0.369H9.269v-0.529H9.64v0.212H9.496
								v0.104h0.391v-0.202l-1.582-0.892H8.036v0.117h0.203v0.211H7.811v-0.542H8.22v-0.369h0.017h0.827v0.535H8.692v-0.213h0.145
								v-0.109H8.448v0.205L10.028,33.561z M9.887,32.67v-0.205H9.496v0.109H9.64v0.213H9.269v-0.535h0.846v0.369h0.407v0.542
								h-0.427v-0.211h0.202v-0.117h-0.269l-1.58,0.892v0.202h0.389v-0.104H8.692v-0.212h0.371v0.529H8.22v-0.369H7.811v-0.537
								h0.429v0.208H8.036v0.117h0.269L9.887,32.67z"/>
							<path fill="#FFFFFF" d="M9.916,33.712v0.247H9.467v-0.166h0.142v-0.154H9.301v0.477h0.781v-0.369h0.41v-0.483h-0.366v0.154
								h0.2v0.173h-0.306l-1.604-0.901v-0.251h0.451v0.163H8.725v0.154h0.308v-0.472H8.251v0.369h-0.41v0.485h0.366v-0.155H8.006
								v-0.174h0.309L9.916,33.712z M10.021,32.809h0.306v0.174h-0.2v0.155h0.366v-0.485h-0.41v-0.369H9.301v0.472h0.308v-0.154
								H9.467v-0.163h0.449v0.251L8.314,33.59H8.006v-0.173h0.201v-0.154H7.841v0.483h0.41v0.369h0.781v-0.477H8.725v0.154h0.144
								v0.166H8.417v-0.247L10.021,32.809z"/>
							<g>
								<path fill="#383739" d="M12.699,33.323v0.784h-0.361v-0.276h-0.361v0.276h-0.361v-0.784h0.361V33.6h0.361v-0.276H12.699z"/>
								<path fill="#383739" d="M11.41,34.368v0.784h-0.361v-0.281h-0.364v0.281h-0.361v-0.784h0.361v0.274h0.364v-0.274H11.41z"/>
								<path fill="#383739" d="M12.699,33.072v-0.784h-0.361v0.276h-0.361v-0.276h-0.361v0.784h0.361v-0.276h0.361v0.276H12.699z"
									/>
								<path fill="#383739" d="M5.634,33.323v0.784h0.361v-0.276h0.363v0.276h0.359v-0.784H6.358V33.6H5.995v-0.276H5.634z"/>
								<path fill="#383739" d="M5.634,33.072v-0.784h0.361v0.276h0.363v-0.276h0.359v0.784H6.358v-0.276H5.995v0.276H5.634z"/>
								<path fill="#383739" d="M11.41,32.032v-0.784h-0.361v0.278h-0.364v-0.278h-0.361v0.784h0.361v-0.278h0.364v0.278H11.41z"/>
								<path fill="#383739" d="M6.923,34.368v0.784h0.361v-0.281H7.65v0.281h0.358v-0.784H7.65v0.274H7.284v-0.274H6.923z"/>
								<path fill="#383739" d="M6.923,32.032v-0.784h0.361v0.278H7.65v-0.278h0.358v0.784H7.65v-0.278H7.284v0.278H6.923z"/>
								<path fill="#383739" d="M11.625,31.482v0.594h1.194L11.625,31.482z"/>
								<path fill="#383739" d="M6.71,34.916v-0.597H5.516L6.71,34.916z"/>
								<path fill="#383739" d="M6.71,31.482v0.594H5.516L6.71,31.482z"/>
								<path fill="#383739" d="M11.625,34.916v-0.597h1.194L11.625,34.916z"/>
							</g>
							<g>
								<path fill="#CA3745" d="M12.37,33.805v0.275h0.297v-0.727H12.37v0.277h-0.428v-0.277h-0.298v0.727h0.298v-0.275H12.37z"/>
								<path fill="#CA3745" d="M11.078,34.843v0.277h0.298v-0.727h-0.298v0.277h-0.425v-0.277h-0.298v0.727h0.298v-0.277H11.078z"
									/>
								<path fill="#CA3745" d="M12.37,32.594v-0.275h0.297v0.725H12.37V32.77h-0.428v0.273h-0.298v-0.725h0.298v0.275H12.37z"/>
								<path fill="#CA3745" d="M5.965,33.805v0.275h-0.3v-0.727h0.3v0.277h0.426v-0.277h0.297v0.727H6.391v-0.275H5.965z"/>
								<path fill="#CA3745" d="M5.965,32.594v-0.275h-0.3v0.725h0.3V32.77h0.426v0.273h0.297v-0.725H6.391v0.275H5.965z"/>
								<path fill="#CA3745" d="M11.078,31.556v-0.281h0.298v0.73h-0.298v-0.28h-0.425v0.28h-0.298v-0.73h0.298v0.281H11.078z"/>
								<path fill="#CA3745" d="M7.254,34.843v0.277h-0.3v-0.727h0.3v0.277H7.68v-0.277h0.298v0.727H7.68v-0.277H7.254z"/>
								<path fill="#CA3745" d="M7.254,31.556v-0.281h-0.3v0.73h0.3v-0.28H7.68v0.28h0.298v-0.73H7.68v0.281H7.254z"/>
							</g>
							<path fill="#FAAE29" d="M11.657,31.529v0.521h1.042L11.657,31.529z M5.639,34.35l1.04,0.517V34.35H5.639L5.639,34.35z"/>
							<path fill="#FFFFFF" d="M6.679,31.529l-1.04,0.521h1.04V31.529z M11.657,34.35v0.517l1.042-0.517H11.657z"/>
						</g>
					</g>
				</g>
			</g>
		</g>
	</g>
</g>
</svg>
