<?xml version="1.0" encoding="utf-8"?>
<!-- Generator: Adobe Illustrator 20.1.0, SVG Export Plug-In . SVG Version: 6.00 Build 0)  -->
<svg version="1.1" id="Layer_1" xmlns="http://www.w3.org/2000/svg" xmlns:xlink="http://www.w3.org/1999/xlink" x="0px" y="0px"
	 viewBox="0 0 40 40" style="enable-background:new 0 0 40 40;" xml:space="preserve">
<style type="text/css">
	.st0{fill:#FFFFFF;}
	.st1{fill:#CE1126;}
	.st2{fill:none;}
	.st3{fill:#D0D0D5;}
</style>
<path class="st0" d="M1.9,11.6l27.3,26.2c0.8-0.4,1.5-0.8,2.2-1.3L3.1,9.4C2.6,10.1,2.2,10.8,1.9,11.6z"/>
<path class="st1" d="M0,20c0,11,9,20,20,20c3.3,0,6.4-0.8,9.2-2.2L1.9,11.6C0.7,14.1,0,17,0,20z"/>
<path class="st1" d="M40,20C40,9,31,0,20,0c-3.3,0-6.4,0.8-9.2,2.2l27.3,26.2C39.3,25.9,40,23,40,20z"/>
<path d="M3.1,9.4l28.2,27.1c2.2-1.5,4.1-3.5,5.6-5.8L8.6,3.5C6.4,5.1,4.5,7.1,3.1,9.4z"/>
<path class="st0" d="M36.9,30.7c0.4-0.7,0.9-1.5,1.2-2.2L10.8,2.2c-0.8,0.4-1.5,0.8-2.2,1.3L36.9,30.7z"/>
<path class="st0" d="M36.9,30.7c0.4-0.7,0.9-1.5,1.2-2.2L10.8,2.2c-0.8,0.4-1.5,0.8-2.2,1.3L36.9,30.7z"/>
<g>
	<path class="st2" d="M3.9,10.1l26.7,25.6c2.2-1.5,4.1-3.5,5.6-5.8L9.4,4.3C7.2,5.8,5.3,7.8,3.9,10.1z"/>
	<path class="st2" d="M20,1c-3,0-5.8,0.7-8.4,2l25.7,24.7c1-2.4,1.6-4.9,1.6-7.7C39,9.5,30.5,1,20,1z"/>
	<path class="st2" d="M1,20c0,10.5,8.5,19,19,19c3,0,5.8-0.7,8.4-2L2.7,12.3C1.6,14.7,1,17.3,1,20z"/>
	<path class="st0" d="M3.1,9.4c-0.4,0.7-0.9,1.5-1.2,2.2l0,0C2.3,10.8,2.7,10.1,3.1,9.4L3.1,9.4z"/>
	<path class="st0" d="M2.7,12.3L28.4,37c0.8-0.4,1.5-0.8,2.2-1.3L3.9,10.1C3.4,10.8,3,11.6,2.7,12.3z"/>
	<path class="st0" d="M29.2,37.8c0.8-0.4,1.5-0.8,2.2-1.3l0,0C30.6,36.9,29.9,37.3,29.2,37.8L29.2,37.8z"/>
	<path class="st3" d="M3.9,10.1L3.1,9.4c-0.4,0.7-0.9,1.5-1.2,2.2l0.8,0.7C3,11.6,3.4,10.8,3.9,10.1z"/>
	<path class="st3" d="M28.4,37l0.8,0.7c0.8-0.4,1.5-0.8,2.2-1.3l-0.7-0.7C29.9,36.2,29.1,36.6,28.4,37z"/>
	<path class="st0" d="M10.8,2.2c-0.8,0.4-1.5,0.8-2.2,1.3l0,0C9.4,3.1,10.1,2.7,10.8,2.2L10.8,2.2z"/>
	<path class="st0" d="M36.9,30.6L36.9,30.6c0.5-0.7,0.9-1.4,1.2-2.2l0,0C37.7,29.2,37.3,29.9,36.9,30.6z"/>
	<path class="st3" d="M11.6,3l-0.8-0.7c-0.8,0.4-1.5,0.8-2.2,1.3l0.7,0.7C10.1,3.8,10.9,3.4,11.6,3z"/>
	<path class="st3" d="M37.3,27.7c-0.3,0.8-0.7,1.5-1.2,2.2l0.7,0.7c0.4-0.7,0.9-1.4,1.2-2.2L37.3,27.7z"/>
</g>
</svg>
