<?xml version="1.0" encoding="utf-8"?>
<!-- Generator: Adobe Illustrator 16.0.0, SVG Export Plug-In . SVG Version: 6.00 Build 0)  -->
<!DOCTYPE svg PUBLIC "-//W3C//DTD SVG 1.0//EN" "http://www.w3.org/TR/2001/REC-SVG-20010904/DTD/svg10.dtd">
<svg version="1.0" id="Layer_1" xmlns="http://www.w3.org/2000/svg" xmlns:xlink="http://www.w3.org/1999/xlink" x="0px" y="0px"
	 width="40px" height="40px" viewBox="0 0 40 40" enable-background="new 0 0 40 40" xml:space="preserve">
<g>
	<g>
		<path fill="#1EB53A" d="M20,0C8.955,0,0,8.952,0,20c0,1.154,0.12,2.281,0.308,3.383L30.7,3.124C27.604,1.156,23.94,0,20,0z"/>
		<path fill="#00A3DD" d="M20,40c11.045,0,20-8.953,20-20c0-1.156-0.12-2.28-0.31-3.385L9.299,36.875C12.396,38.843,16.058,40,20,40
			z"/>
		<path fill="#FCD116" d="M9.299,36.875l30.392-20.26c-0.152-0.897-0.347-1.779-0.615-2.635L7.117,35.285
			C7.805,35.866,8.535,36.392,9.299,36.875z"/>
		<path fill="#FCD116" d="M30.7,3.124L0.308,23.383c0.153,0.898,0.349,1.781,0.617,2.635L32.881,4.712
			C32.194,4.132,31.462,3.607,30.7,3.124z"/>
		<path d="M36.638,8.906c-1.049-1.569-2.314-2.98-3.757-4.194L0.925,26.018c0.572,1.817,1.399,3.521,2.438,5.076
			c1.049,1.567,2.314,2.979,3.755,4.191l31.958-21.306C38.503,12.163,37.676,10.459,36.638,8.906z"/>
	</g>
</g>
</svg>
