<?xml version="1.0" encoding="utf-8"?>
<!-- Generator: Adobe Illustrator 16.0.0, SVG Export Plug-In . SVG Version: 6.00 Build 0)  -->
<!DOCTYPE svg PUBLIC "-//W3C//DTD SVG 1.1//EN" "http://www.w3.org/Graphics/SVG/1.1/DTD/svg11.dtd">
<svg version="1.1" id="Layer_1" xmlns="http://www.w3.org/2000/svg" xmlns:xlink="http://www.w3.org/1999/xlink" x="0px" y="0px"
	 width="40px" height="40px" viewBox="0 0 40 40" enable-background="new 0 0 40 40" xml:space="preserve">
<g>
	<g>
		<g>
			<path fill="#FFFFFF" d="M0.541,24.615h38.918c0.236-0.999,0.397-2.027,0.476-3.076H0.065C0.146,22.588,0.306,23.616,0.541,24.615
				z"/>
			<path fill="#FFFFFF" d="M3.151,30.77h33.697c0.625-0.973,1.167-2,1.618-3.078H1.536C1.986,28.77,2.528,29.797,3.151,30.77z"/>
			<path fill="#FFFFFF" d="M9.348,36.922h21.307c1.381-0.869,2.646-1.906,3.77-3.076H5.577C6.701,35.016,7.968,36.053,9.348,36.922z
				"/>
			<path fill="#FFFFFF" d="M30.656,3.079H9.345c-1.38,0.868-2.646,1.905-3.769,3.076h28.848C33.301,4.984,32.037,3.947,30.656,3.079
				z"/>
			<g>
				<path fill="#BF0A30" d="M1.536,27.691h36.931c0.411-0.987,0.742-2.015,0.992-3.076H0.541
					C0.794,25.677,1.124,26.704,1.536,27.691z"/>
				<path fill="#BF0A30" d="M5.577,33.846h28.847c0.905-0.942,1.718-1.973,2.425-3.076H3.151C3.86,31.873,4.672,32.903,5.577,33.846
					z"/>
				<path fill="#BF0A30" d="M20,40c3.918,0,7.568-1.131,10.654-3.078H9.348C12.433,38.869,16.084,40,20,40z"/>
				<path fill="#BF0A30" d="M0.541,15.386h38.918c-0.25-1.062-0.581-2.09-0.992-3.077H1.534C1.122,13.296,0.793,14.324,0.541,15.386
					z"/>
				<path fill="#BF0A30" d="M0,20c0,0.518,0.026,1.028,0.065,1.539h39.869C39.974,21.028,40,20.518,40,20s-0.026-1.03-0.065-1.537
					H0.065C0.026,18.97,0,19.482,0,20z"/>
				<path fill="#BF0A30" d="M5.576,6.155C4.67,7.097,3.859,8.126,3.151,9.231h33.699c-0.708-1.105-1.52-2.135-2.427-3.076H5.576z"/>
				<path fill="#BF0A30" d="M20,0c-3.917,0-7.569,1.132-10.655,3.079h21.312C27.57,1.132,23.918,0,20,0z"/>
			</g>
			<path fill="#FFFFFF" d="M0.065,18.463h39.869c-0.078-1.053-0.239-2.079-0.476-3.077H0.541C0.306,16.384,0.146,17.41,0.065,18.463
				z"/>
			<path fill="#FFFFFF" d="M1.534,12.309h36.933c-0.449-1.078-0.993-2.105-1.616-3.077H3.151C2.528,10.203,1.985,11.23,1.534,12.309
				z"/>
		</g>
		<g>
			<path fill="#002868" d="M19.987,0C8.947,0.007,0,8.958,0,19.998c0,0.527,0.026,1.047,0.067,1.562h19.92V0z"/>
			<g>
				<path fill="#FFFFFF" d="M1.22,13.105c-0.026,0.073-0.049,0.149-0.076,0.224h0.003L1.22,13.105z"/>
				<path fill="#FFFFFF" d="M1,13.75c-0.067,0.214-0.135,0.429-0.198,0.646l0.207-0.64L1,13.75z"/>
				<polygon fill="#FFFFFF" points="1.967,20.406 1.376,19.977 0.783,20.406 1.009,19.712 0.419,19.283 1.146,19.283 1.376,18.59 
					1.6,19.283 2.331,19.283 1.74,19.712 				"/>
				<polygon fill="#FFFFFF" points="4.646,17.406 4.053,16.975 3.462,17.406 3.688,16.71 3.095,16.28 3.827,16.28 4.053,15.588 
					4.278,16.28 5.01,16.28 4.418,16.71 				"/>
				<polygon fill="#FFFFFF" points="4.472,10.612 4.698,11.308 4.107,10.875 3.515,11.308 3.741,10.612 3.15,10.183 3.883,10.183 
					4.107,9.49 4.333,10.183 5.063,10.183 				"/>
				<polygon fill="#FFFFFF" points="7.433,20.406 6.844,19.977 6.249,20.406 6.477,19.712 5.886,19.283 6.615,19.283 6.844,18.59 
					7.069,19.283 7.801,19.283 7.206,19.712 				"/>
				<polygon fill="#FFFFFF" points="7.473,13.564 7.206,13.756 7.433,14.453 6.844,14.021 6.249,14.453 6.477,13.756 6.212,13.564 
					5.886,13.329 6.615,13.329 6.844,12.632 7.069,13.329 7.801,13.329 				"/>
				<polygon fill="#FFFFFF" points="7.206,7.517 7.433,8.209 6.844,7.782 6.249,8.209 6.477,7.517 5.886,7.085 6.615,7.085 
					6.844,6.392 7.069,7.085 7.801,7.085 				"/>
				<polygon fill="#FFFFFF" points="10.113,17.625 9.521,17.193 8.931,17.625 9.156,16.927 8.566,16.5 9.296,16.5 9.521,15.802 
					9.746,16.5 10.479,16.5 9.887,16.927 				"/>
				<polygon fill="#FFFFFF" points="9.943,10.83 10.169,11.523 9.576,11.094 8.985,11.523 9.212,10.83 8.62,10.4 9.35,10.4 
					9.576,9.706 9.801,10.4 10.532,10.4 				"/>
				<polygon fill="#FFFFFF" points="9.998,4.66 10.223,5.354 9.633,4.927 9.04,5.354 9.265,4.66 8.676,4.23 9.403,4.23 9.633,3.535 
					9.855,4.23 10.587,4.23 				"/>
				<polygon fill="#FFFFFF" points="12.9,20.406 12.312,19.977 11.72,20.406 11.945,19.712 11.354,19.283 12.085,19.283 
					12.312,18.59 12.535,19.283 13.266,19.283 12.676,19.712 				"/>
				<polygon fill="#FFFFFF" points="12.94,13.564 12.676,13.756 12.9,14.453 12.312,14.021 11.72,14.453 11.945,13.756 
					11.681,13.564 11.354,13.329 12.085,13.329 12.312,12.632 12.535,13.329 13.266,13.329 				"/>
				<polygon fill="#FFFFFF" points="12.676,7.517 12.9,8.209 12.312,7.782 11.72,8.209 11.945,7.517 11.354,7.085 12.085,7.085 
					12.312,6.392 12.535,7.085 13.266,7.085 				"/>
				<polygon fill="#FFFFFF" points="15.583,17.625 14.989,17.193 14.4,17.625 14.626,16.927 14.032,16.5 14.765,16.5 14.989,15.802 
					15.217,16.5 15.947,16.5 15.355,16.927 				"/>
				<polygon fill="#FFFFFF" points="15.41,10.83 15.637,11.523 15.045,11.094 14.453,11.523 14.679,10.83 14.088,10.4 14.82,10.4 
					15.045,9.706 15.271,10.4 16,10.4 				"/>
				<polygon fill="#FFFFFF" points="15.466,4.66 15.691,5.354 15.102,4.927 14.508,5.354 14.734,4.66 14.145,4.23 14.872,4.23 
					15.102,3.535 15.324,4.23 16.055,4.23 				"/>
				<polygon fill="#FFFFFF" points="18.373,20.406 17.781,19.977 17.188,20.406 17.415,19.712 16.823,19.283 17.553,19.283 
					17.781,18.59 18.004,19.283 18.734,19.283 18.145,19.712 				"/>
				<polygon fill="#FFFFFF" points="18.41,13.564 18.145,13.756 18.373,14.453 17.781,14.021 17.188,14.453 17.415,13.756 
					17.15,13.564 16.823,13.329 17.553,13.329 17.781,12.632 18.004,13.329 18.734,13.329 				"/>
				<polygon fill="#FFFFFF" points="18.145,7.517 18.373,8.209 17.781,7.782 17.188,8.209 17.415,7.517 16.823,7.085 17.553,7.085 
					17.781,6.392 18.004,7.085 18.734,7.085 				"/>
				<polygon fill="#FFFFFF" points="18.145,1.416 18.373,2.109 17.781,1.681 17.188,2.109 17.415,1.416 16.823,0.985 17.553,0.985 
					17.781,0.292 18.004,0.985 18.734,0.985 				"/>
				<path fill="#FFFFFF" d="M12.312,1.681L12.9,2.11l-0.225-0.694l0.082-0.059c-0.311,0.12-0.616,0.248-0.919,0.384L11.72,2.11
					L12.312,1.681z"/>
				<polygon fill="#FFFFFF" points="12.312,6.392 12.085,7.085 11.354,7.085 11.945,7.517 11.72,8.209 12.312,7.782 12.9,8.209 
					12.676,7.517 13.266,7.085 12.535,7.085 				"/>
				<polygon fill="#FFFFFF" points="12.312,12.632 12.085,13.329 11.354,13.329 11.681,13.564 11.945,13.756 11.72,14.453 
					12.312,14.021 12.9,14.453 12.676,13.756 12.94,13.564 13.266,13.329 12.535,13.329 				"/>
				<polygon fill="#FFFFFF" points="12.535,19.283 12.312,18.59 12.085,19.283 11.354,19.283 11.945,19.712 11.72,20.406 
					12.312,19.977 12.9,20.406 12.676,19.712 13.266,19.283 				"/>
				<polygon fill="#FFFFFF" points="6.844,6.392 6.615,7.085 5.886,7.085 6.477,7.517 6.249,8.209 6.844,7.782 7.433,8.209 
					7.206,7.517 7.801,7.085 7.069,7.085 				"/>
				<polygon fill="#FFFFFF" points="6.844,12.632 6.615,13.329 5.886,13.329 6.212,13.564 6.477,13.756 6.249,14.453 6.844,14.021 
					7.433,14.453 7.206,13.756 7.473,13.564 7.801,13.329 7.069,13.329 				"/>
				<polygon fill="#FFFFFF" points="7.069,19.283 6.844,18.59 6.615,19.283 5.886,19.283 6.477,19.712 6.249,20.406 6.844,19.977 
					7.433,20.406 7.206,19.712 7.801,19.283 				"/>
				<path fill="#FFFFFF" d="M0.783,14.453l0.003-0.003c0.006-0.017,0.011-0.035,0.016-0.055L0.783,14.453z"/>
				<path fill="#FFFFFF" d="M1.376,12.632L1.22,13.105c0.053-0.146,0.114-0.288,0.171-0.43L1.376,12.632z"/>
				<path fill="#FFFFFF" d="M1.967,14.453L1.74,13.756l0.264-0.191l0.327-0.235H1.6l-0.209-0.653
					c-0.057,0.142-0.118,0.284-0.171,0.43l-0.073,0.224H1.144C1.094,13.47,1.048,13.608,1,13.75l0.009,0.006l-0.207,0.64
					c-0.005,0.02-0.01,0.038-0.016,0.055l0.59-0.429L1.967,14.453z"/>
				<polygon fill="#FFFFFF" points="1.6,19.283 1.376,18.59 1.146,19.283 0.419,19.283 1.009,19.712 0.783,20.406 1.376,19.977 
					1.967,20.406 1.74,19.712 2.331,19.283 				"/>
				<polygon fill="#FFFFFF" points="15.045,9.706 14.82,10.4 14.088,10.4 14.679,10.83 14.453,11.523 15.045,11.094 15.637,11.523 
					15.41,10.83 16,10.4 15.271,10.4 				"/>
				<polygon fill="#FFFFFF" points="15.217,16.5 14.989,15.802 14.765,16.5 14.032,16.5 14.626,16.927 14.4,17.625 14.989,17.193 
					15.583,17.625 15.355,16.927 15.947,16.5 				"/>
				<polygon fill="#FFFFFF" points="9.576,9.706 9.35,10.4 8.62,10.4 9.212,10.83 8.985,11.523 9.576,11.094 10.169,11.523 
					9.943,10.83 10.532,10.4 9.801,10.4 				"/>
				<polygon fill="#FFFFFF" points="9.746,16.5 9.521,15.802 9.296,16.5 8.566,16.5 9.156,16.927 8.931,17.625 9.521,17.193 
					10.113,17.625 9.887,16.927 10.479,16.5 				"/>
				<polygon fill="#FFFFFF" points="4.107,9.49 3.883,10.183 3.15,10.183 3.741,10.612 3.515,11.308 4.107,10.875 4.698,11.308 
					4.472,10.612 5.063,10.183 4.333,10.183 				"/>
				<polygon fill="#FFFFFF" points="4.278,16.28 4.053,15.588 3.827,16.28 3.095,16.28 3.688,16.71 3.462,17.406 4.053,16.975 
					4.646,17.406 4.418,16.71 5.01,16.28 				"/>
				<polygon fill="#FFFFFF" points="17.781,6.392 17.553,7.085 16.823,7.085 17.415,7.517 17.188,8.209 17.781,7.782 18.373,8.209 
					18.145,7.517 18.734,7.085 18.004,7.085 				"/>
				<polygon fill="#FFFFFF" points="9.633,3.535 9.403,4.23 8.676,4.23 9.265,4.66 9.04,5.354 9.633,4.927 10.223,5.354 9.998,4.66 
					10.587,4.23 9.855,4.23 				"/>
				<polygon fill="#FFFFFF" points="15.102,3.535 14.872,4.23 14.145,4.23 14.734,4.66 14.508,5.354 15.102,4.927 15.691,5.354 
					15.466,4.66 16.055,4.23 15.324,4.23 				"/>
				<polygon fill="#FFFFFF" points="17.781,0.292 17.553,0.985 16.823,0.985 17.415,1.416 17.188,2.109 17.781,1.681 18.373,2.109 
					18.145,1.416 18.734,0.985 18.004,0.985 				"/>
				<polygon fill="#FFFFFF" points="17.781,12.632 17.553,13.329 16.823,13.329 17.15,13.564 17.415,13.756 17.188,14.453 
					17.781,14.021 18.373,14.453 18.145,13.756 18.41,13.564 18.734,13.329 18.004,13.329 				"/>
				<polygon fill="#FFFFFF" points="18.004,19.283 17.781,18.59 17.553,19.283 16.823,19.283 17.415,19.712 17.188,20.406 
					17.781,19.977 18.373,20.406 18.145,19.712 18.734,19.283 				"/>
			</g>
		</g>
	</g>
</g>
</svg>
