<?xml version="1.0" encoding="utf-8"?>
<!-- Generator: Adobe Illustrator 16.0.0, SVG Export Plug-In . SVG Version: 6.00 Build 0)  -->
<!DOCTYPE svg PUBLIC "-//W3C//DTD SVG 1.0//EN" "http://www.w3.org/TR/2001/REC-SVG-20010904/DTD/svg10.dtd">
<svg version="1.0" id="Layer_1" xmlns="http://www.w3.org/2000/svg" xmlns:xlink="http://www.w3.org/1999/xlink" x="0px" y="0px"
	 width="40px" height="40px" viewBox="0 0 40 40" enable-background="new 0 0 40 40" xml:space="preserve">
<g>
	<circle fill="#FFFFFF" cx="20" cy="20" r="20"/>
	<g>
		<g>
			<g>
				<path fill="#0038A8" d="M1.175,26.665h37.676c0.502-1.418,0.861-2.9,1.032-4.445H0.144C0.314,23.765,0.674,25.247,1.175,26.665z
					"/>
				<path fill="#0038A8" d="M7.454,35.554h25.117c1.569-1.269,2.943-2.764,4.069-4.443H3.386C4.51,32.79,5.886,34.285,7.454,35.554z
					"/>
			</g>
			<g>
				<g>
					<path fill="#0038A8" d="M20,8.887h16.641c-1.126-1.68-2.502-3.177-4.07-4.445H20V8.887z"/>
				</g>
				<g>
					<g transform="scale(-1)">
						<g id="_x3C_Group_x3E__20_" transform="rotate(22.5)">
							<path fill="#FCD116" stroke="#000000" stroke-width="0.1" stroke-miterlimit="20" d="M13.669,4.602
								c1.89-2.643,0.01-3.202,1.583-4.371c-0.753,1.654,1.326,1.299,0.344,4.29l-0.45,1.497L13.669,4.602z"/>
							<g>
								<path d="M14.843,5.525c1.121-1.937-0.559-4.247,0.393-5.311l0,0l0.032,0.032c-0.932,1.004,0.739,3.33-0.388,5.302l0,0
									L14.88,5.55L14.843,5.525L14.843,5.525z"/>
							</g>
						</g>
					</g>
					<g transform="scale(-1)">
						<g id="_x3C_Group_x3E__13_" transform="rotate(22.5)">
							<path fill="#FCD116" stroke="#000000" stroke-width="0.1" stroke-miterlimit="20" d="M16.058,4.437
								c3.204-0.543,2.261-2.265,4.204-1.986c-1.701,0.641,0.027,1.854-2.778,3.286l-1.372,0.75L16.058,4.437z"/>
							<g>
								<path d="M16.251,5.964L16.24,5.922c0.117-0.033,0.232-0.071,0.34-0.116l0,0c1.698-0.699,2.236-2.843,3.324-3.299l0,0
									c0.111-0.046,0.229-0.074,0.359-0.078l0,0L20.261,2.47c-0.122,0.005-0.234,0.034-0.341,0.078l0,0
									c-1.058,0.431-1.604,2.583-3.324,3.299l0,0C16.486,5.893,16.372,5.935,16.251,5.964L16.251,5.964z M16.251,5.964
									L16.251,5.964L16.251,5.964l0.001,0.003L16.251,5.964L16.251,5.964z"/>
							</g>
						</g>
					</g>
					<g transform="scale(-1)">
						<g id="_x3C_Group_x3E__12_" transform="rotate(22.5)">
							<path fill="#FCD116" stroke="#000000" stroke-width="0.1" stroke-miterlimit="20" d="M17.881,6.03
								c2.66,1.869,3.201-0.015,4.384,1.549c-1.66-0.741-1.287,1.335-4.286,0.377l-1.502-0.436L17.881,6.03z"/>
							<g>
								<path d="M16.942,7.251l0.023-0.036c1.946,1.103,4.24-0.595,5.315,0.347l0,0l-0.031,0.032
									C21.235,6.672,18.92,8.362,16.942,7.251L16.942,7.251z"/>
							</g>
						</g>
					</g>
					<g transform="scale(-1)">
						<g id="_x3C_Group_x3E__11_" transform="rotate(22.5)">
							<path fill="#FCD116" stroke="#000000" stroke-width="0.1" stroke-miterlimit="20" d="M18.035,8.406
								c0.571,3.197,2.283,2.239,2.022,4.183c-0.657-1.696-1.856,0.042-3.311-2.751L15.99,8.473L18.035,8.406z"/>
							<g>
								<path d="M20.035,12.591c-0.008-0.12-0.038-0.226-0.082-0.333l0,0c-0.432-1.061-2.61-1.591-3.333-3.325l0,0
									c-0.043-0.105-0.08-0.21-0.11-0.322l0,0l0.001,0.002l0.041-0.011c0.028,0.107,0.066,0.213,0.108,0.315l0,0
									c0.71,1.713,2.876,2.232,3.336,3.324l0,0c0.045,0.108,0.074,0.225,0.084,0.348l0,0L20.035,12.591L20.035,12.591z"/>
							</g>
						</g>
					</g>
					<g transform="scale(-1)">
						<g id="_x3C_Group_x3E__7_" transform="rotate(22.5)">
							<path fill="#FCD116" stroke="#000000" stroke-width="0.1" stroke-miterlimit="20" d="M16.483,10.18
								c-1.847,2.673,0.043,3.198-1.513,4.392c0.728-1.662-1.344-1.272-0.411-4.282l0.422-1.503L16.483,10.18z"/>
							<g>
								<path d="M14.956,14.557c0.912-1.019-0.798-3.318,0.298-5.307l0,0l0.001,0.002l0.037,0.022
									c-1.089,1.955,0.628,4.237-0.304,5.314l0,0L14.956,14.557L14.956,14.557z"/>
							</g>
						</g>
					</g>
					<g transform="scale(-1)">
						<g id="_x3C_Group_x3E__6_" transform="rotate(22.5)">
							<path fill="#FCD116" stroke="#000000" stroke-width="0.1" stroke-miterlimit="20" d="M14.093,10.381
								c-3.192,0.6-2.22,2.303-4.166,2.059c1.689-0.671-0.059-1.855,2.724-3.334l1.358-0.772L14.093,10.381z"/>
							<g>
								<path d="M9.928,12.465l-0.004-0.049c0.11-0.007,0.219-0.033,0.322-0.075l0,0c1.067-0.439,1.576-2.651,3.327-3.377l0,0
									c0.097-0.04,0.198-0.077,0.301-0.107l0,0l0.001,0.001l0.012,0.041c-0.101,0.029-0.2,0.065-0.297,0.105l0,0
									c-1.73,0.711-2.226,2.915-3.327,3.378l0,0C10.155,12.426,10.045,12.453,9.928,12.465L9.928,12.465z"/>
							</g>
						</g>
					</g>
					<g transform="scale(-1)">
						<g id="_x3C_Group_x3E__5_" transform="rotate(22.5)">
							<path fill="#FCD116" stroke="#000000" stroke-width="0.1" stroke-miterlimit="20" d="M12.246,8.819
								C9.557,6.997,9.047,8.891,7.838,7.345c1.672,0.712,1.263-1.356,4.28-0.45l1.507,0.41L12.246,8.819z"/>
							<g>
								<path d="M7.822,7.362l0.026-0.034c1.034,0.904,3.315-0.826,5.315,0.252l0,0l0.001,0l-0.021,0.041
									C11.176,6.549,8.91,8.285,7.822,7.362L7.822,7.362z"/>
							</g>
						</g>
					</g>
					<g transform="scale(-1)">
						<g id="_x3C_Group_x3E__4_" transform="rotate(22.5)">
							<path fill="#FCD116" stroke="#000000" stroke-width="0.1" stroke-miterlimit="20" d="M12.104,6.477
								c-0.622-3.184-2.32-2.199-2.091-4.148c0.686,1.682,1.853-0.075,3.354,2.693l0.782,1.353L12.104,6.477z"/>
							<g>
								<path d="M13.583,6.259c-0.028-0.093-0.059-0.182-0.096-0.27l0,0c-0.722-1.748-2.955-2.227-3.421-3.334l0,0
									C10.023,2.552,9.996,2.443,9.992,2.33l0,0l0.041-0.003c0.006,0.109,0.034,0.215,0.073,0.31l0,0
									c0.44,1.076,2.685,1.564,3.42,3.335l0,0c0.037,0.089,0.07,0.179,0.098,0.273l0,0l0.001,0.003L13.583,6.259L13.583,6.259z"/>
							</g>
						</g>
					</g>
					<polygon fill="#FCD116" stroke="#000000" stroke-width="0.1" stroke-miterlimit="20" points="11.953,10.5 16.015,7.697 
						13.198,11.75 18.066,12.648 13.198,13.509 16.018,17.585 11.953,14.753 11.076,19.614 10.192,14.743 6.131,17.547 
						8.948,13.495 4.079,12.598 8.948,11.732 6.128,7.66 10.192,10.493 11.072,5.627 					"/>
					<g>
						<polygon points="11.043,5.658 11.087,5.658 11.096,19.569 11.052,19.57 11.043,5.658 						"/>
					</g>
					<g>
						<polygon points="6.113,7.673 6.142,7.642 16.035,17.569 16.004,17.6 6.113,7.673 						"/>
					</g>
					<g>
						<polygon points="4.079,12.617 4.079,12.573 18.066,12.629 18.064,12.671 4.079,12.617 						"/>
					</g>
					<g>
						<polygon points="6.115,17.531 15.969,7.715 16.003,7.743 6.145,17.566 6.115,17.531 						"/>
					</g>
					<g>
						<path fill="#FCD116" d="M13.359,12.691c0,1.265-1.025,2.29-2.292,2.29c-1.268,0-2.293-1.025-2.293-2.29
							c0-1.268,1.025-2.295,2.293-2.295C12.334,10.396,13.359,11.423,13.359,12.691z"/>
						<path d="M8.753,12.691c0-1.283,1.034-2.316,2.314-2.316l0,0c1.278,0,2.314,1.033,2.314,2.316l0,0
							c0,1.277-1.036,2.312-2.314,2.312l0,0C9.787,15.002,8.753,13.968,8.753,12.691L8.753,12.691z M8.794,12.691
							c0.005,1.252,1.018,2.264,2.273,2.266l0,0c1.254-0.002,2.27-1.014,2.271-2.266l0,0c-0.001-1.258-1.017-2.272-2.271-2.274l0,0
							C9.811,10.419,8.799,11.432,8.794,12.691L8.794,12.691z"/>
					</g>
					<g>
						<g>
							<path d="M9.382,11.699c-0.112,0.125-0.056,0.094,0.093,0.029c0.145-0.059,0.557-0.179,0.708-0.143
								c0.24,0.076,0.564,0.267,0.606,0.234c0.054-0.046-0.303-0.355-0.477-0.379c-0.202-0.033-0.354-0.042-0.516,0.016
								C9.635,11.519,9.472,11.607,9.382,11.699z"/>
							<path d="M9.902,13.557c-0.056,0.089-0.163,0.332,0.029,0.02C10.122,13.262,9.954,13.472,9.902,13.557z"/>
							<path d="M9.832,11.846c-0.142,0.21-0.12,0.277,0.012,0.382C9.728,12.035,9.832,11.846,9.832,11.846z"/>
							<path d="M10.393,12.056c0,0.104-0.117,0.215-0.221,0.215c-0.103,0-0.282-0.059-0.282-0.161c0-0.107,0.116-0.269,0.37-0.264
								C10.364,11.846,10.393,11.952,10.393,12.056z"/>
							<path d="M9.513,11.999c-0.19-0.026,0.435-0.216,0.643-0.215c0.21,0.01,0.383,0.026,0.486,0.14
								c0.104,0.117-0.239-0.029-0.361-0.02C10.163,11.914,9.601,12.007,9.513,11.999z"/>
							<path d="M9.587,12.072c0,0,0.205,0.151,0.428,0.184c0.223,0.031,0.501-0.146,0.545-0.055c0.043,0.094-0.225,0.143-0.43,0.137
								C9.928,12.334,9.587,12.072,9.587,12.072z"/>
							<path d="M12.751,11.699c-0.088-0.093-0.254-0.181-0.414-0.243c-0.161-0.059-0.315-0.049-0.518-0.016
								c-0.172,0.024-0.527,0.333-0.474,0.379c0.039,0.032,0.363-0.158,0.604-0.234c0.151-0.036,0.562,0.084,0.709,0.143
								C12.805,11.794,12.864,11.825,12.751,11.699z"/>
							<path d="M11.067,13.207c-0.145,0-0.218-0.1-0.381-0.1c-0.164,0-0.389,0.059-0.491,0.142c-0.02,0.02,0.105-0.13,0.256-0.2
								c0.135-0.063,0.135-0.352,0.255-0.311c0,0.081-0.062,0.062-0.081,0.184c0,0.103,0.117,0.127,0.225,0
								c-0.022,0.179,0.218,0.165,0.218,0.165s0.238,0.015,0.215-0.165c0.107,0.127,0.227,0.103,0.227,0
								c-0.02-0.122-0.083-0.103-0.083-0.184c0.12-0.041,0.12,0.247,0.256,0.311c0.149,0.07,0.276,0.22,0.255,0.2
								c-0.101-0.083-0.325-0.142-0.489-0.142C11.282,13.107,11.208,13.207,11.067,13.207z"/>
							<path d="M12.243,13.557c-0.053-0.085-0.222-0.295-0.031,0.02C12.402,13.889,12.295,13.646,12.243,13.557z"/>
							<path d="M12.311,11.846c0.142,0.21,0.12,0.277-0.012,0.382C12.415,12.035,12.311,11.846,12.311,11.846z"/>
							<path d="M11.74,12.056c0,0.104,0.115,0.215,0.22,0.215c0.104,0,0.281-0.059,0.281-0.161c0-0.107-0.114-0.269-0.371-0.264
								C11.767,11.846,11.74,11.952,11.74,12.056z"/>
							<path d="M12.62,11.999c0.189-0.026-0.436-0.216-0.645-0.215c-0.21,0.01-0.381,0.026-0.484,0.14
								c-0.106,0.117,0.237-0.029,0.357-0.02C11.97,11.914,12.529,12.007,12.62,11.999z"/>
							<path d="M12.546,12.072c0,0-0.205,0.151-0.427,0.184c-0.225,0.031-0.501-0.146-0.545-0.055
								c-0.043,0.094,0.223,0.143,0.428,0.137C12.205,12.334,12.546,12.072,12.546,12.072z"/>
							<path d="M11.388,13.468c-0.165,0-0.2,0.064-0.321,0.064c-0.123,0-0.159-0.064-0.322-0.064c-0.14,0-0.416,0.135-0.777,0.138
								c0.675,0.288,0.589,0.354,1.1,0.354c0.51,0,0.425-0.065,1.098-0.354C11.802,13.604,11.528,13.468,11.388,13.468z
								 M11.061,13.799c-0.302,0-0.463-0.046-0.642-0.096c0.11-0.007,0.276-0.033,0.642-0.033c0.361,0,0.527,0.026,0.641,0.033
								C11.523,13.753,11.36,13.799,11.061,13.799z"/>
						</g>
						<ellipse cx="11.066" cy="14.197" rx="0.146" ry="0.034"/>
					</g>
				</g>
			</g>
		</g>
	</g>
	<g>
		<path fill="#0038A8" d="M20,17.776h19.883c-0.171-1.543-0.53-3.026-1.032-4.444H20V17.776z"/>
	</g>
</g>
<g>
	<path fill="#D0D0D5" d="M1.162,26.665c0.559,1.58,1.294,3.076,2.21,4.445h1.247c-0.984-1.358-1.788-2.851-2.389-4.445H1.162z"/>
	<path fill="#D0D0D5" d="M39,20c0,0.752-0.056,1.49-0.141,2.22h1.011C39.951,21.49,40,20.751,40,20c0-0.753-0.05-1.493-0.131-2.225
		h-1.011C38.944,18.507,39,19.246,39,20z"/>
	<path fill="#D0D0D5" d="M37.769,26.665c-0.601,1.595-1.404,3.087-2.389,4.445h1.247c0.916-1.369,1.651-2.865,2.21-4.445H37.769z"/>
	<path fill="#D0D0D5" d="M36.626,8.887h-1.248c0.985,1.358,1.79,2.85,2.391,4.445h1.068C38.277,11.752,37.543,10.256,36.626,8.887z"
		/>
	<path fill="#D0D0D5" d="M30.879,35.554C27.794,37.719,24.047,39,20,39s-7.794-1.281-10.879-3.446H7.439
		C10.874,38.33,15.24,40,20,40s9.126-1.67,12.561-4.446H30.879z"/>
	<path fill="#D0D0D5" d="M1.14,22.22C1.055,21.49,1,20.752,1,20C1,9.524,9.523,1,20,1c4.044,0,7.789,1.28,10.873,3.442h1.682
		C29.121,1.668,24.758,0,20,0C8.954,0,0,8.954,0,20c0,0.751,0.049,1.49,0.13,2.22H1.14z"/>
</g>
</svg>
