<?xml version="1.0" encoding="utf-8"?>
<!-- Generator: Adobe Illustrator 16.0.0, SVG Export Plug-In . SVG Version: 6.00 Build 0)  -->
<!DOCTYPE svg PUBLIC "-//W3C//DTD SVG 1.0//EN" "http://www.w3.org/TR/2001/REC-SVG-20010904/DTD/svg10.dtd">
<svg version="1.0" id="Layer_1" xmlns="http://www.w3.org/2000/svg" xmlns:xlink="http://www.w3.org/1999/xlink" x="0px" y="0px"
	 width="40px" height="40px" viewBox="0 0 40 40" enable-background="new 0 0 40 40" xml:space="preserve">
<circle fill="#ECECEE" cx="20" cy="20" r="19.5"/>
<path fill="#D60006" d="M20,1c10.477,0,19,8.523,19,19s-8.523,19-19,19S1,30.477,1,20S9.523,1,20,1 M20,0C8.954,0,0,8.954,0,20
	s8.954,20,20,20s20-8.954,20-20S31.046,0,20,0L20,0z"/>
<g>
	<path fill="#D60006" d="M17.968,23.828c0-0.709-0.206-1.285-0.619-1.729s-1.139-0.837-2.179-1.176
		c-1.182-0.362-2.078-0.831-2.687-1.404c-0.609-0.573-0.914-1.341-0.914-2.303c0-0.992,0.34-1.803,1.021-2.433
		c0.68-0.629,1.558-0.944,2.633-0.944c1.128,0,2.036,0.371,2.722,1.114s1.02,1.648,1.002,2.718l-0.027,0.054h-1.007
		c0-0.861-0.239-1.567-0.717-2.117c-0.479-0.549-1.136-0.824-1.974-0.824c-0.814,0-1.447,0.229-1.898,0.686
		c-0.452,0.458-0.677,1.031-0.677,1.72c0,0.642,0.218,1.181,0.655,1.617c0.437,0.437,1.177,0.818,2.223,1.145
		c1.152,0.356,2.027,0.84,2.625,1.448c0.597,0.609,0.896,1.409,0.896,2.401c0,1.04-0.352,1.864-1.056,2.473
		c-0.704,0.609-1.608,0.914-2.713,0.914c-1.087,0-2.033-0.327-2.838-0.98c-0.805-0.653-1.192-1.601-1.163-2.843l0.018-0.054h0.998
		c0,1.017,0.292,1.765,0.878,2.246c0.585,0.481,1.288,0.722,2.107,0.722c0.808,0,1.458-0.224,1.952-0.671
		C17.722,25.161,17.968,24.567,17.968,23.828z"/>
	<path fill="#D60006" d="M27.021,23.4h-4.73L21.186,27h-1.105l4.107-12.975h0.973L29.223,27h-1.105L27.021,23.4z M22.594,22.42
		h4.135l-2.033-6.675h-0.053L22.594,22.42z"/>
</g>
<path fill="#A2A2AC" d="M18,10V3h1.952c0.66,0,1.175,0.156,1.546,0.471c0.37,0.314,0.556,0.785,0.556,1.413
	c0,0.334-0.084,0.628-0.253,0.883s-0.401,0.441-0.7,0.56c0.379,0.084,0.67,0.281,0.873,0.594c0.203,0.313,0.306,0.68,0.306,1.099
	c0,0.645-0.183,1.136-0.546,1.474S20.867,10,20.227,10H18z M18.977,6.033h1.072c0.32,0,0.571-0.098,0.754-0.292
	c0.184-0.194,0.274-0.476,0.274-0.842c0-0.387-0.095-0.677-0.286-0.87c-0.19-0.192-0.471-0.289-0.839-0.289h-0.976V6.033z
	 M18.977,6.735V9.26h1.25c0.346,0,0.612-0.106,0.8-0.32c0.188-0.213,0.281-0.519,0.281-0.916c0-0.395-0.08-0.707-0.24-0.939
	s-0.407-0.349-0.74-0.349H18.977z"/>
<rect x="23" y="9" fill="#A2A2AC" width="1" height="1"/>
</svg>
