<?xml version="1.0" encoding="utf-8"?>
<!-- Generator: Adobe Illustrator 16.0.0, SVG Export Plug-In . SVG Version: 6.00 Build 0)  -->
<!DOCTYPE svg PUBLIC "-//W3C//DTD SVG 1.0//EN" "http://www.w3.org/TR/2001/REC-SVG-20010904/DTD/svg10.dtd">
<svg version="1.0" id="Layer_1" xmlns="http://www.w3.org/2000/svg" xmlns:xlink="http://www.w3.org/1999/xlink" x="0px" y="0px"
	 width="40px" height="40px" viewBox="0 0 40 40" enable-background="new 0 0 40 40" xml:space="preserve">
<g>
	<g>
		<path fill="#FFFFFF" d="M39.6,15.998c-0.188-0.913-0.439-1.804-0.742-2.667H24.011L8.98,3.311
			c-0.783,0.518-1.529,1.09-2.229,1.713L23.21,15.998H39.6z"/>
		<path fill="#FFFFFF" d="M38.857,26.669c0.303-0.862,0.555-1.753,0.742-2.667H23.21L6.752,34.978
			c0.699,0.62,1.445,1.192,2.229,1.712l15.03-10.021H38.857z"/>
		<path fill="#EF3825" d="M38.857,13.331C36.109,5.565,28.706,0,20,0c-4.072,0-7.861,1.221-11.02,3.311l15.03,10.021H38.857z"/>
		<path fill="#0657A3" d="M38.857,26.669H24.011L8.98,36.689C12.139,38.779,15.928,40,20,40C28.706,40,36.109,34.434,38.857,26.669z
			"/>
		<path fill="#008B60" d="M39.6,24.002c0.261-1.293,0.4-2.631,0.4-4c0-1.374-0.14-2.711-0.4-4.004H23.21L6.752,5.023
			c-2.011,1.777-3.659,3.952-4.824,6.405l12.855,8.573L1.928,28.572c1.165,2.453,2.813,4.628,4.824,6.405L23.21,24.002H39.6z"/>
		<path fill="#FCBB30" d="M1.928,11.428c-0.388,0.817-0.723,1.665-1,2.538l9.052,6.036l-9.052,6.035
			c0.277,0.874,0.612,1.717,1,2.536l12.855-8.571L1.928,11.428z"/>
		<path fill="#010101" d="M0.928,13.966C0.329,15.872,0,17.898,0,20.001c0,2.102,0.329,4.129,0.928,6.035l9.052-6.035L0.928,13.966z
			"/>
	</g>
</g>
</svg>
