<?xml version="1.0" encoding="utf-8"?>
<!-- Generator: Adobe Illustrator 16.0.0, SVG Export Plug-In . SVG Version: 6.00 Build 0)  -->
<!DOCTYPE svg PUBLIC "-//W3C//DTD SVG 1.0//EN" "http://www.w3.org/TR/2001/REC-SVG-20010904/DTD/svg10.dtd">
<svg version="1.0" id="Layer_1" xmlns="http://www.w3.org/2000/svg" xmlns:xlink="http://www.w3.org/1999/xlink" x="0px" y="0px"
	 width="40px" height="40px" viewBox="0 0 40 40" enable-background="new 0 0 40 40" xml:space="preserve">
<g>
	<g>
		<g>
			<path fill="#198A00" d="M25.811,12.904v0.002h7.097h5.774C35.817,5.369,28.545,0.001,20,0.001c-11.047,0-20,8.952-20,19.998
				c0,10.613,8.273,19.274,18.72,19.938V12.904H25.811z"/>
			<path fill="#EF7D00" d="M32.907,12.906v22.359C37.239,31.598,40,26.124,40,19.999c0-2.5-0.479-4.884-1.318-7.093H32.907z"/>
			<path d="M25.811,39.137c2.64-0.801,5.042-2.134,7.097-3.871V12.906h-7.097V39.137z"/>
			<path fill="#DE2010" d="M25.811,39.137v-26.23v-0.002H18.72v27.033c0.424,0.025,0.849,0.062,1.28,0.062
				C22.021,39.999,23.972,39.693,25.811,39.137z"/>
		</g>
		<g>
			<path fill="#291908" d="M34.611,7.041c-0.087,0.032-0.158,0.084-0.236,0.128c-0.153,0.096-0.306,0.192-0.466,0.275
				c0.085-0.07,0.163-0.145,0.234-0.229c0.093-0.11,0.18-0.234,0.205-0.376c0.007-0.044,0.015-0.099-0.021-0.13
				c-0.07-0.023-0.137,0.015-0.2,0.041c-0.287,0.146-0.547,0.329-0.825,0.487c0.154-0.13,0.304-0.269,0.415-0.438
				c0.024-0.044,0.066-0.109,0.025-0.16c-0.03-0.024-0.059,0.015-0.083,0.028c-0.135,0.083-0.269,0.148-0.408,0.213
				c-0.444,0.211-0.892,0.41-1.338,0.604c0.065-0.078,0.14-0.164,0.144-0.27c0-0.072-0.093-0.104-0.142-0.065
				c-0.048,0.031-0.097,0.057-0.148,0.081c-0.181,0.082-0.373,0.142-0.566,0.197c-0.317,0.088-0.64,0.163-0.965,0.226
				c-0.243,0.078-0.483,0.169-0.731,0.241c-0.084,0.024-0.169,0.054-0.26,0.054c-0.297-0.015-0.59-0.031-0.886-0.011
				c-0.198,0.01-0.397,0.028-0.583,0.099c-0.044-0.115-0.094-0.247-0.052-0.373c0.032-0.103,0.14-0.165,0.247-0.166
				c0.068,0.001,0.137-0.006,0.199-0.038c0.049,0.042,0.02,0.104,0.029,0.16c0.035,0.015,0.066-0.015,0.094-0.031
				c0.068-0.054,0.127-0.134,0.121-0.225c-0.01-0.07-0.061-0.125-0.121-0.158c-0.113-0.063-0.249-0.083-0.379-0.099
				c-0.145-0.143-0.35-0.199-0.549-0.195c-0.228-0.003-0.457,0.098-0.618,0.264c-0.192,0.195-0.295,0.46-0.347,0.721
				c-0.43-0.132-0.881-0.189-1.323-0.262c-0.501-0.146-0.965-0.391-1.429-0.625c-0.082-0.038-0.163-0.082-0.251-0.109
				c-0.036-0.008-0.095-0.013-0.11,0.034c-0.009,0.047,0.024,0.089,0.049,0.127c0.094,0.138,0.221,0.259,0.332,0.384
				C23.242,7.208,22.803,7,22.356,6.806c-0.188-0.073-0.357-0.188-0.532-0.293c-0.04-0.023-0.083-0.052-0.132-0.051
				c-0.035,0.007-0.042,0.052-0.047,0.086c-0.003,0.111,0.057,0.211,0.11,0.303c0.122,0.184,0.273,0.347,0.435,0.498
				c-0.107-0.047-0.21-0.101-0.315-0.153c-0.068-0.036-0.137-0.073-0.202-0.119c-0.169-0.093-0.278-0.265-0.433-0.381
				c-0.029-0.016-0.07-0.044-0.101-0.015c-0.023,0.031-0.017,0.075-0.014,0.112c0.033,0.233,0.155,0.444,0.316,0.61
				c-0.088-0.075-0.176-0.143-0.264-0.215c-0.046-0.032-0.088-0.075-0.144-0.086c-0.032-0.008-0.068,0.02-0.065,0.052
				c0,0.062,0.033,0.117,0.059,0.171c0.075,0.135,0.17,0.254,0.29,0.349c-0.091-0.056-0.179-0.117-0.257-0.19
				c-0.031-0.023-0.065-0.063-0.111-0.044c-0.035,0.027-0.021,0.075-0.013,0.114c0.029,0.107,0.104,0.204,0.184,0.285
				c0.17,0.179,0.393,0.301,0.617,0.405c0.2,0.088,0.407,0.158,0.618,0.213c-0.06,0.016-0.128,0.016-0.184,0.044
				c-0.026,0.031-0.002,0.072,0.018,0.101c0.053,0.057,0.121,0.088,0.192,0.11c0.195,0.065,0.405,0.062,0.61,0.062
				c-0.144,0.054-0.3,0.039-0.441,0.091C22.5,8.896,22.547,8.953,22.58,8.976c0.152,0.112,0.342,0.148,0.525,0.166
				c0.173,0.016,0.349-0.016,0.52-0.052c-0.049,0.02-0.1,0.041-0.15,0.052c-0.084,0.015-0.167,0.016-0.249,0.039
				c-0.006,0.008-0.013,0.024-0.018,0.033c0.012,0.042,0.047,0.076,0.086,0.098c0.098,0.063,0.215,0.093,0.332,0.107
				c0.287,0.031,0.57-0.023,0.842-0.093c-0.148,0.066-0.311,0.096-0.461,0.159c0.004,0.02,0.002,0.042,0.019,0.059
				c0.057,0.067,0.14,0.111,0.223,0.139c0.124,0.047,0.257,0.042,0.386,0.026c0.047-0.006,0.1-0.01,0.142-0.034l0.002-0.003
				c0,0,0.005,0.005,0.008,0.007l-0.003,0.005c-0.039,0.021-0.082,0.045-0.102,0.084c-0.006,0.049,0.054,0.063,0.09,0.08
				c0.159,0.044,0.324,0.01,0.481-0.024c-0.032,0.028-0.094,0.044-0.096,0.095c0.02,0.047,0.076,0.066,0.127,0.073
				c0.124,0.011,0.252-0.018,0.374-0.051c0.039-0.008,0.075-0.024,0.111-0.047c-0.036,0.029-0.072,0.06-0.088,0.103
				c-0.004,0.045,0.016,0.094,0.059,0.11c0.052,0.023,0.112,0.015,0.166,0.012c0.172-0.021,0.33-0.08,0.493-0.132
				c-0.054,0.044-0.132,0.094-0.129,0.172c0.047,0.093,0.142,0.154,0.242,0.187c0.181,0.052,0.38,0.041,0.562-0.015
				c-0.013,0.057-0.032,0.111-0.029,0.169c0.046,0.02,0.075-0.026,0.102-0.059c-0.072,0.203-0.082,0.423-0.136,0.633
				c-0.011,0.029,0.012,0.052,0.038,0.062c0.094-0.033,0.154-0.114,0.203-0.197c-0.012,0.104-0.052,0.213-0.024,0.315
				c0.02,0.005,0.039,0.012,0.059,0.017c-0.026,0.096-0.083,0.192-0.181,0.229c-0.068,0.034-0.148,0.018-0.223,0.034
				c-0.078,0.015-0.155,0.054-0.21,0.114c-0.051,0.06-0.078,0.137-0.093,0.21c-0.023,0.072-0.021,0.151-0.002,0.225
				c0.012,0.001,0.032,0.006,0.044,0.006c0.032-0.039,0.056-0.086,0.086-0.13c0.103,0.015,0.21-0.007,0.303-0.052
				c-0.029,0.07-0.03,0.15,0.007,0.216c-0.002,0.08,0.012,0.178,0.086,0.225c0.036,0.017,0.088,0.051,0.119,0.012
				c0.002-0.046-0.037-0.085-0.034-0.132c0.07-0.02,0.142-0.056,0.183-0.117c0.01-0.012,0.016-0.031,0.034-0.041
				c0.027,0.065,0.069,0.117,0.118,0.165c0.019,0.07,0.061,0.142,0.132,0.161c0.038,0.013,0.109,0.034,0.106-0.026
				c-0.036-0.047-0.077-0.101-0.068-0.168c0.039-0.055,0.084-0.107,0.101-0.176c0.022,0.026,0.049,0.052,0.075,0.073
				c0.02,0.017,0.055,0.01,0.059-0.016c-0.007-0.049-0.02-0.094-0.023-0.145c0.065,0.008,0.127-0.013,0.176-0.049
				c-0.003,0.061-0.005,0.127,0.033,0.181c0.029,0.033,0.016,0.082,0.022,0.124c0.007,0.063,0.052,0.12,0.12,0.135
				c0.028,0.005,0.07,0.02,0.095-0.011c0.01-0.034-0.026-0.055-0.036-0.083c-0.01-0.026-0.02-0.057-0.003-0.082
				c0.039-0.024,0.078-0.05,0.101-0.089c0.062-0.099,0.053-0.221,0.043-0.332c0.005-0.006,0.013-0.02,0.02-0.024
				c0.021,0.063,0.035,0.137,0.088,0.182c0.045,0.039,0.103,0.042,0.156,0.042c0,0.042-0.023,0.075-0.039,0.109
				c-0.019,0.021,0.003,0.054,0.029,0.051c0.081,0.001,0.169-0.041,0.198-0.122c0.036-0.096,0.059-0.205,0.02-0.301
				c-0.026-0.068-0.088-0.112-0.153-0.146c0.023-0.006,0.046-0.024,0.07-0.011c0.059,0.02,0.112,0.054,0.149,0.105
				c0.019,0.028,0.063,0.013,0.07-0.018c0.007-0.078-0.032-0.16-0.091-0.212c-0.082-0.071-0.202-0.031-0.297-0.073
				c-0.003-0.037-0.005-0.076-0.006-0.11c0.103,0.052,0.216,0.115,0.338,0.101c-0.001-0.021,0.004-0.039-0.006-0.054
				c-0.095-0.172-0.229-0.329-0.277-0.521c0.104,0.057,0.178,0.169,0.298,0.176c0.031,0,0.09-0.007,0.08-0.051
				c-0.012-0.054-0.075-0.07-0.117-0.098c-0.068-0.036-0.114-0.101-0.149-0.167c0.12,0.099,0.26,0.192,0.42,0.19
				c0.052,0.008,0.068-0.047,0.073-0.086c0.156,0.1,0.343,0.194,0.537,0.135c0.055-0.006,0.083-0.073,0.069-0.127
				c-0.013-0.05-0.064-0.077-0.104-0.107c-0.093-0.057-0.189-0.119-0.269-0.194c0.176,0.1,0.359,0.188,0.558,0.236
				c0.109,0.026,0.231,0.041,0.336-0.005c0.045-0.02,0.049-0.083,0.022-0.124c-0.052-0.091-0.14-0.149-0.217-0.215
				c0.019,0.002,0.034,0.005,0.051,0.012c0.156,0.022,0.325-0.013,0.456-0.106c0.037-0.026,0.011-0.071-0.02-0.094
				c0.105-0.005,0.213-0.02,0.306-0.059c0.029-0.015,0.071-0.034,0.063-0.073c-0.012-0.047-0.061-0.067-0.093-0.083
				c0.273-0.018,0.54-0.104,0.784-0.236c0.063-0.036,0.124-0.082,0.189-0.116c0.021-0.011,0.022-0.038,0.027-0.055
				c0.298-0.049,0.591-0.116,0.874-0.215c0.324-0.117,0.635-0.273,0.892-0.498c0.127-0.114,0.244-0.239,0.316-0.394
				c0.011-0.029,0.035-0.073,0.006-0.104c-0.029-0.017-0.064,0-0.094,0.01c0.149-0.124,0.288-0.261,0.403-0.414
				c0.032-0.041,0.066-0.084,0.086-0.135c0.012-0.039-0.021-0.086-0.066-0.078c-0.095,0.007-0.183,0.057-0.271,0.091
				c0.146-0.116,0.274-0.249,0.386-0.402c0.045-0.075,0.099-0.155,0.117-0.244C34.686,7.06,34.648,7.022,34.611,7.041z
				 M28.225,11.423c-0.083,0.003-0.17-0.005-0.253,0.015c-0.035,0.006-0.071,0.024-0.108,0.033c-0.054-0.02-0.106-0.047-0.151-0.08
				c-0.02-0.01-0.017-0.036-0.02-0.055c-0.009-0.094,0-0.19,0.003-0.285c0.036,0.042,0.071,0.083,0.117,0.11
				c0.02,0.012,0.037,0.003,0.052,0c-0.001-0.071-0.003-0.143-0.013-0.211c-0.008-0.055-0.036-0.109-0.029-0.165
				c0.027-0.229,0.029-0.462,0.036-0.693c0.11,0.221,0.234,0.446,0.283,0.693c0.029,0.146,0.013,0.298-0.012,0.444
				c0.041,0.024,0.086,0.007,0.115-0.024c0.007,0.051,0.01,0.103,0.014,0.158C28.262,11.386,28.245,11.412,28.225,11.423z"/>
			<path fill="#EF7D00" d="M21.704,6.523c0.034,0.005,0.062,0.02,0.093,0.036c0.14,0.089,0.283,0.182,0.432,0.255
				c0.501,0.215,0.994,0.446,1.466,0.716c0.107,0.062,0.222,0.114,0.332,0.167c-0.11,0.067-0.24,0.109-0.371,0.112
				c-0.024,0-0.062,0-0.055,0.034c0.016,0.078,0.091,0.132,0.166,0.144c0.113,0.02,0.23,0,0.342-0.029
				c-0.104,0.098-0.215,0.193-0.349,0.241c-0.026,0.041,0.032,0.062,0.063,0.073c0.168,0.047,0.345,0.038,0.515,0.013
				c-0.083,0.083-0.163,0.179-0.266,0.242c-0.026,0.015,0.002,0.056,0.026,0.062c0.066,0.021,0.137,0.016,0.205,0.016
				c0.071-0.003,0.145-0.006,0.215-0.029c-0.062,0.054-0.146,0.09-0.212,0.139c0,0.01,0,0.027,0.003,0.036
				c0.062,0.026,0.132,0.024,0.199,0.024c0.195-0.008,0.384-0.063,0.566-0.125c-0.127,0.09-0.258,0.179-0.4,0.241
				c-0.023,0.013-0.049,0.016-0.056,0.044c0.002,0.016,0.013,0.024,0.029,0.029c0.122,0.039,0.244,0.084,0.371,0.076
				c0.229-0.01,0.449-0.096,0.661-0.182c-0.141,0.104-0.283,0.199-0.432,0.292c-0.021,0.016-0.044,0.032-0.029,0.062
				c0.024,0.042,0.076,0.051,0.117,0.07c-0.19,0.184-0.437,0.329-0.703,0.371c-0.193,0.029-0.408,0.005-0.555-0.137
				c0.167-0.056,0.34-0.095,0.501-0.179c0.046-0.026,0.091-0.05,0.112-0.098C24.704,9.2,24.661,9.2,24.637,9.211
				c-0.22,0.072-0.44,0.129-0.669,0.15c-0.186,0.018-0.374,0.013-0.553-0.052c-0.048-0.018-0.097-0.042-0.136-0.084
				c0.1-0.015,0.2-0.01,0.292-0.052c0.2-0.076,0.406-0.142,0.605-0.221c0.02-0.008,0.057-0.016,0.052-0.045
				c-0.007-0.034-0.046-0.023-0.066-0.018c-0.283,0.084-0.573,0.169-0.866,0.2c-0.149,0.01-0.305-0.01-0.449-0.052
				c-0.088-0.026-0.181-0.06-0.249-0.125c0.078-0.02,0.161-0.028,0.241-0.039c0.071-0.008,0.137-0.034,0.205-0.054
				c0.186-0.057,0.371-0.119,0.558-0.184c0.026-0.013,0.07-0.02,0.07-0.06c-0.015-0.036-0.059-0.017-0.086-0.012
				c-0.161,0.041-0.316,0.095-0.471,0.137c-0.076,0.017-0.156,0.015-0.234,0.018c-0.144-0.001-0.286-0.006-0.425-0.039
				c-0.09-0.024-0.183-0.059-0.237-0.135c0.115-0.029,0.237-0.031,0.356-0.045c0.151-0.023,0.299-0.057,0.447-0.091
				c0.029-0.003,0.037-0.031,0.029-0.055c-0.029-0.015-0.061-0.003-0.086,0.003c-0.131,0.027-0.258,0.063-0.388,0.084
				c-0.042,0.011-0.085-0.005-0.124-0.013c-0.289-0.075-0.576-0.169-0.843-0.304c-0.179-0.094-0.35-0.205-0.485-0.358
				c-0.064-0.077-0.123-0.163-0.143-0.262c0.107,0.08,0.201,0.174,0.328,0.231c0.259,0.109,0.522,0.215,0.781,0.319
				c0.197,0.081,0.39,0.164,0.59,0.234c0.025,0.008,0.05-0.015,0.042-0.041c-0.032-0.024-0.075-0.036-0.11-0.052
				C22.451,8.129,22.29,8.066,22.129,8c-0.222-0.094-0.442-0.198-0.661-0.303c-0.142-0.063-0.244-0.179-0.332-0.301
				c-0.045-0.073-0.091-0.148-0.11-0.236c0.062,0.028,0.114,0.072,0.166,0.112c0.168,0.135,0.332,0.285,0.539,0.36
				c0.479,0.199,0.962,0.4,1.443,0.596c0.022,0.006,0.049,0.026,0.075,0.01c0.03-0.039-0.029-0.067-0.059-0.082
				c-0.41-0.177-0.837-0.322-1.25-0.501c-0.092-0.046-0.188-0.088-0.273-0.145c-0.219-0.145-0.386-0.361-0.459-0.612
				c-0.017-0.056-0.024-0.112-0.028-0.166C21.338,6.832,21.44,7,21.597,7.099c0.061,0.034,0.112,0.078,0.171,0.105
				c0.186,0.1,0.376,0.188,0.566,0.277c0.293,0.135,0.588,0.269,0.882,0.404c0.028,0.015,0.059,0.032,0.092,0.036
				c0.03,0.005,0.034-0.047,0.011-0.055c-0.02-0.012-0.039-0.021-0.057-0.031c-0.269-0.13-0.54-0.257-0.811-0.389
				c-0.068-0.036-0.144-0.065-0.198-0.119c-0.16-0.14-0.303-0.296-0.424-0.474C21.765,6.755,21.692,6.645,21.704,6.523L21.704,6.523
				z"/>
			<path fill="#EF7D00" d="M33.099,7.032c0.189-0.088,0.375-0.182,0.562-0.278c-0.088,0.135-0.203,0.249-0.318,0.356
				c-0.327,0.285-0.7,0.508-1.101,0.669c-0.249,0.106-0.513,0.194-0.778,0.257c-0.034,0.003-0.03,0.041-0.021,0.066
				c-0.241-0.026-0.483-0.063-0.723-0.112c0.286-0.08,0.564-0.172,0.84-0.281c0.088-0.034,0.172-0.08,0.262-0.111
				C32.249,7.417,32.673,7.229,33.099,7.032L33.099,7.032z"/>
			<path fill="#EF7D00" d="M34.069,6.861c0.069-0.038,0.14-0.075,0.216-0.091c-0.005,0.129-0.076,0.246-0.154,0.347
				c-0.137,0.176-0.312,0.317-0.495,0.444c-0.125,0.085-0.257,0.166-0.394,0.239c-0.637,0.31-1.296,0.56-1.976,0.746
				c0-0.016,0-0.034,0-0.052c-0.017-0.024-0.043-0.042-0.065-0.062c0.228,0.015,0.469-0.039,0.638-0.2
				c0.034-0.038,0.085-0.075,0.098-0.124c0-0.032-0.037-0.022-0.057-0.02c-0.125,0.029-0.261,0.029-0.389,0.013
				c0.257-0.054,0.511-0.138,0.752-0.239c0.164-0.068,0.323-0.15,0.484-0.229c0.326-0.163,0.639-0.347,0.944-0.536
				C33.802,7.016,33.933,6.935,34.069,6.861L34.069,6.861z"/>
			<path fill="#EF7D00" d="M23.34,6.949c0.071,0.006,0.135,0.042,0.2,0.072c0.496,0.244,0.984,0.513,1.519,0.666
				c0.423,0.072,0.85,0.124,1.26,0.246c0.065,0.015,0.13,0.046,0.193,0.068c0.024,0.018,0.056-0.021,0.033-0.039
				c-0.026-0.026-0.056-0.05-0.083-0.073c0.057-0.254,0.156-0.509,0.352-0.695c0.171-0.169,0.426-0.25,0.66-0.221
				c0.146,0.02,0.295,0.068,0.397,0.172c0.02,0.016,0.041,0.018,0.061,0.023C28.05,7.182,28.167,7.2,28.27,7.26
				c0.048,0.026,0.097,0.073,0.09,0.13c-0.01,0.062-0.052,0.111-0.095,0.146c-0.006-0.044-0.02-0.093-0.055-0.12
				c-0.082-0.062-0.194-0.047-0.285-0.091c-0.026-0.003-0.057-0.033-0.081-0.01c-0.015,0.015-0.005,0.044,0.016,0.049
				c0.058,0.034,0.126,0.042,0.185,0.072c-0.121-0.003-0.254,0.022-0.331,0.124c-0.093,0.121-0.066,0.288-0.018,0.421
				c-0.046-0.052-0.071-0.11-0.101-0.171c-0.012-0.034-0.072-0.015-0.054,0.021c0.042,0.115,0.12,0.218,0.22,0.294
				c0.176,0.114,0.308,0.277,0.426,0.441c0.038,0.054,0.085,0.107,0.098,0.176c0.044,0.233,0.088,0.466,0.116,0.7
				c0.015,0.003,0.034,0.006,0.05,0.008c0.009-0.06-0.005-0.122-0.013-0.184c-0.022-0.15-0.049-0.295-0.078-0.446
				c0.285,0.312,0.61,0.586,0.949,0.837c0.079,0.117,0.188,0.208,0.294,0.296c0.056,0.046,0.111,0.091,0.153,0.15
				c-0.186,0.006-0.354-0.073-0.511-0.165c-0.197-0.12-0.375-0.269-0.515-0.447c-0.029-0.038-0.042-0.083-0.08-0.109
				c-0.03,0.003-0.04,0.036-0.03,0.063c0.02,0.061,0.062,0.109,0.104,0.16c0.104,0.122,0.217,0.233,0.321,0.355
				c0.04,0.052,0.094,0.104,0.104,0.172c-0.101,0.01-0.193-0.033-0.284-0.072c-0.137-0.066-0.268-0.149-0.378-0.25
				c-0.071-0.088-0.142-0.184-0.231-0.26c-0.02-0.02-0.042,0.005-0.057,0.016c0.066,0.107,0.151,0.197,0.239,0.285
				c0.134,0.174,0.205,0.386,0.273,0.591c0.041,0.121,0.091,0.243,0.19,0.329c0.036,0.029,0.083,0.049,0.125,0.082
				c-0.105-0.024-0.172-0.114-0.264-0.169c-0.02-0.013-0.06-0.027-0.076-0.003c-0.026,0.036-0.015,0.081-0.005,0.12
				c0.062,0.158,0.166,0.298,0.249,0.446c-0.213-0.044-0.402-0.194-0.485-0.394c-0.022-0.045-0.03-0.091-0.05-0.133
				c-0.01-0.018-0.046-0.013-0.046,0.01c-0.007,0.156-0.052,0.32-0.153,0.444c0.023-0.151,0.024-0.306-0.01-0.454
				c-0.064-0.264-0.203-0.506-0.325-0.747c-0.02-0.055-0.029-0.116-0.068-0.161c-0.091-0.119-0.234-0.174-0.371-0.22
				c-0.065-0.018-0.117-0.063-0.173-0.096c-0.047-0.024-0.081-0.065-0.123-0.099c-0.014-0.011-0.036,0-0.039,0.016
				c-0.026,0.068-0.039,0.14-0.056,0.213c-0.078-0.146-0.179-0.285-0.286-0.414c-0.137,0.116-0.308,0.238-0.498,0.213
				c0.094-0.167,0.225-0.309,0.338-0.46c-0.103-0.112-0.186-0.249-0.205-0.4c-0.016-0.124,0.017-0.248,0.062-0.363
				c0.011-0.037,0.02-0.075,0.02-0.115c-0.014,0-0.038,0-0.046,0.001c-0.02,0.044-0.021,0.096-0.054,0.135
				c-0.139,0.176-0.295,0.345-0.486,0.465c-0.117,0.08-0.254,0.133-0.388,0.182c-0.149,0.057-0.305,0.106-0.469,0.114
				c-0.098,0.003-0.19-0.021-0.28-0.056c0.244-0.13,0.463-0.303,0.692-0.451c0.032-0.013,0.011-0.075-0.024-0.052
				c-0.222,0.127-0.466,0.225-0.722,0.271c-0.083,0.016-0.174,0.026-0.262,0.02c0.041-0.033,0.083-0.059,0.127-0.085
				c0.171-0.115,0.342-0.232,0.508-0.35c0.156,0.041,0.319,0.032,0.472-0.02c-0.025,0.041-0.059,0.076-0.078,0.12
				c0,0.01,0.004,0.021,0.007,0.029c0.078,0.013,0.159,0.017,0.242,0.017c0.026,0,0.031-0.046,0.005-0.052
				c-0.057-0.011-0.113-0.01-0.171-0.013c0.034-0.055,0.078-0.105,0.116-0.161c0.02-0.018-0.012-0.036-0.019-0.047
				c-0.161,0.084-0.343,0.115-0.519,0.078c0.044-0.047,0.098-0.086,0.135-0.139c0.012-0.044-0.034-0.037-0.063-0.032
				c-0.158,0.034-0.329,0.016-0.479-0.042c0.049-0.036,0.127-0.055,0.144-0.119c-0.033-0.042-0.092-0.012-0.134-0.028
				c-0.261-0.042-0.505-0.155-0.745-0.265c-0.065-0.038-0.146-0.056-0.192-0.124c-0.122-0.14-0.261-0.275-0.374-0.426
				C23.379,7.026,23.359,6.988,23.34,6.949L23.34,6.949z"/>
			<path fill="#291908" d="M27.09,7.205c0.091-0.071,0.186-0.142,0.303-0.164c0.075-0.013,0.166,0.013,0.202,0.084
				c0.029,0.042-0.017,0.089-0.054,0.111c-0.07,0.037-0.151,0.013-0.227,0C27.243,7.218,27.165,7.213,27.09,7.205L27.09,7.205z"/>
			<path fill="#EF7D00" d="M27.251,7.161c0.066-0.037,0.135-0.071,0.213-0.062c0.036,0.001,0.059,0.032,0.085,0.057
				c-0.022,0.017-0.042,0.041-0.071,0.041C27.4,7.202,27.329,7.177,27.251,7.161L27.251,7.161z"/>
			<path fill="#EF7D00" d="M34.268,7.322c0.107-0.065,0.212-0.135,0.325-0.193c-0.069,0.161-0.182,0.298-0.308,0.42
				c-0.154,0.146-0.323,0.278-0.506,0.387c-0.3,0.15-0.596,0.303-0.898,0.439c-0.137,0.062-0.278,0.103-0.418,0.155
				c-0.031,0.013-0.012,0.076,0.024,0.065c0.142-0.033,0.273-0.096,0.411-0.146c0.231-0.089,0.461-0.192,0.678-0.309
				c0.122-0.062,0.23-0.145,0.356-0.197c0.162-0.08,0.325-0.167,0.501-0.218c-0.029,0.063-0.078,0.12-0.125,0.176
				c-0.282,0.32-0.629,0.578-1.001,0.778c-0.297,0.151-0.607,0.273-0.93,0.355c-0.589,0.14-1.204,0.14-1.797,0.024
				c-0.062-0.013-0.119-0.028-0.179-0.038c-0.034-0.006-0.051,0.049-0.023,0.065c0.048,0.021,0.1,0.024,0.151,0.038
				c0.534,0.124,1.098,0.135,1.64,0.031c0.384-0.075,0.758-0.198,1.108-0.377c0.166-0.082,0.322-0.171,0.479-0.264
				c0.095-0.057,0.188-0.116,0.287-0.165c-0.09,0.181-0.236,0.322-0.39,0.444c-0.27,0.207-0.582,0.345-0.904,0.451
				c-0.293,0.089-0.593,0.153-0.898,0.19c-0.287,0.013-0.57,0.031-0.854,0.071c-0.141-0.062-0.295-0.086-0.444-0.13
				c-0.391-0.107-0.767-0.278-1.098-0.516V8.855c0.163,0.083,0.339,0.148,0.52,0.165c0.142,0.013,0.283-0.001,0.413-0.057
				c0.051-0.024,0.109-0.015,0.161-0.015c0.114-0.001,0.227,0,0.336-0.016c0.025-0.003,0.025-0.033,0.015-0.052
				c-0.083-0.006-0.168,0.012-0.249,0.01c-0.082-0.003-0.161,0.007-0.238-0.006c-0.128-0.07-0.257-0.133-0.382-0.208
				c0.259,0.054,0.519,0.101,0.786,0.104c0.06,0,0.123,0.001,0.182-0.02c0.029-0.01,0.043-0.046,0.029-0.072
				c-0.013-0.062-0.076-0.082-0.128-0.104c0.076,0.006,0.151,0.006,0.226,0c-0.003,0.011-0.008,0.022-0.016,0.036
				c0.02,0.024,0.045,0.038,0.073,0.023c0.62-0.166,1.231-0.366,1.814-0.642C33.431,7.789,33.854,7.571,34.268,7.322L34.268,7.322z"
				/>
			<path fill="#EF7D00" d="M31.853,7.27c0.045-0.024,0.084-0.056,0.133-0.072c0,0.067-0.035,0.122-0.071,0.171
				c-0.071,0.094-0.163,0.176-0.271,0.225C31.45,7.68,31.255,7.75,31.052,7.815c-0.251,0.08-0.512,0.158-0.771,0.2
				c-0.087,0.015-0.175,0.02-0.264,0.015c-0.026-0.008-0.039,0.018-0.053,0.033c0.007,0.01,0.017,0.026,0.023,0.036
				c0.064,0.007,0.135,0.003,0.188,0.042c0.017,0.024-0.012,0.045-0.029,0.057c-0.046,0.026-0.098,0.041-0.149,0.052
				c-0.166,0.028-0.332,0.005-0.492-0.029c-0.032-0.016-0.069,0.026-0.045,0.056c0.076,0.05,0.159,0.089,0.225,0.159
				c-0.17,0.013-0.339,0.003-0.508-0.021c-0.082-0.008-0.146-0.059-0.225-0.078c-0.023-0.006-0.036,0.021-0.046,0.033
				c0.059,0.101,0.208,0.073,0.271,0.171c-0.2,0.008-0.409,0.026-0.6-0.054c-0.021,0.016-0.045,0.044-0.016,0.066
				c0.052,0.031,0.12,0.036,0.164,0.078c-0.132,0.021-0.271,0.02-0.4-0.021c-0.047-0.01-0.066-0.062-0.096-0.094
				c-0.085-0.114-0.175-0.225-0.277-0.319c-0.037-0.036-0.088-0.062-0.108-0.11C28.118,8,28.405,7.998,28.691,7.998
				c0.134,0,0.269,0.006,0.398,0.013c0.088,0.005,0.178,0.021,0.264-0.001c0.307-0.073,0.601-0.19,0.897-0.285
				c0.457-0.095,0.913-0.197,1.353-0.352C31.687,7.343,31.771,7.307,31.853,7.27L31.853,7.27z"/>
			<path fill="#EF7D00" d="M24.092,7.726c0.205,0.088,0.415,0.177,0.642,0.21c-0.043,0.023-0.088,0.038-0.131,0.059
				c-0.059,0.059-0.11,0.128-0.172,0.186c-0.053,0.052-0.127,0.049-0.195,0.059c-0.127,0.008-0.253,0.016-0.376-0.015
				c0.146-0.084,0.273-0.2,0.384-0.324c-0.012-0.017-0.026-0.042-0.051-0.028c-0.133,0.039-0.273,0.083-0.416,0.06
				c-0.043-0.005-0.078-0.031-0.106-0.062C23.821,7.859,23.968,7.807,24.092,7.726L24.092,7.726z"/>
			<path fill="#EF7D00" d="M30.241,8.093c0.127-0.018,0.245-0.044,0.371-0.075c0.073,0.031,0.154,0.039,0.234,0.057
				c0.25,0.045,0.504,0.084,0.757,0.093c0.076,0,0.152,0,0.229-0.012c-0.163,0.173-0.412,0.236-0.642,0.215
				c-0.171-0.006-0.322-0.081-0.486-0.117c-0.024,0.002-0.041,0.034-0.02,0.049c0.103,0.052,0.215,0.078,0.327,0.104
				c0.071,0.018,0.138,0.055,0.188,0.105c-0.161,0.033-0.332,0.015-0.496-0.008c-0.144-0.013-0.278-0.072-0.414-0.109
				c-0.018-0.005-0.054-0.011-0.05,0.017c-0.01,0.02,0.013,0.031,0.025,0.037c0.102,0.052,0.212,0.073,0.319,0.098
				c0.1,0.029,0.195,0.059,0.295,0.093c0.035,0.015,0.083,0.026,0.091,0.07c-0.142,0.022-0.286,0.003-0.428-0.008
				c-0.222-0.026-0.439-0.062-0.651-0.133c-0.049-0.017-0.085-0.047-0.127-0.075c-0.017,0.008-0.052,0.017-0.034,0.038
				c0.022,0.039,0.065,0.057,0.098,0.08c0.103,0.075,0.213,0.14,0.327,0.202c0.063,0.034,0.13,0.062,0.195,0.104
				c-0.159,0.059-0.335,0.063-0.5,0.024c-0.25-0.059-0.477-0.184-0.685-0.327c0.022-0.008,0.052-0.011,0.069-0.031
				c0.021-0.024,0.014-0.057,0.014-0.088c0.138,0.018,0.278,0.02,0.421,0.015c0.023,0.001,0.046-0.005,0.067-0.018
				c0.059-0.065-0.024-0.137-0.078-0.172c0.181,0.02,0.382,0.031,0.538-0.07C30.256,8.215,30.259,8.15,30.241,8.093L30.241,8.093z"
				/>
			<path fill="#EF7D00" d="M24.536,8.16c0.034-0.034,0.061-0.078,0.098-0.107c0.158,0.067,0.33,0.103,0.496,0.078
				c-0.047,0.042-0.088,0.089-0.14,0.124c-0.11,0.062-0.225,0.124-0.319,0.205c-0.052,0.046-0.123,0.056-0.188,0.07
				c-0.109,0.016-0.218,0.024-0.329,0.013C24.297,8.43,24.407,8.287,24.536,8.16L24.536,8.16z"/>
			<path fill="#EF7D00" d="M25.285,9.2c0.376-0.248,0.75-0.504,1.05-0.84c-0.029,0.132-0.01,0.27,0.035,0.396
				c-0.176,0.184-0.384,0.35-0.631,0.433C25.594,9.238,25.432,9.259,25.285,9.2L25.285,9.2z"/>
			<path fill="#EF7D00" d="M28.806,8.613c0.088,0.01,0.176,0.005,0.259,0.008c0.06,0.041,0.112,0.1,0.174,0.145
				c0.374,0.309,0.82,0.534,1.289,0.661c0.149,0.046,0.306,0.068,0.451,0.137c0,0.003,0.001,0.012,0.001,0.017
				c-0.078,0.088-0.201,0.115-0.315,0.112c-0.202-0.005-0.394-0.072-0.579-0.145c-0.488-0.199-0.932-0.487-1.367-0.776
				c-0.015,0.016-0.046,0.033-0.026,0.052c0.017,0.024,0.039,0.037,0.061,0.052c0.229,0.166,0.459,0.327,0.689,0.48
				c0.256,0.166,0.507,0.338,0.778,0.469c-0.115,0.029-0.236,0.016-0.354,0c-0.088-0.013-0.176-0.028-0.257-0.057
				c-0.018-0.01-0.039-0.016-0.062-0.016c0.008-0.012,0.015-0.021,0.022-0.031c-0.073-0.041-0.145-0.075-0.217-0.11
				c-0.071-0.038-0.135-0.093-0.2-0.145c-0.234-0.182-0.462-0.379-0.67-0.596c-0.053-0.055-0.104-0.111-0.141-0.177
				c0.131,0.026,0.264,0.036,0.397,0.011C28.782,8.691,28.802,8.652,28.806,8.613L28.806,8.613z"/>
			<path fill="#EF7D00" d="M26.325,8.886c0.024-0.024,0.045-0.056,0.076-0.072c0.034,0.052,0.07,0.101,0.104,0.15
				c-0.063,0.114-0.171,0.193-0.282,0.262c-0.255,0.169-0.521,0.321-0.787,0.472c-0.056,0.031-0.121,0.047-0.18,0.06
				c-0.145,0.038-0.298,0.068-0.445,0.041c-0.02-0.008-0.049-0.008-0.053-0.033c0.186-0.132,0.391-0.231,0.568-0.371
				c0.037-0.026,0.062-0.062,0.07-0.104c0.184,0.018,0.371-0.036,0.533-0.119C26.077,9.096,26.204,8.995,26.325,8.886L26.325,8.886z
				"/>
			<path fill="#291908" d="M27.646,9.158c0.02-0.006,0.037,0.005,0.041,0.024c0.037,0.13,0.105,0.251,0.205,0.344
				c0.101,0.089,0.184,0.202,0.206,0.333c0.015,0.031-0.022,0.049-0.045,0.033c-0.02-0.061-0.036-0.125-0.075-0.181
				c-0.056-0.091-0.146-0.148-0.212-0.239c-0.059-0.077-0.105-0.166-0.133-0.259C27.63,9.197,27.624,9.163,27.646,9.158
				L27.646,9.158z"/>
			<path fill="#EF7D00" d="M25.228,9.908c0.344-0.218,0.707-0.41,1.049-0.635c-0.039,0.054-0.085,0.107-0.1,0.171
				c0,0.02,0.027,0.02,0.044,0.031c0.101,0.029,0.207,0,0.3-0.044c0.081-0.036,0.149-0.086,0.218-0.138
				c0.148,0.192,0.286,0.396,0.354,0.628c0.026,0.104,0.046,0.216,0.004,0.319c-0.02,0.033-0.061,0.039-0.097,0.05
				c-0.142,0.034-0.293,0.041-0.435,0.006c-0.096-0.024-0.191-0.075-0.244-0.161c0.08-0.101,0.195-0.165,0.305-0.231
				c0.057-0.034,0.122-0.057,0.181-0.094c0.029-0.018,0-0.041-0.015-0.057c-0.21,0.111-0.432,0.186-0.659,0.252
				c-0.11,0.031-0.231,0.07-0.354,0.055c-0.027-0.005-0.04-0.034-0.04-0.06c0.162-0.163,0.371-0.272,0.557-0.397
				c0.029-0.017-0.004-0.039-0.015-0.056c-0.189,0.106-0.383,0.207-0.571,0.311c-0.109,0.044-0.227,0.065-0.342,0.077
				C25.319,9.934,25.267,9.941,25.228,9.908L25.228,9.908z"/>
			<path fill="#EF7D00" d="M29.548,9.352c0.208,0.117,0.426,0.218,0.65,0.301c0.026,0.01,0.053,0.018,0.085,0.018
				c0.013,0.005,0.031,0.012,0.047,0.018c-0.027,0.003-0.057,0-0.086-0.006c-0.002,0.021-0.013,0.05,0.012,0.062
				c0.154,0.073,0.322,0.114,0.493,0.14c0.098,0.024,0.196,0.047,0.288,0.091c-0.097,0.042-0.2,0.052-0.303,0.06
				c-0.102,0.001-0.204,0.001-0.305-0.024c-0.124-0.034-0.247-0.067-0.368-0.111c0.078-0.005,0.166-0.001,0.234-0.052
				c0.019-0.013,0.021-0.038,0.019-0.063c-0.106-0.017-0.194-0.08-0.288-0.129C29.865,9.563,29.7,9.46,29.548,9.352L29.548,9.352z"
				/>
			<path fill="#EF7D00" d="M27.114,9.516c0.005-0.013,0.008-0.038,0.027-0.024c0.092,0.06,0.183,0.133,0.29,0.164
				c0.109,0.039,0.227,0.086,0.306,0.178c0.048,0.055,0.067,0.133,0.063,0.207c-0.008,0.25-0.005,0.501-0.034,0.75
				c-0.01,0.044,0.014,0.088,0.021,0.13c0.015,0.055,0.017,0.109,0.018,0.165c-0.068-0.07-0.123-0.153-0.176-0.234
				c-0.025-0.047-0.047-0.095-0.086-0.134c-0.046,0.033-0.031,0.101-0.054,0.15c-0.049,0.127-0.107,0.264-0.218,0.345
				c0.008-0.15,0.045-0.296,0.059-0.441c0.015-0.13,0.039-0.259,0.016-0.384c-0.001-0.036-0.037-0.017-0.054-0.01
				c0.012,0.186-0.003,0.379-0.096,0.539c-0.032,0.054-0.071,0.106-0.124,0.142c0.046-0.177,0.053-0.365,0.111-0.542
				c0.025-0.091,0.069-0.176,0.081-0.27c0.003-0.028-0.039-0.036-0.047-0.011c-0.034,0.049-0.061,0.101-0.1,0.148
				c0.01-0.075,0.046-0.142,0.056-0.216c0.013-0.134-0.02-0.266-0.07-0.388C27.07,9.692,27.093,9.601,27.114,9.516L27.114,9.516z"/>
			<path fill="#EF7D00" d="M31.614,9.534c0.098-0.006,0.194-0.024,0.29-0.027c-0.306,0.21-0.681,0.327-1.05,0.309
				c-0.144,0-0.271-0.07-0.407-0.086c-0.021-0.001-0.037-0.01-0.054-0.018c0.049-0.008,0.095,0.022,0.146,0.026
				c0.141,0.018,0.297,0.021,0.422-0.063c0.044-0.023,0.066-0.07,0.103-0.103C31.25,9.563,31.434,9.552,31.614,9.534L31.614,9.534z"
				/>
			<path fill="#EF7D00" d="M29.45,9.737c0.074,0.041,0.146,0.089,0.201,0.153c0.192,0.183,0.41,0.327,0.615,0.495
				c0.059,0.054,0.127,0.106,0.16,0.181c-0.144,0.054-0.297,0.007-0.439-0.044c-0.219-0.081-0.42-0.195-0.615-0.32
				c-0.026-0.029-0.078,0.008-0.053,0.042c0.107,0.151,0.254,0.271,0.412,0.371c0.042,0.029,0.09,0.052,0.129,0.091
				c0.016,0.016,0.006,0.049-0.017,0.054c-0.104,0.038-0.215,0.005-0.31-0.036c-0.128-0.056-0.242-0.137-0.352-0.223
				c-0.035-0.028-0.066-0.062-0.105-0.084c-0.044-0.005-0.051,0.052-0.024,0.076c0.065,0.073,0.164,0.122,0.205,0.218
				c-0.154-0.005-0.286-0.096-0.397-0.19c-0.042-0.042-0.091-0.077-0.105-0.133c-0.047-0.146-0.1-0.288-0.173-0.425
				c0.15,0.104,0.314,0.195,0.495,0.228c0.051,0.013,0.13-0.002,0.13-0.067c-0.013-0.094-0.089-0.16-0.143-0.233
				c0.172,0.121,0.356,0.231,0.564,0.266c0.057,0.006,0.119,0.018,0.174,0c0.028-0.036,0.002-0.083-0.024-0.116
				C29.681,9.928,29.551,9.848,29.45,9.737L29.45,9.737z"/>
			<path fill="#EF7D00" d="M29.727,9.859c0.037,0.006,0.075,0.013,0.114,0.023c0.032,0.029,0.074,0.049,0.117,0.065
				c0.14,0.068,0.293,0.114,0.449,0.137c0.099,0.016,0.195,0.042,0.289,0.073c-0.107,0.062-0.228,0.089-0.345,0.082
				c-0.127-0.012-0.228-0.086-0.335-0.144C29.912,10.025,29.817,9.944,29.727,9.859L29.727,9.859z"/>
			<path fill="#EF7D00" d="M27.559,10.841c0.02,0.042,0.056,0.08,0.07,0.125c-0.005,0.132-0.019,0.264-0.005,0.397
				c0.003,0.024,0.005,0.057,0.025,0.073c0.046,0.034,0.102,0.055,0.146,0.084c-0.032,0.045-0.054,0.099-0.062,0.155
				c-0.029,0.024-0.062,0.044-0.085,0.075c0,0.026,0.023,0.045,0.034,0.068c0.048,0.073,0.059,0.171,0.015,0.248
				c-0.02,0.039-0.052,0.063-0.074,0.098c-0.007,0.042,0,0.084,0,0.127c-0.017-0.033-0.026-0.068-0.033-0.104
				c-0.11-0.066-0.149-0.203-0.157-0.329c0.005-0.045-0.073-0.045-0.067,0c0,0.088-0.013,0.179-0.081,0.241
				c-0.037,0.039-0.098,0.047-0.144,0.072c-0.027,0.028-0.02,0.067-0.022,0.101c-0.032-0.054-0.029-0.116-0.022-0.176
				c-0.019-0.023-0.043-0.051-0.039-0.085c0.01-0.091,0.078-0.156,0.128-0.221c0.021-0.024-0.005-0.054-0.025-0.057
				c-0.046,0.02-0.077,0.054-0.119,0.077c-0.098,0.059-0.212,0.099-0.322,0.078c-0.037-0.016-0.061,0.02-0.083,0.041
				c0.021-0.063,0.024-0.13,0.057-0.188c0.043-0.072,0.122-0.121,0.202-0.135c0.081-0.013,0.169-0.005,0.247-0.041
				c0.124-0.052,0.197-0.183,0.215-0.311c0.009-0.05,0.049-0.088,0.075-0.128C27.487,11.039,27.531,10.94,27.559,10.841
				L27.559,10.841z"/>
			<path fill="#EF7D00" d="M28.333,11.057c0.026-0.059,0.043-0.117,0.059-0.177c0.043,0.107,0.122,0.193,0.199,0.27
				c0.016,0.059,0.006,0.125,0.016,0.184c0.017,0.032,0.053,0.049,0.085,0.057c0.057,0.02,0.12,0.017,0.179,0.024
				c0.043,0.005,0.068,0.041,0.095,0.07c-0.057-0.017-0.11-0.067-0.174-0.047c-0.048,0.011-0.093,0.052-0.083,0.104
				c-0.005,0.041,0.044,0.049,0.071,0.067c0.068,0.036,0.104,0.119,0.095,0.194c-0.009,0.073-0.02,0.159-0.092,0.2
				c0.007-0.042,0.017-0.096-0.022-0.13c-0.036-0.039-0.104,0.005-0.145-0.031c-0.051-0.041-0.054-0.109-0.077-0.161
				c-0.037-0.065-0.143-0.034-0.162,0.027c0.013,0.104,0.032,0.217-0.021,0.311c-0.021,0.042-0.066,0.062-0.109,0.077
				c-0.018,0.05-0.013,0.103-0.01,0.153c-0.049-0.047-0.029-0.122-0.039-0.182c-0.013-0.029-0.042-0.049-0.045-0.082
				c-0.015-0.086,0.025-0.169,0.049-0.249c0.01-0.038-0.053-0.054-0.065-0.018c-0.042,0.059-0.085,0.125-0.163,0.146
				c-0.04,0.017-0.081-0.021-0.123-0.003c-0.017,0.027-0.01,0.062-0.014,0.094c-0.029-0.08-0.022-0.165-0.027-0.248
				c-0.005-0.065,0.026-0.133,0.085-0.164c0.101-0.059,0.22-0.051,0.328-0.052c0.058,0.011,0.087-0.047,0.104-0.086
				c0.002-0.093-0.008-0.184-0.012-0.276C28.313,11.103,28.325,11.082,28.333,11.057L28.333,11.057z"/>
		</g>
	</g>
</g>
</svg>
