<?xml version="1.0" encoding="utf-8"?>
<!-- Generator: Adobe Illustrator 20.1.0, SVG Export Plug-In . SVG Version: 6.00 Build 0)  -->
<svg version="1.1" id="Layer_1" xmlns="http://www.w3.org/2000/svg" xmlns:xlink="http://www.w3.org/1999/xlink" x="0px" y="0px"
	 viewBox="0 0 40 40" style="enable-background:new 0 0 40 40;" xml:space="preserve">
<style type="text/css">
	.st0{fill:#FFD200;}
	.st1{fill:#DE2010;}
	.st2{fill:#319208;}
	.st3{fill:#FFFFFF;}
	.st4{fill:#D0D0D5;}
	.st5{fill:#D40000;}
	.st6{fill:#FFCC00;}
</style>
<path class="st0" d="M6.7,34.5h27.1c1.7-1.7,3.2-3.6,4.2-5.8H12.5L6.7,34.5z"/>
<path class="st1" d="M12.5,28.7H38c0.9-1.8,1.5-3.7,1.8-5.8H18.3L12.5,28.7z"/>
<path class="st2" d="M6.5,34.7C10,38,14.8,40,20,40c5.3,0,10.2-2.1,13.8-5.5H6.7L6.5,34.7z"/>
<path class="st0" d="M12.5,11.3H38c-1.1-2.2-2.5-4.1-4.2-5.8H6.7L12.5,11.3z"/>
<path class="st1" d="M18.3,17.1h21.5c-0.3-2-0.9-4-1.8-5.8H12.5L18.3,17.1z"/>
<path class="st2" d="M33.8,5.5C30.2,2.1,25.3,0,20,0C14.8,0,10,2,6.5,5.3l0.2,0.2H33.8z"/>
<path d="M21.2,20l-2.9,2.9h21.5C39.9,21.9,40,21,40,20s-0.1-1.9-0.2-2.9H18.3L21.2,20z"/>
<path d="M6.5,5.3C6.4,5.4,6.3,5.4,6.2,5.5C6.1,5.6,6,5.8,5.8,5.9L20,20L5.8,34.1c0.1,0.1,0.3,0.2,0.4,0.3c0.1,0.1,0.2,0.2,0.2,0.2
	L21.2,20L6.5,5.3z"/>
<path class="st3" d="M17.1,17.1l-5.8-5.8L5.8,5.9C4.3,7.4,3,9.3,2,11.3c-0.9,1.8-1.5,3.7-1.8,5.8C0.1,18.1,0,19,0,20
	s0.1,1.9,0.2,2.9c0.3,2,0.9,4,1.8,5.8c1,2,2.3,3.9,3.8,5.4l5.5-5.4l5.8-5.8L20,20L17.1,17.1z"/>
<path class="st4" d="M1,20c0-5.2,2.1-10,5.6-13.4L5.8,5.9c0,0-0.1,0.1-0.1,0.1C5.4,6.4,5,6.8,4.7,7.1c-0.3,0.3-0.5,0.7-0.8,1
	C3.8,8.3,3.7,8.4,3.7,8.5C3.4,8.9,3.1,9.3,2.8,9.8c0,0,0,0,0,0.1c-0.3,0.5-0.5,1-0.8,1.5c0,0,0,0,0,0c-0.9,1.8-1.5,3.7-1.8,5.8
	c-0.1,0.4-0.1,0.9-0.2,1.3C0,18.9,0,19.5,0,20c0,0,0,0,0,0c0,0.5,0,1.1,0.1,1.6c0,0.4,0.1,0.9,0.2,1.3c0.3,2,0.9,4,1.8,5.8
	c0.2,0.5,0.5,1,0.8,1.5c0,0,0,0,0,0.1c0.3,0.4,0.5,0.9,0.8,1.3c0.1,0.1,0.2,0.2,0.3,0.3c0.2,0.3,0.5,0.7,0.8,1
	c0.3,0.4,0.7,0.8,1,1.1c0,0,0.1,0.1,0.1,0.1l0.7-0.7C3.1,30,1,25.2,1,20z"/>
<g>
	<polygon class="st5" points="11.9,20.5 16.6,17.1 10.9,17.1 9.1,11.7 7.3,17.1 1.6,17.1 6.2,20.5 4.5,25.9 9.1,22.5 13.7,25.9 	"/>
	<path class="st6" d="M7.1,24.1l0.8-0.1l1.5-0.1l0.6,0.1l1.2,0.2l0.1-0.1v-0.9l0.1-0.8l0.3-0.8l0.3-0.6l0.3-0.6l0.6,0.1h0.1l0-0.1
		l-1.2-1l-1.3-1L8.8,17l-0.2,0l-0.2-1.4l-0.1-0.4L8.2,15l-0.4-0.1l-0.4,0L7.2,15L6.8,15l-0.2,0l-0.1,0.2l0,0.2l0.6,0l0.1,0.1l0,0.1
		l-0.3,0l-0.1,0l0.2,0.1l0.2,0.1l0.2,0.1l0,0.2l0,2.2l-0.1,0.3l0,0.6L7.4,20l-0.5,0.5L6.6,21l0,0.3l-0.1,0.3l0,0.2l0.1,0.2l0.4,1.2
		L7.1,24.1L7.1,24.1z"/>
	<path d="M7.5,14.8c-0.1,0-0.2,0-0.4,0.1C7.1,15,6.9,15,6.8,15c-0.2,0-0.4,0.1-0.4,0.3v0.1l0.3,0c0.9,0,0.1,0.1,0,0.1
		c-0.2,0,0,0.2,0.3,0.3c0.3,0.1,0.3,0,0.3,1.2c0,1,0,1.1-0.1,1.4c-0.1,0.3-0.1,0.8,0,1.2c0,0.1,0.1,0.3,0.1,0.3c0,0-0.1,0.2-0.3,0.4
		c-0.3,0.3-0.5,0.7-0.5,0.9c0,0.1,0,0.1-0.1,0.2c-0.1,0.1-0.1,0.4,0,0.5C6.6,22,7,23.7,7,24c0,0.1,0,0.1,0.7,0
		c0.5-0.1,1.8-0.1,2.5,0c0.3,0,0.7,0.1,0.8,0.1c0.4,0.1,0.4,0.1,0.4-0.4c0-0.7,0.1-1.5,0.4-2.2c0.1-0.3,0.5-1.1,0.6-1.2
		c0,0,0.2,0,0.3,0.1c0.4,0.1,0.4,0.1,0.4-0.1c0-0.1-0.4-0.4-2.1-1.8c-1.2-0.9-2.1-1.6-2.2-1.6c0,0-0.1,0-0.1-0.1
		c0,0-0.1-0.4-0.1-0.8c-0.1-0.4-0.1-0.8-0.2-0.9c-0.1-0.2-0.3-0.4-0.7-0.4C7.7,14.8,7.6,14.8,7.5,14.8z M7.6,14.9c0,0,0.1,0,0.2,0
		c0.6,0,0.7,0.2,0.8,1.2c0.1,0.4,0.1,0.7,0.1,0.8c0,0.1-0.1,0.1-0.3,0.3c-0.3,0.2-0.7,0.5-0.8,0.8l-0.1,0.1l0-0.3c0-0.2,0-0.6,0-1
		c0-0.7,0-0.8-0.2-0.9c-0.2-0.1-0.4-0.1-0.4-0.2c0.1,0,0.2,0,0.4-0.1c0.1,0,0.1,0,0.1-0.1c0-0.1-0.1-0.2-0.4-0.1
		c-0.2,0-0.3,0-0.3-0.1c0-0.1,0.2-0.2,0.4-0.2C7,15.1,7.2,15,7.2,15C7.3,14.9,7.4,14.9,7.6,14.9z M8.8,17C8.8,17,8.8,17,8.8,17
		c0.2,0,4.3,3.2,4.3,3.3c0,0,0,0.1-0.1,0.1c0,0-1.1-0.3-2.3-0.7c-2-0.6-2.2-0.7-2.3-0.8c-0.1-0.1-0.1-0.4,0-0.5
		c0-0.1,0.1-0.1,0.1-0.2c0-0.1-0.2,0.1-0.2,0.3c0,0.2,0,0.5,0.2,0.5c0.1,0,0.4,0.2,0.8,0.3c0.7,0.2,0.7,0.2,0.8,0.3
		c0.1,0.3-0.2,0.6-0.6,0.7c-0.1,0-0.3,0.1-0.4,0.2c-0.5,0.4-0.8,0.6-1.1,0.7c-0.2,0.1-0.3,0.1-0.3,0.2c0,0-0.1,0.2-0.1,0.3
		c-0.1,0.3-0.1,0.3-0.2,0.3c0,0-0.1,0,0-0.1c0.1-0.2,0.1-0.4,0-0.4c0,0-0.1,0.1-0.1,0.2c0,0.1,0,0.2-0.1,0.2c0,0-0.1,0,0-0.2
		c0-0.1,0-0.3,0-0.3c0,0-0.1,0.2-0.1,0.4c0,0.1,0,0.1-0.1,0c0-0.1,0-0.2,0.1-0.3C6.9,21.5,7,21.4,7,21.3c0-0.1,0.1-0.2,0.5-0.6
		C7.7,20.5,8,20.1,8.1,20c0.2-0.2,0.2-0.3,0.2-0.5c0-0.1,0-0.3,0-0.3c-0.1-0.1-0.1,0.2-0.1,0.4c0,0.1,0,0.2-0.3,0.5
		c-0.2,0.2-0.4,0.5-0.6,0.6C7,21,6.9,21.2,6.9,21.4c0,0,0,0.2-0.1,0.3s-0.1,0.2-0.1,0.2c0,0,0,0,0,0c0,0,0-0.1,0-0.2
		c0-0.1,0-0.2,0-0.2c0-0.1-0.1,0-0.1,0.2c0,0.1,0,0.2-0.1,0.2c-0.1,0,0-0.3,0-0.4c0-0.1,0.1-0.2,0.1-0.3c0.1-0.3,0.2-0.6,0.5-0.9
		C7.3,20.1,7.4,20,7.4,20s0-0.1-0.1-0.3c-0.1-0.3-0.1-0.8,0-1.1c0.1-0.3,0.3-0.6,0.7-1C8.3,17.2,8.6,17,8.8,17z M10,19.7
		C10.1,19.7,10.1,19.7,10,19.7C10.1,19.8,10.1,19.8,10,19.7C10.1,19.8,10.1,19.8,10,19.7C10,19.8,10,19.8,10,19.7
		C10,19.7,10,19.7,10,19.7z M10.3,19.7L10.3,19.7C10.3,19.7,10.3,19.8,10.3,19.7C10.3,19.8,10.3,19.8,10.3,19.7
		C10.3,19.8,10.3,19.8,10.3,19.7C10.2,19.8,10.2,19.8,10.3,19.7C10.2,19.8,10.2,19.7,10.3,19.7z M10.5,19.8
		C10.5,19.8,10.5,19.8,10.5,19.8C10.5,19.8,10.6,19.8,10.5,19.8C10.6,19.8,10.6,19.8,10.5,19.8C10.6,19.9,10.5,19.9,10.5,19.8
		C10.4,19.9,10.4,19.9,10.5,19.8C10.4,19.8,10.4,19.8,10.5,19.8z M10.7,19.8C10.7,19.8,10.7,19.8,10.7,19.8
		C10.7,19.8,10.8,19.8,10.7,19.8C10.8,19.9,10.8,19.9,10.7,19.8C10.8,19.9,10.7,19.9,10.7,19.8C10.6,19.9,10.6,19.9,10.7,19.8
		C10.6,19.9,10.6,19.8,10.7,19.8z M10.1,19.9C10.1,19.9,10.1,19.9,10.1,19.9C10.2,19.9,10.2,19.9,10.1,19.9
		C10.2,19.9,10.2,19.9,10.1,19.9C10.2,19.9,10.2,20,10.1,19.9C10.1,20,10.1,19.9,10.1,19.9C10.1,19.9,10.1,19.9,10.1,19.9z
		 M10.4,19.9C10.4,19.9,10.4,19.9,10.4,19.9C10.4,19.9,10.4,20,10.4,19.9C10.4,20,10.4,20,10.4,19.9C10.3,20,10.3,20,10.4,19.9
		C10.3,19.9,10.3,19.9,10.4,19.9z M10.8,19.9C10.8,19.9,10.9,19.9,10.8,19.9C10.9,20,10.9,20,10.8,19.9C10.9,20,10.8,20,10.8,19.9
		C10.8,20,10.7,20,10.8,19.9C10.7,19.9,10.7,19.9,10.8,19.9z M10.6,19.9C10.6,19.9,10.6,19.9,10.6,19.9C10.6,20,10.6,20,10.6,19.9
		C10.6,20,10.6,20,10.6,19.9C10.5,20,10.5,20,10.6,19.9C10.5,20,10.5,19.9,10.6,19.9z M11,20c0,0,0.3,0.1,0.7,0.2l0.7,0.2l-0.1,0.2
		c-0.1,0.1-0.2,0.3-0.2,0.4c-0.1,0.2-0.1,0.2-0.5,0.1c-0.4-0.1-1.1-0.2-1.8-0.2L9,20.7l0.3-0.1c0.1-0.1,0.3-0.1,0.4-0.2
		c0.2-0.1,0.2-0.1,0.5-0.1c0.4,0,0.6,0,0.7-0.2C10.9,20,11,20,11,20z M10.2,20C10.2,20,10.2,20,10.2,20C10.3,20,10.3,20,10.2,20
		C10.3,20.1,10.3,20.1,10.2,20C10.3,20.1,10.3,20.1,10.2,20C10.2,20.1,10.2,20.1,10.2,20C10.2,20,10.2,20,10.2,20z M10.7,20
		C10.7,20,10.7,20,10.7,20C10.7,20,10.8,20,10.7,20C10.8,20.1,10.8,20.1,10.7,20C10.8,20.1,10.8,20.1,10.7,20
		C10.7,20.1,10.7,20.1,10.7,20C10.7,20,10.7,20,10.7,20z M10,20C10,20,10,20,10,20C10.1,20,10.1,20,10,20C10.1,20.1,10.1,20.1,10,20
		C10.1,20.1,10.1,20.1,10,20C10,20.1,10,20.1,10,20C10,20.1,10,20,10,20z M10.5,20C10.5,20,10.6,20,10.5,20
		C10.6,20.1,10.6,20.1,10.5,20C10.6,20.1,10.5,20.1,10.5,20C10.5,20.1,10.4,20.1,10.5,20C10.4,20.1,10.4,20,10.5,20z M9.9,20.1
		C9.9,20.1,9.9,20.1,9.9,20.1C10,20.1,10,20.2,9.9,20.1C10,20.2,10,20.2,9.9,20.1C10,20.2,10,20.2,9.9,20.1
		C9.9,20.2,9.9,20.2,9.9,20.1C9.9,20.2,9.9,20.1,9.9,20.1z M10.1,20.1C10.1,20.1,10.1,20.1,10.1,20.1C10.2,20.1,10.2,20.2,10.1,20.1
		C10.2,20.2,10.2,20.2,10.1,20.1C10.2,20.2,10.2,20.2,10.1,20.1C10.1,20.2,10.1,20.2,10.1,20.1C10.1,20.2,10.1,20.1,10.1,20.1z
		 M10.4,20.1C10.4,20.1,10.4,20.2,10.4,20.1C10.4,20.2,10.4,20.2,10.4,20.1C10.4,20.2,10.4,20.2,10.4,20.1
		C10.3,20.2,10.3,20.2,10.4,20.1C10.3,20.2,10.3,20.2,10.4,20.1z M10.6,20.2L10.6,20.2C10.6,20.1,10.7,20.2,10.6,20.2
		C10.7,20.2,10.7,20.2,10.6,20.2C10.7,20.2,10.6,20.2,10.6,20.2C10.6,20.2,10.5,20.2,10.6,20.2C10.5,20.2,10.6,20.2,10.6,20.2z
		 M8.9,20.8c0.3,0,1.3,0.1,1.8,0.1c0.4,0.1,1.1,0.2,1.2,0.2c0,0-0.1,0.2-0.1,0.4c-0.1,0.2-0.2,0.5-0.2,0.5c0,0-0.1,0.1-0.2,0
		c-0.7-0.1-2.7-0.1-3.5,0c-0.4,0.1-0.5,0.1-0.5,0c0,0,0.1-0.2,0.1-0.3l0.1-0.2L8,21.4c0.3-0.1,0.5-0.3,0.6-0.4
		C8.7,20.9,8.8,20.8,8.9,20.8C8.8,20.8,8.9,20.8,8.9,20.8z M6.7,22c0,0,0.1,0,0.1,0.1c0.1,0,0.2,0.1,0.2,0.1c0.2,0,0.3,0.3,0.5,1.3
		c0,0.1,0.1,0.3,0.1,0.4c0,0.1,0,0.1-0.2,0.1c-0.2,0.1-0.3,0.1-0.3,0c0-0.1-0.2-1.1-0.3-1.5C6.7,22.3,6.6,22,6.7,22
		C6.6,22,6.6,22,6.7,22C6.6,22,6.7,22,6.7,22z M9,22.2h0.2l-0.1,0.1c-0.1,0.2-0.2,0.2-0.3,0.1c-0.1-0.1-0.1-0.1-0.1-0.1
		C8.8,22.2,8.9,22.2,9,22.2z M9.5,22.2h0.2H10l-0.1,0.1c-0.1,0.1-0.1,0.1-0.3,0L9.5,22.2z M10.2,22.2h0.1c0.1,0,0.2,0,0.2,0l0.1,0
		l-0.1,0.1c-0.1,0.1-0.1,0.1-0.1,0.1c0,0-0.1-0.1-0.1-0.1L10.2,22.2z M10.9,22.2l0.1,0c0.1,0,0.2,0,0.3,0h0.2l-0.1,0.1
		c-0.1,0.1-0.1,0.1-0.1,0.1c0,0-0.1-0.1-0.1-0.1L10.9,22.2z M8.4,22.2C8.4,22.2,8.4,22.2,8.4,22.2c0,0,0,0.1-0.1,0.1l-0.1,0.1
		l-0.1-0.1L8,22.3l0.2,0C8.3,22.2,8.4,22.2,8.4,22.2z M8.6,22.2c0,0,0.1,0,0.1,0.1l0.1,0.1l-0.2,0l-0.2,0l0.1-0.1
		C8.6,22.3,8.6,22.2,8.6,22.2z M10.1,22.2C10.1,22.2,10.1,22.2,10.1,22.2c0.1,0.1,0.1,0.1,0.2,0.2c0,0.1,0,0.1-0.1,0.1
		c-0.1,0-0.2,0-0.2,0l-0.1,0l0.1-0.1C10.1,22.2,10.1,22.2,10.1,22.2z M9.4,22.2c0,0,0.1,0,0.1,0.1c0.1,0.1,0.1,0.1-0.2,0.1l-0.2,0
		l0.1-0.1C9.3,22.3,9.4,22.2,9.4,22.2z M10.8,22.2l0.1,0.1c0.1,0.1,0.1,0.2,0.1,0.2c0,0-0.1,0-0.2,0l-0.2,0l0.1-0.1L10.8,22.2z
		 M7.9,22.3c0,0,0.1,0,0.1,0.1l0.1,0.1l-0.2,0c-0.1,0-0.2,0-0.3,0c-0.1,0,0,0,0.1-0.1C7.8,22.4,7.9,22.3,7.9,22.3z M7.6,22.3
		C7.6,22.3,7.6,22.3,7.6,22.3c0.1,0,0.1,0,0,0.1l-0.1,0.1l0-0.1c0-0.1,0-0.1,0.1-0.1C7.5,22.3,7.5,22.3,7.6,22.3z M11.4,22.4
		C11.4,22.4,11.4,22.5,11.4,22.4C11.4,22.6,11.3,22.6,11.4,22.4C11.3,22.5,11.4,22.5,11.4,22.4C11.4,22.5,11.4,22.4,11.4,22.4z
		 M9.6,22.6c0.6,0,1.3,0,1.4,0c0.3,0,0.3,0,0.3,0.1c0,0.1,0,0.1-0.4,0.1c-0.1,0-0.5-0.1-0.9-0.1c-0.7-0.1-1.6,0-2.4,0.1
		c-0.2,0-0.2,0-0.2,0C7.5,22.7,8.3,22.6,9.6,22.6z M8.8,22.8H9h0.2l-0.1,0.1c-0.1,0.1-0.1,0.1-0.3,0L8.8,22.8z M9.4,22.8l0.1,0.1
		c0.1,0.1,0.1,0.1,0.1,0.1c0,0-0.1,0-0.2,0H9.1L9.2,23L9.4,22.8z M9.5,22.8h0.2H10l-0.1,0.1c-0.1,0.1-0.1,0.1-0.3,0L9.5,22.8z
		 M8.5,22.8c0,0,0,0-0.1,0.1c-0.1,0.1-0.1,0.1-0.1,0.1S8.2,23,8.2,23l-0.1-0.1h0.2C8.3,22.9,8.4,22.9,8.5,22.8
		C8.5,22.8,8.5,22.8,8.5,22.8z M8.6,22.9L8.8,23c0.1,0.1,0.1,0.1,0.1,0.1c0,0-0.1,0-0.2,0l-0.2,0L8.5,23L8.6,22.9z M10.1,22.9
		l0.1,0.1c0.1,0.1,0.1,0.1-0.2,0.1l-0.1,0L10,23L10.1,22.9z M10.3,22.9h0.2c0.2,0,0.2,0,0.1,0.1c-0.1,0.1-0.1,0.1-0.2,0L10.3,22.9z
		 M7.7,22.9c0.1,0,0.1,0,0,0.1c-0.1,0.1-0.1,0.1-0.1,0C7.5,23,7.6,22.9,7.7,22.9z M10.9,22.9c0,0,0.1,0,0.2,0l0.2,0l-0.1,0.1
		l-0.1,0.1L11,23.1C10.9,23,10.9,22.9,10.9,22.9C10.9,22.9,10.9,22.9,10.9,22.9z M7.9,23C8,23,8,23,7.9,23c0.2,0.1,0.2,0.1,0.1,0.2
		c0,0-0.1,0-0.2,0l-0.1,0l0.1-0.1C7.9,23,7.9,23,7.9,23z M10.8,23C10.8,23,10.8,23,10.8,23l0.2,0.2h-0.2c-0.1,0-0.2,0-0.2-0.1
		C10.6,23.1,10.7,23,10.8,23C10.7,23,10.8,23,10.8,23z M11.3,23.1C11.3,23.1,11.3,23.1,11.3,23.1c0,0.1-0.1,0.2-0.1,0.1
		C11.2,23.2,11.2,23.2,11.3,23.1C11.3,23.1,11.3,23.1,11.3,23.1z M9.2,23.2c0.7,0,1.5,0,2,0.1l0.1,0v0.4c0,0.3,0,0.4-0.1,0.4
		c0,0-0.2,0-0.4-0.1c-0.6-0.1-1.3-0.2-2-0.2c-0.4,0-0.8,0-0.9,0.1l-0.2,0l0-0.3c0-0.2,0-0.3,0-0.3c0,0,0.2,0,0.4-0.1
		C8.3,23.2,8.7,23.2,9.2,23.2z"/>
	<path id="path7067" d="M10.6,21.1c-0.2,0-0.4,0.2-0.4,0.4c0,0.4,0.4,0.6,0.7,0.3C11.2,21.6,11,21.1,10.6,21.1z M10.6,21.2
		c0.2,0,0.3,0.1,0.3,0.3c0,0.2-0.3,0.4-0.5,0.3c-0.2-0.1-0.2-0.5,0-0.6C10.5,21.2,10.6,21.2,10.6,21.2z"/>
	<g>
		<path id="path7067_1_" d="M8.9,21.1c-0.2,0-0.4,0.2-0.4,0.4c0,0.4,0.4,0.6,0.7,0.3C9.5,21.5,9.3,21.1,8.9,21.1z M8.9,21.2
			c0.2,0,0.3,0.1,0.3,0.3c0,0.2-0.3,0.4-0.5,0.3c-0.2-0.1-0.2-0.5,0-0.6C8.9,21.2,8.9,21.2,8.9,21.2z"/>
	</g>
	<path d="M7.6,15.1c-0.1,0-0.1,0.1-0.1,0.1c0,0.1,0.1,0.1,0.1,0.1s0.1-0.1,0.1-0.1C7.7,15.1,7.6,15.1,7.6,15.1
		C7.6,15.1,7.6,15.1,7.6,15.1z M7.6,15.1C7.6,15.1,7.7,15.2,7.6,15.1c0.1,0.1,0.1,0.2,0,0.2c-0.1,0-0.1,0-0.1-0.1l0,0
		C7.5,15.2,7.5,15.1,7.6,15.1C7.6,15.1,7.6,15.1,7.6,15.1z"/>
</g>
</svg>
