<svg xmlns="http://www.w3.org/2000/svg" width="40" height="40" viewBox="0 0 40 40">
    <g fill="none" fill-rule="evenodd">
        <g>
            <g>
                <g fill="#D0D0D5" fill-rule="nonzero">
                    <path d="M20 0c11.046 0 20 8.954 20 20s-8.954 20-20 20S0 31.046 0 20 8.954 0 20 0zm0 1C9.507 1 1 9.507 1 20s8.507 19 19 19 19-8.507 19-19S30.493 1 20 1z" transform="translate(-318.000000, -720.000000) translate(318.000000, 720.000000)"/>
                </g>
                <g>
                    <path fill="#F90" d="M20 40c8.068 0 15.018-4.783 18.177-11.666H1.821C4.98 35.217 11.93 40 20 40" transform="translate(-318.000000, -720.000000) translate(318.000000, 720.000000)"/>
                    <path fill="#FA0000" d="M20 0C11.93 0 4.982 4.784 1.82 11.667h36.357C35.018 4.784 28.068 0 20 0" transform="translate(-318.000000, -720.000000) translate(318.000000, 720.000000)"/>
                    <path fill="#00A" d="M0 20c0 2.975.657 5.796 1.82 8.334h36.357C39.342 25.796 40 22.975 40 20c0-2.974-.658-5.796-1.823-8.333H1.82C.657 14.204 0 17.026 0 20" transform="translate(-318.000000, -720.000000) translate(318.000000, 720.000000)"/>
                </g>
            </g>
        </g>
    </g>
</svg>
