<svg xmlns="http://www.w3.org/2000/svg" width="40" height="40" viewBox="0 0 40 40">
    <g fill="none" fill-rule="evenodd">
        <g>
            <g transform="translate(-478.000000, -720.000000) translate(478.000000, 720.000000)">
                <circle cx="20" cy="20" r="20" fill="#FFF"/>
                <g fill="#D0D0D5" fill-rule="nonzero">
                    <path d="M20 0c11.046 0 20 8.954 20 20s-8.954 20-20 20S0 31.046 0 20 8.954 0 20 0zm0 1C9.507 1 1 9.507 1 20s8.507 19 19 19 19-8.507 19-19S30.493 1 20 1z"/>
                </g>
                <g>
                    <path fill="#F7E017" d="M20 40c5.99 0 11.352-2.648 15.016-6.821L.332 23.545C2.008 32.897 10.165 40 20 40M20 0C14.006 0 8.647 2.647 4.98 6.821l34.687 9.635C37.992 7.103 29.833 0 19.999 0"/>
                    <path fill="#000" d="M0 20c0 1.212.125 2.391.332 3.544l34.684 9.635c1.842-2.097 3.265-4.57 4.103-7.305L.61 15.176C.226 16.723 0 18.333 0 20"/>
                    <path fill="#040102" d="M19.912 7.658h.12c.192.017.382.114.499.271.142.181.171.442.074.651-.052.117-.138.207-.24.281-.066.03-.035.117-.045.176.21.026.414.072.598.167.218.1.4.258.575.418.116.1.27.16.418.206.173.064.37.039.549.044.083 0 .154.079.134.16-.027.084-.09.146-.153.204-.184.163-.381.298-.578.432.134.257.28.507.418.759-.177.035-.36.035-.531-.014-.364-.093-.699-.253-1.015-.454-.12-.073-.268-.083-.405-.096v.448c.348.007.716.014 1.033.182.17.086.318.238.398.42.236.46.37.99.299 1.507-.023.118-.054.257-.166.324-.126.061-.269-.02-.34-.126-.137-.198-.18-.437-.265-.656-.048.18-.08.364-.164.531-.05.094-.133.184-.243.182-.095.007-.172-.05-.216-.12-.106-.156-.152-.344-.215-.52-.034.112-.104.215-.1.332v.894c.271-.148.582-.216.888-.175.29.043.568.147.842.245.691.256 1.378.533 2.087.74.588.175 1.195.304 1.81.258.415.002.83-.053 1.25-.007.115.014.252.039.317.15.052.087.02.194-.043.267-.13.168-.32.279-.514.364.006.105-.025.218-.108.285-.225.196-.522.248-.802.305.013.111-.042.207-.122.274.83.925 1.348 2.107 1.554 3.33.32 1.861-.028 3.83-.964 5.47-.65 1.156-1.619 2.137-2.787 2.767-1.428.78-3.11 1.029-4.717.852-1.007-.113-2-.407-2.886-.908-.853-.48-1.598-1.141-2.188-1.923-1.312-1.758-1.84-4.06-1.488-6.216.202-1.229.698-2.424 1.536-3.353-.09-.072-.167-.17-.164-.293-.264-.05-.547-.105-.763-.276-.099-.073-.142-.195-.13-.314-.2-.087-.401-.202-.532-.382-.068-.085-.073-.228.014-.303.133-.11.318-.1.48-.116.648-.012 1.296.094 1.938-.018.757-.125 1.475-.384 2.189-.646.478-.177.947-.372 1.435-.509.378-.112.789-.043 1.143.13 0-.273-.003-.543 0-.813.007-.151-.084-.275-.124-.416-.064.172-.111.352-.21.508-.048.067-.111.13-.197.14-.117.007-.212-.073-.262-.167-.093-.165-.125-.355-.18-.536-.08.23-.111.49-.263.686-.078.1-.254.154-.355.054-.107-.11-.12-.27-.139-.415-.032-.411.04-.825.211-1.2.064-.157.136-.323.261-.448.137-.133.313-.22.493-.27.253-.062.517-.066.776-.071 0-.808.005-1.613 0-2.42-.146-.088-.272-.226-.32-.396-.052-.184-.015-.39.09-.55.113-.164.31-.266.505-.287"/>
                    <path fill="#CE1125" d="M19.82 7.882c.24-.093.535.047.62.29.065.177-.001.388-.153.5-.127.103-.306.127-.463.082-.182-.055-.333-.236-.333-.433-.004-.2.14-.383.33-.44M19.842 8.967c.097.008.196.006.29 0-.003.013-.01.044-.02.058-.073.012-.138.017-.214.022.004.605.024 1.209.024 1.814.064.011.138.022.21.022v.55c0 .036.008.074-.007.11-.075.043-.182.048-.26.005-.041-.026-.023-.076-.027-.116.004-.821-.004-1.644.004-2.465"/>
                    <path fill="#CE1125" d="M20.1 9.232c.358-.004.723.094 1.005.318.125.09.23.208.363.295.249.159.547.246.848.233-.192.176-.41.314-.614.47-.046.031-.093.088-.055.142.094.188.213.37.3.562-.31-.05-.613-.187-.89-.33-.128-.07-.243-.165-.384-.204-.177-.06-.372-.046-.551-.038-.022-.482-.02-.966-.022-1.448M18.838 11.597c.257-.08.528-.08.793-.096.02.115.097.22.211.252.135.041.311.034.418-.074.045-.04.055-.108.083-.162.319-.01.663.003.947.162-.291.123-.612.137-.923.157-.335.026-.668 0-1.005-.015-.232-.027-.469-.04-.685-.142.039-.041.106-.063.16-.082"/>
                    <path fill="#CE1125" d="M18.484 11.82c.034-.004.057.02.091.033.166.084.358.113.545.137.312.042.629.049.942.049.341 0 .69-.015 1.022-.084.135-.025.264-.077.384-.14.207.302.33.658.392 1.016.032.25.05.517-.063.75-.037-.034-.088-.072-.111-.122-.1-.185-.141-.395-.216-.587-.028-.07-.063-.145-.136-.172-.079-.026-.158.027-.184.1-.11.224-.096.503-.277.693-.182-.203-.2-.487-.312-.725-.02-.062-.094-.099-.16-.07-.055.027-.08.09-.1.147-.072.19-.121.402-.25.56-.04.054-.117.054-.154-.001-.148-.189-.19-.433-.294-.647-.034-.088-.172-.094-.213-.004-.119.239-.141.534-.318.74-.196-.203-.154-.516-.306-.74-.058-.09-.198-.075-.244.021-.123.224-.129.492-.253.717-.027.039-.066.066-.107.09-.12-.31-.087-.656-.021-.975.042-.171.1-.338.173-.495.05-.097.092-.209.17-.29M19.82 13.607c.107.053.232.043.333-.01v.755c-.114.024-.221.018-.33-.008-.004-.243 0-.489-.003-.737"/>
                    <path fill="#CE1125" d="M18.037 14.48c.238-.08.48-.172.725-.205.243-.017.477.029.698.13.17.077.357.17.551.161.18.001.34-.081.498-.16.283-.143.621-.176.921-.079.464.13.906.316 1.357.482.741.278 1.49.548 2.273.674.642.106 1.293.01 1.938.02.136.001.269.006.386.073-.192.24-.486.39-.792.425-.569.07-1.145.002-1.707-.072-.071-.02-.145.042-.125.117.005.072.09.08.148.087.576.073 1.172.14 1.758.057.043-.008.087-.008.131-.015-.091.137-.25.195-.404.242-.434.128-.883.15-1.333.124-.566-.039-1.12-.16-1.66-.33-.064-.025-.143.02-.143.09-.004.07.066.099.118.113.584.18 1.182.301 1.792.333.24.013.48-.006.723-.022-.035.1-.155.1-.246.117-.232.04-.459.09-.688.121-.55 0-1.107-.014-1.655-.132-.25-.057-.507-.14-.718-.286-.051-.04-.123-.01-.143.042-.047.075.046.132.1.169.384.23.83.305 1.274.356.278.029.561.042.841.05-.22.18-.525.166-.795.15-.53-.038-1.059-.13-1.57-.286-.3-.1-.604-.216-.841-.431-.04-.05-.131-.048-.16.016-.035.054.01.11.054.145.087.086.187.153.296.215.11.064.236.076.357.103.35.08.698.157 1.051.239-.006.12-.109.202-.216.218-.343.045-.678-.022-1-.12-.413-.137-.81-.35-1.108-.676-.032-.024-.056-.067-.1-.067-.08-.007-.143.096-.088.154.224.265.519.458.822.615-.39-.065-.781-.212-1.088-.47-.118-.104-.21-.232-.289-.36-.068.1-.131.203-.231.275-.247.186-.537.316-.836.402-.122.034-.248.069-.382.05-.047-.011-.089-.06-.07-.112.048-.125.153-.219.255-.3.389-.287.857-.46 1.323-.558.053-.01.103-.052.094-.112 0-.07-.087-.101-.149-.077-.473.098-.941.27-1.339.557.009-.047.036-.097-.001-.137-.042-.054-.125-.037-.17.008-.185.18-.427.28-.666.375-.329.116-.671.195-1.01.249-.325.053-.645.096-.97.093-.184-.005-.391-.031-.54-.158.51-.015 1.025-.041 1.52-.167.23-.057.45-.136.64-.271.045-.028.075-.065.062-.118 0-.053-.063-.07-.097-.09-.207.145-.445.24-.688.294-.513.121-1.037.149-1.56.153-.267.026-.525-.054-.791-.094-.116-.025-.26-.027-.332-.144.118 0 .237.02.358.022.713.025 1.42-.112 2.095-.31.05-.014.104-.03.152-.057.053-.038.045-.13-.01-.162-.034-.022-.07-.01-.111 0-.73.226-1.503.377-2.277.323-.261-.022-.52-.058-.76-.141-.129-.045-.27-.103-.345-.223.247.024.5.056.742.053.413-.012.827-.04 1.229-.112.112-.01.087-.206-.028-.189-.513.064-1.032.127-1.554.091-.204-.02-.415-.048-.591-.143-.146-.077-.298-.166-.38-.315.227-.085.478-.053.719-.058.319.013.645.03.968.028.422.006.838-.077 1.253-.177.862-.222 1.693-.571 2.535-.875"/>
                    <path fill="#CE1125" d="M16.917 17.415c.536-.117 1.093-.236 1.555-.552-.073.08-.146.163-.188.267-.032.072-.015.15-.015.226-.343.122-.702.21-1.063.185-.114 0-.22-.04-.29-.126M19.74 17.144c.072-.072.157-.12.233-.187.087.081.169.168.263.242 0 .28 0 .559-.002.84-.079-.087-.153-.19-.253-.26-.1.057-.164.164-.246.246 0-.293-.001-.588.005-.88"/>
                    <path fill="#CE1125" d="M25.235 17.12c.166-.033.328-.06.496-.094.684.717 1.15 1.622 1.418 2.566.506 1.817.314 3.805-.478 5.506-.558 1.21-1.444 2.275-2.567 2.998-.688.449-1.46.767-2.256.946-.875.199-1.786.25-2.682.159-.924-.094-1.84-.342-2.667-.763-.88-.451-1.655-1.093-2.266-1.87-1.254-1.592-1.815-3.688-1.623-5.703.107-1.156.486-2.3 1.16-3.253.137-.197.298-.385.456-.565.175.023.353.063.526.089-.606 1.107-.764 2.423-.561 3.659.158 1.005.557 1.975 1.16 2.795.53.72 1.233 1.32 2.04 1.71.95.464 2.025.638 3.066.566 1.002-.063 1.995-.376 2.82-.938.703-.466 1.275-1.101 1.703-1.82.52-.878.824-1.886.889-2.902.07-1.062-.125-2.15-.634-3.086"/>
                    <path fill="#CE1125" d="M14.936 17.22c.022-.039.054-.08.103-.058.06.065.098.15.172.193.21.14.471.168.717.164.264-.004.531-.04.792-.077.063.184.25.283.437.296.417.035.836-.064 1.226-.215.043-.017.079 0 .122.003.148.03.297-.007.434-.04.21-.054.403-.141.598-.233v1.038c.004.062-.021.122-.046.177-.044.096-.074.193-.109.289-.168-.251-.372-.503-.662-.612-.147-.057-.321-.03-.473-.009.094.13.21.236.308.358.151.177.19.413.212.633.058.595.066 1.19.062 1.787-.235-.097-.494-.072-.744-.032.129.18.321.297.433.487.128.244.146.528.159.798.036.459.018.922.036 1.377-.011.228-.005.455-.011.681-.288-.087-.592-.051-.885 0 .14.213.322.396.418.632.069.191.08.394.1.594-.861-.244-1.658-.72-2.294-1.359-1.361-1.377-1.98-3.435-1.646-5.342.1-.533.276-1.056.54-1.53M24.266 17.51c.245-.024.518-.113.633-.35.042.001.09.001.133.008.507.9.703 1.957.644 2.983-.062 1.037-.377 2.058-.92 2.939-.438.72-1.043 1.338-1.76 1.784-.413.26-.874.457-1.34.587 0-.194.025-.391.076-.577.089-.253.275-.444.42-.659-.308-.053-.637-.091-.939.026.007-.698.021-1.39.073-2.084.026-.26.037-.534.144-.777.09-.21.304-.328.447-.504-.241-.038-.492-.055-.727.024.015-.61.02-1.219.08-1.831.025-.22.072-.45.22-.62.105-.112.222-.216.319-.333-.175-.029-.375-.045-.55.029-.27.11-.479.33-.634.569-.035-.018-.04-.068-.054-.102-.031-.102-.095-.194-.093-.305.002-.328 0-.657.002-.985.345.183.732.316 1.126.316.106.01.203-.05.308-.017.31.084.64.142.968.101.166-.022.325-.127.381-.29.344.048.696.1 1.043.067"/>
                    <path fill="#CE1125" d="M19.637 18.624c.082-.207.187-.412.343-.575.195.223.321.495.41.78.055.167.079.342.13.516.08-.15.12-.318.209-.464.125-.218.298-.423.536-.524-.074.133-.152.267-.183.418-.069.347-.083.707-.1 1.057-.022.395-.009.793-.036 1.188-.054.075-.132.132-.19.206-.052.062-.08.143-.133.2-.08-.217-.166-.432-.293-.622-.1-.15-.217-.281-.35-.406-.307.274-.522.647-.637 1.042-.1-.142-.186-.293-.318-.403.006-.661-.003-1.324-.068-1.983-.024-.247-.097-.49-.245-.69.383.194.562.61.746.972.051-.24.089-.484.18-.712"/>
                    <path fill="#CE1125" d="M19.977 20.683c.249.25.395.59.48.93.048.175.073.356.119.529.109-.293.174-.62.392-.856.111-.13.271-.21.439-.232-.064.093-.135.184-.177.292-.103.27-.117.56-.146.848-.052.72-.064 1.444-.068 2.171-.123.09-.202.217-.296.336-.14-.418-.378-.815-.736-1.075-.201.144-.366.335-.486.548-.103.168-.17.348-.24.527-.095-.154-.21-.282-.354-.386.003-.766.018-1.533-.039-2.298-.016-.236-.042-.48-.153-.695-.042-.105-.119-.19-.19-.275.19.009.37.11.488.261.194.234.271.538.38.82.048-.139.062-.288.095-.43.075-.376.232-.73.492-1.015"/>
                    <path fill="#FBD014" d="M25.88 21.43c.139-.044.284-.016.43-.016.197.003.395.054.587.12.097.044.208.08.268.175-.198-.007-.358-.13-.542-.182-.241-.06-.494-.015-.736-.06 0-.011-.005-.028-.007-.038M13.191 21.542c.146-.038.307 0 .445.071.039.017.046.065.058.106-.07-.026-.133-.066-.21-.077-.128-.008-.239.09-.307.194-.097.169-.1.37-.108.562-.009.213.038.447.207.592.052.049.162.064.211-.005.085-.136.044-.328.161-.45.144-.106.34-.076.492-.004.149.078.29.224.276.4.006.2-.158.409-.37.375 0-.132.136-.216.14-.348.005-.119-.015-.256-.119-.333-.052-.034-.139-.062-.184-.002-.076.107-.012.253-.095.355-.046.06-.094.117-.157.146-.313.05-.643-.116-.77-.403-.127-.288-.1-.627.039-.906.059-.122.156-.234.291-.273M25.722 21.736c.013-.084.116-.073.18-.062.212.047.418.134.638.152.165.014.33.08.449.202.099.095.158.218.2.347-.07.089-.153.161-.222.247-.054.067-.062.161-.093.242-.064-.04-.076-.116-.118-.17-.078-.058-.21-.058-.226-.17.126-.022.261-.007.376-.07.11-.06.114-.22.04-.307-.117-.153-.32-.226-.51-.237-.2-.008-.398-.03-.58-.093-.052-.02-.102-.041-.134-.081M25.448 22.525l.005-.02c.187.038.351.144.53.21.213.089.432.176.643.29.052.034.123.063.145.131-.066.017-.13-.014-.187-.048-.117-.067-.232-.146-.355-.19-.242-.082-.498-.154-.711-.295-.023-.02-.072-.04-.07-.078M26.979 22.86c.067.115.099.25.08.38-.002.057-.065.068-.109.081-.048-.152-.048-.321.029-.461M25.453 22.985c.133 0 .257.048.382.092-.062.059-.129.114-.181.183.048.07.1.145.13.223-.086.006-.144-.073-.187-.141-.068-.11-.129-.226-.144-.357M26.13 23.208c.078.002.136.075.186.132.073.09.146.19.166.306.015.165-.099.302-.13.46 0 .104.126.172.105.281-.014.116-.074.228-.17.292-.123.011-.22-.11-.34-.071-.045.036-.032.108-.042.16-.01.175-.104.323-.151.485-.078.25-.177.488-.28.726-.027.06-.074.148-.158.133-.058-.026-.05-.109-.038-.164.076-.19.24-.327.32-.517.021-.064-.023-.142-.086-.164-.065-.02-.137-.019-.196-.035-.082-.058-.114-.153-.153-.234-.061-.12-.096-.258-.058-.388.024-.075.113-.121.188-.097.101.029.166.122.236.196.046.058.108.126.19.107.037-.034.053-.08.064-.126.021-.144.021-.288.021-.43.004-.069-.002-.148.05-.201.133-.15.354-.186.468-.35.061-.09 0-.198-.063-.265-.061-.068-.15-.14-.13-.236M13.07 23.304c.07-.023.142-.049.212-.018.028.065.028.136.056.197.062.057.14.083.184.147.031.079-.085.074-.13.051-.145-.087-.258-.223-.323-.377M13.758 23.698c.018-.068.095-.084.159-.084.066 0 .139.005.202.038-.028.094-.084.178-.07.276.008.046.019.108.07.12.214.047.426-.028.64 0 .07.084.039.204.008.298-.077.13-.271.076-.378.156-.03.094.027.192.075.277.067.105.142.219.27.252.064.004.124-.026.182-.055.186-.104.337-.26.492-.402.093-.083.23-.09.338-.04-.248.16-.47.364-.721.524-.204.125-.506.128-.666-.065-.09-.083-.096-.246-.23-.284-.185-.037-.377.028-.565-.015-.13-.05-.097-.228-.044-.322.104-.06.238-.026.333-.098.073-.049.054-.148.029-.216-.051-.12-.113-.231-.124-.36"/>
                    <path fill="#CE1125" d="M19.299 25.308c.132-.511.275-1.064.685-1.429.285.255.461.598.569.958.052.156.086.315.136.476.08-.182.125-.38.23-.546.094-.147.222-.276.382-.334.157-.06.324-.068.489-.052-.104.15-.216.307-.26.49-.053.209-.072.428-.084.646-.95.228-1.959.224-2.906-.01-.02-.229-.035-.457-.102-.676-.055-.168-.163-.312-.267-.455.188-.01.381-.006.56.074.166.082.291.234.377.397.078.15.117.314.19.461M14.355 24.164c.076-.045.21.027.181.124-.028.093-.158.108-.238.074-.07-.054-.009-.162.057-.198M26.09 24.195c.14-.061.262.148.176.253-.099.024-.207-.024-.247-.115-.028-.06.009-.123.072-.138M13.723 24.508c.046-.083.133-.151.236-.135.068.04.056.14 0 .18-.059.057-.138.046-.2.029-.013-.02-.032-.055-.036-.074"/>
                    <path fill="#FBD014" d="M15.394 25.027c.15-.15.335-.266.534-.333-.006.073-.064.12-.107.165-.174.153-.354.293-.516.457-.08.077-.145.182-.13.295.001.114.104.216.22.216.145-.066.148-.27.287-.337.059-.03.12-.01.176-.002-.085.3-.44.513-.746.416-.138-.052-.2-.194-.236-.321.091-.249.34-.38.518-.556"/>
                    <path fill="#CE1125" d="M25.297 24.72c.04-.036.097.01.136.034.062.055.138.13.12.222-.054.053-.141.082-.21.041-.106-.048-.137-.216-.046-.297"/>
                    <path fill="#FBD014" d="M24.639 25.037c.143-.02.273.064.37.166.092.101.158.239.137.38-.044.263-.234.502-.476.61-.128.058-.287.058-.405-.018-.16-.095-.23-.29-.204-.469.044.059.073.137.129.19.106.068.24.064.36.037.206-.041.392-.182.476-.376.02-.055.041-.135-.016-.18-.05-.018-.104-.025-.16-.043-.122-.04-.235-.159-.211-.297"/>
                    <path fill="#FBD014" d="M24.22 25.084c.098.06.14.167.173.268-.138.003-.172-.158-.172-.268M23.146 25.411c.25.158.393.435.532.686.088.165.184.322.224.503-.113-.065-.175-.181-.24-.285-.11-.187-.215-.375-.326-.562-.064-.117-.147-.216-.19-.342M22.808 25.585c.005-.066.086-.087.127-.038.112.107.181.245.254.38.105.217.232.436.258.68.016.135.04.273.008.406-.062.129-.225.102-.324.155-.09.08-.13.199-.204.286-.075.098-.217.162-.338.111-.096-.036-.148-.133-.231-.188-.041-.032-.077-.005-.109.012-.149.102-.263.252-.428.328-.182.036-.287-.193-.458-.181-.14.055-.122.265-.269.311-.158.063-.327.07-.494.087-.098.01-.215.002-.29-.07-.06-.06-.106-.126-.168-.182-.086.047-.158.13-.236.196-.075.062-.198.094-.28.027-.066-.063-.084-.152-.153-.219-.072-.016-.111.062-.163.102-.098.11-.262.163-.4.1-.076-.034-.09-.121-.121-.191-.017-.048-.043-.108-.107-.094-.125.022-.177.166-.304.19-.103.014-.212.01-.296-.045-.072-.043-.06-.132-.087-.198-.021-.096-.08-.178-.093-.271.033-.057.091-.1.124-.158.026-.058.036-.12.058-.177.025-.012.052-.02.078-.026.01.168-.009.333.013.5.017.097.117.134.201.147.054 0 .117.017.164-.007.126-.127.168-.317.302-.443.034-.032.102-.032.113.024.02.119-.037.238-.008.357.058.124.208.233.345.174.141-.115.16-.312.282-.445l.028.005c.049.087-.017.2.023.291.048.12.193.165.308.163.073.006.123-.057.149-.119.047-.107.072-.232.137-.333.082.126.005.31.132.41.138.066.299.048.45.04.111-.019.25-.019.34-.1.067-.15-.143-.271-.09-.417.1-.138.274-.179.43-.214.08-.017.194-.046.241.038.046.115-.047.222-.062.333.031.127.214.183.316.095.148-.115.234-.287.35-.435.094-.121.203-.26.366-.283.18-.007.348.093.518.128.047.004.097.01.145-.015.064-.07.025-.175-.007-.256-.118-.251-.284-.476-.442-.7-.054-.08-.105-.173-.098-.27M15.905 26.018c.06-.044.122-.104.199-.095.005.01.01.029.01.041-.075.09-.214.169-.166.31.108.292.407.515.728.518.07 0 .072-.083.08-.133.005-.079-.02-.174.032-.24.045-.057.118-.051.18-.036.02.142-.028.29-.135.384-.156.129-.37.158-.562.129-.176-.055-.346-.154-.449-.31-.074-.098-.17-.214-.128-.345.05-.093.134-.157.211-.223M16.54 26.15c-.003-.13.127-.19.226-.236.011.13-.105.231-.226.236M14.752 26.095c.086-.095.22-.06.324-.021-.073.105-.232.098-.324.02"/>
                    <path fill="#FBD014" d="M17.03 26.803c.075-.151.23-.277.402-.306.126.017.176.155.187.262 0 .096-.052.23-.163.241-.1-.066.024-.221-.065-.3-.065-.053-.18-.048-.21.04-.036.098-.022.211-.01.314.04.137.152.25.282.299.132.02.266-.008.393.02-.007.05-.013.115-.077.132-.154.064-.364.1-.485-.035-.088-.087-.21-.131-.33-.131-.229.014-.466.03-.689-.041-.026-.014-.075-.019-.075-.055-.013-.107.11-.171.196-.158.16.036.277.162.435.19.055.009.119-.023.143-.077.036-.128-.007-.274.065-.395M18.061 26.596c.034-.042.094-.016.142-.016-.018.093-.074.181-.161.23-.038-.068-.038-.158.02-.214"/>
                    <path fill="#CE1125" d="M22.672 26.877c.13-.067.255.055.303.16.046.174-.111.332-.262.38-.09.034-.18-.045-.194-.129-.025-.149.01-.336.153-.411"/>
                    <path fill="#040102" d="M6.818 17.306c.002-.12.052-.256.172-.292.16-.045.286.07.377.18.068-.058.147-.122.238-.112.121.004.215.097.28.184.057-.027.115-.06.177-.053.118.011.204.097.283.176.067-.051.143-.115.23-.102.128.014.21.124.269.228.146.3.19.64.22.971.146.063.286.162.39.283.2.286.444.538.69.79.16.144.351.26.514.405.176.15.36.32.455.541.054.128.028.276.04.412.002.742.014 1.48.019 2.22.02.63.012 1.26.03 1.89.131.022.268.11.271.251.02.117-.053.212-.12.301.071.09.12.197.117.313.003.109-.062.202-.133.282.081.081.147.188.14.303.012.174-.125.302-.256.389-.008.117-.001.234-.01.355.002.11-.098.184-.18.237-.237.128-.509.15-.771.161-.321.022-.646 0-.964-.054-.182-.042-.392-.085-.523-.235-.048-.145 0-.303-.017-.45-.118-.101-.24-.233-.245-.401-.012-.121.043-.236.123-.324-.05-.082-.098-.168-.112-.261-.018-.126.036-.253.116-.351-.128-.151-.108-.394.037-.526.059-.056.14-.08.215-.098.008-.526.014-1.053.008-1.578-.004-.494 0-.989-.05-1.48-.014-.164-.123-.287-.23-.396-.381-.4-.85-.725-1.164-1.188-.146-.216-.223-.474-.297-.729-.172-.648-.287-1.316-.339-1.981v-.261z"/>
                    <path fill="#CE1125" d="M7.035 17.227c.017-.054.082-.002.108.022.181.18.257.442.29.686.015.137-.015.274-.021.409.03.058.08.102.115.157.2.247.359.529.428.84.042.136.024.316.157.408.258.2.565.332.844.512.095.069.202.14.252.258.035.065.066.167.16.163.075.007.12-.078.109-.144-.021-.188-.067-.376-.12-.56-.06-.175-.101-.353-.206-.509-.13-.198-.268-.403-.335-.64-.005-.065-.03-.183.067-.173.168.007.32.127.427.254.138.198.303.373.464.552.127.137.254.282.413.387.231.177.477.35.652.584.073.088.124.192.116.307.002 1.317.032 2.637.037 3.954 0 .114.007.224.017.337-.192.08-.384.18-.594.216-.238.037-.483.057-.717-.011-.215-.062-.408-.162-.606-.26.006-.97.024-1.937-.029-2.908-.013-.158-.012-.327-.093-.47-.117-.203-.293-.36-.46-.514-.317-.29-.658-.573-.898-.937-.177-.269-.246-.595-.329-.902-.112-.471-.199-.954-.246-1.437-.01-.193-.053-.39-.002-.581"/>
                    <path fill="#CE1125" d="M7.527 17.323c.033-.065.115-.04.15.005.098.097.131.234.167.365.046.236.048.483.046.724.228.156.361.405.478.644.073.163.148.327.155.509.218.045.403.18.552.338.075.077.117.181.133.286-.318-.23-.685-.385-.999-.619-.033-.139-.052-.279-.09-.413-.104-.322-.288-.613-.503-.871.026-.246.02-.5-.068-.736-.025-.072-.078-.16-.02-.232"/>
                    <path fill="#CE1125" d="M8.009 17.558c-.02-.058-.005-.111.022-.159.175.08.264.258.325.425.046.144.052.295.044.442-.004.177.056.358.159.503.037.05.068.103.088.162.066.22.187.416.312.607-.083-.043-.168-.08-.246-.131-.11-.346-.261-.683-.5-.964-.046-.066-.137-.11-.126-.205 0-.23-.011-.459-.078-.68M8.436 17.605c.034-.043.073-.09.116-.122.094.043.126.152.166.238.084.233.13.48.135.729-.07.018-.135.055-.197.096-.108-.215-.01-.463-.085-.688-.035-.085-.096-.165-.135-.253M8.864 25.134c.068-.018.129.018.192.044.26.13.516.258.808.288.338.031.693-.015 1.002-.157.115-.054.247-.123.373-.062.053.014.042.092.014.134-.078.109-.2.184-.318.248-.261.127-.562.182-.855.18-.397.01-.8-.068-1.141-.28-.075-.053-.164-.103-.194-.195-.005-.083.041-.173.119-.2"/>
                    <path fill="#CE1125" d="M8.735 25.928c-.033-.086-.01-.19.058-.253.371.244.82.336 1.259.33.327.002.658-.05.948-.189.072-.031.132-.083.206-.096.063.05.075.145.055.22-.073.136-.221.21-.354.271-.586.236-1.262.224-1.844-.015-.125-.06-.278-.122-.328-.268"/>
                    <path fill="#CE1125" d="M8.835 26.68c-.133-.084-.178-.299-.042-.397.45.245.968.323 1.477.283.31-.03.613-.105.885-.258.056.031.126.07.117.142.03.153-.131.233-.244.293-.47.208-1.014.246-1.518.16-.236-.042-.473-.098-.675-.224"/>
                    <path fill="#CE1125" d="M8.956 26.96c.658.24 1.404.247 2.064.008-.002.083.004.17-.013.257-.103.105-.251.132-.393.16-.375.056-.766.056-1.144.007-.18-.028-.372-.058-.528-.163l.014-.268"/>
                    <path fill="#040102" d="M33.182 17.306c-.003-.12-.053-.256-.173-.292-.157-.045-.287.07-.377.18-.07-.058-.148-.122-.237-.112-.122.004-.213.097-.283.184-.056-.027-.112-.06-.176-.053-.118.011-.201.097-.281.176-.068-.051-.145-.115-.23-.102-.126.014-.21.124-.267.228-.15.3-.192.64-.223.971-.146.063-.285.162-.39.283-.198.286-.444.538-.69.79-.16.144-.35.26-.512.405-.178.15-.358.32-.456.541-.052.128-.027.276-.039.412-.004.742-.013 1.48-.016 2.22-.023.63-.018 1.26-.032 1.89-.135.022-.27.11-.274.251-.02.117.052.212.12.301-.07.09-.12.197-.116.313-.004.109.062.202.132.282-.081.081-.141.188-.136.303-.015.174.12.302.254.389.005.117 0 .234.01.355-.005.11.096.184.18.237.237.128.509.15.768.161.327.022.647 0 .965-.054.184-.042.395-.085.527-.235.047-.145 0-.303.016-.45.12-.101.242-.233.242-.401.012-.121-.04-.236-.122-.324.05-.082.1-.168.11-.261.02-.126-.033-.253-.11-.351.123-.151.103-.394-.038-.526-.059-.056-.142-.08-.218-.098-.008-.526-.012-1.053-.008-1.578.003-.494 0-.989.054-1.48.011-.164.121-.287.228-.396.382-.4.852-.725 1.161-1.188.148-.216.225-.474.298-.729.172-.648.29-1.316.339-1.981v-.261z"/>
                    <path fill="#CE1125" d="M32.967 17.227c-.019-.054-.085-.002-.11.022-.183.18-.257.442-.29.686-.017.137.013.274.02.409-.03.058-.08.102-.115.157-.2.247-.36.529-.426.84-.042.136-.03.316-.157.408-.26.2-.568.332-.844.512-.098.069-.2.14-.254.258-.033.065-.064.167-.156.163-.08.007-.124-.078-.11-.144.018-.188.066-.376.12-.56.054-.175.1-.353.203-.509.13-.198.269-.403.336-.64.009-.065.03-.183-.067-.173-.17.007-.32.127-.425.254-.143.198-.306.373-.465.552-.129.137-.254.282-.413.387-.233.177-.476.35-.652.584-.074.088-.125.192-.114.307-.007 1.317-.033 2.637-.041 3.954 0 .114-.007.224-.016.337.194.08.387.18.593.216.238.037.487.057.718-.011.213-.062.408-.162.61-.26-.013-.97-.028-1.937.023-2.908.017-.158.012-.327.097-.47.119-.203.289-.36.456-.514.32-.29.659-.573.904-.937.171-.269.24-.595.324-.902.115-.471.2-.954.246-1.437.011-.193.053-.39.005-.581"/>
                    <path fill="#CE1125" d="M32.472 17.323c-.033-.065-.111-.04-.148.005-.096.097-.131.234-.167.365-.047.236-.051.483-.047.724-.227.156-.36.405-.48.644-.072.163-.142.327-.154.509-.214.045-.399.18-.551.338-.077.077-.118.181-.134.286.32-.23.685-.385 1-.619.033-.139.053-.279.092-.413.103-.322.283-.613.504-.871-.026-.246-.024-.5.065-.736.025-.072.078-.16.02-.232"/>
                    <path fill="#CE1125" d="M31.991 17.558c.02-.058.005-.111-.024-.159-.172.08-.261.258-.325.425-.048.144-.05.295-.043.442.01.177-.054.358-.157.503-.037.05-.066.103-.086.162-.069.22-.188.416-.316.607.086-.043.168-.08.247-.131.11-.346.26-.683.494-.964.052-.066.146-.11.133-.205 0-.23.013-.459.077-.68M31.563 17.605c-.031-.043-.066-.09-.114-.122-.094.043-.128.152-.167.238-.084.233-.127.48-.132.729.068.018.132.055.195.096.111-.215.01-.463.084-.688.038-.085.092-.165.134-.253M31.137 25.134c-.066-.018-.134.018-.194.044-.256.13-.516.258-.802.288-.344.031-.695-.015-1.006-.157-.116-.054-.248-.123-.371-.062-.058.014-.044.092-.014.134.078.109.196.184.317.248.262.127.561.182.854.18.395.01.801-.068 1.14-.28.076-.053.167-.103.194-.195.007-.083-.04-.173-.118-.2"/>
                    <path fill="#CE1125" d="M31.266 25.928c.035-.086.011-.19-.062-.253-.368.244-.819.336-1.256.33-.326.002-.654-.05-.949-.189-.072-.031-.133-.083-.203-.096-.063.05-.076.145-.057.22.07.136.221.21.355.271.586.236 1.26.224 1.841-.015.133-.06.283-.122.33-.268"/>
                    <path fill="#CE1125" d="M31.167 26.68c.133-.084.176-.299.037-.397-.446.245-.97.323-1.477.283-.305-.03-.611-.105-.884-.258-.054.031-.123.07-.117.142-.028.153.135.233.245.293.475.208 1.019.246 1.517.16.24-.042.473-.098.68-.224"/>
                    <path fill="#CE1125" d="M31.046 26.96c-.66.24-1.406.247-2.062.008.001.083-.01.17.012.257.103.105.25.132.39.16.378.056.769.056 1.146.007.176-.028.367-.058.525-.163-.005-.09-.007-.178-.011-.268"/>
                    <path fill="#040102" d="M25.63 27.128c.076-.067.155-.146.266-.137.144.01.259.127.348.234.204.266.27.603.29.928.019.292.188.553.41.736.258-.169.487-.401.616-.691.06-.005.116-.011.175-.005.062.092.093.199.108.304.04.26.01.526-.051.776.43.042.849.227 1.147.546.13.144.257.3.331.484-.03.05-.077.093-.113.137-.276-.09-.556-.145-.84-.177-.359-.046-.725-.015-1.062.11-.622.235-1.049.792-1.664 1.047-.333.154-.705.207-1.062.245-.378.037-.763.059-1.129-.053-.957.498-2.037.696-3.112.73h-.755c-1.028-.034-2.065-.235-2.981-.719-.134.042-.276.068-.415.073-.412.017-.821-.034-1.225-.108-.423-.082-.818-.291-1.16-.553-.363-.269-.716-.575-1.157-.704-.524-.16-1.085-.078-1.606.057-.082.018-.185.079-.243-.012.01-.081-.012-.175.042-.246.095-.157.22-.302.359-.43.283-.248.655-.389 1.027-.427-.086-.355-.133-.763.058-1.091.063.005.122.011.178.019.126.28.34.527.61.674.156-.12.276-.282.35-.467.068-.165.055-.353.088-.53.047-.273.148-.552.343-.746.096-.085.222-.176.352-.126.104.062.181.158.27.241.513.55 1.082 1.06 1.723 1.462.799.52 1.7.873 2.637 1.024 1.522.25 3.131-.006 4.489-.738.567-.304 1.097-.688 1.576-1.124.271-.237.515-.498.783-.743"/>
                    <path fill="#CE1125" d="M13.852 27.38c.056-.075.118-.158.215-.19.072.039.12.108.173.162.566.596 1.188 1.147 1.886 1.582.86.534 1.832.896 2.839 1.024 1.504.2 3.075-.07 4.415-.799.618-.332 1.186-.754 1.699-1.23.275-.244.519-.522.8-.753.235.113.345.367.407.605.06.224.034.468.118.69.064.162.161.306.268.44-.329.1-.625.275-.906.466-.298.205-.539.48-.792.736-.335.357-.69.694-1.097.973-.489.344-1.046.605-1.626.768-.677.198-1.384.273-2.088.295-.898.018-1.815-.06-2.676-.346-.715-.231-1.374-.62-1.93-1.125-.329-.287-.608-.616-.914-.92-.312-.32-.69-.572-1.095-.762-.081-.045-.174-.052-.245-.11.16-.188.285-.412.313-.66.028-.293.066-.6.236-.845"/>
                    <path fill="#FBD014" d="M25.145 27.94c.011-.069.07-.088.122-.105.05.144.077.299.06.45-.043.138-.152.24-.205.37-.032.065.009.141.03.208.075.17.128.357.102.544-.029.168-.08.348-.196.474.001-.243.158-.478.073-.72-.053-.191-.232-.355-.185-.566.058-.162.22-.255.303-.392.016-.05.018-.116-.031-.145-.04-.042-.073-.117-.073-.117M13.645 28.309c.028-.034.051-.066.096-.087.176.093.185.325.336.438.195.14.437.244.682.208.157-.017.34-.029.48.062.09.056.094.181.047.27-.126.207-.417.283-.628.158-.09-.067-.06-.187-.075-.283-.004-.075-.083-.108-.142-.13-.166-.052-.354-.07-.481-.19-.15-.13-.281-.245-.315-.446M25.539 28.66c-.091-.066-.08-.206-.044-.294.023-.07.067.026.08.052.033.081 0 .168-.036.242"/>
                    <path fill="#CE1125" d="M12.326 28.482c.08.096.148.205.238.295.1.099.219.181.336.27.01.145.09.268.184.378.22.262.491.471.765.667.39.27.81.511 1.268.636.104.038.234.012.313.1.264.247.566.452.862.657-.438.046-.874-.009-1.303-.086-.373-.064-.72-.234-1.024-.452-.369-.267-.718-.582-1.148-.748-.429-.17-.902-.183-1.347-.114-.164.02-.32.066-.481.088.199-.282.475-.508.806-.618.16-.059.33-.072.502-.092.046-.024.07-.08.108-.121-.092-.277-.141-.574-.079-.86M27.553 28.593c.03-.035.046-.078.093-.096.06.282-.008.568-.074.84.021.05.05.088.082.13.522.004 1.035.266 1.315.708-.232-.042-.466-.1-.701-.117-.421-.042-.86.012-1.243.196-.548.253-.952.744-1.507.985-.362.165-.759.206-1.148.246-.23.008-.464.021-.695-.014.102-.091.227-.149.336-.232.203-.136.384-.304.58-.46.508-.073.964-.322 1.392-.6.261-.17.514-.364.74-.582.15-.151.323-.324.345-.55.183-.129.357-.268.485-.454"/>
                    <path fill="#FBD014" d="M24.241 28.951c.044-.107.154-.166.253-.188.09-.019.162.043.218.1.142.163.194.387.183.599-.01.192-.01.396-.098.573-.07.14-.141.284-.237.408-.026.037-.073.052-.118.072-.012-.165.115-.282.188-.414.125-.177.16-.404.178-.615.009-.109.02-.228-.029-.326-.028-.01-.056-.003-.07.023-.083.108-.112.256-.24.319-.14.013-.267-.175-.203-.302.081-.026.103.106.181.08.113-.066.178-.223.12-.345-.028-.005-.07-.005-.088.019-.08.063-.148.142-.22.207-.032-.065-.045-.141-.018-.21M15.778 28.876c.05-.003.102-.013.15-.008.057.053.057.136.059.207-.002.178-.046.358-.143.505-.064.108-.16.184-.221.291-.018.027-.021.056-.018.087.093.042.205.004.277-.06.144-.129.273-.274.41-.407.08-.075.16-.157.265-.195 0 .054-.006.113-.04.16-.132.216-.308.425-.296.69 0 .16.137.268.266.34.159.088.333.146.513.151.166-.01.23-.186.315-.299.036-.054.086 0 .107.04-.027.089-.097.164-.102.256.003.08.075.125.14.155.062.028.132.06.202.04.094-.063.107-.197.203-.261.065.014.044.09.044.142-.002.08-.028.173.033.237.067.056.183.083.25.009.058-.075.07-.18.128-.254.038-.012.077.006.094.047.044.126.044.273.132.383.068.078.174.09.268.069.051-.016.051-.088.062-.132.01-.272-.062-.537-.023-.806 0-.124.225-.107.215.016.01.135-.015.272-.015.409.003.183-.015.386-.135.537-.1.128-.281.213-.444.16-.095-.032-.121-.154-.213-.2-.12-.037-.251-.01-.366-.003-.1.011-.155-.094-.243-.117-.1-.028-.2-.012-.297-.022-.085-.07-.121-.2-.229-.254-.173-.12-.39.006-.583-.051-.187-.048-.388-.126-.492-.297-.068-.103-.05-.227-.052-.345.009-.04-.033-.064-.062-.087-.127.035-.254.085-.394.085-.135.004-.264-.075-.389-.141-.13-.085-.278-.17-.347-.325.16-.048.315.051.452.127.088.055.205.042.284-.017.13-.082.216-.213.255-.358.039-.165-.001-.334-.02-.504"/>
                    <path fill="#CE1125" d="M14.895 28.983c.095-.01.228.082.18.19-.032.068-.115.092-.186.077-.05-.073-.074-.215.006-.267M13.331 29.407c-.087-.101-.197-.203-.228-.342.2.027.388.115.563.214.302.172.594.364.838.617.196.2.39.41.583.612-.366-.105-.713-.307-1.031-.518-.258-.171-.504-.362-.725-.583M26.286 29.291c.181-.096.37-.206.583-.206-.109.227-.303.388-.486.552-.392.325-.828.605-1.295.803-.072.03-.142.05-.22.067.21-.216.421-.437.636-.65.225-.232.5-.41.782-.566"/>
                    <path fill="#FBD014" d="M23.614 29.212c.04-.007.057.041.079.061.034.047.1.053.121.113.009.053.005.147-.068.15-.028-.043-.042-.08-.059-.122-.092-.025-.104-.122-.073-.202M23.41 29.291c.01.003.037.007.053.015.006.061.017.13-.004.187-.019.017-.04.017-.063-.002-.029-.061-.01-.135.013-.2M23.845 29.514c-.008-.055.04-.092.063-.128.053.101.073.215.119.318.049.1.195.046.254.139.009.044-.031.081-.064.102-.066.054-.153.028-.227.035-.127.005-.213.118-.333.116-.04-.05.03-.088.06-.116.07-.065.181-.112.206-.213.006-.092-.067-.163-.078-.253M23.881 30.452c.117-.126.142-.3.239-.443.042-.024.066.025.08.06.035.104 0 .218-.06.305-.125.187-.316.322-.493.458-.228.173-.516.256-.803.222-.134-.031-.21-.164-.232-.29-.023-.127-.03-.263.035-.37.028.126.015.286.133.382.143.095.332.08.492.04.233-.06.446-.187.61-.364M19.593 30.43c.02-.078.08-.124.14-.167.03.188.002.383.016.575.012.171.024.348-.036.514-.009.045-.056.065-.09.086-.031-.172.03-.349.002-.523-.015-.16-.088-.33-.032-.486M20.53 30.338c.055-.024.078.046.099.082.083.218.106.447.122.674.008.135.019.279-.03.407-.01.033-.045.046-.066.065-.025-.157-.014-.317-.032-.472-.025-.225-.122-.442-.134-.665 0-.03.007-.081.042-.091M21.265 30.68c-.093-.042-.093-.19-.01-.239.269.022.524.303.435.577-.074.243-.338.384-.582.387-.056.004-.092-.049-.126-.077.111-.168.33-.157.498-.197.08-.017.182-.096.13-.184-.067-.14-.217-.193-.345-.267M23.97 30.744c.05-.027.129-.027.17.024.035.144-.28.152-.217.007l.047-.03"/>
                    <path fill="#FBD014" d="M20.194 30.85c.063.044.107.112.11.191.016.226-.14.422-.323.531-.316.188-.71.177-1.044.057l-.026-.035c.296-.032.6.037.898-.047.145-.038.272-.14.324-.28.06-.132.039-.279.06-.418M23.717 30.869c.108-.083.169.144.07.185-.098.012-.13-.127-.07-.185"/>
                </g>
            </g>
        </g>
    </g>
</svg>
