<svg xmlns="http://www.w3.org/2000/svg" width="40" height="40" viewBox="0 0 40 40">
    <g fill="none" fill-rule="evenodd">
        <g>
            <g>
                <path fill="#007FFF" d="M20.002 40C31.047 40 40 31.046 40 20c0-1.548-.193-3.047-.524-4.494L5.417 33.656C9.066 37.551 14.241 40 20.002 40M20.002 0C8.954 0 0 8.954 0 20c0 1.55.194 3.052.526 4.5L34.587 6.347C30.94 2.45 25.763 0 20.002 0" transform="translate(-798.000000, -720.000000) translate(798.000000, 720.000000)"/>
                <path fill="#F7D618" d="M5.417 33.656l34.06-18.15c-.123-.53-.255-1.058-.419-1.572L4.35 32.431c.335.424.696.83 1.067 1.225" transform="translate(-798.000000, -720.000000) translate(798.000000, 720.000000)"/>
                <path fill="#CE1021" d="M4.35 32.43l34.708-18.496c-.744-2.338-1.91-4.483-3.402-6.358L.944 26.073c.744 2.335 1.911 4.48 3.406 6.357" transform="translate(-798.000000, -720.000000) translate(798.000000, 720.000000)"/>
                <path fill="#F7D618" d="M.526 24.5c.123.531.254 1.058.418 1.572L35.655 7.575c-.338-.425-.695-.83-1.068-1.228L.526 24.5zM5.853 14.445L8.491 12.529 11.126 14.445 10.121 11.345 12.756 9.429 9.497 9.429 8.491 6.33 7.484 9.429 4.224 9.429 6.861 11.345z" transform="translate(-798.000000, -720.000000) translate(798.000000, 720.000000)"/>
            </g>
        </g>
    </g>
</svg>
