<?xml version="1.0" encoding="utf-8"?>
<!-- Generator: Adobe Illustrator 16.0.0, SVG Export Plug-In . SVG Version: 6.00 Build 0)  -->
<!DOCTYPE svg PUBLIC "-//W3C//DTD SVG 1.1//EN" "http://www.w3.org/Graphics/SVG/1.1/DTD/svg11.dtd">
<svg version="1.1" id="Layer_1" xmlns="http://www.w3.org/2000/svg" xmlns:xlink="http://www.w3.org/1999/xlink" x="0px" y="0px"
	 width="40px" height="40px" viewBox="0 0 40 40" enable-background="new 0 0 40 40" xml:space="preserve">
<g>
	<g>
		<circle fill="#DE2910" cx="20" cy="20.001" r="20"/>
		<g>
			<g>
				<g>
					<polygon fill="#FFDE00" points="8.922,7.902 10.212,11.887 14.406,11.887 11.016,14.352 12.309,18.339 8.922,15.875 
						5.526,18.339 6.822,14.352 3.431,11.887 7.625,11.887 					"/>
				</g>
				<polygon fill="#FFDE00" points="19.843,5.82 19.756,7.199 21.035,7.708 19.699,8.047 19.609,9.426 18.871,8.262 17.534,8.602 
					18.416,7.539 17.682,6.374 18.963,6.883 				"/>
				<polygon fill="#FFDE00" points="24.552,10.286 23.922,11.516 24.896,12.493 23.535,12.273 22.903,13.502 22.691,12.139 
					21.328,11.922 22.559,11.299 22.35,9.935 23.32,10.911 				"/>
				<polygon fill="#FFDE00" points="23.138,15.877 23.558,17.19 24.938,17.191 23.821,18.001 24.248,19.314 23.135,18.502 
					22.015,19.312 22.441,18.001 21.328,17.19 22.708,17.191 				"/>
				<polygon fill="#FFDE00" points="19.833,20.089 19.743,21.465 21.026,21.976 19.688,22.314 19.599,23.692 18.861,22.527 
					17.523,22.867 18.405,21.807 17.67,20.641 18.954,21.152 				"/>
			</g>
		</g>
	</g>
</g>
</svg>
