<?xml version="1.0" encoding="utf-8"?>
<!-- Generator: Adobe Illustrator 16.0.0, SVG Export Plug-In . SVG Version: 6.00 Build 0)  -->
<!DOCTYPE svg PUBLIC "-//W3C//DTD SVG 1.0//EN" "http://www.w3.org/TR/2001/REC-SVG-20010904/DTD/svg10.dtd">
<svg version="1.0" id="Layer_1" xmlns="http://www.w3.org/2000/svg" xmlns:xlink="http://www.w3.org/1999/xlink" x="0px" y="0px"
	 width="40px" height="40px" viewBox="0 0 40 40" enable-background="new 0 0 40 40" xml:space="preserve">
<g>
	<path fill="#002B7F" d="M20,40c5.915,0,11.214-2.585,14.876-6.667H5.124C8.786,37.415,14.085,40,20,40z"/>
	<path fill="#CE1126" d="M0,20c0,2.341,0.423,4.578,1.162,6.667h37.676C39.577,24.578,40,22.341,40,20s-0.423-4.579-1.162-6.667
		H1.162C0.423,15.421,0,17.659,0,20z"/>
	<path fill="#002B7F" d="M20,0C14.085,0,8.786,2.584,5.124,6.667h29.752C31.214,2.584,25.915,0,20,0z"/>
	<path fill="#FFFFFF" d="M5.124,6.667c-1.727,1.924-3.081,4.18-3.961,6.667h37.676c-0.881-2.487-2.234-4.743-3.962-6.667H5.124z"/>
	<path fill="#FFFFFF" d="M5.124,33.333h29.752c1.728-1.924,3.081-4.18,3.962-6.666H1.162C2.042,29.153,3.397,31.409,5.124,33.333z"
		/>
</g>
<g>
	<path fill="#D0D0D5" d="M5.123,6.667c-1.726,1.924-3.08,4.18-3.961,6.667H2.23c0.948-2.517,2.399-4.787,4.254-6.667H5.123z"/>
	<path fill="#D0D0D5" d="M33.516,6.667c1.854,1.88,3.306,4.15,4.254,6.667h1.068c-0.881-2.487-2.234-4.743-3.961-6.667H33.516z"/>
</g>
<g>
	<path fill="#D0D0D5" d="M6.484,33.333c-1.855-1.88-3.306-4.149-4.253-6.666H1.163c0.88,2.486,2.234,4.742,3.959,6.666H6.484z"/>
	<path fill="#D0D0D5" d="M38.838,26.667H37.77c-0.948,2.517-2.398,4.786-4.254,6.666h1.362
		C36.604,31.409,37.957,29.153,38.838,26.667z"/>
</g>
</svg>
