<?xml version="1.0" encoding="utf-8"?>
<!-- Generator: Adobe Illustrator 16.0.0, SVG Export Plug-In . SVG Version: 6.00 Build 0)  -->
<!DOCTYPE svg PUBLIC "-//W3C//DTD SVG 1.0//EN" "http://www.w3.org/TR/2001/REC-SVG-20010904/DTD/svg10.dtd">
<svg version="1.0" id="Layer_1" xmlns="http://www.w3.org/2000/svg" xmlns:xlink="http://www.w3.org/1999/xlink" x="0px" y="0px"
	 width="40px" height="40px" viewBox="0 0 40 40" enable-background="new 0 0 40 40" xml:space="preserve">
<g>
	<g>
		<g>
			<path fill="#E23D28" d="M20,40c8.069,0,15.02-4.782,18.18-11.665H1.817C4.979,35.218,11.93,40,20,40z"/>
			<path fill="#006B3F" d="M20,0C11.93,0,4.979,4.785,1.817,11.667H38.18C35.02,4.785,28.069,0,20,0z"/>
			<path fill="#F9DD16" d="M0,20.002c0,2.975,0.653,5.796,1.817,8.333H38.18c1.164-2.537,1.82-5.358,1.82-8.333
				c0-2.976-0.656-5.798-1.82-8.335H1.817C0.653,14.204,0,17.026,0,20.002z"/>
		</g>
		<g>
			<circle fill="#0038A8" cx="20" cy="20.002" r="10.133"/>
			<path fill="#F9DD17" d="M19.64,12.959l0.356-1.12l1.83,5.627l4.329,0.003l-0.931,0.683h-6.296l0.215-0.654l0.022-0.028h1.943
				L19.64,12.959L19.64,12.959z M15.074,13.543l2.582,3.559l0.289-0.195l-2.594-3.574L15.074,13.543L15.074,13.543z M22.047,16.904
				l0.29,0.197l2.583-3.559l-0.276-0.211L22.047,16.904L22.047,16.904z M19.498,13.352c-0.02,0.101-1.323,4.114-1.323,4.114
				l-5.923,0.003l0.928,0.683h4.766l-0.604,1.87l0.581,0.42l1.953-5.996L19.498,13.352L19.498,13.352z M23.511,19.704l-0.783,0.555
				l-0.596-1.854h-0.72l1.938,5.981l0.942,0.68l-1.338-4.116l4.789-3.481h-1.166L23.511,19.704z M13.538,18.405l3.499,2.545
				l-1.829,5.63l0.94-0.685l1.479-4.519l1.582,1.147l0.574-0.428l-5.086-3.691H13.538L13.538,18.405z M16.855,24.539l-0.361,1.103
				l3.502-2.538l4.79,3.474l-0.359-1.101l-3.845-2.798l1.579-1.148l-0.215-0.684L16.855,24.539z M12.205,22.37l0.096,0.317
				l4.201-1.35l-0.103-0.332L12.205,22.37L12.205,22.37z M23.597,21.006l-0.107,0.332l4.202,1.35l0.104-0.317L23.597,21.006
				L23.597,21.006z M19.822,28.162h0.35v-4.417h-0.345L19.822,28.162L19.822,28.162z"/>
		</g>
	</g>
</g>
</svg>
