<?xml version="1.0" encoding="utf-8"?>
<!-- Generator: Adobe Illustrator 16.0.0, SVG Export Plug-In . SVG Version: 6.00 Build 0)  -->
<!DOCTYPE svg PUBLIC "-//W3C//DTD SVG 1.0//EN" "http://www.w3.org/TR/2001/REC-SVG-20010904/DTD/svg10.dtd">
<svg version="1.0" id="Layer_1" xmlns="http://www.w3.org/2000/svg" xmlns:xlink="http://www.w3.org/1999/xlink" x="0px" y="0px"
	 width="40px" height="40px" viewBox="0 0 40 40" enable-background="new 0 0 40 40" xml:space="preserve">
<g>
	<g>
		<path fill="#3A75C4" d="M20.002,40c8.066,0,15.018-4.783,18.177-11.667H1.82C4.979,35.217,11.93,40,20.002,40z"/>
		<path fill="#009E60" d="M20.002,0C11.93,0,4.979,4.784,1.82,11.667h36.359C35.02,4.784,28.068,0,20.002,0z"/>
		<path fill="#FCD116" d="M0,20c0,2.974,0.656,5.796,1.82,8.333h36.359C39.344,25.796,40,22.974,40,20s-0.656-5.796-1.821-8.333
			H1.82C0.656,14.204,0,17.026,0,20z"/>
	</g>
</g>
</svg>
