<?xml version="1.0" encoding="utf-8"?>
<!-- Generator: Adobe Illustrator 16.0.0, SVG Export Plug-In . SVG Version: 6.00 Build 0)  -->
<!DOCTYPE svg PUBLIC "-//W3C//DTD SVG 1.1//EN" "http://www.w3.org/Graphics/SVG/1.1/DTD/svg11.dtd">
<svg version="1.1" id="Layer_1" xmlns="http://www.w3.org/2000/svg" xmlns:xlink="http://www.w3.org/1999/xlink" x="0px" y="0px"
	 width="40px" height="40px" viewBox="0 0 40 40" enable-background="new 0 0 40 40" xml:space="preserve">
<g>
	<g>
		<path fill="#01247D" d="M1.532,12.317c-0.229,0.548-0.435,1.111-0.615,1.681h3.141L1.532,12.317z"/>
		<path fill="#01247D" d="M38.457,27.711c0.234-0.559,0.443-1.129,0.625-1.711h-3.191L38.457,27.711z"/>
		<path fill="#01247D" d="M5.807,34.088c2.259,2.275,5.058,4.01,8.193,4.996V28.625L5.807,34.088z"/>
		<path fill="#01247D" d="M14,0.917c-3.144,0.988-5.952,2.729-8.213,5.016L14,11.409V0.917z"/>
		<path fill="#01247D" d="M39.082,13.998c-0.179-0.57-0.384-1.133-0.615-1.681l-2.522,1.681H39.082z"/>
		<path fill="#01247D" d="M25.999,39.084c3.135-0.986,5.935-2.721,8.193-4.996l-8.193-5.463V39.084z"/>
		<path fill="#01247D" d="M0.917,26c0.183,0.582,0.392,1.152,0.625,1.711L4.109,26H0.917z"/>
		<path fill="#01247D" d="M34.212,5.933c-2.262-2.287-5.068-4.028-8.213-5.016v10.492L34.212,5.933z"/>
		<path fill="#FFFFFF" d="M39.688,23.5H23.499v16.189c0.854-0.154,1.689-0.352,2.5-0.605V28.625l8.193,5.463
			c0.927-0.932,1.762-1.957,2.491-3.061L29.124,26h4.75l4.119,2.74c0.163-0.34,0.317-0.682,0.464-1.029L35.891,26h3.191
			C39.338,25.186,39.538,24.354,39.688,23.5z"/>
		<path fill="#FFFFFF" d="M14,0.917v10.492L5.787,5.933C4.885,6.843,4.07,7.839,3.357,8.91l7.653,5.088H6.26l-4.218-2.804
			c-0.181,0.369-0.352,0.742-0.51,1.123l2.525,1.681H0.917c-0.255,0.814-0.453,1.649-0.604,2.503H16.5V0.312
			C15.646,0.463,14.812,0.661,14,0.917z"/>
		<path fill="#FFFFFF" d="M0.312,23.5c0.151,0.854,0.349,1.686,0.604,2.5h3.193l-2.568,1.711c0.489,1.168,1.087,2.277,1.777,3.322
			L10.882,26H14v1.086l-9.083,6.041c0.287,0.33,0.583,0.652,0.89,0.961L14,28.625v10.459c0.812,0.254,1.647,0.451,2.501,0.605V23.5
			H0.312z"/>
		<path fill="#FFFFFF" d="M39.082,13.998h-3.138l2.522-1.681c-0.501-1.205-1.116-2.351-1.836-3.423l-7.676,5.104h-2.956v-1.191
			l9.023-6.001c-0.262-0.298-0.53-0.591-0.811-0.873l-8.213,5.476V0.917c-0.811-0.256-1.646-0.454-2.5-0.605v16.19h16.188
			C39.538,15.647,39.338,14.812,39.082,13.998z"/>
		<path fill="#CF142B" d="M39.688,16.501H23.499V0.312C22.361,0.111,21.193,0,20,0c-1.195,0-2.364,0.111-3.5,0.311v16.19H0.312
			C0.11,17.638,0,18.808,0,20.001c0,1.192,0.11,2.362,0.312,3.499H16.5v16.189C17.636,39.891,18.805,40,20,40
			c1.193,0,2.361-0.109,3.499-0.311V23.5h16.188C39.89,22.363,40,21.193,40,20.001C40,18.808,39.89,17.638,39.688,16.501z"/>
		<path fill="#CF142B" d="M29.124,26l7.56,5.027c0.483-0.732,0.921-1.494,1.31-2.287L33.874,26H29.124z"/>
		<path fill="#CF142B" d="M25.999,13.998h2.956l7.676-5.104c-0.489-0.732-1.028-1.429-1.608-2.088l-9.023,6.001V13.998z"/>
		<path fill="#CF142B" d="M14,26h-3.118l-7.563,5.033c0.486,0.732,1.021,1.432,1.598,2.094L14,27.086V26z"/>
		<path fill="#CF142B" d="M11.01,13.998L3.357,8.91c-0.488,0.729-0.926,1.493-1.315,2.284l4.218,2.804H11.01z"/>
	</g>
</g>
</svg>
