<?xml version="1.0" encoding="utf-8"?>
<!-- Generator: Adobe Illustrator 16.0.0, SVG Export Plug-In . SVG Version: 6.00 Build 0)  -->
<!DOCTYPE svg PUBLIC "-//W3C//DTD SVG 1.0//EN" "http://www.w3.org/TR/2001/REC-SVG-20010904/DTD/svg10.dtd">
<svg version="1.0" id="Layer_1" xmlns="http://www.w3.org/2000/svg" xmlns:xlink="http://www.w3.org/1999/xlink" x="0px" y="0px"
	 width="40px" height="40px" viewBox="0 0 40 40" enable-background="new 0 0 40 40" xml:space="preserve">
<g>
	<path fill="#FFCE00" d="M15.243,2.266h13.983C26.465,0.825,23.331,0,19.999,0s-6.467,0.825-9.229,2.266h1.938v35.467h-1.938
		c2.762,1.441,5.896,2.267,9.229,2.267s6.466-0.825,9.228-2.267H15.243V2.266z"/>
	<path fill="#9C1E3D" d="M40,20.001c0-7.716-4.375-14.397-10.773-17.735H15.243v35.467h13.983C35.625,34.396,40,27.713,40,20.001z"
		/>
	<path fill="#FECE00" d="M20.062,12.958c0.097-0.217,0.202-0.447,0.401-0.597c-0.013,0.052-0.02,0.102-0.031,0.153
		c-0.136,0.684-0.168,1.383-0.202,2.077c-0.033,0.2-0.008,0.407-0.027,0.608c-0.031,0.302,0.004,0.617-0.035,0.916
		c-0.017,0.991-0.017,1.98-0.009,2.967c0.009,0.218-0.016,0.44,0.021,0.656c0.009,0.187,0.011,0.374,0.015,0.565
		c-0.391,0.182-0.84,0.152-1.251,0.048c0.009-0.036,0.021-0.078,0.028-0.111c0.001-0.169,0.032-0.334,0.037-0.499
		c0.033-0.245,0.029-0.496,0.064-0.738c0.017-0.199,0.025-0.404,0.057-0.604c0.004-0.158,0.027-0.314,0.036-0.473
		c0.026-0.18,0.035-0.368,0.055-0.549c0.062-0.447,0.098-0.899,0.17-1.342c0.008-0.118,0.027-0.229,0.039-0.34
		c0.029-0.131,0.039-0.262,0.064-0.393c0.017-0.104,0.032-0.211,0.054-0.314c0.017-0.087,0.032-0.178,0.044-0.263
		c0.021-0.098,0.035-0.196,0.06-0.295c0.028-0.148,0.064-0.295,0.096-0.445c0.044-0.175,0.088-0.348,0.142-0.522
		c0.028-0.099,0.059-0.198,0.09-0.295c0.015-0.035,0.031-0.068,0.045-0.101C20.036,13.036,20.047,12.997,20.062,12.958
		L20.062,12.958z"/>
	<path fill="#FECE00" d="M21.814,16.693c0.455,0.141,0.931,0.165,1.407,0.193c0.243,0.007,0.487,0.021,0.73,0.009
		c0.127-0.04,0.267-0.113,0.4-0.053c0.184,0.089,0.342,0.228,0.451,0.398c0.055,0.109,0.095,0.229,0.131,0.347
		c0.004,0.027,0.005,0.084,0.01,0.111c-0.128-0.054-0.251-0.111-0.388-0.133c-0.304-0.054-0.612-0.014-0.903,0.068
		c0.007-0.122,0.01-0.242,0-0.362c-0.016-0.013-0.047-0.031-0.062-0.042c-0.373,0.093-0.771,0.165-1.148,0.062
		C22.149,17.218,21.897,16.985,21.814,16.693L21.814,16.693z"/>
	<path fill="#FECE00" d="M17.979,19.962c0.12-0.185,0.354-0.265,0.567-0.239c0.083,0,0.157,0.046,0.227,0.094
		c-0.004,0.053-0.004,0.109-0.007,0.164c-0.033,0.04-0.074,0.08-0.104,0.129c-0.027,0.054,0.034,0.092,0.063,0.132
		c0.208,0.204,0.505,0.279,0.788,0.289c0.318,0.003,0.648-0.057,0.92-0.232c-0.053-0.111-0.079-0.226-0.066-0.339
		c0.183-0.221,0.543-0.043,0.603,0.198c0.009,0.063,0.006,0.13,0.003,0.193c-0.144,0.277-0.449,0.387-0.734,0.446
		c-0.518,0.1-1.054,0.082-1.559-0.062c-0.234-0.072-0.487-0.179-0.639-0.385C17.956,20.24,17.971,20.088,17.979,19.962
		L17.979,19.962z"/>
	<path fill="#FECE00" d="M20.751,20.942c0.211-0.024,0.435-0.017,0.624,0.095c0.271,0.158,0.413,0.453,0.54,0.727
		c0.07,0.168,0.137,0.333,0.208,0.502c0.034,0.076,0.065,0.152,0.104,0.233c0.097,0.192,0.199,0.382,0.352,0.54
		c0.269,0.269,0.524,0.562,0.706,0.902c0.076,0.148,0.07,0.316,0.054,0.475c-0.011,0.022-0.023,0.046-0.036,0.066
		c-0.105,0.174-0.299,0.287-0.503,0.272c-0.344-0.02-0.627-0.241-0.863-0.471c-0.173-0.181-0.331-0.378-0.47-0.589
		c-0.025-0.045-0.072-0.072-0.111-0.104c-0.009,0.076-0.013,0.148-0.027,0.225c-0.016,0.043-0.031,0.09-0.047,0.137
		c-0.075,0.075-0.189,0.075-0.287,0.043c-0.159-0.049-0.307-0.131-0.438-0.229c0.001-0.011,0.001-0.031,0.001-0.039
		c0.072-0.093,0.144-0.188,0.222-0.278c0.044-0.06,0.095-0.117,0.111-0.186c0-0.074-0.024-0.139-0.044-0.203
		c-0.017-0.057-0.031-0.11-0.052-0.165c-0.072-0.188-0.174-0.37-0.306-0.526c0.063-0.049,0.153-0.091,0.168-0.178
		c-0.023-0.095-0.096-0.165-0.158-0.239c0.044-0.032,0.094-0.063,0.14-0.097c-0.004-0.055,0.002-0.111-0.009-0.168
		c-0.021-0.059-0.066-0.094-0.108-0.136c0.049-0.024,0.095-0.058,0.146-0.091c0.01-0.117-0.024-0.229-0.068-0.336
		c0.015,0,0.04-0.003,0.055-0.008C20.688,21.062,20.723,21.007,20.751,20.942L20.751,20.942z"/>
	<path fill="#FECE00" d="M18.427,21.053c0.14-0.062,0.291-0.049,0.438-0.029c0.224,0.039,0.448,0.084,0.679,0.076
		c0.218-0.01,0.435-0.061,0.658-0.079c0.071-0.011,0.14,0.022,0.202,0.065c-0.004,0.039-0.004,0.087-0.004,0.132
		c-0.159,0.115-0.354,0.14-0.54,0.163c-0.312,0.039-0.63,0.039-0.943-0.002c-0.175-0.029-0.367-0.062-0.494-0.201
		C18.427,21.134,18.427,21.094,18.427,21.053L18.427,21.053z"/>
	<path fill="#FECE00" d="M18.471,21.598c0.066-0.031,0.132-0.061,0.204-0.056c0.229,0.015,0.453,0.087,0.684,0.082
		c0.257,0.005,0.507-0.085,0.765-0.073c0.089,0,0.153,0.064,0.205,0.135c-0.066,0.061-0.14,0.117-0.225,0.144
		c-0.335,0.103-0.686,0.093-1.026,0.067c-0.206-0.021-0.437-0.033-0.599-0.177C18.474,21.677,18.474,21.639,18.471,21.598
		L18.471,21.598z"/>
	<path fill="#FECE00" d="M19.174,22.097c0.32,0.038,0.63-0.056,0.946-0.085c0.084-0.012,0.162,0.016,0.24,0.045
		c-0.012,0.006-0.032,0.008-0.048,0.008c0.006,0.018,0.008,0.059,0.008,0.076c-0.168,0.143-0.383,0.191-0.591,0.229
		c-0.287,0.055-0.585,0.04-0.869-0.032c-0.102-0.025-0.207-0.066-0.266-0.158l-0.017-0.014c0.013-0.031,0.026-0.065,0.038-0.099
		C18.804,22.026,18.989,22.088,19.174,22.097L19.174,22.097z"/>
	<path fill="#FECE00" d="M20.089,22.448c0.091-0.021,0.186-0.023,0.281-0.019c0,0.037,0,0.069,0,0.1
		c-0.073,0.063-0.155,0.123-0.247,0.154c-0.339,0.123-0.698,0.154-1.055,0.135c-0.163-0.015-0.334-0.021-0.47-0.108
		c-0.052-0.026-0.041-0.089-0.046-0.134c0.256-0.061,0.519-0.02,0.778-0.033C19.587,22.553,19.837,22.499,20.089,22.448
		L20.089,22.448z"/>
	<path fill="#FECE00" d="M31.375,22.668c0.382-0.158,0.808-0.279,1.228-0.195c0.231,0.043,0.438,0.18,0.562,0.377
		c0.053,0.087,0.09,0.186,0.124,0.281c0.008,0.035,0.018,0.069,0.027,0.109c0.004,0.074,0.004,0.152-0.014,0.229
		c-0.014,0.087-0.028,0.176-0.042,0.262c-0.077,0.328-0.176,0.641-0.289,0.952c-0.007,0.026-0.017,0.053-0.023,0.081
		c-0.026,0.063-0.046,0.137-0.058,0.207c0.143-0.034,0.259-0.129,0.394-0.187c0.203-0.091,0.435-0.104,0.653-0.065
		c-0.149,0.401-0.524,0.653-0.883,0.854c0,0.068,0,0.139-0.015,0.209c-0.011,0.099-0.027,0.194-0.05,0.287
		c-0.03,0.124-0.066,0.248-0.104,0.368c-0.019,0.06-0.035,0.115-0.055,0.177c-0.096,0.299-0.207,0.594-0.308,0.889
		c-0.543,0.002-1.087,0.002-1.624,0c0.072-0.175,0.198-0.333,0.229-0.525c-0.165,0.154-0.271,0.361-0.426,0.527
		c-0.191-0.002-0.385,0-0.576-0.002c0.174-0.204,0.34-0.413,0.507-0.624c-0.018-0.003-0.05-0.003-0.063-0.009
		c-0.228,0.249-0.486,0.479-0.794,0.614c-0.083,0.041-0.177,0.053-0.271,0.062c0.003-0.062,0.005-0.124,0.011-0.187
		c0.064-0.219,0.145-0.452,0.327-0.604c0.199-0.172,0.482-0.191,0.734-0.143c0.191,0.031,0.369,0.115,0.553,0.168
		c0.01-0.025,0.021-0.073,0.03-0.102c0.024-0.097,0.052-0.192,0.079-0.289c0.007-0.025,0.015-0.057,0.021-0.081
		c0.03-0.104,0.057-0.21,0.077-0.317c0.01-0.059,0.02-0.121,0.032-0.182c0.024-0.223,0.015-0.446-0.057-0.657
		c-0.073-0.163-0.208-0.28-0.316-0.417c-0.225-0.233-0.453-0.473-0.597-0.766c-0.015-0.032-0.031-0.066-0.045-0.1
		c-0.042-0.182-0.071-0.405,0.065-0.556C30.675,23.025,31.018,22.823,31.375,22.668L31.375,22.668z"/>
	<path fill="#FECE00" d="M18.388,23c0.062-0.043,0.129-0.098,0.207-0.086c0.098,0.005,0.197,0.022,0.29,0.061
		c0.092,0.04,0.13,0.141,0.178,0.223c0.019,0.023,0.038,0.045,0.059,0.072c0.013,0,0.029,0.002,0.038,0.002
		c0.141-0.119,0.295-0.257,0.485-0.281c0.168-0.016,0.293,0.121,0.381,0.244c0.095-0.073,0.172-0.178,0.281-0.233
		c0.087-0.048,0.188-0.058,0.286-0.064c0.016,0.009,0.042,0.026,0.057,0.032c0.018,0.037,0.037,0.072,0.056,0.109
		c0.026,0.102,0.056,0.217,0.007,0.316c-0.069,0.117-0.205,0.168-0.336,0.197c-0.186,0.033-0.376,0.025-0.563,0
		c0.146,0.109,0.207,0.305,0.192,0.484c0.005,0.141-0.072,0.262-0.104,0.393c0.029,0.217,0.276,0.267,0.451,0.315
		c-0.03-0.097-0.055-0.192-0.081-0.286c-0.002-0.062-0.002-0.125-0.006-0.186c0.036-0.069,0.081-0.155,0.173-0.15
		c0.242,0,0.439,0.204,0.536,0.412c0,0.059,0.003,0.111,0.003,0.168c-0.086,0.164-0.271,0.235-0.439,0.263
		c-0.258,0.048-0.518,0.032-0.776,0.021c0.003,0.071,0.003,0.137,0.006,0.204c0.16,0.028,0.325,0.088,0.413,0.232
		c0.015,0.035,0.027,0.064,0.038,0.096c-0.108,0.145-0.307,0.115-0.458,0.072c0.014,0.114,0.014,0.228,0.007,0.345
		c-0.045,0.04-0.081,0.126-0.153,0.108c-0.097-0.06-0.145-0.168-0.187-0.271c-0.005-0.035-0.009-0.071-0.01-0.105
		c-0.022,0.01-0.062,0.031-0.086,0.038c-0.134,0.026-0.248-0.062-0.358-0.124c0.084-0.204,0.327-0.23,0.445-0.396
		c0.018-0.068,0.03-0.141,0.038-0.216c-0.284,0.032-0.577,0.046-0.854-0.021c-0.124-0.035-0.269-0.1-0.315-0.233
		c-0.032-0.067-0.015-0.142,0-0.204c0.001-0.018,0.007-0.046,0.013-0.061c0.044-0.086,0.082-0.186,0.152-0.26
		c0.126-0.068,0.289-0.098,0.419-0.027c0.111,0.077,0.087,0.229,0.085,0.348c-0.004,0.082-0.047,0.15-0.085,0.219
		c-0.02,0.01-0.049,0.021-0.064,0.028c0.254,0.062,0.517-0.153,0.517-0.408c-0.018-0.077-0.061-0.144-0.099-0.208
		c-0.023-0.109-0.014-0.221,0.02-0.326c0.056-0.086,0.118-0.168,0.181-0.246c-0.291,0.047-0.609,0.083-0.878-0.063
		c-0.105-0.054-0.176-0.151-0.225-0.255c0-0.059,0-0.121,0-0.182C18.344,23.073,18.365,23.035,18.388,23L18.388,23z"/>
	<path fill="#FECE00" d="M24.5,15.43c-0.042-0.054-0.091-0.08-0.129-0.08c-0.006,0-0.011,0-0.019,0.003
		c-0.026,0.006-0.053,0.028-0.072,0.069c-0.021,0.042-0.032,0.099-0.032,0.166c0,0.047,0.007,0.099,0.021,0.152
		c0.021,0.091,0.061,0.169,0.103,0.224c0.049,0.052,0.094,0.08,0.13,0.08c0.006,0,0.015,0,0.021-0.003
		c0.029-0.006,0.052-0.027,0.073-0.069c0.021-0.042,0.032-0.098,0.032-0.163c0-0.049-0.007-0.1-0.021-0.152
		C24.587,15.562,24.546,15.485,24.5,15.43z M36.419,24.562c-0.19-0.124-0.284-0.344-0.337-0.553
		c-0.012-0.188-0.012-0.375-0.001-0.561c0.021-0.18,0.06-0.357,0.113-0.53c0.013-0.04,0.034-0.087,0.051-0.134
		c0.02-0.043,0.035-0.086,0.054-0.131c0.09-0.211,0.183-0.419,0.273-0.621c0.126-0.289,0.255-0.58,0.356-0.879
		c0.065-0.176,0.119-0.361,0.162-0.551c0.052-0.254,0.091-0.521,0.052-0.781c-0.033-0.256-0.148-0.502-0.346-0.672
		c-0.135-0.14-0.319-0.208-0.492-0.293c0.178-0.187,0.32-0.404,0.415-0.64c0.141-0.336,0.242-0.713,0.158-1.079
		c-0.002-0.013-0.008-0.039-0.014-0.053c-0.048-0.151-0.124-0.291-0.231-0.41c-0.277-0.323-0.686-0.499-1.091-0.618
		c-0.672-0.188-1.382-0.222-2.072-0.188c-0.09,0.001-0.178,0.017-0.262,0.046c-0.321,0.108-0.656,0.216-1.005,0.222
		c-0.198,0.008-0.38-0.086-0.544-0.185c-0.244-0.16-0.452-0.379-0.662-0.583c-0.022,0-0.039-0.002-0.054-0.002
		c-0.01,0.104-0.031,0.203-0.041,0.304c-0.022,0.108-0.033,0.215-0.054,0.322c-0.114-0.074-0.207-0.185-0.271-0.306L30.57,15.68
		c-0.015-0.047-0.034-0.097-0.057-0.145c-0.005-0.079-0.002-0.158,0-0.236c0.044-0.104,0.103-0.2,0.169-0.293
		c0.015-0.005,0.052-0.016,0.065-0.022c-0.212-0.083-0.462-0.163-0.686-0.066c-0.182,0.092-0.319,0.251-0.455,0.402
		c0.006-0.059,0.015-0.119,0.024-0.177c0.062-0.131,0.103-0.271,0.173-0.399c0.089-0.168,0.192-0.352,0.38-0.42
		c0.175-0.024,0.352,0.049,0.503,0.13c0.184,0.104,0.355,0.22,0.51,0.359c0.015,0.003,0.035,0.006,0.048,0.009
		c0-0.284-0.006-0.568,0.003-0.852c0.203,0.248,0.371,0.514,0.562,0.771c0.026,0.03,0.054,0.055,0.087,0.081
		c0.034-0.235,0.091-0.468,0.095-0.704c0.017-0.006,0.041-0.009,0.057-0.012c0.062,0.085,0.12,0.179,0.168,0.272
		c0.006,0.081,0.006,0.162,0,0.24c-0.055,0.128-0.124,0.249-0.208,0.356c0.193,0,0.402,0.009,0.568-0.097
		c0.143-0.126,0.164-0.326,0.205-0.5c0.097,0.028,0.146,0.124,0.211,0.195c0.155,0.188,0.329,0.379,0.559,0.483
		c0.207,0.099,0.433,0.145,0.659,0.18c-0.06-0.182-0.18-0.34-0.231-0.519c0.005,0.006,0.021,0.027,0.029,0.035
		c0.508,0.253,0.998,0.576,1.563,0.694c0.233,0.048,0.498,0.048,0.69-0.109c0.114-0.102,0.201-0.248,0.186-0.405
		c0.005-0.267-0.326-0.473-0.562-0.334c-0.122,0.053-0.185,0.183-0.228,0.307c-0.004,0.105-0.008,0.209-0.008,0.317
		c-0.146-0.07-0.273-0.168-0.414-0.249c-0.893-0.544-1.836-1.021-2.839-1.329c-0.508-0.153-1.045-0.273-1.579-0.213
		c-0.418,0.084-0.829,0.213-1.192,0.428c-0.289,0.172-0.545,0.42-0.688,0.727c-0.107,0.28-0.141,0.583-0.094,0.872
		c0.015,0.097,0.036,0.196,0.06,0.29c-0.164,0.123-0.288,0.304-0.321,0.512l-0.013,0.026c-0.006,0.127-0.017,0.252,0.013,0.377
		c0.025,0.104,0.06,0.201,0.102,0.294c0.023,0.039,0.05,0.077,0.071,0.117c0.009-0.003,0.025-0.003,0.036-0.004
		c0.028-0.104,0.065-0.2,0.106-0.297c0.092-0.202,0.219-0.405,0.418-0.519c0.072-0.04,0.157-0.082,0.238-0.04
		c0.15,0.082,0.277,0.198,0.418,0.292c0.142,0.094,0.297,0.152,0.457,0.198c0.329,0.095,0.663,0.151,0.999,0.206
		c0.173,0.018,0.342,0.007,0.513,0.011c0.448-0.011,0.898-0.024,1.336-0.122c0.35-0.103,0.682-0.245,1.035-0.33
		c0.196-0.049,0.406-0.097,0.602-0.018c0.38,0.12,0.701,0.433,0.823,0.816c0.015,0.081,0.032,0.159,0.032,0.241
		c0.002,0.235,0,0.468,0,0.706c-0.254-0.005-0.511-0.025-0.751-0.104c-0.157-0.049-0.312-0.125-0.473-0.184
		c-0.237-0.097-0.507-0.115-0.764-0.097c-0.886,0.02-1.743,0.275-2.604,0.44c-0.199,0.038-0.404,0.057-0.602,0.109
		c-0.63,0.158-1.283,0.142-1.912,0.276c-0.201,0.045-0.401,0.086-0.605,0.072c0.013-0.003,0.041-0.019,0.054-0.026
		c0.052-0.084,0.104-0.163,0.16-0.244c-0.068-0.124-0.104-0.261-0.146-0.396c-0.037,0.044-0.089,0.083-0.156,0.083
		c-0.02,0-0.04,0-0.062-0.009c-0.068-0.022-0.139-0.12-0.218-0.253c-0.075-0.135-0.151-0.307-0.223-0.476
		c-0.1-0.237-0.184-0.469-0.225-0.586l-0.108,0.952l-0.655-0.939c0.043,0.184,0.133,0.583,0.133,0.747
		c0,0.021-0.001,0.041-0.005,0.055c-0.003,0.012-0.011,0.028-0.031,0.033c0,0-0.004,0-0.006,0c-0.034,0-0.087-0.024-0.15-0.057
		c-0.065-0.035-0.14-0.079-0.213-0.124c-0.104-0.064-0.2-0.128-0.247-0.157c-0.002,0.104-0.005,0.422-0.026,0.627
		c-0.009,0.081-0.015,0.143-0.03,0.176c-0.006,0.004-0.011,0.018-0.027,0.018l0,0c-0.006,0-0.011,0-0.015-0.004
		c-0.021-0.012-0.062-0.057-0.115-0.122c-0.053-0.062-0.117-0.145-0.182-0.226c-0.13-0.159-0.251-0.317-0.251-0.317l0.033-0.025
		c0,0,0.271,0.353,0.428,0.543c0.042,0.049,0.082,0.089,0.097,0.103c0-0.004,0.005-0.005,0.005-0.014
		c0.005-0.022,0.012-0.054,0.016-0.091c0.007-0.079,0.014-0.183,0.021-0.288c0.007-0.21,0.01-0.419,0.01-0.419v-0.038l0.031,0.021
		c0,0,0.297,0.202,0.484,0.301c0.062,0.031,0.112,0.052,0.13,0.052c0.003-0.002,0.003-0.002,0.003-0.002
		c0.002-0.01,0.005-0.026,0.005-0.045c0.001-0.101-0.041-0.312-0.081-0.499c-0.037-0.183-0.078-0.341-0.078-0.341l0.034-0.015
		l0.656,0.938l0.107-0.932l0.037-0.005c0,0,0.062,0.183,0.154,0.417c0.091,0.237,0.208,0.524,0.321,0.723
		c0.074,0.131,0.148,0.224,0.193,0.234c0.018,0.005,0.034,0.006,0.05,0.006c0.058,0,0.102-0.036,0.133-0.085
		c-0.004,0.002-0.013,0.002-0.019,0.005l0.182-1.645c-0.062-0.017-0.158-0.083-0.248-0.158c-0.104-0.085-0.227-0.202-0.347-0.318
		c-0.182-0.177-0.348-0.352-0.42-0.428l0.038,0.984l-0.353-0.32c0.007,0.051,0.018,0.126,0.018,0.2c0,0.045-0.004,0.088-0.016,0.124
		c-0.01,0.035-0.029,0.063-0.069,0.064c0,0,0,0-0.003,0c-0.037,0-0.091-0.028-0.154-0.068c-0.067-0.043-0.142-0.097-0.213-0.152
		c-0.094-0.073-0.183-0.145-0.229-0.185c0.01,0.069,0.021,0.189,0.021,0.296c0,0.059-0.003,0.114-0.015,0.158
		c-0.012,0.043-0.03,0.08-0.071,0.089c-0.004,0.001-0.01,0.001-0.017,0.001c-0.044-0.001-0.104-0.03-0.176-0.073
		c-0.07-0.042-0.151-0.1-0.225-0.156c-0.069-0.054-0.138-0.106-0.188-0.15c0.035,0.062,0.083,0.136,0.128,0.219
		c0.092,0.175,0.19,0.362,0.19,0.461c0,0.017-0.004,0.033-0.015,0.047c-0.011,0.012-0.026,0.021-0.043,0.021l0,0
		c-0.003,0-0.003,0-0.004,0c-0.058-0.003-0.135-0.049-0.234-0.114c-0.095-0.068-0.205-0.154-0.309-0.246
		c-0.207-0.177-0.391-0.352-0.394-0.352l0,0l0.029-0.027c0,0,0.104,0.098,0.242,0.221c0.138,0.123,0.312,0.272,0.456,0.373
		c0.091,0.064,0.176,0.106,0.21,0.106h0.003c0.007,0,0.01,0,0.011-0.005c0.005-0.001,0.006-0.011,0.006-0.024
		c0.003-0.075-0.092-0.271-0.185-0.44c-0.094-0.172-0.188-0.319-0.188-0.319l0.029-0.026c0,0,0.072,0.064,0.172,0.141
		c0.097,0.08,0.224,0.177,0.327,0.238c0.07,0.042,0.132,0.066,0.156,0.066c0.005,0,0.007,0,0.009-0.001
		c0.015-0.002,0.029-0.021,0.042-0.058c0.009-0.041,0.012-0.093,0.012-0.149c0-0.158-0.03-0.341-0.03-0.341l-0.009-0.054
		l0.041,0.034c0,0,0.072,0.062,0.167,0.139c0.094,0.076,0.216,0.168,0.312,0.227c0.062,0.042,0.117,0.067,0.135,0.067
		c0,0,0,0,0.003,0c0.013-0.002,0.023-0.011,0.031-0.039c0.011-0.029,0.014-0.068,0.014-0.112c0-0.116-0.023-0.251-0.023-0.251
		l-0.011-0.055l0.366,0.331l-0.041-0.996l0.038,0.041c0,0,0.123,0.131,0.285,0.295c0.16,0.165,0.359,0.357,0.514,0.487
		c0.094,0.08,0.186,0.12,0.229,0.138l0.06-0.532c-0.051-0.246-0.161-0.476-0.317-0.673c0-0.008,0-0.019,0-0.026
		c0.188-0.088,0.38-0.193,0.478-0.38c0.068-0.131,0.1-0.276,0.132-0.418c0.011-0.035,0.019-0.066,0.025-0.098
		c-0.385,0.156-0.803,0.379-1.23,0.252c-0.01-0.11-0.046-0.217-0.119-0.302c-0.158-0.189-0.362-0.332-0.549-0.49
		c-0.01-0.004-0.033-0.004-0.044-0.006c0.002,0.148,0,0.292-0.005,0.442c-0.045,0.145-0.11,0.351-0.307,0.332
		c-0.092-0.137-0.189-0.278-0.313-0.389c-0.167-0.156-0.397-0.24-0.626-0.229c0.01,0.031,0.023,0.065,0.038,0.095
		c0.011,0.143,0.01,0.285,0,0.425c-0.083,0.192-0.249,0.368-0.469,0.361c-0.075-0.146-0.158-0.3-0.283-0.409
		c-0.136-0.118-0.327-0.155-0.497-0.106c-0.179,0.042-0.323,0.166-0.482,0.241c0.278,0.043,0.597,0.16,0.725,0.438
		c-0.281,0.024-0.551,0.092-0.817,0.158c-0.355,0.093-0.711,0.188-1.059,0.301c-0.064,0.015-0.122,0.026-0.182,0.026
		c0.019-0.011,0.042-0.019,0.063-0.026c0.073-0.099,0.142-0.208,0.142-0.335c-0.057-0.058-0.121-0.108-0.199-0.125
		c-0.215-0.043-0.479-0.027-0.618,0.16c-0.013,0.133-0.019,0.271,0.037,0.39c0.081,0.157,0.185,0.301,0.312,0.427
		c0.118,0.115,0.238,0.241,0.396,0.302c0.142-0.065,0.246-0.182,0.393-0.227c0.097,0.188,0.199,0.39,0.368,0.528
		c0.151,0.127,0.351,0.185,0.538,0.228c0-0.163-0.004-0.32,0.002-0.48c0.172,0.163,0.33,0.339,0.502,0.495
		c0.142,0.124,0.266,0.267,0.389,0.4c0.066,0.079,0.113,0.174,0.157,0.268c0.014,0.036,0.023,0.075,0.039,0.112
		c0.009,0.035,0.021,0.073,0.028,0.111c0.005,0.034,0.014,0.068,0.021,0.104c0.01,0.048,0.019,0.1,0.025,0.148
		c-0.244-0.085-0.49-0.193-0.754-0.208c-0.229-0.013-0.451,0.048-0.671,0.082c0-0.132,0.002-0.263,0.005-0.396
		c-0.151,0.015-0.296,0.074-0.446,0.084c-0.174,0.018-0.346,0.023-0.517,0.009c-0.258-0.038-0.506-0.116-0.761-0.17
		c0.085,0.176,0.136,0.364,0.188,0.553c0.034,0.184,0.089,0.403-0.043,0.558c-0.101,0.112-0.211,0.213-0.317,0.317
		c0.145,0.077,0.315,0.054,0.457-0.018c0.252-0.126,0.464-0.326,0.648-0.536c-0.034,0.3-0.07,0.607-0.158,0.899
		c0.013,0.002,0.038,0.002,0.051,0.002c0.157-0.093,0.245-0.264,0.305-0.435c0.018-0.07,0.034-0.141,0.047-0.215
		c0.014-0.08,0.016-0.168,0.021-0.25c0.082-0.01,0.164-0.01,0.245,0c-0.008,0.041-0.021,0.083-0.028,0.125
		c-0.01,0.038-0.02,0.074-0.031,0.11c0,0.058,0,0.115,0.003,0.175c0.019,0.053,0.035,0.112,0.053,0.169
		c0.064,0.114,0.16,0.22,0.285,0.268c-0.003-0.127-0.003-0.256,0.002-0.381c0.029-0.101,0.051-0.201,0.104-0.29
		c0.058-0.099,0.16-0.153,0.263-0.186c-0.002,0.028-0.006,0.083-0.011,0.114c-0.025,0.083-0.043,0.171-0.063,0.257
		c-0.017,0.076-0.031,0.155-0.042,0.229c-0.01,0.012-0.022,0.036-0.031,0.046c0.071,0,0.15,0.003,0.213-0.041
		c0.151-0.087,0.234-0.246,0.313-0.396c0.01-0.008,0.037-0.028,0.048-0.038c0.098,0.038,0.238,0.093,0.23,0.223
		c0,0.194-0.017,0.388,0,0.582c-0.305,0.114-0.601,0.258-0.871,0.439c-0.223,0.146-0.437,0.317-0.657,0.466
		c-0.359,0.257-0.657,0.603-0.824,1.016c-0.163,0.406-0.184,0.864-0.049,1.283c0.003,0.015,0.01,0.043,0.012,0.054
		c0.012,0.034,0.023,0.067,0.04,0.101c0.011,0.035,0.024,0.074,0.036,0.11c0.08,0.155,0.152,0.315,0.272,0.442
		c0.187,0.19,0.374,0.383,0.525,0.607c0.311,0.264,0.658,0.471,0.987,0.707c0-0.154-0.002-0.312-0.01-0.469
		c-0.03-0.221-0.008-0.441-0.044-0.655c-0.002-0.253-0.034-0.499-0.033-0.744c-0.029-0.126-0.02-0.256-0.011-0.38
		c0.011,0.22,0.083,0.43,0.115,0.649c0.007,0.166,0.032,0.333,0.029,0.496c0.003,0.132-0.007,0.26,0.005,0.39
		c0.018,0.101,0.044,0.197,0.069,0.293c0.036,0.165,0.085,0.321,0.119,0.481c0.028,0.102,0.058,0.206,0.085,0.31
		c0.042,0.171,0.073,0.349,0.112,0.527c0.036,0.273,0.058,0.562,0,0.841c-0.065,0.203-0.172,0.424-0.376,0.524
		c-0.227,0.088-0.476,0.001-0.709,0.049c-0.143,0.033-0.305,0.021-0.427,0.117c-0.13,0.098-0.186,0.26-0.238,0.408
		c-0.011,0.056-0.021,0.111-0.037,0.163c-0.02,0.072-0.037,0.145-0.052,0.218c-0.009,0.006-0.035,0.016-0.052,0.021
		c0.152,0.026,0.318,0.028,0.458-0.046c0.212-0.113,0.357-0.31,0.542-0.454c-0.024,0.125-0.104,0.224-0.185,0.319
		c-0.012,0.021-0.026,0.049-0.041,0.074c-0.015,0.038-0.029,0.074-0.046,0.117c0.147,0.011,0.301,0.001,0.434-0.062
		c0.256-0.106,0.421-0.333,0.629-0.505c0,0.018,0.002,0.047,0.002,0.062c-0.007,0-0.013,0.004-0.019,0.004
		c-0.086,0.178-0.197,0.332-0.312,0.494c0.668,0.007,1.331,0,2.001,0.002c0.131,0.015,0.241-0.101,0.292-0.213
		c0.048-0.214-0.058-0.418-0.133-0.617c-0.021-0.061-0.044-0.123-0.068-0.186c-0.005-0.062-0.007-0.125-0.012-0.188
		c0.154-0.213,0.422-0.251,0.629-0.384c0.146-0.086,0.26-0.22,0.335-0.372c0.03-0.074,0.051-0.16,0.056-0.242
		c-0.131,0.016-0.262,0.029-0.389,0.057c-0.338,0.06-0.652,0.196-0.965,0.33c0.026-0.066,0.062-0.134,0.089-0.201
		c0.056-0.125,0.109-0.26,0.157-0.392c0.02-0.062,0.039-0.124,0.052-0.183c0.031-0.121,0.044-0.249,0.125-0.354
		c0.244-0.329,0.527-0.629,0.762-0.968c0.27-0.364,0.487-0.762,0.676-1.171c0.001-0.019,0.009-0.05,0.009-0.068l0.033,0.003
		c-0.002-0.014-0.01-0.039-0.014-0.052l0.034-0.003c0-0.021-0.003-0.059-0.007-0.081l0.026,0.007
		c0.017-0.074,0.036-0.153,0.052-0.228c0.002,0.056,0.006,0.117,0.006,0.173l-0.027-0.006c-0.002,0.016-0.002,0.052-0.005,0.065
		c-0.01,0.042-0.018,0.08-0.025,0.124h-0.016c-0.026,0.104-0.065,0.202-0.104,0.301c-0.032,0.076-0.065,0.156-0.105,0.235
		c-0.014,0.026-0.025,0.056-0.038,0.085c-0.12,0.23-0.257,0.459-0.408,0.674c-0.231,0.338-0.515,0.635-0.792,0.936
		c0,0.051,0,0.104,0,0.156c-0.013,0.01-0.033,0.023-0.046,0.033c0.155,0,0.297-0.043,0.445-0.072
		c1.159-0.256,2.252-0.75,3.275-1.353c0.259-0.165,0.545-0.283,0.792-0.47c0.264-0.171,0.55-0.311,0.854-0.406
		c0.362-0.109,0.77-0.18,1.134-0.029c0.199,0.069,0.353,0.227,0.457,0.406c0.209,0.182,0.389,0.385,0.603,0.552
		c0.144,0.108,0.259,0.247,0.398,0.362c0.192,0.178,0.417,0.355,0.476,0.623c0.014,0.053,0.024,0.106,0.04,0.158
		c0.007,0.229,0.004,0.457-0.005,0.685c0.009,0.219,0.005,0.438,0.025,0.657c-0.014,0.158-0.014,0.316-0.047,0.475
		c-0.014,0.025-0.024,0.057-0.032,0.082c-0.135,0.129-0.333,0.062-0.479-0.007c-0.237-0.113-0.515-0.198-0.775-0.117
		c-0.291,0.091-0.472,0.366-0.566,0.643c-0.029,0.098-0.053,0.192-0.072,0.292c-0.012,0.082-0.015,0.166-0.02,0.248
		c0.109,0.004,0.222-0.002,0.318-0.048c0.116-0.053,0.19-0.158,0.3-0.216c-0.031,0.081-0.065,0.158-0.095,0.24
		c-0.014,0.002-0.035,0.012-0.046,0.014c0.211,0.043,0.443,0.043,0.638-0.062c0.132-0.066,0.222-0.185,0.331-0.285
		c-0.02,0.132-0.079,0.254-0.168,0.355c0.103,0.027,0.208,0.043,0.312,0.055c0.24,0.017,0.48,0.048,0.719,0.051
		c0.005-0.113,0.01-0.233,0.015-0.349c0.138,0.041,0.264,0.104,0.402,0.14c0.286,0.078,0.594,0.11,0.874-0.008
		c0.095-0.045,0.099-0.158,0.131-0.244c-0.006-0.038-0.015-0.084-0.019-0.123c-0.012-0.082-0.024-0.162-0.049-0.238
		c-0.014-0.057-0.03-0.109-0.045-0.164c-0.035-0.143-0.063-0.295-0.066-0.443c0.028-0.157,0.102-0.305,0.213-0.419
		c-0.189-0.083-0.341-0.251-0.391-0.453c0.221-0.003,0.44-0.015,0.649-0.091c0.242-0.08,0.429-0.277,0.542-0.506
		C37.043,24.748,36.693,24.755,36.419,24.562z M24.667,16.004c-0.026,0.053-0.071,0.097-0.127,0.112
		c-0.013,0.003-0.025,0.003-0.039,0.003c-0.071,0-0.136-0.043-0.188-0.107c-0.055-0.065-0.096-0.155-0.122-0.257
		c-0.016-0.058-0.02-0.116-0.02-0.168c0-0.074,0.013-0.145,0.036-0.198c0.027-0.056,0.069-0.099,0.126-0.114
		c0.015-0.003,0.027-0.003,0.038-0.003c0.073,0,0.136,0.046,0.191,0.109c0.053,0.065,0.098,0.154,0.121,0.254
		c0.015,0.059,0.021,0.118,0.021,0.172C24.705,15.881,24.693,15.951,24.667,16.004z M24.47,15.087l0.029-0.026
		c0,0,0.042,0.049,0.117,0.122c0.077,0.075,0.18,0.175,0.306,0.274c0.257,0.199,0.584,0.396,0.888,0.396c0.002,0,0.005,0,0.005,0
		c-0.078-0.092-0.296-0.35-0.298-0.559c0-0.012,0.002-0.024,0.002-0.033l0.007-0.031l0.025,0.016c0,0,0.166,0.107,0.385,0.215
		c0.221,0.106,0.5,0.214,0.716,0.214c0.058,0,0.108-0.006,0.152-0.021c-0.033-0.031-0.102-0.091-0.173-0.156
		c-0.099-0.099-0.2-0.212-0.205-0.304c0-0.008,0-0.012,0.003-0.015l0.002-0.02l0.021,0.003c0,0,0.091,0.013,0.221,0.027
		c0.132,0.016,0.302,0.029,0.472,0.029c0.231,0.002,0.455-0.029,0.546-0.111l0.025,0.029c-0.109,0.098-0.336,0.122-0.571,0.122
		c-0.293,0-0.594-0.044-0.675-0.054c0.007,0.064,0.098,0.175,0.191,0.264c0.097,0.094,0.194,0.171,0.194,0.171l0.024,0.021
		l-0.028,0.014c-0.058,0.028-0.125,0.039-0.199,0.039c-0.399-0.001-0.96-0.337-1.093-0.418c0,0.112,0.076,0.254,0.155,0.364
		c0.08,0.113,0.158,0.195,0.158,0.195l0.027,0.031l-0.04,0.004c-0.016,0-0.032,0-0.05,0C25.17,15.889,24.47,15.087,24.47,15.087z
		 M25.694,19.36c-0.131-0.038-0.272-0.248-0.388-0.447c-0.073-0.128-0.132-0.248-0.17-0.321l-0.024,0.44l0,0l0,0l0,0l-0.039-0.002
		l0.03-0.518l0.037-0.008c0,0,0.084,0.19,0.2,0.389c0.103,0.178,0.232,0.365,0.334,0.417c-0.017-0.131-0.073-0.628-0.073-0.885
		c0-0.066,0.001-0.113,0.014-0.141l0.037,0.012c-0.008,0.019-0.012,0.067-0.012,0.129c0,0.148,0.02,0.376,0.037,0.567
		c0.021,0.192,0.04,0.348,0.04,0.348l0.006,0.027L25.694,19.36z M28.036,19.338l-0.009,0.003h-0.006
		c-0.171-0.029-0.375-0.285-0.554-0.535c-0.066-0.093-0.126-0.189-0.176-0.27c0.118,0.397,0.146,0.934,0.146,0.934l0.003,0.028
		l-0.025-0.008c-0.412-0.101-0.778-0.725-0.892-0.938c0.008,0.409,0.25,0.715,0.368,0.844c0.042,0.044,0.072,0.067,0.072,0.067
		l0.023,0.024l-0.032,0.011c-0.021,0.005-0.043,0.011-0.065,0.011c-0.103,0-0.214-0.073-0.326-0.178
		c-0.113-0.108-0.228-0.248-0.33-0.387c-0.204-0.28-0.361-0.56-0.361-0.56l0.034-0.018c0,0,0.088,0.154,0.217,0.35
		c0.129,0.196,0.302,0.429,0.465,0.583c0.11,0.102,0.219,0.169,0.302,0.169c0.007,0,0.012,0,0.021,0
		c-0.097-0.098-0.428-0.445-0.428-0.941c0-0.016,0-0.035,0-0.053l0.005-0.075l0.033,0.066c0,0,0.028,0.054,0.078,0.141
		c0.047,0.083,0.118,0.197,0.202,0.312c0.158,0.223,0.375,0.458,0.595,0.524c-0.003-0.065-0.016-0.229-0.043-0.426
		c-0.033-0.24-0.094-0.525-0.188-0.699c-0.005-0.008-0.009-0.015-0.009-0.015l0.035-0.02l0,0l0,0c0,0,0,0.004,0.004,0.004
		c0,0,0,0,0.001,0.001c0.021,0.041,0.146,0.26,0.304,0.489c0.169,0.247,0.38,0.495,0.52,0.518c0.005-0.001,0.01-0.005,0.017-0.012
		c0.014-0.011,0.03-0.029,0.05-0.054c0.037-0.054,0.074-0.138,0.074-0.269c0-0.021-0.003-0.043-0.005-0.064l0.04-0.005
		c0.002,0.024,0.003,0.048,0.003,0.07C28.198,19.242,28.038,19.336,28.036,19.338z"/>
	<path fill="#FECE00" d="M16.056,3.19c0.048-0.037,0.101-0.077,0.155-0.112c0.26,0.202,0.474,0.451,0.713,0.675
		c0.22-0.254,0.583-0.287,0.893-0.254c0.194,0.03,0.41,0.098,0.51,0.28c0.335,0.529,0.576,1.109,0.84,1.674
		c0.078,0.164,0.149,0.333,0.239,0.493c0.007,0.027,0.012,0.078,0.017,0.104c-0.259-0.086-0.531-0.104-0.803-0.131
		c-0.46-0.04-0.927-0.073-1.369-0.214c-0.324-0.112-0.673-0.299-0.794-0.644c-0.019-0.203-0.029-0.403,0.007-0.603
		c0.02-0.064,0.036-0.127,0.057-0.194c0.013-0.041,0.031-0.078,0.045-0.119c0.034-0.063,0.079-0.12,0.103-0.19
		C16.59,3.618,16.291,3.417,16.056,3.19L16.056,3.19z"/>
	<path fill="#FECE00" d="M16.056,36.808c0.048,0.036,0.101,0.076,0.155,0.112c0.26-0.199,0.474-0.449,0.713-0.672
		c0.22,0.252,0.583,0.284,0.893,0.252c0.194-0.029,0.41-0.098,0.51-0.281c0.335-0.526,0.576-1.109,0.84-1.672
		c0.078-0.163,0.149-0.333,0.239-0.494c0.007-0.026,0.012-0.079,0.017-0.105c-0.259,0.086-0.531,0.105-0.803,0.134
		c-0.46,0.037-0.927,0.07-1.369,0.212c-0.324,0.115-0.673,0.302-0.794,0.644c-0.019,0.204-0.029,0.407,0.007,0.604
		c0.02,0.066,0.036,0.129,0.057,0.193c0.013,0.039,0.031,0.078,0.045,0.119c0.034,0.064,0.079,0.121,0.103,0.191
		C16.59,36.381,16.291,36.582,16.056,36.808L16.056,36.808z"/>
	<path fill="#FF7300" d="M10.771,2.266C9.007,3.187,7.403,4.365,6,5.747v28.505c1.403,1.382,3.007,2.561,4.771,3.48h1.938V2.266
		H10.771z"/>
	<path fill="#007229" d="M6,5.729C2.301,9.358,0,14.408,0,20c0,5.592,2.301,10.642,6,14.271V5.729z"/>
</g>
</svg>
