<svg xmlns="http://www.w3.org/2000/svg" width="40" height="40" viewBox="0 0 40 40">
    <g fill="none" fill-rule="evenodd">
        <g>
            <g>
                <g fill="#D0D0D5" fill-rule="nonzero">
                    <path d="M20 0c11.046 0 20 8.954 20 20s-8.954 20-20 20S0 31.046 0 20 8.954 0 20 0zm0 1C9.507 1 1 9.507 1 20s8.507 19 19 19 19-8.507 19-19S30.493 1 20 1z" transform="translate(-638.000000, -720.000000) translate(638.000000, 720.000000)"/>
                </g>
                <g>
                    <path fill="#0000B3" d="M0 19.998c0 8.07 4.783 15.019 11.668 18.179V1.818C4.783 4.98 0 11.928 0 19.998" transform="translate(-638.000000, -720.000000) translate(638.000000, 720.000000)"/>
                    <path fill="#E32110" d="M40 19.998c0-8.07-4.782-15.018-11.666-18.18v36.359C35.218 35.017 40 28.068 40 19.998" transform="translate(-638.000000, -720.000000) translate(638.000000, 720.000000)"/>
                    <path fill="#F7D900" d="M20.002 0c-2.977 0-5.799.653-8.334 1.818v36.36C14.203 39.343 17.025 40 20.002 40c2.974 0 5.795-.657 8.332-1.822V1.818C25.797.653 22.976 0 20.002 0" transform="translate(-638.000000, -720.000000) translate(638.000000, 720.000000)"/>
                    <path fill="#000" d="M16.57 23.658c.037.025.046.081.068.121-.022.013-.043.022-.063.035.013-.054-.019-.104-.006-.156m2.587-9.716c-.034.015-.073.009-.108.007-.166-.023-.323-.079-.484-.105.003-.033.003-.068.003-.103.171-.048.357.004.507.093.035.029.092.056.082.108m6.607 5.398c.031-.034.027-.088.028-.132l.076-.012v-.42c-.096.074-.195.143-.293.215-.011.013-.029.018-.034.035.006.026.018.049.029.075-.035.02-.07.042-.086.082-.016.041 0 .083.015.123-.104-.008-.208-.012-.31-.008-.025.005-.066.008-.066.041-.01.121.024.236.01.354-.01.083-.023.167-.069.238-.02.038-.057.06-.083.092-.005.046.019.09.033.134-.025.014-.058.02-.07.05-.01.06.015.119-.016.17-.03.061-.062.124-.093.182-.004-.08 0-.162 0-.243 0-1.357.004-2.717.004-4.07.01-.21.002-.422.005-.633.003-.134-.056-.257-.115-.374-.128-.235-.298-.444-.485-.634-.164-.164-.342-.312-.536-.44-.02-.018-.041.004-.058.013-.295.193-.54.443-.8.683-.079.066-.156.145-.253.185 0 .162.06.316.059.476v.305c-.068.005-.133.013-.199.028-.228.047-.421.193-.622.312-.198.126-.418.21-.644.277-.128-.093-.245-.206-.326-.344-.185-.308-.257-.67-.255-1.025.01-.174.158-.295.178-.463-.001-.102-.011-.206-.015-.307.063.029.12.073.167.119-.001-.092-.009-.19-.04-.281-.012-.04-.034-.07-.061-.097.058-.034.124-.041.186-.047-.052-.104-.155-.171-.25-.234.061-.068.154-.087.237-.103-.27-.07-.534-.178-.789-.295-.279-.135-.6-.194-.911-.157-.075.011-.158.029-.21.093-.034.036-.032.099-.08.126-.076.044-.167.04-.252.044-.073 0-.143.028-.202.072-.003-.095 0-.189 0-.286.079.003.16 0 .24.003.074.007.13.063.154.125.045-.064.06-.143.062-.223-.001-.078-.013-.161-.062-.226-.027.07-.088.127-.165.13-.076.003-.155 0-.229 0 0-.082-.003-.167 0-.246.006-.074.067-.123.126-.157-.052-.03-.11-.046-.168-.054h-.112c-.06.008-.122.023-.171.06.07.023.125.088.131.163.007.078.002.157.004.234-.079 0-.158.003-.238 0-.075-.005-.136-.062-.16-.13-.059.085-.066.195-.057.294.005.058.026.112.057.157.024-.064.083-.125.158-.127.082-.003.161-.003.24 0-.001.344.002.691-.001 1.037 0 .079-.051.146-.118.179.106.032.17.131.213.23.041-.099.105-.204.215-.229-.062-.028-.117-.082-.119-.155-.003-.135 0-.264 0-.396.144.05.287.119.394.234.159.17.21.409.22.635.006.33-.015.667-.114.984-.057.168-.135.334-.255.47-.067.072-.14.142-.225.19-.221-.064-.44-.15-.636-.274-.146-.086-.286-.187-.442-.255-.12-.052-.25-.075-.38-.083v-.332c0-.153.06-.298.058-.451-.102-.044-.18-.126-.26-.196-.266-.244-.52-.509-.83-.693-.32.205-.602.468-.835.765-.12.161-.232.33-.292.52-.03.082-.027.166-.025.252.001.636.004 1.272.004 1.905-.003.437.004.871 0 1.302-.037-.074-.076-.147-.128-.211-.043.097-.08.195-.092.297-.098-.139-.248-.228-.39-.31-.027.167-.033.353.057.502.025.042.052.083.082.12-.107-.055-.225-.081-.344-.088.018.085.053.169.094.244.057.11.136.21.25.261.08.04.168.054.256.067-.033.024-.069.044-.11.05-.073.014-.13.091-.115.163.013.064.076.115.138.115.087.004.162-.08.147-.165-.008-.042.01-.082.044-.106.036.082.08.166.112.251.009.064.002.13.003.192-.166-.063-.35-.087-.528-.07.048.078.097.157.174.21-.074 0-.146.019-.215.046.094.14.21.272.363.348.063.037.136.046.206.058v1.151c0 .242.006.484-.004.723 0 .669 0 1.33-.004 1.994.004.126-.04.248-.083.362.112-.054.2-.147.285-.236.184-.204.352-.43.477-.672.003.03.003.064.003.094.279-.135.478-.386.64-.647.062-.002.124-.012.185-.032-.062.026-.135.054-.155.123-.03.085.04.16.116.18-.054.045-.115.09-.144.156-.044.085-.079.185-.062.285.013.07.053.128.094.185.008-.022.02-.04.031-.06.1.124.2.249.306.372.056.039.135.045.195.02.08-.056.143-.13.225-.182.003.018.017.037.015.054-.025.124-.057.244-.077.365.01.015.025.02.04.029.145.075.287.16.432.233.039-.176.082-.355.114-.533-.11-.057-.22-.12-.333-.178-.02-.04-.047-.085-.057-.133.048-.09.068-.2.135-.287.232-.317.465-.63.71-.942.004.03.01.062.017.094.052-.095.124-.174.197-.25.119-.121.246-.233.375-.343l-.155-.067c-.11.124-.22.251-.348.357-.019-.078-.04-.16-.064-.237-.064.026-.12.073-.187.091-.017-.069-.024-.139-.039-.207-.064.031-.135.044-.209.044.102-.094.167-.218.225-.338-.037-.02-.072-.04-.108-.057-.096.177-.182.363-.311.524.045.005.09.007.137.007-.176.254-.351.506-.51.766-.019.031-.044.06-.078.075-.047.02-.097.004-.146-.002-.018-.046-.04-.09-.059-.135.04.006.068.036.093.059.066.052.185.032.218-.048.035-.064.008-.155-.057-.187-.052-.024-.116-.019-.16.021-.04.032-.092.045-.144.048-.004-.013-.014-.027-.019-.04.15-.093.292-.212.36-.375.058-.14.06-.294.048-.443-.08.028-.157.061-.23.104.004-.066.008-.132-.014-.195-.003-.018-.014-.042-.01-.062.072-.232.14-.463.197-.7-.03-.1-.02-.204-.023-.306-.072.281-.145.568-.246.846-.021-.03-.041-.061-.06-.092-.101.086-.18.194-.251.305-.002-.057-.005-.116-.002-.173-.003-.046.031-.086.026-.132-.001-.043-.029-.076-.026-.12v-5.007c.09.069.164.159.252.23.103-.096.206-.196.307-.287.007-.079-.016-.156-.057-.223-.07.057-.13.127-.203.183-.002-.131-.002-.261 0-.393v-.002c-.002-.136-.004-.273.001-.41.027-.066.072-.12.104-.18.039.044.063.096.096.146.1.149.209.296.346.414.038-.097.122-.171.206-.23.017-.013.036-.026.056-.03.053.096.101.213.21.26.084-.097.198-.17.303-.242.15.065.316.078.477.094-.082.061-.172.107-.264.154.212 0 .423-.037.619-.112.12-.054.223-.136.33-.213-.037.121-.105.226-.18.324.255-.019.502-.139.665-.338.04.097.083.192.146.27.074-.076.114-.175.16-.27.153.203.403.317.657.338-.076-.1-.14-.206-.184-.326.098.07.193.14.294.194.076.038.156.06.233.082.139.031.281.055.425.051-.087-.049-.183-.09-.256-.154.16-.014.325-.031.476-.094.104.078.22.147.307.247.091-.052.144-.146.185-.241.007-.01.013-.036.029-.02.102.062.201.142.249.253.182-.153.317-.357.44-.56l.096.153c.018.022.016.053.016.082-.003.248.001.503-.003.758-.072-.061-.133-.126-.203-.19-.046.066-.067.146-.058.225.105.091.203.191.307.286.086-.076.166-.155.25-.231.002.716 0 1.434 0 2.15 0 1.221.002 2.439 0 3.66-.063-.058-.105-.132-.143-.203-.096-.18-.166-.373-.228-.569-.072-.22-.126-.447-.186-.664-.002.098.008.2-.023.294 0 .016.002.029.007.047.098.369.205.735.335 1.09.059.157.12.309.194.453.03.06.043.123.085.177-.06.008-.131.025-.169.08-.03.046-.017.108 0 .159-.042-.02-.084-.04-.13-.044-.065-.007-.132.014-.2.016-.054-.002-.098-.042-.126-.088-.157-.261-.336-.51-.505-.763.045 0 .088-.002.132-.007-.123-.16-.211-.347-.307-.524l-.103.053c.048.126.12.245.217.34-.07.005-.142-.01-.206-.042-.013.068-.024.137-.034.204-.07-.013-.13-.057-.189-.097-.027.084-.046.168-.071.25-.126-.11-.236-.237-.344-.36-.059.024-.115.047-.17.076.004 0 .013-.005.019-.008.094.086.192.17.286.26.104.1.209.203.285.331.002-.032.01-.065.017-.099.246.333.497.653.735.99.046.075.06.165.107.237.05.074.11.142.177.199-.037.002-.082.008-.105.037-.023.029-.014.066-.014.101-.045-.011-.09-.02-.136-.02-.02.06-.011.126-.011.19 0 .11.006.222.011.334.069-.04.133-.084.198-.127.077-.056.163-.103.225-.177-.025-.04-.058-.077-.095-.105.048-.015.082-.055.074-.103.047.045.124.044.184.024.045-.006.07-.048.097-.082.086-.102.169-.208.255-.314.012.022.02.041.03.065.041-.063.085-.128.098-.2.009-.099-.028-.192-.07-.28-.034-.069-.098-.116-.157-.157.067-.001.145-.033.172-.104.018-.063-.016-.124-.038-.18.013.005.025.018.036.036.062.102.136.205.215.297.117.138.255.262.422.336l.002-.096c.121.242.285.463.465.663.086.095.179.191.295.247-.027-.072-.055-.15-.07-.229-.024-.115-.004-.23-.014-.348-.006-1.121-.006-2.237-.006-3.358.002-.047-.01-.095.018-.134.097-.19.19-.38.289-.565.026-.054.101-.06.127-.116.002-.027-.002-.052-.004-.077.044-.006.085-.018.125-.037.007-.052.007-.106.03-.15.045-.085.113-.152.187-.21.085-.062.182-.106.262-.175v-.045c-.055-.097-.13-.185-.206-.27.037-.011.076-.016.102-.05" transform="translate(-638.000000, -720.000000) translate(638.000000, 720.000000)"/>
                    <path fill="#FDF701" d="M18.336 12.676c.086-.028.176-.028.262 0-.037.041-.072.086-.076.146-.005.097 0 .287 0 .287s.183.008.274.006c.063-.004.118-.04.163-.08.027.082.025.175-.003.26-.045-.048-.107-.084-.175-.084h-.256v.241s.013.12-.023.168c-.048.06-.068.14-.081.217l-.002-.626h-.27c-.061.004-.122.036-.165.085-.03-.086-.025-.177-.002-.26.033.024.063.053.102.066.058.017.122.013.186.014.048-.001.15-.007.15-.007s.002-.177 0-.26c-.001-.067-.034-.13-.084-.173" transform="translate(-638.000000, -720.000000) translate(638.000000, 720.000000)"/>
                    <path fill="#86632B" d="M19.308 13.304c.133-.009.265-.005.397 0 .36.043.657.268.996.375-.03.034-.061.065-.081.107.078.032.167.065.204.147-.059.014-.123.036-.158.09.088.025.153.104.158.196-.064-.012-.126-.046-.194-.052.03.147.046.297.046.446 0 .054-.032.101-.056.15-.05.085-.103.174-.114.272-.008.09 0 .176.006.263.014.259.073.521.204.752.062.105.118.215.188.317-.118-.056-.225-.132-.326-.22-.08-.071-.158-.153-.197-.257-.025-.062-.016-.133-.017-.199-.002-.223-.002-.67-.002-.67h-.087v.765c0 .056.005.116.018.172.062.19.134.377.228.552-.048-.015-.088-.046-.127-.071-.103-.069-.198-.154-.271-.256-.02-.032-.043-.068-.043-.11-.002-.352-.002-1.052-.002-1.052h-.086v1.053c-.003.038.028.082 0 .118-.028.044-.062.087-.103.121-.043-.044-.077-.094-.111-.145.025-.08.01-.167.014-.253v-.894h-.085l.001 1.029c.002.062-.035.118-.072.17-.103.125-.237.222-.379.297.093-.168.164-.349.223-.534.025-.068.027-.14.029-.212-.002-.248-.002-.75-.002-.75h-.086v.765c.002.111-.066.21-.137.288-.121.127-.265.224-.418.304.081-.088.124-.2.188-.302.173-.312.219-.677.228-1.03.01-.109-.002-.218-.002-.329-.01-.155-.04-.311-.109-.451-.019-.037-.035-.089-.01-.128.036-.045.1-.054.156-.043.099.032.18.1.268.154-.006-.08-.048-.153-.11-.198-.032-.023-.05-.057-.052-.096.082.008.175.025.247-.022.05-.027.087-.079.082-.137.002-.054-.042-.092-.077-.127.09 0 .177-.029.267-.025.045 0 .086.02.128.036.097.055.19.126.292.18.032.019.064.033.101.035-.13-.114-.249-.253-.413-.312-.126-.043-.258-.009-.386-.003-.124.009-.221-.09-.342-.1-.065-.01-.133.004-.2-.01-.032-.018-.022-.06 0-.082.043-.062.119-.074.186-.084" transform="translate(-638.000000, -720.000000) translate(638.000000, 720.000000)"/>
                    <path fill="#86632B" d="M19.152 13.623c-.017-.034.015-.071.051-.074.054-.009.114.003.162.028.045.02.095.028.132.058-.04.015-.087.027-.123.053-.03.026-.045.06-.06.094-.065-.037-.145-.078-.162-.159" transform="translate(-638.000000, -720.000000) translate(638.000000, 720.000000)"/>
                    <path fill="#D32620" d="M18.502 13.702c.05-.082.145-.13.242-.128.109.003.22-.01.33-.006.059.123.177.228.18.374-.164-.23-.484-.322-.752-.24" transform="translate(-638.000000, -720.000000) translate(638.000000, 720.000000)"/>
                    <path fill="#000" d="M18.947 13.647c.063-.026.107.042.1.097-.037-.009-.072-.026-.103-.05l.003-.047" transform="translate(-638.000000, -720.000000) translate(638.000000, 720.000000)"/>
                    <path fill="#FDF701" d="M18.42 13.902c-.008-.062.055-.096.096-.13.003.099-.001.202.005.301 0 .09-.011.18 0 .265.01.055.042.093.077.131-.057.035-.096.092-.128.147-.027-.06-.074-.105-.123-.147.028-.053.076-.094.073-.16.002-.136 0-.273 0-.407" transform="translate(-638.000000, -720.000000) translate(638.000000, 720.000000)"/>
                    <path fill="#D32620" d="M18.838 13.955c.112.046.235.056.354.046-.042.046-.083.095-.114.147-.092-.048-.167-.12-.24-.193" transform="translate(-638.000000, -720.000000) translate(638.000000, 720.000000)"/>
                    <path fill="#86632B" d="M16.034 14.499c.02-.018.04-.03.063-.046.161.146.325.292.498.424.09.067.178.138.278.186.015.01.035.018.03.037.01.238.005.472.005.709-.1-.044-.178-.123-.25-.206-.057-.066-.11-.132-.163-.205-.026-.08.005-.172.061-.237-.03-.007-.06-.03-.091-.024-.043.046-.069.11-.068.177.008.043-.034.069-.057.095-.07.07-.135.146-.204.217-.083-.12-.16-.24-.24-.363-.03-.037-.014-.082-.016-.124 0-.07.047-.124.082-.177-.003-.03-.057-.025-.08-.041-.042.05-.079.111-.09.178-.006.036.004.077-.006.112-.091.097-.19.19-.28.289-.013.019-.025-.008-.027-.016-.04-.091-.085-.182-.126-.273-.016-.026.009-.05.023-.065.187-.247.416-.46.658-.647M23.685 14.457c.149.095.28.216.41.338.124.122.243.247.344.39-.04.109-.098.217-.147.321-.102-.092-.196-.202-.297-.302-.003-.05.007-.105-.016-.158-.02-.044-.046-.086-.072-.125-.03.012-.062.018-.089.033.042.056.09.124.09.2 0 .034.008.072-.017.104-.082.125-.158.247-.245.366-.068-.077-.136-.145-.204-.217-.025-.027-.064-.052-.058-.095.002-.068-.026-.13-.07-.183-.03.014-.057.023-.086.033.032.045.07.09.067.15-.002.032.008.073-.015.1-.085.113-.17.228-.283.322-.035.027-.074.059-.121.072 0-.244-.005-.484.006-.727.117-.052.219-.132.319-.208.165-.134.328-.273.484-.414M15.23 15.364c.037.045.057.098.088.143.022.045.062.09.057.143v.386c.002.027-.022.04-.038.057-.059.05-.112.104-.172.155-.002-.217 0-.431 0-.647-.006-.087.03-.162.066-.237M24.415 15.605c.04-.08.086-.163.135-.243.04.073.07.151.07.238 0 .216.004.43 0 .645-.074-.056-.141-.126-.208-.189 0-.148-.005-.3.003-.451" transform="translate(-638.000000, -720.000000) translate(638.000000, 720.000000)"/>
                    <path fill="#86632B" d="M23.759 15.783c.075-.118.153-.239.235-.352.002.279 0 .563 0 .848-.08-.07-.156-.146-.235-.216-.002-.093-.005-.186 0-.28M15.79 15.43c.07.09.127.188.194.284.016.029.047.057.045.096v.25c-.082.073-.155.151-.238.222-.004-.287-.004-.572 0-.851M15.46 15.734c.08-.084.155-.168.238-.245v.79c-.082-.069-.157-.146-.235-.217-.005-.11-.005-.22-.004-.328M24.087 15.492c.052.042.095.092.141.139.03.037.068.065.094.103.003.109.002.218.002.328-.08.07-.151.149-.237.214v-.784M16.443 15.546c.1.147.199.307.355.399-.022.047-.058.082-.089.124-.078.087-.16.18-.266.234v-.757M22.987 15.944c.156-.088.248-.25.352-.392.006.252.003.5.001.751-.106-.058-.188-.148-.266-.238-.03-.04-.064-.075-.087-.12M16.146 15.781c.072-.063.133-.135.208-.198v.694c-.085-.066-.16-.145-.24-.22v-.232c0-.02.02-.03.032-.044M23.428 15.584c.083.07.161.15.238.225v.253c-.081.071-.155.15-.238.217-.002-.23-.002-.465 0-.695M16.878 16.042c.039.044.062.096.096.145.1.15.209.297.346.415.038-.097.122-.171.206-.23.017-.013.036-.026.057-.03.052.097.1.214.208.26.085-.097.199-.17.304-.24.15.062.316.077.478.092-.083.062-.173.107-.265.154.212 0 .423-.037.619-.112.12-.054.223-.135.33-.213-.036.121-.105.225-.18.323.255-.017.502-.138.665-.337.04.097.083.192.146.27.073-.076.114-.174.16-.27.153.203.403.318.657.337-.075-.1-.14-.205-.184-.324.098.07.193.139.294.194.076.038.156.058.233.081.138.032.281.055.425.051-.087-.05-.183-.09-.256-.154.16-.013.325-.032.476-.093.104.078.22.146.307.245.091-.05.143-.145.185-.24.007-.01.013-.036.029-.02.101.062.201.141.249.253.182-.154.317-.358.44-.56l.096.153c.018.022.016.054.016.082-.003.248.001.503-.003.758-.072-.06-.132-.126-.203-.19.05-.082.12-.145.19-.208-2.075-.003-4.151-.001-6.226-.001-.002-.137-.005-.274 0-.412.028-.065.073-.12.105-.18" transform="translate(-638.000000, -720.000000) translate(638.000000, 720.000000)"/>
                    <path fill="#86632B" d="M17.1 16.068c.068-.019.136-.015.207-.018.131-.006.255.046.372.104-.138.077-.288.146-.389.273-.098-.097-.133-.238-.19-.36M22.12 16.146c.104-.048.215-.096.336-.095.073 0 .149 0 .223.012-.014.056-.038.106-.06.158-.034.077-.068.15-.128.208-.094-.124-.24-.194-.372-.268v-.015zM17.684 16.156c.135.062.267.134.4.203-.105.021-.218.049-.305.115-.034-.02-.045-.055-.055-.088-.023-.077-.032-.154-.04-.23M21.75 16.33c.116-.054.23-.12.35-.173-.007.088-.02.18-.051.264-.009.023-.026.065-.058.042-.084-.057-.187-.084-.287-.102.015-.011.029-.022.045-.03M15.166 16.529c.068-.064.134-.128.204-.19.01.157.002.313.006.473-.001.072 0 .145-.004.215-.076-.052-.138-.12-.202-.183-.011-.106-.004-.212-.004-.315M15.79 16.56c.077-.072.155-.146.239-.221 0 .227 0 .458-.002.689-.088-.066-.157-.145-.238-.217-.002-.083 0-.166 0-.252M16.115 16.337c.072.064.137.131.209.194.014.012.034.024.03.044.002.074.002.149 0 .222.002.018-.016.025-.027.038-.07.064-.139.134-.214.199 0-.233 0-.467.002-.697M24.087 16.56c.076-.074.156-.146.237-.218v.686c-.085-.068-.158-.144-.237-.217v-.25M24.412 16.339c.072.062.14.128.208.192v.308c-.068.067-.136.132-.208.195v-.695zM15.463 16.344c.067.054.13.12.198.176.014.016.038.029.037.05v.241c-.03.033-.068.06-.101.095-.045.038-.082.086-.134.121-.005-.228-.005-.457 0-.683M16.645 16.386c.011-.015.023-.025.038-.037v.685c-.073-.063-.136-.129-.21-.193-.01-.015-.031-.023-.03-.044v-.22c.078-.053.145-.116.202-.191M23.102 16.346c.072.081.143.164.233.23.015.076.004.158.005.235-.08.073-.15.153-.236.216-.007-.228-.004-.457-.002-.681M23.428 16.56c.077-.072.153-.145.237-.214.001.224.003.453 0 .682-.06-.049-.111-.105-.167-.153-.024-.026-.054-.046-.07-.073-.002-.083 0-.163 0-.241M23.757 16.342c.081.073.165.142.237.219.002.084.002.166 0 .248-.072.078-.155.15-.235.223-.005-.233-.002-.465-.002-.69" transform="translate(-638.000000, -720.000000) translate(638.000000, 720.000000)"/>
                    <path fill="#FDF701" d="M16.773 16.632c2.076 0 4.15-.001 6.228.002-.072.063-.141.127-.192.208-.046.066-.067.146-.058.225v4.428c-.002.099.008.201-.022.296-.046.137-.16.24-.27.333-.126.102-.27.184-.415.262-.032.018-.068.034-.103.053-.206.108-.417.199-.628.296-.058.023-.114.046-.17.075-.188.08-.374.165-.558.252-.051.02-.099.044-.148.069-.103.047-.207.104-.296.174-.094.07-.172.156-.248.245-.054-.063-.112-.127-.173-.183-.11-.102-.242-.175-.376-.24-.047-.02-.095-.045-.143-.067l-.575-.26-.155-.067c-.21-.093-.417-.186-.621-.29-.037-.02-.073-.04-.108-.057-.188-.1-.377-.207-.528-.36-.065-.063-.118-.14-.158-.223-.03-.1-.02-.204-.023-.307.003-1.48 0-2.953 0-4.429.007-.079-.015-.155-.056-.223-.053-.08-.12-.157-.204-.21v-.002z" transform="translate(-638.000000, -720.000000) translate(638.000000, 720.000000)"/>
                    <path fill="#86632B" d="M16.773 16.634c.083.053.15.13.204.21-.07.057-.131.127-.204.184-.002-.132-.002-.262 0-.394" transform="translate(-638.000000, -720.000000) translate(638.000000, 720.000000)"/>
                    <path fill="#D32620" d="M17.11 16.779h5.557c-.019.045-.046.087-.056.136-.018.076-.012.159-.013.238v2.307c0 .06-.003.121.002.178-.313-.095-.606-.253-.855-.47-.152.184-.376.287-.595.37-.075.023-.148.054-.228.065-.012-.022-.023-.044-.032-.065.232-.074.45-.202.618-.381.16-.166.272-.382.316-.606.047-.231.042-.481-.054-.696-.138-.314-.406-.543-.669-.754-.09-.074-.195-.142-.252-.248-.036.183.037.363.103.528.104.245.214.5.224.774.007.198-.028.406-.152.568-.076.098-.189.17-.31.199-.058.014-.123.01-.176.04-.032.02-.06.047-.096.058-.106-.008-.148-.135-.252-.139-.058-.004-.106.048-.152.08-.054.046-.13.085-.202.051-.085-.025-.136-.117-.223-.13-.12-.018-.165.14-.278.138-.055-.023-.1-.076-.159-.081-.07-.008-.141-.02-.205-.05-.147-.066-.258-.199-.31-.348-.077-.226-.065-.474 0-.704.048-.167.12-.325.185-.488.06-.155.125-.32.09-.488-.04.062-.094.115-.153.161-.203.166-.416.323-.578.53-.16.192-.273.437-.273.696-.004.267.069.538.222.759.178.255.45.437.743.531-.012.021-.023.045-.036.065-.204-.05-.4-.124-.583-.23-.089-.058-.17-.126-.24-.205-.247.22-.542.376-.857.47.005-.866 0-1.736.002-2.603.003-.09-.023-.177-.072-.256" transform="translate(-638.000000, -720.000000) translate(638.000000, 720.000000)"/>
                    <path fill="#000" d="M20.952 17.381c-.066-.165-.139-.345-.103-.528.057.106.162.174.252.247.263.213.531.441.67.755.095.215.1.464.053.696-.045.224-.155.44-.317.605-.167.18-.384.307-.617.382.008.021.02.043.032.065.08-.01.153-.042.228-.065.22-.083.443-.187.596-.37.248.217.541.374.854.47l-.004.002c-.295.143-.585.303-.85.5-.118-.148-.287-.246-.447-.342-.12-.065-.24-.134-.367-.185.075.143.154.283.23.425-.13.01-.259.033-.382.077-.118.042-.233.104-.307.205-.094.13-.127.289-.146.443-.016.166-.009.334-.009.5 0 .181.008.369.084.539.06.136.21.194.317.287.1.083.103.266-.01.339-.107.076-.239.116-.341.2-.086.07-.167.165-.282.198-.13.03-.273.03-.403-.009-.13-.036-.208-.154-.319-.227-.095-.065-.208-.1-.3-.17-.104-.08-.094-.252.005-.333.076-.063.165-.112.238-.18.064-.062.094-.146.116-.227.025-.106.04-.216.042-.325.008-.184.003-.371-.006-.557-.017-.164-.048-.335-.146-.474-.054-.074-.131-.13-.212-.169-.15-.071-.314-.101-.475-.12.071-.14.154-.276.225-.422-.182.08-.357.174-.527.283-.104.068-.206.147-.286.244-.265-.197-.558-.357-.854-.5l-.003-.002c.315-.094.61-.251.856-.47.07.08.151.147.241.205.182.106.379.181.583.23.014-.02.024-.044.037-.065-.294-.094-.566-.276-.745-.532-.153-.22-.226-.49-.22-.758 0-.258.11-.505.272-.696.162-.207.375-.364.578-.53.058-.046.114-.1.154-.16.034.168-.03.332-.09.487-.067.163-.138.32-.186.489-.064.23-.077.477 0 .703.052.15.163.282.31.348.063.03.134.041.206.05.059.006.103.058.157.08.113.003.16-.155.279-.137.087.013.138.105.222.13.072.033.148-.006.203-.05.046-.034.094-.085.152-.08.105.003.147.13.25.138.038-.011.066-.037.098-.057.052-.031.118-.027.176-.041.121-.03.234-.1.31-.199.124-.162.159-.37.153-.568-.011-.273-.122-.529-.225-.774" transform="translate(-638.000000, -720.000000) translate(638.000000, 720.000000)"/>
                    <path fill="#000" d="M19.724 17.403c.058-.158.11-.32.171-.474.059.154.115.313.168.473.154-.068.302-.147.458-.219-.048.112-.104.221-.156.33-.015.043-.045.082-.054.128.151.062.309.11.46.168 0 .002 0 .005-.003.007-.148.057-.301.11-.455.161.003.045.031.084.049.126.05.112.11.222.158.337-.155-.069-.303-.148-.457-.214-.055.16-.11.316-.17.47-.057-.155-.112-.315-.17-.472l-.452.216c.058-.157.146-.302.21-.46-.159-.053-.315-.105-.47-.17.156-.053.311-.113.47-.166-.064-.154-.152-.3-.21-.457.151.074.302.142.453.216" transform="translate(-638.000000, -720.000000) translate(638.000000, 720.000000)"/>
                    <path fill="#86632B" d="M16.726 17.353l.307-.286c0 1.476.004 2.95 0 4.43-.072.282-.145.567-.246.846-.021-.029-.041-.061-.06-.091-.101.084-.18.193-.25.304-.003-.056-.006-.116-.003-.172-.003-.048.031-.087.026-.132-.001-.043-.029-.077-.026-.12v-5.007c.09.067.164.158.252.228M22.751 17.067c.105.092.204.19.307.286.085-.076.167-.155.25-.23.002.715 0 1.433 0 2.15 0 1.22.002 2.438 0 3.659-.063-.059-.105-.13-.144-.203-.096-.18-.165-.373-.227-.57-.073-.22-.126-.447-.186-.663v-4.43zM15.817 17.117c.083.071.16.15.24.222.009.012.017.012.028.005.082-.077.158-.154.241-.227-.001 1.342.001 2.681-.001 4.022-.038.043-.087.074-.128.112-.009-.124-.054-.235-.108-.342-.057.045-.112.092-.164.143.003-.073-.035-.141-.106-.16-.002-1.257-.002-2.516-.002-3.775M24.368 17.353c.086-.075.165-.159.252-.235-.001 1.284.003 2.568 0 3.854-.024.07-.066.13-.097.198-.034.058-.05.129-.107.17-.024.019-.048.04-.058.073-.008.03-.003.061 0 .092-.04.014-.085.022-.11.06-.033.047-.022.107-.022.157-.042.016-.086.047-.091.093-.004.033.027.068.01.1-.008.017-.018.031-.028.045-.007-.543-.001-1.085-.002-1.634 0-1.066-.002-2.134 0-3.201.017.01.033.022.047.034.067.065.138.129.206.194M15.165 17.125c.087.072.167.15.248.228.091-.069.16-.163.255-.226v2.87c-.022-.054-.038-.115-.062-.17-.073.046-.13.111-.183.174-.011-.1-.049-.196-.106-.279-.02-.036-.035-.075-.07-.101-.024-.02-.055-.02-.082-.025v-2.471zM23.461 17.122c.084.075.168.151.248.231.093-.069.161-.165.26-.228v5.112c0 .015-.006.034-.014.05-.105.205-.21.411-.318.617-.033.079-.116.12-.187.162.015-.17.007-.344.008-.512.003-1.81-.001-3.621.003-5.432" transform="translate(-638.000000, -720.000000) translate(638.000000, 720.000000)"/>
                    <path fill="#FDF701" d="M18.754 17.177c.011-.01.024-.019.039-.025-.007.08-.047.153-.08.229-.115.248-.238.515-.25.801.002.185.032.376.124.538.079.14.21.254.367.3.065.015.13.017.198.026.07.016.12.088.195.091.092 0 .15-.08.225-.116.05-.021.095.021.132.048.054.046.124.087.198.082.07-.003.132-.042.184-.085.034-.028.075-.062.12-.046.075.032.126.105.208.117.098.014.155-.1.249-.095.071-.005.14-.015.207-.038.149-.052.27-.17.34-.308.094-.18.119-.391.104-.593-.027-.247-.13-.475-.23-.694-.036-.085-.077-.167-.093-.253.012.002.027.008.036.017.183.145.35.315.48.51.097.148.174.315.194.498.013.22-.029.443-.134.64-.117.216-.307.39-.52.508-.103.053-.21.104-.322.131.067.166.147.327.217.495-.156.031-.312.078-.446.165-.064.042-.113.099-.149.163-.092.172-.117.366-.132.557-.007.16-.016.317-.014.476.014.18-.008.365.065.532.048.117.167.178.269.242.06.036.125.085.126.161.007.054-.035.1-.076.13-.078.05-.167.08-.249.122-.102.051-.175.151-.287.186-.1.03-.21.03-.313 0-.11-.035-.18-.13-.277-.182-.092-.048-.195-.075-.277-.14-.045-.03-.07-.088-.058-.138.017-.075.089-.115.145-.151.091-.06.195-.115.243-.218.062-.137.061-.291.067-.438 0-.305.014-.612-.057-.91-.026-.107-.064-.216-.136-.303-.049-.062-.118-.104-.19-.14-.111-.054-.233-.09-.355-.114.074-.167.151-.33.218-.495-.19-.053-.37-.146-.523-.267-.19-.147-.335-.349-.405-.577-.037-.13-.053-.27-.047-.408.016-.251.144-.476.296-.665.11-.134.237-.256.374-.366" transform="translate(-638.000000, -720.000000) translate(638.000000, 720.000000)"/>
                    <path fill="#025C33" d="M14.424 18.854c.098.032.198.096.243.194.039.096.048.204.045.306-.101-.036-.2-.099-.243-.202-.037-.094-.048-.198-.045-.298M14.854 18.905c.076.096.13.217.112.343-.01.091-.025.186-.074.265-.062-.13-.11-.277-.088-.424.008-.063.027-.125.05-.184" transform="translate(-638.000000, -720.000000) translate(638.000000, 720.000000)"/>
                    <path fill="#FDF701" d="M25.809 18.903L25.811 19.141 25.603 19.036zM25.583 19.14c.08-.035.183.033.164.122-.01.082-.125.1-.18.05-.06-.042-.056-.146.016-.173" transform="translate(-638.000000, -720.000000) translate(638.000000, 720.000000)"/>
                    <path fill="#FFF" d="M25.791 19.207l.076-.012v.466c-.056-.096-.131-.186-.206-.27.036-.012.075-.015.102-.05.031-.036.027-.09.028-.134" transform="translate(-638.000000, -720.000000) translate(638.000000, 720.000000)"/>
                    <path fill="#FDF701" d="M17.476 19.647c.203-.077.4-.178.555-.329.133.151.314.247.504.308-.123.067-.242.146-.352.231-.054.048-.109.092-.152.152-.015-.019-.036-.04-.06-.057-.118-.093-.247-.17-.38-.24-.038-.022-.08-.041-.115-.065M21.26 19.622c.186-.06.361-.16.496-.304.154.155.355.252.555.329-.158.087-.318.173-.466.28-.032.024-.068.048-.093.083-.13-.161-.311-.273-.49-.375l-.001-.013" transform="translate(-638.000000, -720.000000) translate(638.000000, 720.000000)"/>
                    <path fill="#025C33" d="M14.28 19.334c.099.007.204.029.285.088.08.062.125.16.15.253-.106.008-.214-.04-.283-.12-.059-.065-.115-.138-.152-.22" transform="translate(-638.000000, -720.000000) translate(638.000000, 720.000000)"/>
                    <path fill="#FDF701" d="M25.192 19.363c.1-.006.204-.001.305.005-.065.02-.134.033-.2.062-.023.145-.026.301-.084.443-.039.08-.082.162-.13.237-.024-.023-.047-.047-.068-.072.08-.046.132-.125.164-.214.045-.15-.002-.307.013-.461" transform="translate(-638.000000, -720.000000) translate(638.000000, 720.000000)"/>
                    <path fill="#FDF701" d="M25.359 19.453c.063-.024.13-.04.195-.052.027.054.052.114.071.175.014.036-.022.06-.047.083-.091.08-.183.172-.245.282-.045.08-.081.165-.12.253-.03-.018-.065-.036-.097-.052.05-.095.11-.187.148-.288.04-.112.052-.229.068-.343.002-.02.001-.05.027-.058" transform="translate(-638.000000, -720.000000) translate(638.000000, 720.000000)"/>
                    <path fill="#FDF701" d="M25.618 19.43c.063.077.126.157.18.24-.109.1-.253.152-.351.266-.04.042-.062.1-.084.155-.01.04-.007.084-.013.122l-.09-.014c.008-.04.03-.08.047-.115.026-.059.052-.12.092-.172.074-.102.169-.18.26-.267.01-.01.024-.025.018-.042-.015-.056-.045-.112-.059-.172" transform="translate(-638.000000, -720.000000) translate(638.000000, 720.000000)"/>
                    <path fill="#005BA4" d="M18.324 19.896c.17-.109.345-.204.527-.283-.07.146-.154.281-.225.422.16.019.326.049.475.12.081.039.158.095.212.17.098.138.129.31.146.473.01.186.014.373.006.558-.001.108-.017.218-.042.324-.022.08-.052.165-.116.227-.073.067-.162.117-.238.18-.1.08-.11.253-.006.333.093.07.206.105.301.17.11.073.189.19.32.228.13.039.271.039.402.008.115-.033.196-.127.282-.199.102-.083.234-.123.341-.2.113-.072.11-.254.01-.338-.106-.093-.256-.15-.317-.287-.076-.17-.084-.358-.084-.538 0-.167-.007-.335.01-.5.018-.155.05-.314.145-.444.074-.1.19-.163.307-.205.123-.044.253-.068.383-.077-.077-.142-.156-.282-.23-.425.126.05.245.12.366.185.16.096.33.193.447.343.265-.198.555-.358.85-.5.004.66 0 1.318.002 1.979.011.118-.073.22-.154.302-.196.19-.443.315-.687.433-.454.225-.924.41-1.384.627-.172.087-.35.174-.482.32-.08-.095-.187-.16-.29-.22-.225-.122-.456-.222-.683-.324-.3-.13-.596-.256-.885-.4-.202-.096-.402-.2-.58-.334-.089-.072-.178-.153-.233-.254-.023-.042-.04-.092-.038-.138.002-.663 0-1.329.002-1.992.296.143.59.303.854.5.08-.097.182-.176.286-.244" transform="translate(-638.000000, -720.000000) translate(638.000000, 720.000000)"/>
                    <path fill="#025C33" d="M15.283 19.866c.124.148.096.362.034.53-.046-.06-.07-.139-.09-.212-.024-.109.006-.222.056-.318" transform="translate(-638.000000, -720.000000) translate(638.000000, 720.000000)"/>
                    <path fill="#FDF701" d="M14.96 19.907c.017-.002.038.005.049.02.074.092.106.207.164.31.039.076.093.15.099.236-.008.008-.026.018-.032.02-.063-.033-.09-.105-.12-.164-.047-.108-.099-.215-.148-.323-.011-.031-.033-.065-.013-.099" transform="translate(-638.000000, -720.000000) translate(638.000000, 720.000000)"/>
                    <path fill="#025C33" d="M15.421 20.325c.023-.103.07-.201.134-.289.058.096.097.206.1.318.006.105-.038.2-.094.28-.024.031-.046.068-.081.09-.053-.124-.091-.26-.059-.399" transform="translate(-638.000000, -720.000000) translate(638.000000, 720.000000)"/>
                    <path fill="#FDF701" d="M25.043 20.219c.063-.025.158.023.15.096 0 .02-.01.037-.02.052-.11.136-.182.29-.257.44l-.264.519c-.01.022-.028.036-.048.054-.034 0-.068-.016-.085-.046-.009-.022-.007-.046.004-.07.097-.186.191-.373.284-.555.065-.12.127-.239.172-.37.012-.04.017-.097.064-.12" transform="translate(-638.000000, -720.000000) translate(638.000000, 720.000000)"/>
                    <path fill="#000" d="M18.872 20.482l.228-.237.237.237-.228.227s-.155-.153-.237-.227M20.682 20.237L20.914 20.474 20.679 20.71 20.446 20.476z" transform="translate(-638.000000, -720.000000) translate(638.000000, 720.000000)"/>
                    <path fill="#025C33" d="M14.543 20.266c.149-.005.305.022.422.116.056.042.113.09.149.15-.148-.005-.305-.029-.425-.124-.056-.041-.104-.088-.146-.142" transform="translate(-638.000000, -720.000000) translate(638.000000, 720.000000)"/>
                    <path fill="#FDF701" d="M18.986 20.476l.118-.116.12.12-.12.12-.118-.124M20.682 20.352L20.801 20.479 20.682 20.596 20.558 20.474z" transform="translate(-638.000000, -720.000000) translate(638.000000, 720.000000)"/>
                    <path fill="#025C33" d="M14.595 20.556c.106.003.214.017.316.05.092.04.171.106.232.186-.1.003-.193-.005-.287-.025-.115-.023-.22-.105-.261-.211" transform="translate(-638.000000, -720.000000) translate(638.000000, 720.000000)"/>
                    <path fill="#86632B" d="M15.517 20.858c.06-.054.11-.12.15-.189.003.092 0 .183 0 .274-.03.018-.068.029-.106.027-.013-.038-.033-.072-.044-.112" transform="translate(-638.000000, -720.000000) translate(638.000000, 720.000000)"/>
                    <path fill="#000" d="M18.89 20.712c.137.021.27.052.406.075.042.005.065.045.08.078.047.109.057.228.06.345 0 .145 0 .292-.029.436-.044.191-.203.343-.385.408.027-.287.037-.574-.008-.858-.029-.165-.064-.33-.125-.484M20.51 20.784c.126-.023.253-.05.38-.072-.124.365-.176.757-.143 1.14.004.068.012.133.02.202-.166-.056-.314-.184-.373-.35-.032-.088-.038-.18-.043-.272-.014-.133-.005-.269.01-.4.013-.077.026-.156.078-.218.015-.022.045-.024.07-.03M17.83 21.04c.019-.134.146-.248.28-.239.14-.004.269.125.271.264.056-.03.111-.07.177-.07.114-.01.23.057.276.162.041.097.025.215-.045.295-.032.04-.076.059-.112.085.092.053.155.16.143.265-.008.158-.174.283-.325.248-.07-.01-.128-.051-.174-.103-.016.091-.076.173-.16.208-.099.05-.229.027-.308-.055-.094-.09-.106-.248-.035-.355-.079.004-.158-.012-.219-.065-.092-.073-.126-.211-.077-.32.056-.126.204-.197.333-.155-.02-.054-.032-.11-.024-.165" transform="translate(-638.000000, -720.000000) translate(638.000000, 720.000000)"/>
                    <path fill="#86632B" d="M15.165 20.86c.044-.007.086-.03.128-.022.03.07.066.138.092.209-.035.03-.07.067-.119.077-.036.005-.072.02-.101.044v-.309z" transform="translate(-638.000000, -720.000000) translate(638.000000, 720.000000)"/>
                    <path fill="#FDF701" d="M20.514 20.887c.076-.013.152-.034.227-.047-.036.18-.078.357-.083.54-.018.148-.01.293-.018.438-.077-.04-.13-.112-.166-.19-.045-.11-.024-.226-.028-.34 0-.135-.011-.283.068-.4M19.042 20.843c.076.01.151.031.23.044.072.12.067.265.067.4-.002.109.013.223-.024.326-.033.086-.09.163-.173.206.002-.323-.018-.657-.1-.976M17.958 20.992c.056-.063.146-.091.224-.063.109.03.184.165.131.275-.108-.04-.238-.012-.32.072-.022.028-.04-.015-.053-.03-.053-.076-.044-.189.018-.254" transform="translate(-638.000000, -720.000000) translate(638.000000, 720.000000)"/>
                    <path fill="#000" d="M21.245 21.077c.141-.077.316-.092.47-.05.182.046.342.167.438.324-.136-.026-.284-.026-.414.034-.157.067-.282.212-.316.376-.032.15.005.304.081.433-.169-.035-.32-.14-.423-.281-.097-.132-.142-.302-.11-.464.028-.158.135-.298.274-.372" transform="translate(-638.000000, -720.000000) translate(638.000000, 720.000000)"/>
                    <path fill="#86632B" d="M15.622 21.089c.018.008.031.02.046.031v.076c-.017-.035-.036-.07-.046-.107" transform="translate(-638.000000, -720.000000) translate(638.000000, 720.000000)"/>
                    <path fill="#FDF701" d="M18.335 21.212c.04-.078.124-.134.21-.127.125.004.226.136.196.26-.02.095-.115.174-.216.165.004-.128-.076-.246-.19-.298M15.493 21.104c.017.006.037 0 .048.017.047.055.074.122.105.185.071.162.162.313.23.476.012.033.024.065.026.102-.009.036-.05.01-.062-.01-.058-.078-.089-.17-.126-.257-.057-.143-.136-.277-.2-.418-.013-.029-.022-.062-.02-.095" transform="translate(-638.000000, -720.000000) translate(638.000000, 720.000000)"/>
                    <path fill="#025C33" d="M15.947 21.216c.027-.04.054-.087.095-.116.042.092.086.19.064.295-.005.065-.055.107-.081.164-.033.057-.033.127-.038.192-.063-.046-.101-.12-.129-.194-.042-.123.022-.245.09-.341" transform="translate(-638.000000, -720.000000) translate(638.000000, 720.000000)"/>
                    <path fill="#FDF701" d="M21.224 21.24c.145-.124.364-.135.536-.06.025.011.059.017.075.043-.207.04-.393.18-.483.373-.055.106-.07.228-.062.347-.096-.083-.176-.195-.196-.323-.026-.138.024-.29.13-.38" transform="translate(-638.000000, -720.000000) translate(638.000000, 720.000000)"/>
                    <path fill="#86632B" d="M15.411 21.235c-.003-.022 0-.074.03-.075.07.152.138.306.21.456.009.022.02.048.016.07-.054-.03-.108-.066-.168-.085-.107-.036-.221-.037-.331-.015-.007-.07-.002-.146-.004-.217.036.02.075.043.115.035.084-.003.148-.087.132-.169" transform="translate(-638.000000, -720.000000) translate(638.000000, 720.000000)"/>
                    <path fill="#FDF701" d="M17.631 21.4c.046-.133.23-.186.332-.092-.08.1-.085.244-.025.354-.051.024-.11.036-.168.017-.115-.031-.187-.167-.139-.278" transform="translate(-638.000000, -720.000000) translate(638.000000, 720.000000)"/>
                    <path fill="#025C33" d="M16.067 21.827c-.02-.195.091-.374.222-.513.032.14.053.287.02.423-.03.116-.105.218-.193.3-.034-.063-.04-.14-.049-.21" transform="translate(-638.000000, -720.000000) translate(638.000000, 720.000000)"/>
                    <path fill="#FDF701" d="M24.412 21.403c.08-.026.181.025.196.112l-.015.028c-.067.04-.16.004-.197-.06-.015-.026-.008-.061.016-.08M18.298 21.802c.124-.033.21-.145.228-.27.068.013.135.051.166.114.059.11-.003.261-.121.298-.11.041-.244-.028-.273-.142M24.307 21.574c.086-.022.19.023.217.108.012.03-.009.069-.036.087-.076.022-.164-.013-.207-.08-.03-.033-.019-.096.026-.115" transform="translate(-638.000000, -720.000000) translate(638.000000, 720.000000)"/>
                    <path fill="#86632B" d="M24.556 21.605c.02-.012.044-.022.064-.036v2.892c-.066-.035-.118-.095-.168-.15-.099-.106-.183-.217-.251-.342-.045-.08-.09-.167-.086-.26v-1.13c0-.042-.01-.09.016-.13.078-.15.151-.302.23-.45.032-.011.072-.015.088-.05.02-.032.012-.074.01-.11.04-.025.084-.054.109-.101.017-.041.002-.092-.012-.133" transform="translate(-638.000000, -720.000000) translate(638.000000, 720.000000)"/>
                    <path fill="#025C33" d="M15.213 21.63c.137-.014.283.01.395.096.097.076.181.172.252.276-.063-.028-.122-.069-.184-.09-.083-.038-.176-.033-.262-.018-.082-.075-.18-.151-.201-.264" transform="translate(-638.000000, -720.000000) translate(638.000000, 720.000000)"/>
                    <path fill="#FDF701" d="M17.872 21.773c.014-.04.04-.075.082-.095.07.104.201.153.322.13.006.053.007.112-.026.157-.054.09-.172.122-.265.08-.1-.038-.158-.171-.113-.272" transform="translate(-638.000000, -720.000000) translate(638.000000, 720.000000)"/>
                    <path fill="#86632B" d="M15.165 21.709c.05.066.105.134.17.188-.06.012-.116.034-.17.06v-.248z" transform="translate(-638.000000, -720.000000) translate(638.000000, 720.000000)"/>
                    <path fill="#FDF701" d="M24.214 21.793c.064-.034.147.007.182.067.01.025.016.062-.011.078-.07.025-.152-.007-.184-.073-.016-.022-.011-.056.013-.072" transform="translate(-638.000000, -720.000000) translate(638.000000, 720.000000)"/>
                    <path fill="#86632B" d="M16.098 22.138c.09-.049.16-.12.225-.199.004.06.001.12.001.182-.06.036-.12.08-.194.085-.014-.02-.024-.044-.032-.068" transform="translate(-638.000000, -720.000000) translate(638.000000, 720.000000)"/>
                    <path fill="#025C33" d="M15.427 21.963c.147-.026.296.04.412.124.012.01.027.02.016.037-.12.028-.242.062-.365.047-.108-.014-.206-.067-.287-.138.002-.002.004-.009.006-.014.068-.03.144-.044.218-.056" transform="translate(-638.000000, -720.000000) translate(638.000000, 720.000000)"/>
                    <path fill="#FDF701" d="M24.148 22.005c.03-.059.107-.045.134.005.004.048-.025.086-.042.128-.156.307-.316.61-.47.922-.02.087.003.18-.011.269-.013.103-.083.205-.186.233-.073.025-.161-.006-.202-.072-.033-.055-.044-.125-.026-.186.021-.09.087-.157.16-.204.053-.04.125-.07.156-.138.16-.32.324-.639.487-.957" transform="translate(-638.000000, -720.000000) translate(638.000000, 720.000000)"/>
                    <path fill="#86632B" d="M15.165 22.105c.09.057.189.111.299.124.066.008.135.005.204 0 .003.213 0 .424 0 .635-.055-.002-.11-.007-.166-.013.037.103.104.192.164.281.005.039.002.075.005.11-.053.017-.105.033-.156.052.044.05.102.083.153.126v.315c0 .075-.033.142-.065.206-.078.144-.18.276-.291.394-.045.047-.092.093-.146.128-.003-.785-.001-1.573-.001-2.358" transform="translate(-638.000000, -720.000000) translate(638.000000, 720.000000)"/>
                    <path fill="#000" d="M19.38 22.192c.057-.006.117-.01.176 0 .07.009.097.098.057.151-.028.037-.078.045-.121.04-.09-.005-.184-.005-.26-.054-.03-.015-.036-.063-.008-.084.045-.036.103-.042.156-.053M20.222 22.191c.02-.005.04-.009.06-.009.078.007.16.01.232.036.028.011.057.027.065.058.004.025-.013.049-.036.06-.076.04-.164.042-.248.05-.04.002-.093-.004-.12-.039-.042-.05-.018-.14.047-.156" transform="translate(-638.000000, -720.000000) translate(638.000000, 720.000000)"/>
                    <path fill="#86632B" d="M15.819 22.22c.017-.028.063-.02.095-.028.014.042.04.08.05.123-.037.049-.085.093-.145.097 0-.065-.004-.128 0-.192" transform="translate(-638.000000, -720.000000) translate(638.000000, 720.000000)"/>
                    <path fill="#FDF701" d="M16.025 22.191c.038.003.051.046.069.074.103.2.186.408.282.614.105.23.217.456.314.69.016.043.04.085.036.131-.046-.022-.068-.073-.094-.114-.107-.19-.2-.386-.291-.584-.083-.182-.165-.36-.24-.542-.031-.087-.074-.173-.076-.269" transform="translate(-638.000000, -720.000000) translate(638.000000, 720.000000)"/>
                    <path fill="#86632B" d="M16.18 22.31c.059.013.086.078.146.092-.002.078 0 .154-.002.23-.034-.057-.058-.12-.085-.18-.02-.048-.048-.092-.06-.142" transform="translate(-638.000000, -720.000000) translate(638.000000, 720.000000)"/>
                    <path fill="#025C33" d="M16.605 22.523c.03-.042.057-.084.097-.115.018.007.02.026.027.042.05.128.098.267.076.405-.04.06-.105.102-.136.167-.02.039-.018.085-.039.122-.06-.107-.124-.227-.129-.358 0-.095.049-.185.104-.263" transform="translate(-638.000000, -720.000000) translate(638.000000, 720.000000)"/>
                    <path fill="#86632B" d="M15.996 22.451c.003-.018.029-.023.034 0l.274.6c-.086-.04-.174-.086-.268-.11-.072-.024-.148-.031-.22-.055.003-.066.001-.13.001-.193.066.002.134-.037.155-.099.024-.046-.011-.102.024-.143M21.313 22.735c.21-.096.422-.188.629-.296.047.126.118.244.217.34-.07.005-.142-.01-.207-.042-.013.068-.024.136-.035.204-.07-.013-.128-.057-.188-.097-.027.084-.046.168-.072.25-.125-.111-.236-.237-.344-.36M17.85 22.443c.204.104.411.197.622.29-.111.124-.222.251-.348.357-.02-.078-.04-.16-.065-.237-.064.027-.12.073-.188.09-.016-.068-.023-.138-.038-.206-.065.031-.135.044-.209.044.102-.093.168-.218.225-.338" transform="translate(-638.000000, -720.000000) translate(638.000000, 720.000000)"/>
                    <path fill="#025C33" d="M16.784 22.988c.07-.087.156-.162.248-.226-.001.116-.026.228-.062.335-.037.11-.139.2-.255.207-.026-.11-.001-.229.069-.316" transform="translate(-638.000000, -720.000000) translate(638.000000, 720.000000)"/>
                    <path fill="#86632B" d="M23.821 23.06c.045-.098.095-.19.145-.287.004.394.002.786.002 1.179-.124-.11-.234-.232-.35-.344.103-.044.168-.145.19-.254.022-.097-.004-.198.013-.293" transform="translate(-638.000000, -720.000000) translate(638.000000, 720.000000)"/>
                    <path fill="#D32620" d="M17.684 22.904c.02-.007.036-.01.053-.019.004.076.007.163.054.228.062-.044.122-.086.186-.129.01.051.02.1.026.148-.241.323-.48.649-.72.973-.08.094-.116.214-.149.33-.037-.023-.075-.058-.078-.102-.003-.053.007-.108.009-.158-.048.042-.105.07-.171.069.034-.114.162-.172.174-.297-.05.03-.106.057-.166.06-.09.004-.182.008-.264.047-.074.023-.132.07-.2.097-.031-.014-.055-.047-.044-.082.038-.061.099-.1.158-.137.08-.05.172-.104.271-.082.084.01.189.035.26-.022.201-.305.395-.617.601-.924M22.046 22.886c.02.008.038.014.058.019.183.284.366.572.553.855.024.035.042.084.088.094.1.028.203-.01.306-.007.09.021.172.074.247.13.04.028.076.059.1.103-.008.025-.017.056-.047.07-.025.001-.048-.018-.069-.03-.081-.048-.172-.093-.27-.104-.065-.01-.13-.003-.194-.022-.036-.01-.067-.026-.1-.047.005.125.146.182.17.297-.06 0-.121-.027-.166-.068.001.057.008.111.004.167-.006.042-.045.068-.074.093-.033-.095-.056-.195-.115-.28l-.637-.865c-.04-.056-.083-.109-.12-.17.013-.045.018-.086.028-.133.063.031.115.08.177.114.02.01.026-.017.033-.029.024-.058.026-.126.028-.187" transform="translate(-638.000000, -720.000000) translate(638.000000, 720.000000)"/>
                    <path fill="#025C33" d="M15.676 22.978c.222-.004.458.034.635.176.053.046.12.087.153.155-.184.02-.38.013-.542-.079-.1-.063-.187-.153-.246-.252" transform="translate(-638.000000, -720.000000) translate(638.000000, 720.000000)"/>
                    <path fill="#000" d="M20.437 23.13c.05-.023.097-.048.148-.067.028.072.065.146.1.218.196.41.41.806.645 1.19.158.251.327.5.524.727.178.2.373.399.621.505-.368.164-.735.339-1.09.534-.204-.247-.383-.507-.562-.77-.068-.097-.128-.2-.198-.297.005.112.046.215.09.315.127.303.298.584.464.87-.28.158-.554.33-.808.526-.183.145-.358.302-.478.504h-.017l.012-.001c-.115-.197-.288-.353-.465-.495-.259-.2-.539-.372-.821-.536.039-.06.075-.123.11-.185.147-.248.29-.497.392-.767.026-.076.054-.15.052-.232-.238.366-.48.726-.757 1.068-.355-.193-.72-.373-1.093-.534.206-.087.377-.238.527-.399.267-.286.486-.613.689-.945.252-.42.478-.852.679-1.298.048.021.096.046.143.065-.184.443-.391.874-.62 1.289-.183.328-.38.647-.618.937-.098.119-.207.231-.327.326.201.07.405.138.6.226.266-.307.487-.652.703-1 .232-.365.365-.788.498-1.198.036.09.024.187.024.283-.01.234-.048.466-.098.699-.114.517-.277 1.03-.527 1.5.238.128.478.26.697.424.077.055.148.119.215.184.266-.255.592-.437.916-.608-.172-.316-.3-.648-.401-.988-.11-.373-.192-.75-.227-1.13-.006-.125-.013-.253.022-.371.13.41.263.832.498 1.2.215.35.44.694.704 1.005.197-.086.397-.159.604-.224-.243-.194-.433-.445-.606-.702-.239-.358-.446-.741-.637-1.131-.117-.235-.225-.475-.327-.717" transform="translate(-638.000000, -720.000000) translate(638.000000, 720.000000)"/>
                    <path fill="#86632B" d="M19.343 23.126c.135.066.266.14.376.242.062.054.12.12.174.182.076-.09.155-.176.247-.246.09-.07.193-.126.297-.173.103.241.21.48.328.716.19.39.397.773.636 1.13.173.258.363.51.606.703-.206.065-.408.139-.604.224-.265-.31-.489-.655-.704-1.006-.234-.367-.368-.788-.498-1.2-.035.119-.029.247-.022.371.034.38.118.757.226 1.131.101.34.23.673.402.988-.325.171-.65.352-.916.608-.067-.066-.139-.128-.216-.184-.218-.163-.458-.296-.696-.424.25-.47.414-.984.528-1.5.048-.233.087-.465.097-.7 0-.095.012-.193-.025-.282-.132.41-.264.833-.497 1.199-.215.347-.438.692-.704.999-.195-.09-.397-.157-.6-.225.12-.096.23-.208.327-.327.238-.29.436-.61.618-.937.23-.415.436-.846.62-1.289" transform="translate(-638.000000, -720.000000) translate(638.000000, 720.000000)"/>
                    <path fill="#025C33" d="M15.727 23.322c.159-.003.32 0 .476.037.08.026.17.063.223.138-.142.058-.31.092-.452.021-.092-.048-.183-.111-.247-.196" transform="translate(-638.000000, -720.000000) translate(638.000000, 720.000000)"/>
                    <path fill="#86632B" d="M15.817 23.518c.101.048.205.098.317.12-.108.103-.206.212-.314.314-.005-.147-.001-.29-.003-.434" transform="translate(-638.000000, -720.000000) translate(638.000000, 720.000000)"/>
                    <path fill="#FDF701" d="M23.277 23.627c.077-.023.167.022.191.098.019.04-.001.096-.044.115-.083.036-.19-.015-.208-.105-.013-.045.017-.092.061-.108" transform="translate(-638.000000, -720.000000) translate(638.000000, 720.000000)"/>
                    <path fill="#D32620" d="M16.465 24.212c.026-.029.06-.056.093-.08.026-.02.048.024.03.044l-.099.085c-.013-.01-.046-.027-.024-.049M23.183 24.157c.012-.013.021-.025.036-.034.035.029.07.055.102.094.01.018-.009.032-.02.047-.042-.031-.084-.066-.118-.107M16.642 24.205c.06-.023.125.066.074.11-.07.066-.143.13-.217.191-.05.025-.103-.022-.106-.07.027-.057.085-.089.129-.128.04-.033.074-.075.12-.103M23.06 24.306c-.031-.053.03-.123.083-.1.039.023.069.058.102.085.047.045.1.078.139.13.007.043-.023.097-.072.091-.028 0-.046-.023-.067-.037-.058-.06-.127-.11-.185-.169M16.75 24.351c.053-.04.131.04.094.095-.037.039-.084.074-.126.109-.039.035-.075.073-.12.097-.045.01-.075-.032-.087-.071.014-.047.054-.074.088-.102.053-.042.098-.09.152-.128M22.974 24.346c.031-.019.065.001.09.023.064.06.13.115.196.175.037.054-.034.135-.089.099-.071-.054-.14-.122-.211-.183-.04-.028-.026-.093.014-.114M16.697 24.641c.064-.05.123-.11.19-.16.047-.02.084.02.099.062-.011.048-.059.077-.093.11-.049.039-.092.083-.142.12-.045.033-.11-.014-.105-.06-.001-.03.032-.052.05-.072M22.844 24.484c.026-.01.06-.008.08.013.063.058.131.115.196.171.043.036.011.112-.042.114-.024.006-.046-.01-.061-.024-.064-.054-.126-.11-.19-.162-.039-.031-.023-.094.017-.112" transform="translate(-638.000000, -720.000000) translate(638.000000, 720.000000)"/>
                    <path fill="#FDF701" d="M17.1 25.06c.032-.109.046-.221.078-.33.097.056.196.109.295.163-.025.108-.048.221-.072.331l-.3-.165M22.688 24.788c.064-.044.176.002.189.081 0 .041-.05.038-.079.033-.053-.01-.117-.052-.11-.114M22.564 24.902c.112-.003.223.051.286.14.006.02-.015.027-.027.037-.085.06-.17.123-.256.185-.005-.121-.003-.241-.003-.362M19.687 13.804c0 .084-.068.15-.153.15-.083 0-.152-.066-.152-.15 0-.085.07-.153.152-.153.085 0 .153.068.153.153" transform="translate(-638.000000, -720.000000) translate(638.000000, 720.000000)"/>
                    <path fill="#000" d="M19.604 13.804c0 .038-.03.07-.07.07-.038 0-.069-.032-.069-.07 0-.04.031-.07.07-.07.038 0 .07.03.07.07" transform="translate(-638.000000, -720.000000) translate(638.000000, 720.000000)"/>
                    <path fill="#FDF701" d="M18.417 21.5c0 .114-.094.206-.207.206-.112 0-.203-.092-.203-.205 0-.114.091-.207.203-.207.113 0 .207.093.207.207M15.857 21.03c0 .041-.035.075-.079.075-.043 0-.078-.034-.078-.076 0-.044.035-.077.078-.077.044 0 .079.033.079.077M16.439 22.257c0 .045-.034.08-.08.08-.043 0-.079-.035-.079-.08 0-.04.036-.075.08-.075.045 0 .079.034.079.075M15.345 21.264c0 .044-.034.076-.079.076-.043 0-.077-.032-.077-.076 0-.043.034-.078.077-.078.045 0 .079.035.079.078M15.912 22.549c0 .046-.034.079-.078.079-.042 0-.077-.033-.077-.08 0-.043.035-.074.077-.074.044 0 .078.031.078.075M17.036 23.568c0 .044-.033.08-.076.08s-.078-.036-.078-.08c0-.043.035-.078.078-.078s.076.035.076.078M16.512 23.768c0 .044-.034.08-.079.08-.042 0-.076-.036-.076-.08 0-.042.034-.074.076-.074.045 0 .079.032.079.074M14.729 19.968c0 .042-.036.077-.08.077-.043 0-.077-.035-.077-.077 0-.044.034-.079.076-.079.045 0 .08.035.08.079M15.236 19.732c0 .044-.033.076-.079.076-.042 0-.076-.032-.076-.076 0-.042.034-.078.076-.078.046 0 .08.036.08.078M19.892 17.258L19.997 17.556 20.283 17.419 20.147 17.706 20.445 17.812 20.147 17.92 20.283 18.208 19.997 18.068 19.892 18.371 19.783 18.068 19.497 18.208 19.635 17.92 19.333 17.812 19.635 17.706 19.497 17.419 19.783 17.556z" transform="translate(-638.000000, -720.000000) translate(638.000000, 720.000000)"/>
                </g>
            </g>
        </g>
    </g>
</svg>
