<svg xmlns="http://www.w3.org/2000/svg" width="40" height="40" viewBox="0 0 40 40">
    <g fill="none" fill-rule="evenodd">
        <g>
            <g>
                <g fill="#D0D0D5" fill-rule="nonzero">
                    <path d="M20 0c11.046 0 20 8.954 20 20s-8.954 20-20 20S0 31.046 0 20 8.954 0 20 0zm0 1C9.507 1 1 9.507 1 20s8.507 19 19 19 19-8.507 19-19S30.493 1 20 1z" transform="translate(-238.000000, -720.000000) translate(238.000000, 720.000000)"/>
                </g>
                <g>
                    <path fill="#DC171C" d="M0 19.998c0 8.07 4.783 15.019 11.668 18.179V1.818C4.783 4.98 0 11.928 0 19.998M40 19.998c0-8.07-4.781-15.018-11.666-18.18v36.359C35.22 35.017 40 28.068 40 19.998" transform="translate(-238.000000, -720.000000) translate(238.000000, 720.000000)"/>
                    <path fill="#47AECF" d="M20.002 0c-2.978 0-5.799.653-8.334 1.818v36.36C14.203 39.343 17.024 40 20.002 40c2.973 0 5.795-.657 8.332-1.822V1.818C25.797.653 22.975 0 20.002 0" transform="translate(-238.000000, -720.000000) translate(238.000000, 720.000000)"/>
                    <path fill="#FBEA0F" d="M6.153 16.2c-.95 0-1.763-.57-2.122-1.39v.04c0 1.172.95 2.124 2.122 2.124s2.125-.952 2.125-2.124l-.002-.04c-.359.82-1.173 1.39-2.123 1.39M5.23 11.562c0 .512.412.923.923.923.51 0 .925-.41.925-.923 0-.369-.231-.415-.231-.552 0-.14.138-.327-.14-.559.14.232-.09.34-.09.57 0 .232.09.172.09.357 0 .1-.081.184-.182.184-.104 0-.185-.083-.185-.184 0-.185.09-.363.09-.642 0-.28.013-.268-.124-.494-.14-.234-.156-.278-.066-.69-.277.092-.19.539-.19.768 0 .23-.22.271-.22.55 0 .277.137.323.137.508 0 .1-.083.184-.185.184-.1 0-.183-.083-.183-.184 0-.185.09-.125.09-.357 0-.23-.228-.338-.09-.57-.276.232-.138.419-.138.559 0 .137-.232.183-.232.552" transform="translate(-238.000000, -720.000000) translate(238.000000, 720.000000)"/>
                    <path fill="#FBEA0F" d="M6.153 12.857c.816 0 1.481.661 1.481 1.482 0 .817-.665 1.477-1.48 1.477-.817 0-1.482-.66-1.482-1.477 0-.82.665-1.482 1.481-1.482M2.308 26.175L3.933 26.175 3.933 17.297 2.308 17.297zM8.374 26.175L9.998 26.175 9.998 17.297 8.374 17.297zM4.38 17.297L6.153 18.408 7.928 17.297zM4.38 19.517L7.928 19.517 7.928 18.776 4.38 18.776zM4.38 24.693L7.928 24.693 7.928 23.956 4.38 23.956zM4.38 25.067L6.153 26.175 7.928 25.067zM6.153 23.046c-.197 0-.355-.16-.355-.36 0-.196.158-.356.355-.356.198 0 .356.16.356.357 0 .2-.158.359-.356.359m.594-3.023c.239.172.4.453.4.766 0 .524-.42.946-.933.946-.516 0-.934.423-.934.942 0 .318.158.601.396.772.172.057.35.085.538.085.978 0 1.772-.807 1.772-1.8 0-.803-.518-1.482-1.24-1.711" transform="translate(-238.000000, -720.000000) translate(238.000000, 720.000000)"/>
                    <path fill="#FBEA0F" d="M6.153 21.142c-.197 0-.355-.161-.355-.36 0-.197.158-.355.355-.355.198 0 .356.158.356.355 0 .199-.158.36-.356.36m.477-1.18c-.17-.052-.348-.083-.536-.083-.98 0-1.773.803-1.773 1.796 0 .806.518 1.483 1.238 1.713-.238-.17-.394-.45-.394-.768 0-.52.415-.945.929-.945s.933-.423.933-.941c0-.32-.157-.599-.397-.772" transform="translate(-238.000000, -720.000000) translate(238.000000, 720.000000)"/>
                </g>
            </g>
        </g>
    </g>
</svg>
