<?xml version="1.0" encoding="utf-8"?>
<!-- Generator: Adobe Illustrator 16.0.0, SVG Export Plug-In . SVG Version: 6.00 Build 0)  -->
<!DOCTYPE svg PUBLIC "-//W3C//DTD SVG 1.0//EN" "http://www.w3.org/TR/2001/REC-SVG-20010904/DTD/svg10.dtd">
<svg version="1.0" id="Layer_1" xmlns="http://www.w3.org/2000/svg" xmlns:xlink="http://www.w3.org/1999/xlink" x="0px" y="0px"
	 width="40px" height="40px" viewBox="0 0 40 40" enable-background="new 0 0 40 40" xml:space="preserve">
<g>
	<g>
		<g>
			<path fill="#003580" d="M20-0.002C8.954-0.002,0,8.953,0,20c0,1.66,0.224,3.265,0.606,4.807L31.897,3.948
				C28.567,1.478,24.463-0.002,20-0.002z"/>
			<path fill="#009543" d="M20,40.002c11.047,0,20-8.957,20-20.002c0-1.66-0.225-3.269-0.607-4.812L8.103,36.05
				C11.431,38.522,15.538,40.002,20,40.002z"/>
			<path fill="#FFFFFF" d="M31.897,3.948L0.606,24.807c0.142,0.577,0.306,1.144,0.499,1.7L33.269,5.063
				C32.829,4.671,32.371,4.3,31.897,3.948z"/>
			<path fill="#FFFFFF" d="M8.103,36.05l31.29-20.861c-0.142-0.578-0.306-1.143-0.496-1.699L6.731,34.935
				C7.171,35.327,7.628,35.698,8.103,36.05z"/>
			<path fill="#D21034" d="M36.641,8.907c-0.954-1.426-2.093-2.71-3.372-3.844L1.105,26.507c0.562,1.633,1.313,3.178,2.256,4.585
				c0.952,1.426,2.093,2.71,3.37,3.843l32.166-21.445C38.333,11.86,37.583,10.315,36.641,8.907z"/>
		</g>
		<g>
			<path id="_x3C_Path_x3E__549_" fill="#FFCE00" d="M9.759,11.409c0,1.228-0.995,2.224-2.222,2.224
				c-1.227,0-2.223-0.996-2.223-2.224c0-1.224,0.996-2.22,2.223-2.22C8.765,9.189,9.759,10.186,9.759,11.409z"/>
			<path fill="#FFCE00" d="M10.111,12.103l1.869-0.693l-1.869-0.687l1.274-1.533L9.422,9.526l0.337-1.963L8.227,8.838L7.538,6.969
				L6.848,8.838L5.315,7.563l0.337,1.963L3.689,9.189l1.272,1.533l-1.867,0.687l1.867,0.693l-1.272,1.53l1.963-0.337L5.315,15.26
				l1.533-1.271l0.689,1.865l0.689-1.865l1.533,1.271l-0.337-1.964l1.963,0.337L10.111,12.103z M7.538,14.078
				c-1.473,0-2.667-1.194-2.667-2.669c0-1.47,1.194-2.663,2.667-2.663c1.471,0,2.666,1.193,2.666,2.663
				C10.204,12.884,9.009,14.078,7.538,14.078z"/>
		</g>
	</g>
</g>
</svg>
