<svg width="40" height="40" viewBox="0 0 40 40" xmlns="http://www.w3.org/2000/svg" xmlns:xlink="http://www.w3.org/1999/xlink">
    <defs>
        <path d="M40 20.001C40 31.048 31.046 40 20 40S0 31.048 0 20.001C0 8.956 8.954 0 20 0s20 8.956 20 20.001" id="lhsu1zozqa"/>
    </defs>
    <g fill="none" fill-rule="evenodd">
        <mask id="3sf3ews9rb" fill="#fff">
            <use xlink:href="#lhsu1zozqa"/>
        </mask>
        <use fill="#0084C9" xlink:href="#lhsu1zozqa"/>
        <path d="M-.925 29.868c4.2 5.972 12.022 10 21 10 8.98 0 16.8-4.028 21-10h-42z" fill="#007C59" mask="url(#3sf3ews9rb)"/>
        <path d="M42.737 20.001h-47c0 3.598 1.167 6.963 3.17 9.867h40.661c2.003-2.904 3.17-6.269 3.17-9.867" fill="#F9D616" mask="url(#3sf3ews9rb)"/>
        <path d="M28.638 15a2.586 2.586 0 0 1 0-5.17c1.429 0 2.589 1.157 2.589 2.584 0 1.43-1.16 2.586-2.59 2.586zm3.537-2.148 2.78-.488-2.788-.441 2.561-1.192-2.81.295 2.166-1.814-2.636 1.012 1.62-2.308-2.283 1.655.967-2.648-1.775 2.19.246-2.811-1.148 2.58-.486-2.78-.443 2.785-1.191-2.56.295 2.807-1.81-2.162 1.01 2.636-2.31-1.623 1.656 2.282-2.65-.967 2.192 1.778-2.81-.248 2.576 1.148-2.781.486 2.789.445-2.559 1.19 2.805-.296-2.162 1.813 2.635-1.012-1.624 2.31 2.287-1.657-.97 2.653 1.777-2.194-.248 2.81 1.15-2.576.487 2.781.442-2.788 1.188 2.558-.292-2.807 1.81 2.165-1.01-2.637 2.31 1.622-1.656-2.283 2.65.968-2.192-1.777 2.81.25-2.575-1.15zm-3.537-2.747c-1.24 0-2.24 1.034-2.24 2.309 0 1.276 1 2.308 2.24 2.308 1.238 0 2.243-1.032 2.243-2.308 0-1.275-1.005-2.309-2.243-2.309z" fill="#EAAF0F" mask="url(#3sf3ews9rb)"/>
    </g>
</svg>
