<?xml version="1.0" encoding="utf-8"?>
<!-- Generator: Adobe Illustrator 16.0.0, SVG Export Plug-In . SVG Version: 6.00 Build 0)  -->
<!DOCTYPE svg PUBLIC "-//W3C//DTD SVG 1.0//EN" "http://www.w3.org/TR/2001/REC-SVG-20010904/DTD/svg10.dtd">
<svg version="1.0" id="Layer_1" xmlns="http://www.w3.org/2000/svg" xmlns:xlink="http://www.w3.org/1999/xlink" x="0px" y="0px"
	 width="40px" height="40px" viewBox="0 0 40 40" enable-background="new 0 0 40 40" xml:space="preserve">
<g>
	<g>
		<path d="M4.138,32.146c3.656,4.764,9.392,7.852,15.862,7.852c8.671,0,16.029-5.527,18.805-13.244H9.541L4.138,32.146z"/>
		<path fill="#FFFFFF" d="M16.312,19.999l-6.771,6.754h29.264c0.758-2.113,1.194-4.381,1.194-6.754c0-2.375-0.437-4.643-1.194-6.755
			H9.543L16.312,19.999z"/>
		<path fill="#D21034" d="M38.805,13.244C36.029,5.529,28.672,0,20,0C13.529,0,7.794,3.085,4.138,7.851l5.405,5.393H38.805z"/>
		<path fill="#007229" d="M9.543,13.244L4.138,7.851c-1.242,1.622-2.238,3.434-2.942,5.393C0.438,15.356,0,17.624,0,19.999
			c0,2.373,0.438,4.641,1.195,6.754c0.706,1.958,1.701,3.771,2.942,5.393l5.403-5.393l6.771-6.754L9.543,13.244z"/>
	</g>
</g>
<g>
	<path fill="#D0D0D5" d="M39,20c0,2.379-0.459,4.649-1.262,6.75h1.068C39.565,24.639,40,22.372,40,20
		c0-2.375-0.436-4.643-1.195-6.756h-1.068C38.54,15.346,39,17.618,39,20z"/>
</g>
</svg>
