<?xml version="1.0" encoding="utf-8"?>
<!-- Generator: Adobe Illustrator 16.0.0, SVG Export Plug-In . SVG Version: 6.00 Build 0)  -->
<!DOCTYPE svg PUBLIC "-//W3C//DTD SVG 1.0//EN" "http://www.w3.org/TR/2001/REC-SVG-20010904/DTD/svg10.dtd">
<svg version="1.0" id="Layer_1" xmlns="http://www.w3.org/2000/svg" xmlns:xlink="http://www.w3.org/1999/xlink" x="0px" y="0px"
	 width="40px" height="40px" viewBox="0 0 40 40" enable-background="new 0 0 40 40" xml:space="preserve">
<g>
	<g>
		<path d="M20.002,39.999c8.07,0,15.018-4.781,18.18-11.667H1.821C4.98,35.218,11.931,39.999,20.002,39.999z"/>
		<path fill="#CE1126" d="M20.002,0C11.931,0,4.98,4.783,1.821,11.667h36.36C35.02,4.783,28.072,0,20.002,0z"/>
		<path fill="#FFFFFF" d="M0,20.001c0,2.974,0.656,5.795,1.821,8.331h36.36C39.348,25.796,40,22.975,40,20.001
			c0-2.977-0.652-5.799-1.818-8.334H1.821C0.656,14.202,0,17.024,0,20.001z"/>
	</g>
	<g>
		<polygon fill="#009E60" points="10.377,15.978 11.375,19.049 14.606,19.049 11.99,20.949 12.989,24.021 10.377,22.121 
			7.765,24.021 8.762,20.949 6.149,19.049 9.379,19.049 		"/>
		<polygon fill="#009E60" points="29.624,15.978 30.621,19.049 33.851,19.049 31.239,20.949 32.238,24.021 29.624,22.121 
			27.013,24.021 28.01,20.949 25.395,19.049 28.626,19.049 		"/>
	</g>
</g>
<g>
	<path fill="#D0D0D5" d="M39,20c0,2.991-0.714,5.812-1.95,8.332h1.115C39.332,25.793,40,22.978,40,20
		c0-2.978-0.669-5.794-1.836-8.333h-1.115C38.286,14.187,39,17.008,39,20z"/>
	<path fill="#D0D0D5" d="M1,20c0-2.992,0.714-5.813,1.951-8.333H1.836C0.668,14.206,0,17.022,0,20c0,2.978,0.668,5.793,1.835,8.332
		h1.116C1.714,25.812,1,22.991,1,20z"/>
</g>
</svg>
