<?xml version="1.0" encoding="utf-8"?>
<!-- Generator: Adobe Illustrator 16.0.0, SVG Export Plug-In . SVG Version: 6.00 Build 0)  -->
<!DOCTYPE svg PUBLIC "-//W3C//DTD SVG 1.0//EN" "http://www.w3.org/TR/2001/REC-SVG-20010904/DTD/svg10.dtd">
<svg version="1.0" id="Layer_1" xmlns="http://www.w3.org/2000/svg" xmlns:xlink="http://www.w3.org/1999/xlink" x="0px" y="0px"
	 width="40px" height="40px" viewBox="0 0 40 40" enable-background="new 0 0 40 40" xml:space="preserve">
<g>
	<g>
		<circle fill="#E21F26" cx="20" cy="20" r="20"/>
		<g>
			<path fill="#FFFFFF" d="M17.015,27.269c-4.014,0-7.269-3.251-7.269-7.269c0-4.015,3.255-7.267,7.269-7.267
				c2.004,0,3.815,0.809,5.132,2.119C20.518,12.526,17.822,11,14.766,11c-4.973,0-8.999,4.028-8.999,9
				c0,4.971,4.026,9.001,8.999,9.001c3.057,0,5.752-1.525,7.381-3.852C20.83,26.458,19.019,27.269,17.015,27.269z"/>
			<polygon fill="#FFFFFF" points="25.729,16.141 27.409,18.566 30.234,17.716 28.447,20.062 30.127,22.486 27.344,21.51 
				25.557,23.859 25.618,20.91 22.839,19.935 25.664,19.088 			"/>
		</g>
	</g>
</g>
</svg>
