<?xml version="1.0" encoding="utf-8"?>
<!-- Generator: Adobe Illustrator 16.0.0, SVG Export Plug-In . SVG Version: 6.00 Build 0)  -->
<!DOCTYPE svg PUBLIC "-//W3C//DTD SVG 1.0//EN" "http://www.w3.org/TR/2001/REC-SVG-20010904/DTD/svg10.dtd">
<svg version="1.0" id="Layer_1" xmlns="http://www.w3.org/2000/svg" xmlns:xlink="http://www.w3.org/1999/xlink" x="0px" y="0px"
	 width="40px" height="40px" viewBox="0 0 40 40" enable-background="new 0 0 40 40" xml:space="preserve">
<circle fill="#ECECEE" cx="20" cy="20" r="19.5"/>
<path fill="#D60006" d="M20,1c10.477,0,19,8.523,19,19s-8.523,19-19,19S1,30.477,1,20S9.523,1,20,1 M20,0C8.954,0,0,8.954,0,20
	s8.954,20,20,20s20-8.954,20-20S31.046,0,20,0L20,0z"/>
<g>
	<path fill="#D60006" d="M18.182,20.727h-5.097v5.364h5.854V27h-6.924V14.025h6.871v0.944h-5.801v4.848h5.097V20.727z"/>
	<path fill="#D60006" d="M28.252,14.025v9.08c0,1.325-0.354,2.337-1.061,3.034c-0.707,0.698-1.629,1.048-2.762,1.048
		c-1.111,0-2.012-0.35-2.701-1.048c-0.689-0.697-1.033-1.709-1.033-3.034v-9.08h1.051v9.094c0,1.018,0.248,1.798,0.744,2.343
		c0.496,0.544,1.143,0.816,1.939,0.816c0.836,0,1.506-0.261,2.008-0.781s0.754-1.313,0.754-2.378v-9.094H28.252z"/>
</g>
<path fill="#A2A2AC" d="M18,10V3h1.952c0.66,0,1.175,0.156,1.546,0.471c0.37,0.314,0.556,0.785,0.556,1.413
	c0,0.334-0.084,0.628-0.253,0.883s-0.401,0.441-0.7,0.56c0.379,0.084,0.67,0.281,0.873,0.594c0.203,0.313,0.306,0.68,0.306,1.099
	c0,0.645-0.183,1.136-0.546,1.474S20.867,10,20.227,10H18z M18.977,6.033h1.072c0.32,0,0.571-0.098,0.754-0.292
	c0.184-0.194,0.274-0.476,0.274-0.842c0-0.387-0.095-0.677-0.286-0.87c-0.19-0.192-0.471-0.289-0.839-0.289h-0.976V6.033z
	 M18.977,6.735V9.26h1.25c0.346,0,0.612-0.106,0.8-0.32c0.188-0.213,0.281-0.519,0.281-0.916c0-0.395-0.08-0.707-0.24-0.939
	s-0.407-0.349-0.74-0.349H18.977z"/>
<rect x="23" y="9" fill="#A2A2AC" width="1" height="1"/>
</svg>
