<?xml version="1.0" encoding="utf-8"?>
<!-- Generator: Adobe Illustrator 16.0.0, SVG Export Plug-In . SVG Version: 6.00 Build 0)  -->
<!DOCTYPE svg PUBLIC "-//W3C//DTD SVG 1.0//EN" "http://www.w3.org/TR/2001/REC-SVG-20010904/DTD/svg10.dtd">
<svg version="1.0" id="Layer_1" xmlns="http://www.w3.org/2000/svg" xmlns:xlink="http://www.w3.org/1999/xlink" x="0px" y="0px"
	 width="40px" height="40px" viewBox="0 0 40 40" enable-background="new 0 0 40 40" xml:space="preserve">
<g>
	<g>
		<path d="M20.002,39.999c8.066,0,15.018-4.78,18.18-11.667H1.817C4.978,35.219,11.93,39.999,20.002,39.999z"/>
		<path fill="#EF2B2D" d="M20.002,0.001c-8.072,0-15.024,4.781-18.185,11.665H38.18C35.02,4.782,28.068,0.001,20.002,0.001z"/>
		<path fill="#FFFFFF" d="M0,19.999c0,2.976,0.654,5.797,1.817,8.333H38.18c1.166-2.536,1.82-5.357,1.82-8.333
			c0-2.976-0.654-5.796-1.818-8.333H1.817C0.654,14.203,0,17.023,0,19.999z"/>
	</g>
</g>
<g>
	<path fill="#D0D0D5" d="M37.05,28.332h1.115C39.332,25.793,40,22.978,40,20c0-2.979-0.669-5.794-1.836-8.334h-1.115
		C38.286,14.187,39,17.008,39,20C39,22.991,38.286,25.812,37.05,28.332z"/>
	<path fill="#D0D0D5" d="M2.951,28.332C1.714,25.812,1,22.991,1,20c0-2.992,0.714-5.813,1.952-8.334H1.836
		C0.669,14.206,0,17.021,0,20c0,2.978,0.668,5.793,1.835,8.332H2.951z"/>
</g>
</svg>
