<?xml version="1.0" encoding="utf-8"?>
<!-- Generator: Adobe Illustrator 16.0.0, SVG Export Plug-In . SVG Version: 6.00 Build 0)  -->
<!DOCTYPE svg PUBLIC "-//W3C//DTD SVG 1.0//EN" "http://www.w3.org/TR/2001/REC-SVG-20010904/DTD/svg10.dtd">
<svg version="1.0" id="Layer_1" xmlns="http://www.w3.org/2000/svg" xmlns:xlink="http://www.w3.org/1999/xlink" x="0px" y="0px"
	 width="40px" height="40px" viewBox="0 0 40 40" enable-background="new 0 0 40 40" xml:space="preserve">
<g>
	<path fill="#2B85D0" d="M20,0C8.972,0,0,8.972,0,20c0,11.027,8.972,20,20,20s20-8.973,20-20C40,8.972,31.028,0,20,0L20,0z"/>
	<g>
		<path fill="#FFFFFF" d="M27.646,26.773L28.758,20c0-1.374-1.67-2.487-3.73-2.487c-1.801,0-3.303,0.851-3.653,1.982
			c-0.007,0.013-0.021,0.021-0.027,0.035l-2.221,4.423h-4.354c-0.584,0-1.057,0.475-1.057,1.059s0.473,1.057,1.057,1.057h3.992
			c-0.223-0.295-0.356-0.66-0.356-1.057c0-0.004,0-0.008,0.001-0.012h0.705c0,0.004-0.002,0.008-0.002,0.012
			c0,0.139,0.031,0.27,0.08,0.393c0.016,0.037,0.042,0.068,0.062,0.105c0.042,0.076,0.085,0.148,0.144,0.213
			c0.036,0.039,0.078,0.066,0.119,0.1c0.058,0.047,0.115,0.09,0.183,0.123c0.053,0.027,0.106,0.045,0.163,0.062
			c0.038,0.012,0.071,0.033,0.111,0.041c0.011-0.002,0.02-0.01,0.03-0.014c0.057,0.01,0.107,0.035,0.167,0.035h5.006
			c0.277,0,0.532-0.113,0.727-0.299c0.086-0.082,0.164-0.174,0.22-0.285l1.275-2.543l0.241-0.479l-0.383,2.334l-0.504,1.004
			c-0.301,0.6-0.904,0.971-1.576,0.971h-2.768H11.286c0.195,0,0.352-0.156,0.352-0.352s-0.156-0.352-0.352-0.352h-1.92l1.704-3.434
			l0.216,1.637l1.239-0.162l-1.305-9.916l-1.239,0.164l0.925,7.025L8.48,26.266c-0.054,0.107-0.048,0.238,0.016,0.342
			c0.065,0.104,0.179,0.166,0.301,0.166H1.958c0.158,0.426,0.335,0.842,0.523,1.252h35.092c0.188-0.41,0.364-0.826,0.523-1.252
			H27.646z M21.64,22.092l0.305,1.863H21.23l-0.13-0.791L21.64,22.092z"/>
		<path fill="#FFFFFF" d="M27.526,4.998H25.73V1.562c-0.231-0.072-0.467-0.137-0.705-0.2v3.636h-10V1.363
			c-0.236,0.063-0.473,0.128-0.705,0.2v3.435h-1.795v2.5h15.001V4.998z"/>
		<path fill="#FFFFFF" d="M24.406,14.482c0.146,0,0.275,0.06,0.369,0.156h0.661l1.501-2.93c0.004-0.009,0.01-0.017,0.016-0.025
			c-0.462-0.607-1.152-0.994-1.926-0.994c-1.388,0-2.514,1.245-2.514,2.781c0,1.536,1.126,2.781,2.514,2.78
			c1.389,0.001,2.515-1.244,2.514-2.779c0-0.368-0.066-0.718-0.184-1.038l-1.393,2.72c-0.059,0.118-0.181,0.192-0.312,0.192h-0.861
			c-0.096,0.105-0.231,0.173-0.385,0.173c-0.285,0-0.517-0.232-0.517-0.518S24.121,14.482,24.406,14.482z"/>
	</g>
</g>
</svg>
