<?xml version="1.0" encoding="utf-8"?>
<!-- Generator: Adobe Illustrator 16.0.0, SVG Export Plug-In . SVG Version: 6.00 Build 0)  -->
<!DOCTYPE svg PUBLIC "-//W3C//DTD SVG 1.0//EN" "http://www.w3.org/TR/2001/REC-SVG-20010904/DTD/svg10.dtd">
<svg version="1.0" id="Layer_1" xmlns="http://www.w3.org/2000/svg" xmlns:xlink="http://www.w3.org/1999/xlink" x="0px" y="0px"
	 width="40px" height="40px" viewBox="0 0 40 40" enable-background="new 0 0 40 40" xml:space="preserve">
<g>
	<path fill="#FF9000" d="M20,0C8.972,0,0,8.971,0,20c0,11.027,8.972,20,20,20s20-8.973,20-20C40,8.971,31.028,0,20,0L20,0z"/>
	<g>
		<ellipse fill="#FFFFFF" cx="20.027" cy="9.647" rx="1.911" ry="2.147"/>
		<path fill="#FFFFFF" d="M10.026,11.794c1.054-0.001,1.909-0.947,1.909-2.116c0-1.167-0.855-2.114-1.909-2.113
			c-1.058,0-1.913,0.945-1.913,2.114C8.113,10.847,8.97,11.794,10.026,11.794z"/>
		<path fill="#FFFFFF" d="M6.828,11.794h1.473c-0.391-0.37-0.676-0.86-0.809-1.419H6.828c-0.392,0-0.709,0.319-0.709,0.71
			C6.119,11.477,6.437,11.794,6.828,11.794z"/>
		<ellipse fill="#FFFFFF" cx="30.027" cy="9.68" rx="1.912" ry="2.114"/>
		<path fill="#FFFFFF" d="M33.225,11.794c0.392,0,0.709-0.317,0.709-0.709c0-0.391-0.317-0.71-0.709-0.71H32.56
			c-0.132,0.559-0.418,1.049-0.808,1.419H33.225z"/>
		<path fill="#FFFFFF" d="M34.062,13.077c-0.357-0.356-0.852-0.578-1.396-0.578h-7.088l1.948,2.5l0.254,4.184l-1.485,11.949
			l-0.914,0.256V32.5h2.823l1.824-10l0.589,10h2.826v-1.111l-0.915-0.256l-0.004-9.977v-5.452L33.229,15v7.241
			c0,0.39,0.316,0.705,0.705,0.705c0.39,0,0.704-0.315,0.704-0.705v-6.795h0.002v-0.972C34.64,13.928,34.418,13.435,34.062,13.077z"
			/>
		<path fill="#FFFFFF" d="M25.026,11.794h3.285c-0.387-0.37-0.673-0.86-0.81-1.419H24.53c-0.095,0-0.187,0.02-0.273,0.056
			c0,0-2.992,2.071-3.444,2.071c-0.169,0-5.234-0.004-5.234-0.004l1.949,2.5l0.254,4.184l-1.487,11.949l-0.912,0.256V32.5h2.821
			l1.824-10l1.824,10h2.822v-1.111l-0.913-0.256l-1.485-11.949L22.526,15L25.026,11.794z"/>
		<path fill="#FFFFFF" d="M15.025,11.794h3.285c-0.388-0.37-0.675-0.86-0.81-1.419h-2.974c-0.093,0-0.187,0.02-0.271,0.056
			c0,0-2.993,2.07-3.445,2.07c-0.168,0-3.422-0.002-3.422-0.002c-0.546,0-1.039,0.222-1.396,0.578
			c-0.358,0.358-0.578,0.851-0.578,1.396v0.972l0,0v6.795c0,0.39,0.316,0.705,0.705,0.705c0.39,0,0.706-0.315,0.706-0.705V15
			l0.704,0.705v5.452l-0.004,9.977l-0.914,0.256V32.5h2.824l0.591-10v-0.001L11.85,32.5h2.08h0.744v-1.111l-0.914-0.256
			l-1.487-11.949L12.525,15L15.025,11.794z"/>
	</g>
</g>
<path fill="#FFAC40" d="M20,1c10.477,0,19,8.524,19,19c0,10.477-8.523,19-19,19C9.523,39,1,30.477,1,20C1,9.524,9.523,1,20,1 M20,0
	C8.954,0,0,8.955,0,20c0,11.044,8.954,20,20,20s20-8.955,20-20S31.046,0,20,0L20,0z"/>
</svg>
