<?xml version="1.0" encoding="utf-8"?>
<!-- Generator: Adobe Illustrator 16.0.0, SVG Export Plug-In . SVG Version: 6.00 Build 0)  -->
<!DOCTYPE svg PUBLIC "-//W3C//DTD SVG 1.1//EN" "http://www.w3.org/Graphics/SVG/1.1/DTD/svg11.dtd">
<svg version="1.1" id="Layer_1" xmlns="http://www.w3.org/2000/svg" xmlns:xlink="http://www.w3.org/1999/xlink" x="0px" y="0px"
	 width="40px" height="40px" viewBox="0 0 40 40" enable-background="new 0 0 40 40" xml:space="preserve">
<g>
	<path fill="#FFFFFF" d="M20,1c10.477,0,19,8.523,19,19s-8.523,19-19,19S1,30.477,1,20S9.523,1,20,1 M20,0C8.954,0,0,8.954,0,20
		s8.954,20,20,20s20-8.954,20-20S31.046,0,20,0L20,0z"/>
</g>
<circle fill="#FFFFFF" cx="19.999" cy="20" r="14.999"/>
<path fill="#FF9000" d="M27.503,15.431c0.901,0,1.635,0.733,1.635,1.634c0,0.902-0.733,1.635-1.635,1.635
	c-0.903,0-1.637-0.732-1.637-1.635C25.866,16.164,26.6,15.431,27.503,15.431 M27.503,13.315c-2.071,0-3.75,1.679-3.75,3.75
	c0,2.072,1.679,3.751,3.75,3.751c2.069,0,3.748-1.679,3.748-3.751C31.251,14.994,29.572,13.315,27.503,13.315L27.503,13.315z"/>
<path fill="#FF9000" d="M20,10.862c0.385,0,0.697,0.313,0.697,0.698S20.385,12.257,20,12.257s-0.697-0.312-0.697-0.697
	S19.615,10.862,20,10.862 M20,8.746c-1.553,0-2.812,1.259-2.812,2.814s1.259,2.813,2.812,2.813s2.812-1.259,2.812-2.813
	S21.553,8.746,20,8.746L20,8.746z"/>
<path fill="#FF9000" d="M27.503,25.864c0.385,0,0.697,0.313,0.697,0.698s-0.312,0.695-0.697,0.695s-0.697-0.311-0.697-0.695
	S27.118,25.864,27.503,25.864 M27.503,23.748c-1.555,0-2.813,1.26-2.813,2.814s1.259,2.812,2.813,2.812
	c1.553,0,2.812-1.258,2.812-2.812S29.056,23.748,27.503,23.748L27.503,23.748z"/>
<path fill="#FF9000" d="M16.251,18.363c1.936,0,3.512,1.574,3.512,3.51s-1.576,3.512-3.512,3.512c-1.935,0-3.509-1.576-3.509-3.512
	S14.316,18.363,16.251,18.363 M16.251,16.247c-3.106,0-5.625,2.519-5.625,5.626s2.519,5.625,5.625,5.625
	c3.107,0,5.626-2.518,5.626-5.625S19.358,16.247,16.251,16.247L16.251,16.247z"/>
<path fill="#FF9000" d="M11.698,10.06c0,0.902-0.734,1.634-1.636,1.634c-0.371,0-0.709-0.128-0.983-0.337
	c-0.438,0.552-0.834,1.138-1.186,1.753c0.613,0.437,1.358,0.7,2.169,0.7c2.071,0,3.75-1.679,3.75-3.75
	c0-0.811-0.263-1.556-0.7-2.169c-0.614,0.351-1.2,0.747-1.752,1.185C11.569,9.35,11.698,9.689,11.698,10.06z"/>
<path fill="#FF9000" d="M6.599,23.805c0.588,2.066,1.641,3.932,3.038,5.489c0.284-0.528,0.46-1.122,0.46-1.765
	C10.097,25.545,8.55,23.937,6.599,23.805z"/>
<path fill="#FF9000" d="M20,29.375c-2.369,0-4.394,1.469-5.222,3.543c0.653,0.266,1.332,0.477,2.029,0.641
	c0.552-1.217,1.771-2.068,3.192-2.068s2.641,0.852,3.192,2.068c0.698-0.164,1.377-0.376,2.03-0.641
	C24.395,30.844,22.371,29.375,20,29.375z"/>
<path fill="#FF9000" d="M24.699,6.888c-0.002,0.046-0.014,0.09-0.014,0.137c0,1.555,1.259,2.814,2.812,2.814
	c0.562,0,1.082-0.169,1.521-0.453C27.753,8.308,26.292,7.461,24.699,6.888z"/>
</svg>
