<?xml version="1.0" encoding="utf-8"?>
<!-- Generator: Adobe Illustrator 16.0.0, SVG Export Plug-In . SVG Version: 6.00 Build 0)  -->
<!DOCTYPE svg PUBLIC "-//W3C//DTD SVG 1.0//EN" "http://www.w3.org/TR/2001/REC-SVG-20010904/DTD/svg10.dtd">
<svg version="1.0" id="Layer_1" xmlns="http://www.w3.org/2000/svg" xmlns:xlink="http://www.w3.org/1999/xlink" x="0px" y="0px"
	 width="40px" height="40px" viewBox="0 0 40 40" enable-background="new 0 0 40 40" xml:space="preserve">
<path fill="#C7C7CD" d="M19.999,0C8.972,0,0,8.971,0,20c0,11.027,8.972,20,19.999,20C31.027,40,40,31.027,40,20
	C40,8.971,31.027,0,19.999,0L19.999,0z"/>
<path fill="#FFFFFF" d="M16.9,34.064c0,0.517-0.42,0.937-0.936,0.937c-0.519,0-0.938-0.42-0.938-0.937v-0.857H16.9V34.064z"/>
<path fill="#FFFFFF" d="M25.027,34.064c0,0.517-0.419,0.937-0.938,0.937s-0.938-0.42-0.938-0.937v-0.857h1.876V34.064z"/>
<g>
	<path fill="#FFFFFF" d="M21.424,4.6h-2.793c-1,0-1.809,0.811-1.809,1.809h6.41C23.232,5.411,22.424,4.6,21.424,4.6z"/>
	<path fill="#FFFFFF" d="M28.121,20.058l-0.884-0.884l-0.886-0.883l-1.324-0.443l-0.317,0.318l-1.757-1.756h2.074l1.41,0.472V16.41
		c0-0.78-0.633-1.41-1.41-1.41h-2.5V7.113H21.82V15h-3.589V7.113h-0.704V15h-2.501c-0.779,0-1.409,0.63-1.409,1.41v14.68
		c0,0.779,0.63,1.41,1.409,1.41h10.001c0.777,0,1.41-0.631,1.41-1.41v-7.485l-1.41-1.411v2.455H15.026V16.41h7.428l2.006,2.006
		l-0.318,0.319l0.443,1.326l0.883,0.883l0.884,0.884l0.884,0.884l0.443-0.443l0.442-0.44l0.44-0.442l0.443-0.442L28.121,20.058z
		 M25.027,25.354v5.736H15.026v-5.736H25.027z M25.759,19.465c-0.241,0.24-0.633,0.24-0.874,0c-0.197-0.199-0.224-0.494-0.097-0.727
		c0.032,0.029,0.071,0.047,0.115,0.047s0.088-0.018,0.124-0.051c0.064-0.067,0.063-0.17,0.005-0.24
		c0.234-0.127,0.528-0.101,0.727,0.098C25.999,18.832,25.999,19.223,25.759,19.465z"/>
</g>
</svg>
