<?xml version="1.0" encoding="utf-8"?>
<!-- Generator: Adobe Illustrator 16.0.0, SVG Export Plug-In . SVG Version: 6.00 Build 0)  -->
<!DOCTYPE svg PUBLIC "-//W3C//DTD SVG 1.1//EN" "http://www.w3.org/Graphics/SVG/1.1/DTD/svg11.dtd">
<svg version="1.1" id="Layer_1" xmlns="http://www.w3.org/2000/svg" xmlns:xlink="http://www.w3.org/1999/xlink" x="0px" y="0px"
	 width="40px" height="40px" viewBox="0 0 40 40" enable-background="new 0 0 40 40" xml:space="preserve">
<circle fill="#003399" cx="19.998" cy="20" r="15"/>
<path fill="#003399" d="M20,40c4.08,0,7.869-1.228,11.032-3.324c-0.022-0.021-0.049-0.037-0.071-0.059
	c-0.225-0.225-0.407-0.473-0.567-0.731C27.404,37.849,23.836,39,20,39C9.523,39,1,30.477,1,20S9.523,1,20,1s19,8.523,19,19
	c0,4.558-1.626,8.734-4.312,12.012c-0.282-0.143-0.589-0.224-0.899-0.224c-0.512,0-1.023,0.195-1.414,0.586
	c-0.781,0.781-0.781,2.048,0,2.829c0.391,0.39,0.902,0.585,1.414,0.585s1.023-0.195,1.414-0.586c0.688-0.688,0.769-1.753,0.243-2.53
	C38.281,29.219,40,24.815,40,20C40,8.954,31.046,0,20,0S0,8.954,0,20S8.954,40,20,40z M34.496,34.495
	c-0.189,0.188-0.44,0.293-0.707,0.293c-0.268,0-0.518-0.104-0.707-0.292c-0.39-0.391-0.39-1.025,0-1.414
	c0.189-0.189,0.44-0.294,0.707-0.294c0.268,0,0.518,0.104,0.707,0.294c0.189,0.188,0.293,0.439,0.293,0.706
	S34.686,34.307,34.496,34.495z"/>
<polygon fill="#FFFF00" points="18.7,12 20,11.055 21.299,12 20.803,10.471 22.103,9.527 20.496,9.527 20,8 19.503,9.527 
	17.896,9.527 19.196,10.471 "/>
<polygon fill="#FFFF00" points="18.7,32 20,31.055 21.299,32 20.803,30.471 22.103,29.527 20.496,29.527 20,28 19.503,29.527 
	17.896,29.527 19.196,30.471 "/>
<polygon fill="#FFFF00" points="13.7,31 15,30.055 16.299,31 15.803,29.471 17.103,28.527 15.496,28.527 15,27 14.503,28.527 
	12.896,28.527 14.196,29.471 "/>
<polygon fill="#FFFF00" points="9.7,27 11,26.055 12.299,27 11.803,25.471 13.103,24.527 11.496,24.527 11,23 10.503,24.527 
	8.896,24.527 10.196,25.471 "/>
<polygon fill="#FFFF00" points="8.7,22 10,21.055 11.299,22 10.803,20.471 12.103,19.527 10.496,19.527 10,18 9.503,19.527 
	7.896,19.527 9.196,20.471 "/>
<polygon fill="#FFFF00" points="28.7,22 30,21.055 31.299,22 30.803,20.471 32.103,19.527 30.496,19.527 30,18 29.503,19.527 
	27.896,19.527 29.196,20.471 "/>
<polygon fill="#FFFF00" points="27.7,27 29,26.055 30.299,27 29.803,25.471 31.103,24.527 29.496,24.527 29,23 28.503,24.527 
	26.896,24.527 28.196,25.471 "/>
<polygon fill="#FFFF00" points="9.7,17 11,16.055 12.299,17 11.803,15.471 13.103,14.527 11.496,14.527 11,13 10.503,14.527 
	8.896,14.527 10.196,15.471 "/>
<polygon fill="#FFFF00" points="27.7,17 29,16.055 30.299,17 29.803,15.471 31.103,14.527 29.496,14.527 29,13 28.503,14.527 
	26.896,14.527 28.196,15.471 "/>
<polygon fill="#FFFF00" points="23.7,31 25,30.055 26.299,31 25.803,29.471 27.103,28.527 25.496,28.527 25,27 24.503,28.527 
	22.896,28.527 24.196,29.471 "/>
<polygon fill="#FFFF00" points="13.7,13 15,12.055 16.299,13 15.803,11.471 17.103,10.527 15.496,10.527 15,9 14.503,10.527 
	12.896,10.527 14.196,11.471 "/>
<polygon fill="#FFFF00" points="23.7,13 25,12.055 26.299,13 25.803,11.471 27.103,10.527 25.496,10.527 25,9 24.503,10.527 
	22.896,10.527 24.196,11.471 "/>
</svg>
