<?xml version="1.0" encoding="utf-8"?>
<!-- Generator: Adobe Illustrator 16.0.0, SVG Export Plug-In . SVG Version: 6.00 Build 0)  -->
<!DOCTYPE svg PUBLIC "-//W3C//DTD SVG 1.0//EN" "http://www.w3.org/TR/2001/REC-SVG-20010904/DTD/svg10.dtd">
<svg version="1.0" id="Layer_1" xmlns="http://www.w3.org/2000/svg" xmlns:xlink="http://www.w3.org/1999/xlink" x="0px" y="0px"
	 width="40px" height="40px" viewBox="0 0 40 40" enable-background="new 0 0 40 40" xml:space="preserve">
<path fill="#669900" d="M20,0C8.973,0,0,8.971,0,19.999C0,31.028,8.973,40,20,40s20-8.972,20-20.001C40,8.971,31.027,0,20,0L20,0z"
	/>
<g>
	<path fill="#FFFFFF" d="M24.384,17.986l-1.785-4.026c-0.315-0.712,2.263-1.854,2.579-1.143l1.783,4.026
		C27.276,17.555,24.617,18.513,24.384,17.986z"/>
	<circle fill="#FFFFFF" cx="22.683" cy="11.072" r="1.409"/>
	<path fill="#FFFFFF" d="M14.689,9.855c0,0,0.402-0.393,0.518-0.688c0.115-0.298,0.738-1.783,2.291-1.669
		c1.553,0.115,2.808,0.611,2.904,2.387c0.058,1.054-0.058,1.399-0.058,1.399s-0.144,0.403-0.709,0.566
		c-0.565,0.162-1.677,0.114-2.185-0.376c-0.51-0.486-0.51-0.919-1.256-1.101C15.447,10.191,15.17,10.144,14.689,9.855z"/>
	<g>
		<path fill="#FFFFFF" d="M16.963,11.984c-0.217-0.209-0.358-0.403-0.473-0.562c-0.176-0.246-0.219-0.306-0.462-0.365l-0.208-0.049
			c-0.111-0.026-0.211-0.052-0.304-0.075c0.116,0.84,0.528,2.431,1.935,2.237c0.494-0.065,0.848-0.294,1.097-0.552
			C18.078,12.573,17.42,12.425,16.963,11.984z"/>
	</g>
	<path fill="#FFFFFF" d="M23.781,30.288l-1.174-2.565l-2.363,0.998l1.136,2.023l-2.164,0.649v1.079h4.805l-0.113-1.606
		C23.906,30.671,23.867,30.478,23.781,30.288z"/>
	<path fill="#FFFFFF" d="M24.303,19.836l-1.25-2.818l-1.248-2.819c-0.222-0.497-0.623-0.859-1.095-1.041s-1.012-0.185-1.509,0.037
		c-0.499,0.222-0.861,0.623-1.043,1.095c-0.184,0.472-0.184,1.012,0.037,1.511l0.504,0.981l-2.232-0.767l-1.12-1.534
		c-0.153-0.208-0.398-0.296-0.638-0.273L12.76,11.54c-0.113-0.158-0.334-0.192-0.492-0.078c-0.155,0.115-0.191,0.337-0.076,0.492
		l1.949,2.668c-0.095,0.222-0.085,0.482,0.067,0.69l0.169,0.232c-0.205,0.093-0.373,0.262-0.452,0.491
		c-0.152,0.443,0.083,0.924,0.525,1.075l1.427,0.491l0.489,0.669c0.139,0.188,0.354,0.288,0.57,0.288
		c0.023,0,0.046-0.009,0.07-0.011l0.7,0.958c-0.202,0.278-0.228,0.661-0.025,0.963c0.128,0.193,0.328,0.294,0.538,0.337l0.237,0.325
		l0.472,0.642l0.569-0.415l0.568-0.416l-0.307-0.548l-0.443-0.865l-1.03-0.425l-0.658-0.901L18.9,18.64l0.824,0.284
		c0.09,0.031,0.184,0.046,0.275,0.046c0.174,0,0.346-0.054,0.49-0.157c0.224-0.159,0.355-0.415,0.355-0.688V15.51h0.705v2.614
		c0,0.5-0.244,0.972-0.65,1.262c-0.215,0.155-0.464,0.246-0.726,0.275l0.616,1.196l-2.041,3.901
		c-0.202,0.387-0.215,0.845-0.033,1.241l1.181,2.104l2.417-1.021l-0.746-1.629l2.592-3.744c0.002-0.007,0.004-0.014,0.008-0.018
		c0.068-0.109,0.127-0.224,0.173-0.346C24.522,20.876,24.525,20.335,24.303,19.836z"/>
</g>
</svg>
