<?xml version="1.0" encoding="utf-8"?>
<!-- Generator: Adobe Illustrator 16.0.0, SVG Export Plug-In . SVG Version: 6.00 Build 0)  -->
<!DOCTYPE svg PUBLIC "-//W3C//DTD SVG 1.0//EN" "http://www.w3.org/TR/2001/REC-SVG-20010904/DTD/svg10.dtd">
<svg version="1.0" id="Layer_1" xmlns="http://www.w3.org/2000/svg" xmlns:xlink="http://www.w3.org/1999/xlink" x="0px" y="0px"
	 width="40px" height="40px" viewBox="0 0 40 40" enable-background="new 0 0 40 40" xml:space="preserve">
<g>
	<path fill="#C7C7CD" d="M20,0C8.971,0,0,8.972,0,20c0,11.028,8.971,20,20,20c11.028,0,20-8.973,20-20C40,8.972,31.028,0,20,0L20,0z
		"/>
	<g>
		<path fill="#FFFFFF" d="M30.026,36.504V30l-2.499-2.5l0,0h-0.002h-0.624v-0.625h-0.272v-4.229l5.001-5.001v-6.374
			c0.56-0.155,0.973-0.663,0.973-1.272c0-0.732-0.595-1.326-1.325-1.326c-0.733,0-1.326,0.594-1.326,1.326
			c0,0.609,0.414,1.117,0.974,1.272v6.083l-5.001,5v4.521h-0.271V27.5H24.4v-0.625h-0.271v-4.229l2.513-2.512v-3.863
			c0.561-0.154,0.974-0.662,0.974-1.271c0-0.732-0.594-1.325-1.325-1.325c-0.732,0-1.327,0.593-1.327,1.325
			c0,0.609,0.414,1.117,0.975,1.271v3.57l-2.514,2.512v4.521h-0.271V27.5h-1.249v-0.625H21.63V8.771
			c0.56-0.155,0.973-0.663,0.973-1.272c0-0.732-0.593-1.325-1.325-1.325s-1.325,0.593-1.325,1.325c0,0.609,0.413,1.117,0.973,1.272
			v18.104h-0.272V27.5H19.4v-0.625h-0.272V16.271c0.56-0.154,0.975-0.662,0.975-1.271c0-0.732-0.595-1.325-1.327-1.325
			c-0.73,0-1.325,0.593-1.325,1.325c0,0.609,0.413,1.117,0.974,1.271v10.604h-0.272V27.5h-1.25v-0.625h-0.273v-4.521l-2.514-2.512
			v-8.57c0.56-0.155,0.975-0.663,0.975-1.272c0-0.732-0.593-1.326-1.327-1.326c-0.73,0-1.324,0.594-1.324,1.326
			c0,0.609,0.412,1.117,0.973,1.272v8.863l2.513,2.512v4.229H15.65V27.5H14.4v-0.625h-0.273v-4.521l-4.999-5v-1.083
			c0.56-0.154,0.974-0.662,0.974-1.271c0-0.732-0.594-1.325-1.326-1.325c-0.731,0-1.325,0.593-1.325,1.325
			c0,0.609,0.413,1.117,0.974,1.271v1.375l4.999,5.001v4.229H13.15V27.5h-0.624L10.025,30v6.502c0.23,0.143,0.467,0.275,0.705,0.406
			v-6.203h1.796v7.076c2.306,0.975,4.84,1.514,7.501,1.514c2.66,0,5.193-0.539,7.5-1.512v-7.078h1.794v6.205
			C29.56,36.779,29.795,36.645,30.026,36.504z M12.526,30h-1.503l1.503-1.502V30z M14.09,32.5h-0.625v-1.875h0.625V32.5z
			 M15.34,32.5h-0.625v-1.875h0.625V32.5z M16.59,32.5h-0.624v-1.875h0.624V32.5z M17.84,32.5h-0.624v-1.875h0.624V32.5z
			 M19.09,32.5h-0.625v-1.875h0.625V32.5z M20.34,32.5h-0.625v-1.875h0.625V32.5z M21.59,32.5h-0.625v-1.875h0.625V32.5z
			 M22.841,32.5h-0.627v-1.875h0.627V32.5z M24.09,32.5h-0.625v-1.875h0.625V32.5z M25.34,32.5h-0.625v-1.875h0.625V32.5z
			 M26.59,32.5h-0.624v-1.875h0.624V32.5z M26.821,30H13.23v-1.795h13.591V30z M27.527,30v-1.502L29.029,30H27.527z"/>
	</g>
</g>
</svg>
