<?xml version="1.0" encoding="utf-8"?>
<!-- Generator: Adobe Illustrator 16.0.0, SVG Export Plug-In . SVG Version: 6.00 Build 0)  -->
<!DOCTYPE svg PUBLIC "-//W3C//DTD SVG 1.0//EN" "http://www.w3.org/TR/2001/REC-SVG-20010904/DTD/svg10.dtd">
<svg version="1.0" id="Layer_1" xmlns="http://www.w3.org/2000/svg" xmlns:xlink="http://www.w3.org/1999/xlink" x="0px" y="0px"
	 width="40px" height="40px" viewBox="0 0 40 40" enable-background="new 0 0 40 40" xml:space="preserve">
<circle fill="#FFFFFF" cx="20" cy="20" r="19.5"/>
<g>
	<g>
		<path fill="#C7C7CD" d="M20,1c10.477,0,19,8.523,19,19c0,10.477-8.523,19-19,19C9.523,39,1,30.477,1,20C1,9.523,9.523,1,20,1
			 M20,0C8.954,0,0,8.954,0,20s8.954,20,20,20s20-8.954,20-20S31.046,0,20,0L20,0z"/>
	</g>
	<g>
		<circle fill="#C7C7CD" cx="20" cy="20" r="15"/>
		<g>
			<path fill="#FFFFFF" d="M24.876,27.125l-4.874-3.54l-4.874,3.54l1.86-5.73l-4.876-3.539h6.024l1.865-5.73l1.86,5.726l6.024,0.004
				l-4.874,3.541L24.876,27.125z"/>
		</g>
		<path fill="#FFFFFF" d="M26.947,21.152l-1.446,1.053l0.575,1.77h6.18c0.292-0.901,0.49-1.848,0.575-2.822H26.947L26.947,21.152z"
			/>
		<g>
			<path fill="#FFFFFF" d="M13.927,23.975l0.576-1.77l-1.45-1.053H7.169c0.089,0.975,0.283,1.92,0.577,2.82h6.181V23.975z"/>
		</g>
	</g>
</g>
</svg>
