<?xml version="1.0" encoding="utf-8"?>
<!-- Generator: Adobe Illustrator 16.0.0, SVG Export Plug-In . SVG Version: 6.00 Build 0)  -->
<!DOCTYPE svg PUBLIC "-//W3C//DTD SVG 1.0//EN" "http://www.w3.org/TR/2001/REC-SVG-20010904/DTD/svg10.dtd">
<svg version="1.0" id="Layer_1" xmlns="http://www.w3.org/2000/svg" xmlns:xlink="http://www.w3.org/1999/xlink" x="0px" y="0px"
	 width="40px" height="40px" viewBox="0 0 40 40" enable-background="new 0 0 40 40" xml:space="preserve">
<g>
	<g>
		<path fill="#C7C7CD" d="M30.395,35.886c-2.729,1.792-5.94,2.896-9.395,3.077v1c3.697-0.185,7.13-1.364,10.032-3.287
			c-0.022-0.021-0.05-0.037-0.071-0.059C30.736,36.393,30.555,36.145,30.395,35.886z"/>
		<path fill="#C7C7CD" d="M40,20C40,9.292,31.578,0.575,21,0.05v1C31.011,1.576,39,9.86,39,20c0,4.559-1.626,8.734-4.312,12.012
			c-0.281-0.143-0.588-0.224-0.898-0.224c-0.512,0-1.023,0.194-1.414,0.586c-0.781,0.78-0.781,2.048,0,2.829
			c0.391,0.39,0.902,0.585,1.414,0.585s1.023-0.195,1.414-0.586c0.688-0.688,0.77-1.753,0.242-2.53C38.281,29.219,40,24.814,40,20z
			 M34.496,34.495c-0.189,0.188-0.439,0.293-0.707,0.293s-0.518-0.104-0.707-0.292c-0.391-0.391-0.391-1.025,0-1.414
			c0.189-0.189,0.439-0.294,0.707-0.294s0.518,0.104,0.707,0.294c0.189,0.188,0.293,0.439,0.293,0.706S34.686,34.307,34.496,34.495z
			"/>
	</g>
	<path fill="#C7C7CD" d="M21,5.051v29.898C28.814,34.432,34.998,27.946,34.998,20C34.998,12.054,28.814,5.568,21,5.051z"/>
</g>
<g>
	<polygon fill="#FFFFFF" points="28.7,22 30,21.055 31.299,22 30.803,20.471 32.104,19.527 30.496,19.527 30,18 29.503,19.527 
		27.896,19.527 29.195,20.471 	"/>
	<polygon fill="#FFFFFF" points="27.7,27 29,26.055 30.299,27 29.803,25.471 31.104,24.527 29.496,24.527 29,23 28.503,24.527 
		26.896,24.527 28.195,25.471 	"/>
	<polygon fill="#FFFFFF" points="27.7,17 29,16.055 30.299,17 29.803,15.471 31.104,14.527 29.496,14.527 29,13 28.503,14.527 
		26.896,14.527 28.195,15.471 	"/>
	<polygon fill="#FFFFFF" points="23.7,31 25,30.055 26.299,31 25.803,29.471 27.104,28.527 25.496,28.527 25,27 24.503,28.527 
		22.896,28.527 24.195,29.471 	"/>
	<polygon fill="#FFFFFF" points="23.7,13 25,12.055 26.299,13 25.803,11.471 27.104,10.527 25.496,10.527 25,9 24.503,10.527 
		22.896,10.527 24.195,11.471 	"/>
</g>
<path fill="#C7C7CD" d="M19,5.05C11.184,5.566,4.998,12.053,4.998,20S11.184,34.434,19,34.949V5.05z"/>
<path fill="#FFFFFF" d="M19,30.941c-1.338-0.124-2.608-0.482-3.767-1.043c1.02-0.954,2.322-1.606,3.767-1.817v-0.996
	c-0.876,0.108-1.709,0.349-2.474,0.72c0.009-0.004,0.016-0.01,0.024-0.014c-0.441-0.969-0.795-2.098-1.057-3.295
	c1.131-0.248,2.321-0.386,3.507-0.442V23.05c-1.299,0.052-2.554,0.186-3.701,0.431c-0.164-0.979-0.261-1.984-0.286-2.98H19v-1
	h-3.987c0.025-0.996,0.122-2.001,0.286-2.98c1.147,0.245,2.402,0.379,3.701,0.431v-1.004c-1.185-0.057-2.375-0.194-3.506-0.443
	c0.262-1.196,0.615-2.326,1.057-3.294c-0.008-0.004-0.016-0.009-0.023-0.013c0.763,0.371,1.597,0.609,2.472,0.718v-0.996
	c-1.445-0.211-2.747-0.863-3.767-1.817c1.159-0.56,2.429-0.918,3.767-1.043V8.062c-3.666,0.305-6.866,2.24-8.854,5.098
	c-0.001,0.002-0.001,0.002-0.002,0.003C8.796,15.104,8,17.458,8,20s0.797,4.896,2.146,6.837c0.001,0,0.001,0,0.001,0v0.002
	c1.116,1.604,2.613,2.92,4.362,3.822c0.002,0.002,0.004,0.002,0.006,0.004c1.363,0.703,2.88,1.139,4.485,1.273V30.941z
	 M14.311,10.604c0.447,0.455,0.95,0.854,1.495,1.192c-0.046-0.028-0.096-0.049-0.141-0.078c-0.489,1.024-0.887,2.225-1.172,3.544
	c-1.367-0.377-2.598-0.883-3.545-1.497C11.831,12.487,12.98,11.413,14.311,10.604z M10.425,14.604
	c1.033,0.686,2.359,1.252,3.877,1.664c-0.167,1.024-0.267,2.107-0.289,3.232H9.025C9.105,17.727,9.599,16.062,10.425,14.604z
	 M9.026,20.5h4.987c0.023,1.125,0.122,2.208,0.29,3.232c-1.518,0.412-2.844,0.979-3.877,1.664C9.6,23.938,9.106,22.273,9.026,20.5z
	 M14.31,29.396c-1.33-0.809-2.479-1.883-3.362-3.16c0.947-0.615,2.178-1.121,3.545-1.498c0.285,1.32,0.683,2.52,1.172,3.545
	c0.047-0.031,0.1-0.053,0.147-0.082C15.265,28.539,14.759,28.939,14.31,29.396z"/>
<g>
	<path fill="#C7C7CD" d="M9.606,4.114C12.334,2.323,15.545,1.219,19,1.038v-1c-3.697,0.184-7.13,1.363-10.032,3.288
		C8.99,3.346,9.017,3.361,9.039,3.383C9.264,3.608,9.446,3.856,9.606,4.114z"/>
	<path fill="#C7C7CD" d="M19,38.949C8.989,38.425,1,30.139,1,20c0-4.558,1.626-8.735,4.312-12.012
		c0.283,0.144,0.589,0.224,0.899,0.224c0.512,0,1.023-0.195,1.414-0.586c0.781-0.781,0.781-2.047,0-2.829
		c-0.39-0.39-0.902-0.585-1.414-0.585c-0.512,0-1.023,0.195-1.414,0.586C4.108,5.486,4.028,6.551,4.554,7.329
		C1.718,10.781,0,15.185,0,20c0,10.708,8.422,19.425,19,19.949V38.949z M5.504,5.505c0.189-0.189,0.44-0.293,0.708-0.293
		S6.73,5.316,6.919,5.504c0.39,0.39,0.39,1.024,0,1.414C6.73,7.107,6.479,7.211,6.212,7.211S5.694,7.107,5.505,6.918
		C5.315,6.73,5.211,6.479,5.211,6.212S5.315,5.694,5.504,5.505z"/>
</g>
</svg>
