<?xml version="1.0" encoding="utf-8"?>
<!-- Generator: Adobe Illustrator 16.0.0, SVG Export Plug-In . SVG Version: 6.00 Build 0)  -->
<!DOCTYPE svg PUBLIC "-//W3C//DTD SVG 1.0//EN" "http://www.w3.org/TR/2001/REC-SVG-20010904/DTD/svg10.dtd">
<svg version="1.0" id="Layer_1" xmlns="http://www.w3.org/2000/svg" xmlns:xlink="http://www.w3.org/1999/xlink" x="0px" y="0px"
	 width="40px" height="40px" viewBox="0 0 40 40" enable-background="new 0 0 40 40" xml:space="preserve">
<g>
	<path fill="#FF9000" d="M20,0C8.97,0,0,8.972,0,20c0,11.03,8.97,20,20,20c11.028,0,20-8.971,20-20C40,8.972,31.028,0,20,0L20,0z"/>
	<path fill="#FFFFFF" d="M30.312,14.481c-2.479,0-4.488,1.92-4.677,4.35c-0.158-0.017-0.311-0.048-0.472-0.048
		c-0.162,0-0.314,0.031-0.473,0.048c-0.188-2.43-2.199-4.35-4.679-4.35c-2.479,0-4.487,1.92-4.676,4.35
		c-0.158-0.017-0.311-0.048-0.472-0.048c-0.162,0-0.314,0.031-0.472,0.048c-0.189-2.43-2.199-4.35-4.678-4.35
		C7.112,14.481,5,16.592,5,19.195c0,2.604,2.112,4.717,4.716,4.717c0.161,0,0.313-0.031,0.471-0.049
		c0.189,2.432,2.199,4.35,4.679,4.35c2.479,0,4.487-1.918,4.676-4.35c0.157,0.018,0.311,0.049,0.472,0.049
		c0.162,0,0.314-0.031,0.473-0.049c0.188,2.432,2.199,4.35,4.679,4.35c2.479,0,4.487-1.918,4.676-4.35
		c0.158,0.018,0.311,0.049,0.473,0.049c2.604,0,4.716-2.113,4.716-4.717C35.028,16.592,32.917,14.481,30.312,14.481z M6.409,19.195
		c0-1.82,1.482-3.303,3.307-3.303c1.811,0,3.282,1.465,3.301,3.269c-1.369,0.585-2.398,1.802-2.738,3.283
		c-0.184,0.031-0.37,0.057-0.562,0.057C7.892,22.5,6.409,21.018,6.409,19.195z M14.865,26.803c-1.81,0-3.284-1.465-3.304-3.268
		c1.37-0.584,2.399-1.803,2.739-3.284c0.185-0.031,0.371-0.057,0.564-0.057s0.379,0.025,0.563,0.057
		c0.34,1.481,1.367,2.698,2.736,3.282C18.146,25.338,16.675,26.803,14.865,26.803z M19.449,22.443
		c-0.34-1.48-1.367-2.698-2.736-3.282c0.019-1.805,1.49-3.27,3.3-3.27s3.284,1.465,3.303,3.269
		c-1.369,0.585-2.398,1.802-2.738,3.283c-0.185,0.031-0.371,0.057-0.564,0.057S19.634,22.475,19.449,22.443z M25.164,26.803
		c-1.81,0-3.284-1.465-3.303-3.27c1.369-0.584,2.398-1.801,2.738-3.282c0.185-0.031,0.371-0.057,0.564-0.057
		s0.379,0.025,0.563,0.057c0.34,1.481,1.367,2.698,2.736,3.282C28.444,25.338,26.974,26.803,25.164,26.803z M30.312,22.5
		c-0.193,0-0.38-0.025-0.564-0.057c-0.34-1.48-1.367-2.698-2.736-3.282c0.019-1.805,1.49-3.27,3.301-3.27
		c1.821,0,3.307,1.482,3.307,3.303C33.619,21.018,32.134,22.5,30.312,22.5z"/>
</g>
</svg>
