<?xml version="1.0" encoding="utf-8"?>
<!-- Generator: Adobe Illustrator 16.0.0, SVG Export Plug-In . SVG Version: 6.00 Build 0)  -->
<!DOCTYPE svg PUBLIC "-//W3C//DTD SVG 1.0//EN" "http://www.w3.org/TR/2001/REC-SVG-20010904/DTD/svg10.dtd">
<svg version="1.0" id="Layer_1" xmlns="http://www.w3.org/2000/svg" xmlns:xlink="http://www.w3.org/1999/xlink" x="0px" y="0px"
	 width="40px" height="40px" viewBox="0 0 40 40" enable-background="new 0 0 40 40" xml:space="preserve">
<g>
	<path fill="#C7C7CD" d="M20,0C8.972,0,0,8.972,0,20.001C0,31.027,8.972,40,20,40c11.027,0,20-8.973,20-19.999
		C40,8.972,31.027,0,20,0L20,0z"/>
	<g>
		<path fill="#FFFFFF" d="M30.026,20.545h-5.001c-0.389,0-0.705,0.315-0.705,0.705c0,0.389,0.316,0.705,0.705,0.705h5.001
			c0.39,0,0.705-0.316,0.705-0.705C30.731,20.86,30.416,20.545,30.026,20.545z"/>
		<path fill="#FFFFFF" d="M35.027,18.397c-0.195,0-0.354,0.158-0.354,0.353v1.306c-0.42-0.624-1.188-1.019-2.148-1.306v-2.5
			c0-0.27-0.151-0.515-0.393-0.632c-0.242-0.119-0.529-0.091-0.742,0.074l-2.537,1.957L20.027,15h-2.501V12.66
			c0-0.778-0.631-1.411-1.41-1.411h-2.153V7.5h-1.407l0.701,0.705v3.044h-1.821c-0.778,0-1.411,0.632-1.411,1.411V15H7.526
			c-2.762,0-2.501,2.239-2.501,5.002c0,2.759,2.24,4.998,5,4.998h15l3.307-0.551l3.059,2.358c0.125,0.1,0.277,0.148,0.43,0.148
			c0.106,0,0.213-0.023,0.312-0.072c0.241-0.119,0.393-0.363,0.393-0.633v-2.5c0.919,0,1.714-0.502,2.148-1.24v1.24
			c0,0.194,0.158,0.353,0.354,0.353c0.193,0,0.352-0.158,0.352-0.353v-5C35.379,18.556,35.221,18.397,35.027,18.397z M11.436,12.66
			h4.68V15h-4.68V12.66z M32.525,22.341h-0.117l-0.115,0.019l-7.385,1.23H10.025c-1.979,0-3.591-1.61-3.591-3.588
			c0-0.228-0.001-0.451-0.003-0.671c-0.009-1.078-0.019-2.422,0.305-2.749c0.107-0.108,0.403-0.171,0.79-0.171H19.82L32.121,20.1
			c1.496,0.448,1.496,0.889,1.496,1.15C33.617,21.852,33.128,22.341,32.525,22.341z"/>
	</g>
</g>
</svg>
