<?xml version="1.0" encoding="utf-8"?>
<!-- Generator: Adobe Illustrator 16.0.0, SVG Export Plug-In . SVG Version: 6.00 Build 0)  -->
<!DOCTYPE svg PUBLIC "-//W3C//DTD SVG 1.0//EN" "http://www.w3.org/TR/2001/REC-SVG-20010904/DTD/svg10.dtd">
<svg version="1.0" id="Layer_1" xmlns="http://www.w3.org/2000/svg" xmlns:xlink="http://www.w3.org/1999/xlink" x="0px" y="0px"
	 width="40px" height="40px" viewBox="0 0 40 40" enable-background="new 0 0 40 40" xml:space="preserve">
<g>
	<path fill="#2B85D0" d="M20,0C8.972,0,0,8.972,0,20c0,11.027,8.972,20,20,20s20-8.973,20-20C40,8.972,31.028,0,20,0L20,0z"/>
	<g>
		<path fill="#FFFFFF" d="M22.201,8.229l-7.176,7.175l4.612,6.463h-5.862c-0.049-0.182-0.197-0.365-0.373-0.443l-2.985-1.395
			c-0.216-0.096-0.393,0.002-0.393,0.217v4.491c0,0.218,0.176,0.313,0.393,0.218l2.985-1.395c0.176-0.077,0.324-0.262,0.373-0.442
			h6.756l2.965,4.145c0.205,0.285,0.566,0.318,0.811,0.074l7.957-7.955c0.244-0.243,0.211-0.606-0.074-0.812l-11.277-8.055
			l1.787-1.788c0.699-0.7,1.838-0.7,2.538,0l3.775,3.775l0.5-0.498l-3.776-3.775C24.76,7.252,23.178,7.252,22.201,8.229z"/>
		<path fill="#2B85D0" d="M24.797,18.596c-0.384,0.384-0.928,0.558-1.441,0.5l1.158-1.158l-0.473-0.472l-1.389,1.388
			c-0.092-0.059-0.18-0.128-0.26-0.21c-0.082-0.08-0.152-0.168-0.211-0.262l1.389-1.388l-0.473-0.472l-1.158,1.158
			c-0.057-0.514,0.115-1.059,0.5-1.443c0.266-0.264,0.6-0.414,0.945-0.463l-0.143-0.994c-0.552,0.078-1.084,0.326-1.51,0.752
			c-0.791,0.791-1.006,1.982-0.609,2.967l-0.617,0.616l0.472,0.472l0.488-0.488c0.067,0.088,0.139,0.174,0.22,0.252
			c0.08,0.08,0.164,0.152,0.252,0.219l-0.488,0.488l0.471,0.473l0.617-0.618c0.984,0.399,2.176,0.18,2.967-0.608
			c0.426-0.426,0.672-0.957,0.752-1.509l-0.994-0.143C25.213,17.997,25.062,18.331,24.797,18.596z"/>
	</g>
	<path fill="#FFFFFF" d="M8.775,25.706c0.3,0,0.545,0.243,0.545,0.543c0,0.301-0.245,0.545-0.545,0.545
		c-0.301,0-0.544-0.244-0.544-0.545C8.23,25.949,8.474,25.706,8.775,25.706 M8.775,25.001c-0.691,0-1.25,0.56-1.25,1.248
		c0,0.691,0.56,1.251,1.25,1.251c0.69,0,1.25-0.56,1.25-1.251C10.025,25.561,9.465,25.001,8.775,25.001L8.775,25.001z"/>
	<path fill="#FFFFFF" d="M8.775,29.454c0.3,0,0.545,0.246,0.545,0.546c0,0.301-0.245,0.545-0.545,0.545
		c-0.301,0-0.544-0.244-0.544-0.545C8.23,29.7,8.474,29.454,8.775,29.454 M8.775,28.749c-0.691,0-1.25,0.56-1.25,1.251
		c0,0.689,0.56,1.25,1.25,1.25c0.69,0,1.25-0.561,1.25-1.25C10.025,29.309,9.465,28.749,8.775,28.749L8.775,28.749z"/>
	<path fill="#FFFFFF" d="M8.775,33.206c0.3,0,0.545,0.243,0.545,0.544s-0.245,0.545-0.545,0.545c-0.301,0-0.544-0.244-0.544-0.545
		S8.474,33.206,8.775,33.206 M8.775,32.5c-0.691,0-1.25,0.56-1.25,1.25S8.084,35,8.775,35c0.69,0,1.25-0.56,1.25-1.25
		S9.465,32.5,8.775,32.5L8.775,32.5z"/>
</g>
<path fill="#60A4DC" d="M20,1c10.477,0,19,8.524,19,19c0,10.477-8.523,19-19,19C9.523,39,1,30.477,1,20C1,9.524,9.523,1,20,1 M20,0
	C8.954,0,0,8.955,0,20c0,11.044,8.954,20,20,20s20-8.955,20-20S31.046,0,20,0L20,0z"/>
</svg>
