<?xml version="1.0" encoding="utf-8"?>
<!-- Generator: Adobe Illustrator 16.0.0, SVG Export Plug-In . SVG Version: 6.00 Build 0)  -->
<!DOCTYPE svg PUBLIC "-//W3C//DTD SVG 1.0//EN" "http://www.w3.org/TR/2001/REC-SVG-20010904/DTD/svg10.dtd">
<svg version="1.0" id="Layer_1" xmlns="http://www.w3.org/2000/svg" xmlns:xlink="http://www.w3.org/1999/xlink" x="0px" y="0px"
	 width="40px" height="40px" viewBox="0 0 40 40" enable-background="new 0 0 40 40" xml:space="preserve">
<g>
	<path fill="#2B85D0" d="M20,0C8.972,0,0,8.972,0,19.999C0,31.028,8.972,40,20,40c11.027,0,20-8.972,20-20.001
		C40,8.972,31.027,0,20,0L20,0z"/>
	<g>
		<path fill="#FFFFFF" d="M31.902,12.499h-1.25l-0.42,10.068l-7.707-2.568v2.502l-7.5-2.502v2.502l-7.501-2.502v7.502h25.003
			L31.902,12.499z M8.936,23.989v-2.033l6.101,2.033H8.936z M16.436,23.989v-2.033l6.102,2.033H16.436z M23.937,23.989v-2.033
			l6.103,2.033H23.937z"/>
		<path fill="#FFFFFF" d="M29.928,9.166c-0.992-0.496-2.303-0.77-3.691-0.77c-1.283,0-2.482-0.246-3.379-0.695l-0.314,0.631
			c0.992,0.496,2.303,0.77,3.693,0.77c1.281,0,2.48,0.247,3.377,0.695c0.807,0.403,1.27,0.933,1.27,1.453h0.705
			C31.588,10.441,30.998,9.701,29.928,9.166z"/>
	</g>
</g>
<path fill="#60A4DC" d="M20,1c10.477,0,19,8.524,19,19c0,10.477-8.523,19-19,19C9.523,39,1,30.477,1,20C1,9.524,9.523,1,20,1 M20,0
	C8.954,0,0,8.955,0,20c0,11.044,8.954,20,20,20s20-8.955,20-20S31.046,0,20,0L20,0z"/>
</svg>
