<?xml version="1.0" encoding="utf-8"?>
<!-- Generator: Adobe Illustrator 16.0.0, SVG Export Plug-In . SVG Version: 6.00 Build 0)  -->
<!DOCTYPE svg PUBLIC "-//W3C//DTD SVG 1.1//EN" "http://www.w3.org/Graphics/SVG/1.1/DTD/svg11.dtd">
<svg version="1.1" id="Layer_1" xmlns="http://www.w3.org/2000/svg" xmlns:xlink="http://www.w3.org/1999/xlink" x="0px" y="0px"
	 width="40px" height="40px" viewBox="0 0 40 40" enable-background="new 0 0 40 40" xml:space="preserve">
<path fill="#2B85D0" d="M20-0.001C8.972-0.001,0,8.972,0,20s8.972,20.001,20,20.001S40,31.028,40,20S31.027-0.001,20-0.001L20-0.001
	z"/>
<g>
	<path fill="#FFFFFF" d="M19.492,2.504c0,0,0.43,3.456-0.835,4.344c-0.955-0.216-1.053-1.438-1.053-1.438s-0.237,2.098-0.031,2.885
		c0.141,0.618,0.604,1.139,1.234,1.437c0.123-0.562,0.622-0.981,1.221-0.981c0.598,0,1.095,0.421,1.218,0.981
		c0.764-0.359,1.281-1.046,1.281-1.834C22.527,5.34,19.492,2.504,19.492,2.504z"/>
	<path fill="#FFFFFF" d="M25.672,31.796l-1.865-18.592h1.219v-1.41h-3.748v-0.705h-2.501v0.705h-3.75v1.41h1.219l-1.863,18.592
		h-9.62c0.186,0.24,0.377,0.475,0.573,0.705h13.441v6.75c0.415,0.025,0.831,0.045,1.252,0.045c0.42,0,0.837-0.02,1.25-0.045v-6.75
		h13.441c0.197-0.23,0.389-0.465,0.572-0.705H25.672z M21.777,13.204l-1.397,0.987v-0.987H21.777z M22.746,16.794H20.38v-1.74
		l2.047-1.447L22.746,16.794z M22.604,23.205l-2.223,1.116v-1.116H22.604z M20.38,21.795v-1.283l2.174,1.283H20.38z M20.38,19.692
		v-1.487h2.508l0.314,3.154L20.38,19.692z M19.675,19.276l-1.817-1.071h1.817V19.276z M19.675,16.794h-1.759l1.759-1.242V16.794z
		 M17.126,18.591l2.549,1.505v1.699h-2.871L17.126,18.591z M19.675,23.205v1.471l-3.326,1.671l0.314-3.142H19.675z M19.675,25.465
		v1.33h-2.648L19.675,25.465z M20.38,25.11l3.045-1.529l0.322,3.214H20.38V25.11z M19.675,13.204v1.484l-2.324,1.642l0.312-3.126
		H19.675z M15.804,31.796l0.359-3.59h3.512v1.795h-0.899v1.795H15.804z M21.277,31.796v-1.795H20.38v-1.795h3.508l0.359,3.59H21.277
		z"/>
</g>
<path fill="#60A4DC" d="M20,1c10.477,0,19,8.524,19,19s-8.523,19-19,19S1,30.477,1,20S9.523,1,20,1 M20,0C8.954,0,0,8.954,0,20
	c0,11.045,8.954,20,20,20s20-8.955,20-20C40,8.954,31.046,0,20,0L20,0z"/>
</svg>
