<?xml version="1.0" encoding="utf-8"?>
<!-- Generator: Adobe Illustrator 16.0.0, SVG Export Plug-In . SVG Version: 6.00 Build 0)  -->
<!DOCTYPE svg PUBLIC "-//W3C//DTD SVG 1.1//EN" "http://www.w3.org/Graphics/SVG/1.1/DTD/svg11.dtd">
<svg version="1.1" id="Layer_1" xmlns="http://www.w3.org/2000/svg" xmlns:xlink="http://www.w3.org/1999/xlink" x="0px" y="0px"
	 width="40px" height="40px" viewBox="0 0 40 40" enable-background="new 0 0 40 40" xml:space="preserve">
<g>
	<path fill="#C7C7CD" d="M20,0C8.973,0,0,8.973,0,20c0,11.029,8.973,20.001,20,20.001c11.029,0,20-8.973,20-20.001
		C40,8.973,31.029,0,20,0L20,0z"/>
	<path fill="#FFFFFF" d="M26.793,11.667L26.793,11.667h-1.666c-1.839,0-3.332,1.492-3.332,3.333v-0.001V15h1.666
		C25.304,15,26.793,13.508,26.793,11.667L26.793,11.667z"/>
	<path fill="#FFFFFF" d="M26.793,16.668L26.793,16.668l-1.666-0.001c-1.839,0-3.332,1.492-3.332,3.333V20V20h1.666
		C25.304,20,26.793,18.507,26.793,16.668L26.793,16.668z"/>
	<path fill="#FFFFFF" d="M26.793,21.67L26.793,21.67h-1.666c-1.839,0-3.332,1.49-3.332,3.332V25v0.002h1.666
		C25.304,25.002,26.793,23.51,26.793,21.67L26.793,21.67z"/>
	<path fill="#FFFFFF" d="M26.793,26.67L26.793,26.67h-1.666c-1.839,0-3.332,1.492-3.332,3.332l0,0l0,0h1.666
		C25.304,30.002,26.793,28.51,26.793,26.67L26.793,26.67z"/>
	<path fill="#FFFFFF" d="M13.207,11.667L13.207,11.667h1.666c1.839,0,3.332,1.492,3.332,3.333v-0.001V15h-1.669
		c-1.839,0-3.332-1.493-3.332-3.333H13.207z"/>
	<path fill="#FFFFFF" d="M13.207,16.668L13.207,16.668l1.666-0.001c1.839,0,3.332,1.492,3.332,3.333V20V20h-1.669
		c-1.839,0-3.332-1.493-3.332-3.333L13.207,16.668z"/>
	<path fill="#FFFFFF" d="M13.207,21.67L13.207,21.67h1.666c1.839,0,3.332,1.49,3.332,3.332V25v0.002h-1.669
		c-1.839,0-3.332-1.492-3.332-3.332H13.207z"/>
	<path fill="#FFFFFF" d="M13.207,26.67L13.207,26.67h1.666c1.839,0,3.332,1.492,3.332,3.332l0,0l0,0h-1.669
		c-1.839,0-3.332-1.492-3.332-3.332H13.207z"/>
	<path fill="#FFFFFF" d="M20,5.937L20,5.937c-2.052,1.812-2.052,4.75,0,6.564V12.5v0C22.053,10.688,22.053,7.75,20,5.937L20,5.937z"
		/>
	<g>
		<path fill="#FFFFFF" d="M20.705,38.555V13.438h-1.409v25.117c0.236,0.01,0.467,0.037,0.705,0.037
			C20.238,38.592,20.469,38.564,20.705,38.555z"/>
	</g>
</g>
</svg>
