<?xml version="1.0" encoding="utf-8"?>
<!-- Generator: Adobe Illustrator 16.0.0, SVG Export Plug-In . SVG Version: 6.00 Build 0)  -->
<!DOCTYPE svg PUBLIC "-//W3C//DTD SVG 1.0//EN" "http://www.w3.org/TR/2001/REC-SVG-20010904/DTD/svg10.dtd">
<svg version="1.0" id="Layer_1" xmlns="http://www.w3.org/2000/svg" xmlns:xlink="http://www.w3.org/1999/xlink" x="0px" y="0px"
	 width="40px" height="40px" viewBox="0 0 40 40" enable-background="new 0 0 40 40" xml:space="preserve">
<path fill="#FF9000" d="M20,0C8.973,0,0,8.972,0,19.999C0,31.028,8.973,40,20,40c11.029,0,20-8.972,20-20.001
	C40,8.972,31.029,0,20,0L20,0z"/>
<ellipse transform="matrix(0.9659 -0.2588 0.2588 0.9659 -1.5818 6.807)" fill="#FFFFFF" cx="25.066" cy="9.412" rx="1.857" ry="2.053"/>
<g>
	<path fill="#FFFFFF" d="M27.456,12.631c-0.358-0.357-0.852-0.578-1.396-0.578s-1.038,0.22-1.396,0.578
		c-0.357,0.358-0.579,0.852-0.579,1.397l0.354,6.745l-0.354,9.753h0.979L25.1,31.08l-2.312,0.341v1.08h5.245v-9.486
		c-0.208,0.12-0.448,0.191-0.706,0.191c-0.777,0-1.409-0.634-1.409-1.411V15h0.705v6.795c0,0.389,0.315,0.704,0.704,0.704
		c0.391,0,0.706-0.315,0.706-0.704V15v-0.972C28.033,13.483,27.812,12.989,27.456,12.631z"/>
	<path fill="#FFFFFF" d="M19.98,18.655c-0.023-0.063-0.054-0.123-0.091-0.179c-0.016-0.022-0.03-0.046-0.047-0.067
		c-0.056-0.065-0.12-0.124-0.194-0.168c-0.003-0.002-0.004-0.004-0.007-0.006v0c-0.09-0.053-0.192-0.09-0.303-0.103l-3.554-0.533
		l0.188-3.57c0-0.545-0.222-1.039-0.579-1.397c-0.357-0.357-0.852-0.578-1.396-0.578c-0.545,0-1.039,0.22-1.396,0.578
		c-0.356,0.358-0.578,0.852-0.578,1.397v18.473h5.247v-1.08l-2.311-0.341l0.591-9.026l0.108-2.06L14.056,19.8
		c-0.396-0.048-0.751-0.249-1-0.563c-0.242-0.31-0.354-0.712-0.309-1.105L13.128,15h0.71l-0.39,3.217
		c-0.026,0.208,0.034,0.419,0.163,0.584c0.13,0.166,0.32,0.273,0.529,0.298l5.004,0.607c0.071,0.01,0.142,0.008,0.208-0.002
		c0.347-0.049,0.632-0.325,0.676-0.689c0.012-0.098,0-0.193-0.023-0.284C19.999,18.705,19.989,18.681,19.98,18.655z"/>
	<path fill="#FFFFFF" d="M23.571,17.704l-2.851,0.428c-0.064,0.008-0.119,0.037-0.177,0.059c0.155,0.275,0.222,0.59,0.184,0.909
		c-0.024,0.201-0.099,0.383-0.194,0.552c0.056,0.021,0.11,0.045,0.17,0.053c0.066,0.01,0.137,0.012,0.207,0.002l2.75-0.333
		L23.571,17.704z"/>
	
		<ellipse transform="matrix(-0.2591 0.9659 -0.9659 -0.2591 27.9627 -2.6278)" fill="#FFFFFF" cx="14.989" cy="9.411" rx="2.054" ry="1.857"/>
	<path fill="#FFFFFF" d="M23.272,9.893c0.293,1.096,1.334,1.769,2.325,1.503c0.99-0.264,1.555-1.368,1.262-2.464
		c-0.107-0.402-0.315-0.745-0.584-1.008l-0.356-1.329l-3,0.805l0.356,1.329C23.173,9.089,23.165,9.491,23.272,9.893z"/>
</g>
<path fill="#FFAC40" d="M20,1c10.477,0,19,8.524,19,19c0,10.477-8.523,19-19,19C9.523,39,1,30.477,1,20C1,9.524,9.523,1,20,1 M20,0
	C8.954,0,0,8.955,0,20c0,11.044,8.954,20,20,20s20-8.955,20-20S31.046,0,20,0L20,0z"/>
</svg>
