<?xml version="1.0" encoding="utf-8"?>
<!-- Generator: Adobe Illustrator 16.0.0, SVG Export Plug-In . SVG Version: 6.00 Build 0)  -->
<!DOCTYPE svg PUBLIC "-//W3C//DTD SVG 1.0//EN" "http://www.w3.org/TR/2001/REC-SVG-20010904/DTD/svg10.dtd">
<svg version="1.0" id="Layer_1" xmlns="http://www.w3.org/2000/svg" xmlns:xlink="http://www.w3.org/1999/xlink" x="0px" y="0px"
	 width="40px" height="40px" viewBox="0 0 40 40" enable-background="new 0 0 40 40" xml:space="preserve">
<path fill="#FF9000" d="M19.999,0C8.971,0,0,8.972,0,19.998C0,31.028,8.971,40,19.999,40S40,31.028,40,19.998
	C40,8.972,31.027,0,19.999,0L19.999,0z"/>
<g>
	<path fill="#FFFFFF" d="M20.718,15.864c0.477,0.241,0.907,0.502,1.294,0.782c1.074-0.902,1.649-1.961,1.649-3.088l0,0V12.5h-1.409
		v0.881h-4.45V12.5h-1.409v1.057c0,1.617,1.179,3.096,3.318,4.166c1.522,0.759,2.432,1.747,2.53,2.726h-4.424
		c0.036-0.354,0.175-0.709,0.416-1.057h2.675c-0.119-0.117-0.253-0.236-0.401-0.353h-1.991c0.226-0.246,0.497-0.489,0.82-0.718
		c-0.477-0.244-0.908-0.505-1.296-0.785c-1.072,0.902-1.647,1.964-1.647,3.092c0,1.616,1.179,3.093,3.318,4.166v-0.003
		c1.522,0.762,2.432,1.746,2.53,2.728h-4.424c0.036-0.354,0.175-0.712,0.416-1.057h2.675c-0.119-0.119-0.253-0.235-0.401-0.352
		h-1.991c0.226-0.25,0.496-0.49,0.82-0.721c-0.477-0.241-0.908-0.503-1.296-0.783c-1.072,0.902-1.647,1.962-1.647,3.089v1.06h1.409
		v-0.883h4.45v0.883h1.409v-1.06l0,0c0-1.616-1.179-3.097-3.319-4.163l0,0c-1.523-0.762-2.433-1.746-2.528-2.729h4.423
		c-0.036,0.354-0.177,0.71-0.416,1.057h-2.675c0.119,0.119,0.251,0.236,0.401,0.353h1.99c-0.226,0.249-0.497,0.489-0.819,0.72
		c0.477,0.242,0.907,0.504,1.296,0.783c1.072-0.902,1.647-1.961,1.647-3.088c0-1.617-1.179-3.097-3.319-4.167
		c-1.523-0.762-2.433-1.746-2.528-2.728h4.423c-0.036,0.355-0.177,0.712-0.416,1.057h-2.675c0.119,0.119,0.251,0.238,0.401,0.353
		h1.99C21.312,15.392,21.04,15.636,20.718,15.864z"/>
	<path fill="#FFFFFF" d="M12.525,9.117c-0.814,0-1.328-0.217-1.539-0.368c0.211-0.148,0.725-0.368,1.539-0.368h17.5V7.5h-17.5
		c-1.381,0-2.5,0.56-2.5,1.249v22.502c0,0.692,1.119,1.251,2.5,1.251h17.5V10V9.117H12.525z M28.616,31.09H12.525
		c-0.508,0-0.885-0.104-1.091-0.193V9.87C11.766,9.951,12.132,10,12.525,10h16.091V31.09z"/>
</g>
<path fill="#FFAC40" d="M20,1c10.477,0,19,8.524,19,19c0,10.477-8.523,19-19,19C9.523,39,1,30.477,1,20C1,9.524,9.523,1,20,1 M20,0
	C8.954,0,0,8.955,0,20c0,11.044,8.954,20,20,20s20-8.955,20-20S31.046,0,20,0L20,0z"/>
</svg>
