<?xml version="1.0" encoding="utf-8"?>
<!-- Generator: Adobe Illustrator 16.0.0, SVG Export Plug-In . SVG Version: 6.00 Build 0)  -->
<!DOCTYPE svg PUBLIC "-//W3C//DTD SVG 1.1//EN" "http://www.w3.org/Graphics/SVG/1.1/DTD/svg11.dtd">
<svg version="1.1" id="Layer_1" xmlns="http://www.w3.org/2000/svg" xmlns:xlink="http://www.w3.org/1999/xlink" x="0px" y="0px"
	 width="40px" height="40px" viewBox="0 0 40 40" enable-background="new 0 0 40 40" xml:space="preserve">
<circle fill="#FDC300" cx="19.998" cy="20" r="15"/>
<g>
	<path fill="#D60006" d="M29.854,26.838C31.203,24.896,32,22.543,32,20c0-2.543-0.796-4.896-2.145-6.837
		c-0.001-0.001-0.001-0.001-0.002-0.003l0,0C27.686,10.044,24.084,8,20,8s-7.686,2.044-9.854,5.16l0,0
		c-0.001,0.002-0.001,0.002-0.002,0.003C8.796,15.104,8,17.458,8,20c0,2.542,0.797,4.896,2.146,6.837c0.001,0,0.001,0,0.001,0v0.002
		c1.116,1.604,2.613,2.92,4.362,3.822c0.002,0.002,0.004,0.002,0.006,0.004l0,0C16.16,31.514,18.021,32,20,32
		s3.84-0.486,5.485-1.334l0,0c0.002-0.002,0.004-0.004,0.006-0.004c1.748-0.902,3.246-2.219,4.362-3.822l0,0
		C29.854,26.84,29.854,26.838,29.854,26.838z M16.526,27.805c0.009-0.004,0.016-0.01,0.024-0.014
		c-0.441-0.969-0.795-2.098-1.057-3.295c1.29-0.283,2.657-0.445,4.006-0.479v3.012C18.438,27.096,17.435,27.363,16.526,27.805z
		 M23.473,12.198c-0.008,0.004-0.016,0.009-0.023,0.013c0.441,0.968,0.795,2.098,1.057,3.294c-1.29,0.283-2.657,0.445-4.006,0.479
		v-3.012C21.561,12.905,22.564,12.639,23.473,12.198z M25.987,19.5c-0.022-1.125-0.122-2.209-0.29-3.232
		c1.518-0.412,2.844-0.979,3.877-1.664c0.826,1.459,1.32,3.123,1.4,4.896H25.987z M24.987,19.5H20.5v-2.518
		c1.484-0.03,2.905-0.186,4.201-0.463C24.865,17.5,24.962,18.504,24.987,19.5z M19.5,15.983c-1.349-0.033-2.716-0.195-4.006-0.479
		c0.262-1.196,0.615-2.326,1.057-3.294c-0.008-0.004-0.016-0.009-0.023-0.013c0.908,0.441,1.912,0.707,2.973,0.773V15.983z
		 M19.5,16.983V19.5h-4.487c0.025-0.996,0.122-2.001,0.286-2.98C16.595,16.797,18.016,16.953,19.5,16.983z M14.013,19.5H9.025
		c0.08-1.773,0.574-3.438,1.4-4.896c1.033,0.686,2.359,1.252,3.877,1.664C14.135,17.292,14.035,18.375,14.013,19.5z M14.013,20.5
		c0.023,1.125,0.122,2.208,0.29,3.232c-1.518,0.412-2.844,0.979-3.877,1.664c-0.826-1.459-1.32-3.123-1.4-4.896H14.013z
		 M15.013,20.5H19.5v2.517c-1.484,0.031-2.905,0.186-4.201,0.463C15.135,22.502,15.038,21.496,15.013,20.5z M20.5,24.018
		c1.349,0.033,2.716,0.195,4.006,0.479c-0.262,1.197-0.615,2.326-1.057,3.295c0.009,0.004,0.016,0.01,0.024,0.014
		c-0.908-0.441-1.912-0.709-2.974-0.775V24.018z M20.5,23.018V20.5h4.487c-0.025,0.996-0.122,2.001-0.286,2.98
		C23.405,23.203,21.984,23.049,20.5,23.018z M25.987,20.5h4.987c-0.08,1.773-0.574,3.437-1.4,4.896
		c-1.033-0.686-2.359-1.252-3.877-1.664C25.865,22.709,25.964,21.625,25.987,20.5z M29.052,13.765
		c-0.947,0.614-2.178,1.12-3.545,1.497c-0.285-1.319-0.683-2.52-1.172-3.544c-0.045,0.029-0.095,0.05-0.141,0.078
		c0.545-0.339,1.048-0.737,1.495-1.192C27.02,11.413,28.169,12.487,29.052,13.765z M24.767,10.102C23.516,11.274,21.845,12,20,12
		s-3.516-0.727-4.767-1.898C16.678,9.404,18.291,9,20,9S23.322,9.404,24.767,10.102z M14.311,10.604
		c0.447,0.455,0.95,0.854,1.495,1.192c-0.046-0.028-0.096-0.049-0.141-0.078c-0.489,1.024-0.887,2.225-1.172,3.544
		c-1.367-0.377-2.598-0.883-3.545-1.497C11.831,12.487,12.98,11.413,14.311,10.604z M10.948,26.236
		c0.947-0.615,2.178-1.121,3.545-1.498c0.285,1.32,0.683,2.52,1.172,3.545c0.047-0.031,0.1-0.053,0.147-0.082
		c-0.547,0.338-1.053,0.738-1.502,1.195C12.98,28.588,11.831,27.514,10.948,26.236z M15.233,29.898C16.484,28.729,18.156,28,20,28
		s3.516,0.729,4.767,1.898C23.322,30.598,21.709,31,20,31S16.678,30.598,15.233,29.898z M25.689,29.396
		c-0.449-0.457-0.955-0.857-1.502-1.195c0.048,0.029,0.101,0.051,0.147,0.082c0.489-1.025,0.887-2.225,1.172-3.545
		c1.367,0.377,2.598,0.883,3.545,1.498C28.169,27.514,27.02,28.588,25.689,29.396z"/>
</g>
<path fill="#FDC300" d="M20,0c-4.08,0-7.869,1.228-11.032,3.325C8.99,3.346,9.017,3.361,9.039,3.383
	c0.225,0.225,0.407,0.473,0.567,0.731C12.596,2.151,16.164,1,20,1c10.477,0,19,8.523,19,19s-8.523,19-19,19S1,30.477,1,20
	c0-4.558,1.626-8.735,4.312-12.012c0.283,0.144,0.589,0.224,0.899,0.224c0.512,0,1.023-0.195,1.414-0.586
	c0.781-0.781,0.781-2.047,0-2.829c-0.39-0.39-0.902-0.585-1.414-0.585S5.188,4.407,4.797,4.798C4.108,5.486,4.028,6.551,4.554,7.329
	C1.718,10.781,0,15.185,0,20c0,11.046,8.954,20,20,20s20-8.954,20-20S31.046,0,20,0z M5.504,5.505
	c0.189-0.189,0.44-0.293,0.708-0.293s0.518,0.104,0.707,0.292c0.39,0.39,0.39,1.024,0,1.414c-0.189,0.189-0.44,0.293-0.707,0.293
	c-0.267,0-0.518-0.104-0.707-0.293C5.315,6.73,5.211,6.479,5.211,6.212S5.315,5.694,5.504,5.505z"/>
</svg>
