<?xml version="1.0" encoding="utf-8"?>
<!-- Generator: Adobe Illustrator 16.0.0, SVG Export Plug-In . SVG Version: 6.00 Build 0)  -->
<!DOCTYPE svg PUBLIC "-//W3C//DTD SVG 1.0//EN" "http://www.w3.org/TR/2001/REC-SVG-20010904/DTD/svg10.dtd">
<svg version="1.0" id="Layer_1" xmlns="http://www.w3.org/2000/svg" xmlns:xlink="http://www.w3.org/1999/xlink" x="0px" y="0px"
	 width="40px" height="40px" viewBox="0 0 40 40" enable-background="new 0 0 40 40" xml:space="preserve">
<g>
	<path fill="#FF9000" d="M20,0C8.971,0,0,8.972,0,19.999C0,31.028,8.971,40,20,40c11.027,0,20-8.972,20-20.001
		C40,8.972,31.027,0,20,0L20,0z"/>
	<polygon fill="#FFFFFF" points="21.901,30.002 21.901,21.249 16.276,21.249 16.276,23.749 18.153,23.749 18.153,30.002 
		16.276,30.002 16.276,32.502 23.775,32.502 23.775,30.002 	"/>
	<circle fill="#FFFFFF" cx="20.026" cy="17.5" r="2.5"/>
	<path fill="#FFFFFF" d="M20.055,5C15.733,5,11.85,6.838,9.113,9.762l1.134,1.133c2.449-2.637,5.934-4.299,9.808-4.299
		c3.875,0,7.359,1.662,9.809,4.299l1.134-1.134C28.259,6.838,24.376,5,20.055,5z"/>
	<path fill="#FFFFFF" d="M20.055,9.999c-2.941,0-5.577,1.277-7.407,3.298l1.132,1.132c1.542-1.734,3.779-2.834,6.275-2.834
		s4.735,1.1,6.275,2.834l1.132-1.132C25.632,11.276,22.996,9.999,20.055,9.999z"/>
</g>
<path fill="#FFAC40" d="M20,1c10.477,0,19,8.524,19,19c0,10.477-8.523,19-19,19C9.523,39,1,30.477,1,20C1,9.524,9.523,1,20,1 M20,0
	C8.954,0,0,8.955,0,20c0,11.044,8.954,20,20,20s20-8.955,20-20S31.046,0,20,0L20,0z"/>
</svg>
