<?xml version="1.0" encoding="utf-8"?>
<!-- Generator: Adobe Illustrator 16.0.0, SVG Export Plug-In . SVG Version: 6.00 Build 0)  -->
<!DOCTYPE svg PUBLIC "-//W3C//DTD SVG 1.0//EN" "http://www.w3.org/TR/2001/REC-SVG-20010904/DTD/svg10.dtd">
<svg version="1.0" id="Layer_1" xmlns="http://www.w3.org/2000/svg" xmlns:xlink="http://www.w3.org/1999/xlink" x="0px" y="0px"
	 width="120px" height="120px" viewBox="0 0 120 120" enable-background="new 0 0 120 120" xml:space="preserve">
<g>
	<g>
		<g>
			<path fill="#28282B" d="M64.98,90h-12V78h12V90z"/>
			<path fill="#28282B" d="M68.238,59.162C64.98,60.779,64.98,68.73,64.98,72h-12c-0.135-2.912-0.469-14.941,4.676-18
				c2.068-1.201,6.217-6.035,6.217-9.24c0-2.35-1.406-3.627-3.873-3.627c-3.211,0-4.717,2.145-4.453,5.285H42.691
				c0.27-4.488,0.727-8.203,3.662-11.613C49.307,31.318,53.848,30,60.398,30c13.038,0,17.889,7.348,18.293,13.676
				C78.691,52.43,72.797,56.906,68.238,59.162z"/>
		</g>
	</g>
	<path fill="#FDC300" d="M60,0C48.645,0,38.02,3.169,28.957,8.673c0.469,0.521,0.885,1.088,1.246,1.696
		C38.906,5.132,49.1,2.116,60,2.116c31.971,0,57.885,25.914,57.885,57.884c0,31.969-25.914,57.883-57.885,57.883
		C28.031,117.883,2.113,91.969,2.113,60c0-15.886,6.424-30.252,16.785-40.71c0.652,0.412,1.422,0.655,2.254,0.655
		c2.332,0,4.229-1.898,4.229-4.23s-1.896-4.23-4.229-4.23s-4.232,1.898-4.232,4.23c0,0.746,0.199,1.449,0.541,2.06
		C6.688,28.627,0,43.537,0,60c0,33.086,26.916,60,60,60c33.082,0,60-26.914,60-60C120,26.915,93.082,0,60,0z M21.152,13.601
		c1.166,0,2.115,0.946,2.115,2.114s-0.949,2.116-2.115,2.116c-1.17,0-2.117-0.948-2.117-2.116S19.982,13.601,21.152,13.601z"/>
</g>
</svg>
