<?xml version="1.0" encoding="utf-8"?>
<!-- Generator: Adobe Illustrator 16.0.0, SVG Export Plug-In . SVG Version: 6.00 Build 0)  -->
<!DOCTYPE svg PUBLIC "-//W3C//DTD SVG 1.0//EN" "http://www.w3.org/TR/2001/REC-SVG-20010904/DTD/svg10.dtd">
<svg version="1.0" id="Layer_1" xmlns="http://www.w3.org/2000/svg" xmlns:xlink="http://www.w3.org/1999/xlink" x="0px" y="0px"
	 width="220px" height="108px" viewBox="0 0 220 108" enable-background="new 0 0 220 108" xml:space="preserve">
<g>
	<path fill="#FDC300" d="M96.6,31.733c-0.315-0.062-0.712-0.126-1.079-0.178l1.617-2.351c0.464-0.673,0.681-1.422,0.681-2.351
		c0-0.089-0.002-0.18-0.01-0.269c0.718,0.043,1.376,0.302,1.872,0.747c0.467,0.423,0.731,0.959,0.731,1.512
		c0,0.299-0.048,0.707-0.217,0.906l-2.379,2.27C97.514,31.937,97.064,31.82,96.6,31.733 M94.964,28.044l-2.255,3.226
		c-0.046-0.003-0.097-0.008-0.143-0.008v-5.777c0.302-0.199,0.662-0.307,1.04-0.307c0.997,0,1.812,0.75,1.812,1.676
		C95.418,27.326,95.166,27.798,94.964,28.044 M90.134,31.262c-0.053,0-0.101,0.005-0.145,0.008l-2.291-3.273
		c-0.167-0.199-0.417-0.669-0.417-1.144c0-0.926,0.811-1.676,1.812-1.676c0.374,0,0.735,0.108,1.04,0.307V31.262z M85.558,29.206
		l1.619,2.349c-0.365,0.052-0.762,0.116-1.076,0.178c-0.464,0.087-0.918,0.204-1.22,0.286l-2.337-2.229
		c-0.211-0.24-0.255-0.647-0.255-0.946c0-0.553,0.261-1.089,0.727-1.512c0.5-0.444,1.16-0.703,1.874-0.747
		c-0.006,0.089-0.009,0.179-0.009,0.269C84.881,27.785,85.101,28.533,85.558,29.206 M101.2,25.285
		c-1.169-1.05-2.82-1.529-4.429-1.282c-0.792-0.915-1.934-1.457-3.131-1.466c0.001-0.047,0.012-0.092,0.012-0.141
		c0-1.233-1.003-2.235-2.234-2.235c-1.232,0-2.235,1.002-2.235,2.235c0,0.048,0.012,0.098,0.016,0.147
		c-0.033,0-0.071-0.006-0.104-0.006c-1.213,0-2.369,0.542-3.164,1.466c-1.614-0.244-3.26,0.232-4.433,1.282
		c-1.04,0.931-1.611,2.195-1.611,3.558c0,0.827,0.094,1.873,0.821,2.64l3.712,4.019l0.433-0.221c0.028-0.013,2.854-1.42,6.501-1.42
		c3.657,0,6.494,1.229,6.522,1.243l0.411,0.178l3.701-3.793c0.729-0.771,0.822-1.817,0.822-2.644
		C102.81,27.48,102.24,26.219,101.2,25.285"/>
	<path fill="#6B6B6E" d="M88.987,63.806c-0.502-0.593-1.264-0.89-2.286-0.89c-0.67,0-1.224,0.121-1.665,0.364
		c-0.442,0.244-0.795,0.549-1.061,0.91c-0.266,0.36-0.452,0.74-0.562,1.144c-0.104,0.407-0.171,0.765-0.188,1.082h6.807
		C89.838,65.271,89.488,64.402,88.987,63.806 M84.254,72.467c0.627,0.656,1.533,0.985,2.713,0.985c0.843,0,1.57-0.228,2.182-0.686
		c0.61-0.456,0.979-0.938,1.118-1.447h3.685c-0.591,1.972-1.493,3.384-2.712,4.233c-1.216,0.85-2.692,1.273-4.419,1.273
		c-1.197,0-2.28-0.206-3.243-0.622c-0.961-0.411-1.779-1.002-2.446-1.765c-0.67-0.766-1.184-1.678-1.549-2.739
		c-0.363-1.059-0.547-2.226-0.547-3.5c0-1.23,0.188-2.374,0.562-3.437c0.374-1.063,0.906-1.979,1.592-2.757
		c0.688-0.773,1.507-1.385,2.462-1.83c0.952-0.443,2.008-0.667,3.169-0.667c1.295,0,2.425,0.27,3.391,0.811
		c0.96,0.543,1.753,1.269,2.372,2.183c0.617,0.912,1.065,1.95,1.342,3.118c0.275,1.167,0.37,2.389,0.294,3.659H83.225
		C83.282,70.745,83.625,71.807,84.254,72.467"/>
	<rect x="96.812" y="53.684" fill="#6B6B6E" width="4.188" height="22.729"/>
	<path fill="#6B6B6E" d="M111.58,62.916c-0.668,0-1.23,0.161-1.68,0.492c-0.455,0.33-0.821,0.751-1.105,1.273
		c-0.285,0.523-0.486,1.095-0.607,1.719c-0.119,0.625-0.173,1.248-0.173,1.862c0,0.596,0.054,1.2,0.173,1.815
		c0.121,0.614,0.313,1.173,0.578,1.669c0.264,0.5,0.625,0.909,1.075,1.227c0.452,0.317,1.001,0.479,1.651,0.479
		c1.003,0,1.774-0.302,2.312-0.906c0.542-0.606,0.881-1.417,1.017-2.438h4.04c-0.275,2.188-1.063,3.854-2.362,4.998
		c-1.294,1.146-2.954,1.72-4.979,1.72c-1.139,0-2.186-0.206-3.138-0.621c-0.953-0.412-1.766-0.993-2.433-1.735
		c-0.667-0.741-1.188-1.627-1.562-2.658c-0.372-1.028-0.56-2.158-0.56-3.388c0-1.274,0.171-2.46,0.516-3.551
		c0.345-1.095,0.851-2.038,1.519-2.835c0.668-0.792,1.484-1.413,2.447-1.861c0.963-0.443,2.061-0.667,3.302-0.667
		c0.902,0,1.773,0.124,2.607,0.383c0.835,0.253,1.58,0.641,2.24,1.16c0.659,0.519,1.192,1.17,1.607,1.94
		c0.411,0.777,0.648,1.697,0.706,2.757h-4.098C114.399,63.857,113.367,62.916,111.58,62.916"/>
	<path fill="#6B6B6E" d="M130.178,68.486c-0.519,0.185-1.339,0.406-2.461,0.67c-1.124,0.256-1.856,0.509-2.203,0.759
		c-0.528,0.403-0.791,0.917-0.791,1.538c0,0.615,0.21,1.141,0.633,1.587c0.42,0.444,0.959,0.665,1.613,0.665
		c0.728,0,1.422-0.259,2.087-0.774c0.489-0.393,0.809-0.876,0.962-1.445c0.105-0.374,0.16-1.082,0.16-2.129V68.486z M124.765,64.943
		l-3.67-0.718c0.415-1.596,1.123-2.778,2.131-3.543c1.01-0.767,2.504-1.151,4.491-1.151c1.806,0,3.145,0.229,4.031,0.693
		c0.881,0.463,1.502,1.048,1.863,1.755c0.359,0.71,0.536,2.013,0.536,3.908l-0.04,5.1c0,1.45,0.063,2.522,0.193,3.208
		c0.129,0.692,0.371,1.429,0.729,2.217h-4.003c-0.107-0.289-0.235-0.721-0.389-1.288c-0.067-0.263-0.114-0.433-0.144-0.516
		c-0.689,0.727-1.429,1.271-2.219,1.634c-0.785,0.361-1.626,0.544-2.518,0.544c-1.57,0-2.812-0.46-3.719-1.386
		c-0.908-0.922-1.363-2.086-1.363-3.495c0-0.935,0.207-1.763,0.621-2.495c0.41-0.73,0.988-1.291,1.735-1.679
		c0.743-0.388,1.815-0.727,3.215-1.02c1.89-0.383,3.199-0.74,3.931-1.072v-0.435c0-0.839-0.194-1.437-0.575-1.794
		c-0.382-0.358-1.11-0.538-2.174-0.538c-0.72,0-1.279,0.154-1.687,0.459C125.338,63.637,125.015,64.174,124.765,64.943"/>
	<path fill="#6B6B6E" d="M152.04,76.412h-4.042v-8.423c0-1.784-0.089-2.938-0.264-3.462c-0.172-0.521-0.455-0.93-0.84-1.218
		c-0.388-0.29-0.855-0.437-1.401-0.437c-0.702,0-1.33,0.209-1.89,0.624c-0.555,0.415-0.934,0.962-1.142,1.645
		c-0.205,0.686-0.311,1.951-0.311,3.794v7.477h-4.044V59.905h3.755v2.425c1.335-1.866,3.015-2.799,5.04-2.799
		c0.891,0,1.707,0.174,2.445,0.521c0.738,0.346,1.299,0.79,1.676,1.33c0.381,0.538,0.645,1.149,0.796,1.836
		c0.145,0.681,0.221,1.66,0.221,2.935V76.412z"/>
	<path fill="#6B6B6E" d="M158.368,68.16c0,1.637,0.361,2.891,1.084,3.761c0.718,0.87,1.604,1.304,2.66,1.304
		c1.056,0,1.94-0.434,2.654-1.304c0.718-0.87,1.074-2.139,1.074-3.794c0-1.615-0.356-2.859-1.074-3.728
		c-0.714-0.874-1.599-1.309-2.654-1.309c-1.057,0-1.942,0.435-2.66,1.309C158.729,65.268,158.368,66.521,158.368,68.16
		 M154.225,67.923c0-1.448,0.332-2.854,0.993-4.209c0.662-1.358,1.6-2.395,2.816-3.11c1.213-0.713,2.569-1.072,4.064-1.072
		c2.314,0,4.208,0.812,5.688,2.434c1.476,1.624,2.216,3.67,2.216,6.146c0,2.499-0.746,4.569-2.24,6.211
		c-1.492,1.643-3.368,2.465-5.634,2.465c-1.403,0-2.738-0.343-4.008-1.025c-1.273-0.685-2.24-1.686-2.902-3.008
		C154.557,71.432,154.225,69.822,154.225,67.923"/>
	<path fill="#6B6B6E" d="M83.484,45.552c0.231,0,0.452-0.032,0.658-0.1c0.211-0.068,0.392-0.166,0.546-0.297
		c0.158-0.127,0.283-0.282,0.376-0.465c0.092-0.183,0.139-0.391,0.139-0.628c0-0.472-0.141-0.844-0.424-1.117
		c-0.282-0.271-0.716-0.406-1.295-0.406h-2.835v3.012H83.484z M83.541,41.917c0.326,0,0.639,0.039,0.931,0.119
		c0.296,0.076,0.553,0.196,0.772,0.357c0.218,0.162,0.393,0.367,0.525,0.623c0.128,0.253,0.194,0.553,0.194,0.897
		c0,0.486-0.128,0.908-0.392,1.267c-0.259,0.357-0.645,0.584-1.16,0.685v0.021c0.261,0.038,0.479,0.103,0.648,0.197
		c0.174,0.1,0.311,0.221,0.421,0.373c0.104,0.147,0.184,0.322,0.234,0.52c0.047,0.195,0.382,2.508,0.461,2.602h-0.836
		c-0.045-0.072-0.249-1.732-0.285-2c-0.033-0.268-0.105-0.509-0.212-0.72c-0.108-0.211-0.266-0.383-0.468-0.511
		c-0.204-0.127-0.487-0.185-0.844-0.17h-2.88v3.402h-0.76v-7.661H83.541z"/>
	<polygon fill="#6B6B6E" points="93.348,41.917 93.348,42.54 88.6,42.54 88.6,45.308 93.046,45.308 93.046,45.931 88.6,45.931 
		88.6,48.957 93.404,48.957 93.404,49.578 87.841,49.578 87.841,41.917 	"/>
	<path fill="#6B6B6E" d="M99.237,46.573l-1.542-3.926l-1.598,3.926H99.237z M98.149,41.917l3.128,7.661h-0.813l-0.972-2.385h-3.63
		l-0.963,2.385h-0.803l3.206-7.661H98.149z"/>
	<polygon fill="#6B6B6E" points="103.269,41.917 103.269,48.957 107.733,48.957 107.733,49.578 102.507,49.578 102.507,41.917 	"/>
	<rect x="112.674" y="41.917" fill="#6B6B6E" width="0.756" height="7.661"/>
	<polygon fill="#6B6B6E" points="116.437,41.917 121.082,48.399 121.105,48.399 121.105,41.917 121.862,41.917 121.862,49.578 
		121.018,49.578 116.368,43.098 116.348,43.098 116.348,49.578 115.586,49.578 115.586,41.917 	"/>
	<path fill="#6B6B6E" d="M124.511,48.042c0.135,0.265,0.317,0.476,0.555,0.633c0.236,0.156,0.511,0.271,0.833,0.338
		c0.318,0.069,0.663,0.102,1.025,0.102c0.209,0,0.435-0.028,0.683-0.085c0.245-0.058,0.474-0.149,0.686-0.274
		c0.213-0.126,0.393-0.287,0.531-0.483c0.142-0.196,0.213-0.435,0.213-0.712c0-0.215-0.05-0.402-0.151-0.558
		c-0.102-0.159-0.23-0.291-0.391-0.401c-0.159-0.105-0.334-0.195-0.531-0.26c-0.192-0.069-0.383-0.124-0.568-0.167l-1.775-0.417
		c-0.231-0.061-0.457-0.13-0.675-0.215c-0.222-0.087-0.413-0.201-0.578-0.345c-0.167-0.143-0.294-0.319-0.397-0.528
		c-0.1-0.205-0.149-0.46-0.149-0.76c0-0.186,0.037-0.405,0.113-0.653c0.074-0.251,0.213-0.488,0.416-0.708
		c0.206-0.224,0.487-0.41,0.845-0.565c0.355-0.152,0.813-0.229,1.373-0.229c0.396,0,0.772,0.048,1.13,0.151
		c0.356,0.1,0.669,0.25,0.938,0.448c0.268,0.202,0.48,0.45,0.644,0.746c0.158,0.298,0.24,0.646,0.24,1.036h-0.759
		c-0.018-0.293-0.086-0.549-0.209-0.767c-0.123-0.217-0.281-0.401-0.48-0.547c-0.197-0.146-0.426-0.257-0.681-0.333
		c-0.26-0.074-0.528-0.112-0.81-0.112c-0.259,0-0.514,0.024-0.754,0.078c-0.243,0.056-0.454,0.143-0.637,0.26
		c-0.185,0.118-0.331,0.273-0.441,0.466s-0.169,0.433-0.169,0.719c0,0.179,0.033,0.334,0.095,0.466
		c0.063,0.132,0.153,0.247,0.264,0.337c0.112,0.095,0.24,0.171,0.384,0.227c0.146,0.056,0.301,0.104,0.462,0.14l1.945,0.463
		c0.285,0.068,0.548,0.159,0.799,0.264c0.25,0.101,0.471,0.229,0.659,0.385c0.191,0.152,0.34,0.34,0.445,0.56
		c0.112,0.222,0.166,0.49,0.166,0.808c0,0.084-0.011,0.202-0.027,0.343c-0.019,0.143-0.067,0.296-0.139,0.457
		c-0.067,0.158-0.17,0.323-0.302,0.487c-0.128,0.166-0.308,0.313-0.532,0.445c-0.229,0.133-0.51,0.241-0.847,0.322
		c-0.333,0.083-0.734,0.125-1.204,0.125c-0.467,0-0.904-0.054-1.307-0.156c-0.403-0.105-0.743-0.265-1.028-0.479
		c-0.283-0.212-0.499-0.489-0.654-0.822c-0.153-0.34-0.215-0.744-0.194-1.214h0.76C124.313,47.452,124.379,47.779,124.511,48.042"/>
	<polygon fill="#6B6B6E" points="136.964,41.917 136.964,42.54 134.186,42.54 134.186,49.578 133.425,49.578 133.425,42.54 
		130.656,42.54 130.656,41.917 	"/>
	<rect x="138.276" y="41.917" fill="#6B6B6E" width="0.757" height="7.661"/>
	<polygon fill="#6B6B6E" points="146.661,41.917 146.661,42.54 143.879,42.54 143.879,49.578 143.121,49.578 143.121,42.54 
		140.35,42.54 140.35,41.917 	"/>
	<path fill="#6B6B6E" d="M148.595,41.917v4.74c0,0.446,0.049,0.822,0.157,1.135c0.103,0.311,0.253,0.563,0.458,0.759
		c0.198,0.201,0.446,0.341,0.734,0.43c0.291,0.087,0.621,0.134,0.985,0.134c0.37,0,0.7-0.047,0.993-0.134
		c0.292-0.089,0.534-0.229,0.736-0.43c0.203-0.196,0.354-0.448,0.461-0.759c0.102-0.313,0.152-0.689,0.152-1.135v-4.74h0.762v4.904
		c0,0.391-0.056,0.766-0.175,1.121c-0.114,0.354-0.296,0.663-0.546,0.928c-0.249,0.263-0.569,0.473-0.961,0.627
		c-0.392,0.153-0.864,0.231-1.423,0.231c-0.552,0-1.024-0.078-1.413-0.231c-0.392-0.154-0.712-0.364-0.963-0.627
		c-0.246-0.266-0.43-0.574-0.545-0.928s-0.173-0.729-0.173-1.121v-4.904H148.595z"/>
	<polygon fill="#6B6B6E" points="161.527,41.917 161.527,42.54 158.747,42.54 158.747,49.578 157.988,49.578 157.988,42.54 
		155.218,42.54 155.218,41.917 	"/>
	<path fill="#6B6B6E" d="M163.289,46.976c0.115,0.405,0.294,0.764,0.535,1.084c0.242,0.319,0.555,0.573,0.933,0.768
		c0.38,0.192,0.832,0.288,1.363,0.288c0.527,0,0.979-0.096,1.357-0.288c0.375-0.194,0.684-0.448,0.927-0.768
		c0.242-0.32,0.421-0.679,0.536-1.084c0.115-0.405,0.174-0.814,0.174-1.23c0-0.419-0.059-0.833-0.174-1.232
		c-0.115-0.402-0.294-0.759-0.536-1.079c-0.243-0.317-0.552-0.574-0.927-0.767c-0.378-0.193-0.83-0.29-1.357-0.29
		c-0.531,0-0.983,0.097-1.363,0.29c-0.378,0.192-0.69,0.45-0.933,0.767c-0.241,0.32-0.42,0.677-0.535,1.079
		c-0.115,0.4-0.178,0.813-0.178,1.232C163.111,46.162,163.174,46.571,163.289,46.976 M162.589,44.234
		c0.158-0.477,0.393-0.901,0.705-1.271c0.316-0.368,0.706-0.662,1.179-0.879c0.47-0.218,1.023-0.327,1.647-0.327
		s1.173,0.109,1.642,0.327c0.469,0.217,0.861,0.511,1.174,0.879c0.312,0.37,0.547,0.794,0.704,1.271
		c0.155,0.478,0.233,0.982,0.233,1.512c0,0.531-0.078,1.035-0.233,1.513c-0.157,0.479-0.392,0.904-0.704,1.267
		c-0.312,0.365-0.705,0.658-1.174,0.875c-0.469,0.22-1.018,0.329-1.642,0.329s-1.178-0.109-1.647-0.329
		c-0.473-0.216-0.862-0.51-1.179-0.875c-0.312-0.363-0.547-0.788-0.705-1.267c-0.158-0.478-0.233-0.981-0.233-1.513
		C162.355,45.216,162.431,44.711,162.589,44.234"/>
	<path fill="#6B6B6E" d="M87.846,87.397c0.117,0.403,0.294,0.766,0.536,1.083c0.242,0.321,0.555,0.572,0.934,0.766
		c0.38,0.195,0.836,0.291,1.364,0.291c0.528,0,0.979-0.096,1.358-0.291c0.376-0.193,0.684-0.444,0.926-0.766
		c0.241-0.317,0.421-0.68,0.535-1.083c0.117-0.405,0.174-0.812,0.174-1.229c0-0.423-0.057-0.833-0.174-1.233
		c-0.114-0.402-0.294-0.762-0.535-1.081c-0.242-0.317-0.55-0.571-0.926-0.763c-0.378-0.193-0.83-0.294-1.358-0.294
		c-0.527,0-0.983,0.101-1.364,0.294c-0.378,0.191-0.691,0.445-0.934,0.763c-0.241,0.319-0.418,0.679-0.536,1.081
		c-0.114,0.4-0.173,0.811-0.173,1.233C87.673,86.585,87.732,86.992,87.846,87.397 M87.148,84.656
		c0.158-0.479,0.39-0.905,0.703-1.271c0.313-0.367,0.707-0.661,1.179-0.88c0.473-0.221,1.022-0.328,1.648-0.328
		c0.625,0,1.173,0.107,1.641,0.328c0.471,0.219,0.861,0.513,1.173,0.88c0.312,0.366,0.549,0.792,0.702,1.271
		c0.16,0.478,0.236,0.983,0.236,1.513c0,0.53-0.076,1.033-0.236,1.509c-0.153,0.485-0.39,0.904-0.702,1.271
		c-0.312,0.365-0.702,0.656-1.173,0.875c-0.468,0.218-1.016,0.325-1.641,0.325c-0.626,0-1.175-0.107-1.648-0.325
		c-0.472-0.219-0.866-0.51-1.179-0.875c-0.313-0.366-0.545-0.785-0.703-1.271c-0.155-0.476-0.235-0.979-0.235-1.509
		C86.914,85.64,86.993,85.134,87.148,84.656"/>
	<polygon fill="#6B6B6E" points="94.711,82.34 95.604,82.34 98.231,85.562 100.845,82.34 101.748,82.34 98.6,86.185 98.6,90 
		97.84,90 97.84,86.185 	"/>
	<path fill="#6B6B6E" d="M105.881,86.998l-1.541-3.931l-1.596,3.931H105.881z M104.797,82.34l3.129,7.66h-0.814l-0.972-2.384h-3.632
		L101.546,90h-0.804l3.208-7.66H104.797z"/>
	<polygon fill="#6B6B6E" points="109.41,82.34 109.41,89.376 113.876,89.376 113.876,90 108.65,90 108.65,82.34 	"/>
	<rect x="117.811" y="82.34" fill="#6B6B6E" width="0.76" height="7.66"/>
	<polygon fill="#6B6B6E" points="121.072,82.34 125.718,88.818 125.742,88.818 125.742,82.34 126.502,82.34 126.502,90 125.652,90 
		121.004,83.517 120.984,83.517 120.984,90 120.225,90 120.225,82.34 	"/>
	<path fill="#6B6B6E" d="M128.644,88.466c0.137,0.265,0.318,0.475,0.555,0.629c0.235,0.161,0.513,0.273,0.83,0.343
		c0.323,0.066,0.664,0.1,1.029,0.1c0.207,0,0.436-0.031,0.68-0.084c0.247-0.06,0.479-0.15,0.688-0.276
		c0.213-0.125,0.39-0.284,0.53-0.48c0.143-0.197,0.21-0.437,0.21-0.716c0-0.213-0.046-0.399-0.147-0.555
		c-0.101-0.16-0.231-0.294-0.394-0.398c-0.158-0.107-0.335-0.195-0.53-0.261c-0.194-0.07-0.382-0.128-0.57-0.169l-1.773-0.419
		c-0.231-0.056-0.457-0.128-0.676-0.213c-0.221-0.086-0.413-0.2-0.575-0.343c-0.165-0.146-0.298-0.32-0.396-0.528
		s-0.153-0.461-0.153-0.761c0-0.188,0.041-0.402,0.113-0.654c0.073-0.252,0.216-0.486,0.421-0.708
		c0.205-0.221,0.486-0.409,0.84-0.563c0.357-0.152,0.816-0.231,1.376-0.231c0.396,0,0.771,0.052,1.127,0.149
		c0.358,0.102,0.672,0.251,0.941,0.451c0.267,0.201,0.481,0.447,0.639,0.747c0.162,0.297,0.24,0.644,0.24,1.038h-0.756
		c-0.02-0.295-0.085-0.553-0.207-0.772c-0.124-0.217-0.285-0.399-0.481-0.547c-0.197-0.145-0.425-0.256-0.681-0.331
		c-0.258-0.075-0.528-0.114-0.811-0.114c-0.261,0-0.512,0.029-0.753,0.083c-0.244,0.052-0.456,0.14-0.641,0.257
		c-0.18,0.119-0.326,0.273-0.44,0.466c-0.109,0.194-0.165,0.434-0.165,0.72c0,0.178,0.031,0.334,0.094,0.469
		c0.063,0.13,0.149,0.243,0.264,0.334c0.109,0.095,0.238,0.169,0.383,0.226c0.148,0.059,0.303,0.106,0.465,0.143l1.944,0.46
		c0.284,0.07,0.549,0.161,0.797,0.263c0.251,0.104,0.472,0.231,0.659,0.387c0.19,0.154,0.34,0.34,0.448,0.563
		c0.107,0.221,0.16,0.492,0.16,0.807c0,0.083-0.009,0.198-0.024,0.34c-0.02,0.142-0.064,0.298-0.136,0.458
		c-0.07,0.161-0.171,0.322-0.303,0.488c-0.13,0.162-0.307,0.312-0.536,0.445c-0.225,0.131-0.508,0.24-0.84,0.322
		c-0.337,0.081-0.738,0.121-1.208,0.121c-0.471,0-0.906-0.054-1.306-0.155c-0.405-0.104-0.746-0.261-1.028-0.478
		c-0.285-0.216-0.504-0.489-0.653-0.824c-0.156-0.336-0.221-0.74-0.199-1.213h0.763C128.447,87.871,128.511,88.202,128.644,88.466"
		/>
	<polygon fill="#6B6B6E" points="140.598,82.34 140.598,82.959 137.817,82.959 137.817,90 137.057,90 137.057,82.959 
		134.286,82.959 134.286,82.34 	"/>
	<rect x="141.4" y="82.34" fill="#6B6B6E" width="0.759" height="7.66"/>
	<polygon fill="#6B6B6E" points="149.287,82.34 149.287,82.959 146.507,82.959 146.507,90 145.744,90 145.744,82.959 
		142.976,82.959 142.976,82.34 	"/>
	<path fill="#6B6B6E" d="M150.72,82.34v4.74c0,0.445,0.049,0.823,0.152,1.132c0.106,0.312,0.256,0.565,0.459,0.762
		c0.202,0.197,0.445,0.34,0.738,0.432c0.291,0.088,0.617,0.132,0.983,0.132c0.372,0,0.702-0.044,0.993-0.132
		c0.291-0.092,0.536-0.234,0.737-0.432c0.201-0.196,0.353-0.449,0.456-0.762c0.104-0.309,0.158-0.687,0.158-1.132v-4.74h0.758v4.902
		c0,0.394-0.059,0.766-0.172,1.122c-0.116,0.351-0.297,0.662-0.548,0.927c-0.248,0.267-0.568,0.474-0.96,0.627
		c-0.391,0.151-0.868,0.23-1.423,0.23c-0.553,0-1.023-0.079-1.415-0.23c-0.39-0.153-0.712-0.36-0.959-0.627
		c-0.252-0.265-0.432-0.576-0.548-0.927c-0.115-0.356-0.174-0.729-0.174-1.122V82.34H150.72z"/>
	<polygon fill="#6B6B6E" points="163.149,82.34 163.149,82.959 160.369,82.959 160.369,90 159.61,90 159.61,82.959 156.837,82.959 
		156.837,82.34 	"/>
	<polygon fill="#6B6B6E" points="169.403,82.34 169.403,82.959 164.656,82.959 164.656,85.729 169.102,85.729 169.102,86.351 
		164.656,86.351 164.656,89.376 169.46,89.376 169.46,90 163.897,90 163.897,82.34 	"/>
	<path fill="#6B6B6E" d="M83.484,85.975c0.231,0,0.452-0.032,0.658-0.103c0.211-0.065,0.392-0.165,0.546-0.292
		c0.158-0.131,0.283-0.286,0.376-0.468c0.092-0.182,0.139-0.392,0.139-0.629c0-0.473-0.141-0.844-0.424-1.117
		c-0.282-0.271-0.716-0.407-1.295-0.407h-2.835v3.016H83.484z M83.541,82.34c0.326,0,0.639,0.038,0.931,0.116
		c0.296,0.078,0.553,0.198,0.772,0.359c0.218,0.163,0.393,0.369,0.525,0.622c0.128,0.255,0.194,0.552,0.194,0.896
		c0,0.485-0.128,0.909-0.392,1.265c-0.259,0.359-0.645,0.589-1.16,0.689v0.02c0.261,0.036,0.479,0.101,0.648,0.201
		c0.174,0.095,0.311,0.217,0.421,0.366c0.104,0.152,0.184,0.327,0.234,0.522c0.047,0.198,0.382,2.51,0.461,2.603h-0.836
		c-0.045-0.072-0.249-1.734-0.285-2.002c-0.033-0.268-0.105-0.507-0.212-0.718c-0.108-0.211-0.266-0.38-0.468-0.511
		c-0.204-0.131-0.487-0.185-0.844-0.172h-2.88V90h-0.76v-7.66H83.541z"/>
	<path fill="#E03127" d="M8.996,60.343c0-16.765,13.587-30.352,30.349-30.352c16.762,0,30.352,13.587,30.352,30.352
		c0,16.758-13.589,30.347-30.352,30.347C22.583,90.689,8.996,77.101,8.996,60.343"/>
	<path fill="#FDC300" d="M44.066,37.237c-2.546-1.425-5.336-2.427-8.292-2.95c-1.535-0.269-3.061-0.398-4.567-0.398
		c-1.466,0-2.914,0.124-4.328,0.367l-1.113-6.074c3.717-0.686,7.585-0.711,11.459-0.031c3.572,0.63,6.962,1.865,10.056,3.599
		L44.066,37.237z M52.136,45.455c1.252,1.792,2.255,3.699,3.007,5.692l-3.181,1.124c-0.646-1.71-1.513-3.35-2.588-4.883
		c-1.819-2.603-4.125-4.738-6.773-6.319l1.706-2.906C47.366,39.982,50.029,42.452,52.136,45.455 M56.364,64.527
		c-0.228,1.283-0.545,2.535-0.957,3.748l-3.179-1.116c0.347-1.034,0.622-2.109,0.816-3.218c0.665-3.751,0.36-7.526-0.847-11.033
		l3.174-1.125C56.773,55.833,57.125,60.193,56.364,64.527 M45.865,81.006c-0.485,0.335-0.975,0.656-1.476,0.959l-1.717-2.909
		c4.204-2.545,7.554-6.464,9.329-11.255l3.183,1.114C53.404,73.776,50.193,77.976,45.865,81.006 M47.584,88.707
		c-6.447,3.759-14.053,5.167-21.713,3.813l-0.05-0.01l1.164-6.555c5.971,0.979,11.967-0.103,17.167-3.064L47.584,88.707z
		 M11.858,76.739l2.581-2.167c3.248,3.781,7.638,6.331,12.585,7.282l-0.589,3.315C20.702,84.079,15.614,81.12,11.858,76.739
		 M10.306,74.735c-2.964-4.229-4.543-9.142-4.622-14.188l3.371-0.039c0.072,4.374,1.444,8.629,4.012,12.296
		c0.299,0.429,0.609,0.844,0.938,1.247l-2.582,2.164C11.034,75.737,10.662,75.243,10.306,74.735 M6.076,55.666
		c0.778-4.399,2.641-8.334,5.269-11.583l2.583,2.136c-2.312,2.872-3.875,6.298-4.535,10.03c-0.208,1.194-0.32,2.389-0.342,3.576
		l-3.367,0.043C5.699,58.469,5.829,57.066,6.076,55.666 M27.062,39.01l1.833,10.001c-1.48,0.308-2.893,0.92-4.168,1.812
		c-0.746,0.522-1.414,1.122-2,1.782l-7.839-6.476c1.165-1.355,2.509-2.577,4.013-3.629C21.392,40.756,24.164,39.581,27.062,39.01
		 M42.014,40.73c-2.131-1.187-4.471-2.021-6.944-2.457c-1.301-0.229-2.604-0.343-3.897-0.343c-1.2,0-2.392,0.099-3.565,0.292
		l-0.606-3.304c2.794-0.471,5.71-0.482,8.654,0.038c2.872,0.507,5.588,1.48,8.065,2.865L42.014,40.73z M41.738,55.891
		c-0.32-0.797-0.736-1.563-1.243-2.287c-0.911-1.302-2.062-2.377-3.382-3.18l5.144-8.77c2.565,1.531,4.799,3.605,6.562,6.122
		c1.039,1.488,1.877,3.072,2.504,4.721L41.738,55.891z M41.995,63.575c0.158-0.489,0.282-0.996,0.375-1.516
		c0.332-1.878,0.189-3.767-0.398-5.53l9.583-3.396c1.171,3.4,1.463,7.057,0.823,10.691c-0.188,1.071-0.456,2.113-0.79,3.111
		L41.995,63.575z M37.164,69.723c2.05-1.266,3.694-3.177,4.603-5.506l9.594,3.358c-1.722,4.639-4.962,8.433-9.031,10.894
		L37.164,69.723z M27.694,81.971c5.136,0.831,10.165-0.189,14.394-2.576l1.719,2.912c-5.06,2.878-10.895,3.935-16.705,2.979
		L27.694,81.971z M22.745,67.606c1.615,1.828,3.759,3.074,6.175,3.574l-1.777,10.004c-4.789-0.925-9.036-3.39-12.184-7.049
		L22.745,67.606z M19.9,60.386c0.048,2.207,0.748,4.351,2.046,6.201c0.116,0.169,0.241,0.333,0.367,0.494l-7.789,6.534
		c-0.312-0.39-0.615-0.788-0.904-1.202c-2.487-3.551-3.815-7.674-3.887-11.913L19.9,60.386z M20.069,58.133
		c-0.09,0.525-0.146,1.05-0.167,1.572L9.733,59.823c0.017-1.15,0.127-2.306,0.33-3.455c0.637-3.617,2.15-6.934,4.389-9.715
		l7.839,6.475C21.163,54.568,20.395,56.279,20.069,58.133 M36.575,70.064l5.169,8.747c-4.094,2.304-8.96,3.291-13.932,2.491
		l1.776-10.007C32.073,71.662,34.504,71.177,36.575,70.064 M29.565,48.893l-1.836-10.003c2.364-0.387,4.797-0.376,7.221,0.053
		c2.395,0.419,4.657,1.229,6.72,2.374l-5.146,8.773c-1.033-0.548-2.154-0.934-3.336-1.141c-0.665-0.116-1.329-0.176-1.992-0.176
		C30.648,48.772,30.103,48.813,29.565,48.893 M31.198,49.455c0.621,0,1.248,0.054,1.871,0.161c2.801,0.494,5.242,2.049,6.868,4.379
		c1.635,2.326,2.261,5.15,1.764,7.946c-1.017,5.778-6.548,9.65-12.33,8.633c-2.8-0.491-5.238-2.049-6.87-4.376
		c-1.631-2.328-2.257-5.152-1.764-7.943c0.495-2.805,2.049-5.245,4.378-6.875C26.923,50.112,29.034,49.455,31.198,49.455
		 M26.333,35.041l0.605,3.302c-2.992,0.586-5.856,1.799-8.43,3.602c-1.554,1.088-2.941,2.348-4.147,3.751l-2.586-2.135
		C15.502,39.196,20.638,36.158,26.333,35.041 M61.885,48.845l0.638-0.234c-2.692-7.284-7.827-13.292-14.309-17.11l2.768-4.716
		l-0.588-0.343l-2.768,4.721c-3.164-1.776-6.633-3.037-10.284-3.679c-3.953-0.699-7.903-0.671-11.699,0.028l-1.006-5.481
		l-0.667,0.122l1.005,5.493c-6.969,1.434-13.381,5.144-18.28,10.79l0.512,0.446c4.796-5.528,11.069-9.159,17.891-10.571l1.114,6.063
		c-5.853,1.146-11.133,4.27-14.957,8.755l-2.875-2.372l-0.433,0.525l2.871,2.372c-2.698,3.333-4.616,7.377-5.411,11.894
		c-0.255,1.444-0.389,2.889-0.402,4.325l-0.233,0.005l0.01,0.677l0.223-0.001c0.08,5.184,1.701,10.229,4.744,14.572
		c0.366,0.525,0.752,1.033,1.153,1.526L0,85.801l0.438,0.52l10.899-9.146c3.861,4.506,9.086,7.545,14.98,8.664l-1.988,11.203
		l0.668,0.119l0.708-3.982l0.049,0.01c7.822,1.38,15.595-0.057,22.175-3.897l3.572,6.041l0.582-0.345l-3.566-6.046
		c3.001-1.835,5.739-4.181,8.114-6.989l-0.52-0.437c-2.321,2.75-5.004,5.044-7.943,6.84l-3.428-5.808
		c0.514-0.31,1.017-0.638,1.513-0.985c4.448-3.114,7.75-7.427,9.576-12.423l1.585,0.555l0.225-0.64L56.052,68.5
		c0.416-1.25,0.746-2.534,0.979-3.855c0.784-4.451,0.419-8.928-1.02-13.086l3.886-1.375l-0.227-0.642l-3.891,1.378
		c-0.77-2.049-1.801-4.012-3.089-5.853c-2.163-3.083-4.901-5.617-8.041-7.49l3.219-5.489C54.221,35.825,59.247,41.713,61.885,48.845
		"/>
	<path fill="#FDC300" d="M33.323,56.162c-0.425-0.501-1.072-0.754-1.938-0.754c-0.569,0-1.04,0.104-1.415,0.309
		c-0.374,0.205-0.672,0.467-0.899,0.772c-0.225,0.307-0.383,0.63-0.474,0.971c-0.091,0.344-0.147,0.646-0.165,0.917h5.778
		C34.044,57.406,33.748,56.67,33.323,56.162 M29.309,63.51c0.534,0.556,1.301,0.836,2.3,0.836c0.717,0,1.332-0.193,1.849-0.583
		c0.52-0.387,0.833-0.796,0.951-1.227h3.126c-0.501,1.675-1.269,2.871-2.303,3.592c-1.031,0.719-2.283,1.076-3.746,1.076
		c-1.017,0-1.935-0.171-2.751-0.525c-0.818-0.347-1.511-0.849-2.077-1.499c-0.565-0.645-1.004-1.419-1.312-2.318
		c-0.306-0.9-0.461-1.893-0.461-2.971c0-1.045,0.159-2.016,0.475-2.916c0.317-0.901,0.768-1.678,1.349-2.336
		c0.585-0.656,1.281-1.174,2.09-1.552c0.806-0.378,1.702-0.567,2.688-0.567c1.098,0,2.055,0.23,2.875,0.688
		c0.814,0.46,1.487,1.077,2.012,1.851c0.524,0.775,0.903,1.654,1.135,2.646c0.236,0.989,0.318,2.025,0.252,3.104h-9.327
		C28.485,62.051,28.776,62.952,29.309,63.51"/>
</g>
</svg>
