<?xml version="1.0" encoding="utf-8"?>
<!-- Generator: Adobe Illustrator 16.0.0, SVG Export Plug-In . SVG Version: 6.00 Build 0)  -->
<!DOCTYPE svg PUBLIC "-//W3C//DTD SVG 1.1//EN" "http://www.w3.org/Graphics/SVG/1.1/DTD/svg11.dtd">
<svg version="1.1" id="Layer_1" xmlns="http://www.w3.org/2000/svg" xmlns:xlink="http://www.w3.org/1999/xlink" x="0px" y="0px"
	 width="54px" height="26px" viewBox="0 0 54 26" enable-background="new 0 0 54 26" xml:space="preserve">
<g>
	<path fill="#A2A2AC" d="M13,1C6.373,1,1,6.373,1,13s5.373,12,12,12s12-5.373,12-12S19.627,1,13,1z M15.938,17.57
		c-0.175,0.226-2.207,2.93-5.369,2.93c-0.611,0-0.842-0.338-0.842-0.788c0-0.563,0.463-1.888,1.625-5.016l0.812-2.197
		c0.289-0.759,0.464-1.295,0.464-1.634c0-0.224-0.116-0.338-0.349-0.338c-0.465,0-1.119,0.744-1.525,1.195
		c-0.117,0.111-0.234,0.111-0.348,0l-0.292-0.254C10,11.385,9.939,11.327,10,11.216c0.174-0.17,2.106-2.716,4.66-2.716
		c0.697,0,1.045,0.338,1.045,0.902c0,0.562-0.377,1.605-0.871,2.928l-1.625,4.282c-0.406,1.069-0.521,1.521-0.521,1.804
		c0,0.224,0.115,0.394,0.35,0.394c0.58-0.056,2.088-1.577,2.263-1.802c0.058-0.114,0.175-0.114,0.261-0.029l0.319,0.311
		C15.994,17.4,16.055,17.457,15.938,17.57z M14.5,7C13.671,7,13,6.329,13,5.5C13,4.672,13.671,4,14.5,4S16,4.672,16,5.5
		C16,6.329,15.329,7,14.5,7z"/>
	<circle fill="#A2A2AC" cx="32" cy="14" r="3"/>
	<circle fill="#A2A2AC" cx="41" cy="14" r="3"/>
	<circle fill="#A2A2AC" cx="50" cy="14" r="3"/>
</g>
</svg>
