<?xml version="1.0" encoding="utf-8"?>
<!-- Generator: Adobe Illustrator 16.0.0, SVG Export Plug-In . SVG Version: 6.00 Build 0)  -->
<!DOCTYPE svg PUBLIC "-//W3C//DTD SVG 1.0//EN" "http://www.w3.org/TR/2001/REC-SVG-20010904/DTD/svg10.dtd">
<svg version="1.0" id="Layer_1" xmlns="http://www.w3.org/2000/svg" xmlns:xlink="http://www.w3.org/1999/xlink" x="0px" y="0px"
	 width="54px" height="26px" viewBox="0 0 54 26" enable-background="new 0 0 54 26" xml:space="preserve">
<g>
	<circle fill="#A2A2AC" cx="32" cy="14" r="3"/>
	<circle fill="#A2A2AC" cx="41" cy="14" r="3"/>
	<circle fill="#A2A2AC" cx="50" cy="14" r="3"/>
</g>
<g>
	<g>
		<path fill="#A2A2AC" d="M14.312,20.521c-0.314,0.311-0.752,0.466-1.312,0.466c-0.574,0-1.018-0.152-1.333-0.457
			c-0.315-0.303-0.472-0.732-0.472-1.286c0-0.574,0.154-1.008,0.461-1.302C11.965,17.646,12.412,17.5,13,17.5
			c0.566,0,1.006,0.149,1.318,0.451c0.311,0.302,0.466,0.732,0.466,1.292C14.784,19.782,14.627,20.209,14.312,20.521z
			 M17.696,11.174c-0.341,0.546-0.991,1.161-1.948,1.846c-0.656,0.484-1.072,0.854-1.245,1.107
			c-0.176,0.253-0.263,0.584-0.263,0.994v0.615h-2.717v-0.759c0-0.656,0.141-1.228,0.42-1.712c0.28-0.485,0.793-1.001,1.539-1.549
			c0.717-0.513,1.19-0.929,1.419-1.251c0.229-0.322,0.345-0.68,0.345-1.077c0-0.443-0.164-0.783-0.492-1.015
			s-0.787-0.349-1.375-0.349c-1.025,0-2.193,0.334-3.506,1.005L8.755,6.785c1.524-0.854,3.141-1.282,4.851-1.282
			c1.407,0,2.526,0.339,3.358,1.015c0.829,0.678,1.245,1.58,1.245,2.707C18.209,9.977,18.037,10.627,17.696,11.174z"/>
	</g>
</g>
<path fill="#A2A2AC" d="M13,3c5.514,0,10,4.486,10,10c0,5.514-4.486,10-10,10S3,18.514,3,13C3,7.486,7.486,3,13,3 M13,1
	C6.373,1,1,6.373,1,13c0,6.627,5.373,12,12,12c6.627,0,12-5.373,12-12C25,6.373,19.627,1,13,1L13,1z"/>
</svg>
