<?xml version="1.0" encoding="utf-8"?>
<!-- Generator: Adobe Illustrator 16.0.0, SVG Export Plug-In . SVG Version: 6.00 Build 0)  -->
<!DOCTYPE svg PUBLIC "-//W3C//DTD SVG 1.1//EN" "http://www.w3.org/Graphics/SVG/1.1/DTD/svg11.dtd">
<svg version="1.1" id="Layer_1" xmlns="http://www.w3.org/2000/svg" xmlns:xlink="http://www.w3.org/1999/xlink" x="0px" y="0px"
	 width="40px" height="40px" viewBox="0 0 40 40" enable-background="new 0 0 40 40" xml:space="preserve">
<g>
	<g>
		<path fill="#010101" d="M20,40c8.068,0,15.02-4.782,18.18-11.667H1.819C4.98,35.218,11.93,40,20,40z"/>
		<path fill="#159B48" d="M20,0C11.93,0,4.98,4.782,1.819,11.667H38.18C35.02,4.782,28.068,0,20,0z"/>
		<path fill="#FFFFFF" d="M0,20c0,2.975,0.654,5.798,1.819,8.333H38.18C39.346,25.798,40,22.975,40,20
			c0-2.975-0.654-5.797-1.82-8.333H1.819C0.654,14.203,0,17.025,0,20z"/>
		<path fill="#CE2028" d="M0,20c0,8.068,4.785,15.02,11.666,18.182V1.82C4.785,4.98,0,11.927,0,20z"/>
	</g>
</g>
<path fill="#D0D0D5" d="M39,20c0,2.991-0.714,5.812-1.951,8.333h1.115C39.331,25.794,40,22.978,40,20
	c0-2.978-0.669-5.794-1.836-8.333h-1.115C38.286,14.187,39,17.008,39,20z"/>
</svg>
