<?xml version="1.0" encoding="utf-8"?>
<!-- Generator: Adobe Illustrator 16.0.0, SVG Export Plug-In . SVG Version: 6.00 Build 0)  -->
<!DOCTYPE svg PUBLIC "-//W3C//DTD SVG 1.0//EN" "http://www.w3.org/TR/2001/REC-SVG-20010904/DTD/svg10.dtd">
<svg version="1.0" id="Layer_1" xmlns="http://www.w3.org/2000/svg" xmlns:xlink="http://www.w3.org/1999/xlink" x="0px" y="0px"
	 width="40px" height="40px" viewBox="0 0 40 40" enable-background="new 0 0 40 40" xml:space="preserve">
<g>
	<g>
		<path d="M20,40c11.047,0,20-8.953,20-20H0C0,31.047,8.955,40,20,40z"/>
		<path fill="#CE1126" d="M20,0C8.955,0,0,8.954,0,20h40C40,8.954,31.047,0,20,0z"/>
	</g>
	<g>
		<path id="_x3C_Path_x3E__545_" fill="#F9D616" d="M14.396,14.357h2.534l0.783-2.409l0.783,2.409h2.532l-2.048,1.489l0.782,2.409
			l-2.049-1.488l-2.05,1.488l0.783-2.409L14.396,14.357z"/>
		<path id="_x3C_Path_x3E__544_" fill="#F9D616" d="M24.411,27.954l0.908-1.066l1.587,1.333c0,0,0.825,0.762,1.114,1.232
			c0.425,0.688-0.096,1.543-0.757,1.084c-0.357-0.247-0.372-0.806-0.945-1.336c-0.389-0.361-0.71-0.767-1.799-1.015
			C24.47,28.179,24.411,27.954,24.411,27.954z"/>
		<path fill="#F9D616" d="M27.153,19.583c0.063-0.633,0.063-1.273,0-1.904l-0.744,0.073c-0.057-0.594-0.176-1.17-0.345-1.724
			l0.718-0.218c-0.186-0.609-0.428-1.198-0.728-1.758l-0.672,0.356c-0.278-0.518-0.605-1.004-0.981-1.452l0.594-0.487
			c-0.402-0.495-0.853-0.944-1.345-1.349l-0.496,0.604c-0.452-0.366-0.94-0.69-1.46-0.965l0.373-0.697
			c-0.562-0.301-1.151-0.543-1.762-0.729l-0.228,0.76c-0.534-0.159-1.088-0.273-1.657-0.333l-0.178,1.662
			c3.661,0.386,6.53,3.449,6.53,7.214c0,2.226-1.004,4.218-2.583,5.556l2.045,1.415c0.267-0.256,0.525-0.527,0.76-0.814
			l-0.576-0.474c0.373-0.45,0.7-0.94,0.977-1.461l0.659,0.352c0.3-0.561,0.542-1.151,0.728-1.758l-0.713-0.219
			c0.168-0.553,0.283-1.129,0.34-1.725L27.153,19.583z"/>
		<path fill="#F9D616" d="M19.852,25.518c-0.741,0.257-1.535,0.402-2.365,0.402c-1.753,0-3.338-0.646-4.595-1.682l-1.065,1.299
			c0.45,0.369,0.937,0.691,1.449,0.974l-0.367,0.687c0.56,0.301,1.149,0.545,1.757,0.73l0.224-0.733
			c0.552,0.176,1.125,0.298,1.719,0.361l-0.073,0.742c0.632,0.062,1.271,0.062,1.904,0l-0.073-0.739
			c0.595-0.059,1.171-0.176,1.724-0.344l0.215,0.713c0.305-0.094,0.598-0.2,0.889-0.318l-0.394-1.528L19.852,25.518z"/>
		<path id="_x3C_Path_x3E__543_" fill="#F9D616" d="M24.295,27.808c0,0-4.351-2.653-7.458-4.417
			c-1.901-1.142-4.071-3.109-2.574-6.031c0.666,2.411,10.867,9.466,10.867,9.466L24.295,27.808z"/>
		<g id="_x3C_Path_x3E__542_">
			<path d="M24.28,26.77c-2.691-2.523-6.374-4.019-8.985-7.022l0,0c-0.016-0.016-0.013-0.039,0.004-0.055l0,0
				c0.016-0.011,0.04-0.01,0.053,0.003l0,0c2.593,2.987,6.271,4.482,8.98,7.016l0,0c0.016,0.015,0.016,0.041,0.001,0.056l0,0
				c-0.008,0.008-0.018,0.012-0.027,0.012l0,0C24.297,26.779,24.287,26.775,24.28,26.77L24.28,26.77z"/>
		</g>
		<circle cx="25.79" cy="27.781" r="0.158"/>
		<circle cx="26.66" cy="28.555" r="0.159"/>
		<circle cx="27.471" cy="29.39" r="0.159"/>
	</g>
</g>
</svg>
