<?xml version="1.0" encoding="utf-8"?>
<!-- Generator: Adobe Illustrator 16.0.0, SVG Export Plug-In . SVG Version: 6.00 Build 0)  -->
<!DOCTYPE svg PUBLIC "-//W3C//DTD SVG 1.1//EN" "http://www.w3.org/Graphics/SVG/1.1/DTD/svg11.dtd">
<svg version="1.1" id="Layer_1" xmlns="http://www.w3.org/2000/svg" xmlns:xlink="http://www.w3.org/1999/xlink" x="0px" y="0px"
	 width="40px" height="40px" viewBox="0 0 40 40" enable-background="new 0 0 40 40" xml:space="preserve">
<g>
	<g>
		<path fill="#75AADB" d="M19.999,40c8.069,0,15.021-4.782,18.181-11.667H1.82C4.98,35.218,11.93,40,19.999,40z"/>
		<path fill="#75AADB" d="M19.999,0C11.93,0,4.98,4.785,1.82,11.667h36.36C35.02,4.785,28.068,0,19.999,0z"/>
		<path fill="#FFFFFF" d="M0,20c0,2.977,0.655,5.796,1.82,8.333h36.36C39.346,25.796,40,22.977,40,20
			c0-2.976-0.654-5.794-1.82-8.333H1.82C0.655,14.206,0,17.024,0,20z"/>
		<g>
			<path fill="#84371B" d="M19.916,13.04c0.045-0.059,0.146-0.052,0.176,0.017c0.039,0.091,0.026,0.192,0.036,0.29
				c0.048,1.282,0.091,2.568,0.145,3.855c0.109-0.259,0.107-0.549,0.138-0.818c0.022-0.331,0.11-0.648,0.257-0.941
				c0.124-0.25,0.24-0.518,0.284-0.804c0.032-0.183,0.017-0.374,0.011-0.563c-0.009-0.26,0.072-0.53,0.242-0.735
				c0.064-0.075,0.15-0.144,0.258-0.149c0.053-0.007,0.102,0.047,0.087,0.099c-0.049,0.087-0.129,0.155-0.178,0.246
				c-0.063,0.11-0.081,0.244-0.067,0.374c0.022,0.241,0.059,0.483,0.047,0.729c-0.008,0.286-0.084,0.569-0.211,0.825
				c-0.08,0.154-0.144,0.317-0.178,0.49c-0.084,0.43-0.042,0.867-0.113,1.297c0.551-1.199,1.104-2.397,1.651-3.596
				c0.03-0.064,0.084-0.146,0.172-0.127c0.085,0.029,0.078,0.137,0.052,0.207c-0.465,1.268-0.941,2.531-1.402,3.8
				c0.314-0.338,0.429-0.807,0.721-1.161c0.195-0.254,0.469-0.434,0.678-0.674c0.131-0.146,0.246-0.316,0.321-0.498
				c0.085-0.205,0.142-0.43,0.287-0.607c0.133-0.164,0.306-0.312,0.517-0.347c0.072-0.01,0.199,0.032,0.163,0.127
				c-0.071,0.085-0.192,0.104-0.271,0.183c-0.172,0.138-0.211,0.359-0.273,0.56c-0.091,0.317-0.221,0.633-0.439,0.887
				c-0.147,0.189-0.356,0.321-0.502,0.512c-0.299,0.384-0.424,0.867-0.689,1.273c0.938-0.868,1.876-1.737,2.812-2.606
				c0.068-0.061,0.125-0.137,0.213-0.16c0.068-0.016,0.137,0.053,0.119,0.121c-0.028,0.094-0.109,0.156-0.172,0.226
				c-0.879,0.954-1.765,1.899-2.641,2.854c0.354-0.156,0.605-0.459,0.92-0.672c0.198-0.139,0.426-0.241,0.652-0.313
				c0.295-0.101,0.588-0.225,0.824-0.427c0.189-0.162,0.332-0.382,0.549-0.513c0.187-0.108,0.406-0.186,0.623-0.142
				c0.062,0.015,0.156,0.056,0.145,0.142c-0.016,0.078-0.115,0.061-0.174,0.073c-0.163,0.005-0.321,0.075-0.434,0.195
				c-0.151,0.176-0.287,0.365-0.449,0.531c-0.219,0.218-0.484,0.39-0.777,0.487c-0.175,0.056-0.346,0.131-0.495,0.234
				c-0.362,0.241-0.646,0.585-0.997,0.834c1.234-0.454,2.477-0.918,3.715-1.377c0.068-0.026,0.182-0.034,0.209,0.057
				c0.022,0.073-0.049,0.129-0.108,0.161c-1.226,0.563-2.456,1.123-3.685,1.694c0.332-0.01,0.635-0.143,0.944-0.232
				c0.276-0.082,0.576-0.104,0.869-0.082c0.315,0.025,0.647,0.025,0.954-0.084c0.218-0.068,0.412-0.199,0.638-0.244
				c0.188-0.039,0.386-0.033,0.563,0.032c0.078,0.029,0.162,0.078,0.199,0.156c0.027,0.052,0,0.117-0.051,0.13
				c-0.107-0.013-0.205-0.068-0.312-0.074c-0.129-0.014-0.254,0.027-0.367,0.088c-0.23,0.12-0.452,0.257-0.698,0.338
				c-0.262,0.094-0.543,0.124-0.815,0.102c-0.188-0.017-0.379-0.004-0.562,0.039c-0.41,0.098-0.794,0.296-1.213,0.384
				c0.613,0.003,1.223,0.041,1.831,0.062c0.721,0.025,1.442,0.053,2.161,0.078c0.072,0,0.176,0.029,0.176,0.119
				c0,0.086-0.084,0.115-0.148,0.122c-1.352,0.056-2.703,0.091-4.057,0.153c0.28,0.112,0.592,0.107,0.885,0.142
				c0.303,0.024,0.605,0.114,0.879,0.251c0.273,0.138,0.562,0.263,0.864,0.294c0.269,0.036,0.546-0.031,0.812,0.036
				c0.174,0.039,0.341,0.12,0.472,0.247c0.06,0.059,0.106,0.134,0.108,0.222c0,0.05-0.043,0.099-0.096,0.084
				c-0.102-0.059-0.182-0.153-0.291-0.198c-0.184-0.082-0.392-0.039-0.584-0.02c-0.335,0.039-0.684,0.036-1.006-0.068
				c-0.223-0.067-0.41-0.199-0.638-0.264c-0.472-0.13-0.974-0.07-1.454-0.146c1.171,0.524,2.338,1.071,3.508,1.604
				c0.076,0.04,0.18,0.065,0.223,0.156c0.024,0.104-0.096,0.157-0.184,0.12c-1.277-0.467-2.549-0.949-3.822-1.411
				c0.25,0.228,0.564,0.354,0.857,0.518c0.242,0.138,0.458,0.322,0.645,0.537c0.182,0.21,0.385,0.415,0.625,0.56
				c0.162,0.099,0.34,0.156,0.518,0.226c0.248,0.095,0.471,0.276,0.586,0.521c0.046,0.09,0.07,0.192,0.033,0.282
				c-0.021,0.056-0.107,0.073-0.139,0.019c-0.064-0.094-0.101-0.209-0.189-0.293c-0.139-0.137-0.342-0.17-0.523-0.227
				c-0.316-0.09-0.63-0.22-0.884-0.438c-0.188-0.146-0.319-0.355-0.511-0.502c-0.391-0.303-0.879-0.428-1.289-0.697
				c0.906,0.965,1.8,1.939,2.705,2.904c0.054,0.06,0.117,0.149,0.045,0.223c-0.062,0.062-0.146,0.016-0.201-0.036
				c-0.855-0.792-1.712-1.589-2.562-2.381c-0.136-0.119-0.267-0.249-0.406-0.37c0.148,0.332,0.431,0.58,0.638,0.869
				c0.153,0.209,0.265,0.443,0.345,0.688c0.094,0.271,0.207,0.547,0.383,0.777c0.107,0.141,0.248,0.258,0.381,0.381
				c0.185,0.184,0.31,0.424,0.336,0.684c0.004,0.103-0.004,0.218-0.078,0.293c-0.043,0.041-0.124,0.029-0.135-0.032
				c-0.02-0.116-0.012-0.236-0.062-0.345c-0.076-0.18-0.249-0.287-0.395-0.409c-0.258-0.205-0.494-0.439-0.646-0.73
				c-0.123-0.221-0.166-0.475-0.293-0.686c-0.24-0.414-0.623-0.718-0.9-1.104c0.457,1.24,0.92,2.478,1.377,3.711
				c0.025,0.074,0.033,0.188-0.059,0.211c-0.083,0.023-0.136-0.062-0.166-0.127c-0.509-1.105-1.021-2.218-1.529-3.328
				c-0.055-0.108-0.1-0.225-0.156-0.33c0.008,0.324,0.143,0.629,0.229,0.938c0.079,0.271,0.104,0.56,0.086,0.843
				c-0.022,0.29-0.03,0.586,0.046,0.869c0.047,0.188,0.137,0.352,0.209,0.527c0.105,0.24,0.131,0.529,0.039,0.786
				c-0.031,0.088-0.09,0.183-0.185,0.213c-0.054,0.014-0.116-0.037-0.101-0.091c0.026-0.114,0.078-0.226,0.073-0.342
				c-0.001-0.195-0.12-0.356-0.208-0.524c-0.162-0.289-0.287-0.603-0.316-0.931c-0.026-0.244,0.029-0.488-0.008-0.732
				c-0.058-0.491-0.323-0.928-0.416-1.409c-0.037,1.321-0.1,2.64-0.143,3.965c-0.004,0.081-0.019,0.201-0.119,0.203
				c-0.092,0-0.118-0.091-0.122-0.161c-0.053-1.346-0.098-2.691-0.155-4.039c-0.108,0.262-0.103,0.549-0.137,0.826
				c-0.021,0.322-0.106,0.645-0.253,0.932c-0.138,0.272-0.262,0.557-0.295,0.858c-0.037,0.292,0.045,0.593-0.052,0.876
				c-0.064,0.198-0.169,0.41-0.366,0.505c-0.07,0.039-0.191,0.011-0.169-0.085c0.056-0.101,0.15-0.176,0.194-0.283
				c0.07-0.148,0.049-0.316,0.034-0.476c-0.045-0.354-0.062-0.726,0.043-1.069c0.068-0.255,0.226-0.477,0.289-0.732
				c0.117-0.463,0.06-0.941,0.135-1.406c-0.537,1.201-1.094,2.389-1.639,3.584c-0.03,0.068-0.084,0.166-0.178,0.143
				c-0.089-0.022-0.087-0.133-0.057-0.205c0.464-1.266,0.942-2.531,1.403-3.795c-0.285,0.309-0.404,0.727-0.65,1.062
				c-0.126,0.182-0.286,0.336-0.448,0.479c-0.237,0.205-0.459,0.44-0.592,0.729c-0.104,0.219-0.151,0.463-0.31,0.652
				c-0.12,0.162-0.29,0.309-0.494,0.354c-0.073,0.02-0.201,0.005-0.201-0.098c0.021-0.071,0.108-0.086,0.161-0.125
				c0.157-0.07,0.266-0.223,0.318-0.383c0.099-0.325,0.18-0.662,0.367-0.947c0.131-0.212,0.318-0.379,0.501-0.547
				c0.406-0.392,0.53-0.969,0.837-1.434c-0.941,0.866-1.873,1.74-2.812,2.609c-0.067,0.057-0.129,0.135-0.214,0.158
				c-0.071,0.016-0.14-0.057-0.122-0.121c0.021-0.084,0.092-0.141,0.146-0.201c0.762-0.818,1.521-1.643,2.284-2.461
				c0.127-0.145,0.258-0.271,0.379-0.42c-0.366,0.166-0.628,0.488-0.967,0.706c-0.192,0.129-0.405,0.222-0.627,0.295
				c-0.3,0.099-0.594,0.229-0.827,0.444c-0.166,0.143-0.287,0.324-0.474,0.451c-0.163,0.107-0.355,0.18-0.552,0.184
				c-0.082,0-0.178-0.018-0.24-0.076c-0.04-0.041-0.026-0.129,0.033-0.137c0.118-0.021,0.24-0.017,0.343-0.064
				c0.148-0.059,0.248-0.193,0.348-0.314c0.178-0.223,0.37-0.442,0.603-0.605c0.202-0.146,0.437-0.23,0.665-0.311
				c0.527-0.205,0.86-0.684,1.312-0.998c-1.174,0.427-2.347,0.869-3.521,1.304c-0.098,0.03-0.193,0.086-0.3,0.086
				c-0.067,0.006-0.117-0.069-0.098-0.13c0.022-0.057,0.075-0.085,0.128-0.114c1.218-0.557,2.438-1.119,3.662-1.676
				c-0.404,0-0.771,0.208-1.162,0.272c-0.476,0.104-0.965-0.049-1.438,0.07c-0.271,0.053-0.505,0.219-0.771,0.284
				c-0.236,0.052-0.502,0.049-0.705-0.081c-0.062-0.043-0.142-0.131-0.08-0.207c0.046-0.044,0.117-0.002,0.171,0.008
				c0.133,0.053,0.289,0.062,0.43,0.01c0.173-0.07,0.331-0.179,0.501-0.254c0.255-0.137,0.534-0.221,0.822-0.244
				c0.214-0.014,0.428,0.029,0.642,0c0.504-0.052,0.946-0.317,1.441-0.414c-1.306-0.036-2.61-0.1-3.906-0.143
				c-0.073-0.003-0.155,0-0.223-0.039c-0.054-0.037-0.054-0.131,0-0.167c0.037-0.028,0.091-0.034,0.132-0.038
				c1.343-0.052,2.686-0.098,4.024-0.148c-0.401-0.166-0.854-0.095-1.268-0.212c-0.357-0.082-0.655-0.296-0.999-0.401
				c-0.185-0.061-0.382-0.09-0.572-0.088c-0.209,0.005-0.422,0.032-0.627-0.031c-0.202-0.06-0.41-0.166-0.516-0.353
				c-0.046-0.067-0.034-0.212,0.072-0.194c0.088,0.049,0.155,0.132,0.246,0.179c0.111,0.068,0.246,0.078,0.376,0.068
				c0.25-0.022,0.504-0.062,0.752-0.045c0.278,0.013,0.555,0.081,0.802,0.211c0.16,0.082,0.337,0.146,0.519,0.182
				c0.421,0.071,0.854,0.033,1.277,0.107c-1.196-0.546-2.392-1.096-3.584-1.64c-0.059-0.029-0.126-0.062-0.148-0.124
				c-0.02-0.062,0.032-0.133,0.098-0.13c0.106,0,0.202,0.056,0.3,0.087c1.204,0.443,2.403,0.898,3.608,1.334
				c-0.317-0.296-0.758-0.412-1.097-0.676c-0.168-0.12-0.312-0.27-0.447-0.423c-0.198-0.228-0.419-0.439-0.688-0.572
				c-0.231-0.117-0.503-0.165-0.708-0.336c-0.161-0.13-0.312-0.308-0.345-0.518c-0.012-0.074,0.036-0.201,0.131-0.162
				c0.077,0.078,0.104,0.195,0.175,0.273c0.14,0.169,0.365,0.208,0.563,0.273c0.316,0.088,0.631,0.22,0.887,0.436
				c0.189,0.151,0.322,0.356,0.512,0.503c0.386,0.305,0.876,0.428,1.285,0.698c-0.899-0.957-1.781-1.922-2.677-2.881
				c-0.046-0.049-0.104-0.104-0.106-0.179c0.006-0.07,0.085-0.12,0.149-0.085c0.086,0.038,0.146,0.117,0.219,0.176
				c0.945,0.876,1.888,1.755,2.836,2.627c-0.167-0.366-0.489-0.633-0.704-0.963c-0.128-0.195-0.222-0.41-0.294-0.635
				c-0.101-0.297-0.231-0.593-0.443-0.824c-0.155-0.176-0.354-0.309-0.477-0.508c-0.109-0.176-0.183-0.391-0.156-0.602
				c0.011-0.078,0.053-0.189,0.149-0.18c0.077,0.017,0.06,0.116,0.071,0.173c0.004,0.173,0.086,0.334,0.212,0.446
				c0.241,0.208,0.509,0.391,0.701,0.65c0.165,0.205,0.271,0.453,0.354,0.707c0.194,0.547,0.694,0.89,1.02,1.351
				c-0.455-1.23-0.916-2.461-1.37-3.693c-0.017-0.05-0.036-0.103-0.024-0.157c0.015-0.062,0.102-0.098,0.154-0.056
				c0.074,0.049,0.1,0.146,0.137,0.227c0.543,1.18,1.085,2.358,1.628,3.538c0-0.412-0.22-0.783-0.282-1.184
				c-0.089-0.462,0.05-0.934-0.057-1.39c-0.048-0.271-0.208-0.496-0.28-0.755c-0.062-0.248-0.062-0.537,0.081-0.756
				c0.043-0.071,0.184-0.133,0.218-0.022c-0.009,0.107-0.064,0.207-0.071,0.312c-0.015,0.129,0.031,0.252,0.086,0.361
				c0.123,0.237,0.27,0.469,0.348,0.726c0.086,0.253,0.113,0.524,0.093,0.791c-0.021,0.212,0,0.419,0.053,0.625
				c0.102,0.388,0.291,0.752,0.366,1.149c0.035-1.315,0.097-2.624,0.144-3.936C19.881,13.171,19.878,13.099,19.916,13.04
				L19.916,13.04z"/>
			<path fill="#FBBE4A" d="M19.946,13.174c0.001-0.046,0.009-0.127,0.074-0.107c0.024,0.032,0.034,0.071,0.034,0.107
				c0.049,1.345,0.101,2.686,0.153,4.026c-0.053-0.003-0.098-0.01-0.141-0.013c-0.019-0.605-0.038-1.211-0.064-1.818
				c-0.031,0.607-0.049,1.213-0.069,1.821c-0.046,0.004-0.096,0.007-0.14,0.01C19.843,15.859,19.896,14.519,19.946,13.174
				L19.946,13.174z"/>
			<path fill="#FBBE4A" d="M18.691,13.274c0.022-0.042,0.062-0.064,0.109-0.076c-0.027,0.13-0.085,0.259-0.08,0.402
				c0.009,0.179,0.112,0.335,0.194,0.491c0.154,0.273,0.289,0.566,0.324,0.881c0.04,0.242-0.015,0.488,0.009,0.732
				c0.047,0.525,0.334,0.987,0.432,1.5c-0.05,0.009-0.098,0.015-0.148,0.024c-0.079-0.459-0.327-0.864-0.408-1.323
				c-0.033-0.151-0.019-0.308-0.033-0.46c-0.048,0.205-0.045,0.416,0.007,0.625c0.1,0.394,0.262,0.781,0.287,1.192
				c-0.046,0.009-0.089,0.02-0.131,0.028c-0.025-0.43-0.244-0.819-0.302-1.244c-0.031-0.218-0.024-0.436-0.008-0.654
				c0.021-0.312,0-0.631-0.116-0.928c-0.078-0.201-0.199-0.392-0.228-0.611C18.571,13.659,18.577,13.44,18.691,13.274L18.691,13.274
				z"/>
			<path fill="#FBBE4A" d="M21.371,13.279c0.035-0.024,0.082-0.024,0.126-0.024c-0.077,0.114-0.185,0.212-0.229,0.346
				c-0.065,0.191-0.016,0.396-0.002,0.592c0.037,0.307,0.035,0.625-0.061,0.922c-0.062,0.229-0.201,0.426-0.266,0.657
				c-0.146,0.498-0.067,1.025-0.172,1.53c-0.047-0.017-0.095-0.029-0.141-0.043c0.098-0.438,0.036-0.889,0.113-1.328
				c0.027-0.161,0.095-0.312,0.158-0.465c-0.143,0.159-0.201,0.367-0.233,0.572c-0.058,0.397-0.054,0.801-0.187,1.182
				c-0.043,0.018-0.09-0.006-0.133-0.008c0.11-0.32,0.102-0.666,0.146-1.001c0.034-0.262,0.118-0.521,0.237-0.759
				c0.142-0.283,0.267-0.582,0.295-0.898c0.029-0.264-0.039-0.533,0.039-0.791C21.113,13.581,21.202,13.386,21.371,13.279
				L21.371,13.279z"/>
			<path fill="#FBBE4A" d="M17.332,13.594c0.064-0.026,0.089,0.046,0.11,0.088c0.558,1.221,1.119,2.437,1.672,3.65
				c-0.04,0.015-0.083,0.031-0.125,0.044c-0.241-0.528-0.488-1.061-0.726-1.592c0.019,0.126,0.076,0.241,0.119,0.358
				c0.163,0.43,0.312,0.857,0.481,1.284c-0.043,0.021-0.086,0.044-0.126,0.062c-0.464-1.253-0.931-2.508-1.396-3.769
				C17.327,13.682,17.316,13.636,17.332,13.594L17.332,13.594z"/>
			<path fill="#FBBE4A" d="M22.613,13.601c0.072-0.046,0.072,0.062,0.053,0.104c-0.469,1.264-0.938,2.523-1.402,3.782
				c-0.041-0.017-0.078-0.035-0.123-0.05c0.149-0.428,0.318-0.853,0.475-1.276c0.041-0.123,0.099-0.245,0.126-0.376
				c-0.243,0.531-0.483,1.068-0.732,1.595c-0.042-0.016-0.081-0.032-0.125-0.047c0.501-1.087,1-2.176,1.497-3.263
				C22.459,13.913,22.514,13.742,22.613,13.601L22.613,13.601z"/>
			<path fill="#FBBE4A" d="M16.222,14.275c0.007-0.045,0.037-0.073,0.07-0.099c0.021,0.143,0.021,0.296,0.093,0.426
				c0.073,0.136,0.201,0.229,0.317,0.329c0.27,0.205,0.525,0.439,0.69,0.745c0.118,0.202,0.159,0.439,0.272,0.646
				c0.239,0.467,0.69,0.781,0.965,1.228c-0.037,0.022-0.079,0.045-0.123,0.069c-0.243-0.384-0.622-0.664-0.87-1.041
				c-0.099-0.141-0.156-0.3-0.214-0.453c0.02,0.264,0.158,0.502,0.33,0.705c0.224,0.281,0.465,0.548,0.63,0.869
				c-0.039,0.027-0.073,0.057-0.111,0.085c-0.182-0.393-0.535-0.663-0.751-1.034c-0.1-0.169-0.173-0.354-0.238-0.545
				c-0.104-0.31-0.241-0.613-0.47-0.852c-0.149-0.166-0.344-0.303-0.46-0.493C16.254,14.686,16.173,14.479,16.222,14.275
				L16.222,14.275z"/>
			<path fill="#FBBE4A" d="M23.361,14.658c0.115-0.153,0.27-0.298,0.457-0.339c0.049-0.015,0.098,0.002,0.143,0.014
				c-0.1,0.081-0.225,0.123-0.312,0.216c-0.148,0.146-0.186,0.355-0.25,0.546c-0.08,0.303-0.205,0.605-0.405,0.85
				c-0.153,0.191-0.365,0.325-0.515,0.525c-0.316,0.396-0.442,0.909-0.732,1.329c-0.038-0.029-0.075-0.059-0.114-0.084
				c0.228-0.34,0.351-0.735,0.556-1.092c0.1-0.181,0.236-0.336,0.396-0.469c-0.231,0.101-0.386,0.318-0.504,0.532
				c-0.181,0.322-0.333,0.66-0.581,0.937c-0.035-0.02-0.073-0.042-0.107-0.064c0.301-0.347,0.422-0.804,0.713-1.155
				c0.135-0.173,0.309-0.312,0.472-0.459c0.2-0.192,0.392-0.41,0.503-0.671C23.17,15.068,23.223,14.841,23.361,14.658L23.361,14.658
				z"/>
			<path fill="#FBBE4A" d="M15.087,15.144c-0.02-0.093,0.09-0.056,0.12-0.01c0.987,0.914,1.97,1.826,2.952,2.737
				c-0.03,0.032-0.063,0.063-0.093,0.096c-0.438-0.398-0.857-0.802-1.297-1.196c0.392,0.438,0.8,0.859,1.194,1.296
				c-0.033,0.029-0.061,0.064-0.094,0.098c-0.87-0.944-1.741-1.885-2.616-2.822C15.196,15.273,15.129,15.218,15.087,15.144
				L15.087,15.144z"/>
			<path fill="#FBBE4A" d="M24.795,15.134c0.027-0.029,0.064-0.059,0.113-0.046c0.023,0.056-0.024,0.098-0.059,0.137
				c-0.906,0.977-1.815,1.96-2.726,2.939c-0.026-0.033-0.06-0.068-0.09-0.103c0.396-0.432,0.807-0.853,1.194-1.292
				c-0.439,0.396-0.858,0.799-1.293,1.197c-0.033-0.032-0.068-0.063-0.102-0.093C22.82,16.961,23.809,16.048,24.795,15.134
				L24.795,15.134z"/>
			<path fill="#FBBE4A" d="M14.334,16.038c0.084,0.102,0.124,0.234,0.226,0.327c0.144,0.142,0.346,0.178,0.532,0.233
				c0.305,0.086,0.603,0.211,0.85,0.41c0.194,0.156,0.332,0.366,0.527,0.514c0.396,0.319,0.912,0.444,1.328,0.731
				c-0.027,0.04-0.057,0.079-0.084,0.118c-0.332-0.228-0.72-0.352-1.073-0.544c-0.185-0.105-0.348-0.247-0.49-0.41
				c0.119,0.258,0.369,0.414,0.608,0.544c0.298,0.161,0.614,0.31,0.865,0.54c-0.021,0.038-0.044,0.075-0.066,0.113
				c-0.332-0.299-0.777-0.417-1.12-0.692c-0.18-0.134-0.322-0.303-0.468-0.464c-0.195-0.218-0.427-0.415-0.694-0.537
				c-0.204-0.096-0.434-0.138-0.62-0.281c-0.149-0.115-0.29-0.267-0.333-0.459C14.307,16.13,14.322,16.084,14.334,16.038
				L14.334,16.038z"/>
			<path fill="#FBBE4A" d="M25.143,16.354c0.174-0.103,0.381-0.185,0.586-0.134c0.041,0.007,0.07,0.042,0.099,0.071
				c-0.138,0.023-0.283,0.023-0.41,0.083c-0.114,0.061-0.2,0.155-0.283,0.253c-0.163,0.198-0.321,0.406-0.521,0.572
				c-0.195,0.156-0.428,0.276-0.661,0.351c-0.3,0.096-0.562,0.281-0.796,0.489c-0.23,0.208-0.442,0.429-0.698,0.593
				c-0.024-0.041-0.05-0.078-0.077-0.124c0.34-0.218,0.598-0.53,0.911-0.779c0.172-0.139,0.377-0.233,0.586-0.308
				c-0.209,0.02-0.409,0.107-0.58,0.232c-0.329,0.242-0.625,0.537-0.995,0.727c-0.027-0.036-0.059-0.067-0.089-0.106
				c0.388-0.183,0.654-0.527,1.017-0.742c0.176-0.107,0.369-0.188,0.561-0.25c0.312-0.104,0.618-0.241,0.859-0.464
				C24.811,16.662,24.943,16.473,25.143,16.354L25.143,16.354z"/>
			<path fill="#FBBE4A" d="M19.816,17.241c0.563-0.039,1.137,0.098,1.622,0.396c0.594,0.361,1.049,0.957,1.229,1.631
				c0.186,0.677,0.107,1.425-0.229,2.044c-0.293,0.543-0.768,0.979-1.334,1.228c-0.682,0.298-1.479,0.303-2.166,0.013
				c-0.582-0.24-1.075-0.687-1.372-1.24c-0.328-0.599-0.413-1.324-0.248-1.981c0.158-0.649,0.562-1.228,1.11-1.603
				C18.833,17.441,19.32,17.272,19.816,17.241L19.816,17.241z"/>
			<path fill="#FBBE4A" d="M13.592,17.331c0.076-0.023,0.147,0.021,0.218,0.044c1.226,0.457,2.451,0.909,3.681,1.365
				c-0.021,0.039-0.043,0.081-0.059,0.123c-0.497-0.191-0.994-0.374-1.49-0.557c-0.049-0.02-0.104-0.032-0.156-0.045
				c0.531,0.24,1.061,0.486,1.594,0.729c-0.014,0.044-0.029,0.085-0.046,0.127c-1.219-0.556-2.435-1.115-3.647-1.675
				C13.637,17.418,13.572,17.393,13.592,17.331L13.592,17.331z"/>
			<path fill="#FBBE4A" d="M26.271,17.346c0.041-0.015,0.09-0.034,0.135-0.015c0.025,0.071-0.061,0.094-0.104,0.12
				c-1.216,0.553-2.425,1.111-3.636,1.665c-0.015-0.042-0.028-0.083-0.042-0.127c0.529-0.241,1.061-0.49,1.591-0.723
				c-0.128,0.018-0.237,0.076-0.356,0.114c-0.424,0.164-0.859,0.316-1.283,0.482c-0.021-0.042-0.045-0.084-0.061-0.123
				C23.764,18.274,25.02,17.809,26.271,17.346L26.271,17.346z"/>
			<path fill="#FBBE4A" d="M13.255,18.502c0.115,0.08,0.212,0.185,0.346,0.231c0.181,0.062,0.378,0.019,0.563,0
				c0.315-0.036,0.644-0.036,0.954,0.061c0.227,0.063,0.424,0.203,0.655,0.267c0.495,0.145,1.022,0.063,1.525,0.168
				c-0.013,0.049-0.024,0.098-0.039,0.146c-0.442-0.102-0.902-0.033-1.346-0.121c-0.156-0.029-0.305-0.094-0.447-0.156
				c0.171,0.156,0.404,0.215,0.627,0.244c0.38,0.049,0.77,0.058,1.134,0.176c-0.003,0.046-0.005,0.092-0.012,0.134
				c-0.437-0.146-0.909-0.079-1.343-0.218c-0.317-0.086-0.596-0.28-0.91-0.373c-0.246-0.086-0.514-0.109-0.775-0.09
				c-0.275,0.021-0.569-0.033-0.786-0.205C13.324,18.697,13.243,18.615,13.255,18.502L13.255,18.502z"/>
			<path fill="#FBBE4A" d="M25.498,18.841c0.216-0.075,0.416-0.208,0.65-0.241c0.188-0.029,0.414-0.022,0.58,0.092
				c0.041,0.022,0.059,0.068,0.074,0.11c-0.138-0.03-0.279-0.095-0.424-0.075c-0.163,0.014-0.301,0.1-0.439,0.173
				c-0.246,0.137-0.508,0.271-0.793,0.322c-0.234,0.052-0.475,0.029-0.711,0.021c-0.582,0-1.086,0.329-1.644,0.438
				c-0.011-0.05-0.015-0.099-0.022-0.149c0.459-0.078,0.869-0.329,1.321-0.41c0.156-0.033,0.31-0.017,0.46-0.033
				c-0.203-0.043-0.418-0.043-0.619,0.01c-0.396,0.098-0.781,0.264-1.195,0.287c-0.008-0.046-0.018-0.09-0.025-0.131
				c0.333-0.023,0.645-0.156,0.967-0.244c0.264-0.072,0.541-0.091,0.817-0.071C24.83,18.965,25.178,18.958,25.498,18.841
				L25.498,18.841z"/>
			<path fill="#FBBE4A" d="M13.29,19.941c1.301-0.049,2.604-0.096,3.907-0.144c-0.003,0.044-0.006,0.091-0.009,0.137
				c-0.597,0.017-1.195,0.034-1.791,0.063c0.596,0.031,1.194,0.051,1.79,0.07c0.004,0.045,0.007,0.09,0.01,0.135
				c-1.339-0.047-2.682-0.1-4.021-0.151c-0.044,0-0.131-0.005-0.11-0.075C13.134,19.935,13.216,19.951,13.29,19.941L13.29,19.941z"
				/>
			<path fill="#FBBE4A" d="M22.803,19.798c1.289,0.048,2.584,0.095,3.881,0.144c0.07,0.003,0.144-0.004,0.211,0.016
				c0.035,0.01,0.045,0.029,0.035,0.065c-0.029,0.024-0.066,0.029-0.104,0.029c-1.34,0.052-2.686,0.104-4.023,0.151
				c0.002-0.045,0.004-0.09,0.012-0.135c0.584-0.02,1.174-0.037,1.763-0.07c-0.589-0.031-1.179-0.047-1.763-0.063
				C22.807,19.889,22.805,19.846,22.803,19.798L22.803,19.798z"/>
			<path fill="#FBBE4A" d="M15.562,20.758c0.583,0,1.086-0.33,1.646-0.438c0.007,0.051,0.014,0.103,0.019,0.148
				c-0.479,0.081-0.896,0.349-1.37,0.42c-0.133,0.022-0.268,0.007-0.394,0.025c0.206,0.053,0.425,0.038,0.63-0.015
				c0.39-0.104,0.764-0.26,1.168-0.279c0.009,0.044,0.021,0.086,0.03,0.127c-0.431,0.023-0.818,0.245-1.243,0.301
				c-0.211,0.031-0.421,0.021-0.628,0.012c-0.32-0.023-0.652-0.007-0.952,0.115c-0.212,0.081-0.412,0.208-0.646,0.229
				c-0.19,0.023-0.406,0.015-0.567-0.106c-0.033-0.021-0.046-0.063-0.058-0.1c0.141,0.032,0.278,0.095,0.426,0.077
				c0.164-0.014,0.311-0.106,0.449-0.182c0.25-0.137,0.509-0.264,0.791-0.314C15.095,20.729,15.33,20.748,15.562,20.758
				L15.562,20.758z"/>
			<path fill="#FBBE4A" d="M22.77,20.481c0.01-0.046,0.015-0.091,0.021-0.137c0.355,0.127,0.743,0.1,1.109,0.166
				c0.225,0.042,0.445,0.12,0.65,0.223c0.288,0.146,0.596,0.275,0.924,0.295c0.254,0.024,0.512-0.035,0.762,0.039
				c0.188,0.05,0.381,0.135,0.488,0.301c0.023,0.039,0.023,0.084,0.023,0.13c-0.111-0.075-0.202-0.173-0.324-0.222
				c-0.121-0.047-0.256-0.045-0.383-0.032c-0.271,0.026-0.547,0.062-0.82,0.032c-0.244-0.027-0.477-0.102-0.691-0.213
				c-0.238-0.123-0.5-0.185-0.766-0.203c-0.35-0.027-0.713-0.018-1.062-0.088c0.018-0.047,0.023-0.097,0.04-0.146
				c0.399,0.091,0.819,0.049,1.22,0.101c0.199,0.021,0.389,0.094,0.573,0.174c-0.159-0.146-0.38-0.204-0.591-0.234
				C23.555,20.611,23.15,20.607,22.77,20.481L22.77,20.481z"/>
			<path fill="#FBBE4A" d="M16.937,21.066c0.13-0.062,0.261-0.116,0.387-0.184c0.021,0.04,0.042,0.083,0.058,0.125
				c-0.531,0.241-1.063,0.488-1.596,0.727c0.13-0.021,0.249-0.082,0.376-0.12c0.425-0.157,0.85-0.325,1.276-0.472
				c0.017,0.041,0.032,0.077,0.052,0.118c-1.229,0.459-2.454,0.909-3.68,1.363c-0.07,0.022-0.142,0.065-0.218,0.046
				c-0.02-0.068,0.047-0.09,0.094-0.111C14.769,22.061,15.854,21.562,16.937,21.066L16.937,21.066z"/>
			<path fill="#FBBE4A" d="M22.622,21.009c0.015-0.042,0.034-0.085,0.056-0.125c1.219,0.573,2.454,1.123,3.676,1.69
				c0.028,0.017,0.078,0.053,0.049,0.094c-0.041,0.023-0.09,0-0.127-0.012c-1.256-0.463-2.512-0.928-3.762-1.391
				c0.026-0.037,0.027-0.144,0.096-0.111c0.486,0.184,0.979,0.361,1.469,0.548c0.04,0.013,0.089,0.026,0.138,0.036
				C23.686,21.5,23.15,21.25,22.622,21.009L22.622,21.009z"/>
			<path fill="#FBBE4A" d="M16.365,22.314c0.444-0.248,0.753-0.677,1.181-0.947c0.025,0.045,0.046,0.084,0.071,0.125
				c-0.383,0.246-0.66,0.62-1.04,0.871c-0.139,0.093-0.295,0.158-0.452,0.211c0.24-0.014,0.456-0.131,0.645-0.276
				c0.302-0.237,0.59-0.503,0.93-0.677c0.029,0.035,0.058,0.068,0.084,0.107c-0.387,0.186-0.661,0.532-1.035,0.752
				c-0.171,0.104-0.355,0.176-0.544,0.236c-0.31,0.104-0.614,0.241-0.851,0.471c-0.165,0.151-0.298,0.34-0.496,0.457
				c-0.172,0.104-0.38,0.187-0.585,0.137c-0.04-0.008-0.069-0.041-0.095-0.072c0.144-0.021,0.297-0.021,0.425-0.096
				c0.134-0.075,0.229-0.202,0.328-0.317c0.207-0.266,0.443-0.526,0.742-0.684C15.893,22.482,16.146,22.441,16.365,22.314
				L16.365,22.314z"/>
			<path fill="#FBBE4A" d="M22.378,21.507c0.021-0.039,0.044-0.078,0.063-0.116c0.352,0.299,0.816,0.422,1.172,0.723
				c0.218,0.176,0.377,0.41,0.586,0.596c0.158,0.156,0.347,0.293,0.552,0.378c0.196,0.09,0.42,0.138,0.597,0.276
				c0.15,0.113,0.293,0.266,0.332,0.459c0.018,0.051,0,0.098-0.013,0.142c-0.08-0.1-0.12-0.227-0.215-0.317
				c-0.101-0.109-0.255-0.155-0.397-0.197c-0.267-0.082-0.537-0.158-0.781-0.309c-0.19-0.108-0.356-0.263-0.496-0.432
				c-0.146-0.169-0.334-0.312-0.529-0.421c-0.344-0.192-0.719-0.319-1.044-0.539c0.026-0.043,0.056-0.08,0.082-0.119
				c0.342,0.229,0.737,0.354,1.101,0.556c0.176,0.104,0.328,0.24,0.467,0.399c-0.103-0.221-0.297-0.367-0.502-0.485
				C23.02,21.916,22.672,21.751,22.378,21.507L22.378,21.507z"/>
			<path fill="#FBBE4A" d="M15.135,24.791c0.914-0.982,1.827-1.969,2.74-2.955c0.028,0.034,0.056,0.068,0.087,0.102
				c-0.301,0.328-0.603,0.653-0.911,0.982c-0.069,0.081-0.151,0.148-0.208,0.24c0.084-0.062,0.157-0.143,0.236-0.211
				c0.332-0.303,0.654-0.607,0.982-0.91c0.034,0.027,0.067,0.059,0.102,0.086c-0.938,0.876-1.884,1.748-2.824,2.623
				c-0.064,0.057-0.121,0.121-0.195,0.167C15.052,24.938,15.092,24.824,15.135,24.791L15.135,24.791z"/>
			<path fill="#FBBE4A" d="M22.035,21.934c0.031-0.028,0.062-0.062,0.094-0.098c0.905,0.982,1.814,1.965,2.725,2.939
				c0.03,0.039,0.078,0.08,0.06,0.133c-0.06,0.021-0.095-0.022-0.134-0.053c-0.983-0.91-1.963-1.818-2.942-2.73
				c0.032-0.027,0.067-0.059,0.101-0.089c0.34,0.312,0.678,0.626,1.013,0.938c0.067,0.065,0.136,0.133,0.212,0.187
				C22.797,22.737,22.406,22.348,22.035,21.934L22.035,21.934z"/>
			<path fill="#FBBE4A" d="M17.525,23.531c0.313-0.396,0.438-0.911,0.729-1.329c0.04,0.026,0.078,0.056,0.117,0.086
				c-0.23,0.337-0.354,0.735-0.559,1.091c-0.101,0.182-0.241,0.335-0.393,0.471c0.195-0.09,0.337-0.27,0.447-0.445
				c0.205-0.35,0.359-0.727,0.637-1.027c0.037,0.021,0.072,0.046,0.11,0.068c-0.306,0.352-0.43,0.814-0.731,1.164
				c-0.174,0.226-0.403,0.382-0.592,0.589c-0.156,0.161-0.292,0.347-0.378,0.552c-0.092,0.198-0.142,0.42-0.274,0.598
				c-0.114,0.151-0.267,0.295-0.46,0.334c-0.049,0.016-0.098-0.002-0.141-0.014c0.097-0.086,0.222-0.12,0.313-0.215
				c0.15-0.145,0.188-0.354,0.246-0.545c0.087-0.312,0.214-0.615,0.425-0.862C17.171,23.854,17.379,23.725,17.525,23.531
				L17.525,23.531z"/>
			<path fill="#FBBE4A" d="M21.622,22.301c0.032-0.027,0.069-0.059,0.104-0.084c0.15,0.309,0.401,0.547,0.604,0.816
				c0.155,0.201,0.272,0.43,0.354,0.676c0.094,0.285,0.209,0.573,0.395,0.818c0.109,0.144,0.246,0.258,0.379,0.381
				c0.171,0.165,0.296,0.388,0.329,0.622c0.006,0.101,0.021,0.233-0.078,0.293c-0.022-0.146-0.022-0.308-0.104-0.442
				c-0.094-0.154-0.252-0.258-0.387-0.371c-0.246-0.197-0.475-0.427-0.615-0.703c-0.121-0.209-0.162-0.442-0.277-0.65
				c-0.244-0.457-0.682-0.768-0.957-1.199c0.041-0.028,0.078-0.049,0.121-0.073c0.226,0.345,0.539,0.605,0.791,0.923
				c0.133,0.172,0.232,0.369,0.297,0.573c-0.021-0.377-0.293-0.666-0.518-0.942C21.891,22.737,21.74,22.525,21.622,22.301
				L21.622,22.301z"/>
			<path fill="#FBBE4A" d="M18.182,24.02c0.19-0.502,0.366-1.016,0.566-1.514c0.036,0.023,0.074,0.046,0.112,0.068
				c-0.19,0.492-0.366,0.988-0.551,1.48c-0.021,0.055-0.035,0.104-0.045,0.159c0.236-0.535,0.483-1.062,0.725-1.592
				c0.042,0.014,0.085,0.028,0.125,0.045C18.561,23.886,18,25.1,17.442,26.312c-0.021,0.049-0.046,0.114-0.11,0.093
				c-0.016-0.044-0.005-0.093,0.012-0.138C17.619,25.521,17.898,24.771,18.182,24.02L18.182,24.02z"/>
			<path fill="#FBBE4A" d="M21.141,22.562c0.045-0.016,0.082-0.032,0.123-0.05c0.452,1.225,0.906,2.45,1.363,3.673
				c0.021,0.072,0.066,0.146,0.045,0.222c-0.066,0.021-0.089-0.043-0.113-0.089c-0.514-1.122-1.031-2.245-1.545-3.368
				c-0.039-0.099-0.1-0.183-0.121-0.281c0.037-0.017,0.076-0.035,0.117-0.048c0.243,0.534,0.49,1.064,0.729,1.599
				c-0.024-0.134-0.084-0.256-0.123-0.381C21.454,23.411,21.289,22.988,21.141,22.562L21.141,22.562z"/>
			<path fill="#FBBE4A" d="M19.228,22.701c0.048,0.017,0.096,0.025,0.146,0.039c-0.088,0.398-0.051,0.811-0.099,1.215
				c-0.022,0.201-0.095,0.393-0.173,0.578c0.136-0.15,0.192-0.352,0.227-0.543c0.061-0.41,0.06-0.826,0.191-1.221
				c0.045,0.008,0.088,0.01,0.133,0.017c-0.143,0.437-0.082,0.907-0.22,1.345c-0.089,0.317-0.277,0.592-0.372,0.906
				c-0.09,0.249-0.11,0.515-0.093,0.775c0.024,0.268-0.029,0.555-0.194,0.771c-0.068,0.081-0.154,0.174-0.27,0.16
				c0.072-0.107,0.169-0.198,0.216-0.322c0.048-0.117,0.048-0.24,0.038-0.359c-0.026-0.269-0.067-0.539-0.038-0.812
				c0.023-0.246,0.1-0.482,0.206-0.702c0.119-0.228,0.188-0.479,0.213-0.733C19.172,23.443,19.156,23.068,19.228,22.701
				L19.228,22.701z"/>
			<path fill="#FBBE4A" d="M20.619,22.75c0.037-0.021,0.083-0.032,0.123-0.045c0.025,0.328,0.15,0.635,0.24,0.947
				c0.078,0.27,0.101,0.557,0.078,0.843c-0.021,0.317-0.021,0.646,0.082,0.957c0.078,0.243,0.235,0.466,0.262,0.726
				c0.025,0.192,0.016,0.406-0.106,0.566c-0.022,0.036-0.06,0.045-0.101,0.059c0.041-0.177,0.119-0.356,0.056-0.543
				c-0.067-0.199-0.194-0.376-0.284-0.57c-0.119-0.233-0.199-0.487-0.221-0.748c-0.021-0.229,0.027-0.455-0.002-0.684
				c-0.055-0.512-0.325-0.965-0.425-1.462c0.051-0.01,0.1-0.017,0.148-0.026c0.08,0.459,0.326,0.866,0.408,1.325
				c0.029,0.153,0.018,0.311,0.029,0.459c0.054-0.215,0.046-0.437-0.01-0.646C20.796,23.521,20.646,23.146,20.619,22.75
				L20.619,22.75z"/>
			<path fill="#FBBE4A" d="M19.794,22.803c0.044,0.006,0.094,0.006,0.14,0.006c0.021,0.611,0.038,1.219,0.069,1.82
				c0.026-0.604,0.046-1.209,0.064-1.816c0.043-0.004,0.088-0.004,0.141-0.01c-0.053,1.303-0.102,2.604-0.15,3.909
				c-0.006,0.071,0.01,0.156-0.03,0.224c-0.019,0-0.043,0-0.052,0c-0.04-0.069-0.029-0.151-0.036-0.224
				C19.894,25.406,19.842,24.104,19.794,22.803L19.794,22.803z"/>
			<path fill="#84371B" d="M19.633,19.556c-0.087,0.04-0.324,0.174-0.591,0.215c-0.096,0.015-0.59-0.116-0.59-0.116
				C19.196,20.145,19.633,19.556,19.633,19.556z M19.256,19.651c0.089-0.036,0.112-0.021,0.254-0.125c0,0-0.062-0.1-0.207-0.207
				c-0.144-0.107-0.404-0.085-0.481-0.06c-0.08,0.022-0.321,0.115-0.405,0.265c0,0,0.387,0.173,0.542,0.163
				C18.958,19.688,19.167,19.69,19.256,19.651z M19.184,19.329c0.049,0.015,0.232,0.195,0.232,0.195s-0.201,0.114-0.271,0.134
				C19.178,19.639,19.196,19.427,19.184,19.329z M18.568,19.485c0.024-0.049,0.169-0.156,0.248-0.177h0.004
				c-0.009,0.069-0.02,0.307,0.031,0.346C18.799,19.653,18.568,19.485,18.568,19.485z M19.63,19.463c0,0-0.002-0.004-0.006-0.004
				C19.623,19.459,19.623,19.463,19.63,19.463z M19.227,18.841c0.157,0.028,0.504,0.088,0.615,0.537
				c0.112,0.444-0.224,0.918-0.224,0.918l0.112,0.024c0.216-0.335,0.294-1.125,0.049-1.343c-0.238-0.218-0.504-0.254-0.635-0.269
				c-0.137-0.012-0.257-0.012-0.477,0.062c-0.216,0.069-0.523,0.418-0.523,0.418C18.48,18.922,19.067,18.82,19.227,18.841z
				 M20.003,21.211c-0.004,0-0.004,0-0.004,0l0,0c-0.023,0-0.499,0.02-0.55,0.034c0.146,0.057,0.526,0.06,0.55,0.06c0,0,0,0,0.004,0
				l0,0c0.021,0,0.402-0.003,0.548-0.06C20.504,21.23,20.024,21.211,20.003,21.211L20.003,21.211L20.003,21.211z M19.73,20.486
				c-0.06,0.024-0.294,0.275-0.293-0.152c0,0-0.116,0.184-0.044,0.301c0.017,0.031,0.037,0.078,0.113,0.074
				c0.077-0.006,0.195-0.05,0.26-0.037c0.062,0.014,0.218,0.031,0.232,0.031l0,0c0,0,0,0,0.004,0l0,0l0,0
				c0.006,0,0.168-0.018,0.229-0.031c0.06-0.013,0.184,0.031,0.262,0.037c0.077,0.004,0.096-0.043,0.114-0.074
				c0.067-0.117-0.047-0.301-0.047-0.301c0,0.428-0.234,0.177-0.293,0.152c-0.119,0.148-0.26,0.145-0.266,0.145l0,0
				c-0.004,0-0.004,0-0.004,0C19.988,20.631,19.848,20.635,19.73,20.486z M19.227,19.205c0,0,0.137,0.065,0.198,0.121
				c0.053,0.045,0.173,0.119,0.199,0.133c0.01-0.01,0.092-0.029,0.092-0.029s-0.154-0.074-0.258-0.147
				c-0.104-0.07-0.282-0.185-0.416-0.185c-0.133,0-0.404,0.055-0.518,0.114c-0.113,0.059-0.292,0.273-0.292,0.273
				s0.427-0.298,0.648-0.315C19.101,19.153,19.227,19.205,19.227,19.205z M20.382,20.296c0,0-0.337-0.474-0.227-0.918
				c0.113-0.449,0.462-0.509,0.619-0.537c0.154-0.021,0.744,0.081,1.08,0.349c0,0-0.306-0.349-0.523-0.418
				c-0.219-0.074-0.342-0.074-0.473-0.062c-0.135,0.015-0.398,0.051-0.641,0.269c-0.242,0.218-0.166,1.008,0.051,1.343
				L20.382,20.296z M21.18,19.26c-0.076-0.025-0.343-0.048-0.482,0.06c-0.141,0.108-0.205,0.207-0.205,0.207
				c0.139,0.104,0.164,0.089,0.25,0.125c0.09,0.039,0.3,0.036,0.3,0.036c0.155,0.01,0.541-0.163,0.541-0.163
				C21.5,19.375,21.257,19.282,21.18,19.26z M20.584,19.524c0,0,0.184-0.181,0.23-0.195c-0.012,0.098,0.006,0.31,0.033,0.329
				C20.783,19.639,20.584,19.524,20.584,19.524z M21.148,19.654c0.049-0.039,0.037-0.276,0.031-0.346h0.006
				c0.078,0.021,0.221,0.128,0.246,0.177C21.434,19.485,21.201,19.653,21.148,19.654z M20.29,20.943
				c-0.151-0.022-0.095,0.022-0.287,0.022c-0.199,0-0.141-0.046-0.293-0.022c-0.153,0.022-0.379,0.285-0.379,0.285
				s0.334-0.19,0.358-0.193c0.021-0.004,0.295,0.023,0.31,0.025l0,0c0,0,0,0,0.004,0l0,0l0,0c0.01-0.002,0.283-0.029,0.307-0.025
				c0.022,0.003,0.363,0.193,0.363,0.193S20.442,20.967,20.29,20.943z M20.958,19.771c-0.271-0.041-0.503-0.175-0.589-0.215
				c0,0,0.436,0.589,1.18,0.099C21.549,19.654,21.055,19.785,20.958,19.771z M20.632,21.282c-0.154-0.001-0.232,0.091-0.348,0.166
				c-0.192,0.122-0.275,0.091-0.281,0.091v-0.003v0.003c-0.004,0-0.004-0.003-0.004-0.003v0.003c-0.011,0-0.091,0.031-0.283-0.091
				c-0.118-0.075-0.193-0.167-0.348-0.166c0.167,0.093,0.274,0.215,0.362,0.264c0.077,0.041,0.178,0.065,0.23,0.071
				c-0.062,0.023-0.186,0.078-0.255,0.124c-0.093,0.067-0.122,0.251-0.122,0.251s0.118-0.141,0.195-0.213
				c0.078-0.074,0.205-0.064,0.22-0.064l0,0c0,0,0,0,0.004,0l0,0l0,0c0.006,0,0.141-0.01,0.215,0.064
				c0.078,0.072,0.2,0.213,0.2,0.213s-0.032-0.184-0.126-0.251c-0.069-0.046-0.19-0.101-0.255-0.124
				c0.055-0.006,0.153-0.03,0.231-0.071C20.357,21.497,20.468,21.375,20.632,21.282z M21.477,19.212
				c-0.113-0.06-0.385-0.114-0.519-0.114s-0.313,0.114-0.417,0.185c-0.099,0.073-0.26,0.147-0.26,0.147s0.083,0.02,0.094,0.029
				c0.028-0.014,0.146-0.088,0.206-0.133c0.058-0.056,0.192-0.121,0.192-0.121s0.123-0.053,0.348-0.035
				c0.218,0.018,0.645,0.315,0.645,0.315S21.589,19.271,21.477,19.212z M20.375,19.459c-0.003,0-0.006,0.004-0.006,0.004
				C20.38,19.463,20.38,19.459,20.375,19.459z"/>
		</g>
	</g>
</g>
<g>
	<path fill="#D0D0D5" d="M39,20c0,2.991-0.714,5.812-1.951,8.333h1.115C39.331,25.794,40,22.978,40,20
		c0-2.978-0.669-5.794-1.836-8.333h-1.115C38.286,14.187,39,17.008,39,20z"/>
	<path fill="#D0D0D5" d="M1,20c0-2.992,0.714-5.813,1.951-8.333H1.836C0.668,14.206,0,17.022,0,20c0,2.978,0.668,5.794,1.836,8.333
		h1.115C1.714,25.812,1,22.991,1,20z"/>
</g>
</svg>
