<?xml version="1.0" encoding="utf-8"?>
<!-- Generator: Adobe Illustrator 16.0.0, SVG Export Plug-In . SVG Version: 6.00 Build 0)  -->
<!DOCTYPE svg PUBLIC "-//W3C//DTD SVG 1.0//EN" "http://www.w3.org/TR/2001/REC-SVG-20010904/DTD/svg10.dtd">
<svg version="1.0" id="Layer_1" xmlns="http://www.w3.org/2000/svg" xmlns:xlink="http://www.w3.org/1999/xlink" x="0px" y="0px"
	 width="40px" height="40px" viewBox="0 0 40 40" enable-background="new 0 0 40 40" xml:space="preserve">
<g>
	<g>
		<path fill="#124B8E" d="M23.608,0.332v1.984l-7.026,4.683h7.026V13h-7.052l7.052,4.702V20h-3.465l-8.533-5.687V20H5.609v-5.687
			l-5.509,3.672C0.032,18.647,0,19.32,0,20c0,11.045,8.955,20,20,20s20-8.955,20-20C40,10.188,32.932,2.031,23.608,0.332z
			 M10.668,34.403l-2.058-2.16l-2.055,2.16l0.407-2.954l-2.97-0.258l2.565-1.523l-1.65-2.483l2.791,1.057l0.911-2.837l0.915,2.837
			l2.789-1.057l-1.65,2.483l2.562,1.523l-2.968,0.258L10.668,34.403z M32.121,19.668l-1.006-1.058l-1.004,1.058l0.203-1.445
			l-1.455-0.127l1.257-0.743l-0.808-1.213l1.36,0.516l0.446-1.388l0.449,1.388l1.36-0.516l-0.806,1.213l1.256,0.743l-1.456,0.127
			L32.121,19.668z M20,0c-2.996,0-5.84,0.663-8.39,1.843v3.86l8.553-5.699C20.107,0.004,20.056,0,20,0z"/>
		<polygon fill="#FFFFFF" points="14.707,8.249 23.608,8.249 23.608,6.999 16.582,6.999 		"/>
		<polygon fill="#FFFFFF" points="10.36,13.48 10.36,20 11.61,20 11.61,14.313 		"/>
		<polygon fill="#FFFFFF" points="16.557,13 23.608,13 23.608,11.75 14.682,11.75 		"/>
		<path fill="#FFFFFF" d="M11.61,5.703v-3.86c-0.424,0.198-0.842,0.407-1.25,0.632v4.062L11.61,5.703z"/>
		<path fill="#FFFFFF" d="M6.862,4.929c-0.348,0.3-0.688,0.61-1.012,0.935l1.012,0.674V4.929z"/>
		<path fill="#FFFFFF" d="M1.78,11.75c-0.104,0.232-0.208,0.471-0.306,0.71l1.063-0.71H1.78z"/>
		<polygon fill="#FFFFFF" points="5.609,14.313 5.609,20 6.862,20 6.862,13.48 		"/>
		<polygon fill="#FFFFFF" points="14.682,11.75 10.36,11.75 10.36,13.48 11.61,14.313 20.144,20 23.608,20 23.608,19.941 13.173,13 
			15.547,13 23.608,18.363 23.608,17.702 16.557,13 		"/>
		<path fill="#FFFFFF" d="M6.862,6.537L5.851,5.863C5.11,6.602,4.435,7.402,3.819,8.249h3.043V6.537z"/>
		<path fill="#FFFFFF" d="M10.36,6.537v1.712h4.347l1.875-1.25l7.026-4.683V0.332c-0.13-0.025-0.257-0.049-0.386-0.071L13.09,6.999
			H11.61V6.403l9.575-6.365c-0.341-0.021-0.683-0.031-1.022-0.034L11.61,5.703L10.36,6.537z"/>
		<path fill="#FFFFFF" d="M6.862,13.48v-1.73H2.538l-1.063,0.71c-0.378,0.923-0.684,1.88-0.921,2.866L4.051,13h1.559v0.542
			l-5.401,3.594c-0.042,0.283-0.08,0.564-0.107,0.85l5.509-3.672L6.862,13.48z"/>
		<path fill="#EF4043" d="M6.862,11.75v1.73V20h3.498v-6.52v-1.73h4.321h8.927V8.249h-8.901H10.36V6.537V2.475
			C9.105,3.166,7.934,3.991,6.862,4.929v1.608v1.712H3.819C3.026,9.34,2.343,10.51,1.78,11.75h0.758H6.862z"/>
		<polygon fill="#EF4043" points="13.173,13 23.608,19.941 23.608,18.363 15.547,13 		"/>
		<path fill="#EF4043" d="M11.61,6.999h1.479l10.133-6.738c-0.67-0.107-1.351-0.184-2.037-0.223L11.61,6.403V6.999z"/>
		<path fill="#EF4043" d="M5.609,13H4.051l-3.498,2.326c-0.142,0.594-0.257,1.197-0.345,1.81l5.401-3.594V13z"/>
		<polygon fill="#FFFFFF" points="10.664,29.668 12.314,27.185 9.525,28.241 8.61,25.404 7.699,28.241 4.908,27.185 6.559,29.668 
			3.993,31.191 6.963,31.449 6.556,34.403 8.61,32.243 10.668,34.403 10.259,31.449 13.227,31.191 		"/>
		<polygon fill="#FFFFFF" points="32.119,17.353 32.925,16.14 31.564,16.655 31.115,15.268 30.669,16.655 29.309,16.14 
			30.116,17.353 28.859,18.096 30.314,18.223 30.111,19.668 31.115,18.61 32.121,19.668 31.919,18.223 33.375,18.096 		"/>
	</g>
</g>
<g>
	<g>
		<path fill="#124B8E" d="M62.166,174.197v1.19l-4.215,2.81h4.215v3.601h-4.231l4.231,2.821v1.379h-2.08l-5.119-3.412v3.412h-3.6
			v-3.412l-3.307,2.203C48.021,185.187,48,185.59,48,185.998c0,6.627,5.374,12,12.002,12c6.626,0,11.998-5.373,11.998-12
			C72,180.11,67.76,175.217,62.166,174.197z M54.4,194.64l-1.233-1.296l-1.232,1.296l0.245-1.772l-1.781-0.154l1.537-0.914
			l-0.99-1.49l1.676,0.634l0.546-1.702l0.55,1.702l1.672-0.634l-0.99,1.49l1.539,0.914l-1.781,0.154L54.4,194.64z M67.273,185.799
			l-0.604-0.635l-0.603,0.635l0.122-0.867l-0.873-0.076l0.754-0.446l-0.484-0.728l0.816,0.31l0.268-0.833l0.27,0.833l0.816-0.31
			l-0.483,0.728l0.753,0.446l-0.873,0.076L67.273,185.799z M60.002,173.998c-1.799,0-3.504,0.397-5.035,1.105v2.316l5.132-3.42
			C60.065,174,60.033,173.998,60.002,173.998z"/>
		<polygon fill="#FFFFFF" points="56.826,178.947 62.166,178.947 62.166,178.197 57.951,178.197 		"/>
		<polygon fill="#FFFFFF" points="54.217,182.086 54.217,185.998 54.967,185.998 54.967,182.586 		"/>
		<polygon fill="#FFFFFF" points="57.935,181.798 62.166,181.798 62.166,181.048 56.81,181.048 		"/>
		<path fill="#FFFFFF" d="M54.967,177.42v-2.316c-0.254,0.119-0.504,0.244-0.75,0.379v2.438L54.967,177.42z"/>
		<path fill="#FFFFFF" d="M52.117,176.955c-0.207,0.18-0.41,0.366-0.605,0.561l0.605,0.404V176.955z"/>
		<path fill="#FFFFFF" d="M49.07,181.048c-0.064,0.14-0.125,0.282-0.184,0.426l0.638-0.426H49.07z"/>
		<polygon fill="#FFFFFF" points="51.367,182.586 51.367,185.998 52.117,185.998 52.117,182.086 		"/>
		<polygon fill="#FFFFFF" points="56.81,181.048 54.217,181.048 54.217,182.086 54.967,182.586 60.086,185.998 62.166,185.998 
			62.166,185.963 55.904,181.798 57.329,181.798 62.166,185.016 62.166,184.619 57.935,181.798 		"/>
		<path fill="#FFFFFF" d="M52.117,177.92l-0.605-0.404c-0.444,0.443-0.85,0.924-1.219,1.432h1.824V177.92z"/>
		<path fill="#FFFFFF" d="M54.217,177.92v1.027h2.609l1.125-0.75l4.215-2.81v-1.19c-0.078-0.016-0.154-0.029-0.232-0.043
			l-6.079,4.043h-0.888v-0.357l5.744-3.819c-0.203-0.013-0.408-0.019-0.612-0.021l-5.132,3.42L54.217,177.92z"/>
		<path fill="#FFFFFF" d="M52.117,182.086v-1.038h-2.593l-0.638,0.426c-0.227,0.554-0.411,1.128-0.553,1.72l2.098-1.396h0.936v0.325
			l-3.242,2.156c-0.024,0.17-0.047,0.339-0.064,0.51l3.307-2.203L52.117,182.086z"/>
		<path fill="#EF4043" d="M52.117,181.048v1.038v3.912h2.1v-3.912v-1.038h2.593h5.356v-2.101h-5.34h-2.609v-1.027v-2.438
			c-0.754,0.415-1.456,0.91-2.1,1.473v0.965v1.027h-1.824c-0.477,0.654-0.886,1.356-1.223,2.101h0.454H52.117z"/>
		<polygon fill="#EF4043" points="55.904,181.798 62.166,185.963 62.166,185.016 57.329,181.798 		"/>
		<path fill="#EF4043" d="M54.967,178.197h0.888l6.079-4.043c-0.402-0.064-0.81-0.11-1.223-0.134l-5.744,3.819V178.197z"/>
		<path fill="#EF4043" d="M51.367,181.798h-0.936l-2.098,1.396c-0.086,0.356-0.156,0.719-0.209,1.086l3.242-2.156V181.798z"/>
		<polygon fill="#FFFFFF" points="54.398,191.799 55.389,190.309 53.717,190.942 53.167,189.24 52.621,190.942 50.945,190.309 
			51.936,191.799 50.398,192.713 52.18,192.867 51.935,194.64 53.167,193.344 54.4,194.64 54.156,192.867 55.938,192.713 		"/>
		<polygon fill="#FFFFFF" points="67.272,184.409 67.756,183.682 66.939,183.991 66.67,183.158 66.402,183.991 65.586,183.682 
			66.07,184.409 65.316,184.855 66.189,184.932 66.067,185.799 66.67,185.164 67.273,185.799 67.152,184.932 68.025,184.855 		"/>
	</g>
</g>
</svg>
