<?xml version="1.0" encoding="utf-8"?>
<!-- Generator: Adobe Illustrator 16.0.0, SVG Export Plug-In . SVG Version: 6.00 Build 0)  -->
<!DOCTYPE svg PUBLIC "-//W3C//DTD SVG 1.0//EN" "http://www.w3.org/TR/2001/REC-SVG-20010904/DTD/svg10.dtd">
<svg version="1.0" id="Layer_1" xmlns="http://www.w3.org/2000/svg" xmlns:xlink="http://www.w3.org/1999/xlink" x="0px" y="0px"
	 width="40px" height="40px" viewBox="0 0 40 40" enable-background="new 0 0 40 40" xml:space="preserve">
<g>
	<g>
		<path fill="#124B8E" d="M23.607,0.332v1.984l-7.025,4.683h7.025V13h-7.051l7.051,4.702V20h-3.464l-8.533-5.687V20H5.609v-5.687
			L0.1,17.985C0.032,18.647,0,19.32,0,20c0,11.045,8.955,20,20,20s20-8.955,20-20C40,10.188,32.932,2.031,23.607,0.332z
			 M10.668,34.402L8.61,32.243l-2.055,2.159l0.407-2.953l-2.97-0.258l2.565-1.523l-1.65-2.482l2.791,1.057l0.911-2.838l0.915,2.838
			l2.789-1.057l-1.65,2.482l2.562,1.523l-2.968,0.258L10.668,34.402z M32.121,19.668l-1.006-1.058l-1.004,1.058l0.203-1.445
			l-1.455-0.127l1.257-0.743l-0.808-1.213l1.359,0.516l0.445-1.388l0.449,1.388l1.36-0.516l-0.806,1.213l1.256,0.743l-1.456,0.127
			L32.121,19.668z M20,0c-2.996,0-5.84,0.663-8.39,1.843v3.86l8.553-5.699C20.107,0.004,20.056,0,20,0z"/>
		<polygon fill="#FFFFFF" points="14.707,8.249 23.607,8.249 23.607,6.999 16.582,6.999 		"/>
		<polygon fill="#FFFFFF" points="10.36,13.48 10.36,20 11.61,20 11.61,14.313 		"/>
		<polygon fill="#FFFFFF" points="16.557,13 23.607,13 23.607,11.75 14.682,11.75 		"/>
		<path fill="#FFFFFF" d="M11.61,5.703v-3.86c-0.424,0.198-0.842,0.407-1.25,0.632v4.062L11.61,5.703z"/>
		<path fill="#FFFFFF" d="M6.862,4.929c-0.348,0.3-0.688,0.61-1.012,0.935l1.012,0.674V4.929z"/>
		<path fill="#FFFFFF" d="M1.78,11.75c-0.104,0.232-0.208,0.471-0.306,0.71l1.063-0.71H1.78z"/>
		<polygon fill="#FFFFFF" points="5.609,14.313 5.609,20 6.862,20 6.862,13.48 		"/>
		<polygon fill="#FFFFFF" points="14.682,11.75 10.36,11.75 10.36,13.48 11.61,14.313 20.144,20 23.607,20 23.607,19.941 13.173,13 
			15.547,13 23.607,18.363 23.607,17.702 16.557,13 		"/>
		<path fill="#FFFFFF" d="M6.862,6.537L5.851,5.863C5.11,6.602,4.435,7.402,3.819,8.249h3.043V6.537z"/>
		<path fill="#FFFFFF" d="M10.36,6.537v1.712h4.347l1.875-1.25l7.025-4.683V0.332c-0.129-0.025-0.256-0.049-0.385-0.071L13.09,6.999
			h-1.48V6.403l9.576-6.365c-0.342-0.021-0.684-0.031-1.022-0.034L11.61,5.703L10.36,6.537z"/>
		<path fill="#FFFFFF" d="M6.862,13.48v-1.73H2.538l-1.063,0.71c-0.378,0.923-0.684,1.88-0.921,2.866L4.051,13H5.61v0.542
			l-5.401,3.594c-0.042,0.283-0.08,0.564-0.107,0.85l5.509-3.672L6.862,13.48z"/>
		<path fill="#EF4043" d="M6.862,11.75v1.73V20h3.498v-6.52v-1.73h4.321h8.926V8.249h-8.9H10.36V6.537V2.475
			C9.105,3.166,7.934,3.991,6.862,4.929v1.608v1.712H3.819C3.026,9.34,2.343,10.51,1.78,11.75h0.758H6.862z"/>
		<polygon fill="#EF4043" points="13.173,13 23.607,19.941 23.607,18.363 15.547,13 		"/>
		<path fill="#EF4043" d="M11.61,6.999h1.479l10.134-6.738c-0.671-0.107-1.352-0.184-2.037-0.223L11.61,6.403V6.999z"/>
		<path fill="#EF4043" d="M5.609,13H4.051l-3.498,2.326c-0.142,0.594-0.257,1.197-0.345,1.81l5.401-3.594V13z"/>
		<polygon fill="#FFFFFF" points="10.664,29.668 12.314,27.186 9.525,28.241 8.61,25.404 7.699,28.241 4.908,27.186 6.559,29.668 
			3.993,31.191 6.963,31.449 6.556,34.402 8.61,32.243 10.668,34.402 10.259,31.449 13.227,31.191 		"/>
		<polygon fill="#FFFFFF" points="32.119,17.353 32.925,16.14 31.564,16.655 31.115,15.268 30.669,16.655 29.309,16.14 
			30.116,17.353 28.859,18.096 30.314,18.223 30.111,19.668 31.115,18.61 32.121,19.668 31.919,18.223 33.375,18.096 		"/>
	</g>
</g>
</svg>
