<?xml version="1.0" encoding="utf-8"?>
<!-- Generator: Adobe Illustrator 16.0.0, SVG Export Plug-In . SVG Version: 6.00 Build 0)  -->
<!DOCTYPE svg PUBLIC "-//W3C//DTD SVG 1.1//EN" "http://www.w3.org/Graphics/SVG/1.1/DTD/svg11.dtd">
<svg version="1.1" id="Layer_1" xmlns="http://www.w3.org/2000/svg" xmlns:xlink="http://www.w3.org/1999/xlink" x="0px" y="0px"
	 width="40px" height="40px" viewBox="0 0 40 40" enable-background="new 0 0 40 40" xml:space="preserve">
<g>
	<g>
		<path fill="#D52B27" d="M20.001,40c8.071,0,15.019-4.782,18.181-11.667H1.819C4.98,35.218,11.93,40,20.001,40z"/>
		<path fill="#FFFFFF" d="M20.001,0C11.93,0,4.98,4.785,1.819,11.667h36.363C35.02,4.785,28.072,0,20.001,0z"/>
		<path fill="#059967" d="M0,20c0,2.977,0.654,5.798,1.819,8.333h36.363C39.346,25.798,40,22.977,40,20
			c0-2.976-0.654-5.798-1.818-8.333H1.819C0.654,14.202,0,17.024,0,20z"/>
	</g>
</g>
<path fill="#D0D0D5" d="M2.951,11.667C6.046,5.361,12.515,1,20,1c7.485,0,13.954,4.361,17.049,10.667h1.115
	C35.002,4.787,28.068,0,20,0C11.932,0,4.998,4.787,1.836,11.667H2.951z"/>
</svg>
