<?xml version="1.0" encoding="utf-8"?>
<!-- Generator: Adobe Illustrator 16.0.0, SVG Export Plug-In . SVG Version: 6.00 Build 0)  -->
<!DOCTYPE svg PUBLIC "-//W3C//DTD SVG 1.0//EN" "http://www.w3.org/TR/2001/REC-SVG-20010904/DTD/svg10.dtd">
<svg version="1.0" id="Layer_1" xmlns="http://www.w3.org/2000/svg" xmlns:xlink="http://www.w3.org/1999/xlink" x="0px" y="0px"
	 width="40px" height="40px" viewBox="0 0 40 40" enable-background="new 0 0 40 40" xml:space="preserve">
<g>
	<g>
		<path fill="#007A3D" d="M20,40c8.068,0,15.019-4.784,18.177-11.667H1.82C4.982,35.216,11.93,40,20,40z"/>
		<path fill="#D81E05" d="M20,0C11.93,0,4.982,4.782,1.82,11.665h36.358C35.02,4.782,28.068,0,20,0z"/>
		<path fill="#F7E214" d="M0,20c0,2.974,0.657,5.797,1.82,8.333h36.358C39.344,25.797,40,22.974,40,20s-0.656-5.797-1.822-8.335
			H1.82C0.657,14.203,0,17.026,0,20z"/>
	</g>
</g>
</svg>
