<?xml version="1.0" encoding="utf-8"?>
<!-- Generator: Adobe Illustrator 16.0.0, SVG Export Plug-In . SVG Version: 6.00 Build 0)  -->
<!DOCTYPE svg PUBLIC "-//W3C//DTD SVG 1.0//EN" "http://www.w3.org/TR/2001/REC-SVG-20010904/DTD/svg10.dtd">
<svg version="1.0" id="Layer_1" xmlns="http://www.w3.org/2000/svg" xmlns:xlink="http://www.w3.org/1999/xlink" x="0px" y="0px"
	 width="40px" height="40px" viewBox="0 0 40 40" enable-background="new 0 0 40 40" xml:space="preserve">
<g>
	<g>
		<path fill="#00ABC9" d="M3.871,31.793C7.512,36.761,13.37,40,20,40c8.67,0,16.03-5.526,18.804-13.242H10.451L3.871,31.793z"/>
		<path fill="#FAE042" d="M19.279,20.002l-8.828,6.756h28.353C39.563,24.644,40,22.376,40,20.002c0-2.375-0.437-4.646-1.196-6.757
			H10.451L19.279,20.002z"/>
		<path fill="#00ABC9" d="M38.804,13.245C36.03,5.529,28.67,0,20,0C13.37,0,7.512,3.24,3.871,8.208l6.58,5.037H38.804z"/>
		<path d="M10.451,13.245l-6.58-5.037c-1.12,1.53-2.023,3.221-2.676,5.037C0.436,15.356,0,17.627,0,20.002
			c0,2.374,0.436,4.642,1.195,6.756c0.652,1.816,1.556,3.506,2.676,5.035l6.58-5.035l8.828-6.756L10.451,13.245z"/>
	</g>
</g>
</svg>
