<?xml version="1.0" encoding="utf-8"?>
<!-- Generator: Adobe Illustrator 16.0.0, SVG Export Plug-In . SVG Version: 6.00 Build 0)  -->
<!DOCTYPE svg PUBLIC "-//W3C//DTD SVG 1.1//EN" "http://www.w3.org/Graphics/SVG/1.1/DTD/svg11.dtd">
<svg version="1.1" id="Layer_1" xmlns="http://www.w3.org/2000/svg" xmlns:xlink="http://www.w3.org/1999/xlink" x="0px" y="0px"
	 width="40px" height="40px" viewBox="0 0 40 40" enable-background="new 0 0 40 40" xml:space="preserve">
<g>
	<g>
		<path fill="#E31937" d="M0,20.001c0,6.541,3.142,12.351,7.997,15.998V4.001C3.142,7.649,0,13.458,0,20.001z"/>
		<path fill="#E31937" d="M40,20.001c0-6.543-3.145-12.352-8.002-16v31.998C36.855,32.354,40,26.542,40,20.001z"/>
		<path fill="#FFFFFF" d="M7.997,4.001v31.998c3.345,2.512,7.499,4,12.002,4s8.655-1.488,11.999-4V4.001
			C28.654,1.489,24.502,0,19.999,0S11.342,1.491,7.997,4.001z"/>
		<path fill="#E31937" d="M19.997,31.659h0.411l-0.132-5.445c0-0.184,0.229-0.328,0.38-0.326c1.707,0.205,3.24,0.388,4.945,0.595
			l-0.434-1.486c-0.07-0.264,0.029-0.549,0.225-0.707l4.961-4.211l-1.027-0.506c-0.449-0.17-0.322-0.436-0.163-1.072l0.757-2.88
			l-2.883,0.635c-0.279,0.044-0.467-0.144-0.51-0.319l-0.373-1.355l-2.274,2.67c-0.325,0.424-0.983,0.424-0.778-0.563l0.977-5.399
			l-1.307,0.708c-0.367,0.211-0.733,0.247-0.939-0.136l-1.834-3.517l-1.83,3.517c-0.207,0.383-0.572,0.347-0.941,0.136l-1.304-0.708
			l0.975,5.399c0.202,0.987-0.452,0.987-0.776,0.563l-2.279-2.67l-0.37,1.355c-0.044,0.176-0.229,0.363-0.51,0.319L10.08,15.62
			l0.756,2.88c0.162,0.638,0.29,0.902-0.161,1.072l-1.029,0.506l4.961,4.211c0.195,0.158,0.297,0.443,0.227,0.707l-0.435,1.486
			c1.706-0.207,3.239-0.39,4.943-0.595c0.155-0.002,0.383,0.144,0.381,0.326l-0.132,5.445H19.997z"/>
	</g>
</g>
<g>
	<path fill="#D0D0D5" d="M7.997,4.029v1.258C11.272,2.611,15.45,1,20,1c4.547,0,8.724,1.609,11.998,4.284V4.025
		C28.653,1.509,24.508,0,20,0C15.49,0,11.343,1.511,7.997,4.029z"/>
	<path fill="#D0D0D5" d="M31.998,35.975v-1.258C28.724,37.391,24.547,39,20,39c-4.55,0-8.728-1.61-12.003-4.287v1.258
		C11.343,38.489,15.49,40,20,40C24.508,40,28.653,38.49,31.998,35.975z"/>
</g>
</svg>
