<svg xmlns="http://www.w3.org/2000/svg" width="40" height="40" viewBox="0 0 40 40">
    <g fill="none" fill-rule="evenodd">
        <g>
            <g>
                <path fill="#009543" d="M20 0C8.954 0 0 8.954 0 20c0 2.721.549 5.314 1.532 7.679L27.627 1.514C25.277.543 22.703 0 20 0" transform="translate(-878.000000, -321.000000) translate(878.000000, 321.000000)"/>
                <path fill="#DC241F" d="M20 40c11.046 0 20-8.954 20-20 0-2.752-.557-5.374-1.563-7.76L12.292 38.457C14.664 39.448 17.268 40 20 40" transform="translate(-878.000000, -321.000000) translate(878.000000, 321.000000)"/>
                <path fill="#FBDE4A" d="M1.533 27.68c2.023 4.858 5.905 8.746 10.76 10.776L38.438 12.24c-2.043-4.848-5.945-8.716-10.81-10.726L1.532 27.68z" transform="translate(-878.000000, -321.000000) translate(878.000000, 321.000000)"/>
            </g>
        </g>
    </g>
</svg>
