<?xml version="1.0" encoding="utf-8"?>
<!-- Generator: Adobe Illustrator 16.0.0, SVG Export Plug-In . SVG Version: 6.00 Build 0)  -->
<!DOCTYPE svg PUBLIC "-//W3C//DTD SVG 1.1//EN" "http://www.w3.org/Graphics/SVG/1.1/DTD/svg11.dtd">
<svg version="1.1" id="Layer_1" xmlns="http://www.w3.org/2000/svg" xmlns:xlink="http://www.w3.org/1999/xlink" x="0px" y="0px"
	 width="40px" height="40px" viewBox="0 0 40 40" enable-background="new 0 0 40 40" xml:space="preserve">
<g>
	<g>
		<g>
			<path fill="#D33327" d="M20.001,40C31.047,40,40,31.046,40,20H0C0,31.046,8.954,40,20.001,40z"/>
			<path fill="#FFFFFF" d="M20.001,0C8.954,0,0,8.955,0,20h40C40,8.955,31.047,0,20.001,0z"/>
			<path fill="#23449C" d="M18.018,20V0.101C7.903,1.097,0,9.624,0,20H18.018z"/>
		</g>
		<polygon fill="#FFFFFF" points="9.046,6.473 10.239,10.139 14.095,10.139 10.976,12.406 12.165,16.07 9.046,13.806 5.929,16.07 
			7.119,12.406 3.997,10.139 7.857,10.139 		"/>
	</g>
</g>
<path fill="#D0D0D5" d="M20,0c-0.669,0-1.33,0.036-1.982,0.1v1.004C18.67,1.037,19.331,1,20,1c10.477,0,19,8.523,19,19h1
	C40,8.954,31.046,0,20,0z"/>
</svg>
