<?xml version="1.0" encoding="utf-8"?>
<!-- Generator: Adobe Illustrator 16.0.0, SVG Export Plug-In . SVG Version: 6.00 Build 0)  -->
<!DOCTYPE svg PUBLIC "-//W3C//DTD SVG 1.0//EN" "http://www.w3.org/TR/2001/REC-SVG-20010904/DTD/svg10.dtd">
<svg version="1.0" id="Layer_1" xmlns="http://www.w3.org/2000/svg" xmlns:xlink="http://www.w3.org/1999/xlink" x="0px" y="0px"
	 width="40px" height="40px" viewBox="0 0 40 40" enable-background="new 0 0 40 40" xml:space="preserve">
<g>
	<g>
		<circle fill="#FFFFFF" cx="20" cy="20" r="20"/>
		<g>
			<path fill="#EC8123" d="M32.236,9.52c0.646,0.016,1.217-0.337,1.759-0.64c-0.097,0.211-0.112,0.459-0.233,0.662
				c-0.188,0.09-0.421,0.039-0.602,0.16c-0.284,0.187-0.594,0.345-0.863,0.555c-0.234,0.182-0.211,0.586-0.527,0.677
				c-0.436,0.121-0.715,0.488-0.984,0.827c-0.384,0.075-0.708,0.303-1.069,0.451c-0.276,0.114-0.479,0.347-0.706,0.543
				c-0.225,0.2-0.473,0.397-0.572,0.698c-0.066,0.151-0.083,0.366-0.248,0.451c-0.232,0.143-0.51,0.045-0.759,0.05
				c-0.292,0.07-0.646,0.243-0.639,0.587c-0.392,0.31-0.392,0.856-0.339,1.302c0.084,0.428,0.414,0.735,0.699,1.028
				c0.145,0.136,0.174,0.332,0.262,0.497c0.174,0.225,0.498,0.309,0.611,0.586c0.075,0.188,0.248,0.301,0.352,0.467
				c0.084,0.158,0.055,0.345,0.084,0.511c-0.369-0.24-0.811-0.33-1.239-0.377c-0.204,0.128-0.444,0.149-0.678,0.145
				c0.068,0.271-0.194,0.505-0.458,0.413c-0.279-0.147-0.505-0.43-0.834-0.45c-0.514-0.046-1.137-0.092-1.49,0.361
				c-0.256,0.381-0.149,0.87-0.187,1.305c-0.204,0.132-0.317,0.341-0.384,0.566c-0.189-0.029-0.385-0.091-0.572-0.029
				c-0.232,0.067-0.368,0.293-0.518,0.474c-0.377,0.059-0.769,0.173-1.038,0.459c-0.181,0.053-0.354,0.127-0.503,0.239
				c-0.145,0.029-0.272,0.092-0.384,0.18c-0.187-0.038-0.385-0.051-0.573-0.021c-0.165,0.278-0.533,0.293-0.812,0.203
				c-0.443-0.12-0.916-0.045-1.301,0.188c-0.428,0.129-0.789,0.452-0.969,0.857c-0.128,0.337,0.12,0.64,0.302,0.896
				c-0.339-0.039-0.694-0.046-1.032-0.091c0.123-0.495-0.255-0.902-0.602-1.203c-0.322-0.227-0.722,0.037-1.075-0.075
				c-0.24,0.129-0.474,0.302-0.765,0.233c-0.069,0.037-0.144,0.074-0.221,0.113c-0.315-0.113-0.63-0.24-0.945-0.352
				c-0.211-0.071-0.308-0.296-0.496-0.387c-0.205-0.051-0.43-0.014-0.603-0.15c-0.182-0.021-0.398-0.013-0.497-0.195
				c-0.173-0.255-0.465-0.361-0.714-0.518c-0.046-0.264-0.157-0.504-0.195-0.768c-0.038-0.144-0.043-0.316-0.15-0.437
				c-0.128-0.104-0.286-0.166-0.421-0.264c-0.076-0.171-0.129-0.354-0.256-0.495c0.15-0.203,0.008-0.405-0.05-0.601
				c0-0.247,0.065-0.504-0.017-0.745C8.65,18.182,8.462,17.98,8.4,17.725c-0.031-0.212,0.068-0.415,0.151-0.603
				c0.159,0.331,0.488,0.52,0.745,0.775c0.271,0.11,0.624,0.104,0.872-0.065c0.24-0.161,0.488-0.319,0.707-0.501
				c0.189-0.238,0.203-0.57,0.384-0.817c0.076-0.098,0.165-0.188,0.247-0.278c0.414-0.068,0.76-0.354,1.189-0.324
				c0.632,0.054,1.188,0.407,1.752,0.654c0.179,0.1,0.368-0.008,0.526-0.098c0.3-0.187,0.585-0.467,0.662-0.835
				c0.104-0.474,0.104-0.963,0.104-1.443c0.008-0.345-0.104-0.677-0.114-1.016c0.534,0.226,1.084,0.415,1.655,0.542
				c0.204,0.023,0.397-0.05,0.602-0.068c0.157,0,0.293,0.083,0.45,0.099c0.131-0.031,0.248-0.076,0.377-0.104
				c0.166,0.028,0.293,0.177,0.457,0.225c0.302,0.006,0.603-0.068,0.889,0.013c0.346,0.099,0.708,0.047,1.06,0.122
				c0.66-0.061,1.354-0.047,1.972-0.324c0.284-0.089,0.601,0.031,0.877-0.105c0.31-0.151,0.543-0.42,0.836-0.593
				c0.18-0.137,0.406,0,0.609-0.024c0.812-0.039,1.564-0.413,2.271-0.781c0.322-0.166,0.616-0.397,0.971-0.504
				c0.426-0.089,0.631-0.526,0.895-0.827c0.51,0.091,0.924-0.233,1.382-0.399c0.279-0.121,0.413-0.42,0.649-0.601
				c0.178-0.067,0.375-0.077,0.562-0.114C32.169,9.657,32.198,9.59,32.236,9.52L32.236,9.52z"/>
			<g>
				<path fill="#006752" d="M13.258,24.98c0.437,0.359,0.656,0.923,0.736,1.473c0.045,0.256,0,0.52-0.098,0.767
					c-0.36-0.232-0.562-0.631-0.653-1.038C13.152,25.784,13.129,25.369,13.258,24.98L13.258,24.98z"/>
				<path fill="#006752" d="M26.062,26.077c0.114-0.413,0.315-0.826,0.654-1.097c0.164,0.525,0.091,1.104-0.12,1.608
					c-0.097,0.265-0.296,0.474-0.521,0.631C25.92,26.854,25.951,26.445,26.062,26.077L26.062,26.077z"/>
				<path fill="#006752" d="M11.273,25.363c0.535,0.068,1.015,0.361,1.399,0.73c0.254,0.237,0.441,0.557,0.451,0.91
					C12.289,26.821,11.393,26.279,11.273,25.363L11.273,25.363z"/>
				<path fill="#006752" d="M27.424,25.979c0.363-0.311,0.795-0.558,1.285-0.616c-0.127,0.916-1.021,1.458-1.857,1.641
					C26.859,26.589,27.115,26.235,27.424,25.979L27.424,25.979z"/>
				<path fill="#006752" d="M14.228,26.514c-0.022-0.218,0.069-0.42,0.174-0.61c0.518,0.534,0.886,1.39,0.475,2.085
					C14.513,27.581,14.25,27.067,14.228,26.514L14.228,26.514z"/>
				<path fill="#006752" d="M25.102,27.988c-0.414-0.695-0.047-1.558,0.474-2.085c0.126,0.212,0.201,0.444,0.173,0.686
					C25.701,27.114,25.447,27.604,25.102,27.988L25.102,27.988z"/>
				<path fill="#006752" d="M15.438,26.628c0.437,0.366,0.767,0.892,0.819,1.471c0.023,0.234-0.052,0.459-0.157,0.664
					C15.464,28.271,15.258,27.378,15.438,26.628L15.438,26.628z"/>
				<path fill="#006752" d="M23.716,28.099c0.053-0.569,0.376-1.104,0.82-1.465c0.189,0.751-0.022,1.647-0.655,2.129
					C23.775,28.558,23.693,28.333,23.716,28.099L23.716,28.099z"/>
				<path fill="#006752" d="M11.521,27.363c0.805-0.173,1.737-0.054,2.362,0.518c-0.309,0.257-0.731,0.325-1.113,0.234
					C12.295,28.005,11.814,27.769,11.521,27.363L11.521,27.363z"/>
				<path fill="#006752" d="M16.5,27.195c0.397,0.363,0.758,0.798,0.909,1.325c0.076,0.262,0.03,0.542-0.091,0.788
					c-0.482-0.352-0.737-0.923-0.849-1.504C16.432,27.604,16.454,27.4,16.5,27.195L16.5,27.195z"/>
				<path fill="#006752" d="M22.604,28.4c0.172-0.474,0.506-0.871,0.873-1.205c0.128,0.478-0.023,0.964-0.226,1.386
					c-0.137,0.286-0.347,0.542-0.594,0.728C22.514,29.031,22.492,28.703,22.604,28.4L22.604,28.4z"/>
				<path fill="#006752" d="M26.092,27.881c0.625-0.571,1.559-0.69,2.361-0.518c-0.291,0.413-0.773,0.642-1.254,0.752
					C26.821,28.206,26.4,28.138,26.092,27.881L26.092,27.881z"/>
				<path fill="#006752" d="M17.649,27.612c0.79,0.366,1.135,1.315,0.99,2.144C18.032,29.235,17.537,28.438,17.649,27.612
					L17.649,27.612z"/>
				<path fill="#006752" d="M21.333,29.756c-0.144-0.828,0.204-1.777,1-2.144C22.438,28.438,21.942,29.235,21.333,29.756
					L21.333,29.756z"/>
				<path fill="#006752" d="M12.709,28.68c0.181-0.174,0.398-0.338,0.664-0.361c0.472-0.054,0.939,0.119,1.397,0.233
					c-0.281,0.345-0.754,0.411-1.172,0.411C13.28,28.963,12.963,28.874,12.709,28.68L12.709,28.68z"/>
				<path fill="#006752" d="M25.206,28.552c0.457-0.114,0.925-0.287,1.406-0.233c0.255,0.023,0.474,0.188,0.653,0.361
					c-0.421,0.331-1,0.331-1.498,0.21C25.552,28.845,25.355,28.724,25.206,28.552L25.206,28.552z"/>
				<path fill="#006752" d="M13.95,29.748c0.443-0.654,1.383-0.995,2.103-0.617C15.52,29.665,14.702,30.018,13.95,29.748
					L13.95,29.748z"/>
				<path fill="#006752" d="M23.979,29.108c0.716-0.342,1.618,0,2.047,0.64c-0.655,0.247-1.376-0.017-1.903-0.43
					C24.055,29.258,23.957,29.206,23.979,29.108L23.979,29.108z"/>
				<path fill="#006752" d="M15.161,30.332c0.511-0.55,1.345-0.796,2.066-0.55c-0.143,0.228-0.314,0.445-0.563,0.566
					C16.197,30.589,15.635,30.521,15.161,30.332L15.161,30.332z"/>
				<path fill="#006752" d="M22.754,29.782c0.715-0.246,1.549,0,2.06,0.55c-0.474,0.183-1.038,0.257-1.502,0.017
					C23.07,30.228,22.896,30.01,22.754,29.782L22.754,29.782z"/>
				<path fill="#006752" d="M17.927,29.777c0.685,0.156,1.361,0.374,2.062,0.457c0.698-0.083,1.375-0.301,2.06-0.452
					c-0.535,0.205-1.075,0.394-1.624,0.566c0.338,0.096,0.667,0.255,0.962,0.45c-0.473-0.081-0.924-0.24-1.398-0.317
					c-0.476,0.077-0.925,0.236-1.393,0.317c0.293-0.201,0.617-0.354,0.956-0.45C19.011,30.176,18.463,29.987,17.927,29.777
					L17.927,29.777z"/>
				<path fill="#006752" d="M16.334,31.099c0.435-0.63,1.203-1.03,1.969-0.977c-0.173,0.332-0.383,0.669-0.738,0.833
					C17.184,31.145,16.747,31.131,16.334,31.099L16.334,31.099z"/>
				<path fill="#006752" d="M21.672,30.122c0.766-0.054,1.541,0.347,1.97,0.977c-0.45,0.032-0.94,0.046-1.339-0.202
					C22.002,30.725,21.828,30.417,21.672,30.122L21.672,30.122z"/>
			</g>
		</g>
	</g>
</g>
</svg>
