<?xml version="1.0" encoding="utf-8"?>
<!-- Generator: Adobe Illustrator 16.0.0, SVG Export Plug-In . SVG Version: 6.00 Build 0)  -->
<!DOCTYPE svg PUBLIC "-//W3C//DTD SVG 1.1//EN" "http://www.w3.org/Graphics/SVG/1.1/DTD/svg11.dtd">
<svg version="1.1" id="Layer_1" xmlns="http://www.w3.org/2000/svg" xmlns:xlink="http://www.w3.org/1999/xlink" x="0px" y="0px"
	 width="40px" height="40px" viewBox="0 0 40 40" enable-background="new 0 0 40 40" xml:space="preserve">
<g>
	<g>
		<path fill="#FFD900" d="M20.002,40c8.07,0,15.018-4.782,18.182-11.667H1.82C4.98,35.218,11.931,40,20.002,40z"/>
		<path d="M20.002,0C11.931,0,4.98,4.784,1.82,11.667h36.363C35.02,4.784,28.072,0,20.002,0z"/>
		<path fill="#ED1C24" d="M0,20c0,2.976,0.656,5.796,1.82,8.333h36.363C39.349,25.796,40,22.976,40,20
			c0-2.975-0.651-5.796-1.816-8.333H1.82C0.656,14.204,0,17.025,0,20z"/>
	</g>
</g>
</svg>
