<?xml version="1.0" encoding="utf-8"?>
<!-- Generator: Adobe Illustrator 16.0.0, SVG Export Plug-In . SVG Version: 6.00 Build 0)  -->
<!DOCTYPE svg PUBLIC "-//W3C//DTD SVG 1.1//EN" "http://www.w3.org/Graphics/SVG/1.1/DTD/svg11.dtd">
<svg version="1.1" id="Layer_1" xmlns="http://www.w3.org/2000/svg" xmlns:xlink="http://www.w3.org/1999/xlink" x="0px" y="0px"
	 width="40px" height="40px" viewBox="0 0 40 40" enable-background="new 0 0 40 40" xml:space="preserve">
<g>
	<g>
		<g>
			<path fill="#FFFFFF" d="M40,20C40,8.955,31.046,0,19.999,0v40C31.046,40,40,31.045,40,20z"/>
			<path fill="#0B8743" d="M0,20c0,11.045,8.956,20,19.999,20V0C8.956,0,0,8.955,0,20z"/>
		</g>
		<g>
			<polygon fill="#EC1D25" points="25.55,15.5 25.416,18.936 28.646,20.125 25.335,21.062 25.201,24.499 23.291,21.641 
				19.979,22.578 22.109,19.875 20.19,17.013 23.424,18.203 			"/>
			<path fill="#EC1D25" d="M22.012,28.5c-4.698,0-8.504-3.807-8.504-8.5c0-4.694,3.806-8.5,8.504-8.5
				c2.686,0,5.079,1.251,6.635,3.202C26.88,11.882,23.75,10,20.178,10c-5.521,0-10,4.477-10,10c0,5.525,4.479,10,10,10
				c3.572,0,6.702-1.881,8.468-4.7C27.091,27.25,24.697,28.5,22.012,28.5z"/>
		</g>
	</g>
</g>
<path fill="#D0D0D5" d="M20,0C20,0,20,0,20,0l-0.001,1C20,1,20,1,20,1c10.477,0,19,8.523,19,19s-8.523,19-19,19c0,0,0,0-0.001,0v1
	c0,0,0,0,0.001,0c11.046,0,20-8.954,20-20S31.046,0,20,0z"/>
</svg>
