<?xml version="1.0" encoding="utf-8"?>
<!-- Generator: Adobe Illustrator 16.0.0, SVG Export Plug-In . SVG Version: 6.00 Build 0)  -->
<!DOCTYPE svg PUBLIC "-//W3C//DTD SVG 1.1//EN" "http://www.w3.org/Graphics/SVG/1.1/DTD/svg11.dtd">
<svg version="1.1" id="Layer_1" xmlns="http://www.w3.org/2000/svg" xmlns:xlink="http://www.w3.org/1999/xlink" x="0px" y="0px"
	 width="40px" height="40px" viewBox="0 0 40 40" enable-background="new 0 0 40 40" xml:space="preserve">
<g>
	<g>
		<path fill="#FFFFFF" d="M20,40c8.07,0,15.02-4.781,18.182-11.666H1.82C4.979,35.219,11.93,40,20,40z"/>
		<path fill="#097DC2" d="M20,0C11.93,0,4.979,4.785,1.82,11.667h36.36C35.02,4.785,28.07,0,20,0z"/>
		<path fill="#010101" d="M0,20c0,2.977,0.654,5.796,1.82,8.334h36.36C39.346,25.796,40,22.977,40,20
			c0-2.975-0.654-5.794-1.818-8.333H1.82C0.654,14.206,0,17.025,0,20z"/>
	</g>
</g>
<path fill="#D0D0D5" d="M37.049,28.334C33.953,34.639,27.484,39,20,39c-7.485,0-13.954-4.361-17.049-10.666H1.836
	C4.998,35.213,11.932,40,20,40c8.067,0,15-4.787,18.164-11.666H37.049z"/>
</svg>
