<?xml version="1.0" encoding="utf-8"?>
<!-- Generator: Adobe Illustrator 16.0.0, SVG Export Plug-In . SVG Version: 6.00 Build 0)  -->
<!DOCTYPE svg PUBLIC "-//W3C//DTD SVG 1.1//EN" "http://www.w3.org/Graphics/SVG/1.1/DTD/svg11.dtd">
<svg version="1.1" id="Layer_1" xmlns="http://www.w3.org/2000/svg" xmlns:xlink="http://www.w3.org/1999/xlink" x="0px" y="0px"
	 width="40px" height="40px" viewBox="0 0 40 40" enable-background="new 0 0 40 40" xml:space="preserve">
<g>
	<g>
		<circle fill="#009531" cx="20" cy="20" r="20"/>
		<path fill="#FFFFFF" d="M18.396,13.809c0.024,0.151-0.005,0.307,0.006,0.461c0.01,0,0.029,0,0.039,0
			c0.03-0.08,0.048-0.158,0.064-0.239c0.02-0.242,0.025-0.491-0.05-0.723c-0.028-0.082-0.06-0.165-0.132-0.217
			c-0.063-0.01-0.101,0.056-0.139,0.099c-0.044,0.055,0.004,0.123,0.036,0.17C18.321,13.49,18.368,13.647,18.396,13.809z
			 M20.67,13.659c0.043,0.113,0.186,0.118,0.248,0.214c0.354,0.468,0.714,0.938,1.03,1.431c0.03,0.201,0.055,0.406,0.079,0.608
			l0.009,0.013c0.01,0.107,0.027,0.21,0.044,0.316c0.086,0.694,0.188,1.386,0.234,2.085c0.003,0.301,0.032,0.612-0.061,0.902
			c-0.024,0.102-0.041,0.208-0.024,0.312c0.078-0.003,0.107-0.089,0.137-0.147c0.188-0.437,0.228-0.92,0.215-1.389l-0.012-0.013
			c-0.001-0.445-0.096-0.88-0.118-1.321c-0.01-0.225-0.036-0.449-0.046-0.671c0.442,0.705,0.905,1.407,1.262,2.163
			c0.083,0.164,0.132,0.347,0.237,0.5c0.015-0.001,0.044-0.006,0.057-0.01c0.01-0.294-0.088-0.583-0.195-0.857
			c-0.187-0.45-0.426-0.875-0.674-1.297c-0.228-0.384-0.464-0.758-0.703-1.129c-0.066-0.096-0.042-0.217-0.054-0.325
			c-0.018-0.232-0.018-0.464-0.021-0.697c0.039,0.037,0.091,0.067,0.149,0.056c0.007-0.016,0.022-0.043,0.031-0.057
			c0.006-0.108-0.031-0.21-0.061-0.308c-0.088-0.272-0.21-0.53-0.322-0.796c-0.021-0.056-0.056-0.118-0.122-0.133
			c-0.08-0.016-0.127,0.063-0.151,0.126c-0.036,0.095-0.076,0.19-0.091,0.291c-0.014,0.093,0.039,0.181,0.091,0.251
			c-0.005,0.289,0.063,0.574,0.085,0.862c-0.007-0.016-0.014-0.032-0.021-0.046c-0.169-0.229-0.32-0.464-0.48-0.697
			c0.088,0.018,0.18,0.051,0.268,0.007c0.008-0.11-0.072-0.184-0.134-0.259c-0.215-0.233-0.461-0.431-0.695-0.641
			c-0.052-0.051-0.118-0.067-0.187-0.051c-0.009,0.012-0.023,0.039-0.033,0.053c-0.008,0.132,0.026,0.258,0.021,0.388
			C20.667,13.481,20.645,13.574,20.67,13.659z M22.911,13.442c0.077,0.065,0.126,0.154,0.168,0.245
			c0.071,0.173-0.026,0.348,0.008,0.524c0.077-0.017,0.106-0.1,0.139-0.162c0.114-0.277,0.046-0.593-0.088-0.851
			c-0.042-0.078-0.098-0.18-0.205-0.165c-0.068,0.082-0.14,0.182-0.12,0.294C22.827,13.376,22.876,13.408,22.911,13.442z
			 M16.828,15.626c0.134,0.008,0.226-0.116,0.275-0.226c0.112-0.26,0.2-0.53,0.289-0.801c0.038-0.101,0.067-0.21,0.143-0.292
			c0.011,0.005,0.032,0.009,0.043,0.011c0.004,0.061,0.009,0.115,0.006,0.177c-0.029,0.265-0.038,0.537,0.024,0.797
			c0.042,0.183,0.135,0.363,0.295,0.464c0.166,0.11,0.385,0.092,0.56,0.021c0.286-0.116,0.527-0.338,0.675-0.609
			c0.158,0.198,0.348,0.409,0.61,0.466c0.191,0.043,0.389-0.075,0.487-0.234c0.153-0.246,0.207-0.546,0.178-0.83
			c-0.024-0.201-0.061-0.402-0.114-0.596c-0.022-0.098-0.074-0.188-0.091-0.291c0.08,0.013,0.129,0.083,0.195,0.121
			c0.036,0.022,0.081,0.009,0.12,0.009c0.005-0.066,0.007-0.134-0.018-0.196c-0.063-0.19-0.161-0.371-0.311-0.51
			c-0.063-0.056-0.131-0.132-0.225-0.115c-0.041,0.061-0.078,0.127-0.109,0.195c-0.038,0.088-0.154,0.14-0.149,0.251
			c0.062,0.125,0.104,0.254,0.152,0.383c0.074,0.226,0.142,0.456,0.18,0.693c0.024,0.181,0.05,0.374-0.019,0.547
			c-0.036,0.09-0.129,0.157-0.228,0.146c-0.116-0.016-0.206-0.103-0.267-0.198c-0.149-0.233-0.22-0.509-0.265-0.781
			c-0.007-0.265-0.021-0.53-0.068-0.793c-0.035-0.2-0.087-0.401-0.193-0.574c-0.018,0-0.035,0-0.054,0
			c-0.069,0.103-0.11,0.225-0.17,0.335c-0.057,0.1,0.021,0.205,0.038,0.305c0.067,0.328,0.139,0.662,0.131,1
			c0.001,0.174-0.034,0.353-0.133,0.499c-0.095,0.138-0.245,0.233-0.396,0.298c-0.121,0.05-0.263,0.071-0.383,0.003
			c-0.128-0.075-0.181-0.231-0.181-0.37c-0.007-0.352-0.018-0.703,0.039-1.047c0.014-0.11,0.053-0.225,0.027-0.334
			c-0.022-0.059-0.059-0.113-0.109-0.146c-0.071-0.033-0.134,0.021-0.175,0.074c-0.146,0.183-0.258,0.392-0.365,0.599
			c-0.147,0.291-0.28,0.592-0.379,0.902c-0.026,0.084-0.1,0.198-0.207,0.159c-0.146-0.067-0.218-0.226-0.271-0.365
			c-0.014-0.055-0.026-0.108-0.038-0.162c-0.04-0.222-0.045-0.449-0.028-0.671c0.011-0.134,0.062-0.268,0.062-0.403
			c-0.012,0-0.031,0.002-0.041,0.002c-0.109,0.221-0.168,0.469-0.197,0.714c-0.049,0.397,0.068,0.813,0.319,1.124
			C16.582,15.484,16.682,15.61,16.828,15.626z M20.875,20.028c0.034,0.089,0.141,0.113,0.225,0.108
			c0.234,0.005,0.419-0.167,0.593-0.296c0.059-0.055,0.149-0.094,0.168-0.184c-0.048-0.005-0.09-0.003-0.131,0.015
			c-0.198,0.071-0.376,0.208-0.594,0.231c-0.017-0.025-0.046-0.049-0.046-0.083c-0.016-0.161,0.093-0.304,0.072-0.467
			c-0.136-0.02-0.251,0.076-0.356,0.146c-0.063,0.045-0.15,0.076-0.175,0.155c0.098,0.007,0.186-0.053,0.287-0.061
			C20.931,19.742,20.823,19.881,20.875,20.028z M16.335,16.763c0.089,0.208,0.197,0.401,0.295,0.602
			c0.054,0.117,0.093,0.25,0.066,0.377c-0.029,0.161-0.14,0.292-0.257,0.402c-0.224,0.188-0.44,0.391-0.684,0.553
			c-0.005-0.093-0.005-0.187,0-0.282c0-0.124,0.036-0.248-0.005-0.369c-0.012,0-0.032-0.003-0.046-0.003
			c-0.122,0.207-0.205,0.437-0.283,0.665c-0.026,0.091-0.052,0.182-0.076,0.274c-0.003,0.025-0.025,0.037-0.045,0.052
			c-0.404,0.276-0.829,0.526-1.259,0.759c-0.183,0.103-0.371,0.186-0.551,0.293c-0.003,0.022-0.007,0.043-0.011,0.064
			c0.047,0.007,0.094,0.021,0.14,0.007c0.582-0.169,1.154-0.355,1.704-0.61c0.027,0.205,0.074,0.427,0.224,0.577
			c0.168,0.179,0.438,0.205,0.668,0.179c0.381-0.055,0.698-0.297,0.974-0.555c0.266-0.262,0.497-0.548,0.707-0.856
			c0.116,0.299,0.287,0.579,0.531,0.791c0.388,0.347,0.907,0.504,1.413,0.556c0.099,0,0.243,0.027,0.296-0.085
			c0.04-0.124,0.091-0.251,0.084-0.383c-0.101-0.077-0.224-0.099-0.336-0.137c-0.152-0.06-0.308-0.141-0.399-0.28
			c-0.063-0.083-0.067-0.213,0.006-0.291c0.104-0.126,0.27-0.173,0.421-0.234c0.459-0.167,0.921-0.311,1.399-0.403
			c0.134-0.032,0.286-0.014,0.397-0.104c0.093-0.083,0.12-0.21,0.159-0.321c0.029-0.067,0.029-0.135,0.02-0.204
			c-0.134-0.015-0.267-0.003-0.397,0.01c-0.543,0.03-1.085,0.039-1.631,0.039c-0.223-0.002-0.442,0.004-0.666-0.013
			c0.352-0.191,0.729-0.329,1.109-0.467c0.074-0.044,0.149,0.025,0.226,0.029c0-0.033,0-0.066-0.003-0.1
			c0.2-0.078,0.413-0.158,0.569-0.315c0.126-0.12,0.224-0.286,0.21-0.465c0-0.188-0.14-0.337-0.291-0.432
			c-0.19-0.12-0.402-0.247-0.632-0.238c-0.127-0.002-0.245,0.067-0.323,0.167c-0.112,0.149-0.215,0.315-0.25,0.503
			c-0.013,0.148,0.044,0.289,0.12,0.413c-0.322,0.096-0.635,0.213-0.945,0.33c-0.15,0.061-0.307,0.109-0.44,0.199
			c-0.126,0.086-0.182,0.236-0.222,0.376c-0.027,0.098-0.08,0.199-0.053,0.299c0.056,0.056,0.139,0.048,0.206,0.061
			c0.214,0.013,0.426,0.005,0.641,0.026c0.2,0.016,0.407,0.048,0.576,0.162c0.028,0.019,0.06,0.037,0.073,0.071
			c-0.265,0.105-0.535,0.278-0.644,0.557c-0.063,0.148-0.042,0.312-0.006,0.464c-0.298-0.082-0.601-0.237-0.755-0.508
			c-0.186-0.324-0.202-0.706-0.266-1.063c-0.032-0.238-0.09-0.47-0.133-0.702l-0.002,0.034c-0.1-0.438-0.281-0.855-0.464-1.259
			c-0.031-0.087-0.065-0.172-0.123-0.244c-0.104,0.06-0.127,0.189-0.178,0.291c-0.06,0.116-0.09,0.252-0.049,0.382
			c0.129,0.353,0.248,0.708,0.357,1.069l0.007,0.014c0.039,0.146,0.089,0.291,0.129,0.439l0.007,0.014
			c0.029,0.122,0.067,0.241,0.097,0.363c-0.194,0.374-0.439,0.719-0.747,1.004c-0.229,0.206-0.488,0.4-0.798,0.454
			c-0.146,0.016-0.313,0.028-0.433-0.077c-0.096-0.083-0.107-0.22-0.1-0.336c0.319-0.168,0.601-0.399,0.849-0.658
			c0.2-0.195,0.378-0.429,0.455-0.698c0.051-0.219,0.041-0.444,0-0.663c-0.018-0.057-0.032-0.119-0.047-0.178
			c-0.039-0.124-0.075-0.25-0.131-0.368c0.048-0.009,0.097-0.019,0.142-0.029c0.012-0.126-0.07-0.234-0.142-0.332
			c-0.085-0.112-0.172-0.225-0.276-0.315c-0.037-0.039-0.112-0.056-0.149-0.009c-0.062,0.074-0.096,0.164-0.137,0.249
			c-0.035,0.083-0.083,0.177-0.063,0.271C16.19,16.694,16.274,16.727,16.335,16.763z M20.293,16.416
			c0.145,0.012,0.257,0.107,0.377,0.17c0.043,0.024,0.083,0.054,0.117,0.091c-0.147,0.079-0.318,0.093-0.481,0.131
			c-0.026-0.111-0.032-0.227-0.049-0.34C20.265,16.458,20.284,16.428,20.293,16.416z M19.281,16.433
			c-0.021,0.003-0.042,0.003-0.059,0.005c-0.052-0.059-0.093-0.125-0.122-0.203c-0.021-0.054-0.034-0.128-0.102-0.146
			c-0.033,0.085-0.035,0.178-0.036,0.271c-0.016,0.041-0.029,0.083-0.046,0.127c-0.026,0-0.052,0-0.08,0.003
			c-0.074-0.101-0.101-0.223-0.126-0.34c-0.007-0.014-0.022-0.038-0.03-0.05c-0.049,0.174-0.062,0.378,0.042,0.536
			c0.034,0.062,0.114,0.112,0.186,0.081c0.082-0.026,0.097-0.122,0.134-0.19c0.016,0,0.032,0,0.051,0
			c0.045,0.042,0.087,0.104,0.158,0.097c0.108,0.006,0.188-0.097,0.206-0.195c0.026-0.159-0.018-0.325-0.096-0.462
			c-0.062,0.097-0.026,0.217-0.036,0.325C19.308,16.339,19.294,16.387,19.281,16.433z M29.453,14.413
			c0.022,0.109-0.004,0.224,0.034,0.333c0.011,0,0.034,0,0.045,0c0.075-0.146,0.082-0.312,0.085-0.469
			c-0.012-0.295-0.061-0.604-0.232-0.854c-0.1-0.006-0.137,0.106-0.175,0.181c-0.034,0.061-0.008,0.134,0.028,0.188
			C29.36,13.977,29.42,14.194,29.453,14.413z M27.156,17.805c0.1-0.013,0.139-0.118,0.178-0.199
			c0.062-0.221-0.029-0.457-0.183-0.622c-0.036-0.044-0.095-0.067-0.149-0.044c-0.075,0.048-0.127,0.132-0.122,0.221
			c0.105,0.075,0.225,0.146,0.278,0.271C27.22,17.553,27.125,17.683,27.156,17.805z M26.055,15.444
			c0.029,0.001,0.06,0.006,0.088,0.004c0.045,0.001,0.059-0.054,0.084-0.08c0.124,0.132,0.199,0.292,0.273,0.452
			c0.026,0.058,0.053,0.123,0.102,0.166c0.066,0.011,0.074-0.079,0.083-0.128c0.011-0.225-0.005-0.453,0-0.679
			c0.021-0.05,0.025-0.11,0.071-0.143c0.08-0.006,0.135,0.063,0.217,0.047c0-0.044,0.022-0.093-0.004-0.135
			c-0.037-0.066-0.071-0.13-0.098-0.198c-0.022-0.012-0.045-0.021-0.068-0.033c-0.107,0.054-0.201,0.143-0.234,0.264
			c-0.016,0.15,0,0.301,0.02,0.451c0.007,0.069,0.007,0.145-0.024,0.21c-0.066-0.077-0.096-0.183-0.138-0.276
			c-0.065-0.134-0.129-0.269-0.231-0.376c-0.042,0.003-0.088-0.007-0.12,0.027c-0.043,0.036-0.043,0.092-0.043,0.141
			c0.017,0.067,0.015,0.138,0,0.208C26.041,15.392,26.048,15.417,26.055,15.444z M23.206,14.599
			c-0.047,0.082-0.051,0.178-0.081,0.266c-0.014,0.037-0.046,0.037-0.075,0.034c-0.029-0.066-0.063-0.136-0.088-0.207
			c-0.01,0-0.029-0.007-0.036-0.009c-0.044,0.134-0.02,0.282,0.053,0.399c0.105,0.021,0.176-0.071,0.254-0.121
			c0.062,0.031,0.113,0.077,0.177,0.111c0.051,0.017,0.103-0.02,0.146-0.047c0.006-0.022,0.016-0.045,0.024-0.069
			c0.016-0.142,0.016-0.285-0.024-0.424c-0.015,0.001-0.033,0.005-0.048,0.009c-0.011,0.022-0.021,0.047-0.03,0.073
			c-0.031,0.095-0.026,0.23-0.136,0.269c-0.063-0.068-0.083-0.159-0.099-0.248C23.232,14.625,23.216,14.607,23.206,14.599z
			 M14.846,18.579c0.016-0.007,0.046-0.017,0.059-0.024c0.085-0.1,0.124-0.232,0.153-0.356c0.035-0.129,0.007-0.265-0.014-0.394
			c-0.018-0.14-0.263-0.221-0.327-0.072c-0.044,0.083-0.081,0.195-0.018,0.279c0.051,0.061,0.144,0.028,0.211,0.029
			c0.004,0.101,0.012,0.205-0.01,0.305C14.882,18.424,14.849,18.498,14.846,18.579z M23.799,13.823
			c0.045,0.339,0.091,0.678,0.137,1.018c0.06,0.518,0.117,1.043,0.152,1.565c0.041,0.519,0.053,1.042,0.088,1.56
			c0.021,0.204,0.026,0.406,0.019,0.609c-0.021,0.288-0.161,0.557-0.36,0.764c-0.247,0.272-0.521,0.538-0.854,0.709
			c-0.169,0.089-0.372,0.097-0.528,0.211c0,0.011,0,0.037,0,0.046c0.117,0.044,0.245,0.023,0.372,0.02
			c0.225-0.02,0.463-0.024,0.663-0.136c0.247-0.147,0.418-0.382,0.608-0.597c0.241-0.265,0.342-0.626,0.379-0.976
			c0.038-0.345,0.043-0.692,0.021-1.039c-0.01-0.557-0.052-1.117-0.114-1.671c-0.059-0.586-0.146-1.172-0.12-1.761
			c0.049,0.042,0.114,0.062,0.183,0.05c0.006-0.059,0.006-0.12-0.015-0.174c-0.054-0.162-0.09-0.327-0.139-0.491
			c-0.013-0.047-0.026-0.095-0.037-0.144l-0.005-0.015c-0.026-0.102-0.059-0.202-0.107-0.297c-0.036,0.007-0.082,0-0.102,0.039
			c-0.074,0.1-0.171,0.177-0.254,0.27c-0.071,0.078-0.055,0.189-0.042,0.283C23.77,13.717,23.789,13.768,23.799,13.823z
			 M27.057,16.313c-0.254,0.241-0.56,0.422-0.816,0.658c-0.053,0.042-0.065,0.111-0.062,0.176c0.102-0.004,0.173-0.069,0.248-0.126
			c0.201-0.16,0.421-0.294,0.647-0.424c0.076-0.046,0.173-0.076,0.234-0.15c0.031-0.094,0.013-0.201-0.013-0.295
			C27.188,16.152,27.125,16.25,27.057,16.313z M28.096,16.385c-0.007-0.198-0.033-0.393-0.033-0.59
			c0.233,0.333,0.474,0.664,0.707,0.997c0.039,0.061,0.039,0.129,0.054,0.196c0.035,0.231,0.066,0.467,0.091,0.703
			c0.021,0.278,0.007,0.559,0.005,0.837c0.008,0.047-0.013,0.147,0.059,0.136c0.068-0.109,0.088-0.236,0.117-0.356
			c0.02-0.143,0.01-0.289,0.026-0.432c-0.023-0.223-0.017-0.448-0.039-0.67c0.254,0.336,0.501,0.681,0.73,1.036
			c0.076,0.12,0.134,0.253,0.222,0.369c0.011,0,0.03-0.001,0.04-0.001c0.01-0.18,0.014-0.361-0.029-0.531
			c-0.108-0.383-0.364-0.694-0.579-1.019c-0.146-0.22-0.303-0.429-0.441-0.652c-0.027-0.256-0.047-0.513-0.066-0.769
			c-0.037-0.372-0.1-1.13-0.1-1.13c-0.001-0.11-0.005-0.221-0.01-0.333c0.028,0.014,0.053,0.03,0.08,0.044
			c0.017-0.005,0.046-0.019,0.062-0.024c0.023-0.062,0.029-0.13,0.009-0.193c-0.067-0.229-0.122-0.465-0.188-0.697
			c-0.041-0.124-0.066-0.252-0.146-0.352c-0.046,0.003-0.091,0.018-0.12,0.055c-0.085,0.098-0.144,0.215-0.192,0.332
			c-0.042,0.088,0.02,0.171,0.02,0.261c0.013,0.469,0.066,0.937,0.125,1.407c0.041,0.284,0.097,0.57,0.136,0.859
			c-0.209-0.297-0.427-0.589-0.635-0.877c-0.007-0.312-0.044-0.62-0.056-0.929c0.047,0.025,0.091,0.045,0.14,0.054
			c0-0.05,0-0.098-0.015-0.142c-0.094-0.298-0.201-0.588-0.313-0.877c-0.021-0.042-0.048-0.115-0.104-0.094
			c-0.117,0.099-0.188,0.247-0.228,0.394c-0.036,0.125,0.013,0.247,0.066,0.357c0.008,0.193,0.044,0.383,0.054,0.577
			c-0.12-0.15-0.22-0.314-0.332-0.47c0.039,0.001,0.076,0,0.114,0c0.01-0.014,0.03-0.04,0.04-0.055
			c-0.015-0.042-0.021-0.086-0.057-0.116c-0.176-0.181-0.388-0.329-0.54-0.53c-0.053-0.063-0.131-0.135-0.219-0.093
			c-0.005,0.033-0.01,0.068-0.013,0.099c0.008,0.152,0.013,0.304-0.013,0.453c-0.026,0.171,0.104,0.305,0.198,0.424
			c0.303,0.365,0.586,0.751,0.886,1.12c0.027,0.125,0.02,0.256,0.039,0.382c0.006,0.193,0.034,0.379,0.039,0.57l0.01,0.013
			c0.037,0.682,0.104,1.359,0.068,2.043c-0.014,0.132-0.046,0.268-0.124,0.378c-0.059,0.082-0.153,0.129-0.251,0.147
			c-0.113,0.017-0.223-0.051-0.304-0.129c-0.151-0.137-0.229-0.337-0.393-0.462c-0.062-0.054-0.163-0.059-0.225-0.001
			c-0.109,0.096-0.179,0.229-0.257,0.353c-0.18,0.297-0.341,0.603-0.488,0.915c-0.043,0.093-0.093,0.187-0.176,0.25
			c-0.059,0.053-0.156,0.053-0.212-0.005c-0.078-0.07-0.112-0.175-0.163-0.265c0.056,0.044,0.114,0.082,0.186,0.075
			c0.117-0.002,0.2-0.102,0.254-0.192c0.131-0.235,0.212-0.503,0.243-0.772c0.045-0.392-0.048-0.786-0.116-1.173
			c-0.02-0.249-0.062-0.5-0.081-0.754l-0.01-0.011c-0.039-0.387-0.09-0.77-0.137-1.157c-0.022-0.291-0.068-0.579-0.081-0.869
			c0.107,0.007,0.24-0.02,0.293-0.129c0.062-0.11,0.011-0.24-0.051-0.335c-0.135-0.204-0.217-0.439-0.298-0.671
			c-0.044-0.136-0.076-0.276-0.145-0.399c-0.044-0.076-0.121-0.136-0.21-0.141c-0.092-0.006-0.181,0.044-0.234,0.115
			c-0.111,0.138-0.205,0.295-0.238,0.472c-0.044,0.232,0.014,0.466,0.068,0.689c0.056,0.208,0.075,0.421,0.102,0.635
			c0.074,0.54,0.142,1.084,0.215,1.623c0.042,0.347,0.088,0.698,0.133,1.042c0.053,0.492,0.176,0.98,0.117,1.476
			c-0.022,0.104-0.047,0.207-0.071,0.306c-0.013-0.147-0.054-0.294-0.056-0.443c-0.01-0.178,0.014-0.357-0.025-0.531
			c-0.01-0.001-0.029-0.006-0.039-0.006c-0.067,0.142-0.092,0.295-0.127,0.448c-0.056,0.31-0.129,0.636-0.036,0.946
			c0.059,0.209,0.247,0.334,0.403,0.466c0.088,0.065,0.175,0.14,0.287,0.14c0.084,0.001,0.142-0.062,0.188-0.121
			c0.19-0.251,0.342-0.535,0.472-0.823c0.077-0.167,0.151-0.346,0.282-0.488c0.032-0.032,0.066-0.079,0.122-0.07
			c0.076,0.095,0.133,0.204,0.221,0.286c0.17,0.181,0.414,0.274,0.661,0.283c0.215,0.006,0.405-0.129,0.525-0.3
			c0.173-0.255,0.194-0.574,0.202-0.869l-0.012-0.016C28.162,17.519,28.128,16.952,28.096,16.385z M13.393,19.528
			c0.221-0.194,0.379-0.454,0.457-0.738c0.104-0.376,0.105-0.772,0.079-1.162c-0.005-0.164-0.005-0.331-0.02-0.497
			c-0.006-0.039,0.008-0.07,0.018-0.106c0.017,0,0.032,0.001,0.049,0.001c0.045,0.149,0.193,0.233,0.341,0.247
			c0.151,0.01,0.311-0.029,0.443-0.114c0.068-0.042,0.114-0.109,0.172-0.167c0.015-0.021,0.043-0.025,0.065-0.011
			c0.048,0.054,0.084,0.119,0.147,0.158c0.116,0.075,0.259,0.087,0.392,0.064c0.095-0.024,0.185-0.09,0.215-0.185
			c0.055-0.167,0.077-0.35,0.066-0.527c-0.014-0.111-0.016-0.23-0.066-0.333c-0.088,0.005-0.16,0.066-0.215,0.134
			c-0.032,0.032,0.01,0.077,0.018,0.115c0.037,0.083,0.031,0.178,0.023,0.271c-0.004,0.088-0.056,0.188-0.151,0.208
			c-0.096,0.007-0.173-0.07-0.22-0.148c-0.095-0.147-0.09-0.33-0.117-0.501c-0.017,0-0.032-0.003-0.05-0.005
			c-0.064,0.169-0.105,0.352-0.221,0.499c-0.073,0.099-0.173,0.198-0.302,0.211c-0.09,0.011-0.174-0.056-0.206-0.139
			c-0.068-0.14-0.044-0.297-0.049-0.444c0.008-0.059-0.047-0.128-0.105-0.088c-0.112,0.065-0.187,0.177-0.297,0.246
			c-0.019-0.331-0.04-0.66-0.065-0.992c-0.019-0.396-0.063-0.791-0.084-1.188c0.039,0.032,0.077,0.078,0.133,0.071
			c0.048,0.001,0.077-0.043,0.098-0.082c0.019-0.091,0.019-0.188-0.021-0.271c-0.091-0.207-0.157-0.424-0.234-0.636
			c-0.04-0.115-0.068-0.233-0.133-0.337c-0.081,0.011-0.135,0.079-0.188,0.13c-0.064,0.066-0.13,0.138-0.161,0.228
			c-0.024,0.088,0.024,0.174,0.061,0.253c-0.002,0.052-0.003,0.104-0.003,0.157c-0.004,0.18,0.016,0.361,0.04,0.54
			c0.009,0.057,0.013,0.112,0.019,0.166l0.009,0.015c0.006,0.178,0.045,0.351,0.057,0.527l0.008,0.014
			c0.057,0.537,0.133,1.07,0.148,1.608c-0.098,0.05-0.189,0.116-0.288,0.165c-0.093-0.19-0.231-0.355-0.391-0.494
			c-0.09-0.08-0.205-0.154-0.332-0.134c-0.127,0.025-0.218,0.127-0.287,0.229c-0.086,0.132-0.183,0.277-0.18,0.443
			c0.001,0.159,0.011,0.319,0.007,0.478c0.022,0.046,0.033,0.103,0.084,0.127c0.121,0.063,0.27,0.107,0.409,0.065
			c0.16-0.046,0.32-0.099,0.478-0.151c0.006,0.105,0.019,0.222-0.024,0.322c-0.026,0.063-0.072,0.114-0.114,0.161
			c-0.155,0.172-0.326,0.327-0.517,0.458c-0.192,0.134-0.411,0.251-0.647,0.287c-0.163,0.025-0.343-0.015-0.454-0.14
			c-0.223-0.252-0.276-0.608-0.249-0.933c0.021-0.104,0.029-0.21,0.018-0.317c-0.081,0.049-0.103,0.144-0.128,0.227
			c-0.051,0.193-0.086,0.392-0.086,0.593c-0.005,0.207-0.001,0.422,0.093,0.616c0.121,0.237,0.337,0.439,0.604,0.476
			c0.331,0.045,0.648-0.103,0.928-0.256c0.372-0.212,0.726-0.514,0.856-0.933l0.008-0.015c0.057-0.217,0.028-0.443,0.023-0.665
			c0.074-0.045,0.149-0.089,0.226-0.127c0.008,0.249-0.006,0.496,0,0.744c0.008,0.176-0.009,0.35-0.048,0.522l-0.007,0.015
			c-0.059,0.221-0.205,0.405-0.386,0.541c-0.286,0.241-0.632,0.409-0.989,0.519c-0.205,0.06-0.418,0.104-0.636,0.096
			c-0.228,0-0.468-0.077-0.621-0.258c-0.186-0.204-0.234-0.487-0.267-0.755c-0.003-0.132-0.012-0.262,0-0.397
			c0.048-0.186,0.081-0.398,0.01-0.583c-0.159,0.284-0.203,0.614-0.234,0.932c-0.024,0.383,0.02,0.771,0.181,1.123
			c0.049,0.112,0.125,0.217,0.227,0.291c0.189,0.14,0.432,0.184,0.66,0.19c0.398,0.005,0.795-0.095,1.165-0.232
			C12.902,19.839,13.179,19.725,13.393,19.528z M12.483,17.091c-0.098-0.081-0.055-0.224-0.032-0.329
			c0.018-0.01,0.037-0.018,0.054-0.029c0.063,0.021,0.131,0.033,0.182,0.079c0.073,0.06,0.124,0.137,0.179,0.209
			C12.747,17.075,12.614,17.129,12.483,17.091z M10.661,16.85c0.118-0.051,0.246-0.078,0.363-0.126
			c0.012-0.089,0.011-0.181-0.001-0.265c-0.036,0-0.069-0.006-0.101,0.003c-0.24,0.076-0.479,0.174-0.691,0.312
			c-0.289,0.19-0.564,0.416-0.752,0.705c0.112-0.05,0.203-0.139,0.31-0.2C10.066,17.113,10.359,16.971,10.661,16.85z M9.96,19.625
			c-0.097,0.04-0.162-0.061-0.189-0.141c-0.074-0.248-0.008-0.506,0.066-0.741c0.069-0.164,0.034-0.347,0.03-0.519
			c-0.017,0-0.033,0.002-0.049,0.002c-0.064,0.151-0.086,0.32-0.151,0.468c-0.086,0.208-0.119,0.429-0.114,0.649
			c0.004,0.161-0.005,0.328,0.042,0.484c0.034,0.113,0.14,0.222,0.268,0.215c0.156,0.002,0.271-0.138,0.312-0.279
			c0.032-0.121,0.06-0.256,0.009-0.377C10.07,19.425,10.049,19.557,9.96,19.625z M27.845,25.997
			c-0.127-0.114-0.31-0.129-0.474-0.132c-0.62,0-1.235,0.022-1.851,0.029c0-0.062-0.005-0.131,0.003-0.194
			c0.041-0.08,0.132-0.152,0.111-0.251c-0.031-0.1-0.102-0.178-0.166-0.259c-0.029-0.004-0.062-0.004-0.095-0.004
			c-0.065,0.083-0.13,0.166-0.164,0.268c-0.024,0.113,0.076,0.193,0.132,0.277c0,0.056,0,0.109,0.003,0.159
			c-2.272,0.029-4.546,0.029-6.819,0.019c-0.431,0.006-0.86-0.012-1.29-0.009c-1.155-0.003-2.307-0.018-3.46-0.03
			c-0.579,0.001-1.159-0.021-1.737-0.019c0.146,0.229,0.383,0.385,0.635,0.476c0.417,0.149,0.864,0.186,1.307,0.212
			c0.473,0.025,0.949,0.008,1.424,0.025c1.51,0.017,3.021,0.007,4.525-0.013c1.38-0.013,2.76-0.042,4.14-0.075
			c0.434-0.01,0.863-0.022,1.296-0.022c0,0.061,0.002,0.124,0.002,0.186c-0.048,0.062-0.093,0.125-0.134,0.192
			c0.002,0.14,0.109,0.257,0.207,0.352c0.011,0,0.03,0,0.04,0c0.058-0.065,0.104-0.134,0.146-0.207
			c0.223-0.002,0.449-0.018,0.674-0.015c0.025,0.071,0.098,0.114,0.167,0.134c0.078-0.023,0.148-0.07,0.161-0.153
			c0.238-0.003,0.482-0.005,0.722-0.005c0.047,0.061,0.104,0.12,0.181,0.148c0.113,0.039,0.247,0.01,0.328-0.085
			c0.126-0.144,0.146-0.345,0.144-0.53C28.001,26.305,27.969,26.119,27.845,25.997z M27.291,26.757
			c-0.221,0.021-0.444,0.008-0.664,0.017c-0.029-0.072-0.101-0.126-0.176-0.131c-0.052,0.014-0.091,0.046-0.13,0.072
			c-0.002,0.016-0.007,0.05-0.007,0.063c-0.221,0.021-0.442,0.016-0.659,0.021c-0.039-0.059-0.083-0.113-0.127-0.162
			c-0.001-0.068-0.001-0.131-0.001-0.192c0.592-0.017,1.191-0.036,1.787-0.052C27.285,26.511,27.249,26.637,27.291,26.757z
			 M27.926,19.827c-0.022-0.123,0.082-0.211,0.111-0.325c-0.007-0.019-0.017-0.037-0.024-0.058
			c-0.112-0.062-0.249-0.058-0.366-0.029c-0.082,0.022-0.065,0.118-0.062,0.183c0.059,0.044,0.17,0.064,0.17,0.158
			c0.006,0.161-0.238,0.183-0.241,0.339c-0.01,0.088,0.107,0.101,0.173,0.087c0.162-0.03,0.322-0.106,0.449-0.216
			c0-0.043,0-0.087-0.004-0.13C28.062,19.829,27.994,19.829,27.926,19.827z M30.543,15.742c-0.059-0.585-0.169-1.165-0.145-1.754
			c0.051,0.04,0.109,0.077,0.179,0.077c0.007-0.074,0.005-0.153-0.03-0.225c-0.112-0.24-0.222-0.481-0.329-0.725
			c-0.029-0.056-0.054-0.124-0.107-0.163c-0.056-0.001-0.085,0.044-0.117,0.08c-0.065,0.085-0.137,0.166-0.166,0.272
			c-0.029,0.109,0.029,0.216,0.036,0.328c0.022,0.254,0.078,0.512,0.094,0.767c0,0,0.02,0.187,0.034,0.333
			c0.019,0.137,0.033,0.271,0.046,0.405c0.09,0.789,0.178,1.58,0.232,2.374c0.021,0.387,0.029,0.789-0.11,1.162
			c-0.114,0.32-0.335,0.591-0.591,0.81c-0.2,0.177-0.43,0.316-0.643,0.472c-0.068,0.054-0.15,0.105-0.173,0.191
			c0.158,0.025,0.317-0.023,0.476-0.06c0.356-0.087,0.696-0.267,0.929-0.554c0.227-0.274,0.355-0.611,0.422-0.959l0.01-0.011
			c0.054-0.324,0.085-0.651,0.078-0.981C30.654,16.967,30.606,16.354,30.543,15.742z M9.863,15.966
			c0.097-0.021,0.164-0.108,0.213-0.185c0.123-0.201,0.164-0.437,0.195-0.666c0.011-0.085,0.025-0.171,0.036-0.259l0.011-0.011
			c0.032-0.193,0.085-0.382,0.169-0.556c0.012-0.003,0.032-0.007,0.039-0.01c0.026,0.081,0.026,0.164,0.018,0.247
			c-0.035,0.141-0.043,0.287-0.049,0.429c-0.011,0.298,0.024,0.627,0.214,0.869c0.135,0.171,0.355,0.242,0.565,0.235
			c0.03,0.373,0.087,0.745,0.121,1.116l0.007,0.015c0.008,0.129,0.028,0.258,0.037,0.386c0.024,0.165,0.007,0.333,0.04,0.496
			c0.01,0,0.032,0,0.04,0c0.069-0.123,0.135-0.256,0.143-0.398c0.018-0.36-0.037-0.718-0.049-1.079
			c-0.013-0.245-0.038-0.489-0.052-0.736c0.088-0.076,0.17-0.163,0.229-0.265c0.037-0.066,0.074-0.135,0.121-0.198
			c0.012,0,0.031,0,0.045-0.003c0.047,0.118,0.064,0.25,0.147,0.351c0.113,0.16,0.331,0.217,0.513,0.155
			c0.162-0.054,0.317-0.144,0.414-0.282c0.13-0.187,0.115-0.425,0.098-0.638c-0.036-0.277-0.116-0.547-0.185-0.814
			c0.048-0.007,0.115-0.003,0.142-0.057c0.036-0.051,0.01-0.114-0.005-0.171c-0.037-0.073-0.078-0.147-0.133-0.212
			c-0.072-0.08-0.132-0.18-0.235-0.23c-0.081,0.037-0.119,0.119-0.179,0.182c-0.039,0.052-0.099,0.104-0.099,0.175
			c0.017,0.122,0.074,0.226,0.116,0.337c0.118,0.314,0.217,0.64,0.256,0.973c0.01,0.075-0.023,0.171-0.104,0.192
			c-0.134,0.022-0.279,0.012-0.386-0.071c-0.092-0.069-0.146-0.185-0.175-0.295c-0.063-0.259-0.143-0.525-0.111-0.796
			c0.048-0.256-0.053-0.532-0.254-0.697c-0.037-0.041-0.066,0.011-0.077,0.046c-0.068,0.194-0.092,0.409-0.034,0.606
			c0.056,0.254,0.106,0.509,0.152,0.769c-0.024,0.188-0.135,0.371-0.289,0.483c-0.005-0.056-0.011-0.112-0.021-0.17
			c-0.006-0.067-0.009-0.135-0.023-0.201c-0.033-0.353-0.075-0.709-0.099-1.064c0.065-0.03,0.112-0.083,0.138-0.151
			c0-0.213-0.106-0.402-0.199-0.585c-0.046-0.081-0.084-0.172-0.177-0.209c-0.09,0.073-0.152,0.175-0.189,0.287
			c-0.027,0.099,0.045,0.18,0.074,0.272c-0.022,0.199,0.074,0.382,0.095,0.577c0.021,0.205,0.025,0.416,0.052,0.622
			c0.01,0.226,0.032,0.448,0.054,0.676c-0.071-0.004-0.143-0.017-0.2-0.058c-0.124-0.076-0.176-0.217-0.227-0.342
			c-0.013-0.046-0.027-0.095-0.038-0.141c-0.022-0.126-0.042-0.255-0.021-0.381c0.011-0.164,0.077-0.315,0.115-0.472
			c0.019-0.105,0.04-0.215,0.02-0.321c-0.015-0.083-0.097-0.155-0.183-0.137c-0.111,0.02-0.193,0.113-0.252,0.202
			c-0.121,0.177-0.208,0.371-0.269,0.573l-0.005,0.016c-0.089,0.312-0.053,0.65-0.178,0.954c-0.027,0.056-0.067,0.132-0.14,0.124
			c-0.095-0.037-0.141-0.14-0.186-0.228c-0.095-0.245-0.127-0.512-0.151-0.778c-0.021-0.186-0.004-0.373-0.015-0.556
			c-0.019,0-0.037,0.001-0.054,0.001c-0.07,0.184-0.106,0.383-0.106,0.583l-0.012,0.014c0,0.437,0.073,0.878,0.266,1.275
			C9.652,15.874,9.74,15.99,9.863,15.966z M12.055,13.49c0.098,0.021,0.181-0.045,0.231-0.117c0.049,0.023,0.075,0.076,0.109,0.117
			c0.037,0.021,0.084,0.017,0.126,0.006c0.071-0.021,0.095-0.104,0.113-0.168c0.006-0.067,0.018-0.163-0.058-0.197
			c-0.024,0.073-0.024,0.233-0.143,0.208c-0.102-0.062-0.099-0.198-0.1-0.302c-0.007,0-0.026,0-0.034,0
			c-0.042,0.097-0.07,0.214-0.163,0.275c-0.037,0.018-0.094,0.015-0.108-0.028c-0.043-0.07-0.026-0.155-0.034-0.233
			c-0.009-0.022-0.02-0.044-0.028-0.067c-0.008,0-0.024-0.005-0.031-0.009c-0.062,0.082-0.08,0.186-0.07,0.285
			C11.898,13.355,11.947,13.466,12.055,13.49z M15.721,14.049c0.061-0.004,0.131-0.007,0.167-0.062
			c0.023-0.064-0.014-0.126-0.023-0.185c0.047-0.12,0.097-0.237,0.12-0.363c0.021-0.112,0.021-0.247-0.058-0.34
			c-0.078-0.09-0.217-0.099-0.316-0.048c-0.112,0.054-0.188,0.159-0.235,0.271c-0.062,0.198-0.047,0.436,0.118,0.579
			c-0.235,0.327-0.55,0.594-0.88,0.828c-0.097,0.071-0.205,0.125-0.283,0.211c0,0.014-0.004,0.042-0.004,0.055
			c0.131,0.009,0.247-0.059,0.365-0.112C15.093,14.688,15.475,14.426,15.721,14.049z M15.595,13.459
			c0.025-0.053,0.054-0.105,0.107-0.137c0.064,0.097-0.01,0.201-0.044,0.293c-0.008-0.002-0.029-0.005-0.038-0.007
			C15.594,13.562,15.591,13.51,15.595,13.459z M10.144,13.179c0.023,0.149,0.005,0.302-0.028,0.447l-0.007,0.017
			c-0.017,0.062-0.035,0.125-0.06,0.185c0.103-0.169,0.201-0.346,0.233-0.543c0.01-0.118,0.021-0.266-0.078-0.349
			C10.127,12.9,10.039,12.944,9.984,13c-0.055,0.059-0.13,0.126-0.11,0.217C9.959,13.308,10.043,13.152,10.144,13.179z
			 M15.478,14.746c-0.02-0.002-0.039-0.003-0.059-0.003c-0.084,0.072-0.152,0.166-0.213,0.265c-0.075,0.117-0.13,0.257-0.107,0.4
			c0.022,0.102,0.092,0.193,0.188,0.233c0.093,0.023,0.188-0.011,0.267-0.063c0.13-0.085,0.212-0.24,0.228-0.396
			c-0.094,0.017-0.146,0.106-0.213,0.166c-0.06,0.054-0.149,0.103-0.223,0.054c-0.071-0.039-0.074-0.126-0.066-0.198
			C15.301,15.033,15.458,14.918,15.478,14.746z"/>
	</g>
</g>
</svg>
