<?xml version="1.0" encoding="utf-8"?>
<!-- Generator: Adobe Illustrator 16.0.0, SVG Export Plug-In . SVG Version: 6.00 Build 0)  -->
<!DOCTYPE svg PUBLIC "-//W3C//DTD SVG 1.1//EN" "http://www.w3.org/Graphics/SVG/1.1/DTD/svg11.dtd">
<svg version="1.1" id="Layer_1" xmlns="http://www.w3.org/2000/svg" xmlns:xlink="http://www.w3.org/1999/xlink" x="0px" y="0px"
	 width="40px" height="40px" viewBox="0 0 40 40" enable-background="new 0 0 40 40" xml:space="preserve">
<g>
	<g>
		<path fill="#1F4085" d="M19.999,40c8.07,0,15.021-4.783,18.178-11.667H1.82C4.982,35.217,11.93,40,19.999,40z"/>
		<path fill="#A20E23" d="M19.999,0C11.93,0,4.982,4.785,1.82,11.667h36.357C35.02,4.785,28.069,0,19.999,0z"/>
		<path fill="#FFFFFF" d="M0,19.999c0,2.976,0.654,5.797,1.82,8.334h36.357C39.344,25.796,40,22.975,40,19.999
			c0-2.974-0.656-5.794-1.823-8.332H1.82C0.654,14.205,0,17.025,0,19.999z"/>
	</g>
</g>
</svg>
