<?xml version="1.0" encoding="utf-8"?>
<!-- Generator: Adobe Illustrator 16.0.0, SVG Export Plug-In . SVG Version: 6.00 Build 0)  -->
<!DOCTYPE svg PUBLIC "-//W3C//DTD SVG 1.0//EN" "http://www.w3.org/TR/2001/REC-SVG-20010904/DTD/svg10.dtd">
<svg version="1.0" id="Layer_1" xmlns="http://www.w3.org/2000/svg" xmlns:xlink="http://www.w3.org/1999/xlink" x="0px" y="0px"
	 width="40px" height="40px" viewBox="0 0 40 40" enable-background="new 0 0 40 40" xml:space="preserve">
<g>
	<g>
		<path fill="#E32118" d="M2.443,29.58C5.836,35.789,12.426,40,19.999,40c8.671,0,16.031-5.529,18.805-13.244H5.273L2.443,29.58z"/>
		<path fill="#FFFFFF" d="M12.044,19.998l-6.771,6.758h33.531C39.563,24.644,40,22.375,40,20s-0.437-4.644-1.196-6.758H5.273
			L12.044,19.998z"/>
		<path fill="#3E9A00" d="M38.804,13.242C36.03,5.527,28.67,0,19.999,0C12.426,0,5.838,4.212,2.443,10.42l2.83,2.822H38.804z"/>
		<path fill="#0073CE" d="M5.273,13.242l-2.83-2.822c-0.493,0.898-0.897,1.848-1.248,2.822C0.435,15.356,0,17.625,0,20
			s0.435,4.644,1.195,6.756c0.351,0.977,0.755,1.926,1.248,2.824l2.83-2.824l6.771-6.758L5.273,13.242z"/>
	</g>
	<g>
		<g>
			<path fill="#CCCCCC" d="M19.975,24.03c0,0,0.113-0.331,0.428-0.497c0.312-0.169,0.576-0.063,1.178-0.078
				c0.601-0.02,0.71-0.042,1.001-0.279c0.297-0.234,0.269-0.614,0.269-0.614v-6.48h-5.75v6.48c0,0-0.025,0.38,0.27,0.614
				c0.294,0.237,0.401,0.26,1,0.279c0.603,0.015,0.868-0.091,1.18,0.078C19.863,23.699,19.975,24.03,19.975,24.03z"/>
			<path d="M19.941,24.041c0,0-0.008-0.02-0.021-0.05l0,0c-0.017-0.033-0.036-0.077-0.068-0.127l0,0
				c-0.065-0.1-0.17-0.222-0.319-0.302l0,0c-0.139-0.071-0.265-0.091-0.424-0.091l0,0c-0.16,0-0.349,0.02-0.604,0.02l0,0
				c-0.045,0-0.089,0-0.138-0.002l0,0c-0.595-0.015-0.725-0.044-1.021-0.283l0,0c-0.266-0.215-0.284-0.53-0.284-0.621l0,0
				c0-0.015,0-0.023,0-0.023l0,0v-6.519h5.826v6.518c0,0,0,0.008,0,0.024l0,0c0,0.091-0.02,0.408-0.284,0.621l0,0
				c-0.297,0.239-0.425,0.269-1.024,0.283l0,0c-0.047,0.002-0.093,0.002-0.133,0.002l0,0c-0.258,0-0.449-0.02-0.605-0.02l0,0
				c-0.16,0-0.285,0.02-0.425,0.091l0,0c-0.225,0.122-0.34,0.331-0.389,0.429l0,0c-0.014,0.03-0.02,0.05-0.02,0.05l0,0l-0.034,0.102
				L19.941,24.041L19.941,24.041z M19.975,24.03l0.034-0.012L19.975,24.03L19.975,24.03z M19.566,23.499
				c0.23,0.126,0.354,0.327,0.408,0.439l0,0c0.054-0.112,0.181-0.313,0.411-0.439l0,0c0.149-0.079,0.291-0.101,0.456-0.101l0,0
				c0.162,0,0.352,0.021,0.605,0.021l0,0c0.04,0,0.084,0,0.133-0.002l0,0c0.603-0.02,0.684-0.036,0.981-0.267l0,0
				c0.238-0.19,0.256-0.485,0.253-0.566l0,0c0-0.015,0-0.021,0-0.023l0,0v-6.446h-5.679v6.448c0,0,0,0.007,0,0.021l0,0
				c0,0.081,0.017,0.376,0.254,0.566l0,0c0.292,0.23,0.378,0.247,0.979,0.267l0,0c0.047,0.002,0.094,0.002,0.136,0.002l0,0
				c0.252,0,0.439-0.021,0.604-0.021l0,0c0.002,0,0.002,0,0.002,0h0.002C19.277,23.398,19.415,23.42,19.566,23.499L19.566,23.499z"
				/>
		</g>
		<path fill="#020101" d="M14.99,21.221c0.1,0.081,0.208,0.153,0.314,0.225c0.208,0.14,0.416,0.278,0.614,0.432
			c0.139,0.107,0.279,0.22,0.393,0.352c0.064,0.074,0.127,0.154,0.131,0.252c0.002,0.07-0.051,0.127-0.108,0.163
			c-0.064,0.039-0.143,0.064-0.215,0.042c-0.082-0.024-0.133-0.095-0.206-0.127c-0.054-0.024-0.113-0.003-0.159,0.026
			c-0.043,0.022-0.06,0.073-0.085,0.11c-0.027,0.042-0.022,0.095-0.021,0.144c0.017,0.135,0.073,0.264,0.142,0.377
			c0.089,0.155,0.205,0.292,0.333,0.405c0.331,0.29,0.766,0.451,1.204,0.451c0.392,0.002,0.785-0.044,1.169-0.137
			c0.181-0.042,0.362-0.098,0.543-0.149c0.077-0.02,0.155-0.048,0.235-0.036c0.042,0.003,0.077,0.039,0.081,0.08
			c0.008,0.059-0.005,0.118-0.039,0.166c-0.13,0.166-0.316,0.271-0.473,0.413c-0.049,0.047-0.097,0.091-0.128,0.151
			c-0.008,0.021-0.021,0.051-0.008,0.071c0.042,0.029,0.093,0.041,0.139,0.056c0.154,0.037,0.314,0.051,0.475,0.065
			c0.436,0.032,0.873,0.032,1.307,0c0.143-0.014,0.286-0.026,0.425-0.053c0.071-0.016,0.146-0.034,0.206-0.074
			c-0.02-0.107-0.104-0.178-0.179-0.243c-0.149-0.128-0.324-0.234-0.444-0.392l-0.005-0.009c-0.029-0.055-0.052-0.132-0.017-0.193
			c0.038-0.054,0.112-0.044,0.173-0.036c0.159,0.034,0.312,0.092,0.472,0.132c0.439,0.124,0.903,0.189,1.364,0.188
			c0.438,0.002,0.872-0.158,1.203-0.451c0.146-0.13,0.278-0.283,0.371-0.46c0.066-0.132,0.125-0.278,0.103-0.429
			c-0.023-0.06-0.056-0.135-0.126-0.162c-0.045-0.026-0.105-0.034-0.149-0.005c-0.066,0.037-0.12,0.104-0.2,0.122
			c-0.073,0.02-0.146-0.007-0.21-0.048c-0.01-0.01-0.021-0.018-0.037-0.027c0.032-0.026,0-0.057-0.009-0.086
			c-0.018-0.051,0-0.107,0.024-0.156c0.056-0.107,0.146-0.194,0.231-0.278c0.202-0.183,0.428-0.341,0.651-0.497
			c0.179-0.122,0.366-0.237,0.535-0.372v1.38c-0.007,0.104-0.057,0.198-0.122,0.271c-0.095,0.105-0.215,0.181-0.35,0.221
			c0.078,0.266,0.101,0.541,0.091,0.815c-0.013,0.188-0.117,0.358-0.249,0.488c-0.14,0.139-0.319,0.238-0.503,0.312
			c-0.239,0.098-0.495,0.151-0.747,0.182c-0.237,0.028-0.476,0.028-0.715,0.028c-0.357,0-0.723,0-1.082,0c0,0.24,0,0.479,0,0.718
			c0.003,0.032-0.015,0.059-0.036,0.079c-0.055,0.043-0.12,0.056-0.187,0.075c-0.295,0.059-0.598,0.073-0.897,0.085h-0.462
			c-0.289-0.01-0.58-0.026-0.867-0.078c-0.07-0.015-0.142-0.031-0.206-0.065c-0.035-0.021-0.066-0.054-0.06-0.096
			c-0.002-0.241,0-0.478,0-0.718c-0.296,0-0.595,0-0.893,0c-0.241,0-0.481,0.005-0.724-0.012c-0.35-0.027-0.709-0.091-1.028-0.241
			c-0.173-0.081-0.337-0.19-0.462-0.337c-0.108-0.122-0.182-0.279-0.187-0.44c-0.008-0.273,0.016-0.547,0.096-0.81
			c-0.141-0.059-0.275-0.147-0.359-0.278c-0.038-0.057-0.062-0.123-0.07-0.195V21.221L14.99,21.221z"/>
		<path fill="#CCCCCC" d="M24.932,21.38c0,0.402,0,0.801,0,1.198c0,0.078-0.034,0.148-0.078,0.208
			c-0.086,0.112-0.208,0.19-0.339,0.231c-0.034-0.107-0.081-0.21-0.132-0.31c-0.024-0.047-0.037-0.101-0.037-0.152
			c-0.003-0.005-0.018-0.012-0.024-0.015c-0.021,0-0.039,0.008-0.057-0.007c-0.063-0.046-0.141-0.081-0.22-0.061
			c-0.102,0.019-0.16,0.117-0.258,0.144c-0.044-0.024-0.089-0.047-0.125-0.083c-0.037-0.042-0.017-0.1,0.007-0.139
			c0.062-0.11,0.159-0.196,0.252-0.283C24.233,21.839,24.588,21.621,24.932,21.38L24.932,21.38z"/>
		<path fill="#CCCCCC" d="M15.069,21.38c0.337,0.236,0.684,0.451,0.994,0.718c0.096,0.083,0.186,0.168,0.253,0.268
			c0.027,0.045,0.059,0.098,0.04,0.147c-0.019,0.034-0.052,0.053-0.083,0.072c-0.044,0.027-0.102,0.042-0.151,0.018
			c-0.072-0.039-0.128-0.112-0.215-0.13c-0.095-0.021-0.19,0.032-0.26,0.093c-0.052,0.047-0.06,0.12-0.094,0.179
			c-0.043,0.081-0.081,0.169-0.11,0.257c-0.119-0.042-0.229-0.122-0.303-0.225c-0.041-0.06-0.071-0.127-0.071-0.198
			C15.069,22.181,15.069,21.779,15.069,21.38L15.069,21.38z"/>
		<g>
			<path fill="#020101" d="M20.314,17.01c0.062-0.021,0.128,0.007,0.188,0.034c0.036,0.021,0.056,0.065,0.075,0.105
				c0.049,0.015,0.107,0.004,0.156,0.031c0.032,0.021,0.066,0.036,0.104,0.044c0.024,0.007,0.039,0.029,0.049,0.047
				c0.017,0.009,0.039,0.012,0.049,0.028c0.017,0.032,0.053,0.039,0.078,0.059c0.024,0.011,0.043,0.034,0.068,0.045
				c0.028,0.014,0.059,0.005,0.088,0c0.002-0.016,0.007-0.034,0.012-0.047c0.017-0.012,0.044-0.017,0.051-0.039
				c0.013-0.037,0.047-0.071,0.084-0.081c0.059-0.017,0.121-0.02,0.163,0.021c0.022,0.015,0.027,0.038,0.032,0.062
				c0.058,0.021,0.078,0.094,0.065,0.151c0.022,0.035,0.068,0.084,0.036,0.125c0,0.008,0,0.026,0.001,0.037
				c0.046,0.021,0.103,0.034,0.146,0.056c0.049,0.02,0.098,0.036,0.148,0.027c0.049-0.001,0.098,0.005,0.142,0.031
				c0.034,0.024,0.039,0.065,0.068,0.095c0.027,0.021,0.066,0.027,0.101,0.049c0.043,0.025,0.082,0.066,0.132,0.069
				c0.039,0.041,0.082,0.072,0.111,0.117c0.016,0.048,0.025,0.095,0.044,0.144c0.003,0.095-0.005,0.19-0.015,0.286
				c-0.009,0.021-0.019,0.043-0.026,0.061c-0.008,0.059-0.056,0.1-0.085,0.148c-0.016,0.034-0.035,0.069-0.062,0.104
				c0.01,0.041,0.017,0.087,0.017,0.129c-0.041,0.061-0.112,0.08-0.161,0.124c-0.038,0.022-0.033,0.073-0.067,0.099
				c-0.02,0.028-0.06,0.021-0.089,0.021c-0.09,0-0.173,0.015-0.259,0.013c0.013-0.003,0.035,0.002,0.052-0.006
				c0.003-0.014,0.007-0.024,0.01-0.038c-0.01-0.01-0.022-0.022-0.032-0.034c0.084-0.008,0.174-0.015,0.262-0.011
				c0.02-0.041,0.037-0.08,0.068-0.107c0.039-0.033,0.09-0.053,0.135-0.083c-0.001-0.029-0.005-0.062-0.008-0.092
				c0.013-0.008,0.024-0.011,0.041-0.02c-0.005-0.027-0.007-0.05-0.009-0.073c0.002-0.005,0.004-0.015,0.009-0.016
				c0.022-0.046,0.057-0.085,0.086-0.127c0.047-0.083,0.054-0.185,0.057-0.277c0.005-0.071-0.01-0.146-0.042-0.21
				c-0.032-0.04-0.07-0.078-0.124-0.096c-0.06-0.037-0.12-0.083-0.193-0.104c0.01-0.011,0.018-0.021,0.029-0.034
				c-0.003-0.013-0.012-0.024-0.012-0.037c-0.022-0.005-0.04-0.007-0.06-0.007c-0.061-0.057-0.15-0.021-0.22-0.045
				c-0.092-0.028-0.175-0.063-0.263-0.1c-0.013-0.046-0.011-0.095-0.013-0.14c-0.02-0.038-0.061-0.053-0.095-0.073
				c0.021-0.012,0.044-0.028,0.065-0.043c-0.005-0.013-0.012-0.022-0.017-0.035c-0.022-0.002-0.049-0.005-0.071-0.014
				c0.005-0.024,0.012-0.049,0.013-0.073c-0.037,0.002-0.093-0.02-0.115,0.024c-0.039,0.059-0.076,0.136-0.151,0.151
				c-0.005,0.004-0.015,0.005-0.015,0.005c-0.012-0.008-0.02-0.018-0.024-0.032c-0.029-0.007-0.063-0.017-0.09,0.007
				c-0.045-0.036-0.099-0.065-0.156-0.082c-0.003-0.01-0.01-0.02-0.013-0.027c-0.021,0-0.042-0.002-0.062-0.005
				c0-0.017,0-0.034,0-0.052c-0.068-0.019-0.121-0.072-0.195-0.065c-0.004-0.024,0.005-0.056-0.021-0.066
				c-0.027-0.019-0.051,0.015-0.07,0.032c-0.02-0.034-0.032-0.078-0.073-0.095c-0.037-0.018-0.089-0.04-0.125-0.006
				c-0.056,0.04-0.127,0.021-0.186,0.006c-0.081-0.021-0.164,0.004-0.221,0.061c-0.029,0.024-0.056,0.07-0.098,0.059
				c-0.09-0.007-0.176-0.024-0.264-0.022c-0.027,0.027-0.05,0.059-0.077,0.089c-0.038,0.048-0.109,0.049-0.165,0.07
				c-0.018,0.036-0.042,0.075-0.077,0.095c-0.042,0.022-0.077,0.055-0.111,0.088c-0.022,0.015-0.041,0.034-0.056,0.05
				c0.002,0.017,0.004,0.028,0.011,0.041c-0.007,0-0.019,0.003-0.019,0.003c-0.009,0.036-0.001,0.077-0.023,0.109
				c-0.028,0.024-0.073,0.027-0.099,0.054c-0.016,0.051,0.006,0.103,0.006,0.151c-0.02,0.031-0.041,0.052-0.06,0.081
				c-0.03,0.002-0.061,0.002-0.092-0.005c-0.019-0.008-0.035-0.015-0.052-0.024c0.002,0.073,0.032,0.163-0.031,0.219
				c-0.005,0.015-0.011,0.029-0.015,0.042c-0.024,0.002-0.046,0.002-0.068,0.002c-0.054-0.014-0.108,0-0.163-0.007
				c-0.07,0.013-0.096,0.091-0.158,0.119c-0.032,0.027-0.075,0-0.111,0.003c-0.055,0.003-0.104,0.008-0.163,0.007
				c-0.034,0.035-0.053,0.083-0.061,0.132c-0.059,0-0.116,0-0.172,0c-0.016,0.016-0.03,0.029-0.045,0.044
				c0.003,0.025,0.029,0.066-0.001,0.083c-0.054,0.032-0.114-0.014-0.167,0.006c-0.025,0.026-0.046,0.058-0.056,0.09
				c0.001,0.029,0.015,0.059,0.031,0.081c0.039,0.019,0.081,0.033,0.116,0.061c-0.033,0.005-0.054,0.026-0.068,0.051
				c-0.027-0.023-0.063-0.024-0.095-0.043c-0.019-0.011-0.027-0.032-0.034-0.05c-0.022-0.044-0.041-0.098-0.027-0.146
				c0.024-0.023,0.038-0.053,0.056-0.077c0.026-0.037,0.075-0.055,0.119-0.055c0.005-0.019,0.009-0.036,0.012-0.053
				c0.02-0.006,0.043-0.01,0.064-0.016c0.027-0.009,0.036-0.038,0.057-0.053c0.048-0.005,0.095,0,0.144-0.001
				c0.028-0.058,0.065-0.132,0.136-0.132c0.052-0.004,0.104,0.003,0.155-0.014c0.038-0.015,0.098,0.017,0.118-0.027
				c0.013-0.017,0.02-0.037,0.036-0.049c0.059-0.013,0.106-0.07,0.169-0.037c0.048-0.017,0.094-0.004,0.14,0.006
				c0.006-0.029,0.021-0.06,0.008-0.096c-0.008-0.044-0.006-0.091-0.002-0.137c0.017-0.013,0.034-0.031,0.059-0.031
				c0.041,0,0.073,0.019,0.108,0.031c0.01-0.008,0.019-0.015,0.029-0.024c-0.007-0.059-0.021-0.115,0.005-0.169
				c0.021-0.039,0.063-0.056,0.105-0.07c0-0.044,0.002-0.091,0.017-0.13c0.017,0,0.036-0.004,0.054-0.004
				c0.015-0.074,0.082-0.13,0.144-0.166c0.044-0.02,0.044-0.074,0.083-0.096c0.043-0.024,0.092-0.026,0.137-0.047
				c0.042-0.038,0.066-0.097,0.12-0.122c0.098-0.017,0.196,0.011,0.293,0.016c0.041-0.035,0.087-0.081,0.137-0.104
				c0.054-0.019,0.109-0.026,0.165-0.021c0.039,0.007,0.076,0.024,0.116,0.021C20.262,17.046,20.285,17.015,20.314,17.01
				L20.314,17.01z"/>
			<path fill="#009301" d="M20.317,17.1c0.036-0.034,0.088-0.012,0.125,0.006c0.041,0.017,0.054,0.061,0.073,0.095
				c0.014,0.062-0.032,0.122-0.081,0.158c-0.07,0.039-0.091,0.127-0.144,0.186c-0.032,0.047-0.081,0.076-0.13,0.098
				c0.007,0.025,0.017,0.047,0.029,0.069c0.036-0.01,0.078-0.024,0.104-0.052c0.059-0.056,0.099-0.119,0.14-0.186
				c0.022-0.044,0.076-0.061,0.104-0.101c0.03-0.043,0.055-0.09,0.068-0.139c0.074-0.007,0.127,0.047,0.195,0.065
				c0,0.018,0,0.035,0,0.052c0.02,0.003,0.04,0.005,0.062,0.005c0.003,0.008,0.01,0.018,0.013,0.027
				c0.058,0.017,0.111,0.046,0.156,0.082c-0.016,0.062-0.05,0.122-0.055,0.186c-0.007,0.078-0.009,0.171,0.052,0.228
				c0.026,0.034,0.063,0.054,0.101,0.071c0.015-0.021,0.041-0.044,0.036-0.073c-0.031-0.034-0.078-0.054-0.104-0.093
				c-0.013-0.088-0.01-0.182,0.039-0.259c0.014-0.024,0.039-0.029,0.061-0.039c0.075-0.016,0.112-0.093,0.151-0.151
				c0.022-0.044,0.078-0.022,0.115-0.024c-0.001,0.024-0.008,0.049-0.013,0.073c0.022,0.009,0.049,0.012,0.071,0.014
				c0.005,0.013,0.012,0.022,0.017,0.035c-0.021,0.015-0.044,0.031-0.065,0.043c0.034,0.021,0.075,0.035,0.095,0.073
				c0.002,0.045,0,0.094,0.013,0.14c0.088,0.036,0.171,0.071,0.263,0.1c0.069,0.024,0.159-0.012,0.22,0.045
				c-0.026,0.031-0.061,0.062-0.097,0.092c-0.032,0.025-0.062,0.06-0.104,0.076c-0.078,0.021-0.165-0.012-0.244,0.01
				c-0.002,0.021-0.01,0.049,0.003,0.066c0.032,0.012,0.063,0.01,0.095,0.012c0.057,0,0.113,0.003,0.169-0.013
				c0.046-0.014,0.078-0.046,0.117-0.075c0.034-0.031,0.071-0.057,0.103-0.09c0.073,0.021,0.134,0.067,0.193,0.104
				c0.054,0.018,0.092,0.056,0.124,0.096c0.007,0.065,0.031,0.132,0.026,0.199c0.001,0.113-0.012,0.239-0.087,0.33
				c-0.022,0.022-0.032,0.052-0.04,0.085c-0.005,0.001-0.007,0.011-0.009,0.016c-0.074,0.02-0.146,0.053-0.228,0.041
				c-0.08-0.012-0.137-0.071-0.2-0.115c-0.01,0.024-0.02,0.049-0.031,0.073c0.073,0.066,0.161,0.123,0.264,0.123
				c0.058,0,0.112-0.01,0.163-0.029c0.003,0.029,0.007,0.062,0.008,0.092c-0.045,0.03-0.096,0.05-0.135,0.083
				c-0.031,0.027-0.049,0.066-0.068,0.107c-0.088-0.004-0.178,0.003-0.262,0.011c-0.033-0.034-0.068-0.068-0.104-0.096
				c-0.034-0.026-0.071-0.051-0.098-0.091c-0.032-0.053-0.039-0.117-0.042-0.181c-0.023-0.015-0.043-0.024-0.062-0.036
				c-0.029,0.075-0.01,0.158,0.02,0.232c0.02,0.051,0.068,0.082,0.092,0.129c-0.036,0-0.072-0.005-0.107-0.013
				c-0.063-0.02-0.131,0.006-0.194,0c-0.037-0.014-0.076-0.038-0.118-0.036c-0.078,0-0.153,0.013-0.231,0.002
				c-0.007-0.01-0.017-0.026-0.022-0.038c0.074-0.013,0.143-0.044,0.211-0.074c0.028-0.014,0.041-0.046,0.054-0.073
				c0.017-0.038,0.028-0.08,0.031-0.121c-0.026,0.002-0.052,0.002-0.076,0.002c-0.015,0.036-0.019,0.076-0.041,0.105
				c-0.02,0.024-0.056,0.034-0.081,0.049c-0.075,0.038-0.153,0.02-0.229,0.043c-0.088,0.01-0.176,0.005-0.26-0.012
				c-0.059-0.013-0.09-0.071-0.144-0.086c-0.032-0.01-0.068-0.004-0.101-0.014c-0.039-0.021-0.068-0.054-0.107-0.076
				c-0.039-0.024-0.088-0.041-0.114-0.08c-0.013-0.025-0.013-0.052-0.016-0.078c-0.026-0.035-0.053-0.074-0.07-0.12
				c-0.024-0.051-0.024-0.11-0.027-0.168c-0.026,0-0.058,0.002-0.082,0.002c0.004,0.066,0.007,0.139,0.039,0.198
				c0.014,0.026,0.02,0.054,0.02,0.085c-0.06,0.022-0.127,0.018-0.191,0.017c-0.064-0.002-0.119-0.048-0.182-0.048
				c-0.038-0.001-0.069,0.014-0.103,0.026c-0.048,0.02-0.101,0.022-0.147,0.046c-0.045,0.02-0.069,0.06-0.113,0.083
				c-0.034,0.02-0.07,0.03-0.108,0.044c-0.045,0.015-0.099,0.015-0.146,0.006c-0.052-0.006-0.075-0.063-0.121-0.074
				c-0.033-0.007-0.062,0-0.094,0.001c0.045,0.046,0.086,0.097,0.138,0.136c0.04,0.02,0.087,0.021,0.125,0.034
				c-0.026,0.054-0.025,0.112-0.021,0.171c0,0.034-0.031,0.057-0.059,0.069c-0.032,0.019-0.071,0.041-0.112,0.029
				c-0.047-0.015-0.098-0.03-0.149-0.039c-0.073-0.01-0.142-0.04-0.212-0.071c0-0.003,0-0.012,0-0.015
				c0.073-0.013,0.15-0.02,0.209-0.062c0.063-0.048,0.097-0.126,0.111-0.199c-0.028-0.003-0.053-0.008-0.076-0.01
				c-0.025,0.053-0.038,0.119-0.094,0.148c-0.069,0.032-0.148,0.031-0.22,0.054c-0.058,0.015-0.116,0.012-0.176,0.027
				c-0.028,0.007-0.059,0.02-0.076,0.044c-0.012,0.02-0.019,0.044-0.029,0.07c-0.04,0.015-0.086,0.041-0.132,0.015
				c-0.057-0.026-0.125-0.037-0.165-0.086c-0.006-0.015-0.013-0.028-0.016-0.039c0.062-0.02,0.129-0.029,0.183-0.062
				c0.049-0.032,0.094-0.06,0.142-0.089c-0.017-0.029-0.033-0.056-0.052-0.077c-0.046,0.038-0.093,0.078-0.144,0.106
				c-0.072,0.03-0.15,0.044-0.227,0.047c-0.035-0.027-0.077-0.042-0.116-0.061c-0.016-0.022-0.029-0.052-0.031-0.081
				c0.01-0.032,0.031-0.063,0.056-0.09c0.054-0.02,0.114,0.026,0.167-0.006c0.031-0.017,0.005-0.058,0.001-0.083
				c0.015-0.015,0.029-0.028,0.045-0.044c0.056,0,0.114,0,0.172,0c0.007-0.049,0.026-0.097,0.061-0.132
				c0.059,0.001,0.108-0.004,0.163-0.007c0.036-0.003,0.079,0.024,0.111-0.003c0.062-0.028,0.088-0.106,0.158-0.119
				c0.055,0.007,0.108-0.007,0.163,0.007c0.085,0.024,0.18,0.042,0.272,0.032c0.053-0.005,0.087-0.051,0.14-0.066
				c0.024,0,0.048,0.008,0.075,0.013c0.055,0.015,0.114,0.024,0.173,0.042c0.012-0.022,0.029-0.044,0.042-0.068
				c-0.042-0.03-0.099-0.029-0.15-0.04c-0.051-0.01-0.107-0.036-0.16-0.026c-0.047,0.012-0.081,0.049-0.125,0.063
				c-0.049,0.008-0.099,0.003-0.146-0.002c0.013-0.063,0.016-0.127,0.002-0.191c0.01,0.001,0.031,0.003,0.042,0.006
				c0.031,0.007,0.062,0.007,0.092,0.005c0.02-0.029,0.041-0.05,0.06-0.081c0-0.049-0.022-0.101-0.006-0.151
				c0.026-0.026,0.071-0.029,0.099-0.054c0.021-0.032,0.014-0.073,0.019-0.109c0,0,0.015-0.003,0.022-0.003
				c0.049,0.003,0.097,0.013,0.143,0.026c0.042,0.01,0.044,0.063,0.08,0.081c0.046,0.021,0.099,0.013,0.144,0.029
				c0.027,0.013,0.051,0.031,0.073,0.051c0.02-0.02,0.035-0.036,0.051-0.053c-0.019-0.025-0.042-0.054-0.076-0.066
				c-0.044-0.021-0.094-0.024-0.14-0.029c-0.023-0.026-0.039-0.062-0.072-0.081c-0.051-0.02-0.112-0.014-0.157-0.049
				c0.034-0.033,0.069-0.065,0.111-0.088c0.035-0.02,0.059-0.059,0.077-0.095c0.056-0.021,0.127-0.022,0.165-0.07
				c0.027-0.03,0.05-0.062,0.077-0.089c0.088-0.002,0.173,0.016,0.264,0.022c0.042,0.012,0.069-0.034,0.098-0.059
				c0.057-0.057,0.14-0.081,0.221-0.061C20.19,17.12,20.262,17.14,20.317,17.1L20.317,17.1z"/>
			<path fill="#016601" d="M20.516,17.2c0.02-0.018,0.043-0.051,0.07-0.032c0.026,0.011,0.018,0.042,0.021,0.066
				c-0.014,0.049-0.038,0.096-0.068,0.139c-0.028,0.04-0.082,0.057-0.104,0.101c-0.041,0.066-0.081,0.13-0.14,0.186
				c-0.026,0.027-0.068,0.042-0.104,0.052c-0.013-0.022-0.022-0.044-0.029-0.069c0.049-0.021,0.098-0.051,0.13-0.098
				c0.053-0.059,0.073-0.146,0.144-0.186C20.483,17.322,20.529,17.262,20.516,17.2L20.516,17.2z"/>
			<path fill="#016601" d="M21.033,17.466c0.026-0.023,0.061-0.014,0.09-0.007c0.005,0.015,0.013,0.024,0.021,0.032
				c0,0,0.013-0.001,0.018-0.005c-0.021,0.01-0.047,0.015-0.061,0.039c-0.049,0.077-0.052,0.171-0.039,0.259
				c0.026,0.039,0.073,0.059,0.104,0.093c0.005,0.029-0.021,0.053-0.036,0.073c-0.037-0.018-0.074-0.037-0.101-0.071
				c-0.061-0.057-0.059-0.149-0.052-0.228C20.983,17.588,21.018,17.527,21.033,17.466L21.033,17.466z"/>
			<path fill="#016601" d="M19.063,17.594c0.016-0.016,0.034-0.035,0.056-0.05c0.045,0.035,0.106,0.029,0.157,0.049
				c0.033,0.02,0.049,0.055,0.072,0.081c0.046,0.005,0.096,0.008,0.14,0.029c0.033,0.013,0.057,0.041,0.076,0.066
				c-0.016,0.017-0.031,0.033-0.051,0.053c-0.022-0.02-0.046-0.038-0.073-0.051c-0.045-0.017-0.098-0.008-0.144-0.029
				c-0.036-0.018-0.038-0.071-0.08-0.081c-0.045-0.014-0.094-0.023-0.143-0.026C19.067,17.622,19.066,17.61,19.063,17.594
				L19.063,17.594z"/>
			<path fill="#016601" d="M19.821,17.879c-0.018-0.039,0.051-0.059,0.068-0.026c0.052,0.088,0.044,0.207,0.129,0.277
				c0.064,0.045,0.128,0.093,0.198,0.13c0.035,0.021,0.074,0.051,0.115,0.056c0.073,0.01,0.142,0.01,0.212,0.02
				c0,0.022,0,0.047,0.001,0.073c-0.066,0.008-0.13-0.007-0.191-0.009c-0.056,0-0.104-0.025-0.148-0.05
				c-0.04-0.024-0.083-0.044-0.122-0.073c-0.062-0.049-0.142-0.088-0.181-0.163C19.863,18.04,19.849,17.957,19.821,17.879
				L19.821,17.879z"/>
			<path fill="#016601" d="M22.028,17.833c0.02,0,0.037,0.002,0.06,0.007c0,0.013,0.009,0.024,0.012,0.037
				c-0.012,0.014-0.02,0.023-0.029,0.034c-0.031,0.033-0.068,0.059-0.103,0.09c-0.039,0.029-0.071,0.062-0.117,0.075
				c-0.056,0.016-0.112,0.013-0.169,0.013c-0.031-0.002-0.062,0-0.095-0.012c-0.013-0.018-0.005-0.045-0.003-0.066
				c0.079-0.021,0.166,0.012,0.244-0.01c0.042-0.017,0.071-0.051,0.104-0.076C21.968,17.896,22.002,17.864,22.028,17.833
				L22.028,17.833z"/>
			<path fill="#016601" d="M19.195,18.022c0.121-0.053,0.239-0.122,0.373-0.107c0.011,0.022,0.017,0.05,0.026,0.074
				c-0.068,0.007-0.139,0.005-0.199,0.033c-0.055,0.025-0.11,0.049-0.167,0.068C19.214,18.071,19.203,18.048,19.195,18.022
				L19.195,18.022z"/>
			<path fill="#016601" d="M18.736,18.004c0.017,0.01,0.033,0.017,0.052,0.024c-0.011-0.003-0.031-0.005-0.042-0.006
				c0.014,0.064,0.01,0.128-0.002,0.191c0.046,0.005,0.097,0.01,0.146,0.002c0.044-0.015,0.077-0.052,0.125-0.063
				c0.053-0.01,0.109,0.017,0.16,0.026c0.052,0.011,0.109,0.01,0.15,0.04c-0.012,0.024-0.029,0.046-0.042,0.068
				c-0.06-0.018-0.118-0.027-0.173-0.042c-0.027-0.005-0.05-0.013-0.075-0.013c-0.053,0.016-0.087,0.062-0.14,0.066
				c-0.092,0.01-0.187-0.008-0.272-0.032c0.022,0,0.044,0,0.068-0.002c0.004-0.013,0.01-0.027,0.015-0.042
				C18.768,18.167,18.739,18.077,18.736,18.004L18.736,18.004z"/>
			<path fill="#016601" d="M22.388,18.111c0.032,0.063,0.047,0.139,0.042,0.21c-0.003,0.093-0.01,0.194-0.057,0.277
				c-0.029,0.042-0.063,0.081-0.086,0.127c0.008-0.033,0.018-0.062,0.04-0.085c0.075-0.091,0.088-0.217,0.087-0.33
				C22.419,18.243,22.395,18.177,22.388,18.111L22.388,18.111z"/>
			<path fill="#016601" d="M20.959,18.297c0-0.022,0-0.057,0.032-0.06c0.056,0,0.104,0.032,0.163,0.04
				c0.071,0.014,0.14,0.034,0.218,0.046s0.132,0.088,0.215,0.091c0.059-0.003,0.105-0.04,0.158-0.047
				c0.03,0.002,0.054,0.021,0.076,0.039c-0.044,0.046-0.104,0.054-0.163,0.075c-0.055,0.024-0.112,0.015-0.164-0.007
				c-0.041-0.017-0.073-0.049-0.119-0.066C21.237,18.372,21.089,18.364,20.959,18.297L20.959,18.297z"/>
			<path fill="#016601" d="M19.868,18.299c0.024,0,0.056-0.002,0.082-0.002c0.003,0.058,0.003,0.117,0.027,0.168
				c0.018,0.046,0.044,0.085,0.07,0.12c-0.026,0.009-0.053,0.017-0.078,0.024c-0.01-0.011-0.02-0.022-0.028-0.032
				c-0.001,0.003-0.011,0.003-0.015,0.005c0-0.031-0.006-0.059-0.02-0.085C19.875,18.438,19.872,18.365,19.868,18.299L19.868,18.299
				z"/>
			<path fill="#016601" d="M19.24,18.414c0.103-0.024,0.203-0.05,0.295-0.103c0.016,0.021,0.024,0.046,0.027,0.07
				c-0.092,0.061-0.195,0.098-0.304,0.105C19.252,18.465,19.248,18.438,19.24,18.414L19.24,18.414z"/>
			<path fill="#020101" d="M19.452,18.577c0.033-0.013,0.064-0.027,0.103-0.026c0.062,0,0.117,0.046,0.182,0.048
				c0.064,0.001,0.131,0.006,0.191-0.017c0.004-0.002,0.014-0.002,0.015-0.005c0.009,0.01,0.019,0.021,0.028,0.032
				c0.025-0.008,0.052-0.016,0.078-0.024c0.003,0.026,0.003,0.053,0.016,0.078c0.026,0.039,0.075,0.056,0.114,0.08
				c0.039,0.022,0.068,0.056,0.107,0.076c0.032,0.01,0.068,0.004,0.101,0.014c0.054,0.015,0.085,0.073,0.144,0.086
				c0.084,0.017,0.172,0.021,0.26,0.012c0.009,0.024,0.017,0.045,0.023,0.068c0.025,0,0.055-0.005,0.083,0
				c0.016,0.011,0.03,0.025,0.047,0.039c0.078,0.011,0.153-0.002,0.231-0.002c0.042-0.002,0.081,0.022,0.118,0.036
				c0.063,0.006,0.131-0.02,0.194,0c0.035,0.008,0.071,0.013,0.107,0.013c0.069,0,0.103,0.073,0.147,0.109
				c-0.055-0.031-0.118-0.033-0.177-0.024c-0.043,0.013-0.072-0.026-0.109-0.024c-0.07-0.002-0.139,0.01-0.203,0.006
				c-0.043-0.047-0.107-0.039-0.165-0.029c-0.076,0-0.169,0.019-0.223-0.049c-0.032-0.05-0.098-0.063-0.158-0.059
				c-0.035,0.005-0.079-0.01-0.11,0.014c-0.149,0.094-0.269,0.229-0.334,0.389c-0.035,0.073-0.022,0.158-0.025,0.234
				c0,0.51,0.037,1.018,0.113,1.522c0.072,0.435,0.173,0.864,0.346,1.271c0.052,0.126,0.113,0.251,0.182,0.37
				c0.033,0.05,0.046,0.115,0.026,0.172c-0.029,0.082-0.105,0.132-0.186,0.15c-0.036,0.005-0.078,0.008-0.114-0.012
				c-0.052-0.027-0.083-0.075-0.113-0.124c-0.02,0.056-0.033,0.117-0.082,0.155c-0.044,0.037-0.11,0.034-0.162,0.006
				c-0.059-0.042-0.091-0.108-0.12-0.176c-0.059,0.067-0.126,0.137-0.219,0.146c-0.065,0-0.104-0.062-0.127-0.116
				c-0.032,0.043-0.095,0.075-0.149,0.059c-0.077-0.016-0.158-0.045-0.207-0.105c-0.044-0.052-0.039-0.119-0.016-0.179
				c0.322-0.854,0.5-1.77,0.456-2.685c-0.005-0.195-0.026-0.389-0.031-0.586c0-0.059-0.02-0.117-0.045-0.164
				c-0.059-0.102-0.154-0.176-0.229-0.263c-0.054-0.059-0.137-0.064-0.209-0.064c-0.092-0.009-0.184,0-0.27-0.023
				c0-0.057,0.001-0.108,0.01-0.162c0.007-0.033,0.005-0.061-0.006-0.093c0.038-0.014,0.075-0.024,0.108-0.044
				c0.044-0.023,0.067-0.063,0.113-0.083C19.351,18.6,19.404,18.597,19.452,18.577L19.452,18.577z"/>
			<path fill="#CCCCCC" d="M19.401,18.673c0.048-0.006,0.093-0.025,0.14-0.042c0.053,0,0.095,0.032,0.142,0.041
				c0.047,0.008,0.091,0.008,0.139,0.01c0.001,0.103,0.01,0.206,0.01,0.311c-0.054-0.057-0.111-0.107-0.167-0.154
				c-0.102-0.088-0.238-0.104-0.367-0.104C19.316,18.691,19.366,18.685,19.401,18.673L19.401,18.673z"/>
			<path fill="#672800" d="M19.902,18.675c0.023-0.008,0.046-0.018,0.067-0.027c0.015,0.059,0.059,0.101,0.107,0.135
				c0.001,0.173,0,0.344,0.001,0.516c0.034-0.025,0.051-0.066,0.07-0.098c0.068-0.103,0.157-0.19,0.245-0.271
				c0.031,0.027,0.067,0.056,0.109,0.065c-0.146,0.115-0.275,0.26-0.332,0.438c-0.024,0.078-0.013,0.159-0.016,0.241
				c0.003,0.11-0.007,0.223,0.006,0.335c0.017,0.453,0.059,0.907,0.145,1.35c0.01,0.083,0.031,0.161,0.043,0.244
				c-0.028,0-0.051,0-0.077,0c0,0.07-0.003,0.139,0.01,0.208c0.01,0.056,0.01,0.112,0.021,0.17c0.007,0.074,0.012,0.166-0.044,0.226
				c-0.065,0.072-0.076,0.17-0.083,0.258c0.061,0.047,0.104,0.11,0.156,0.164c0.034,0.056,0.096,0.105,0.09,0.174
				c-0.017,0.049,0.008,0.092,0,0.137c-0.014,0.049-0.02,0.111-0.058,0.151c-0.025,0.031-0.073,0.009-0.096-0.015
				c-0.059-0.064-0.081-0.149-0.1-0.232c0.009-0.008,0.019-0.015,0.023-0.022c-0.01-0.049-0.005-0.103-0.029-0.148
				c-0.018-0.049-0.057-0.09-0.054-0.145c0-0.056-0.007-0.116,0.008-0.17c0.019-0.076,0.028-0.154,0.041-0.232
				c0.005-0.056,0.049-0.096,0.064-0.149c0.034-0.098,0-0.197,0-0.297c-0.006-0.154,0-0.313-0.006-0.47
				c0-0.073-0.023-0.15-0.033-0.225c-0.025,0.003-0.052,0.008-0.077,0.015c0.013,0.088,0.039,0.181,0.035,0.274
				c-0.003,0.124-0.003,0.246,0,0.366c-0.003,0.098,0.021,0.192,0.012,0.29c-0.012,0.063-0.07,0.109-0.073,0.174
				c-0.013,0.082-0.026,0.163-0.042,0.239c-0.014,0.068-0.01,0.139-0.01,0.205c0.003,0.065,0.05,0.116,0.071,0.175
				c0.003,0.047,0.013,0.093,0.02,0.14c-0.042,0.073-0.104,0.145-0.188,0.188c-0.041,0.02-0.062-0.039-0.077-0.068
				c-0.018-0.078,0.005-0.16-0.015-0.236c-0.026-0.093,0.007-0.19-0.027-0.281c-0.02-0.049-0.015-0.103,0.003-0.15
				c0.044-0.084,0.111-0.164,0.119-0.262c0.015-0.101,0.032-0.2,0.036-0.303c0.003-0.047,0.02-0.095,0.029-0.139
				c0.006-0.086,0-0.176,0.032-0.262c0.029-0.073,0.013-0.154,0.036-0.229c0.016-0.052,0.021-0.105,0.021-0.161
				c0-0.101,0-0.203,0-0.306c-0.027,0-0.05,0-0.078,0c-0.005,0.159,0.019,0.322-0.027,0.477c-0.022,0.062,0,0.127-0.022,0.188
				c-0.049,0.102-0.029,0.222-0.053,0.334c-0.02,0.076-0.018,0.159-0.032,0.241c-0.012,0.063-0.015,0.133-0.033,0.2
				c-0.026,0.068-0.065,0.127-0.103,0.187c-0.017,0.038-0.02,0.08-0.021,0.119c-0.004,0.056,0.029,0.107,0.032,0.161
				c0.003,0.063-0.006,0.127,0.007,0.193c0.016,0.073,0.005,0.156-0.043,0.219c-0.019,0.022-0.052,0.034-0.081,0.025
				c-0.063-0.016-0.129-0.044-0.163-0.103c-0.002-0.022,0.002-0.049,0.012-0.071c0.305-0.812,0.483-1.677,0.466-2.544
				c0.002-0.259-0.034-0.518-0.037-0.78c-0.007-0.096-0.051-0.184-0.111-0.259c-0.049-0.069-0.121-0.123-0.172-0.193
				c-0.072-0.083-0.188-0.103-0.292-0.103c-0.059-0.003-0.122,0.008-0.178-0.01c0.005-0.037,0.011-0.075,0.011-0.11
				c0.13-0.019,0.272-0.019,0.394,0.039c0.081,0.05,0.145,0.122,0.211,0.187c0.052,0.049,0.086,0.106,0.137,0.151
				C19.911,19.028,19.902,18.851,19.902,18.675L19.902,18.675z"/>
			<path fill="#016601" d="M18.723,18.683c0.032-0.001,0.061-0.008,0.094-0.001c0.045,0.011,0.068,0.068,0.121,0.074
				c0.046,0.009,0.1,0.009,0.146-0.006c0.011,0.032,0.013,0.06,0.006,0.093h-0.006c-0.028,0-0.062,0-0.093,0
				c0,0.003-0.001,0.01-0.001,0.01c-0.041-0.014-0.088-0.015-0.128-0.034C18.81,18.779,18.768,18.729,18.723,18.683L18.723,18.683z"
				/>
			<path fill="#016601" d="M21.819,18.74c0.012-0.024,0.021-0.049,0.031-0.073c0.063,0.044,0.12,0.104,0.2,0.115
				c0.081,0.012,0.153-0.021,0.228-0.041c0.002,0.023,0.004,0.046,0.009,0.073c-0.017,0.009-0.028,0.012-0.041,0.02
				c-0.051,0.02-0.105,0.029-0.163,0.029C21.98,18.863,21.893,18.807,21.819,18.74L21.819,18.74z"/>
			<path fill="#016601" d="M17.9,18.838c0.051-0.028,0.098-0.068,0.144-0.106c0.019,0.021,0.035,0.048,0.052,0.077
				c-0.048,0.029-0.093,0.057-0.142,0.089c-0.054,0.033-0.122,0.043-0.183,0.062c0.003,0.011,0.01,0.024,0.016,0.039
				c-0.013-0.015-0.024-0.028-0.039-0.034c-0.033-0.004-0.06,0.005-0.094,0.008c-0.023,0.003-0.036-0.021-0.049-0.037
				c0.015-0.024,0.036-0.046,0.068-0.051C17.75,18.882,17.828,18.868,17.9,18.838L17.9,18.838z"/>
			<path fill="#016601" d="M18.584,18.875c0.056-0.029,0.068-0.096,0.094-0.148c0.023,0.002,0.048,0.007,0.076,0.01
				c-0.015,0.073-0.048,0.151-0.111,0.199c-0.06,0.042-0.137,0.049-0.209,0.062c0,0.003,0,0.012,0,0.015
				c-0.019-0.01-0.044-0.01-0.065-0.002c-0.046,0.015-0.094,0.021-0.142,0.021c-0.001-0.022-0.005-0.047-0.007-0.071
				c-0.008,0-0.021-0.004-0.03-0.004c0.06-0.016,0.118-0.013,0.176-0.027C18.436,18.906,18.515,18.907,18.584,18.875L18.584,18.875z
				"/>
			<path fill="#016601" d="M21.14,18.733c0.024,0,0.05,0,0.076-0.002c-0.003,0.041-0.015,0.083-0.031,0.121
				c-0.013,0.027-0.025,0.06-0.054,0.073c-0.068,0.03-0.137,0.062-0.211,0.074c0.006,0.012,0.016,0.028,0.022,0.038
				c-0.017-0.014-0.031-0.028-0.047-0.039c-0.028-0.005-0.058,0-0.083,0c-0.007-0.023-0.015-0.044-0.023-0.068
				c0.075-0.023,0.153-0.005,0.229-0.043c0.025-0.015,0.062-0.024,0.081-0.049C21.121,18.81,21.125,18.77,21.14,18.733L21.14,18.733
				z"/>
			<path fill="#016601" d="M21.502,18.956c-0.029-0.074-0.049-0.157-0.02-0.232c0.02,0.012,0.039,0.021,0.062,0.036
				c0.003,0.063,0.01,0.128,0.042,0.181c0.026,0.04,0.063,0.064,0.098,0.091c0.036,0.027,0.071,0.062,0.104,0.096
				c0.01,0.012,0.022,0.024,0.032,0.034c-0.003,0.014-0.007,0.024-0.01,0.038c-0.017,0.008-0.039,0.003-0.052,0.006
				c-0.007-0.005-0.015-0.006-0.019-0.011c-0.045-0.036-0.078-0.109-0.147-0.109C21.57,19.038,21.521,19.007,21.502,18.956
				L21.502,18.956z"/>
			<path fill="#020101" d="M18.99,18.843c0.031,0,0.064,0,0.093,0c-0.028,0.042-0.045,0.098-0.038,0.149
				c0.011,0.066-0.03,0.139-0.095,0.166c-0.035,0.017-0.07,0.044-0.112,0.047c-0.031,0.002-0.062,0-0.091-0.013
				c-0.083-0.034-0.173-0.031-0.258-0.061c-0.058-0.022-0.107-0.069-0.171-0.089c-0.039-0.012-0.084-0.007-0.125-0.005
				c0,0.022,0.004,0.054-0.019,0.069c-0.061,0.044-0.131,0.062-0.203,0.083c-0.059-0.032-0.121-0.063-0.186-0.079
				c-0.013-0.004-0.016-0.017-0.027-0.026c-0.033-0.039-0.071-0.073-0.106-0.112c0.034-0.003,0.062-0.012,0.094-0.008
				c0.015,0.006,0.026,0.02,0.039,0.034c0.04,0.049,0.107,0.06,0.165,0.086c0.046,0.026,0.093,0,0.132-0.015
				c0.01-0.026,0.017-0.051,0.029-0.07c0.017-0.024,0.048-0.037,0.076-0.044c0.009,0,0.022,0.004,0.03,0.004
				c0.002,0.024,0.006,0.049,0.007,0.071c0.047,0,0.095-0.007,0.142-0.021c0.021-0.008,0.046-0.008,0.065,0.002
				c0.07,0.031,0.139,0.062,0.212,0.071c0.051,0.009,0.102,0.024,0.149,0.039c0.042,0.012,0.08-0.011,0.112-0.029
				c0.028-0.013,0.059-0.035,0.059-0.069c-0.004-0.059-0.005-0.117,0.021-0.171C18.986,18.853,18.99,18.846,18.99,18.843
				L18.99,18.843z"/>
			<path fill="#CCCCCC" d="M20.155,18.824c0.045,0.029,0.084,0.075,0.143,0.082c-0.052,0.05-0.098,0.101-0.143,0.152
				C20.155,18.98,20.155,18.901,20.155,18.824L20.155,18.824z"/>
			<path fill="#672800" d="M20.371,21.892c-0.005-0.093-0.031-0.183-0.021-0.272c0.102,0.419,0.231,0.84,0.449,1.216
				c0.02,0.036,0.043,0.072,0.033,0.112c-0.014,0.07-0.09,0.109-0.155,0.112c-0.03,0.005-0.057-0.016-0.073-0.039
				c-0.042-0.044-0.068-0.093-0.091-0.149c-0.01-0.027-0.002-0.057-0.003-0.086c-0.019-0.085-0.07-0.155-0.124-0.217
				c-0.039-0.042-0.071-0.086-0.114-0.125c-0.015-0.01-0.013-0.031-0.01-0.046c0.007-0.032,0.014-0.065,0.029-0.095
				c0.015-0.035,0.048-0.062,0.062-0.098c0.013-0.029,0.022-0.06,0.032-0.094C20.396,22.038,20.376,21.963,20.371,21.892
				L20.371,21.892z"/>
		</g>
		<path fill="#CCCCCC" d="M15.752,22.585c0.046-0.029,0.105-0.051,0.159-0.026c0.073,0.032,0.125,0.103,0.206,0.127
			c0.072,0.022,0.151-0.003,0.215-0.042c-0.009,0.079-0.032,0.157-0.046,0.237c-0.055,0.244-0.104,0.493-0.165,0.74
			c-0.128-0.113-0.244-0.25-0.333-0.405c-0.068-0.113-0.125-0.242-0.142-0.377c-0.001-0.049-0.006-0.102,0.021-0.144
			C15.693,22.658,15.709,22.607,15.752,22.585L15.752,22.585z"/>
		<path fill="#CCCCCC" d="M24.023,22.565c0.044-0.029,0.104-0.021,0.149,0.005c0.07,0.027,0.103,0.103,0.126,0.162
			c0.022,0.15-0.036,0.297-0.103,0.429c-0.093,0.177-0.225,0.33-0.371,0.46c-0.073-0.325-0.142-0.652-0.212-0.981
			c0.063,0.041,0.137,0.067,0.21,0.048C23.903,22.669,23.957,22.603,24.023,22.565L24.023,22.565z"/>
		<path fill="#FFFFFF" d="M24.888,22.873c0.065-0.072,0.115-0.166,0.122-0.271v3.273h-4.523c0.111-0.019,0.22-0.02,0.332-0.033
			c0.098-0.011,0.199-0.016,0.292-0.052c0.066-0.02,0.132-0.032,0.187-0.075c0.021-0.021,0.039-0.047,0.036-0.079
			c0-0.239,0-0.478,0-0.718c0.359,0,0.725,0,1.082,0c0.239,0,0.478,0,0.715-0.028c0.252-0.03,0.508-0.084,0.747-0.182
			c0.184-0.073,0.363-0.173,0.503-0.312c0.132-0.13,0.236-0.301,0.249-0.488c0.01-0.274-0.013-0.55-0.091-0.815
			C24.673,23.054,24.793,22.979,24.888,22.873L24.888,22.873z"/>
		<path fill="#FFFFFF" d="M14.99,22.605c0.008,0.072,0.032,0.139,0.07,0.195c0.084,0.131,0.218,0.22,0.359,0.278
			c-0.08,0.263-0.104,0.536-0.096,0.81c0.005,0.161,0.079,0.318,0.187,0.44c0.125,0.146,0.289,0.256,0.462,0.337
			c0.319,0.15,0.678,0.214,1.028,0.241c0.243,0.017,0.483,0.012,0.724,0.012c0.298,0,0.597,0,0.893,0c0,0.24-0.002,0.477,0,0.718
			c-0.006,0.042,0.025,0.074,0.06,0.096c0.064,0.034,0.136,0.051,0.206,0.065c0.115,0.04,0.242,0.042,0.366,0.055
			c0.064,0.012,0.125,0.01,0.191,0.023H14.99V22.605L14.99,22.605z"/>
		<path fill="#CCCCCC" d="M15.404,23.703c0.004-0.282,0.059-0.562,0.172-0.82c0.026,0.171,0.104,0.325,0.199,0.469
			c0.069,0.101,0.149,0.193,0.239,0.276c-0.094,0.078-0.186,0.156-0.283,0.232c-0.073,0.063-0.154,0.121-0.208,0.202
			c-0.023,0.034-0.028,0.076-0.028,0.119c-0.021-0.046-0.047-0.087-0.061-0.134C15.395,23.938,15.396,23.818,15.404,23.703
			L15.404,23.703z"/>
		<path fill="#CCCCCC" d="M24.383,22.883c0.026,0.081,0.061,0.162,0.083,0.249c0.07,0.24,0.088,0.494,0.085,0.745
			c-0.003,0.091-0.031,0.186-0.076,0.266c-0.173-0.116-0.341-0.233-0.508-0.354c-0.023-0.012-0.038-0.026-0.059-0.034
			c-0.02,0.008-0.036,0.02-0.056,0.029c0.114,0.203,0.228,0.407,0.334,0.61c0.02-0.01,0.034-0.021,0.057-0.032
			c-0.037-0.059-0.071-0.122-0.105-0.185c0.049-0.029,0.104-0.059,0.151-0.093c0.054,0.038,0.104,0.073,0.156,0.112
			c-0.09,0.132-0.217,0.241-0.358,0.319c-0.205,0.124-0.437,0.198-0.667,0.246c-0.273,0.059-0.551,0.076-0.83,0.078
			c-0.419,0-0.837,0-1.257,0c0-0.073,0-0.146,0-0.219c0-0.081-0.049-0.146-0.1-0.2c-0.118-0.128-0.269-0.225-0.4-0.337
			c-0.047-0.047-0.099-0.089-0.135-0.147c-0.017-0.034-0.036-0.073-0.015-0.111c0.083-0.003,0.161,0.024,0.239,0.044
			c0.262,0.078,0.524,0.155,0.789,0.199c0.314,0.059,0.634,0.086,0.952,0.083c0.454-0.01,0.907-0.186,1.244-0.495
			C24.133,23.452,24.319,23.186,24.383,22.883L24.383,22.883z"/>
		<path fill="#CCCCCC" d="M15.69,23.975c0.121-0.101,0.244-0.203,0.369-0.305c0.059,0.056,0.124,0.102,0.186,0.151
			c-0.095,0.077-0.192,0.153-0.287,0.229c-0.059,0.053-0.119,0.103-0.187,0.139c-0.04,0.021-0.081,0.026-0.122,0.012
			c-0.033-0.015-0.07-0.048-0.062-0.09C15.593,24.051,15.646,24.014,15.69,23.975L15.69,23.975z"/>
		<path fill="#CCCCCC" d="M19.019,23.874c0.064-0.019,0.127-0.039,0.198-0.048c0.021,0.002,0.045-0.005,0.059,0.015
			c0.011,0.068-0.04,0.126-0.082,0.173c-0.123,0.125-0.272,0.217-0.402,0.332c-0.076,0.068-0.155,0.149-0.172,0.252
			c-0.007,0.08-0.001,0.161-0.001,0.243c-0.152,0-0.3,0-0.449,0c0.059-0.01,0.11-0.051,0.138-0.106
			c0.049-0.103,0.056-0.22,0.044-0.33c-0.006-0.08-0.022-0.163-0.08-0.222c-0.026-0.034-0.068-0.054-0.112-0.054
			c-0.071-0.001-0.14-0.001-0.213-0.001c0,0.237,0,0.475,0,0.713c-0.016,0-0.035,0-0.053,0c-0.066-0.231-0.135-0.466-0.201-0.7
			c0.243-0.018,0.487-0.054,0.723-0.107C18.619,23.992,18.817,23.933,19.019,23.874L19.019,23.874z"/>
		<path fill="#CCCCCC" d="M23.936,23.83c0.091,0.071,0.19,0.138,0.285,0.208c-0.038,0.024-0.08,0.049-0.121,0.073
			C24.046,24.019,23.997,23.919,23.936,23.83L23.936,23.83z"/>
		<path fill="#CCCCCC" d="M15.893,24.187c0.139-0.111,0.268-0.227,0.406-0.332c0.099,0.057,0.197,0.113,0.303,0.154
			c-0.098,0.163-0.208,0.32-0.312,0.486c0.023-0.198,0.057-0.396,0.089-0.592c-0.019-0.007-0.04-0.019-0.063-0.026
			c-0.133,0.21-0.276,0.42-0.407,0.628c0.017,0.009,0.036,0.019,0.057,0.024c0.103-0.164,0.211-0.325,0.316-0.491
			c-0.026,0.2-0.06,0.396-0.088,0.594c0.019,0.01,0.04,0.019,0.06,0.028c0.136-0.209,0.269-0.415,0.404-0.622
			c0.054,0.003,0.202,0.056,0.202,0.056s0.083,0.018,0.127,0.029c-0.006,0.234-0.016,0.467-0.023,0.701
			c-0.094-0.007-0.191-0.018-0.282-0.034c0.05-0.229,0.1-0.461,0.156-0.687c-0.021-0.02-0.042-0.02-0.068-0.02
			c-0.051,0.23-0.103,0.462-0.155,0.694c-0.217-0.039-0.43-0.099-0.63-0.193c-0.167-0.085-0.329-0.193-0.445-0.347
			c0.033,0.027,0.072,0.046,0.11,0.046C15.743,24.285,15.821,24.236,15.893,24.187L15.893,24.187z"/>
		<path fill="#020101" d="M23.713,23.901c-0.023-0.032,0.025-0.032,0.045-0.042c0.114,0.188,0.229,0.377,0.342,0.567
			c-0.02,0.007-0.042,0.017-0.062,0.023C23.929,24.266,23.816,24.085,23.713,23.901L23.713,23.901z"/>
		<path fill="#020101" d="M23.389,24.097c0.021-0.075,0.095-0.129,0.174-0.129c0.085-0.001,0.16,0.058,0.209,0.121
			c-0.017,0.013-0.029,0.022-0.048,0.034c-0.027-0.017-0.045-0.048-0.076-0.063c-0.061-0.039-0.154-0.019-0.188,0.05
			c-0.025,0.059-0.001,0.127,0.021,0.185c0.031,0.068,0.07,0.14,0.129,0.191c0.054,0.044,0.14,0.058,0.195,0.01
			c0.045-0.044,0.035-0.112,0.02-0.171c0.025,0,0.05,0,0.073,0c0.013,0.063,0.025,0.134-0.01,0.19
			c-0.036,0.062-0.107,0.087-0.175,0.083c-0.054-0.003-0.103-0.029-0.142-0.064c-0.074-0.059-0.123-0.142-0.159-0.229
			C23.386,24.24,23.372,24.167,23.389,24.097L23.389,24.097z"/>
		<path fill="#CCCCCC" d="M20.635,23.991c0.12,0.157,0.295,0.264,0.444,0.392c0.075,0.065,0.159,0.136,0.179,0.243
			c-0.06,0.04-0.135,0.059-0.206,0.074c-0.139,0.026-0.282,0.039-0.425,0.053c0.013-0.075,0.008-0.151,0.008-0.229
			C20.635,24.346,20.635,24.167,20.635,23.991L20.635,23.991z"/>
		<path fill="#CCCCCC" d="M18.841,24.409c0.156-0.142,0.343-0.247,0.473-0.413c0.006,0.096,0.002,0.193,0.002,0.289
			c0.001,0.158-0.002,0.312,0.003,0.468c-0.161-0.015-0.321-0.028-0.475-0.065c-0.046-0.015-0.098-0.026-0.139-0.056
			c-0.013-0.021,0-0.05,0.008-0.071C18.745,24.5,18.792,24.456,18.841,24.409L18.841,24.409z"/>
		<path fill="#020101" d="M23.195,24.109c0.02-0.005,0.037-0.01,0.06-0.015c0.077,0.204,0.148,0.405,0.217,0.605
			c-0.02,0.004-0.039,0.009-0.061,0.019c-0.052-0.148-0.107-0.292-0.156-0.434C23.232,24.227,23.21,24.168,23.195,24.109
			L23.195,24.109z"/>
		<path fill="#020101" d="M22.762,24.165c0.136-0.01,0.264-0.022,0.397-0.026c0.002,0.023,0.005,0.048,0.007,0.073
			c-0.053,0.004-0.107,0.007-0.163,0.015c0.018,0.185,0.037,0.368,0.057,0.552c-0.024,0-0.042,0-0.068,0.004
			c-0.021-0.185-0.035-0.37-0.059-0.556c-0.055,0.005-0.107,0.012-0.161,0.014C22.769,24.214,22.766,24.189,22.762,24.165
			L22.762,24.165z"/>
		<path fill="#CCCCCC" d="M17.28,24.152c0.11,0.001,0.219-0.004,0.332-0.005c-0.065,0.232-0.125,0.464-0.186,0.693
			c-0.076,0-0.151,0.003-0.227-0.009c0.063-0.001,0.109-0.054,0.136-0.105c0.046-0.095,0.054-0.205,0.052-0.308
			C17.385,24.319,17.361,24.212,17.28,24.152L17.28,24.152z"/>
		<path fill="#020101" d="M21.577,24.148c0.021,0,0.044,0.004,0.065,0.004c0,0.146,0,0.291,0,0.436c0,0.048-0.004,0.098-0.028,0.139
			c-0.037,0.08-0.167,0.091-0.216,0.015c-0.026-0.039-0.026-0.091-0.034-0.137c0.021-0.003,0.04-0.01,0.063-0.015
			c0.005,0.042,0.001,0.096,0.044,0.119c0.022,0.01,0.06,0.01,0.079-0.012c0.023-0.027,0.023-0.065,0.026-0.096
			C21.577,24.45,21.577,24.3,21.577,24.148L21.577,24.148z"/>
		<path fill="#020101" d="M21.855,24.168c0.022-0.001,0.044,0,0.068,0c-0.012,0.095-0.01,0.189-0.018,0.28
			c-0.004,0.065-0.014,0.132,0,0.195c0.005,0.052,0.045,0.095,0.098,0.095c0.047,0.003,0.103-0.007,0.123-0.049
			c0.039-0.073,0.031-0.153,0.039-0.229c0.009-0.095,0.009-0.186,0.015-0.278c0.023,0,0.044,0,0.068,0.001
			c-0.013,0.139-0.015,0.278-0.025,0.419c-0.005,0.074-0.033,0.157-0.102,0.193c-0.064,0.036-0.151,0.029-0.213-0.01
			c-0.063-0.046-0.075-0.125-0.073-0.197C21.836,24.448,21.848,24.31,21.855,24.168L21.855,24.168z"/>
		<path fill="#020101" d="M22.463,24.197c0.071-0.035,0.166-0.03,0.221,0.026c0.046,0.032,0.056,0.09,0.062,0.142
			c-0.021,0-0.043,0.005-0.065,0.007c-0.007-0.036-0.017-0.075-0.044-0.102c-0.039-0.025-0.098-0.025-0.142-0.01
			c-0.054,0.023-0.071,0.109-0.026,0.146c0.07,0.045,0.161,0.044,0.229,0.094c0.102,0.082,0.073,0.264-0.049,0.312
			c-0.088,0.042-0.211,0.013-0.26-0.08c-0.02-0.032-0.024-0.075-0.029-0.117c0.021-0.002,0.042-0.003,0.063-0.005
			c0.005,0.034,0.013,0.076,0.039,0.104c0.052,0.045,0.13,0.05,0.186,0.018c0.052-0.029,0.064-0.115,0.016-0.154
			c-0.064-0.053-0.164-0.048-0.229-0.102C22.347,24.404,22.368,24.246,22.463,24.197L22.463,24.197z"/>
		<path fill="#CCCCCC" d="M17.051,24.212c0.053-0.001,0.112-0.001,0.167,0.009c0.072,0.021,0.094,0.107,0.099,0.176
			c0.004,0.104,0.004,0.218-0.054,0.309c-0.056,0.07-0.149,0.044-0.227,0.048C17.036,24.57,17.048,24.395,17.051,24.212
			L17.051,24.212z"/>
		<path fill="#CCCCCC" d="M17.571,24.546c0.025-0.112,0.063-0.223,0.079-0.339c0.026,0.114,0.06,0.227,0.086,0.339
			C17.679,24.546,17.624,24.546,17.571,24.546L17.571,24.546z"/>
		<path fill="#CCCCCC" d="M18.012,24.212c0.056,0.002,0.115-0.005,0.171,0.009c0.052,0.018,0.081,0.079,0.094,0.127
			c0.018,0.091,0.016,0.184-0.004,0.274c-0.01,0.048-0.031,0.098-0.082,0.119c-0.055,0.022-0.121,0.012-0.18,0.017
			C18.01,24.575,18.012,24.395,18.012,24.212L18.012,24.212z"/>
		<path fill="#CCCCCC" d="M17.55,24.626c0.069-0.004,0.139-0.004,0.21,0c0.014,0.073,0.04,0.142,0.053,0.215
			c-0.103,0-0.21,0-0.315,0C17.512,24.769,17.534,24.697,17.55,24.626L17.55,24.626z"/>
		<path fill="#CCCCCC" d="M18.695,24.72c0.177,0.075,0.371,0.087,0.559,0.107c0.342,0.031,0.688,0.031,1.031,0.024
			c0.242-0.011,0.484-0.021,0.726-0.063c0.083-0.015,0.166-0.03,0.244-0.068c0,0.312,0,0.619,0,0.93
			c-0.085,0.054-0.188,0.066-0.285,0.086c-0.311,0.048-0.626,0.059-0.941,0.061c-0.295,0.002-0.594-0.007-0.888-0.037
			c-0.122-0.017-0.245-0.031-0.362-0.068c-0.029-0.015-0.064-0.021-0.082-0.049C18.695,25.335,18.696,25.027,18.695,24.72
			L18.695,24.72z"/>
		<path fill="#020101" d="M19.355,24.944c0.075,0,0.152-0.003,0.229,0c0.047,0.002,0.092,0.026,0.119,0.067
			c0.045,0.081,0.045,0.182,0.007,0.267c-0.018,0.049-0.065,0.081-0.117,0.088c-0.055,0.003-0.112,0-0.17,0c0,0.096,0,0.19,0,0.286
			c-0.024,0-0.049,0.004-0.068,0.004C19.355,25.418,19.355,25.183,19.355,24.944L19.355,24.944z"/>
		<path fill="#020101" d="M19.956,24.944c0.023,0,0.051,0,0.072,0c0.068,0.238,0.14,0.474,0.204,0.712c-0.025,0-0.052,0-0.077-0.004
			c-0.02-0.073-0.036-0.143-0.059-0.215c-0.068,0.004-0.137,0-0.205,0c-0.021,0.072-0.036,0.142-0.056,0.219
			c-0.021,0-0.046,0-0.068,0C19.829,25.418,19.893,25.181,19.956,24.944L19.956,24.944z"/>
		<path fill="#020101" d="M20.273,24.944c0.12-0.003,0.237,0,0.356,0c0,0.038,0.012,0.08-0.013,0.114
			c-0.098,0.171-0.192,0.344-0.293,0.513c0.105,0,0.211,0,0.315,0c0,0.026,0,0.054,0,0.085c-0.13,0-0.264,0-0.394,0
			c0-0.043-0.007-0.083,0.016-0.119c0.1-0.168,0.186-0.342,0.29-0.51c-0.091,0-0.186,0-0.28,0
			C20.271,24.998,20.273,24.973,20.273,24.944L20.273,24.944z"/>
		<path fill="#CCCCCC" d="M19.424,25.027c0.059,0.004,0.116-0.001,0.172,0.004c0.052,0.01,0.076,0.071,0.071,0.12
			c0.006,0.046-0.011,0.104-0.06,0.124c-0.059,0.016-0.124,0.003-0.183,0.006C19.424,25.197,19.424,25.114,19.424,25.027
			L19.424,25.027z"/>
		<path fill="#CCCCCC" d="M19.994,25.024c0.021,0.114,0.055,0.228,0.084,0.34c-0.057,0-0.112,0-0.171,0
			C19.94,25.252,19.973,25.139,19.994,25.024L19.994,25.024z"/>
		<path fill="#CCCCCC" d="M20.213,25.876c0.3-0.012,0.603-0.026,0.897-0.085c-0.093,0.036-0.194,0.041-0.292,0.052
			c-0.112,0.014-0.221,0.015-0.332,0.033H20.213L20.213,25.876z"/>
		<path fill="#CCCCCC" d="M18.884,25.798c0.287,0.052,0.579,0.068,0.867,0.078h-0.31c-0.066-0.014-0.127-0.012-0.191-0.023
			C19.125,25.84,18.999,25.838,18.884,25.798L18.884,25.798z"/>
		<g>
			<g>
				<polygon fill="#FED101" points="19.261,14.201 19.443,14.51 19.8,14.51 19.621,14.821 19.8,15.13 19.443,15.13 19.261,15.442 
					19.083,15.13 18.723,15.13 18.905,14.821 18.723,14.51 19.083,14.51 				"/>
				<path d="M19.062,15.171h-0.401l0.2-0.35l-0.2-0.351h0.401l0.167-0.289l0.033-0.056l0.203,0.345h0.403l-0.203,0.351l0.203,0.35
					h-0.403l-0.203,0.347L19.062,15.171L19.062,15.171z M18.947,14.821l-0.156,0.273h0.314l0.156,0.271l0.157-0.271h0.317
					l-0.157-0.273l0.157-0.273h-0.317l-0.157-0.273l-0.156,0.273h-0.314L18.947,14.821L18.947,14.821z"/>
			</g>
			<g>
				<polygon fill="#FED101" points="17.704,14.465 17.927,14.746 18.282,14.699 18.146,15.031 18.366,15.314 18.012,15.361 
					17.876,15.696 17.655,15.412 17.301,15.464 17.437,15.13 17.216,14.847 17.571,14.798 				"/>
				<path d="M17.64,15.454l-0.397,0.057l0.149-0.376l-0.245-0.317l0.396-0.055l0.126-0.312l0.024-0.062l0.25,0.317l0.397-0.054
					l-0.15,0.369l0.248,0.317l-0.4,0.058l-0.15,0.372L17.64,15.454L17.64,15.454z M17.866,15.62l0.119-0.291l0.312-0.044
					l-0.193-0.248l0.117-0.293l-0.311,0.043l-0.195-0.248l-0.119,0.292l-0.311,0.047l0.195,0.246l-0.117,0.293l0.31-0.044
					L17.866,15.62L17.866,15.62z"/>
			</g>
			<g>
				<polygon fill="#FED101" points="16.122,14.875 16.38,15.122 16.725,15.022 16.638,15.373 16.896,15.617 16.552,15.718 
					16.464,16.064 16.208,15.815 15.861,15.916 15.948,15.568 15.693,15.319 16.036,15.222 				"/>
				<path d="M16.196,15.859l-0.385,0.11l0.095-0.392L15.619,15.3l0.387-0.109l0.082-0.327l0.016-0.062l0.291,0.279l0.386-0.112
					l-0.098,0.391l0.286,0.28l-0.382,0.11l-0.099,0.391L16.196,15.859L16.196,15.859z M16.444,15.994l0.077-0.308l0.301-0.084
					l-0.225-0.22l0.076-0.305l-0.303,0.086l-0.224-0.22l-0.077,0.305l-0.305,0.09l0.229,0.22l-0.076,0.304l0.302-0.088
					L16.444,15.994L16.444,15.994z"/>
			</g>
			<g>
				<polygon fill="#FED101" points="22.244,14.465 22.024,14.746 21.67,14.699 21.802,15.031 21.584,15.314 21.936,15.361 
					22.072,15.696 22.292,15.412 22.648,15.464 22.515,15.13 22.734,14.847 22.38,14.798 				"/>
				<path d="M21.911,15.397l-0.399-0.058l0.248-0.317l-0.15-0.369l0.396,0.054l0.21-0.266l0.041-0.052l0.149,0.373l0.399,0.055
					l-0.249,0.317l0.152,0.376l-0.4-0.057l-0.245,0.315L21.911,15.397L21.911,15.397z M21.846,15.037l-0.192,0.248l0.312,0.044
					l0.114,0.291l0.193-0.247l0.316,0.044l-0.121-0.293l0.194-0.246l-0.312-0.047l-0.118-0.292l-0.194,0.248l-0.312-0.043
					L21.846,15.037L21.846,15.037z M22.209,14.479l0.035-0.015L22.209,14.479L22.209,14.479z"/>
			</g>
			<g>
				<polygon fill="#FED101" points="23.828,14.875 23.567,15.122 23.225,15.022 23.312,15.373 23.052,15.617 23.396,15.718 
					23.483,16.064 23.743,15.815 24.087,15.916 23.999,15.568 24.256,15.319 23.913,15.222 				"/>
				<path d="M23.367,15.75l-0.391-0.11l0.29-0.28l-0.095-0.391l0.386,0.112l0.241-0.235l0.051-0.044l0.094,0.389l0.39,0.109
					l-0.288,0.278l0.093,0.392l-0.386-0.11l-0.292,0.281L23.367,15.75L23.367,15.75z M23.354,15.383l-0.227,0.22l0.298,0.084
					l0.08,0.308l0.225-0.22l0.303,0.088l-0.075-0.304l0.229-0.22l-0.305-0.09l-0.075-0.305l-0.226,0.22l-0.305-0.086L23.354,15.383
					L23.354,15.383z M23.791,14.883l0.037-0.008L23.791,14.883L23.791,14.883z"/>
			</g>
			<g>
				<polygon fill="#FED101" points="20.686,14.201 20.867,14.51 21.226,14.51 21.047,14.821 21.226,15.13 20.867,15.13 
					20.686,15.442 20.51,15.13 20.148,15.13 20.327,14.821 20.148,14.51 20.51,14.51 				"/>
				<path d="M20.483,15.171h-0.4l0.202-0.35l-0.202-0.349h0.4l0.169-0.291l0.033-0.056l0.201,0.347h0.405l-0.205,0.349l0.205,0.35
					h-0.405l-0.201,0.347L20.483,15.171L20.483,15.171z M20.371,14.821l-0.158,0.273h0.316l0.156,0.271l0.159-0.271h0.314
					l-0.158-0.273l0.158-0.273h-0.314l-0.159-0.273l-0.156,0.273h-0.316L20.371,14.821L20.371,14.821z"/>
			</g>
		</g>
	</g>
</g>
</svg>
