<?xml version="1.0" encoding="utf-8"?>
<!-- Generator: Adobe Illustrator 16.0.0, SVG Export Plug-In . SVG Version: 6.00 Build 0)  -->
<!DOCTYPE svg PUBLIC "-//W3C//DTD SVG 1.0//EN" "http://www.w3.org/TR/2001/REC-SVG-20010904/DTD/svg10.dtd">
<svg version="1.0" id="Layer_1" xmlns="http://www.w3.org/2000/svg" xmlns:xlink="http://www.w3.org/1999/xlink" x="0px" y="0px"
	 width="40px" height="40px" viewBox="0 0 40 40" enable-background="new 0 0 40 40" xml:space="preserve">
<g>
	<g>
		<path fill="#FFFFFF" d="M36.631,31.11H3.371c1.123,1.681,2.497,3.18,4.064,4.445h25.128C34.133,34.29,35.505,32.791,36.631,31.11z
			"/>
		<path fill="#FFFFFF" d="M39.877,22.224H13.334H8.889H0.126c0.171,1.54,0.518,3.027,1.016,4.443h37.716
			C39.359,25.251,39.704,23.764,39.877,22.224z"/>
		<path fill="#FFFFFF" d="M22.223,17.778h17.654c-0.173-1.543-0.518-3.028-1.02-4.444H22.223V17.778z"/>
		<path fill="#FFFFFF" d="M22.223,8.889L22.223,8.889L36.631,8.89c-1.124-1.68-2.496-3.177-4.063-4.446H22.223V8.889z"/>
		<path fill="#0362AB" d="M7.436,35.556C10.87,38.333,15.24,40,19.999,40c4.762,0,9.132-1.667,12.564-4.444H7.436z"/>
		<path fill="#0362AB" d="M38.857,26.667H1.142c0.562,1.582,1.312,3.073,2.229,4.443h33.26
			C37.548,29.74,38.298,28.249,38.857,26.667z"/>
		<path fill="#0362AB" d="M8.889,13.334H1.142C0.405,15.419,0,17.661,0,19.999c0,0.752,0.044,1.492,0.126,2.225h8.763V13.334z"/>
		<path fill="#0362AB" d="M22.223,13.334h16.635c-0.558-1.581-1.309-3.073-2.227-4.444H22.223V13.334z"/>
		<path fill="#0362AB" d="M22.223,13.334h-8.889v8.89h26.543C39.956,21.491,40,20.751,40,19.999c0-0.75-0.044-1.491-0.123-2.221
			H22.223V13.334z"/>
		<path fill="#0362AB" d="M13.334,8.889h8.889V4.443h10.345C29.133,1.666,24.763,0,19.999,0c-2.337,0-4.58,0.405-6.665,1.143V8.889z
			"/>
		<path fill="#0362AB" d="M8.889,3.369c-2.181,1.462-4.06,3.338-5.518,5.52h5.518V3.369z"/>
		<path fill="#FFFFFF" d="M8.889,22.224h4.445v-8.89h8.889V8.89V8.889h-8.889V1.143c-1.584,0.56-3.074,1.309-4.445,2.227v5.52H3.371
			c-0.918,1.372-1.67,2.863-2.229,4.445h7.747V22.224z"/>
	</g>
</g>
</svg>
