<?xml version="1.0" encoding="utf-8"?>
<!-- Generator: Adobe Illustrator 16.0.0, SVG Export Plug-In . SVG Version: 6.00 Build 0)  -->
<!DOCTYPE svg PUBLIC "-//W3C//DTD SVG 1.0//EN" "http://www.w3.org/TR/2001/REC-SVG-20010904/DTD/svg10.dtd">
<svg version="1.0" id="Layer_1" xmlns="http://www.w3.org/2000/svg" xmlns:xlink="http://www.w3.org/1999/xlink" x="0px" y="0px"
	 width="40px" height="40px" viewBox="-8 -8 40 40" enable-background="new -8 -8 40 40" xml:space="preserve">
<g>
	<g>
		<path fill="#00209F" d="M12,32c8.071,0,15.02-4.782,18.181-11.667H-6.182C-3.022,27.218,3.93,32,12,32z"/>
		<path fill="#D61517" d="M12-8C3.93-8-3.022-3.216-6.182,3.667h36.363C27.02-3.216,20.071-8,12-8z"/>
		<path fill="#FFFFFF" d="M-8,12c0,2.976,0.653,5.794,1.818,8.333h36.363C31.343,17.794,32,14.976,32,12
			c0-2.975-0.657-5.795-1.819-8.333H-6.182C-7.347,6.205-8,9.025-8,12z"/>
		<g>
			<g>
				<path fill="#D61516" d="M11.994,22.759h-0.021c-1.282-0.062-2.575-0.349-3.558-0.791l0,0c-1.242-0.554-2.363-1.364-3.253-2.348
					l0,0c-0.54-0.602-0.99-1.256-1.33-1.946l0,0c-0.383-0.781-0.63-1.624-0.735-2.503l0,0c-0.021-0.175-0.025-0.414-0.025-0.596l0,0
					c0-0.117,0.001-0.212,0.003-0.234l0,0V4.167V3.662h0.508H12h8.416h0.38v0.127h-0.129h0.125V3.662h0.127v0.506v10.169
					c0.004,0.028,0.007,0.121,0.004,0.239l0,0c0,0.181-0.004,0.424-0.023,0.595l0,0c-0.104,0.882-0.352,1.722-0.735,2.503l0,0
					c-0.339,0.69-0.789,1.346-1.328,1.948l0,0c-0.889,0.983-2.012,1.792-3.252,2.349l0,0c-0.986,0.441-2.277,0.728-3.561,0.789l0,0
					H12L11.994,22.759L11.994,22.759z M3.33,4.168v10.173c0,0.027-0.001,0.117-0.001,0.234l0,0c0,0.176,0.001,0.413,0.022,0.566l0,0
					c0.104,0.853,0.34,1.665,0.711,2.418l0,0c0.33,0.668,0.763,1.308,1.292,1.892l0,0c0.861,0.954,1.957,1.748,3.168,2.288l0,0
					c0.943,0.424,2.215,0.707,3.465,0.769l0,0H12h0.011c1.255-0.062,2.525-0.345,3.468-0.769l0,0
					c1.211-0.54,2.309-1.334,3.169-2.288l0,0c0.522-0.584,0.959-1.221,1.291-1.892l0,0c0.368-0.753,0.605-1.565,0.71-2.418l0,0
					c0.018-0.153,0.024-0.391,0.024-0.566l0,0c0-0.114-0.004-0.207-0.004-0.234l0,0V4.168l-0.003-0.255h-0.251H12H3.583H3.33V4.168
					L3.33,4.168z"/>
				<path fill="#D61516" d="M12,22.446h-0.01c-1.245-0.062-2.501-0.342-3.446-0.762c-1.201-0.537-2.289-1.325-3.147-2.272
					c-0.52-0.583-0.954-1.214-1.28-1.878c-0.369-0.747-0.606-1.553-0.705-2.397c-0.034-0.266-0.022-0.775-0.022-0.796L3.393,4.168
					V3.979h0.19H12h8.416h0.189v0.189l0.003,10.176c0,0.017,0.01,0.524-0.021,0.791c-0.101,0.847-0.337,1.65-0.706,2.399
					c-0.324,0.662-0.759,1.295-1.282,1.875c-0.856,0.95-1.943,1.734-3.145,2.275c-0.944,0.42-2.201,0.696-3.446,0.758H12V22.446z"/>
				<g>
					<rect x="13.663" y="4.31" fill="#FFFFFF" width="3.329" height="3.556"/>
					<rect x="10.336" y="7.865" fill="#FFFFFF" width="3.327" height="3.567"/>
					<rect x="16.99" y="7.865" fill="#FFFFFF" width="3.286" height="3.567"/>
					<rect x="3.724" y="7.865" fill="#FFFFFF" width="3.286" height="3.567"/>
					<rect x="10.336" y="14.991" fill="#FFFFFF" width="3.327" height="3.564"/>
					<path fill="#FFFFFF" d="M16.99,18.556h1.88c0.276-0.371,0.52-0.765,0.716-1.168c0.354-0.713,0.578-1.484,0.674-2.292
						c0.004-0.029,0.007-0.065,0.007-0.103H16.99V18.556z"/>
					<path fill="#FFFFFF" d="M7.01,14.991H3.732c0.001,0.036,0.003,0.075,0.008,0.104c0.094,0.806,0.322,1.579,0.671,2.288
						c0.202,0.407,0.442,0.8,0.719,1.172h1.88V14.991z"/>
					<rect x="7.01" y="4.31" fill="#FFFFFF" width="3.327" height="3.556"/>
					<rect x="13.663" y="11.43" fill="#FFFFFF" width="3.329" height="3.561"/>
					<rect x="7.01" y="11.43" fill="#FFFFFF" width="3.327" height="3.561"/>
					<path fill="#FFFFFF" d="M13.663,18.556v3.344c0.609-0.126,1.176-0.302,1.659-0.518c0.591-0.268,1.15-0.59,1.67-0.967v-1.859
						H13.663z"/>
					<path fill="#FFFFFF" d="M7.01,18.556v1.859c0.519,0.377,1.078,0.699,1.667,0.967c0.483,0.216,1.052,0.391,1.659,0.518v-3.344
						H7.01z"/>
				</g>
				<path fill="#FFFFFF" d="M20.416,4.168l0.002,10.176c0,0,0.013,0.515-0.018,0.769c-0.1,0.811-0.324,1.604-0.688,2.337
					c-0.327,0.664-0.755,1.282-1.251,1.831c-0.859,0.949-1.918,1.707-3.086,2.229c-1.008,0.452-2.27,0.689-3.376,0.745
					c-1.11-0.056-2.368-0.293-3.378-0.745c-1.167-0.521-2.229-1.279-3.082-2.229c-0.497-0.549-0.925-1.165-1.251-1.831
					c-0.36-0.732-0.592-1.526-0.687-2.337c-0.032-0.254-0.016-0.769-0.016-0.769V4.168H12H20.416z M20.792,3.789h-0.376H12H3.583
					h-0.38v0.379v10.173c0,0.073-0.012,0.55,0.021,0.816c0.104,0.868,0.345,1.696,0.724,2.463c0.335,0.676,0.775,1.325,1.31,1.916
					c0.874,0.967,1.982,1.771,3.211,2.319c0.963,0.435,2.245,0.716,3.512,0.781H12h0.021c1.269-0.065,2.546-0.347,3.51-0.781
					c1.226-0.547,2.336-1.353,3.21-2.319c0.537-0.591,0.978-1.24,1.312-1.916c0.379-0.767,0.622-1.595,0.725-2.463
					c0.032-0.267,0.022-0.743,0.022-0.816L20.796,4.168V3.789H20.792z"/>
			</g>
			<g>
				<g>
					<path fill="#D61517" d="M21.489-4.002l-0.058,0.025c-0.001,0-0.174,0.07-0.435,0.177c-0.389,0.162-0.977,0.401-1.468,0.6
						c-0.242,0.102-0.469,0.192-0.628,0.255c-0.082,0.034-0.146,0.058-0.192,0.077c-0.013,0.005-0.02,0.006-0.029,0.011
						l-0.002-0.001c-0.133-0.138-0.613-0.66-1.06-1.148c-0.225-0.243-0.436-0.479-0.596-0.653c-0.078-0.084-0.143-0.156-0.188-0.207
						c-0.022-0.026-0.041-0.045-0.054-0.056c-0.003-0.009-0.012-0.014-0.015-0.016c0-0.003,0-0.005-0.003-0.005l0,0l0,0l0,0
						L16.724-4.99l-2.49,1.505l-2.337-1.789L9.699-3.512L7.13-4.997L5.26-2.774L2.452-3.977L0.903-1.202l2.253,4.53L3.22,3.305
						C5.932,2.342,8.942,1.82,11.88,1.812c0.023,0,0.045,0,0.07,0c2.918,0,5.892,0.46,8.829,1.515l0.062,0.023l2.256-4.555
						L21.489-4.002z"/>
					<path id="_x3C_Path_x3E__541_" fill="#FFFFFF" d="M3.193,3.237c2.722-0.968,5.739-1.49,8.685-1.497
						c2.947-0.007,5.954,0.456,8.924,1.52l2.211-4.461l-1.555-2.707c0,0-2.773,1.139-2.796,1.139c-0.024,0-1.955-2.126-1.955-2.126
						l-2.479,1.499l-2.333-1.782l-2.19,1.757L7.146-4.903L5.28-2.685L2.485-3.881L0.987-1.2L3.193,3.237z"/>
					<g>
						<g>
							<path fill="#393E90" d="M16.66-4.514L16.66-4.514c0.631,0.688,1.265,1.375,1.893,2.062v0.01L18.55-2.44
								c-0.028,0.078-0.046,0.16-0.068,0.24c-0.404,1.4-0.808,2.8-1.206,4.2c-0.422-0.086-0.844-0.172-1.269-0.24
								c-0.733-0.12-1.478-0.188-2.217-0.247V1.505c0.141-1.539,0.277-3.079,0.414-4.617C15.024-3.579,15.845-4.048,16.66-4.514
								L16.66-4.514z"/>
							<path fill="#D61516" d="M15.581-2.325c0.086-0.012,0.172-0.012,0.257-0.008c0.032,0,0.063,0.003,0.095,0.011
								c0.04,0.01,0.074,0.042,0.12,0.049c0.032,0.002,0.062,0.002,0.095,0.01c0.076,0.014,0.146,0.049,0.22,0.072
								c0.06,0.023,0.122,0.035,0.187,0.035c0.082,0.008,0.166,0.006,0.239-0.032c0.028-0.012,0.054-0.03,0.083-0.042
								c0.033-0.005,0.062,0.001,0.098,0.001c0,0.023,0,0.044,0,0.063c-0.068,0.05-0.125,0.115-0.208,0.142
								C16.712-2.005,16.658-1.98,16.6-1.97c-0.071,0.015-0.146,0.013-0.22,0.013c-0.044,0-0.086-0.005-0.132-0.008
								c0.007,0.013,0.01,0.024,0.017,0.035c0.064,0.02,0.127,0.04,0.186,0.07c0.062,0.028,0.123,0.06,0.188,0.08
								c0.066,0.022,0.139,0.024,0.208,0.029c0.111,0.003,0.224-0.003,0.332-0.029c0.026-0.006,0.053-0.02,0.082-0.02
								c0.025,0,0.055,0,0.084,0.003c-0.003,0.016-0.003,0.035-0.003,0.053c-0.117,0.062-0.234,0.13-0.361,0.168
								c-0.119,0.035-0.244,0.035-0.364,0.03c-0.158-0.011-0.314-0.042-0.469-0.082c-0.062-0.019-0.119-0.052-0.176-0.079
								c-0.085-0.043-0.18-0.07-0.275-0.08c-0.07-0.006-0.145-0.005-0.203,0.04c-0.163-0.108-0.326-0.218-0.485-0.326
								c0.056-0.056,0.109-0.117,0.183-0.156C15.308-2.289,15.447-2.308,15.581-2.325L15.581-2.325z"/>
							<path fill="#8E3836" d="M15.587-2.308c0.023,0,0.039-0.005,0.059-0.005c0.007,0.049,0.036,0.098,0.036,0.149
								c0,0.039,0,0.075-0.002,0.112c-0.008-0.005-0.013-0.013-0.013-0.023C15.659-2.119,15.652-2.164,15.64-2.2
								C15.633-2.238,15.606-2.27,15.587-2.308L15.587-2.308z"/>
							<path fill="#8E3836" d="M16.004-2.037c-0.01-0.083-0.017-0.168-0.02-0.252c0.02,0.007,0.036,0.015,0.056,0.019
								c-0.007,0.06-0.014,0.118-0.019,0.175C16.021-2.073,16.021-2.052,16.004-2.037L16.004-2.037z"/>
							<path fill="#8E3836" d="M15.093-2.14C15.12-2.16,15.147-2.178,15.174-2.2c0.042,0.03,0.091,0.059,0.124,0.102
								c0.016,0.02,0.02,0.044,0.022,0.07c-0.032-0.022-0.061-0.048-0.095-0.065C15.184-2.117,15.137-2.125,15.093-2.14L15.093-2.14
								z"/>
							<path fill="#8E3836" d="M16.314-2.149c0.024-0.003,0.046,0.009,0.051,0.034c0.015,0.05,0.005,0.103,0.015,0.156
								c-0.007-0.003-0.02-0.003-0.024-0.005C16.333-2.022,16.326-2.088,16.314-2.149L16.314-2.149z"/>
							<path fill="#8E3836" d="M16.651-2.12c0.015,0,0.033,0,0.043-0.002c0,0.032,0,0.065,0,0.099
								c-0.02,0.003-0.036,0.01-0.056,0.013C16.642-2.047,16.646-2.083,16.651-2.12L16.651-2.12z"/>
							<path fill="#544B20" d="M14.42-1.99c0.007-0.033,0.031-0.057,0.054-0.08c0.103,0.051,0.202,0.105,0.308,0.156
								c0.024-0.018,0.041-0.045,0.065-0.065c0.037-0.035,0.088-0.063,0.137-0.077c0.168,0.106,0.327,0.215,0.49,0.326
								c0.011,0.01,0.025,0.01,0.039,0.01c0.11-0.003,0.226-0.01,0.338-0.012c-0.029,0.066-0.064,0.127-0.117,0.176
								c-0.088,0.083-0.206,0.12-0.317,0.154c0.059,0.105,0.131,0.213,0.227,0.297c0.026,0.021,0.049,0.043,0.081,0.054
								c0.033,0.005,0.062,0.019,0.098,0.022c0.059,0.003,0.121,0.003,0.18,0.017c0.025,0.006,0.052,0.023,0.081,0.027
								c0.026-0.003,0.049-0.024,0.076-0.029c0.051-0.011,0.103-0.018,0.158-0.022c0.022-0.002,0.047,0,0.075,0.003
								c0.044,0.008,0.094,0.002,0.137-0.02c0.025-0.013,0.054-0.037,0.088-0.035c0.035,0,0.074-0.008,0.108,0.006
								c0.031,0.016,0.063,0.024,0.1,0.021c0.046,0,0.09-0.023,0.137-0.023c0.047,0.003,0.1-0.002,0.149,0.003
								c0.049,0.011,0.095,0.021,0.141,0.019c0.039-0.005,0.081-0.008,0.11-0.035c0.042-0.032,0.081-0.057,0.12-0.092
								c0.021-0.021,0.043-0.043,0.078-0.046c0.026,0,0.039,0.027,0.053,0.046c0.021,0.035,0.02,0.076,0.02,0.115
								c0,0.054,0,0.109,0.001,0.167c0.007,0.067-0.064,0.105-0.074,0.167c0.005,0.023,0.024,0.04,0.034,0.062
								c0.003,0.033-0.004,0.066-0.007,0.1c0,0.022-0.013,0.038-0.026,0.056c-0.035,0.049-0.073,0.093-0.104,0.146
								c-0.017,0.026-0.029,0.053-0.033,0.084c-0.006,0.068-0.02,0.139-0.01,0.21c0.004,0.024,0.015,0.045,0.026,0.063
								c-0.01,0.023-0.029,0.042-0.046,0.056c-0.006,0.059-0.013,0.116,0,0.172c0,0.025,0.034,0.025,0.046,0.041
								c0.007,0.056,0,0.117-0.003,0.175c0,0.016-0.017,0.027-0.029,0.035c-0.085,0.067-0.17,0.131-0.231,0.22
								C17.159,0.7,17.142,0.722,17.142,0.75c-0.003,0.046-0.007,0.099-0.007,0.146c-0.052,0.042-0.105,0.082-0.157,0.122
								c-0.085-0.033-0.166-0.06-0.253-0.095c0.014-0.022,0.024-0.042,0.034-0.063c0.044-0.067,0.09-0.135,0.131-0.2
								c0.02-0.029,0.025-0.062,0.03-0.096c0.014-0.076,0.014-0.152,0.007-0.225c0-0.015-0.005-0.032-0.013-0.042
								c-0.036-0.054-0.097-0.092-0.155-0.104c-0.074,0.084-0.149,0.167-0.237,0.24c-0.018,0.018-0.039,0.03-0.056,0.048
								c-0.02,0.038-0.015,0.089-0.045,0.125c-0.029,0.035-0.072,0.046-0.111,0.06c-0.015,0.035-0.029,0.068-0.039,0.104
								c-0.081-0.022-0.167-0.039-0.249-0.062c0.015-0.028,0.038-0.05,0.058-0.077c0.016-0.025,0.016-0.054,0.016-0.083
								c0.004-0.024,0.02-0.043,0.033-0.063c0.055-0.093,0.113-0.187,0.172-0.28c-0.054,0.007-0.11,0.021-0.172,0.012
								c-0.033-0.005-0.048-0.032-0.065-0.054c-0.042,0.03-0.088,0.067-0.144,0.054c-0.025-0.001-0.04-0.023-0.055-0.038
								c-0.028,0.028-0.058,0.051-0.097,0.058c-0.032,0.007-0.066,0-0.099,0.003c-0.014,0.085-0.065,0.155-0.117,0.219
								c-0.039,0.045-0.078,0.09-0.104,0.144c-0.022,0.043-0.017,0.093-0.02,0.14c-0.01,0.068-0.01,0.14-0.017,0.207
								c-0.018,0.026-0.052,0.035-0.078,0.056c-0.02,0.014-0.035,0.035-0.055,0.057c0,0-0.009-0.001-0.01-0.001
								c-0.02-0.005-0.039-0.008-0.059-0.011c-0.062-0.021-0.131-0.037-0.192-0.056C15.03,0.92,15.052,0.84,15.099,0.78
								c0.024-0.029,0.053-0.056,0.049-0.095c0.004-0.094,0-0.185,0.004-0.28c0.003-0.089,0.054-0.17,0.084-0.251
								c-0.03-0.017-0.062-0.038-0.094-0.044c-0.046-0.011-0.093,0.01-0.134,0.029c-0.017,0.009-0.032,0.015-0.039,0.03
								c-0.051,0.108-0.122,0.208-0.19,0.31c-0.01,0.016-0.005,0.032-0.005,0.049c0.002,0.043,0,0.095-0.029,0.133
								c-0.017,0.023-0.031,0.044-0.042,0.067c-0.098-0.023-0.194-0.046-0.287-0.072c0.005-0.051,0.024-0.1,0.046-0.146
								c0.027-0.055,0.075-0.095,0.107-0.146c0.039-0.068,0.062-0.154,0.135-0.194c0.005-0.051,0.002-0.103,0.01-0.156
								c0.002-0.032,0.024-0.057,0.019-0.09c-0.017-0.076-0.031-0.158-0.004-0.233c-0.022,0-0.049,0.007-0.068-0.01
								c-0.022-0.018-0.032-0.056-0.018-0.084c0.01-0.027,0.031-0.047,0.047-0.07c-0.022-0.001-0.055-0.01-0.062-0.038
								c-0.01-0.044,0.017-0.09,0.042-0.121c0.075-0.08,0.156-0.151,0.231-0.229c-0.037,0-0.078-0.002-0.107-0.027
								C14.786-0.896,14.788-0.91,14.79-0.92c0.005-0.021,0.016-0.035,0.029-0.055c-0.026-0.007-0.062-0.008-0.068-0.04
								c-0.01-0.037,0.013-0.075,0.022-0.111c-0.091,0.005-0.179,0.025-0.271,0.018c-0.032,0-0.063-0.026-0.069-0.059
								c-0.009-0.049-0.005-0.102,0.021-0.144c0.029-0.057,0.061-0.11,0.088-0.17c0.029-0.07,0.056-0.142,0.072-0.216
								c-0.061-0.046-0.117-0.1-0.163-0.164C14.42-1.895,14.405-1.947,14.42-1.99L14.42-1.99z"/>
							<path fill="#F9F704" d="M14.43-1.971c0.004-0.034,0.024-0.059,0.044-0.081C14.578-2,14.679-1.949,14.785-1.895
								c0.049-0.049,0.093-0.103,0.157-0.127c0.017-0.008,0.034-0.021,0.051-0.01c0.164,0.107,0.327,0.217,0.491,0.328
								c0.114-0.006,0.229-0.01,0.346-0.013c-0.031,0.062-0.068,0.123-0.126,0.168c-0.089,0.073-0.198,0.105-0.308,0.139
								c0.072,0.133,0.16,0.267,0.288,0.358c0.036,0.017,0.073,0.028,0.111,0.035c0.068,0.005,0.145,0.001,0.211,0.025
								c0.031,0.01,0.065,0.034,0.098,0.017c0.067-0.035,0.146-0.035,0.217-0.043c0.039-0.003,0.08,0.01,0.12,0.005
								c0.034-0.001,0.068-0.008,0.1-0.028c0.022-0.01,0.044-0.031,0.075-0.031c0.034,0,0.068-0.006,0.103,0.01
								c0.037,0.016,0.081,0.021,0.122,0.016c0.037,0,0.076-0.021,0.113-0.018c0.049,0,0.098-0.003,0.146,0
								c0.054,0.01,0.111,0.023,0.165,0.018c0.034-0.008,0.073-0.011,0.103-0.035c0.045-0.037,0.098-0.066,0.14-0.108
								c0.013-0.012,0.034-0.029,0.054-0.029c0.027,0.014,0.041,0.042,0.049,0.07c0.01,0.052,0.003,0.103,0.008,0.152
								c-0.003,0.039,0.002,0.08-0.001,0.12c-0.021,0.043-0.056,0.077-0.072,0.122c-0.015,0.032,0.017,0.058,0.034,0.085
								c-0.006,0.04,0,0.08-0.015,0.116c-0.05,0.084-0.13,0.154-0.152,0.249c-0.01,0.072-0.021,0.148-0.015,0.221
								c0.005,0.027,0.015,0.048,0.024,0.072c-0.014,0.015-0.031,0.03-0.041,0.045c-0.01,0.045-0.01,0.092-0.01,0.138
								c0,0.022,0,0.044,0.017,0.062c0.01,0.011,0.027,0.017,0.04,0.025c0,0.059-0.006,0.117-0.008,0.177
								c-0.09,0.07-0.183,0.138-0.251,0.23c-0.016,0.022-0.034,0.044-0.039,0.068c-0.003,0.051-0.005,0.105-0.006,0.159
								c-0.049,0.035-0.098,0.075-0.146,0.113c-0.078-0.028-0.153-0.056-0.231-0.083c0.01-0.019,0.02-0.035,0.029-0.054
								c0.042-0.066,0.085-0.131,0.127-0.198c0.02-0.028,0.026-0.06,0.032-0.094c0.012-0.078,0.012-0.162,0.009-0.243
								c0-0.02-0.012-0.035-0.024-0.051c-0.036-0.054-0.102-0.092-0.163-0.104c-0.071,0.085-0.154,0.168-0.239,0.244
								c-0.02,0.016-0.041,0.032-0.062,0.051c-0.019,0.04-0.014,0.092-0.044,0.128c-0.031,0.03-0.072,0.038-0.112,0.056
								c-0.012,0.033-0.024,0.065-0.038,0.095c-0.071-0.018-0.146-0.035-0.221-0.053c0.025-0.03,0.059-0.057,0.064-0.097
								c0.007-0.027,0-0.059,0.017-0.083c0.068-0.11,0.137-0.223,0.208-0.336c-0.052,0.012-0.108,0.023-0.166,0.023
								c-0.022,0-0.045,0-0.063-0.013c-0.015-0.016-0.021-0.033-0.034-0.046c-0.047,0.026-0.096,0.075-0.152,0.056
								C15.887,0.2,15.877,0.173,15.87,0.155c-0.029,0.03-0.06,0.063-0.104,0.07c-0.034,0.006-0.073,0.003-0.111,0.003
								c-0.003,0.093-0.068,0.165-0.122,0.233c-0.049,0.055-0.099,0.115-0.117,0.187c-0.006,0.098-0.013,0.198-0.018,0.3
								c-0.029,0.022-0.065,0.038-0.091,0.062c-0.014,0.012-0.026,0.026-0.038,0.042C15.191,1.028,15.11,1.01,15.03,0.987
								c0.012-0.06,0.028-0.124,0.062-0.177c0.021-0.027,0.042-0.049,0.059-0.078c0.01-0.022,0.01-0.044,0.01-0.068
								c0-0.083,0-0.17,0-0.252c0.003-0.095,0.062-0.173,0.088-0.256c-0.041-0.024-0.082-0.057-0.129-0.057
								c-0.059-0.003-0.109,0.027-0.161,0.052c-0.054,0.118-0.134,0.226-0.208,0.337c0.006,0.047,0.01,0.094-0.007,0.137
								c-0.013,0.034-0.037,0.057-0.054,0.089c-0.09-0.023-0.176-0.042-0.267-0.067c0.013-0.053,0.034-0.105,0.064-0.153
								c0.026-0.044,0.068-0.082,0.095-0.13c0.027-0.042,0.042-0.093,0.071-0.13c0.019-0.024,0.038-0.035,0.059-0.051
								c0.01-0.059,0-0.119,0.019-0.179c0.003-0.023,0.02-0.043,0.013-0.068c-0.01-0.053-0.021-0.104-0.021-0.161
								c0-0.035,0.015-0.07,0.028-0.104c-0.024,0.008-0.053,0.018-0.078,0.008c-0.023-0.016-0.031-0.05-0.021-0.075
								c0.018-0.035,0.046-0.061,0.071-0.089c-0.021,0-0.044,0.001-0.063-0.005c-0.018-0.008-0.027-0.03-0.024-0.046
								c0.007-0.038,0.031-0.068,0.058-0.097c0.078-0.085,0.167-0.158,0.239-0.244c-0.041,0.005-0.093,0.012-0.129-0.018
								c-0.003-0.034,0.026-0.061,0.036-0.087c-0.029-0.005-0.075,0-0.082-0.038c0-0.038,0.021-0.077,0.031-0.111
								c-0.096-0.003-0.19,0.024-0.288,0.013c-0.029,0-0.049-0.018-0.056-0.044c-0.008-0.037-0.008-0.078,0.007-0.113
								c0.026-0.059,0.061-0.106,0.088-0.167c0.037-0.082,0.068-0.165,0.088-0.253c-0.059-0.044-0.114-0.097-0.163-0.155
								C14.439-1.887,14.42-1.93,14.43-1.971L14.43-1.971z"/>
							<path fill="#8E3836" d="M15.854-2.043c0.042,0.033,0.071,0.08,0.089,0.131c0.01,0.052-0.018,0.1-0.057,0.132
								c0.005-0.035,0.012-0.075,0.008-0.106C15.892-1.944,15.867-1.993,15.854-2.043L15.854-2.043z"/>
							<path fill="#8E3836" d="M15.396-2.022c0.054,0.008,0.103,0.047,0.127,0.095c0.017,0.039,0.017,0.077,0.023,0.112
								c-0.017,0.013-0.031,0.023-0.044,0.033c0-0.057-0.028-0.104-0.049-0.151C15.438-1.968,15.416-1.993,15.396-2.022
								L15.396-2.022z"/>
							<path fill="#8E3836" d="M16.292-1.912c0.007,0.003,0.017,0.007,0.02,0.017c0.018,0.04,0.031,0.083,0.027,0.13
								c0,0.023-0.021,0.038-0.035,0.051C16.28-1.698,16.258-1.68,16.23-1.67c-0.005-0.011,0.005-0.018,0.015-0.026
								C16.305-1.747,16.304-1.84,16.292-1.912L16.292-1.912z"/>
							<path fill="#8E3836" d="M16.609-1.773c0.022,0.005,0.051,0.005,0.068,0.02c0.032,0.032,0.051,0.073,0.047,0.113
								c-0.001,0.03-0.016,0.057-0.03,0.082c-0.02-0.001-0.039-0.001-0.062-0.007c0.019-0.033,0.046-0.07,0.034-0.111
								C16.653-1.712,16.626-1.74,16.609-1.773L16.609-1.773z"/>
							<path fill="#8E3836" d="M16.946-1.745c0.018-0.001,0.037-0.001,0.056-0.001c0.001,0.043,0.003,0.088,0.008,0.13
								c-0.015,0.01-0.036,0.02-0.049,0.027C16.958-1.644,16.954-1.695,16.946-1.745L16.946-1.745z"/>
							<path fill="#544B20" d="M15.413-1.628c0.1-0.021,0.198-0.032,0.301-0.032c-0.035,0.032-0.074,0.055-0.11,0.089
								c-0.026,0.019-0.056,0.027-0.081,0.046c-0.023,0.017-0.046,0.036-0.075,0.034c-0.054-0.005-0.103-0.034-0.144-0.062
								C15.315-1.6,15.369-1.615,15.413-1.628L15.413-1.628z"/>
							<path fill="#544B20" d="M14.845-1.582c0.061-0.008,0.117-0.045,0.18-0.045c0.052-0.004,0.096,0.042,0.152,0.045
								c-0.035,0.018-0.066,0.035-0.101,0.05c-0.02,0.012-0.034,0.032-0.056,0.033c-0.029,0-0.047-0.023-0.071-0.037
								C14.918-1.553,14.881-1.568,14.845-1.582L14.845-1.582z"/>
							<path fill="#544B20" d="M17.555-1.167c0,0,0.038,0.172-0.034,0.22c-0.029,0.023-0.078,0.035-0.101,0.016
								c-0.02-0.012-0.036-0.035-0.029-0.061C17.412-1.098,17.555-1.167,17.555-1.167z"/>
							<path fill="#544B20" d="M16.685-0.783c0.02-0.016,0.04,0,0.062,0.01c0.013,0.092,0.022,0.189,0.041,0.278
								c0,0.022,0.006,0.037,0.006,0.057c-0.001,0.02-0.037,0.02-0.037-0.003c-0.01-0.065-0.01-0.132-0.034-0.195
								C16.709-0.683,16.685-0.732,16.685-0.783L16.685-0.783z"/>
							<path fill="#544B20" d="M14.977-0.773c0.019-0.015,0.041,0,0.058,0.011c0.015,0.094,0.027,0.184,0.042,0.277
								c0.007,0.021,0.01,0.038,0.01,0.057c-0.003,0.02-0.037,0.02-0.037-0.002c-0.01-0.066-0.015-0.133-0.034-0.197
								C15.003-0.673,14.974-0.721,14.977-0.773L14.977-0.773z"/>
							<path fill="#544B20" d="M15.25-0.157c0.017-0.015,0.041,0,0.058,0.012c0.016,0.09,0.027,0.184,0.04,0.276
								c0.005,0.019,0.012,0.035,0.012,0.054c-0.003,0.02-0.037,0.02-0.037,0c-0.012-0.066-0.015-0.133-0.034-0.197
								C15.276-0.058,15.249-0.105,15.25-0.157L15.25-0.157z"/>
							<path fill="#544B20" d="M16.87-0.208c0.02-0.015,0.039,0,0.057,0.01c0.015,0.093,0.027,0.187,0.041,0.282
								c0.006,0.016,0.01,0.033,0.01,0.051c0,0.022-0.036,0.022-0.036-0.001c-0.008-0.062-0.015-0.132-0.036-0.191
								C16.896-0.11,16.868-0.157,16.87-0.208L16.87-0.208z"/>
							<path fill="#544B20" d="M15.574-0.704c0.01-0.008,0.021-0.001,0.034,0c0.024,0.063,0.044,0.13,0.076,0.194
								c0.009,0.023,0.026,0.043,0.02,0.072c-0.016,0.021-0.045,0.01-0.068,0.01c-0.024-0.077-0.034-0.156-0.059-0.237
								C15.574-0.678,15.567-0.692,15.574-0.704L15.574-0.704z"/>
							<path fill="#544B20" d="M16.321-0.843c0.012-0.008,0.024-0.003,0.036,0c0.022,0.063,0.044,0.13,0.074,0.19
								c0.01,0.026,0.026,0.046,0.02,0.075c-0.015,0.02-0.044,0.01-0.066,0.01c-0.024-0.077-0.036-0.158-0.059-0.237
								C16.323-0.815,16.318-0.832,16.321-0.843L16.321-0.843z"/>
							<path fill="#544B20" d="M15.947-0.8c0.01-0.005,0.021,0,0.034,0c0.025,0.067,0.044,0.133,0.078,0.194
								c0.006,0.023,0.024,0.048,0.016,0.073c-0.016,0.022-0.044,0.011-0.068,0.011c-0.025-0.08-0.034-0.161-0.055-0.24
								C15.947-0.773,15.942-0.788,15.947-0.8L15.947-0.8z"/>
							<path fill="#544B20" d="M16.995-0.606c-0.005-0.016-0.01-0.03-0.003-0.045c0.02,0.033,0.03,0.068,0.04,0.102
								c0.024,0.055,0.049,0.108,0.085,0.155c0.046,0.067,0.107,0.118,0.171,0.17c0.012,0.01,0.015,0.02,0.024,0.03
								c-0.056,0.008-0.107-0.006-0.161,0.005c-0.02,0.01-0.034,0.028-0.051,0.04c-0.015-0.067-0.021-0.139-0.034-0.205
								C17.052-0.445,17.026-0.528,16.995-0.606L16.995-0.606z"/>
							<path fill="#544B20" d="M16.314-0.522c0.004,0,0.009,0,0.012,0c0.017,0.104,0.01,0.208-0.024,0.313
								c-0.013,0.045-0.034,0.088-0.059,0.128c-0.01-0.013-0.013-0.023-0.01-0.035c0.01-0.053,0.027-0.105,0.037-0.164
								C16.289-0.357,16.295-0.441,16.314-0.522L16.314-0.522z"/>
							<path fill="#544B20" d="M15.901-0.418c0,0,0.008,0,0.012,0c0.016,0.103,0.006,0.213-0.024,0.313
								c-0.017,0.046-0.034,0.092-0.062,0.13C15.82,0.014,15.818,0.003,15.82-0.01c0.006-0.053,0.027-0.108,0.034-0.164
								C15.872-0.252,15.882-0.335,15.901-0.418L15.901-0.418z"/>
							<path fill="#D61516" d="M14.402,0.677c0.095,0.018,0.186,0.04,0.28,0.06c0,0.034,0.003,0.065,0,0.1
								c-0.014,0.036-0.033,0.07-0.065,0.088C14.588,0.94,14.557,0.95,14.526,0.95c-0.082,0-0.161,0.005-0.243,0.005
								c-0.003-0.043-0.003-0.09-0.01-0.13C14.321,0.775,14.36,0.725,14.402,0.677L14.402,0.677z"/>
							<path fill="#D61516" d="M15.89,0.854c0.039-0.04,0.08-0.083,0.121-0.122c0.083,0.023,0.171,0.039,0.254,0.061
								c-0.007,0.035-0.004,0.07-0.02,0.102c-0.012,0.017-0.019,0.038-0.036,0.054c-0.029,0.015-0.065,0.022-0.1,0.02
								c-0.073-0.005-0.145-0.007-0.218-0.01C15.892,0.923,15.887,0.89,15.89,0.854L15.89,0.854z"/>
							<path fill="#D61516" d="M16.568,1.071c0.051-0.038,0.095-0.083,0.146-0.12c0.083,0.03,0.169,0.059,0.25,0.085
								c-0.003,0.028-0.003,0.05-0.006,0.075c-0.017,0.067-0.078,0.112-0.146,0.107c-0.078-0.009-0.161-0.014-0.243-0.022
								C16.568,1.155,16.568,1.113,16.568,1.071L16.568,1.071z"/>
							<path fill="#D61516" d="M14.894,1.12c0.036-0.035,0.072-0.066,0.107-0.102c0.068,0.01,0.137,0.021,0.205,0.035
								c0.02,0.003,0.039,0.006,0.059,0.011c0,0.052-0.016,0.105-0.055,0.142c-0.024,0.017-0.059,0.023-0.09,0.03
								C15.045,1.24,14.969,1.24,14.894,1.24C14.894,1.2,14.894,1.157,14.894,1.12L14.894,1.12z"/>
						</g>
						<g>
							<path fill="#393E90" d="M7.218-4.542h0.003c0.112,0.067,0.226,0.126,0.337,0.193c0.707,0.404,1.417,0.808,2.124,1.212
								c0.01,0.008,0.023,0.011,0.033,0.023c-0.587,0-1.173,0.005-1.756,0.06c-0.292,0.03-0.58,0.07-0.865,0.128
								C6.52-2.805,5.796-2.534,5.41-2.354C5.41-2.354,6.62-3.819,7.218-4.542L7.218-4.542z"/>
							<path fill="#D61516" d="M7.93-3.054c0.585-0.055,1.171-0.06,1.758-0.06c0.011,0,0.019,0,0.027,0
								C9.748-2.73,9.783-2.34,9.812-1.955c-0.075,0.005-0.148,0-0.223,0.001C9.454-1.95,9.318-1.95,9.187-1.947
								C8.89-1.938,8.593-1.918,8.296-1.888C7.975-1.856,7.653-1.817,7.333-1.765C6.994-1.71,6.652-1.644,6.318-1.543
								C6.105-1.48,5.892-1.4,5.683-1.324C5.615-1.575,5.548-1.83,5.478-2.083c0-0.01-0.003-0.02-0.003-0.034
								C5.453-2.195,5.434-2.273,5.41-2.354c0.525-0.254,1.082-0.45,1.657-0.571C7.35-2.984,7.64-3.023,7.93-3.054L7.93-3.054z"/>
							<path fill="#393E90" d="M9.187-1.947C9.318-1.95,9.454-1.95,9.589-1.954C9.662-1.955,9.737-1.95,9.812-1.955
								c0.003,0.06,0.01,0.121,0.015,0.182c0.032,0.305,0.057,0.615,0.085,0.922c-0.73-0.04-1.47-0.038-2.195,0.073
								C7.12-0.688,6.534-0.538,5.96-0.345c-0.006,0.01,0,0.022,0,0.032C6.032-0.03,6.11,0.249,6.183,0.53v0.011
								C6.176,0.52,6.171,0.5,6.167,0.48c-0.162-0.6-0.323-1.201-0.483-1.804C5.892-1.4,6.105-1.48,6.318-1.543
								c0.334-0.1,0.676-0.167,1.016-0.221c0.32-0.052,0.642-0.092,0.963-0.124C8.593-1.92,8.89-1.938,9.187-1.947L9.187-1.947z"/>
							<path fill="#D61516" d="M7.717-0.778C8.444-0.89,9.182-0.892,9.912-0.852c0.003,0,0.005,0.003,0.008,0.003
								c0.035,0.395,0.072,0.79,0.105,1.18L10.02,0.336C9.462,0.372,8.905,0.413,8.349,0.485C7.653,0.573,6.962,0.698,6.28,0.868
								H6.276c-0.028-0.107-0.058-0.212-0.084-0.32C6.188,0.545,6.183,0.54,6.183,0.54l0,0V0.529
								C6.11,0.247,6.032-0.031,5.958-0.315c0-0.01-0.007-0.021,0-0.032C6.534-0.538,7.12-0.688,7.717-0.778L7.717-0.778z"/>
							<path fill="#393E90" d="M8.35,0.485c0.557-0.072,1.113-0.113,1.671-0.148c0.035,0.39,0.072,0.781,0.108,1.172v0.018
								C9.38,1.577,8.632,1.66,7.89,1.779C7.452,1.844,7.011,1.923,6.575,2C6.443,1.513,6.313,1.025,6.183,0.54
								c0,0,0.005,0.005,0.009,0.008c0.028,0.108,0.056,0.213,0.084,0.32h0.005C6.963,0.698,7.655,0.573,8.35,0.485L8.35,0.485z"/>
						</g>
						<g>
							<path fill="#3B75D9" d="M2.585-3.558H2.59c0.922,0.402,1.843,0.805,2.767,1.204C5.747-0.902,6.135,0.548,6.526,2v0.01
								C6.17,2.083,5.815,2.162,5.463,2.255C5.11,2.347,4.765,2.452,4.422,2.571C4.026,2.708,3.637,2.857,3.247,3.005
								c-0.668-1.409-1.33-2.818-1.999-4.227v-0.003C1.693-2.001,2.14-2.782,2.585-3.558L2.585-3.558z"/>
							<path fill="#FFFFFF" d="M5.36-0.252C5.387-0.29,5.413-0.327,5.44-0.367c0.054,0.273,0.072,0.565-0.013,0.84
								c-0.063,0.208-0.192,0.395-0.35,0.542c-0.1,0.093-0.212,0.172-0.331,0.24c-0.06,0.035-0.12,0.058-0.183,0.084
								c-0.287,0.105-0.6,0.13-0.9,0.068C3.432,1.362,3.207,1.259,3.025,1.105c-0.144-0.117-0.26-0.263-0.343-0.428
								C2.985,0.728,3.292,0.766,3.603,0.75c0.245-0.015,0.488-0.062,0.724-0.135C4.548,0.52,4.76,0.394,4.943,0.233
								C5.104,0.093,5.238-0.075,5.36-0.252L5.36-0.252z"/>
							<g>
								<polygon fill="#FEC502" points="3.947,-2.238 3.87,-1.729 4.327,-1.367 3.812,-1.158 3.695,-0.653 3.298,-0.948 
									2.797,-0.72 2.858,-1.267 2.365,-1.617 2.922,-1.855 2.986,-2.393 3.455,-2.055 								"/>
								<polygon fill="#FAFC12" points="3.935,-2.224 3.853,-1.734 3.354,-1.508 								"/>
								<polygon fill="#FAFC12" points="3,-2.359 3.395,-2.057 3.354,-1.508 								"/>
								<polygon fill="#FAFC12" points="2.833,-0.743 3.285,-0.963 3.354,-1.508 								"/>
								<polygon fill="#FAFC12" points="2.435,-1.595 2.843,-1.307 3.354,-1.508 								"/>
								<polygon fill="#FAFC12" points="4.287,-1.37 3.797,-1.171 3.68,-0.688 3.354,-1.508 								"/>
							</g>
						</g>
						<g>
							<path fill="#3B75D9" d="M11.9-4.808L11.9-4.808c0.749,0.566,1.495,1.135,2.242,1.702v0.028
								C14.01-1.55,13.88-0.02,13.75,1.512h-0.073c-0.453-0.025-0.902-0.038-1.354-0.043c-0.713-0.007-1.428,0.016-2.143,0.043
								c-0.142-1.533-0.281-3.068-0.425-4.605v-0.01C10.47-3.671,11.185-4.24,11.9-4.808L11.9-4.808z"/>
							<g>
								<g>
									<path fill="#544B20" d="M10.87-2.833C10.935-2.801,11-2.77,11.066-2.738c0,0.049,0,0.098,0.007,0.146
										c0.028,0,0.062,0,0.093,0c-0.01-0.037-0.027-0.075-0.025-0.114c0.001-0.011,0-0.022,0.005-0.029
										c0.044-0.023,0.102,0,0.138-0.037c0.019-0.019,0.038-0.032,0.06-0.049c0.043,0,0.085,0,0.129,0.003
										c0.005,0.027,0.01,0.057,0.016,0.084c-0.042,0.056-0.083,0.106-0.12,0.164c-0.005,0.044,0.003,0.089,0.001,0.132
										c0.035,0.019,0.072,0.034,0.105,0.047c0.012,0.073,0.027,0.143,0.037,0.218c0.059,0.054,0.11,0.108,0.168,0.164
										c0.005,0.04,0.005,0.081,0.015,0.123c0.012,0.032,0.043,0.049,0.056,0.085c0.013,0.035,0.02,0.073,0.03,0.108
										c-0.033,0-0.063-0.003-0.098-0.006c0.006,0.066,0.01,0.132,0.015,0.198c-0.039,0-0.077,0.001-0.115,0
										c-0.007,0.06-0.012,0.119-0.021,0.176c-0.07,0.002-0.14,0.002-0.21,0.007c-0.003,0.033-0.001,0.066-0.005,0.102
										c-0.015,0.032-0.038,0.06-0.058,0.092c-0.132,0.017-0.264,0.032-0.397,0.043c-0.049-0.002-0.095-0.034-0.145-0.035
										c-0.054,0-0.102,0-0.157-0.003C10.59-1.14,10.59-1.163,10.583-1.184c-0.028-0.024-0.058-0.042-0.088-0.065
										c-0.022-0.015-0.04-0.035-0.068-0.039c-0.05-0.008-0.1-0.013-0.147-0.021c-0.008-0.047-0.017-0.095-0.026-0.138
										c-0.033-0.007-0.066-0.011-0.1-0.016c-0.01-0.035-0.02-0.068-0.033-0.104c-0.008-0.03-0.028-0.053-0.049-0.078
										c0.016-0.043,0.033-0.092,0.049-0.138c-0.023-0.021-0.045-0.04-0.07-0.062c0.04-0.066,0.078-0.14,0.115-0.208
										c0.046-0.01,0.097-0.02,0.142-0.03c-0.002-0.073,0-0.145-0.002-0.22c0.039-0.01,0.078-0.02,0.121-0.03
										c0.003-0.035,0.01-0.063,0.011-0.1c-0.048-0.062-0.1-0.126-0.146-0.193c-0.005-0.037,0-0.078,0-0.117
										c0.039,0.004,0.083,0,0.12,0.014c0.039,0.015,0.077,0.03,0.113,0.042c0.016,0.005,0.022,0.02,0.03,0.032
										c0.022,0.032,0.042,0.063,0.063,0.093c0.022-0.007,0.042-0.014,0.062-0.019c0.003-0.043,0.005-0.086,0.012-0.13
										C10.75-2.753,10.809-2.793,10.87-2.833L10.87-2.833z"/>
									<path fill="#F8F604" d="M10.85-2.787c0.006-0.005,0.015-0.008,0.022-0.015c0.008,0.003,0.015,0.008,0.023,0.01
										c0.005,0.03,0.01,0.062,0.011,0.092c0.044,0,0.087-0.003,0.132-0.003c0,0.026,0.001,0.056,0.003,0.086
										c-0.037-0.008-0.072-0.016-0.11-0.021c-0.008-0.02-0.02-0.035-0.03-0.051c-0.018,0-0.04,0-0.056,0.002
										c-0.005,0.019-0.011,0.035-0.016,0.051c-0.04,0.005-0.078,0.007-0.115,0.01c0-0.017,0-0.037,0.002-0.054
										c0.04-0.008,0.083-0.013,0.125-0.021C10.844-2.73,10.847-2.758,10.85-2.787L10.85-2.787z"/>
									<path fill="#F8F604" d="M11.198-2.596c0.083-0.063,0.167-0.127,0.25-0.192c0.003,0.015,0.006,0.027,0.008,0.045
										c-0.035,0.045-0.068,0.094-0.104,0.143c-0.005,0.008-0.016,0.02-0.015,0.034c0,0.041,0.003,0.087,0.005,0.13
										c-0.01,0.01-0.018,0.021-0.028,0.032c-0.045,0.003-0.088,0.014-0.134,0.003c-0.188-0.035-0.385-0.02-0.563,0.047
										c-0.03,0.01-0.056,0.032-0.091,0.022c-0.023-0.003-0.045-0.003-0.071-0.006c0.005-0.035,0.01-0.068,0.013-0.104
										c-0.052-0.063-0.102-0.13-0.153-0.198c0-0.024,0.001-0.048,0.001-0.075c0.051,0.059,0.108,0.114,0.161,0.172
										c0.039,0,0.078,0,0.117,0c0.002,0.003,0.008,0.012,0.01,0.014c0.042-0.01,0.083-0.028,0.129-0.028
										c0.094-0.003,0.191-0.005,0.286-0.012c0.056,0.003,0.115,0.009,0.173,0.003C11.195-2.577,11.198-2.586,11.198-2.596
										L11.198-2.596z"/>
									<path fill="#F8F604" d="M10.613-2.323c0.146-0.057,0.309-0.081,0.469-0.065c0.042,0.005,0.083,0.012,0.123,0.017
										c0.03,0.042,0.059,0.087,0.087,0.125c0.026,0.035,0.011,0.08,0.015,0.118c-0.027,0.006-0.054,0.016-0.08,0.021
										c-0.035,0.003-0.067,0-0.1,0c-0.062-0.005-0.124,0-0.185-0.005c0-0.036,0-0.078,0-0.114
										c0.034-0.022,0.072-0.044,0.105-0.07c-0.071,0-0.141,0-0.208,0.003c-0.021,0-0.037,0.005-0.054,0.012
										c0.023,0.028,0.063,0.035,0.095,0.048c0,0.043,0.003,0.092,0,0.137C10.777-2.1,10.673-2.1,10.567-2.1
										c-0.019-0.025-0.04-0.044-0.047-0.075c-0.008-0.021-0.006-0.044-0.006-0.067C10.545-2.27,10.568-2.31,10.613-2.323
										L10.613-2.323z"/>
									<path fill="#F8F604" d="M11.225-2.017c0.032-0.032,0.072-0.056,0.107-0.086c0.008,0.008,0.016,0.013,0.027,0.015
										c-0.004,0.09-0.007,0.175-0.011,0.264c-0.04,0.005-0.082,0.005-0.116,0.021c-0.007,0.05-0.007,0.106-0.012,0.157
										c-0.027,0.032-0.059,0.055-0.082,0.088c-0.058-0.009-0.12-0.015-0.178-0.023c-0.003-0.025-0.005-0.049-0.005-0.073
										c0.03-0.023,0.075-0.023,0.092-0.06c0.008-0.019,0.013-0.035,0.021-0.051c-0.032,0.015-0.062,0.037-0.099,0.038
										c-0.04,0-0.077,0.008-0.113,0c-0.037-0.009-0.073-0.012-0.11-0.019c0.021,0.022,0.042,0.044,0.067,0.066
										c0.027,0.01,0.055,0.012,0.08,0.019c0,0.027,0,0.054,0,0.081c-0.03,0.017-0.062,0.034-0.089,0.055
										c-0.011-0.006-0.023-0.008-0.036-0.011c-0.012-0.037-0.013-0.08-0.029-0.117c-0.029-0.02-0.059-0.035-0.087-0.049
										c-0.003-0.026-0.003-0.049-0.008-0.075c-0.029-0.011-0.059-0.025-0.089-0.037c-0.003-0.021-0.005-0.042-0.011-0.065
										C10.53-1.89,10.513-1.9,10.497-1.91c0-0.051,0-0.104,0-0.155c0.015,0,0.032-0.006,0.046-0.006
										c0.015,0.03,0.027,0.058,0.048,0.083c0.042,0.044,0.087,0.092,0.128,0.135c0.022,0.003,0.045,0.012,0.068,0.008
										c0.008-0.01,0.012-0.018,0.016-0.032c0.018-0.05,0.042-0.098,0.06-0.146c0.038-0.003,0.077-0.003,0.113-0.006
										c0.041,0.051,0.079,0.103,0.116,0.154c0.02-0.001,0.038-0.006,0.057-0.01C11.171-1.927,11.195-1.975,11.225-2.017
										L11.225-2.017z"/>
									<path fill="#F8F604" d="M11.5-1.895c0.054-0.003,0.108-0.011,0.161-0.017C11.66-1.86,11.71-1.834,11.727-1.793
										c0.008,0.021,0.013,0.044,0.019,0.066c-0.022-0.003-0.045-0.003-0.068-0.005c-0.02-0.026-0.037-0.051-0.055-0.078
										c-0.008,0.006-0.016,0.012-0.025,0.017c0.017,0.032,0.041,0.054,0.056,0.083c0.008,0.062,0.008,0.119,0.015,0.176
										c-0.026,0-0.053,0-0.08,0c-0.011-0.037-0.02-0.075-0.033-0.115c-0.008,0.005-0.018,0.005-0.027,0.012
										c0.009,0.035,0.023,0.071,0.028,0.113c-0.005,0.054-0.011,0.112-0.02,0.173c-0.027,0-0.052,0-0.079,0
										c-0.02-0.044-0.05-0.087-0.073-0.13C11.38-1.495,11.38-1.507,11.38-1.518c0-0.067,0-0.135,0-0.202
										c0-0.01,0.003-0.021,0.011-0.027C11.427-1.796,11.465-1.847,11.5-1.895L11.5-1.895z"/>
									<path fill="#F8F604" d="M10.179-1.796c0.043-0.001,0.084-0.006,0.125-0.006c0.01,0.047,0.021,0.095,0.03,0.147
										c-0.048,0.05-0.099,0.104-0.151,0.156c0.006,0.005,0.013,0.009,0.018,0.014c-0.005,0-0.015-0.003-0.021-0.005
										c-0.004-0.019-0.011-0.036-0.017-0.052c0.022-0.054,0.043-0.107,0.063-0.164C10.211-1.737,10.195-1.765,10.179-1.796
										L10.179-1.796z"/>
									<path fill="#F8F604" d="M10.287-1.457c0.021-0.061,0.046-0.116,0.07-0.177c0.011,0.011,0.023,0.021,0.035,0.03
										c0.001,0.095,0.005,0.187,0.008,0.282c-0.033-0.005-0.065-0.012-0.095-0.013C10.298-1.375,10.287-1.418,10.287-1.457
										L10.287-1.457z"/>
									<path fill="#F8F604" d="M10.83-1.475c0.035-0.02,0.067-0.04,0.099-0.062c0.065,0.017,0.13,0.032,0.194,0.042
										c-0.011,0.03-0.014,0.06-0.035,0.085c-0.019,0.021-0.037,0.044-0.055,0.07c-0.04,0-0.08,0-0.122,0.003
										c-0.023-0.024-0.049-0.046-0.07-0.07C10.839-1.432,10.833-1.45,10.83-1.475L10.83-1.475z"/>
									<path fill="#F8F604" d="M11.167-1.37c0.048-0.027,0.097-0.052,0.145-0.076c0.019,0.035,0.038,0.066,0.057,0.102
										c-0.016,0-0.03,0-0.043,0c-0.004,0.038-0.002,0.08-0.009,0.12c-0.008,0.022-0.024,0.04-0.038,0.063
										C11.255-1.182,11.235-1.2,11.213-1.22c-0.005-0.01-0.018-0.02-0.02-0.032C11.185-1.292,11.176-1.333,11.167-1.37
										L11.167-1.37z"/>
									<path fill="#F8F604" d="M10.5-1.407c0.037-0.001,0.073-0.003,0.108-0.006c0.008,0.07,0.016,0.137,0.023,0.205
										c-0.005,0.008-0.012,0.013-0.02,0.021c-0.002-0.006-0.002-0.015-0.003-0.021c-0.042-0.028-0.082-0.059-0.125-0.089
										C10.49-1.33,10.495-1.367,10.5-1.407L10.5-1.407z"/>
									<path fill="#F8F604" d="M10.993-1.219c0.022-0.006,0.043-0.016,0.067-0.022c0.023,0.033,0.045,0.07,0.07,0.103
										c-0.055,0.007-0.11,0.015-0.165,0.02C10.973-1.152,10.985-1.182,10.993-1.219L10.993-1.219z"/>
									<path fill="#F8F604" d="M10.836-1.187c0.023-0.003,0.049-0.006,0.074-0.006c0.013,0.027,0.026,0.05,0.042,0.078
										c-0.022,0.001-0.043,0.006-0.066,0.005c-0.029-0.005-0.057-0.018-0.08-0.024C10.813-1.153,10.823-1.17,10.836-1.187
										L10.836-1.187z"/>
									<ellipse fill="#F8F604" cx="10.718" cy="-1.993" rx="0.059" ry="0.043"/>
									<ellipse fill="#F8F604" cx="11.105" cy="-1.993" rx="0.06" ry="0.043"/>
								</g>
								<g>
									<path fill="#544B20" d="M12.891-2.833c0.063,0.032,0.128,0.063,0.193,0.095c0.003,0.049,0.003,0.098,0.007,0.146
										c0.03,0,0.064,0,0.094,0c-0.008-0.037-0.025-0.075-0.021-0.114c0-0.011-0.002-0.022,0.005-0.029
										c0.042-0.023,0.101,0,0.137-0.037c0.02-0.019,0.039-0.032,0.062-0.049c0.042,0,0.083,0,0.127,0.003
										c0.003,0.027,0.01,0.057,0.013,0.084c-0.035,0.056-0.078,0.106-0.113,0.164c-0.007,0.044,0.001,0.089,0.001,0.132
										c0.034,0.019,0.07,0.034,0.106,0.047c0.013,0.073,0.025,0.143,0.037,0.218c0.056,0.054,0.112,0.108,0.168,0.164
										c0.006,0.04,0.006,0.081,0.013,0.123c0.013,0.032,0.046,0.049,0.059,0.085c0.01,0.035,0.017,0.073,0.027,0.108
										c-0.03,0-0.064-0.003-0.099-0.006c0.006,0.066,0.013,0.132,0.016,0.198c-0.039,0-0.078,0.001-0.115,0
										c-0.007,0.06-0.012,0.119-0.02,0.176c-0.07,0.002-0.14,0.002-0.212,0.007c0,0.033,0,0.066-0.005,0.102
										c-0.016,0.032-0.039,0.06-0.059,0.092c-0.132,0.017-0.264,0.032-0.396,0.043c-0.049-0.002-0.093-0.034-0.146-0.035
										c-0.051,0-0.104,0-0.156-0.003c-0.005-0.024-0.006-0.048-0.014-0.068c-0.022-0.024-0.058-0.042-0.083-0.065
										c-0.023-0.015-0.043-0.035-0.07-0.038c-0.05-0.008-0.099-0.013-0.145-0.021c-0.01-0.047-0.019-0.095-0.025-0.138
										c-0.035-0.007-0.068-0.011-0.102-0.016c-0.011-0.035-0.022-0.068-0.033-0.103c-0.011-0.03-0.032-0.053-0.05-0.078
										c0.013-0.043,0.034-0.092,0.046-0.139c-0.02-0.02-0.043-0.04-0.066-0.062c0.037-0.067,0.075-0.14,0.113-0.208
										c0.049-0.01,0.095-0.02,0.142-0.03c-0.001-0.073-0.001-0.145-0.005-0.22c0.04-0.01,0.084-0.02,0.124-0.03
										c0.001-0.035,0.005-0.063,0.01-0.1c-0.05-0.063-0.1-0.126-0.15-0.193c-0.003-0.037,0-0.079,0-0.117
										c0.04,0.003,0.083,0,0.121,0.014c0.037,0.015,0.075,0.03,0.116,0.042c0.012,0.005,0.021,0.021,0.027,0.032
										c0.022,0.032,0.044,0.063,0.065,0.093c0.021-0.006,0.04-0.013,0.062-0.018c0.004-0.043,0.005-0.086,0.01-0.13
										C12.767-2.753,12.828-2.793,12.891-2.833L12.891-2.833z"/>
									<path fill="#F8F604" d="M12.869-2.787c0.01-0.005,0.013-0.008,0.022-0.015c0.009,0.003,0.015,0.008,0.021,0.01
										c0.003,0.03,0.008,0.062,0.015,0.092c0.042,0,0.085-0.003,0.129-0.003c0.001,0.026,0.001,0.056,0.003,0.086
										c-0.034-0.008-0.071-0.016-0.109-0.021c-0.006-0.02-0.02-0.035-0.029-0.051c-0.02,0-0.039,0-0.059,0.002
										c-0.003,0.019-0.01,0.035-0.015,0.051c-0.038,0.005-0.078,0.007-0.116,0.01c0-0.017,0.002-0.037,0.003-0.054
										c0.042-0.008,0.083-0.013,0.125-0.021C12.859-2.73,12.866-2.758,12.869-2.787L12.869-2.787z"/>
									<path fill="#F8F604" d="M13.214-2.596c0.085-0.063,0.171-0.127,0.253-0.192c0.003,0.015,0.005,0.027,0.01,0.045
										c-0.034,0.045-0.07,0.094-0.103,0.143c-0.007,0.008-0.017,0.02-0.017,0.034c0,0.041,0.003,0.087,0.007,0.13
										c-0.01,0.01-0.02,0.021-0.031,0.032c-0.044,0.003-0.088,0.014-0.132,0.003c-0.188-0.035-0.386-0.02-0.564,0.047
										c-0.029,0.01-0.059,0.032-0.092,0.022c-0.023-0.003-0.047-0.003-0.07-0.006c0.003-0.035,0.007-0.068,0.012-0.104
										c-0.052-0.063-0.104-0.13-0.153-0.198c0.003-0.024,0.003-0.048,0.003-0.075c0.051,0.059,0.105,0.114,0.158,0.172
										c0.041,0,0.081,0,0.119,0c0.004,0.003,0.007,0.012,0.012,0.014c0.041-0.01,0.083-0.028,0.129-0.028
										c0.094-0.003,0.19-0.005,0.286-0.012c0.059,0.003,0.115,0.009,0.174,0.003C13.214-2.577,13.214-2.586,13.214-2.596
										L13.214-2.596z"/>
									<path fill="#F8F604" d="M12.632-2.323c0.147-0.057,0.312-0.081,0.469-0.065c0.039,0.005,0.083,0.012,0.127,0.017
										c0.027,0.042,0.055,0.087,0.086,0.125c0.027,0.035,0.01,0.08,0.015,0.118c-0.026,0.006-0.052,0.016-0.081,0.021
										c-0.033,0.003-0.065,0-0.102,0c-0.062-0.005-0.12,0-0.182-0.005c0-0.036,0-0.078,0-0.114
										c0.032-0.022,0.071-0.044,0.104-0.07c-0.071,0-0.14,0-0.208,0.003c-0.021,0-0.037,0.005-0.055,0.012
										c0.023,0.028,0.064,0.035,0.094,0.048c0,0.043,0.002,0.092,0.002,0.137C12.797-2.1,12.691-2.1,12.587-2.1
										c-0.019-0.025-0.038-0.044-0.047-0.075c-0.007-0.021-0.007-0.044-0.007-0.067C12.563-2.27,12.588-2.31,12.632-2.323
										L12.632-2.323z"/>
									<path fill="#F8F604" d="M13.245-2.017c0.031-0.032,0.071-0.056,0.105-0.086c0.01,0.008,0.02,0.013,0.026,0.015
										c0,0.09-0.005,0.175-0.01,0.264c-0.039,0.005-0.081,0.005-0.119,0.021c-0.006,0.05-0.006,0.106-0.008,0.157
										c-0.026,0.032-0.059,0.055-0.081,0.088c-0.061-0.009-0.121-0.015-0.181-0.023c-0.002-0.025-0.002-0.049-0.004-0.073
										c0.031-0.023,0.075-0.023,0.09-0.06c0.01-0.019,0.017-0.035,0.022-0.051c-0.032,0.015-0.06,0.037-0.099,0.038
										c-0.038,0-0.077,0.008-0.112,0c-0.034-0.009-0.074-0.012-0.107-0.019c0.021,0.022,0.04,0.044,0.064,0.066
										c0.026,0.01,0.056,0.012,0.08,0.019c0,0.027,0.002,0.054,0.002,0.081c-0.029,0.017-0.062,0.034-0.088,0.055
										c-0.015-0.006-0.027-0.008-0.035-0.011c-0.011-0.037-0.016-0.08-0.03-0.117c-0.028-0.02-0.061-0.035-0.089-0.049
										c-0.001-0.026-0.005-0.049-0.007-0.075c-0.031-0.011-0.058-0.025-0.089-0.037c-0.006-0.021-0.006-0.042-0.016-0.065
										C12.55-1.89,12.533-1.9,12.52-1.91c-0.004-0.051-0.004-0.104-0.004-0.155c0.016,0,0.034-0.006,0.049-0.006
										c0.016,0.03,0.027,0.058,0.049,0.083c0.043,0.044,0.085,0.092,0.13,0.135c0.021,0.003,0.044,0.012,0.068,0.008
										c0.007-0.01,0.012-0.018,0.017-0.032c0.017-0.05,0.038-0.098,0.059-0.146c0.034-0.003,0.073-0.003,0.112-0.006
										c0.039,0.051,0.078,0.103,0.116,0.154c0.018-0.001,0.034-0.006,0.057-0.01C13.191-1.927,13.214-1.975,13.245-2.017
										L13.245-2.017z"/>
									<path fill="#F8F604" d="M13.521-1.895c0.054-0.003,0.109-0.011,0.161-0.017c-0.005,0.052,0.046,0.078,0.062,0.119
										c0.01,0.021,0.016,0.044,0.02,0.066c-0.023-0.003-0.044-0.003-0.072-0.005c-0.016-0.026-0.032-0.051-0.052-0.078
										c-0.003,0.006-0.013,0.012-0.022,0.017c0.02,0.032,0.04,0.054,0.057,0.083c0.01,0.062,0.01,0.119,0.015,0.176
										c-0.026,0-0.052,0-0.08,0c-0.01-0.037-0.021-0.075-0.03-0.115c-0.01,0.005-0.02,0.005-0.029,0.012
										c0.01,0.035,0.022,0.071,0.029,0.113c-0.004,0.054-0.014,0.112-0.02,0.173c-0.026,0-0.053,0-0.078,0
										c-0.02-0.044-0.053-0.087-0.072-0.13c-0.008-0.014-0.006-0.025-0.006-0.037c0-0.067,0-0.135,0-0.202
										c0-0.01,0.006-0.021,0.013-0.027C13.448-1.796,13.484-1.847,13.521-1.895L13.521-1.895z"/>
									<path fill="#F8F604" d="M12.199-1.796c0.042-0.001,0.083-0.006,0.125-0.006c0.01,0.047,0.022,0.097,0.03,0.147
										c-0.049,0.05-0.1,0.104-0.154,0.156c0.006,0.005,0.013,0.009,0.02,0.014c-0.007,0-0.015-0.003-0.021-0.005
										c-0.003-0.019-0.012-0.036-0.017-0.052c0.024-0.054,0.045-0.107,0.065-0.164C12.23-1.737,12.213-1.765,12.199-1.796
										L12.199-1.796z"/>
									<path fill="#F8F604" d="M12.305-1.457c0.021-0.061,0.048-0.116,0.07-0.177c0.013,0.011,0.024,0.021,0.035,0.03
										c0.003,0.095,0.005,0.187,0.01,0.282c-0.032-0.005-0.065-0.012-0.099-0.013C12.316-1.375,12.305-1.418,12.305-1.457
										L12.305-1.457z"/>
									<path fill="#F8F604" d="M12.85-1.475c0.036-0.02,0.066-0.04,0.098-0.062c0.065,0.017,0.13,0.032,0.192,0.042
										c-0.007,0.03-0.012,0.06-0.034,0.085c-0.019,0.021-0.038,0.044-0.056,0.07c-0.041,0-0.081,0-0.122,0.003
										c-0.024-0.024-0.049-0.046-0.068-0.07C12.859-1.432,12.853-1.45,12.85-1.475L12.85-1.475z"/>
									<path fill="#F8F604" d="M13.188-1.37c0.047-0.027,0.098-0.052,0.14-0.076c0.022,0.035,0.042,0.066,0.063,0.102
										c-0.015,0-0.031,0-0.047,0c-0.004,0.038,0,0.08-0.004,0.12c-0.013,0.022-0.027,0.04-0.042,0.063
										c-0.02-0.021-0.042-0.038-0.062-0.059c-0.01-0.01-0.02-0.02-0.02-0.032C13.204-1.292,13.198-1.333,13.188-1.37L13.188-1.37
										z"/>
									<path fill="#F8F604" d="M12.52-1.407c0.037-0.001,0.074-0.003,0.11-0.006c0.008,0.07,0.017,0.137,0.023,0.205
										c-0.007,0.008-0.016,0.013-0.021,0.021c0-0.006-0.002-0.015-0.004-0.021c-0.041-0.03-0.081-0.059-0.125-0.089
										C12.51-1.33,12.517-1.367,12.52-1.407L12.52-1.407z"/>
									<path fill="#F8F604" d="M13.013-1.219c0.022-0.006,0.044-0.016,0.068-0.022c0.021,0.033,0.044,0.07,0.064,0.103
										c-0.05,0.007-0.107,0.015-0.161,0.02C12.996-1.152,13.006-1.182,13.013-1.219L13.013-1.219z"/>
									<path fill="#F8F604" d="M12.856-1.187c0.022-0.003,0.049-0.006,0.071-0.006c0.013,0.027,0.029,0.05,0.044,0.078
										c-0.024,0.001-0.047,0.006-0.068,0.005c-0.027-0.005-0.056-0.018-0.081-0.024C12.833-1.153,12.843-1.17,12.856-1.187
										L12.856-1.187z"/>
									<ellipse fill="#F8F604" cx="12.736" cy="-1.993" rx="0.061" ry="0.043"/>
									<ellipse fill="#F8F604" cx="13.125" cy="-1.993" rx="0.059" ry="0.043"/>
								</g>
								<g>
									<path fill="#544B20" d="M11.88-1.075c0.067,0.032,0.131,0.063,0.198,0.097c0,0.049,0,0.097,0.005,0.143
										c0.03,0,0.062,0,0.092,0c-0.008-0.04-0.025-0.075-0.023-0.115c0.001-0.011-0.001-0.022,0.005-0.028
										c0.044-0.023,0.104,0,0.138-0.035c0.021-0.018,0.041-0.035,0.062-0.048c0.042,0,0.084,0,0.127,0.001
										c0.005,0.029,0.011,0.055,0.015,0.083c-0.04,0.056-0.08,0.108-0.118,0.166c-0.005,0.04,0.003,0.087,0.003,0.13
										c0.035,0.018,0.068,0.035,0.105,0.05c0.011,0.073,0.028,0.145,0.038,0.215c0.058,0.054,0.111,0.111,0.167,0.167
										c0.005,0.038,0.005,0.081,0.015,0.119c0.013,0.033,0.046,0.053,0.057,0.088c0.012,0.035,0.017,0.075,0.032,0.111
										c-0.035-0.001-0.066-0.006-0.102-0.011c0.006,0.067,0.01,0.135,0.013,0.2c-0.038,0-0.073,0-0.113,0
										c-0.007,0.059-0.011,0.116-0.018,0.177c-0.071,0.001-0.143,0.003-0.212,0.006c-0.003,0.035,0,0.067-0.005,0.1
										c-0.015,0.033-0.04,0.063-0.058,0.095c-0.132,0.015-0.265,0.03-0.397,0.043c-0.051-0.001-0.097-0.035-0.146-0.035
										c-0.051,0-0.102,0-0.155-0.007c-0.004-0.019-0.005-0.043-0.01-0.065c-0.024-0.027-0.058-0.042-0.086-0.063
										c-0.022-0.015-0.042-0.035-0.068-0.04c-0.049-0.005-0.099-0.011-0.145-0.022c-0.01-0.043-0.017-0.091-0.025-0.138
										c-0.035-0.005-0.067-0.006-0.1-0.015c-0.01-0.035-0.022-0.068-0.032-0.102c-0.01-0.032-0.032-0.054-0.05-0.078
										c0.015-0.042,0.035-0.09,0.048-0.137c-0.022-0.022-0.043-0.04-0.066-0.062c0.038-0.072,0.075-0.142,0.111-0.21
										c0.049-0.011,0.099-0.022,0.143-0.03C11.318-0.4,11.32-0.472,11.318-0.542c0.041-0.012,0.083-0.022,0.121-0.033
										c0.003-0.034,0.008-0.067,0.013-0.1c-0.05-0.067-0.102-0.13-0.148-0.194c-0.006-0.038,0-0.082,0-0.116
										c0.039,0.001,0.082-0.002,0.12,0.015c0.041,0.015,0.078,0.028,0.114,0.042c0.015,0.005,0.021,0.017,0.032,0.029
										c0.02,0.032,0.042,0.062,0.061,0.094c0.022-0.008,0.042-0.011,0.062-0.018c0.003-0.044,0.007-0.085,0.01-0.128
										C11.76-0.993,11.82-1.031,11.88-1.075L11.88-1.075z"/>
									<path fill="#F8F604" d="M11.862-1.023c0.006-0.008,0.013-0.011,0.022-0.02c0.006,0.007,0.015,0.012,0.021,0.014
										C11.91-1,11.916-0.97,11.918-0.94c0.042-0.003,0.085-0.003,0.129-0.006c0,0.03,0.002,0.057,0.004,0.087
										c-0.036-0.005-0.073-0.014-0.111-0.02c-0.008-0.017-0.021-0.034-0.03-0.048c-0.02,0-0.037,0-0.058,0.003
										c-0.003,0.016-0.01,0.032-0.016,0.046c-0.037,0.005-0.076,0.011-0.115,0.014c0-0.02,0-0.036,0.002-0.055
										c0.042-0.005,0.083-0.013,0.125-0.021C11.854-0.969,11.858-1,11.862-1.023L11.862-1.023z"/>
									<path fill="#F8F604" d="M12.208-0.835c0.083-0.063,0.168-0.127,0.253-0.191C12.463-1.012,12.466-1,12.469-0.985
										C12.433-0.937,12.4-0.89,12.365-0.843C12.36-0.832,12.35-0.821,12.35-0.809c0,0.042,0.005,0.087,0.005,0.129
										c-0.008,0.013-0.017,0.021-0.029,0.033c-0.044,0.001-0.088,0.015-0.132,0.005c-0.189-0.035-0.388-0.023-0.564,0.046
										c-0.032,0.011-0.058,0.032-0.093,0.023c-0.024-0.001-0.047-0.006-0.068-0.006c0.003-0.037,0.006-0.068,0.013-0.104
										c-0.054-0.065-0.103-0.132-0.154-0.198c0-0.025,0.001-0.048,0.001-0.073c0.051,0.057,0.106,0.111,0.16,0.17
										c0.038,0,0.079,0,0.119,0c0.001,0.001,0.006,0.01,0.006,0.013c0.045-0.012,0.086-0.029,0.13-0.029
										c0.096-0.003,0.191-0.008,0.288-0.011c0.057,0.003,0.116,0.006,0.175,0C12.208-0.815,12.208-0.831,12.208-0.835
										L12.208-0.835z"/>
									<path fill="#F8F604" d="M11.625-0.562c0.146-0.058,0.308-0.083,0.469-0.065c0.038,0.001,0.083,0.011,0.123,0.017
										c0.03,0.042,0.061,0.083,0.09,0.125c0.027,0.033,0.01,0.081,0.015,0.119c-0.027,0.003-0.053,0.012-0.08,0.017
										c-0.035,0.003-0.067,0-0.1,0c-0.062-0.002-0.124,0.003-0.185-0.002c0-0.035,0-0.076,0-0.115
										c0.035-0.022,0.07-0.044,0.103-0.068c-0.07,0-0.138-0.003-0.208,0.003c-0.019,0-0.037,0.005-0.054,0.011
										c0.025,0.027,0.062,0.035,0.093,0.049c0,0.043,0.002,0.088,0.002,0.137C11.79-0.34,11.685-0.34,11.579-0.341
										c-0.017-0.023-0.039-0.044-0.047-0.072c-0.006-0.023-0.006-0.043-0.006-0.066C11.557-0.51,11.579-0.552,11.625-0.562
										L11.625-0.562z"/>
									<path fill="#F8F604" d="M12.235-0.257c0.033-0.033,0.071-0.057,0.108-0.084c0.008,0.006,0.017,0.01,0.025,0.015
										c-0.004,0.084-0.006,0.173-0.009,0.26c-0.04,0.009-0.082,0.009-0.12,0.023c-0.007,0.054-0.007,0.105-0.01,0.159
										C12.204,0.147,12.172,0.168,12.15,0.2c-0.06-0.006-0.12-0.013-0.18-0.021c-0.001-0.027-0.001-0.05-0.005-0.076
										c0.032-0.02,0.077-0.02,0.092-0.056c0.008-0.019,0.013-0.035,0.021-0.052c-0.032,0.017-0.062,0.037-0.099,0.037
										c-0.04,0.002-0.078,0.011-0.113,0.002c-0.037-0.007-0.073-0.012-0.11-0.018c0.022,0.021,0.042,0.046,0.066,0.065
										c0.025,0.012,0.051,0.013,0.078,0.02c0,0.025,0,0.052,0,0.079c-0.028,0.021-0.06,0.035-0.088,0.055
										c-0.012-0.003-0.023-0.008-0.035-0.012c-0.012-0.038-0.016-0.076-0.03-0.113c-0.027-0.021-0.062-0.036-0.09-0.052
										c0-0.023-0.003-0.045-0.006-0.072c-0.029-0.015-0.057-0.027-0.089-0.038c-0.003-0.023-0.006-0.042-0.015-0.065
										c-0.011-0.015-0.03-0.022-0.045-0.032c-0.001-0.051-0.001-0.104-0.001-0.155c0.016-0.001,0.032-0.007,0.046-0.009
										c0.017,0.032,0.027,0.06,0.05,0.085c0.044,0.042,0.087,0.091,0.128,0.137c0.023,0.003,0.045,0.011,0.068,0.008
										c0.006-0.01,0.01-0.022,0.015-0.033c0.017-0.048,0.039-0.099,0.059-0.146c0.038-0.003,0.075-0.003,0.114-0.006
										c0.04,0.051,0.078,0.103,0.115,0.153c0.02-0.003,0.039-0.003,0.055-0.008C12.183-0.168,12.208-0.215,12.235-0.257
										L12.235-0.257z"/>
									<path fill="#F8F604" d="M12.514-0.135c0.053-0.007,0.106-0.01,0.159-0.018c-0.003,0.05,0.048,0.08,0.065,0.122
										c0.006,0.023,0.012,0.045,0.017,0.066c-0.023-0.003-0.047-0.003-0.068-0.008c-0.019-0.023-0.036-0.049-0.054-0.075
										c-0.008,0.005-0.016,0.011-0.024,0.017c0.02,0.028,0.04,0.055,0.058,0.083c0.007,0.059,0.007,0.118,0.015,0.177
										c-0.028,0-0.056,0-0.083,0c-0.01-0.039-0.021-0.078-0.031-0.115c-0.01,0.001-0.02,0.005-0.03,0.008
										c0.009,0.039,0.023,0.077,0.03,0.112c-0.005,0.059-0.012,0.115-0.018,0.173c-0.027,0-0.054,0-0.08,0.003
										c-0.019-0.046-0.05-0.088-0.072-0.13c-0.007-0.015-0.002-0.026-0.005-0.039c0.001-0.064,0-0.132,0-0.199
										c-0.002-0.011,0.005-0.021,0.01-0.03C12.44-0.037,12.477-0.085,12.514-0.135L12.514-0.135z"/>
									<path fill="#F8F604" d="M11.192-0.037c0.042-0.001,0.083-0.005,0.125-0.006c0.006,0.049,0.021,0.095,0.028,0.145
										c-0.048,0.054-0.098,0.103-0.151,0.157c0.005,0.005,0.012,0.01,0.017,0.015c-0.005-0.003-0.015-0.005-0.021-0.008
										c-0.005-0.017-0.012-0.032-0.017-0.048c0.022-0.055,0.043-0.105,0.065-0.165C11.224,0.023,11.205-0.007,11.192-0.037
										L11.192-0.037z"/>
									<path fill="#F8F604" d="M11.297,0.302c0.02-0.062,0.046-0.117,0.072-0.178c0.011,0.011,0.021,0.022,0.035,0.033
										c0.003,0.094,0.007,0.187,0.01,0.28c-0.033-0.005-0.065-0.01-0.097-0.015C11.312,0.381,11.298,0.343,11.297,0.302
										L11.297,0.302z"/>
									<path fill="#F8F604" d="M11.844,0.284c0.031-0.021,0.062-0.039,0.096-0.059c0.065,0.015,0.128,0.027,0.192,0.04
										c-0.008,0.028-0.012,0.06-0.033,0.083c-0.021,0.023-0.039,0.045-0.057,0.07C12,0.422,11.962,0.422,11.92,0.425
										c-0.024-0.023-0.047-0.049-0.07-0.072C11.849,0.33,11.845,0.307,11.844,0.284L11.844,0.284z"/>
									<path fill="#F8F604" d="M12.18,0.385c0.049-0.023,0.097-0.049,0.142-0.076c0.022,0.035,0.042,0.068,0.061,0.104
										c-0.017,0-0.03,0-0.043,0c-0.003,0.04-0.003,0.081-0.008,0.122c-0.011,0.021-0.027,0.04-0.039,0.062
										c-0.023-0.022-0.043-0.041-0.065-0.061c-0.01-0.008-0.018-0.017-0.021-0.028C12.195,0.467,12.188,0.429,12.18,0.385
										L12.18,0.385z"/>
									<path fill="#F8F604" d="M11.512,0.355c0.038-0.002,0.073-0.006,0.11-0.007c0.008,0.068,0.019,0.137,0.025,0.205
										c-0.007,0.005-0.016,0.014-0.024,0.02c0-0.005-0.001-0.015-0.001-0.022c-0.042-0.027-0.083-0.056-0.125-0.086
										C11.5,0.429,11.507,0.39,11.512,0.355L11.512,0.355z"/>
									<path fill="#F8F604" d="M12.005,0.543c0.022-0.008,0.043-0.018,0.068-0.027c0.022,0.035,0.042,0.07,0.068,0.105
										c-0.055,0.006-0.11,0.012-0.165,0.02C11.985,0.61,11.995,0.577,12.005,0.543L12.005,0.543z"/>
									<path fill="#F8F604" d="M11.849,0.573c0.024-0.001,0.048-0.005,0.072-0.006c0.016,0.027,0.027,0.051,0.043,0.077
										C11.941,0.646,11.92,0.65,11.896,0.65c-0.028-0.005-0.053-0.018-0.083-0.025C11.827,0.607,11.836,0.59,11.849,0.573
										L11.849,0.573z"/>
									<ellipse fill="#F8F604" cx="11.73" cy="-0.235" rx="0.059" ry="0.04"/>
									<ellipse fill="#F8F604" cx="12.116" cy="-0.235" rx="0.061" ry="0.04"/>
								</g>
							</g>
						</g>
						<g>
							<path fill="#D61516" d="M18.037-0.454c0.467,0.105,0.936,0.227,1.396,0.36c0.528,0.155,1.055,0.333,1.567,0.53
								c0.267,0.104,0.528,0.205,0.792,0.315C21.666,1,21.548,1.25,21.424,1.499c-0.078,0.153-0.149,0.306-0.228,0.46
								c-0.59-0.233-1.182-0.443-1.787-0.639c-0.536-0.173-1.079-0.339-1.631-0.47c-0.036-0.01-0.067-0.021-0.104-0.023
								c0.013-0.018,0.018-0.037,0.021-0.053c0.03-0.112,0.066-0.224,0.096-0.337c0-0.001,0.003-0.006,0.003-0.011
								c0.004-0.017,0.01-0.037,0.017-0.055C17.882,0.097,17.962-0.179,18.037-0.454L18.037-0.454z"/>
							<path fill="#FFFFFF" d="M17.534,1.321l0.14-0.493c0,0,1.064,0.182,1.927,0.469c0.864,0.288,1.602,0.662,1.602,0.662
								l-0.228,0.458L17.534,1.321z"/>
							<path fill="#FFFFFF" d="M18.037-0.454l0.14-0.495c0,0,1.062,0.181,1.926,0.47c0.864,0.287,1.917,0.77,1.917,0.77
								l-0.228,0.459L18.037-0.454z"/>
							<path fill="#3B75D9" d="M18.594-2.435c0,0,1.802-0.73,2.703-1.095c0.449,0.748,0.889,1.5,1.34,2.25
								c0.03,0.046,0.054,0.096,0.086,0.144v0.003c-0.021,0.03-0.034,0.063-0.052,0.099c-0.215,0.443-0.43,0.885-0.648,1.33
								c-0.521-0.222-1.046-0.438-1.578-0.623c-0.742-0.253-1.499-0.454-2.266-0.617L18.594-2.435z"/>
							<path fill="#3B75D9" d="M17.547,1.286c0,0,0.857,0.262,1.286,0.394c0.273,0.084,0.55,0.173,0.826,0.261
								c0.443,0.143,1.322,0.453,1.322,0.453s-0.082,0.188-0.307,0.642h-0.001c-0.131-0.054-0.263-0.105-0.396-0.157
								c-0.453-0.173-0.905-0.334-1.371-0.466c-0.519-0.151-1.048-0.273-1.573-0.39V2.021C17.422,1.707,17.547,1.286,17.547,1.286z"
								/>
							<polygon fill="#FEC502" points="20.933,-2.531 21.021,-2.023 21.572,-1.825 21.15,-1.462 21.202,-0.948 20.733,-1.098 
								20.332,-0.721 20.216,-1.26 19.632,-1.435 20.086,-1.84 19.974,-2.372 20.527,-2.198 							"/>
							<polygon fill="#FAFC12" points="20.926,-2.51 21.007,-2.02 20.604,-1.646 							"/>
							<polygon fill="#FAFC12" points="19.996,-2.34 20.469,-2.18 20.604,-1.646 							"/>
							<polygon fill="#FAFC12" points="20.359,-0.762 20.714,-1.11 20.604,-1.646 							"/>
							<polygon fill="#FAFC12" points="19.708,-1.435 20.186,-1.297 20.604,-1.646 							"/>
							<polygon fill="#FAFC12" points="21.534,-1.82 21.134,-1.472 21.177,-0.977 20.605,-1.646 							"/>
							<path fill="#31120A" d="M18.333-0.023c0.114,0,0.232,0,0.349,0c0.003,0.042,0,0.084,0.008,0.126
								c0.061,0.032,0.119,0.074,0.181,0.106c0.096,0.051,0.198,0.079,0.296,0.124c0.015,0.005,0.028,0.01,0.039,0.01
								c0.241,0.02,0.478,0.04,0.717,0.062c0.108,0.021,0.22,0.051,0.32,0.104c0.068,0.04,0.13,0.1,0.173,0.168
								c0.01,0.011,0.016,0.033,0.035,0.037c0.268,0.086,0.554,0.121,0.834,0.132c0.049,0.006,0.103-0.006,0.146,0.024
								c0.022,0.016,0.035,0.047,0.02,0.074c-0.029,0.049-0.085,0.083-0.137,0.105c-0.107,0.043-0.229,0.04-0.342,0.021
								c-0.092-0.016-0.18-0.043-0.271-0.067c-0.056-0.016-0.114-0.033-0.174-0.033c0.01,0.032,0.022,0.055,0.04,0.081
								c0.039,0.058,0.1,0.11,0.16,0.15c0.021,0.01,0.042,0.016,0.059,0.027c-0.004,0.111-0.004,0.223-0.007,0.331
								c-0.018,0.027-0.044,0.043-0.065,0.063c-0.025-0.015-0.05-0.032-0.078-0.05c0.017-0.023,0.031-0.049,0.036-0.081
								c0.007-0.046-0.002-0.091-0.013-0.132c-0.007-0.038-0.031-0.062-0.053-0.09c-0.013-0.025-0.042-0.037-0.071-0.042
								c-0.101-0.007-0.198-0.042-0.286-0.099c-0.026-0.016-0.049-0.035-0.078-0.048c-0.014-0.004-0.029,0.001-0.044,0.005
								c-0.031,0.053-0.075,0.103-0.136,0.123c-0.035,0.002-0.064-0.005-0.098-0.005c-0.049,0-0.099-0.013-0.143-0.023
								c-0.082-0.018-0.166-0.035-0.244-0.06c0.001-0.022-0.014-0.052,0.01-0.066c0.032-0.005,0.06-0.003,0.088-0.005
								c0.039-0.004,0.078,0.01,0.115,0.013c0.044,0.007,0.09,0.008,0.132,0.008c0-0.035-0.003-0.075-0.003-0.11
								c-0.111-0.008-0.222-0.016-0.322-0.055c-0.097-0.039-0.192-0.073-0.288-0.112c-0.029-0.01-0.061-0.025-0.092-0.028
								c-0.157-0.013-0.313-0.02-0.472,0.003c-0.044,0.009-0.091,0.022-0.139,0.03c-0.069,0.011-0.135,0.034-0.206,0.044
								c-0.034,0.008-0.065-0.005-0.098-0.012c-0.015-0.005-0.034-0.013-0.043-0.03c-0.003-0.017,0.004-0.035,0.015-0.048
								c0.137-0.022,0.283-0.016,0.405-0.083c-0.011-0.028-0.022-0.05-0.04-0.073c-0.072-0.004-0.144-0.004-0.219-0.004
								c-0.055,0-0.113,0.012-0.169-0.008c-0.046-0.015-0.095-0.03-0.137-0.048c-0.008-0.005-0.021-0.008-0.021-0.021
								c-0.005-0.022-0.015-0.049-0.008-0.068c0.031-0.003,0.056,0.011,0.083,0.017c0.068,0.02,0.142,0.023,0.212,0.023
								c0.064-0.003,0.132-0.003,0.193-0.023c0-0.03,0.008-0.059,0.003-0.09c0-0.028-0.02-0.053-0.034-0.076
								c-0.088-0.019-0.177-0.021-0.265-0.032c-0.036-0.003-0.072-0.021-0.088-0.051c-0.009-0.025-0.009-0.052-0.004-0.083
								c0.046-0.032,0.102-0.046,0.148-0.084C18.292,0.031,18.313,0.005,18.333-0.023L18.333-0.023z"/>
							<path fill="#502D17" d="M18.341-0.008c0.107,0,0.219,0.001,0.326,0c0.005,0.04,0.005,0.083,0.005,0.124
								c0.071,0.035,0.133,0.083,0.205,0.118c0.081,0.038,0.167,0.066,0.242,0.098c0.027,0.012,0.046,0.027,0.071,0.027
								c0.238,0.024,0.476,0.043,0.712,0.063c0.081,0.01,0.156,0.034,0.229,0.058c0.107,0.037,0.205,0.103,0.265,0.198
								c0.014,0.017,0.021,0.043,0.044,0.048c0.295,0.102,0.609,0.13,0.92,0.14c0.026,0,0.054,0.012,0.071,0.03
								c0.01,0.008,0.014,0.019,0.01,0.028c-0.01,0.03-0.034,0.051-0.062,0.072c-0.083,0.06-0.188,0.077-0.29,0.075
								c-0.132-0.01-0.257-0.048-0.382-0.083c-0.065-0.015-0.127-0.035-0.192-0.03c0,0.028,0.007,0.052,0.022,0.075
								c0.053,0.09,0.137,0.162,0.234,0.207c0,0.077,0,0.15,0,0.227c-0.003,0.032,0,0.06-0.008,0.09
								c-0.013,0.019-0.034,0.032-0.051,0.049c-0.016-0.011-0.034-0.024-0.05-0.034c0.013-0.027,0.022-0.05,0.027-0.079
								c0.005-0.046,0.002-0.091-0.008-0.133c-0.012-0.044-0.038-0.077-0.065-0.111c-0.027-0.027-0.071-0.035-0.109-0.038
								c-0.112-0.016-0.218-0.07-0.311-0.133c-0.024-0.021-0.057-0.007-0.081-0.003c-0.028,0.05-0.068,0.097-0.122,0.119
								c-0.053,0.002-0.107,0.002-0.161-0.006c-0.103-0.03-0.212-0.045-0.314-0.076c0-0.015,0-0.028,0.003-0.038
								c0.039-0.012,0.078-0.008,0.117-0.002c0.073,0.014,0.15,0.017,0.229,0.017c0-0.042-0.004-0.083,0-0.125
								c0.074,0,0.146-0.01,0.221-0.01c-0.02-0.072-0.034-0.15-0.081-0.207c-0.032-0.05-0.088-0.075-0.144-0.088
								c-0.045-0.015-0.094-0.012-0.145-0.008c-0.188,0.005-0.374,0.01-0.562,0.019c0,0.028,0.002,0.055,0.007,0.086
								c-0.088-0.008-0.173-0.015-0.261-0.016c-0.078,0.005-0.163,0.005-0.241,0.018c-0.05,0.007-0.098,0.025-0.149,0.03
								c-0.07,0.013-0.137,0.038-0.205,0.046c-0.039-0.005-0.075-0.015-0.107-0.035c0.003-0.011,0.007-0.02,0.01-0.032
								c0.104-0.011,0.215-0.013,0.315-0.044c0.033-0.01,0.061-0.027,0.092-0.035c0.003-0.04-0.014-0.078-0.043-0.1
								c-0.02-0.005-0.039-0.005-0.059-0.005c-0.084,0-0.169,0-0.252,0.001c-0.047,0.003-0.093-0.015-0.137-0.032
								c-0.026-0.011-0.051-0.016-0.076-0.032c-0.021-0.01-0.015-0.035-0.021-0.054c0.057,0.011,0.112,0.033,0.174,0.035
								c0.058,0,0.116,0.01,0.175,0.002c0.047-0.003,0.098-0.007,0.143-0.025c0-0.042,0.007-0.088,0-0.128
								c-0.015-0.028-0.027-0.064-0.059-0.068c-0.081-0.015-0.159-0.018-0.242-0.023c-0.029-0.003-0.062-0.014-0.081-0.04
								c-0.01-0.02-0.012-0.049-0.01-0.07c0.045-0.032,0.094-0.044,0.135-0.074C18.296,0.052,18.32,0.023,18.341-0.008L18.341-0.008
								z"/>
							<path fill="#FEFEFE" d="M19.171,0.678c0.197-0.005,0.395-0.008,0.591-0.015c0.068-0.007,0.142,0.013,0.197,0.051
								c0.071,0.048,0.09,0.142,0.109,0.22C20,0.938,19.927,0.945,19.854,0.949c-0.12-0.007-0.247-0.022-0.359-0.07
								c-0.103-0.042-0.208-0.085-0.314-0.122C19.178,0.728,19.178,0.704,19.171,0.678L19.171,0.678z"/>
						</g>
					</g>
				</g>
			</g>
		</g>
	</g>
</g>
</svg>
