<?xml version="1.0" encoding="utf-8"?>
<!-- Generator: Adobe Illustrator 16.0.0, SVG Export Plug-In . SVG Version: 6.00 Build 0)  -->
<!DOCTYPE svg PUBLIC "-//W3C//DTD SVG 1.0//EN" "http://www.w3.org/TR/2001/REC-SVG-20010904/DTD/svg10.dtd">
<svg version="1.0" id="Layer_1" xmlns="http://www.w3.org/2000/svg" xmlns:xlink="http://www.w3.org/1999/xlink" x="0px" y="0px"
	 width="24px" height="24px" viewBox="0 0 24 24" enable-background="new 0 0 24 24" xml:space="preserve">
<g>
	<g>
		<path fill="#00209F" d="M12,24c4.843,0,9.012-2.869,10.908-7H1.091C2.987,21.131,7.158,24,12,24z"/>
		<path fill="#D61517" d="M12,0C7.158,0,2.987,2.87,1.091,7h21.817C21.012,2.87,16.843,0,12,0z"/>
		<path fill="#FFFFFF" d="M0,12c0,1.785,0.392,3.477,1.091,5h21.817C23.606,15.477,24,13.785,24,12s-0.394-3.477-1.092-5H1.091
			C0.392,8.523,0,10.215,0,12z"/>
		<g>
			<g>
				<path fill="#D61516" d="M11.996,18.455h-0.012c-0.769-0.037-1.545-0.209-2.135-0.474l0,0c-0.745-0.333-1.418-0.819-1.952-1.409
					l0,0c-0.324-0.361-0.594-0.754-0.798-1.168l0,0c-0.23-0.469-0.378-0.974-0.441-1.502l0,0c-0.012-0.104-0.015-0.248-0.015-0.357
					l0,0c0-0.07,0.001-0.127,0.002-0.141l0,0l0-6.104V6.997H6.95H12h5.05h0.227v0.076H17.2h0.076V6.997h0.076v0.304v6.102
					c0.001,0.016,0.004,0.072,0.002,0.143l0,0c0,0.109-0.002,0.254-0.014,0.357l0,0c-0.062,0.528-0.211,1.033-0.441,1.502l0,0
					c-0.204,0.414-0.474,0.807-0.797,1.168l0,0c-0.533,0.59-1.207,1.076-1.952,1.409l0,0c-0.591,0.265-1.366,0.437-2.136,0.474l0,0
					L12,18.456L11.996,18.455L11.996,18.455z M6.798,7.301v6.104c0,0.016-0.001,0.07-0.001,0.14l0,0c0,0.105,0.001,0.248,0.013,0.34
					l0,0c0.062,0.512,0.204,0.999,0.427,1.451l0,0c0.198,0.401,0.458,0.784,0.775,1.135l0,0c0.517,0.572,1.174,1.049,1.901,1.373
					l0,0c0.566,0.253,1.329,0.424,2.079,0.461l0,0H12h0.007c0.753-0.037,1.514-0.208,2.081-0.461l0,0
					c0.726-0.324,1.384-0.801,1.901-1.373l0,0c0.314-0.351,0.576-0.733,0.775-1.135l0,0c0.221-0.452,0.363-0.939,0.426-1.451l0,0
					c0.01-0.092,0.014-0.234,0.014-0.34l0,0c0-0.069-0.002-0.124-0.002-0.141l0,0V7.301L17.2,7.148h-0.15H12H6.95H6.798V7.301
					L6.798,7.301z"/>
				<path fill="#D61516" d="M12,18.267h-0.006c-0.747-0.037-1.501-0.204-2.067-0.456c-0.721-0.323-1.374-0.795-1.889-1.364
					c-0.312-0.349-0.572-0.728-0.768-1.126c-0.221-0.449-0.364-0.933-0.423-1.439c-0.02-0.159-0.013-0.465-0.013-0.477l0.002-6.104
					V7.187H6.95H12h5.05h0.113v0.114l0.002,6.105c0,0.01,0.006,0.315-0.012,0.475c-0.061,0.507-0.203,0.99-0.425,1.439
					c-0.194,0.398-0.454,0.777-0.769,1.126c-0.514,0.569-1.166,1.041-1.887,1.364c-0.566,0.252-1.32,0.419-2.067,0.456H12L12,18.267
					z"/>
				<g>
					<rect x="12.998" y="7.386" fill="#FFFFFF" width="1.997" height="2.133"/>
					<rect x="11.002" y="9.519" fill="#FFFFFF" width="1.996" height="2.14"/>
					<rect x="14.994" y="9.519" fill="#FFFFFF" width="1.972" height="2.14"/>
					<rect x="7.034" y="9.519" fill="#FFFFFF" width="1.972" height="2.14"/>
					<rect x="11.002" y="13.795" fill="#FFFFFF" width="1.996" height="2.139"/>
					<path fill="#FFFFFF" d="M14.994,15.934h1.128c0.166-0.223,0.311-0.459,0.43-0.702c0.211-0.427,0.346-0.89,0.404-1.374
						c0.002-0.018,0.004-0.04,0.004-0.062h-1.966V15.934z"/>
					<path fill="#FFFFFF" d="M9.006,13.795H7.039c0.001,0.022,0.002,0.045,0.005,0.062c0.056,0.484,0.193,0.947,0.403,1.374
						c0.121,0.243,0.265,0.479,0.431,0.702h1.128V13.795z"/>
					<rect x="9.006" y="7.386" fill="#FFFFFF" width="1.996" height="2.133"/>
					<rect x="12.998" y="11.658" fill="#FFFFFF" width="1.997" height="2.137"/>
					<rect x="9.006" y="11.658" fill="#FFFFFF" width="1.996" height="2.137"/>
					<path fill="#FFFFFF" d="M12.998,15.934v2.006c0.365-0.076,0.705-0.181,0.995-0.311c0.354-0.16,0.69-0.354,1.002-0.58v-1.115
						H12.998z"/>
					<path fill="#FFFFFF" d="M9.006,15.934v1.115c0.311,0.226,0.647,0.42,1,0.58c0.29,0.13,0.631,0.234,0.995,0.311v-2.006H9.006z"
						/>
				</g>
				<path fill="#FFFFFF" d="M17.05,7.301l0.001,6.105c0,0,0.008,0.309-0.011,0.461c-0.059,0.486-0.195,0.963-0.412,1.403
					c-0.196,0.398-0.453,0.769-0.751,1.098c-0.515,0.569-1.15,1.024-1.851,1.337c-0.605,0.271-1.362,0.414-2.026,0.448
					c-0.666-0.034-1.421-0.177-2.027-0.448c-0.7-0.312-1.337-0.768-1.849-1.337c-0.298-0.329-0.555-0.699-0.751-1.098
					c-0.216-0.44-0.355-0.917-0.412-1.403c-0.019-0.152-0.01-0.461-0.01-0.461l0-6.105H12H17.05z M17.276,7.073H17.05H12H6.95H6.722
					v0.228l0,6.104c0,0.043-0.007,0.329,0.013,0.49c0.062,0.52,0.207,1.017,0.434,1.477c0.201,0.406,0.465,0.795,0.786,1.15
					c0.524,0.58,1.189,1.062,1.927,1.391c0.578,0.261,1.347,0.43,2.107,0.469H12h0.012c0.761-0.039,1.528-0.208,2.106-0.469
					c0.736-0.328,1.402-0.811,1.926-1.391c0.322-0.355,0.587-0.744,0.787-1.15c0.228-0.46,0.373-0.957,0.435-1.477
					c0.019-0.161,0.013-0.447,0.013-0.49l-0.002-6.104V7.073L17.276,7.073z"/>
			</g>
			<g>
				<g>
					<path fill="#D61517" d="M17.694,2.399l-0.035,0.015c-0.001,0-0.104,0.042-0.261,0.106c-0.233,0.097-0.586,0.241-0.88,0.36
						c-0.146,0.061-0.281,0.115-0.377,0.153c-0.049,0.02-0.088,0.035-0.115,0.046c-0.008,0.003-0.012,0.004-0.018,0.007
						l-0.001-0.001c-0.08-0.083-0.368-0.396-0.636-0.689c-0.134-0.146-0.262-0.287-0.357-0.392C14.967,1.953,14.928,1.91,14.9,1.88
						c-0.013-0.016-0.024-0.027-0.032-0.034c-0.002-0.005-0.006-0.008-0.008-0.009c0-0.002-0.001-0.003-0.002-0.003l0,0l0,0l0,0
						l-0.024-0.028L13.34,2.709l-1.402-1.073l-1.319,1.057L9.078,1.802L7.956,3.136L6.271,2.414L5.342,4.079l1.352,2.718
						l0.038-0.014c1.627-0.578,3.433-0.891,5.196-0.896c0.014,0,0.027,0,0.042,0c1.75,0,3.535,0.276,5.297,0.909l0.037,0.014
						l1.354-2.733L17.694,2.399z"/>
					<path id="_x3C_Path_x3E__541_" fill="#FFFFFF" d="M6.716,6.742c1.633-0.581,3.443-0.894,5.211-0.898
						c1.769-0.004,3.572,0.273,5.354,0.912l1.327-2.677l-0.933-1.624c0,0-1.664,0.683-1.678,0.683c-0.015,0-1.173-1.275-1.173-1.275
						l-1.487,0.899l-1.4-1.069l-1.314,1.054L9.088,1.858l-1.12,1.331L6.291,2.471L5.392,4.08L6.716,6.742z"/>
					<g>
						<g>
							<path fill="#393E90" d="M14.796,2.092L14.796,2.092c0.379,0.413,0.758,0.825,1.135,1.237v0.006l-0.002,0.001
								c-0.016,0.047-0.027,0.096-0.041,0.144C15.646,4.32,15.404,5.16,15.165,6c-0.253-0.052-0.506-0.103-0.76-0.144
								c-0.441-0.072-0.887-0.113-1.331-0.148V5.703c0.084-0.923,0.166-1.847,0.248-2.77C13.815,2.653,14.306,2.371,14.796,2.092
								L14.796,2.092z"/>
							<path fill="#D61516" d="M14.149,3.405C14.2,3.398,14.252,3.398,14.303,3.4c0.019,0,0.038,0.002,0.056,0.006
								c0.025,0.006,0.045,0.025,0.072,0.03c0.02,0.001,0.038,0.001,0.057,0.006c0.046,0.008,0.088,0.029,0.132,0.043
								c0.036,0.014,0.073,0.021,0.112,0.021c0.049,0.005,0.1,0.004,0.144-0.019c0.017-0.007,0.032-0.018,0.05-0.025
								c0.019-0.003,0.037,0.001,0.059,0.001c0,0.014,0,0.026,0,0.038c-0.041,0.03-0.076,0.069-0.125,0.085
								c-0.033,0.011-0.065,0.026-0.1,0.032c-0.043,0.009-0.088,0.008-0.132,0.008c-0.026,0-0.052-0.003-0.079-0.005
								c0.004,0.008,0.006,0.015,0.01,0.021c0.038,0.012,0.076,0.024,0.111,0.042c0.037,0.017,0.074,0.036,0.113,0.048
								c0.04,0.013,0.083,0.014,0.125,0.017c0.067,0.002,0.134-0.002,0.199-0.017c0.016-0.004,0.031-0.012,0.049-0.012
								c0.016,0,0.033,0,0.051,0.002c-0.002,0.01-0.002,0.021-0.002,0.032c-0.07,0.037-0.14,0.078-0.217,0.101
								c-0.071,0.021-0.146,0.021-0.219,0.018c-0.094-0.007-0.188-0.025-0.281-0.049c-0.037-0.011-0.071-0.031-0.105-0.047
								c-0.051-0.026-0.108-0.042-0.165-0.048c-0.042-0.004-0.087-0.003-0.122,0.024c-0.098-0.065-0.195-0.131-0.292-0.196
								c0.034-0.033,0.066-0.07,0.11-0.093C13.985,3.427,14.068,3.415,14.149,3.405L14.149,3.405z"/>
							<path fill="#8E3836" d="M14.153,3.415c0.013,0,0.023-0.003,0.034-0.003c0.005,0.03,0.022,0.059,0.022,0.09
								c0,0.023,0,0.045-0.001,0.067C14.203,3.566,14.2,3.561,14.2,3.555c-0.004-0.026-0.008-0.053-0.016-0.075
								C14.179,3.457,14.164,3.438,14.153,3.415L14.153,3.415z"/>
							<path fill="#8E3836" d="M14.403,3.578c-0.006-0.05-0.01-0.101-0.013-0.151c0.012,0.004,0.022,0.009,0.034,0.011
								c-0.004,0.036-0.008,0.071-0.011,0.105C14.412,3.556,14.412,3.569,14.403,3.578L14.403,3.578z"/>
							<path fill="#8E3836" d="M13.855,3.516c0.017-0.012,0.034-0.023,0.05-0.036c0.025,0.018,0.054,0.035,0.073,0.061
								c0.01,0.012,0.012,0.027,0.014,0.042c-0.02-0.013-0.036-0.029-0.057-0.039C13.91,3.53,13.882,3.525,13.855,3.516
								L13.855,3.516z"/>
							<path fill="#8E3836" d="M14.589,3.511c0.014-0.002,0.027,0.005,0.03,0.02c0.009,0.03,0.003,0.062,0.009,0.094
								c-0.004-0.002-0.012-0.002-0.015-0.003C14.599,3.587,14.596,3.547,14.589,3.511L14.589,3.511z"/>
							<path fill="#8E3836" d="M14.791,3.528c0.009,0,0.019,0,0.026-0.001c0,0.019,0,0.039-0.001,0.059
								c-0.011,0.002-0.021,0.006-0.033,0.008C14.785,3.572,14.788,3.55,14.791,3.528L14.791,3.528z"/>
							<path fill="#544B20" d="M13.452,3.606c0.004-0.02,0.019-0.034,0.032-0.048c0.062,0.031,0.122,0.063,0.185,0.094
								c0.014-0.011,0.025-0.027,0.039-0.039c0.023-0.021,0.053-0.038,0.082-0.046c0.1,0.064,0.197,0.129,0.294,0.195
								c0.007,0.006,0.016,0.006,0.024,0.006c0.066-0.002,0.135-0.006,0.203-0.007c-0.018,0.04-0.039,0.076-0.071,0.105
								c-0.053,0.05-0.124,0.072-0.19,0.093c0.035,0.063,0.078,0.128,0.136,0.178c0.015,0.013,0.029,0.026,0.048,0.033
								c0.02,0.003,0.038,0.011,0.059,0.013c0.035,0.002,0.072,0.002,0.107,0.01c0.016,0.004,0.031,0.014,0.049,0.016
								c0.016-0.002,0.029-0.014,0.046-0.017c0.03-0.007,0.062-0.011,0.095-0.014c0.014-0.001,0.028,0,0.045,0.002
								c0.026,0.005,0.057,0.001,0.082-0.012c0.016-0.008,0.032-0.022,0.053-0.021c0.021,0,0.045-0.005,0.065,0.004
								c0.019,0.009,0.038,0.014,0.06,0.012c0.027,0,0.053-0.014,0.081-0.014c0.029,0.002,0.06-0.001,0.091,0.002
								c0.028,0.006,0.056,0.012,0.084,0.011c0.023-0.003,0.048-0.005,0.066-0.021c0.025-0.019,0.049-0.034,0.072-0.055
								c0.013-0.013,0.026-0.026,0.047-0.028c0.015,0,0.024,0.016,0.031,0.028c0.013,0.021,0.012,0.046,0.012,0.069
								c0,0.032,0,0.065,0.001,0.1c0.004,0.04-0.039,0.063-0.045,0.1c0.003,0.014,0.015,0.024,0.02,0.037
								c0.003,0.02-0.001,0.04-0.004,0.06c0,0.014-0.007,0.023-0.015,0.034c-0.021,0.029-0.044,0.056-0.062,0.087
								c-0.01,0.016-0.018,0.032-0.02,0.051c-0.004,0.041-0.012,0.083-0.006,0.126c0.002,0.014,0.009,0.027,0.016,0.038
								c-0.006,0.014-0.018,0.025-0.027,0.034c-0.004,0.035-0.008,0.069-0.001,0.103c0.001,0.015,0.021,0.015,0.028,0.024
								c0.003,0.034,0,0.07-0.002,0.105c0,0.01-0.01,0.017-0.018,0.021c-0.05,0.04-0.102,0.079-0.139,0.132
								c-0.009,0.013-0.02,0.026-0.02,0.043c-0.002,0.028-0.004,0.059-0.004,0.088c-0.031,0.025-0.063,0.049-0.094,0.073
								c-0.051-0.02-0.1-0.036-0.152-0.057c0.008-0.013,0.015-0.025,0.021-0.038c0.026-0.04,0.053-0.081,0.078-0.12
								c0.012-0.018,0.015-0.038,0.018-0.058c0.008-0.045,0.008-0.091,0.004-0.135c0-0.009-0.003-0.019-0.008-0.025
								c-0.021-0.032-0.057-0.055-0.093-0.062c-0.045,0.051-0.09,0.1-0.142,0.144c-0.011,0.011-0.023,0.018-0.033,0.029
								c-0.012,0.023-0.009,0.053-0.027,0.075c-0.018,0.021-0.044,0.028-0.067,0.036c-0.009,0.021-0.017,0.041-0.023,0.062
								c-0.05-0.013-0.101-0.023-0.15-0.037c0.009-0.017,0.022-0.03,0.034-0.046c0.01-0.015,0.01-0.032,0.01-0.05
								c0.002-0.015,0.012-0.026,0.019-0.038c0.034-0.056,0.069-0.112,0.104-0.168c-0.032,0.004-0.067,0.012-0.103,0.007
								c-0.02-0.003-0.029-0.019-0.04-0.032c-0.025,0.018-0.052,0.04-0.085,0.032c-0.016-0.001-0.025-0.014-0.033-0.023
								c-0.017,0.017-0.035,0.031-0.058,0.035c-0.02,0.004-0.04,0-0.06,0.002c-0.007,0.051-0.039,0.093-0.07,0.131
								c-0.023,0.027-0.047,0.054-0.062,0.086c-0.014,0.026-0.01,0.056-0.013,0.084c-0.005,0.041-0.005,0.084-0.009,0.124
								c-0.011,0.016-0.031,0.021-0.047,0.034c-0.012,0.008-0.022,0.021-0.033,0.034c0,0-0.005-0.001-0.006-0.001
								c-0.012-0.003-0.023-0.005-0.035-0.007c-0.037-0.012-0.078-0.022-0.115-0.033c0.008-0.044,0.02-0.092,0.049-0.128
								c0.014-0.017,0.031-0.033,0.029-0.057c0.002-0.056,0-0.111,0.002-0.168c0.001-0.054,0.032-0.102,0.051-0.151
								c-0.019-0.01-0.037-0.023-0.057-0.027c-0.028-0.006-0.056,0.006-0.08,0.018c-0.01,0.005-0.02,0.009-0.024,0.018
								c-0.03,0.065-0.073,0.125-0.114,0.186c-0.006,0.009-0.003,0.019-0.003,0.029c0.001,0.026,0,0.057-0.017,0.08
								c-0.01,0.014-0.019,0.026-0.026,0.04c-0.058-0.014-0.116-0.028-0.172-0.043c0.003-0.031,0.015-0.06,0.028-0.088
								c0.016-0.033,0.045-0.057,0.064-0.088c0.023-0.041,0.037-0.092,0.081-0.116c0.003-0.031,0.001-0.062,0.006-0.094
								c0.001-0.019,0.014-0.034,0.011-0.054c-0.01-0.046-0.019-0.095-0.002-0.14c-0.014,0-0.029,0.004-0.041-0.006
								c-0.014-0.011-0.02-0.034-0.011-0.051c0.006-0.016,0.018-0.028,0.029-0.042c-0.015-0.001-0.034-0.006-0.038-0.023
								c-0.006-0.026,0.01-0.054,0.025-0.072c0.045-0.048,0.094-0.091,0.139-0.138c-0.022,0-0.046-0.001-0.064-0.016
								c-0.004-0.003-0.003-0.011-0.002-0.017c0.003-0.012,0.01-0.021,0.017-0.033c-0.015-0.004-0.036-0.005-0.04-0.024
								c-0.006-0.022,0.007-0.045,0.013-0.067c-0.054,0.003-0.108,0.015-0.162,0.011c-0.019,0-0.038-0.016-0.042-0.036
								c-0.005-0.029-0.003-0.061,0.013-0.086c0.017-0.034,0.036-0.066,0.052-0.102c0.018-0.042,0.034-0.085,0.043-0.13
								c-0.036-0.027-0.07-0.06-0.098-0.098C13.452,3.663,13.443,3.632,13.452,3.606L13.452,3.606z"/>
							<path fill="#F9F704" d="M13.458,3.617c0.002-0.02,0.015-0.035,0.027-0.048c0.062,0.031,0.123,0.062,0.186,0.094
								c0.029-0.029,0.055-0.062,0.094-0.076c0.01-0.005,0.021-0.013,0.031-0.006c0.099,0.064,0.196,0.13,0.295,0.197
								c0.068-0.004,0.138-0.006,0.207-0.008c-0.018,0.037-0.041,0.074-0.075,0.101c-0.054,0.044-0.12,0.063-0.185,0.083
								c0.043,0.08,0.096,0.16,0.173,0.215c0.021,0.01,0.044,0.017,0.067,0.021c0.041,0.003,0.086,0.001,0.127,0.015
								c0.018,0.006,0.039,0.02,0.058,0.01c0.04-0.021,0.087-0.021,0.13-0.026c0.023-0.002,0.047,0.006,0.072,0.003
								c0.02-0.001,0.041-0.005,0.059-0.017c0.014-0.006,0.027-0.019,0.045-0.019c0.021,0,0.041-0.003,0.062,0.006
								c0.022,0.01,0.049,0.013,0.074,0.01c0.022,0,0.045-0.013,0.068-0.011c0.029,0,0.058-0.002,0.088,0
								c0.032,0.006,0.066,0.014,0.098,0.011c0.021-0.005,0.044-0.007,0.062-0.021c0.027-0.022,0.058-0.04,0.083-0.065
								c0.009-0.007,0.021-0.017,0.033-0.017c0.017,0.008,0.025,0.025,0.029,0.042c0.006,0.031,0.002,0.062,0.005,0.091
								c-0.002,0.023,0.001,0.048-0.001,0.072c-0.012,0.026-0.033,0.046-0.043,0.073c-0.008,0.019,0.01,0.035,0.02,0.051
								c-0.003,0.024,0,0.048-0.008,0.07c-0.03,0.05-0.078,0.092-0.092,0.149c-0.006,0.043-0.012,0.089-0.009,0.133
								c0.003,0.016,0.009,0.029,0.015,0.043c-0.008,0.009-0.018,0.018-0.025,0.027c-0.006,0.027-0.006,0.055-0.006,0.083
								c0.001,0.013,0.001,0.026,0.01,0.037c0.006,0.007,0.017,0.01,0.025,0.015c0,0.035-0.004,0.07-0.005,0.106
								c-0.054,0.042-0.11,0.083-0.15,0.138c-0.01,0.014-0.021,0.027-0.024,0.041c-0.002,0.031-0.003,0.063-0.004,0.096
								c-0.029,0.021-0.059,0.045-0.088,0.068c-0.046-0.017-0.092-0.034-0.139-0.05c0.006-0.011,0.012-0.021,0.018-0.032
								c0.026-0.04,0.051-0.079,0.077-0.119c0.011-0.017,0.015-0.036,0.019-0.056c0.007-0.047,0.007-0.097,0.005-0.146
								c0-0.012-0.007-0.021-0.015-0.031c-0.022-0.032-0.06-0.055-0.098-0.062c-0.043,0.051-0.092,0.101-0.143,0.146
								c-0.012,0.01-0.025,0.019-0.037,0.031c-0.011,0.024-0.008,0.055-0.026,0.077c-0.019,0.018-0.044,0.023-0.068,0.034
								c-0.007,0.02-0.014,0.039-0.022,0.057c-0.043-0.011-0.088-0.021-0.133-0.032c0.016-0.018,0.035-0.034,0.039-0.058
								c0.004-0.016,0-0.035,0.01-0.05c0.041-0.066,0.082-0.134,0.125-0.202c-0.032,0.007-0.066,0.014-0.1,0.014
								c-0.013,0-0.027,0-0.038-0.008c-0.009-0.01-0.013-0.02-0.021-0.028c-0.028,0.016-0.057,0.045-0.092,0.034
								c-0.015-0.003-0.021-0.019-0.025-0.03c-0.018,0.018-0.036,0.038-0.062,0.042c-0.021,0.004-0.044,0.002-0.067,0.002
								c-0.001,0.056-0.04,0.099-0.073,0.14C14.091,5.11,14.06,5.146,14.05,5.189c-0.004,0.059-0.008,0.119-0.011,0.18
								C14.021,5.383,14,5.392,13.984,5.406c-0.008,0.007-0.015,0.016-0.022,0.025c-0.047-0.014-0.096-0.025-0.144-0.039
								c0.007-0.036,0.017-0.074,0.038-0.106c0.012-0.016,0.025-0.029,0.034-0.047c0.007-0.013,0.006-0.026,0.006-0.041
								c0-0.05,0-0.102,0.001-0.151c0.002-0.057,0.037-0.104,0.052-0.154c-0.024-0.014-0.048-0.034-0.077-0.034
								c-0.035-0.002-0.066,0.016-0.097,0.031c-0.032,0.071-0.079,0.136-0.124,0.203c0.004,0.028,0.005,0.056-0.004,0.082
								c-0.008,0.02-0.023,0.034-0.033,0.053c-0.054-0.014-0.105-0.025-0.16-0.04c0.008-0.032,0.02-0.063,0.039-0.092
								c0.016-0.026,0.041-0.049,0.057-0.078c0.016-0.025,0.025-0.056,0.043-0.078c0.01-0.014,0.022-0.021,0.035-0.031
								c0.006-0.035,0-0.071,0.01-0.107c0.002-0.014,0.012-0.026,0.008-0.041c-0.005-0.032-0.012-0.063-0.012-0.097
								c0-0.021,0.008-0.042,0.016-0.062c-0.014,0.005-0.031,0.011-0.047,0.005c-0.013-0.01-0.018-0.03-0.012-0.045
								c0.011-0.021,0.027-0.036,0.043-0.053c-0.013,0-0.027,0.001-0.038-0.003c-0.011-0.005-0.017-0.018-0.015-0.028
								c0.004-0.023,0.019-0.041,0.034-0.058c0.047-0.051,0.101-0.095,0.144-0.146c-0.025,0.003-0.056,0.007-0.078-0.011
								c-0.002-0.02,0.016-0.036,0.022-0.052c-0.017-0.003-0.045,0-0.048-0.023c0-0.023,0.012-0.046,0.018-0.067
								c-0.058-0.002-0.114,0.015-0.173,0.008c-0.017,0-0.029-0.011-0.033-0.027c-0.005-0.022-0.005-0.047,0.004-0.068
								c0.016-0.035,0.036-0.064,0.052-0.1c0.023-0.049,0.042-0.099,0.053-0.152c-0.035-0.026-0.068-0.058-0.098-0.093
								C13.464,3.668,13.452,3.642,13.458,3.617L13.458,3.617z"/>
							<path fill="#8E3836" d="M14.313,3.574c0.025,0.02,0.043,0.048,0.053,0.079c0.006,0.031-0.01,0.06-0.034,0.079
								c0.003-0.021,0.007-0.045,0.005-0.064C14.335,3.634,14.321,3.604,14.313,3.574L14.313,3.574z"/>
							<path fill="#8E3836" d="M14.038,3.587c0.033,0.005,0.061,0.028,0.076,0.057c0.01,0.023,0.01,0.046,0.014,0.067
								c-0.01,0.008-0.018,0.014-0.026,0.02c0-0.034-0.017-0.062-0.03-0.091C14.063,3.619,14.05,3.604,14.038,3.587L14.038,3.587z"
								/>
							<path fill="#8E3836" d="M14.575,3.653c0.004,0.002,0.01,0.004,0.012,0.01c0.01,0.024,0.018,0.05,0.016,0.078
								c0,0.014-0.012,0.023-0.021,0.031c-0.014,0.009-0.028,0.02-0.044,0.026c-0.003-0.007,0.003-0.011,0.009-0.016
								C14.583,3.752,14.582,3.696,14.575,3.653L14.575,3.653z"/>
							<path fill="#8E3836" d="M14.766,3.736c0.013,0.003,0.03,0.003,0.04,0.012c0.02,0.019,0.031,0.044,0.029,0.068
								c-0.001,0.018-0.01,0.034-0.018,0.049c-0.013-0.001-0.024-0.001-0.037-0.004c0.01-0.02,0.027-0.042,0.02-0.067
								C14.792,3.773,14.775,3.756,14.766,3.736L14.766,3.736z"/>
							<path fill="#8E3836" d="M14.968,3.753c0.011-0.001,0.022-0.001,0.033-0.001c0.001,0.026,0.002,0.053,0.005,0.078
								c-0.009,0.006-0.021,0.012-0.03,0.016C14.974,3.814,14.972,3.783,14.968,3.753L14.968,3.753z"/>
							<path fill="#544B20" d="M14.048,3.823c0.059-0.012,0.119-0.019,0.18-0.019c-0.021,0.019-0.044,0.033-0.066,0.054
								c-0.015,0.011-0.033,0.016-0.049,0.028c-0.013,0.01-0.027,0.021-0.045,0.02c-0.032-0.003-0.061-0.02-0.086-0.037
								C13.989,3.84,14.021,3.831,14.048,3.823L14.048,3.823z"/>
							<path fill="#544B20" d="M13.707,3.851c0.036-0.005,0.071-0.027,0.108-0.027c0.031-0.002,0.057,0.025,0.091,0.027
								c-0.021,0.011-0.04,0.021-0.06,0.03c-0.012,0.007-0.021,0.019-0.033,0.02c-0.018,0-0.029-0.014-0.043-0.022
								C13.751,3.868,13.729,3.859,13.707,3.851L13.707,3.851z"/>
							<path fill="#544B20" d="M15.333,4.1c0,0,0.023,0.103-0.02,0.132c-0.018,0.014-0.047,0.021-0.061,0.009
								c-0.012-0.007-0.021-0.021-0.018-0.036C15.247,4.141,15.333,4.1,15.333,4.1z"/>
							<path fill="#544B20" d="M14.81,4.33c0.012-0.009,0.025,0,0.037,0.006c0.008,0.055,0.014,0.113,0.025,0.167
								c0,0.013,0.004,0.022,0.004,0.034c-0.001,0.012-0.023,0.012-0.023-0.002c-0.006-0.039-0.006-0.079-0.02-0.117
								C14.825,4.39,14.81,4.361,14.81,4.33L14.81,4.33z"/>
							<path fill="#544B20" d="M13.786,4.336c0.011-0.009,0.024,0,0.035,0.007c0.008,0.056,0.016,0.11,0.025,0.166
								c0.003,0.012,0.006,0.022,0.006,0.034c-0.002,0.012-0.023,0.012-0.023-0.001c-0.006-0.04-0.008-0.08-0.021-0.118
								C13.802,4.396,13.784,4.367,13.786,4.336L13.786,4.336z"/>
							<path fill="#544B20" d="M13.95,4.706c0.01-0.009,0.025,0,0.035,0.007c0.009,0.054,0.016,0.11,0.024,0.166
								c0.003,0.011,0.007,0.021,0.007,0.032c-0.002,0.012-0.023,0.012-0.023,0c-0.006-0.04-0.008-0.08-0.021-0.118
								C13.966,4.765,13.949,4.737,13.95,4.706L13.95,4.706z"/>
							<path fill="#544B20" d="M14.922,4.675c0.011-0.009,0.024,0,0.034,0.006c0.009,0.056,0.016,0.112,0.025,0.169
								c0.003,0.01,0.006,0.02,0.006,0.031c0,0.013-0.022,0.013-0.022-0.001c-0.005-0.037-0.009-0.079-0.021-0.115
								C14.937,4.734,14.921,4.706,14.922,4.675L14.922,4.675z"/>
							<path fill="#544B20" d="M14.144,4.378c0.006-0.005,0.013-0.001,0.021,0c0.015,0.038,0.027,0.078,0.046,0.116
								c0.005,0.014,0.016,0.026,0.012,0.043c-0.01,0.013-0.027,0.006-0.041,0.006c-0.015-0.046-0.021-0.094-0.035-0.142
								C14.144,4.393,14.14,4.385,14.144,4.378L14.144,4.378z"/>
							<path fill="#544B20" d="M14.593,4.294c0.007-0.005,0.014-0.002,0.021,0c0.014,0.038,0.027,0.078,0.045,0.114
								c0.006,0.016,0.016,0.028,0.012,0.045c-0.009,0.012-0.027,0.006-0.04,0.006c-0.015-0.046-0.022-0.095-0.035-0.142
								C14.594,4.311,14.591,4.301,14.593,4.294L14.593,4.294z"/>
							<path fill="#544B20" d="M14.368,4.32c0.006-0.003,0.013,0,0.02,0c0.016,0.04,0.027,0.08,0.047,0.116
								C14.44,4.45,14.45,4.465,14.446,4.48c-0.01,0.013-0.027,0.007-0.041,0.007c-0.016-0.048-0.021-0.097-0.034-0.144
								C14.368,4.336,14.365,4.327,14.368,4.32L14.368,4.32z"/>
							<path fill="#544B20" d="M14.997,4.436c-0.003-0.009-0.006-0.018-0.002-0.027c0.012,0.02,0.018,0.041,0.025,0.061
								c0.014,0.033,0.029,0.065,0.05,0.093c0.028,0.04,0.065,0.071,0.103,0.102c0.006,0.006,0.009,0.012,0.014,0.018
								c-0.032,0.005-0.064-0.004-0.096,0.003c-0.012,0.006-0.02,0.017-0.031,0.024c-0.008-0.04-0.012-0.083-0.02-0.123
								C15.031,4.533,15.015,4.483,14.997,4.436L14.997,4.436z"/>
							<path fill="#544B20" d="M14.589,4.487c0.002,0,0.005,0,0.006,0c0.01,0.062,0.006,0.125-0.014,0.188
								c-0.008,0.027-0.02,0.053-0.035,0.077c-0.006-0.008-0.008-0.014-0.006-0.021c0.006-0.032,0.016-0.063,0.022-0.098
								C14.573,4.586,14.577,4.535,14.589,4.487L14.589,4.487z"/>
							<path fill="#544B20" d="M14.341,4.549c0,0,0.004,0,0.006,0c0.01,0.062,0.004,0.128-0.014,0.188
								c-0.01,0.027-0.021,0.055-0.037,0.078c-0.004-0.007-0.005-0.013-0.004-0.021c0.004-0.032,0.016-0.065,0.021-0.098
								C14.323,4.649,14.329,4.599,14.341,4.549L14.341,4.549z"/>
							<path fill="#D61516" d="M13.441,5.206c0.057,0.011,0.112,0.024,0.169,0.036c-0.001,0.02,0.002,0.039,0,0.06
								c-0.008,0.021-0.02,0.042-0.039,0.053c-0.018,0.009-0.037,0.015-0.056,0.015c-0.048,0-0.096,0.003-0.145,0.003
								c-0.002-0.026-0.002-0.054-0.006-0.078C13.392,5.265,13.416,5.235,13.441,5.206L13.441,5.206z"/>
							<path fill="#D61516" d="M14.334,5.312c0.024-0.024,0.048-0.05,0.072-0.073c0.05,0.014,0.103,0.023,0.153,0.037
								c-0.004,0.021-0.002,0.042-0.012,0.061c-0.007,0.01-0.011,0.023-0.021,0.032c-0.018,0.009-0.039,0.014-0.06,0.012
								c-0.044-0.003-0.087-0.004-0.131-0.006C14.335,5.354,14.332,5.334,14.334,5.312L14.334,5.312z"/>
							<path fill="#D61516" d="M14.741,5.443c0.03-0.023,0.057-0.05,0.087-0.072c0.05,0.018,0.101,0.035,0.15,0.051
								c-0.001,0.017-0.001,0.03-0.003,0.045c-0.01,0.04-0.047,0.067-0.088,0.064c-0.047-0.005-0.097-0.008-0.146-0.013
								C14.741,5.493,14.741,5.468,14.741,5.443L14.741,5.443z"/>
							<path fill="#D61516" d="M13.737,5.472c0.021-0.021,0.042-0.04,0.064-0.061c0.041,0.006,0.082,0.013,0.123,0.021
								c0.012,0.002,0.023,0.004,0.035,0.007c0,0.031-0.01,0.063-0.033,0.085c-0.015,0.01-0.035,0.014-0.054,0.018
								c-0.045,0.002-0.091,0.002-0.136,0.002C13.737,5.52,13.737,5.494,13.737,5.472L13.737,5.472z"/>
						</g>
						<g>
							<path fill="#393E90" d="M9.131,2.075h0.002C9.2,2.115,9.268,2.151,9.335,2.191c0.424,0.242,0.85,0.485,1.274,0.727
								c0.006,0.005,0.014,0.007,0.02,0.014c-0.352,0-0.704,0.003-1.054,0.036C9.4,2.986,9.227,3.01,9.056,3.045
								C8.712,3.117,8.278,3.28,8.046,3.387C8.046,3.387,8.772,2.509,9.131,2.075L9.131,2.075z"/>
							<path fill="#D61516" d="M9.558,2.968c0.351-0.033,0.703-0.036,1.055-0.036c0.006,0,0.011,0,0.016,0
								c0.02,0.23,0.041,0.464,0.058,0.695c-0.045,0.003-0.089,0-0.134,0.001c-0.081,0.002-0.162,0.002-0.241,0.004
								c-0.178,0.005-0.356,0.017-0.534,0.035C9.585,3.686,9.392,3.71,9.2,3.741C8.996,3.774,8.791,3.814,8.591,3.874
								C8.463,3.912,8.335,3.96,8.21,4.006C8.169,3.855,8.129,3.702,8.087,3.55c0-0.006-0.002-0.012-0.002-0.02
								C8.072,3.483,8.06,3.436,8.046,3.387c0.315-0.152,0.649-0.27,0.994-0.342C9.21,3.01,9.384,2.986,9.558,2.968L9.558,2.968z"/>
							<path fill="#393E90" d="M10.312,3.632c0.079-0.002,0.16-0.002,0.241-0.004c0.044-0.001,0.089,0.002,0.134-0.001
								c0.002,0.036,0.006,0.072,0.009,0.109c0.019,0.183,0.034,0.369,0.051,0.553C10.309,4.265,9.865,4.266,9.43,4.333
								c-0.358,0.054-0.71,0.144-1.054,0.26c-0.004,0.006,0,0.013,0,0.019c0.043,0.17,0.09,0.337,0.134,0.506v0.007
								C8.506,5.112,8.503,5.1,8.5,5.088c-0.097-0.36-0.194-0.721-0.29-1.082C8.335,3.96,8.463,3.912,8.591,3.874
								c0.2-0.06,0.405-0.1,0.609-0.133C9.392,3.71,9.585,3.686,9.778,3.667C9.956,3.648,10.134,3.637,10.312,3.632L10.312,3.632z"
								/>
							<path fill="#D61516" d="M9.43,4.333c0.436-0.067,0.879-0.068,1.317-0.044c0.002,0,0.003,0.002,0.005,0.002
								c0.021,0.237,0.043,0.474,0.063,0.708l-0.003,0.003c-0.335,0.021-0.669,0.046-1.003,0.089
								c-0.417,0.053-0.832,0.128-1.241,0.23H8.566C8.549,5.257,8.531,5.194,8.515,5.129C8.513,5.127,8.51,5.124,8.51,5.124l0,0
								V5.117C8.466,4.948,8.419,4.781,8.375,4.611c0-0.006-0.004-0.013,0-0.019C8.72,4.477,9.072,4.387,9.43,4.333L9.43,4.333z"/>
							<path fill="#393E90" d="M9.81,5.091c0.334-0.043,0.668-0.068,1.003-0.089c0.021,0.234,0.043,0.468,0.065,0.703v0.011
								c-0.45,0.03-0.899,0.08-1.344,0.151C9.271,5.906,9.007,5.954,8.745,6C8.666,5.708,8.588,5.415,8.51,5.124
								c0,0,0.003,0.003,0.005,0.005c0.017,0.065,0.034,0.128,0.051,0.192h0.003C8.978,5.219,9.393,5.144,9.81,5.091L9.81,5.091z"/>
						</g>
						<g>
							<path fill="#3B75D9" d="M6.351,2.665h0.003C6.907,2.906,7.46,3.148,8.014,3.387C8.248,4.259,8.481,5.129,8.716,6v0.006
								C8.502,6.05,8.289,6.097,8.078,6.153C7.866,6.208,7.659,6.271,7.453,6.343c-0.237,0.082-0.471,0.171-0.705,0.26
								C6.347,5.758,5.95,4.912,5.549,4.067V4.065C5.816,3.599,6.084,3.131,6.351,2.665L6.351,2.665z"/>
							<path fill="#FFFFFF" d="M8.016,4.649C8.032,4.626,8.048,4.604,8.064,4.58c0.032,0.164,0.043,0.339-0.008,0.504
								c-0.038,0.125-0.115,0.237-0.21,0.325c-0.06,0.056-0.127,0.103-0.198,0.144c-0.036,0.021-0.072,0.035-0.11,0.051
								c-0.172,0.063-0.36,0.078-0.54,0.041c-0.139-0.028-0.274-0.09-0.383-0.182c-0.086-0.07-0.156-0.158-0.206-0.257
								C6.591,5.237,6.775,5.26,6.962,5.25c0.147-0.009,0.293-0.037,0.434-0.081c0.133-0.057,0.26-0.133,0.37-0.229
								C7.863,4.856,7.943,4.755,8.016,4.649L8.016,4.649z"/>
							<g>
								<polygon fill="#FEC502" points="7.168,3.457 7.122,3.762 7.396,3.98 7.087,4.105 7.017,4.408 6.779,4.231 6.478,4.368 
									6.515,4.04 6.219,3.83 6.553,3.687 6.592,3.364 6.873,3.567 								"/>
								<polygon fill="#FAFC12" points="7.161,3.466 7.112,3.76 6.812,3.895 								"/>
								<polygon fill="#FAFC12" points="6.6,3.385 6.837,3.566 6.812,3.895 								"/>
								<polygon fill="#FAFC12" points="6.5,4.354 6.771,4.222 6.812,3.895 								"/>
								<polygon fill="#FAFC12" points="6.261,3.843 6.506,4.016 6.812,3.895 								"/>
								<polygon fill="#FAFC12" points="7.372,3.978 7.078,4.097 7.008,4.387 6.812,3.895 								"/>
							</g>
						</g>
						<g>
							<path fill="#3B75D9" d="M11.94,1.915L11.94,1.915c0.449,0.34,0.897,0.681,1.345,1.021v0.017
								c-0.079,0.917-0.157,1.835-0.235,2.754h-0.044c-0.271-0.015-0.541-0.023-0.812-0.026c-0.428-0.004-0.857,0.01-1.286,0.026
								c-0.085-0.92-0.169-1.841-0.255-2.763V2.938C11.082,2.597,11.511,2.256,11.94,1.915L11.94,1.915z"/>
							<g>
								<g>
									<path fill="#544B20" d="M11.322,3.1c0.039,0.019,0.078,0.038,0.118,0.057c0,0.03,0,0.059,0.004,0.088
										c0.017,0,0.037,0,0.056,0c-0.006-0.022-0.016-0.045-0.015-0.068c0.001-0.007,0-0.014,0.003-0.018
										c0.026-0.014,0.061,0,0.083-0.022c0.011-0.011,0.023-0.019,0.036-0.029c0.026,0,0.051,0,0.077,0.002
										c0.003,0.016,0.006,0.034,0.01,0.05c-0.025,0.034-0.05,0.064-0.072,0.099c-0.003,0.026,0.002,0.053,0.001,0.079
										c0.021,0.011,0.043,0.02,0.063,0.028c0.007,0.044,0.016,0.086,0.022,0.131c0.035,0.033,0.066,0.065,0.101,0.098
										c0.003,0.024,0.003,0.049,0.009,0.074c0.007,0.019,0.026,0.029,0.033,0.051c0.008,0.021,0.012,0.044,0.018,0.065
										c-0.02,0-0.038-0.002-0.059-0.004c0.004,0.04,0.006,0.08,0.009,0.119c-0.023,0-0.046,0.001-0.069,0
										c-0.004,0.036-0.007,0.071-0.012,0.106c-0.042,0.001-0.084,0.001-0.126,0.004c-0.002,0.02-0.001,0.04-0.003,0.061
										c-0.009,0.019-0.023,0.036-0.035,0.055c-0.079,0.01-0.158,0.019-0.238,0.026c-0.03-0.001-0.057-0.02-0.087-0.021
										c-0.032,0-0.061,0-0.094-0.002c-0.001-0.013-0.001-0.027-0.005-0.039c-0.017-0.015-0.035-0.025-0.053-0.039
										c-0.013-0.009-0.024-0.021-0.041-0.023c-0.03-0.005-0.06-0.008-0.088-0.013c-0.005-0.028-0.01-0.057-0.016-0.083
										c-0.02-0.004-0.04-0.006-0.06-0.009c-0.006-0.021-0.012-0.041-0.02-0.062c-0.005-0.018-0.017-0.032-0.029-0.047
										c0.009-0.026,0.02-0.055,0.029-0.083c-0.014-0.012-0.027-0.024-0.042-0.037c0.024-0.04,0.047-0.084,0.069-0.125
										c0.028-0.006,0.058-0.012,0.085-0.018c-0.001-0.044,0-0.087-0.001-0.132c0.023-0.006,0.047-0.012,0.072-0.018
										c0.002-0.021,0.006-0.038,0.007-0.06c-0.029-0.038-0.06-0.076-0.088-0.116c-0.003-0.022,0-0.047,0-0.07
										c0.023,0.002,0.05,0,0.072,0.008c0.023,0.009,0.046,0.018,0.068,0.025c0.009,0.003,0.013,0.012,0.018,0.019
										c0.013,0.019,0.025,0.038,0.038,0.056c0.013-0.004,0.025-0.008,0.037-0.011c0.002-0.026,0.003-0.052,0.007-0.078
										C11.25,3.148,11.285,3.124,11.322,3.1L11.322,3.1z"/>
									<path fill="#F8F604" d="M11.31,3.128c0.004-0.003,0.009-0.005,0.013-0.009c0.005,0.002,0.009,0.005,0.014,0.006
										c0.003,0.018,0.006,0.037,0.007,0.055c0.026,0,0.052-0.002,0.079-0.002c0,0.016,0.001,0.034,0.002,0.052
										c-0.022-0.005-0.043-0.01-0.066-0.012c-0.005-0.012-0.012-0.021-0.018-0.031c-0.011,0-0.024,0-0.034,0.001
										c-0.003,0.011-0.006,0.021-0.009,0.031c-0.024,0.003-0.047,0.004-0.069,0.006c0-0.01,0-0.022,0.001-0.032
										c0.024-0.005,0.05-0.008,0.075-0.013C11.306,3.162,11.308,3.145,11.31,3.128L11.31,3.128z"/>
									<path fill="#F8F604" d="M11.519,3.242c0.05-0.038,0.1-0.076,0.15-0.115c0.002,0.009,0.004,0.016,0.005,0.027
										c-0.021,0.027-0.041,0.056-0.062,0.085c-0.003,0.005-0.01,0.012-0.009,0.021c0,0.024,0.002,0.052,0.003,0.078
										c-0.006,0.006-0.011,0.012-0.017,0.019c-0.027,0.002-0.053,0.008-0.08,0.002c-0.113-0.021-0.231-0.012-0.338,0.028
										c-0.018,0.006-0.034,0.019-0.055,0.014c-0.014-0.002-0.027-0.002-0.043-0.004c0.003-0.021,0.006-0.041,0.008-0.062
										c-0.031-0.038-0.061-0.078-0.092-0.119c0-0.015,0.001-0.029,0.001-0.045c0.031,0.035,0.065,0.068,0.097,0.103
										c0.023,0,0.047,0,0.07,0c0.001,0.002,0.005,0.007,0.006,0.008c0.025-0.006,0.05-0.017,0.077-0.017
										c0.057-0.002,0.115-0.003,0.172-0.007c0.034,0.002,0.069,0.005,0.104,0.002C11.517,3.254,11.519,3.248,11.519,3.242
										L11.519,3.242z"/>
									<path fill="#F8F604" d="M11.168,3.406c0.088-0.034,0.185-0.048,0.281-0.039c0.025,0.003,0.05,0.007,0.074,0.01
										c0.018,0.025,0.035,0.052,0.052,0.075c0.016,0.021,0.007,0.048,0.009,0.071c-0.016,0.004-0.032,0.009-0.048,0.012
										c-0.021,0.002-0.04,0-0.06,0c-0.037-0.003-0.074,0-0.111-0.003c0-0.021,0-0.046,0-0.068
										c0.021-0.014,0.043-0.027,0.063-0.042c-0.042,0-0.084,0-0.125,0.002c-0.012,0-0.022,0.003-0.032,0.007
										c0.014,0.017,0.038,0.021,0.057,0.029c0,0.026,0.002,0.055,0,0.082C11.266,3.54,11.204,3.54,11.14,3.54
										c-0.011-0.015-0.024-0.027-0.028-0.045c-0.005-0.012-0.004-0.026-0.004-0.04C11.127,3.438,11.141,3.414,11.168,3.406
										L11.168,3.406z"/>
									<path fill="#F8F604" d="M11.535,3.59c0.019-0.019,0.043-0.034,0.064-0.052c0.005,0.005,0.01,0.008,0.016,0.009
										c-0.002,0.054-0.004,0.105-0.006,0.158c-0.024,0.003-0.049,0.003-0.07,0.013c-0.004,0.03-0.004,0.063-0.007,0.094
										c-0.016,0.019-0.035,0.033-0.049,0.053c-0.035-0.005-0.072-0.009-0.107-0.014c-0.002-0.015-0.003-0.029-0.003-0.044
										c0.018-0.014,0.045-0.014,0.055-0.036c0.005-0.011,0.008-0.021,0.013-0.031c-0.019,0.009-0.037,0.022-0.059,0.023
										c-0.024,0-0.046,0.005-0.068,0s-0.044-0.007-0.066-0.011c0.013,0.013,0.025,0.027,0.04,0.04
										c0.016,0.006,0.033,0.007,0.048,0.011c0,0.017,0,0.033,0,0.049c-0.018,0.01-0.037,0.02-0.054,0.033
										c-0.006-0.004-0.014-0.005-0.021-0.007c-0.007-0.022-0.008-0.048-0.018-0.07c-0.017-0.012-0.035-0.021-0.052-0.029
										c-0.002-0.016-0.002-0.03-0.005-0.045c-0.017-0.007-0.035-0.015-0.053-0.022c-0.002-0.013-0.003-0.025-0.007-0.039
										c-0.008-0.007-0.018-0.013-0.028-0.019c0-0.031,0-0.062,0-0.093c0.009,0,0.019-0.004,0.028-0.004
										c0.009,0.018,0.016,0.035,0.029,0.05c0.025,0.027,0.052,0.055,0.077,0.081c0.013,0.002,0.027,0.007,0.041,0.005
										c0.005-0.006,0.007-0.011,0.009-0.019c0.011-0.03,0.025-0.059,0.036-0.088c0.023-0.002,0.046-0.002,0.068-0.004
										c0.024,0.031,0.047,0.062,0.069,0.093c0.012-0.001,0.023-0.004,0.034-0.006C11.503,3.644,11.517,3.615,11.535,3.59
										L11.535,3.59z"/>
									<path fill="#F8F604" d="M11.7,3.663c0.033-0.002,0.065-0.007,0.097-0.01c-0.001,0.031,0.029,0.046,0.039,0.071
										c0.005,0.013,0.008,0.027,0.011,0.04c-0.013-0.002-0.027-0.002-0.041-0.003c-0.012-0.016-0.022-0.031-0.033-0.047
										c-0.005,0.004-0.01,0.007-0.015,0.01c0.01,0.019,0.024,0.033,0.033,0.05c0.005,0.037,0.005,0.071,0.009,0.106
										c-0.016,0-0.032,0-0.048,0c-0.007-0.022-0.012-0.045-0.02-0.069c-0.005,0.003-0.011,0.003-0.016,0.007
										c0.005,0.021,0.014,0.043,0.017,0.068c-0.003,0.032-0.007,0.067-0.012,0.103c-0.016,0-0.031,0-0.047,0
										c-0.012-0.026-0.03-0.052-0.044-0.078c-0.002-0.008-0.002-0.015-0.002-0.022c0-0.04,0-0.081,0-0.121
										c0-0.006,0.002-0.012,0.007-0.016C11.656,3.722,11.679,3.692,11.7,3.663L11.7,3.663z"/>
									<path fill="#F8F604" d="M10.907,3.722c0.026-0.001,0.051-0.003,0.075-0.003C10.988,3.747,10.994,3.776,11,3.807
										c-0.029,0.03-0.059,0.062-0.091,0.094c0.004,0.003,0.008,0.005,0.011,0.008c-0.003,0-0.009-0.002-0.013-0.003
										c-0.002-0.011-0.006-0.021-0.01-0.031c0.013-0.032,0.026-0.064,0.038-0.098C10.927,3.758,10.917,3.741,10.907,3.722
										L10.907,3.722z"/>
									<path fill="#F8F604" d="M10.972,3.926c0.013-0.037,0.028-0.07,0.042-0.106c0.007,0.006,0.014,0.012,0.021,0.018
										c0.001,0.057,0.003,0.112,0.005,0.169c-0.02-0.003-0.039-0.007-0.057-0.008C10.979,3.975,10.972,3.949,10.972,3.926
										L10.972,3.926z"/>
									<path fill="#F8F604" d="M11.298,3.915c0.021-0.012,0.04-0.024,0.059-0.037c0.039,0.01,0.078,0.019,0.116,0.025
										c-0.006,0.018-0.008,0.036-0.021,0.051c-0.011,0.013-0.022,0.027-0.033,0.042c-0.024,0-0.048,0-0.073,0.002
										c-0.014-0.014-0.029-0.028-0.042-0.042C11.303,3.941,11.3,3.93,11.298,3.915L11.298,3.915z"/>
									<path fill="#F8F604" d="M11.5,3.978c0.029-0.016,0.058-0.031,0.087-0.046c0.011,0.021,0.023,0.04,0.034,0.061
										c-0.009,0-0.018,0-0.026,0c-0.002,0.023-0.001,0.048-0.005,0.072c-0.005,0.013-0.015,0.024-0.023,0.038
										c-0.014-0.012-0.026-0.023-0.039-0.035c-0.003-0.006-0.011-0.012-0.012-0.019C11.511,4.025,11.506,4,11.5,3.978L11.5,3.978
										z"/>
									<path fill="#F8F604" d="M11.1,3.956c0.022-0.001,0.044-0.002,0.065-0.004c0.005,0.042,0.01,0.082,0.014,0.123
										c-0.003,0.005-0.007,0.008-0.012,0.013c-0.001-0.004-0.001-0.009-0.002-0.013C11.14,4.058,11.116,4.04,11.09,4.022
										C11.094,4.002,11.097,3.98,11.1,3.956L11.1,3.956z"/>
									<path fill="#F8F604" d="M11.396,4.069c0.013-0.004,0.026-0.01,0.04-0.014c0.014,0.02,0.027,0.042,0.042,0.062
										c-0.033,0.004-0.066,0.009-0.099,0.012C11.384,4.109,11.391,4.091,11.396,4.069L11.396,4.069z"/>
									<path fill="#F8F604" d="M11.302,4.088c0.014-0.002,0.029-0.004,0.044-0.004c0.008,0.016,0.016,0.03,0.025,0.047
										c-0.013,0.001-0.026,0.004-0.04,0.003c-0.017-0.003-0.034-0.011-0.048-0.015C11.288,4.108,11.294,4.098,11.302,4.088
										L11.302,4.088z"/>
									<ellipse fill="#F8F604" cx="11.231" cy="3.604" rx="0.035" ry="0.026"/>
									<ellipse fill="#F8F604" cx="11.463" cy="3.604" rx="0.036" ry="0.026"/>
								</g>
								<g>
									<path fill="#544B20" d="M12.534,3.1c0.038,0.019,0.078,0.038,0.117,0.057c0.002,0.03,0.002,0.059,0.004,0.088
										c0.018,0,0.038,0,0.056,0c-0.005-0.022-0.016-0.045-0.013-0.068c0-0.007-0.001-0.014,0.003-0.018
										c0.025-0.014,0.061,0,0.082-0.022c0.012-0.011,0.024-0.019,0.037-0.029c0.025,0,0.05,0,0.077,0.002
										c0.002,0.016,0.006,0.034,0.008,0.05c-0.022,0.034-0.047,0.064-0.069,0.099c-0.004,0.026,0.001,0.053,0.001,0.079
										c0.021,0.011,0.042,0.02,0.064,0.028c0.007,0.044,0.015,0.086,0.022,0.131c0.033,0.033,0.067,0.065,0.1,0.098
										c0.004,0.024,0.004,0.049,0.008,0.074c0.008,0.019,0.027,0.029,0.035,0.051c0.006,0.021,0.01,0.044,0.017,0.065
										c-0.019,0-0.039-0.002-0.059-0.004c0.003,0.04,0.007,0.08,0.009,0.119c-0.023,0-0.047,0.001-0.069,0
										c-0.004,0.036-0.007,0.071-0.012,0.106c-0.042,0.001-0.084,0.001-0.127,0.004c0,0.02,0,0.04-0.003,0.061
										c-0.009,0.019-0.023,0.036-0.035,0.055c-0.079,0.01-0.158,0.019-0.238,0.026c-0.03-0.001-0.056-0.02-0.087-0.021
										c-0.031,0-0.062,0-0.094-0.002C12.365,4.114,12.364,4.1,12.36,4.088c-0.014-0.015-0.035-0.025-0.05-0.039
										c-0.014-0.009-0.026-0.021-0.042-0.023c-0.03-0.005-0.059-0.008-0.087-0.013c-0.006-0.028-0.011-0.057-0.015-0.083
										c-0.021-0.004-0.041-0.006-0.061-0.009C12.098,3.9,12.092,3.88,12.085,3.859c-0.007-0.018-0.019-0.032-0.03-0.047
										c0.008-0.026,0.02-0.055,0.028-0.083c-0.012-0.012-0.026-0.024-0.04-0.037c0.022-0.04,0.045-0.084,0.068-0.125
										c0.029-0.006,0.057-0.012,0.085-0.018c-0.001-0.044-0.001-0.087-0.003-0.132c0.024-0.006,0.05-0.012,0.074-0.018
										c0.001-0.021,0.003-0.038,0.006-0.06c-0.03-0.038-0.06-0.076-0.09-0.116c-0.002-0.022,0-0.047,0-0.07
										c0.024,0.002,0.05,0,0.073,0.008c0.022,0.009,0.045,0.018,0.069,0.025c0.007,0.003,0.013,0.012,0.017,0.019
										c0.013,0.019,0.026,0.038,0.039,0.056c0.012-0.004,0.024-0.008,0.037-0.011c0.002-0.026,0.003-0.052,0.006-0.078
										C12.46,3.148,12.497,3.124,12.534,3.1L12.534,3.1z"/>
									<path fill="#F8F604" d="M12.522,3.128c0.005-0.003,0.008-0.005,0.013-0.009c0.005,0.002,0.009,0.005,0.013,0.006
										c0.002,0.018,0.005,0.037,0.008,0.055c0.026,0,0.052-0.002,0.078-0.002c0.001,0.016,0.001,0.034,0.002,0.052
										c-0.021-0.005-0.043-0.01-0.065-0.012c-0.005-0.012-0.013-0.021-0.018-0.031c-0.012,0-0.024,0-0.035,0.001
										c-0.003,0.011-0.006,0.021-0.009,0.031c-0.023,0.003-0.047,0.004-0.07,0.006c0-0.01,0.001-0.022,0.002-0.032
										c0.025-0.005,0.049-0.008,0.074-0.013C12.516,3.162,12.519,3.145,12.522,3.128L12.522,3.128z"/>
									<path fill="#F8F604" d="M12.729,3.242c0.05-0.038,0.102-0.076,0.151-0.115c0.002,0.009,0.003,0.016,0.006,0.027
										c-0.021,0.027-0.042,0.056-0.062,0.085c-0.003,0.005-0.009,0.012-0.009,0.021c0,0.024,0.002,0.052,0.003,0.078
										c-0.006,0.006-0.012,0.012-0.018,0.019c-0.026,0.002-0.053,0.008-0.079,0.002c-0.113-0.021-0.232-0.012-0.339,0.028
										c-0.018,0.006-0.035,0.019-0.055,0.014c-0.014-0.002-0.028-0.002-0.042-0.004c0.002-0.021,0.004-0.041,0.007-0.062
										c-0.031-0.038-0.062-0.078-0.092-0.119c0.002-0.015,0.002-0.029,0.002-0.045c0.031,0.035,0.063,0.068,0.095,0.103
										c0.024,0,0.048,0,0.071,0c0.002,0.002,0.004,0.007,0.007,0.008c0.025-0.006,0.05-0.017,0.077-0.017
										c0.057-0.002,0.114-0.003,0.172-0.007c0.035,0.002,0.07,0.005,0.105,0.002C12.729,3.254,12.729,3.248,12.729,3.242
										L12.729,3.242z"/>
									<path fill="#F8F604" d="M12.379,3.406c0.089-0.034,0.187-0.048,0.281-0.039c0.024,0.003,0.05,0.007,0.076,0.01
										c0.017,0.025,0.034,0.052,0.052,0.075c0.016,0.021,0.006,0.048,0.009,0.071c-0.016,0.004-0.032,0.009-0.049,0.012
										c-0.019,0.002-0.039,0-0.06,0c-0.037-0.003-0.073,0-0.11-0.003c0-0.021,0-0.046,0-0.068
										c0.02-0.014,0.043-0.027,0.062-0.042c-0.042,0-0.084,0-0.125,0.002c-0.012,0-0.022,0.003-0.032,0.007
										c0.014,0.017,0.038,0.021,0.056,0.029c0,0.026,0.001,0.055,0.001,0.082C12.478,3.54,12.415,3.54,12.352,3.54
										c-0.011-0.015-0.023-0.027-0.028-0.045c-0.004-0.012-0.004-0.026-0.004-0.04C12.338,3.438,12.353,3.414,12.379,3.406
										L12.379,3.406z"/>
									<path fill="#F8F604" d="M12.747,3.59c0.019-0.019,0.043-0.034,0.064-0.052c0.005,0.005,0.011,0.008,0.015,0.009
										c0,0.054-0.003,0.105-0.005,0.158c-0.024,0.003-0.049,0.003-0.072,0.013c-0.004,0.03-0.004,0.063-0.005,0.094
										c-0.016,0.019-0.035,0.033-0.049,0.053c-0.036-0.005-0.072-0.009-0.108-0.014c-0.001-0.015-0.001-0.029-0.002-0.044
										c0.019-0.014,0.045-0.014,0.054-0.036c0.006-0.011,0.009-0.021,0.013-0.031c-0.019,0.009-0.036,0.022-0.059,0.023
										c-0.023,0-0.046,0.005-0.067,0s-0.045-0.007-0.065-0.011c0.013,0.013,0.024,0.027,0.039,0.04
										c0.016,0.006,0.033,0.007,0.048,0.011c0,0.017,0.001,0.033,0.001,0.049c-0.018,0.01-0.037,0.02-0.053,0.033
										c-0.008-0.004-0.016-0.005-0.021-0.007c-0.006-0.022-0.009-0.048-0.018-0.07c-0.017-0.012-0.036-0.021-0.053-0.029
										c-0.001-0.016-0.003-0.03-0.004-0.045c-0.019-0.007-0.035-0.015-0.054-0.022c-0.003-0.013-0.003-0.025-0.009-0.039
										c-0.007-0.007-0.017-0.013-0.025-0.019c-0.003-0.031-0.003-0.062-0.003-0.093c0.01,0,0.021-0.004,0.03-0.004
										c0.009,0.018,0.016,0.035,0.029,0.05c0.026,0.027,0.051,0.055,0.078,0.081c0.013,0.002,0.026,0.007,0.041,0.005
										c0.004-0.006,0.007-0.011,0.01-0.019c0.01-0.03,0.022-0.059,0.035-0.088c0.021-0.002,0.044-0.002,0.068-0.004
										c0.023,0.031,0.046,0.062,0.069,0.093c0.011-0.001,0.021-0.004,0.034-0.006C12.715,3.644,12.729,3.615,12.747,3.59
										L12.747,3.59z"/>
									<path fill="#F8F604" d="M12.913,3.663c0.032-0.002,0.065-0.007,0.097-0.01c-0.003,0.031,0.027,0.046,0.037,0.071
										c0.006,0.013,0.009,0.027,0.012,0.04c-0.014-0.002-0.027-0.002-0.043-0.003c-0.01-0.016-0.02-0.031-0.031-0.047
										c-0.003,0.004-0.009,0.007-0.014,0.01c0.011,0.019,0.024,0.033,0.034,0.05c0.006,0.037,0.006,0.071,0.008,0.106
										c-0.015,0-0.031,0-0.047,0c-0.006-0.022-0.013-0.045-0.019-0.069c-0.006,0.003-0.011,0.003-0.018,0.007
										c0.006,0.021,0.014,0.043,0.018,0.068c-0.002,0.032-0.008,0.067-0.011,0.103c-0.016,0-0.032,0-0.048,0
										c-0.011-0.026-0.03-0.052-0.043-0.078c-0.004-0.008-0.003-0.015-0.003-0.022c0-0.04,0-0.081,0-0.121
										c0-0.006,0.003-0.012,0.007-0.016C12.869,3.722,12.891,3.692,12.913,3.663L12.913,3.663z"/>
									<path fill="#F8F604" d="M12.119,3.722c0.025-0.001,0.05-0.003,0.075-0.003c0.006,0.028,0.013,0.058,0.018,0.088
										c-0.03,0.03-0.06,0.062-0.093,0.094c0.004,0.003,0.008,0.005,0.012,0.008c-0.004,0-0.009-0.002-0.013-0.003
										c-0.002-0.011-0.007-0.021-0.01-0.031c0.014-0.032,0.027-0.064,0.039-0.098C12.138,3.758,12.128,3.741,12.119,3.722
										L12.119,3.722z"/>
									<path fill="#F8F604" d="M12.183,3.926c0.013-0.037,0.029-0.07,0.042-0.106c0.008,0.006,0.014,0.012,0.021,0.018
										c0.002,0.057,0.003,0.112,0.006,0.169c-0.019-0.003-0.039-0.007-0.059-0.008C12.19,3.975,12.183,3.949,12.183,3.926
										L12.183,3.926z"/>
									<path fill="#F8F604" d="M12.51,3.915c0.021-0.012,0.04-0.024,0.059-0.037c0.038,0.01,0.078,0.019,0.115,0.025
										c-0.005,0.018-0.007,0.036-0.021,0.051c-0.011,0.013-0.022,0.027-0.033,0.042c-0.024,0-0.049,0-0.073,0.002
										c-0.015-0.014-0.029-0.028-0.042-0.042C12.515,3.941,12.512,3.93,12.51,3.915L12.51,3.915z"/>
									<path fill="#F8F604" d="M12.713,3.978c0.028-0.016,0.058-0.031,0.084-0.046c0.013,0.021,0.025,0.04,0.038,0.061
										c-0.009,0-0.019,0-0.028,0c-0.002,0.023,0,0.048-0.003,0.072c-0.007,0.013-0.016,0.024-0.024,0.038
										c-0.013-0.012-0.026-0.023-0.038-0.035c-0.005-0.006-0.012-0.012-0.012-0.019C12.722,4.025,12.719,4,12.713,3.978
										L12.713,3.978z"/>
									<path fill="#F8F604" d="M12.312,3.956c0.022-0.001,0.044-0.002,0.066-0.004c0.005,0.042,0.01,0.082,0.014,0.123
										c-0.004,0.005-0.009,0.008-0.013,0.013c0-0.004-0.001-0.009-0.002-0.013c-0.025-0.018-0.049-0.035-0.075-0.053
										C12.306,4.002,12.31,3.98,12.312,3.956L12.312,3.956z"/>
									<path fill="#F8F604" d="M12.608,4.069c0.013-0.004,0.026-0.01,0.04-0.014c0.013,0.02,0.027,0.042,0.04,0.062
										c-0.031,0.004-0.065,0.009-0.097,0.012C12.597,4.109,12.603,4.091,12.608,4.069L12.608,4.069z"/>
									<path fill="#F8F604" d="M12.513,4.088c0.015-0.002,0.03-0.004,0.044-0.004c0.008,0.016,0.017,0.03,0.026,0.047
										c-0.015,0.001-0.028,0.004-0.041,0.003c-0.016-0.003-0.033-0.011-0.049-0.015C12.5,4.108,12.506,4.098,12.513,4.088
										L12.513,4.088z"/>
									<ellipse fill="#F8F604" cx="12.442" cy="3.604" rx="0.036" ry="0.026"/>
									<ellipse fill="#F8F604" cx="12.675" cy="3.604" rx="0.035" ry="0.026"/>
								</g>
								<g>
									<path fill="#544B20" d="M11.928,4.155c0.041,0.019,0.079,0.038,0.119,0.058c0,0.029,0,0.058,0.003,0.086
										c0.018,0,0.037,0,0.055,0C12.1,4.275,12.09,4.254,12.091,4.23c0.001-0.007-0.001-0.013,0.003-0.017
										c0.026-0.014,0.062,0,0.083-0.021c0.012-0.011,0.024-0.021,0.037-0.029c0.025,0,0.05,0,0.076,0.001
										c0.003,0.017,0.007,0.033,0.009,0.05c-0.024,0.033-0.048,0.065-0.071,0.099c-0.003,0.024,0.002,0.052,0.002,0.078
										c0.021,0.011,0.041,0.021,0.063,0.03C12.3,4.465,12.31,4.508,12.316,4.55c0.034,0.032,0.067,0.066,0.1,0.1
										c0.003,0.023,0.003,0.048,0.009,0.071c0.007,0.02,0.027,0.032,0.034,0.053c0.007,0.021,0.01,0.045,0.019,0.067
										c-0.021-0.001-0.04-0.004-0.061-0.007c0.004,0.04,0.006,0.081,0.008,0.12c-0.023,0-0.044,0-0.068,0
										c-0.004,0.035-0.007,0.07-0.011,0.106c-0.043,0.001-0.085,0.002-0.127,0.004c-0.002,0.021,0,0.04-0.003,0.06
										c-0.009,0.02-0.024,0.038-0.035,0.057c-0.079,0.009-0.159,0.018-0.238,0.026c-0.031-0.001-0.058-0.021-0.088-0.021
										c-0.031,0-0.061,0-0.093-0.004c-0.002-0.011-0.003-0.026-0.006-0.039c-0.015-0.016-0.035-0.025-0.052-0.038
										c-0.013-0.009-0.025-0.021-0.041-0.024c-0.029-0.003-0.059-0.007-0.087-0.013c-0.006-0.026-0.01-0.055-0.015-0.083
										c-0.021-0.003-0.04-0.004-0.06-0.009c-0.006-0.021-0.013-0.041-0.019-0.061c-0.006-0.019-0.019-0.032-0.03-0.047
										c0.009-0.025,0.021-0.054,0.029-0.082c-0.013-0.013-0.026-0.024-0.04-0.037c0.023-0.043,0.045-0.085,0.067-0.126
										c0.029-0.007,0.059-0.013,0.086-0.018c-0.003-0.045-0.002-0.088-0.003-0.13c0.024-0.007,0.049-0.013,0.072-0.02
										c0.002-0.02,0.005-0.04,0.008-0.06c-0.03-0.04-0.061-0.078-0.089-0.116c-0.004-0.023,0-0.049,0-0.07
										c0.023,0.001,0.049-0.001,0.072,0.009c0.024,0.009,0.046,0.017,0.068,0.025c0.009,0.003,0.013,0.01,0.019,0.018
										c0.012,0.019,0.025,0.037,0.037,0.056c0.013-0.005,0.025-0.007,0.037-0.011c0.002-0.026,0.004-0.051,0.006-0.077
										C11.856,4.204,11.892,4.181,11.928,4.155L11.928,4.155z"/>
									<path fill="#F8F604" d="M11.917,4.186c0.004-0.005,0.008-0.007,0.013-0.012c0.004,0.004,0.009,0.007,0.013,0.008
										c0.003,0.018,0.006,0.036,0.008,0.054c0.025-0.002,0.051-0.002,0.078-0.004c0,0.018,0.001,0.034,0.002,0.052
										c-0.021-0.003-0.043-0.008-0.066-0.012c-0.005-0.01-0.013-0.02-0.018-0.029c-0.012,0-0.022,0-0.035,0.002
										c-0.002,0.01-0.006,0.019-0.009,0.028c-0.022,0.003-0.046,0.007-0.069,0.008c0-0.012,0-0.021,0.001-0.033
										c0.025-0.003,0.05-0.008,0.075-0.012C11.912,4.219,11.915,4.2,11.917,4.186L11.917,4.186z"/>
									<path fill="#F8F604" d="M12.125,4.299c0.05-0.038,0.101-0.077,0.152-0.115c0.001,0.009,0.003,0.016,0.004,0.025
										c-0.021,0.029-0.041,0.057-0.062,0.085c-0.003,0.007-0.009,0.013-0.009,0.021c0,0.025,0.003,0.052,0.003,0.077
										c-0.005,0.008-0.01,0.013-0.017,0.02c-0.027,0.001-0.053,0.009-0.08,0.003c-0.113-0.021-0.232-0.014-0.338,0.028
										c-0.019,0.006-0.035,0.019-0.056,0.014c-0.014-0.001-0.028-0.004-0.041-0.004c0.002-0.022,0.004-0.041,0.008-0.062
										c-0.033-0.039-0.062-0.079-0.093-0.119c0-0.015,0.001-0.029,0.001-0.044c0.031,0.034,0.064,0.067,0.096,0.102
										c0.023,0,0.047,0,0.071,0c0.001,0.001,0.004,0.006,0.004,0.008c0.027-0.007,0.052-0.017,0.078-0.017
										c0.058-0.002,0.115-0.005,0.173-0.007c0.034,0.002,0.07,0.004,0.105,0C12.125,4.311,12.125,4.302,12.125,4.299
										L12.125,4.299z"/>
									<path fill="#F8F604" d="M11.775,4.463c0.088-0.035,0.185-0.05,0.281-0.039c0.023,0.001,0.05,0.006,0.074,0.01
										c0.018,0.025,0.036,0.05,0.054,0.075c0.016,0.02,0.006,0.048,0.009,0.071c-0.016,0.002-0.032,0.007-0.048,0.01
										c-0.021,0.002-0.04,0-0.06,0c-0.037-0.001-0.074,0.002-0.111-0.001c0-0.021,0-0.046,0-0.069
										c0.021-0.013,0.042-0.027,0.062-0.041c-0.042,0-0.083-0.002-0.125,0.002c-0.011,0-0.022,0.003-0.032,0.007
										c0.015,0.016,0.037,0.021,0.056,0.029c0,0.026,0.001,0.053,0.001,0.082c-0.062-0.003-0.125-0.003-0.189-0.004
										c-0.01-0.014-0.023-0.026-0.028-0.043c-0.004-0.014-0.004-0.026-0.004-0.04C11.734,4.494,11.747,4.469,11.775,4.463
										L11.775,4.463z"/>
									<path fill="#F8F604" d="M12.141,4.646c0.02-0.02,0.043-0.034,0.065-0.051c0.005,0.004,0.01,0.006,0.015,0.009
										c-0.002,0.051-0.003,0.104-0.005,0.156c-0.024,0.005-0.049,0.005-0.072,0.014c-0.004,0.032-0.004,0.063-0.006,0.095
										c-0.016,0.019-0.035,0.032-0.048,0.051c-0.036-0.004-0.072-0.008-0.108-0.013c-0.001-0.016-0.001-0.03-0.003-0.045
										c0.019-0.012,0.046-0.012,0.055-0.034c0.005-0.011,0.008-0.021,0.013-0.031c-0.019,0.01-0.037,0.022-0.059,0.022
										c-0.024,0.001-0.047,0.006-0.068,0.001c-0.022-0.004-0.044-0.007-0.066-0.011c0.013,0.013,0.025,0.028,0.04,0.039
										c0.015,0.007,0.031,0.008,0.047,0.012c0,0.015,0,0.031,0,0.047c-0.017,0.013-0.036,0.021-0.053,0.033
										c-0.007-0.002-0.014-0.005-0.021-0.007c-0.007-0.023-0.009-0.046-0.018-0.068c-0.016-0.012-0.037-0.021-0.054-0.031
										c0-0.014-0.002-0.027-0.004-0.043c-0.017-0.009-0.034-0.016-0.053-0.023c-0.002-0.014-0.004-0.025-0.009-0.039
										c-0.007-0.009-0.018-0.013-0.027-0.019c-0.001-0.031-0.001-0.062-0.001-0.093c0.01-0.001,0.019-0.004,0.028-0.005
										c0.01,0.019,0.016,0.036,0.03,0.051c0.026,0.025,0.052,0.055,0.077,0.082c0.014,0.002,0.027,0.007,0.041,0.005
										c0.004-0.006,0.006-0.013,0.009-0.02c0.01-0.029,0.023-0.059,0.035-0.088c0.023-0.002,0.045-0.002,0.068-0.004
										c0.024,0.031,0.047,0.062,0.069,0.092c0.012-0.002,0.023-0.002,0.033-0.005C12.11,4.699,12.125,4.671,12.141,4.646
										L12.141,4.646z"/>
									<path fill="#F8F604" d="M12.308,4.719c0.032-0.004,0.064-0.006,0.096-0.011c-0.002,0.03,0.028,0.048,0.039,0.073
										c0.004,0.014,0.007,0.027,0.01,0.04c-0.014-0.002-0.028-0.002-0.041-0.005c-0.011-0.014-0.022-0.03-0.032-0.045
										c-0.005,0.003-0.01,0.007-0.015,0.01c0.012,0.017,0.024,0.033,0.035,0.05c0.004,0.035,0.004,0.071,0.008,0.106
										c-0.017,0-0.033,0-0.049,0c-0.006-0.023-0.013-0.047-0.019-0.069c-0.006,0.001-0.012,0.003-0.018,0.005
										c0.005,0.023,0.014,0.046,0.018,0.067c-0.003,0.035-0.007,0.069-0.011,0.104c-0.016,0-0.032,0-0.048,0.002
										c-0.011-0.028-0.03-0.053-0.043-0.078c-0.004-0.009-0.001-0.016-0.003-0.023c0.001-0.039,0-0.08,0-0.12
										c-0.001-0.006,0.003-0.012,0.006-0.018C12.264,4.778,12.286,4.749,12.308,4.719L12.308,4.719z"/>
									<path fill="#F8F604" d="M11.515,4.778c0.025-0.001,0.05-0.003,0.075-0.004c0.004,0.029,0.012,0.057,0.017,0.087
										c-0.029,0.032-0.059,0.062-0.091,0.094c0.003,0.003,0.007,0.006,0.01,0.009c-0.003-0.002-0.009-0.003-0.013-0.005
										c-0.003-0.01-0.007-0.019-0.01-0.029c0.013-0.033,0.026-0.063,0.039-0.099C11.534,4.814,11.523,4.796,11.515,4.778
										L11.515,4.778z"/>
									<path fill="#F8F604" d="M11.578,4.981c0.012-0.037,0.028-0.07,0.043-0.107c0.007,0.007,0.013,0.013,0.021,0.02
										c0.002,0.056,0.004,0.112,0.006,0.168c-0.02-0.003-0.039-0.006-0.058-0.009C11.587,5.029,11.579,5.006,11.578,4.981
										L11.578,4.981z"/>
									<path fill="#F8F604" d="M11.906,4.97c0.019-0.012,0.038-0.023,0.058-0.035c0.039,0.009,0.077,0.016,0.115,0.024
										c-0.005,0.017-0.007,0.036-0.02,0.05c-0.012,0.014-0.023,0.027-0.034,0.042C12,5.053,11.977,5.053,11.952,5.055
										c-0.014-0.014-0.028-0.029-0.042-0.043C11.909,4.998,11.907,4.984,11.906,4.97L11.906,4.97z"/>
									<path fill="#F8F604" d="M12.108,5.031c0.029-0.014,0.058-0.029,0.085-0.045c0.013,0.021,0.025,0.041,0.036,0.062
										c-0.01,0-0.018,0-0.026,0c-0.002,0.024-0.002,0.048-0.005,0.073c-0.006,0.013-0.016,0.024-0.023,0.037
										c-0.014-0.013-0.026-0.024-0.039-0.036c-0.006-0.005-0.011-0.01-0.013-0.017C12.117,5.08,12.113,5.057,12.108,5.031
										L12.108,5.031z"/>
									<path fill="#F8F604" d="M11.707,5.013c0.023-0.001,0.044-0.003,0.066-0.004c0.005,0.041,0.011,0.082,0.015,0.123
										c-0.004,0.003-0.009,0.008-0.014,0.012c0-0.003-0.001-0.009-0.001-0.013c-0.025-0.017-0.05-0.034-0.075-0.052
										C11.7,5.057,11.704,5.034,11.707,5.013L11.707,5.013z"/>
									<path fill="#F8F604" d="M12.003,5.126c0.013-0.005,0.026-0.011,0.041-0.016c0.013,0.021,0.025,0.042,0.041,0.063
										c-0.033,0.004-0.066,0.007-0.099,0.012C11.991,5.166,11.997,5.146,12.003,5.126L12.003,5.126z"/>
									<path fill="#F8F604" d="M11.909,5.144c0.015-0.001,0.029-0.003,0.043-0.004c0.01,0.016,0.017,0.031,0.026,0.046
										c-0.013,0.002-0.026,0.004-0.04,0.004c-0.017-0.003-0.032-0.011-0.05-0.015C11.896,5.164,11.902,5.154,11.909,5.144
										L11.909,5.144z"/>
									<ellipse fill="#F8F604" cx="11.838" cy="4.659" rx="0.035" ry="0.024"/>
									<ellipse fill="#F8F604" cx="12.07" cy="4.659" rx="0.036" ry="0.024"/>
								</g>
							</g>
						</g>
						<g>
							<path fill="#D61516" d="M15.622,4.528c0.281,0.063,0.562,0.136,0.838,0.216c0.318,0.093,0.633,0.2,0.941,0.318
								c0.159,0.062,0.317,0.123,0.475,0.189C17.8,5.4,17.728,5.55,17.655,5.699c-0.047,0.092-0.09,0.184-0.137,0.276
								c-0.354-0.14-0.71-0.266-1.072-0.383c-0.322-0.104-0.648-0.204-0.979-0.282c-0.021-0.006-0.04-0.012-0.062-0.014
								c0.007-0.011,0.01-0.022,0.012-0.032c0.019-0.067,0.04-0.134,0.057-0.202c0.001-0.001,0.002-0.004,0.002-0.007
								c0.003-0.01,0.007-0.022,0.01-0.033C15.53,4.858,15.577,4.693,15.622,4.528L15.622,4.528z"/>
							<path fill="#FFFFFF" d="M15.321,5.593l0.083-0.296c0,0,0.639,0.109,1.156,0.281c0.519,0.173,0.961,0.397,0.961,0.397
								L17.385,6.25L15.321,5.593z"/>
							<path fill="#FFFFFF" d="M15.622,4.528l0.084-0.297c0,0,0.637,0.109,1.156,0.282c0.518,0.172,1.15,0.462,1.15,0.462
								l-0.137,0.276L15.622,4.528z"/>
							<path fill="#3B75D9" d="M15.956,3.339c0,0,1.081-0.438,1.622-0.657c0.269,0.449,0.534,0.9,0.804,1.35
								c0.018,0.028,0.032,0.058,0.052,0.086v0.002c-0.013,0.018-0.021,0.038-0.031,0.059c-0.13,0.266-0.259,0.531-0.39,0.798
								c-0.312-0.133-0.627-0.263-0.947-0.374c-0.445-0.152-0.899-0.272-1.359-0.37L15.956,3.339z"/>
							<path fill="#3B75D9" d="M15.328,5.572c0,0,0.515,0.157,0.771,0.236c0.165,0.051,0.33,0.104,0.497,0.157
								c0.266,0.086,0.793,0.272,0.793,0.272s-0.049,0.112-0.184,0.385h-0.001c-0.078-0.032-0.157-0.063-0.237-0.094
								c-0.271-0.104-0.543-0.201-0.822-0.28c-0.312-0.091-0.629-0.164-0.945-0.234V6.012C15.253,5.824,15.328,5.572,15.328,5.572z"
								/>
							<polygon fill="#FEC502" points="17.36,3.281 17.413,3.586 17.743,3.705 17.49,3.923 17.521,4.231 17.24,4.141 16.999,4.367 
								16.929,4.044 16.579,3.939 16.851,3.696 16.784,3.377 17.116,3.481 							"/>
							<polygon fill="#FAFC12" points="17.356,3.294 17.404,3.588 17.162,3.812 							"/>
							<polygon fill="#FAFC12" points="16.798,3.396 17.081,3.492 17.162,3.812 							"/>
							<polygon fill="#FAFC12" points="17.015,4.343 17.228,4.134 17.162,3.812 							"/>
							<polygon fill="#FAFC12" points="16.625,3.939 16.911,4.022 17.162,3.812 							"/>
							<polygon fill="#FAFC12" points="17.72,3.708 17.48,3.917 17.506,4.214 17.163,3.812 							"/>
							<path fill="#31120A" d="M15.8,4.786c0.068,0,0.139,0,0.209,0c0.002,0.025,0,0.051,0.004,0.076
								c0.037,0.019,0.072,0.044,0.109,0.064c0.057,0.03,0.119,0.047,0.178,0.074c0.008,0.003,0.016,0.006,0.023,0.006
								c0.145,0.012,0.287,0.024,0.43,0.037c0.066,0.012,0.132,0.03,0.192,0.062c0.042,0.024,0.079,0.06,0.104,0.101
								c0.006,0.007,0.01,0.02,0.021,0.022c0.16,0.052,0.332,0.073,0.5,0.079c0.029,0.004,0.062-0.004,0.088,0.015
								c0.014,0.009,0.021,0.028,0.012,0.044c-0.018,0.03-0.051,0.05-0.082,0.063c-0.064,0.026-0.137,0.024-0.205,0.013
								c-0.055-0.01-0.108-0.026-0.162-0.04c-0.033-0.01-0.068-0.02-0.105-0.02c0.006,0.019,0.014,0.033,0.024,0.048
								c0.024,0.035,0.06,0.066,0.097,0.09c0.012,0.006,0.025,0.01,0.035,0.016c-0.002,0.067-0.002,0.134-0.004,0.199
								c-0.011,0.016-0.027,0.026-0.039,0.038c-0.016-0.009-0.031-0.019-0.047-0.03c0.01-0.014,0.018-0.029,0.021-0.048
								c0.004-0.028-0.001-0.055-0.008-0.08c-0.004-0.022-0.018-0.037-0.031-0.054c-0.008-0.015-0.025-0.022-0.043-0.025
								c-0.061-0.004-0.119-0.025-0.172-0.059c-0.016-0.009-0.029-0.021-0.046-0.029c-0.009-0.002-0.018,0.001-0.027,0.003
								c-0.019,0.032-0.045,0.062-0.081,0.074c-0.021,0.001-0.039-0.003-0.059-0.003c-0.029,0-0.059-0.008-0.085-0.014
								c-0.05-0.011-0.1-0.021-0.147-0.036c0.001-0.013-0.008-0.031,0.006-0.04c0.019-0.003,0.036-0.002,0.053-0.003
								c0.023-0.002,0.046,0.006,0.069,0.008c0.026,0.004,0.053,0.005,0.079,0.005c0-0.021-0.002-0.045-0.002-0.066
								c-0.066-0.005-0.133-0.01-0.194-0.033C16.458,5.32,16.4,5.299,16.343,5.276c-0.018-0.006-0.036-0.015-0.055-0.017
								c-0.094-0.008-0.188-0.012-0.283,0.002c-0.027,0.005-0.055,0.013-0.083,0.018c-0.042,0.006-0.081,0.02-0.124,0.026
								c-0.02,0.005-0.039-0.003-0.059-0.007c-0.008-0.003-0.02-0.008-0.025-0.018c-0.002-0.01,0.002-0.021,0.008-0.029
								c0.082-0.013,0.17-0.01,0.244-0.05c-0.007-0.017-0.014-0.03-0.024-0.044c-0.044-0.002-0.087-0.002-0.132-0.002
								c-0.033,0-0.068,0.007-0.101-0.005c-0.028-0.009-0.056-0.018-0.082-0.029c-0.005-0.003-0.013-0.005-0.013-0.012
								c-0.002-0.014-0.008-0.03-0.004-0.041c0.018-0.002,0.033,0.006,0.049,0.01c0.041,0.012,0.085,0.014,0.127,0.014
								c0.039-0.002,0.079-0.002,0.117-0.014c0-0.018,0.004-0.035,0.002-0.054c-0.001-0.017-0.012-0.032-0.021-0.046
								c-0.053-0.011-0.106-0.012-0.16-0.019c-0.021-0.002-0.042-0.012-0.052-0.031c-0.005-0.015-0.005-0.031-0.002-0.049
								c0.027-0.019,0.061-0.028,0.089-0.051C15.776,4.819,15.788,4.803,15.8,4.786L15.8,4.786z"/>
							<path fill="#502D17" d="M15.804,4.795c0.065,0,0.131,0.001,0.196,0c0.003,0.024,0.003,0.05,0.003,0.074
								c0.043,0.021,0.08,0.05,0.123,0.071c0.049,0.023,0.1,0.04,0.146,0.059c0.016,0.007,0.027,0.016,0.043,0.016
								c0.142,0.015,0.284,0.026,0.426,0.038c0.049,0.006,0.094,0.02,0.138,0.035c0.064,0.022,0.123,0.062,0.159,0.119
								c0.008,0.01,0.013,0.026,0.027,0.029c0.176,0.061,0.365,0.078,0.551,0.084c0.016,0,0.033,0.007,0.043,0.018
								c0.006,0.005,0.008,0.011,0.006,0.017c-0.006,0.018-0.021,0.031-0.037,0.043c-0.05,0.036-0.113,0.046-0.174,0.045
								c-0.079-0.006-0.154-0.029-0.23-0.05c-0.039-0.009-0.076-0.021-0.115-0.018c0.001,0.017,0.004,0.031,0.014,0.045
								c0.032,0.054,0.082,0.097,0.141,0.124c0,0.046,0,0.09,0,0.136c-0.002,0.019,0,0.036-0.005,0.054
								c-0.008,0.011-0.021,0.019-0.03,0.029c-0.01-0.006-0.021-0.014-0.031-0.02c0.008-0.016,0.014-0.03,0.017-0.047
								c0.003-0.028,0.001-0.055-0.005-0.08C17.203,5.59,17.187,5.57,17.171,5.55c-0.017-0.017-0.043-0.021-0.066-0.023
								c-0.067-0.01-0.13-0.042-0.186-0.08c-0.014-0.013-0.034-0.004-0.049-0.002c-0.016,0.03-0.041,0.058-0.073,0.071
								c-0.031,0.001-0.065,0.001-0.097-0.004c-0.062-0.018-0.127-0.027-0.188-0.045c0-0.009,0-0.017,0.002-0.023
								c0.023-0.007,0.046-0.005,0.07-0.001c0.044,0.008,0.09,0.01,0.136,0.01c0.001-0.025-0.001-0.05,0.001-0.075
								c0.045,0,0.088-0.006,0.133-0.006c-0.012-0.043-0.021-0.09-0.049-0.124c-0.02-0.03-0.053-0.045-0.086-0.053
								c-0.027-0.009-0.057-0.007-0.087-0.005c-0.112,0.003-0.225,0.006-0.337,0.011c0,0.017,0.001,0.033,0.004,0.052
								c-0.053-0.005-0.104-0.009-0.156-0.01c-0.048,0.003-0.098,0.003-0.145,0.011c-0.03,0.004-0.059,0.015-0.09,0.018
								c-0.042,0.008-0.082,0.023-0.123,0.028c-0.023-0.003-0.045-0.009-0.064-0.021c0.002-0.007,0.003-0.012,0.005-0.019
								c0.063-0.007,0.13-0.008,0.19-0.027c0.02-0.006,0.036-0.016,0.055-0.021c0.002-0.024-0.008-0.047-0.026-0.06
								c-0.012-0.003-0.023-0.003-0.035-0.003c-0.051,0-0.102,0-0.151,0.001c-0.029,0.002-0.056-0.009-0.082-0.019
								c-0.016-0.007-0.031-0.01-0.046-0.019c-0.013-0.006-0.009-0.021-0.013-0.033c0.035,0.007,0.067,0.02,0.104,0.021
								c0.035,0,0.07,0.006,0.105,0.001c0.029-0.002,0.059-0.004,0.086-0.015c0-0.025,0.004-0.053,0-0.077
								c-0.008-0.017-0.016-0.039-0.035-0.041c-0.049-0.009-0.096-0.011-0.145-0.014c-0.018-0.002-0.038-0.008-0.049-0.024
								c-0.006-0.012-0.007-0.029-0.006-0.042c0.027-0.019,0.057-0.026,0.081-0.044C15.778,4.831,15.792,4.814,15.804,4.795
								L15.804,4.795z"/>
							<path fill="#FEFEFE" d="M16.303,5.207c0.118-0.003,0.236-0.005,0.354-0.009c0.041-0.004,0.085,0.008,0.118,0.031
								c0.043,0.029,0.054,0.085,0.066,0.132c-0.041,0.002-0.085,0.006-0.128,0.008c-0.073-0.004-0.149-0.013-0.216-0.042
								c-0.062-0.025-0.125-0.051-0.188-0.073C16.306,5.237,16.306,5.222,16.303,5.207L16.303,5.207z"/>
						</g>
					</g>
				</g>
			</g>
		</g>
	</g>
</g>
</svg>
