<?xml version="1.0" encoding="utf-8"?>
<!-- Generator: Adobe Illustrator 16.0.0, SVG Export Plug-In . SVG Version: 6.00 Build 0)  -->
<!DOCTYPE svg PUBLIC "-//W3C//DTD SVG 1.1//EN" "http://www.w3.org/Graphics/SVG/1.1/DTD/svg11.dtd">
<svg version="1.1" id="Layer_1" xmlns="http://www.w3.org/2000/svg" xmlns:xlink="http://www.w3.org/1999/xlink" x="0px" y="0px"
	 width="40px" height="40px" viewBox="0 0 40 40" enable-background="new 0 0 40 40" xml:space="preserve">
<g>
	<g>
		<path fill="#048D46" d="M20.002,40c8.07,0,15.021-4.784,18.182-11.668H1.817C4.979,35.216,11.933,40,20.002,40z"/>
		<path fill="#D3242D" d="M20.002,0C11.933,0,4.979,4.785,1.817,11.666h36.365C35.021,4.785,28.072,0,20.002,0z"/>
		<path fill="#FFFFFF" d="M0,19.999c0,2.976,0.652,5.797,1.817,8.333h36.365C39.35,25.796,40,22.975,40,19.999
			c0-2.975-0.65-5.795-1.816-8.333H1.817C0.652,14.204,0,17.024,0,19.999z"/>
	</g>
</g>
<g>
	<path fill="#D0D0D5" d="M39,20c0,2.991-0.714,5.812-1.95,8.332h1.115C39.332,25.793,40,22.978,40,20
		c0-2.979-0.669-5.794-1.836-8.334h-1.115C38.286,14.187,39,17.008,39,20z"/>
	<path fill="#D0D0D5" d="M1,20c0-2.992,0.714-5.813,1.952-8.334H1.836C0.669,14.206,0,17.021,0,20c0,2.978,0.668,5.793,1.835,8.332
		h1.116C1.714,25.812,1,22.991,1,20z"/>
</g>
</svg>
