<?xml version="1.0" encoding="utf-8"?>
<!-- Generator: Adobe Illustrator 16.0.0, SVG Export Plug-In . SVG Version: 6.00 Build 0)  -->
<!DOCTYPE svg PUBLIC "-//W3C//DTD SVG 1.0//EN" "http://www.w3.org/TR/2001/REC-SVG-20010904/DTD/svg10.dtd">
<svg version="1.0" id="Layer_1" xmlns="http://www.w3.org/2000/svg" xmlns:xlink="http://www.w3.org/1999/xlink" x="0px" y="0px"
	 width="40px" height="40px" viewBox="0 0 40 40" enable-background="new 0 0 40 40" xml:space="preserve">
<g>
	<g>
		<path fill="#049A64" d="M0,20.001C0,28.07,4.782,35.019,11.667,38.18V1.82C4.782,4.98,0,11.931,0,20.001z"/>
		<path fill="#F58241" d="M40,20.001c0-8.07-4.781-15.021-11.664-18.181V38.18C35.219,35.019,40,28.07,40,20.001z"/>
		<path fill="#FFFFFF" d="M20,0c-2.976,0-5.796,0.653-8.334,1.82V38.18C14.205,39.345,17.025,40,20,40
			c2.976,0,5.796-0.655,8.335-1.82V1.82C25.797,0.653,22.977,0,20,0z"/>
	</g>
</g>
</svg>
