<?xml version="1.0" encoding="utf-8"?>
<!-- Generator: Adobe Illustrator 16.0.0, SVG Export Plug-In . SVG Version: 6.00 Build 0)  -->
<!DOCTYPE svg PUBLIC "-//W3C//DTD SVG 1.0//EN" "http://www.w3.org/TR/2001/REC-SVG-20010904/DTD/svg10.dtd">
<svg version="1.0" id="Layer_1" xmlns="http://www.w3.org/2000/svg" xmlns:xlink="http://www.w3.org/1999/xlink" x="0px" y="0px"
	 width="40px" height="40px" viewBox="0 0 40 40" enable-background="new 0 0 40 40" xml:space="preserve">
<g>
	<g>
		<polygon fill="#FFFFFF" points="24.225,18.499 25.027,17.111 23.428,17.111 		"/>
		<polygon fill="#FFFFFF" points="23.423,22.886 25.027,22.886 24.225,21.499 		"/>
		<polygon fill="#FFFFFF" points="18.307,17.111 16.641,20 18.307,22.886 21.692,22.886 23.36,20 21.692,17.111 		"/>
		<path fill="#FFFFFF" d="M8.097,36.071C11.422,38.54,15.54,40,20,40c4.459,0,8.577-1.46,11.904-3.929H8.097z"/>
		<path fill="#FFFFFF" d="M40,20c0-3.674-0.995-7.114-2.724-10.073H2.723C0.996,12.886,0,16.326,0,20s0.996,7.112,2.723,10.071
			h34.554C39.004,27.112,40,23.674,40,20z M20,28.821l-2.562-4.435h-3.765h-1.297L14.908,20l-1.885-3.265l-0.647-1.122h5.062
			L20,11.177l2.56,4.437h5.062l-2.531,4.385l2.534,4.389H22.56L20,28.821z"/>
		<polygon fill="#FFFFFF" points="20,14.177 19.171,15.613 20.828,15.613 		"/>
		<path fill="#FFFFFF" d="M20,0c-4.46,0-8.578,1.461-11.903,3.927h23.808C28.577,1.461,24.459,0,20,0z"/>
		<polygon fill="#FFFFFF" points="15.774,18.498 16.573,17.111 14.974,17.111 		"/>
		<polygon fill="#FFFFFF" points="14.974,22.886 16.573,22.886 15.774,21.499 		"/>
		<polygon fill="#FFFFFF" points="20,25.82 20.828,24.387 19.171,24.387 		"/>
		<path fill="#3255A5" d="M31.904,3.927H8.097c-2.173,1.611-4.002,3.656-5.374,6h34.554C35.908,7.583,34.075,5.539,31.904,3.927z"/>
		<path fill="#3255A5" d="M37.276,30.071H2.723c1.372,2.346,3.201,4.389,5.374,6h23.808C34.073,34.46,35.908,32.417,37.276,30.071z"
			/>
		<path fill="#3255A5" d="M25.091,19.998l2.531-4.385H22.56L20,11.177l-2.562,4.437h-5.062l0.647,1.122L14.908,20l-2.532,4.387
			h1.297h3.765L20,28.821l2.56-4.435h5.065L25.091,19.998z M20,14.177l0.828,1.437h-1.657L20,14.177z M14.974,22.886l0.801-1.387
			l0.799,1.387H14.974z M15.774,18.498l-0.801-1.387h1.6L15.774,18.498z M20,25.82l-0.829-1.434h1.657L20,25.82z M21.692,22.886
			h-3.386L16.641,20l1.666-2.889h3.386L23.36,20L21.692,22.886z M23.423,22.886l0.802-1.387l0.803,1.387H23.423z M24.225,18.499
			l-0.797-1.388h1.6L24.225,18.499z"/>
	</g>
</g>
</svg>
