<?xml version="1.0" encoding="utf-8"?>
<!-- Generator: Adobe Illustrator 16.0.0, SVG Export Plug-In . SVG Version: 6.00 Build 0)  -->
<!DOCTYPE svg PUBLIC "-//W3C//DTD SVG 1.0//EN" "http://www.w3.org/TR/2001/REC-SVG-20010904/DTD/svg10.dtd">
<svg version="1.0" id="Layer_1" xmlns="http://www.w3.org/2000/svg" xmlns:xlink="http://www.w3.org/1999/xlink" x="0px" y="0px"
	 width="40px" height="40px" viewBox="-8 -8 40 40" enable-background="new -8 -8 40 40" xml:space="preserve">
<g>
	<g>
		<g>
			<path d="M12,32c8.068,0,15.018-4.785,18.179-11.667H-6.182C-3.022,27.215,3.93,32,12,32z"/>
			<path fill="#CE1126" d="M12-8C3.93-8-3.022-3.218-6.182,3.667h36.361C27.018-3.218,20.068-8,12-8z"/>
			<path fill="#FFFFFF" d="M-8,12c0,2.977,0.655,5.794,1.818,8.333h36.361C31.343,17.794,32,14.976,32,12
				c0-2.975-0.657-5.797-1.821-8.333H-6.182C-7.345,6.202-8,9.023-8,12z"/>
		</g>
		<g>
			<g>
				<g>
					<path fill="#009E49" d="M22.247,7.795c-0.172,0.03-1.011,0.912-1.011,1.005c0,0.176,0.271,0.193,0.271,0.333
						c0,0.229,0,0.454,0,0.684c0,1.075,0,2.155,0,3.231c0,0.537,0.225,0.99-0.379,0.969c-0.561-0.02-0.381-0.239-0.381-0.796
						c0-0.608,0.299-3.844-0.043-4.034c-0.205-0.113-1.082,1.102-1.041,1.102c0.244,0,0.208,0.436,0.208,0.558
						c0.034,0.993,0.013,1.99,0.013,2.982c0,0.314-0.301,0.186-0.566,0.186c-0.352,0-0.188-0.566-0.188-0.865
						c0-0.353,0.018-2.595-0.042-2.595c-0.183,0-1.23,1.084-0.985,1.162c0.273,0.086,0.166,0.697,0.137,0.916
						c-1.147-0.168-1.544,0.536-1.582,1.555c-0.01,0.231-0.016,0.461-0.027,0.69c0.513,0,5.739,0.198,5.739,0
						C22.371,14.168,22.291,7.785,22.247,7.795z M17.511,13.921c0-0.505,0.863-0.964,0.754-0.258
						C18.404,14.269,17.511,14.012,17.511,13.921z"/>
					<path fill="#009E49" d="M22.964,12.072c0-0.295-0.244-2.648,0.06-2.842c0.067-0.046,1.284,0.84,0.942,1.137
						c-0.348,0.304-0.14,1.525-0.14,1.894c0,0.567,0,1.134,0,1.701c0,0.316,1.511-0.184,1.497-0.196
						c0.056,0.054-0.184,0.699-0.193,0.787c-0.223,0.342,0.007,0.3-0.566,0.303c-0.535,0.01-1.069,0.017-1.602,0.026
						C22.964,13.943,22.964,13.009,22.964,12.072z"/>
					<path fill="#009E49" d="M18.712,9.137c-0.162-0.011-0.245-0.076-0.255-0.194C18.733,8.89,18.982,9.04,19.259,8.9
						c0.114-0.057,0.298-0.329,0.417-0.367c0.059-0.02,0.413,0.14,0.466,0.151c0.309,0.059,0.364-0.516,0.442-0.504
						c0.423,0.071,0.036,0.773-0.306,0.778C19.769,8.965,19.205,9.313,18.712,9.137z"/>
					<path fill="#009E49" d="M19.368,8.245c-0.112-0.077-0.647-0.815-0.314-0.863C19.446,7.325,19.43,8.287,19.368,8.245z"/>
				</g>
				<g>
					<path fill="#009E49" d="M-0.672,16.241c-0.243-0.088-0.558-0.377-0.662-0.608c0.258,0.579,1.45-0.037,1.533-0.53
						c0.084-0.498-0.741-1.133-0.237-1.366c0.627-0.274,0.545-1.015,0.909,0.072c0.142,0.42,0.728,0.257,1.12,0.252
						c-0.132-0.317-0.46-0.579-0.128-0.813c0.164-0.114,0.768-0.909,0.89-0.909c0.336,0-0.465,1.722,0.468,1.722
						c0.97,0,1.938,0,2.908,0c0.754,0,1.51,0,2.262,0c1.235,0,1.13,0.093,1.13-1.164c0-0.36,0.247-1.526-0.375-1.53
						c-0.632-0.006-0.378,1.583-0.378,1.957c0,0.227-5.649,0.021-5.649,0.07c0-0.62,1.465-1.998,1.874-2.54
						c0.332-0.437,0.665-0.875,0.992-1.317c0.256-0.347,1.231-2.145,1.667-2.2c-0.05,0.005,0.622,1.22,0.097,1.238
						C7.587,8.581,7.383,8.923,7.302,9.021C6.493,10.03,5.16,11.305,4.69,12.51c0.178-0.403,2.82,0.421,3.219,0.044
						c0.254-0.24-0.211-1.009,0.139-1.309c0.237-0.2,0.963-0.908,1.267-0.706c1.163,0.768,1.07,1.04,1.07,2.402
						c0,0.322,0.096,1.978-0.083,1.978c-1.692,0-3.383,0-5.075,0c-1.17,0-2.338,0-3.508,0c-0.283,0-0.644-0.127-0.725,0.175
						C0.778,15.877,0.255,16.583-0.672,16.241z"/>
					<path fill="#009E49" d="M10.976,12.127c0-0.294-0.242-2.638,0.061-2.831c0.1-0.06,1.25,0.835,0.932,1.142
						c-0.337,0.32-0.132,1.501-0.132,1.878c-0.001,0.521,0,1.044,0,1.563c0,0.516,1.163,0.018,1.453-0.047
						c0.031-0.012-0.146,0.699-0.153,0.768c-0.228,0.339,0.01,0.297-0.564,0.303c-0.53,0.007-1.063,0.014-1.595,0.023
						C10.976,13.989,10.976,13.062,10.976,12.127z"/>
					<path fill="#009E49" d="M2.525,16.092c0,0.312-0.258,0.573-0.575,0.573c-0.319,0-0.574-0.261-0.574-0.573
						c0-0.322,0.255-0.576,0.574-0.576C2.267,15.516,2.525,15.77,2.525,16.092z"/>
				</g>
			</g>
		</g>
	</g>
</g>
</svg>
