<?xml version="1.0" encoding="utf-8"?>
<!-- Generator: Adobe Illustrator 16.0.0, SVG Export Plug-In . SVG Version: 6.00 Build 0)  -->
<!DOCTYPE svg PUBLIC "-//W3C//DTD SVG 1.0//EN" "http://www.w3.org/TR/2001/REC-SVG-20010904/DTD/svg10.dtd">
<svg version="1.0" id="Layer_1" xmlns="http://www.w3.org/2000/svg" xmlns:xlink="http://www.w3.org/1999/xlink" x="0px" y="0px"
	 width="24px" height="24px" viewBox="0 0 24 24" enable-background="new 0 0 24 24" xml:space="preserve">
<g>
	<g>
		<g>
			<path d="M12,24c4.841,0,9.011-2.871,10.907-7H1.091C2.987,21.129,7.158,24,12,24z"/>
			<path fill="#CE1126" d="M12,0C7.158,0,2.987,2.869,1.091,7h21.816C21.011,2.869,16.841,0,12,0z"/>
			<path fill="#FFFFFF" d="M0,12c0,1.786,0.393,3.477,1.091,5h21.816C23.606,15.477,24,13.785,24,12c0-1.785-0.394-3.478-1.093-5
				H1.091C0.393,8.521,0,10.214,0,12z"/>
		</g>
		<g>
			<g>
				<g>
					<path fill="#009E49" d="M18.149,9.477c-0.104,0.018-0.607,0.547-0.607,0.603c0,0.106,0.162,0.116,0.162,0.2
						c0,0.137,0,0.272,0,0.41c0,0.645,0,1.293,0,1.939c0,0.322,0.135,0.593-0.227,0.581c-0.336-0.012-0.229-0.143-0.229-0.477
						c0-0.366,0.18-2.307-0.025-2.421c-0.123-0.068-0.65,0.661-0.625,0.661c0.146,0,0.124,0.262,0.125,0.335
						c0.02,0.596,0.008,1.194,0.008,1.79c0,0.188-0.181,0.111-0.34,0.111c-0.211,0-0.113-0.34-0.113-0.52
						c0-0.211,0.01-1.556-0.026-1.556c-0.11,0-0.739,0.65-0.591,0.697c0.164,0.052,0.1,0.418,0.082,0.55
						c-0.689-0.101-0.926,0.321-0.949,0.932c-0.006,0.139-0.01,0.277-0.016,0.414c0.307,0,3.443,0.119,3.443,0
						C18.222,13.301,18.175,9.471,18.149,9.477z M15.306,13.152c0-0.302,0.518-0.578,0.453-0.154
						C15.843,13.361,15.306,13.207,15.306,13.152z"/>
					<path fill="#009E49" d="M18.578,12.043c0-0.177-0.147-1.589,0.036-1.705c0.041-0.028,0.771,0.504,0.566,0.682
						c-0.21,0.182-0.084,0.915-0.084,1.136c0,0.34,0,0.681,0,1.021c0,0.189,0.906-0.111,0.898-0.119
						c0.033,0.033-0.11,0.42-0.116,0.473c-0.134,0.205,0.004,0.18-0.34,0.182c-0.321,0.006-0.641,0.01-0.961,0.016
						C18.578,13.166,18.578,12.606,18.578,12.043z"/>
					<path fill="#009E49" d="M16.028,10.282c-0.098-0.006-0.148-0.045-0.154-0.116c0.166-0.032,0.315,0.058,0.482-0.026
						c0.068-0.034,0.178-0.197,0.25-0.22c0.035-0.012,0.248,0.084,0.279,0.091c0.185,0.035,0.219-0.31,0.266-0.303
						c0.254,0.043,0.021,0.464-0.184,0.467C16.661,10.179,16.323,10.388,16.028,10.282z"/>
					<path fill="#009E49" d="M16.421,9.747c-0.068-0.046-0.389-0.489-0.189-0.518C16.468,9.195,16.458,9.772,16.421,9.747z"/>
				</g>
				<g>
					<path fill="#009E49" d="M4.397,14.545C4.251,14.492,4.062,14.318,4,14.18c0.155,0.348,0.87-0.023,0.92-0.318
						c0.05-0.299-0.445-0.68-0.142-0.82c0.376-0.165,0.327-0.609,0.545,0.043c0.085,0.252,0.437,0.154,0.672,0.152
						c-0.079-0.191-0.276-0.348-0.077-0.489c0.098-0.068,0.461-0.545,0.534-0.545c0.202,0-0.279,1.034,0.281,1.034
						c0.582,0,1.163,0,1.745,0c0.452,0,0.906,0,1.357,0c0.741,0,0.678,0.055,0.678-0.699c0-0.216,0.148-0.916-0.225-0.918
						c-0.379-0.004-0.227,0.951-0.227,1.174c0,0.136-3.389,0.013-3.389,0.042c0-0.372,0.879-1.199,1.124-1.524
						c0.199-0.262,0.399-0.525,0.595-0.79c0.154-0.208,0.739-1.287,1-1.32C9.361,9.205,9.764,9.934,9.449,9.945
						c-0.097,0.003-0.219,0.209-0.268,0.268c-0.485,0.605-1.285,1.37-1.567,2.093c0.107-0.242,1.692,0.252,1.932,0.026
						c0.152-0.144-0.127-0.605,0.083-0.785c0.142-0.12,0.578-0.545,0.76-0.424c0.698,0.461,0.642,0.624,0.642,1.441
						c0,0.194,0.058,1.187-0.05,1.187c-1.015,0-2.03,0-3.045,0c-0.702,0-1.403,0-2.105,0c-0.17,0-0.386-0.076-0.435,0.105
						C5.267,14.326,4.953,14.75,4.397,14.545z"/>
					<path fill="#009E49" d="M11.386,12.076c0-0.176-0.146-1.583,0.036-1.698c0.06-0.036,0.75,0.501,0.559,0.685
						c-0.202,0.192-0.079,0.901-0.079,1.127c-0.001,0.312,0,0.626,0,0.938c0,0.309,0.698,0.01,0.872-0.029
						c0.018-0.006-0.088,0.42-0.093,0.461c-0.136,0.203,0.007,0.178-0.338,0.182c-0.318,0.004-0.638,0.008-0.957,0.014
						C11.386,13.193,11.386,12.637,11.386,12.076z"/>
					<path fill="#009E49" d="M6.315,14.455c0,0.188-0.155,0.344-0.345,0.344c-0.191,0-0.344-0.156-0.344-0.344
						c0-0.193,0.153-0.346,0.344-0.346C6.16,14.109,6.315,14.262,6.315,14.455z"/>
				</g>
			</g>
		</g>
	</g>
</g>
</svg>
