<?xml version="1.0" encoding="utf-8"?>
<!-- Generator: Adobe Illustrator 16.0.0, SVG Export Plug-In . SVG Version: 6.00 Build 0)  -->
<!DOCTYPE svg PUBLIC "-//W3C//DTD SVG 1.0//EN" "http://www.w3.org/TR/2001/REC-SVG-20010904/DTD/svg10.dtd">
<svg version="1.0" id="Layer_1" xmlns="http://www.w3.org/2000/svg" xmlns:xlink="http://www.w3.org/1999/xlink" x="0px" y="0px"
	 width="40px" height="40px" viewBox="0 0 40 40" enable-background="new 0 0 40 40" xml:space="preserve">
<g>
	<g>
		<g>
			<path d="M20,40c8.068,0,15.018-4.785,18.18-11.667H1.818C4.978,35.215,11.93,40,20,40z"/>
			<path fill="#CE1126" d="M20,0C11.93,0,4.978,4.782,1.818,11.667H38.18C35.018,4.782,28.068,0,20,0z"/>
			<path fill="#FFFFFF" d="M0,20c0,2.977,0.655,5.794,1.818,8.333H38.18C39.343,25.794,40,22.977,40,20
				c0-2.975-0.657-5.797-1.82-8.333H1.818C0.655,14.202,0,17.023,0,20z"/>
		</g>
		<g>
			<g>
				<g>
					<path fill="#009E49" d="M30.247,15.795c-0.172,0.03-1.011,0.912-1.011,1.005c0,0.176,0.271,0.193,0.271,0.333
						c0,0.229,0,0.454,0,0.684c0,1.075,0,2.155,0,3.231c0,0.537,0.226,0.99-0.379,0.97c-0.562-0.021-0.381-0.24-0.381-0.797
						c0-0.607,0.299-3.844-0.043-4.034c-0.205-0.113-1.082,1.102-1.041,1.102c0.244,0,0.208,0.436,0.208,0.558
						c0.033,0.993,0.013,1.99,0.013,2.982c0,0.313-0.301,0.187-0.565,0.187c-0.353,0-0.188-0.566-0.188-0.865
						c0-0.354,0.019-2.595-0.042-2.595c-0.184,0-1.23,1.084-0.984,1.162c0.272,0.086,0.166,0.697,0.137,0.916
						c-1.147-0.168-1.545,0.536-1.582,1.555c-0.01,0.231-0.016,0.461-0.027,0.69c0.514,0,5.739,0.198,5.739,0
						C30.371,22.168,30.291,15.785,30.247,15.795z M25.512,21.921c0-0.505,0.862-0.964,0.754-0.258
						C26.404,22.27,25.512,22.012,25.512,21.921z"/>
					<path fill="#009E49" d="M30.964,20.072c0-0.295-0.243-2.648,0.06-2.842c0.067-0.046,1.285,0.84,0.942,1.137
						c-0.348,0.304-0.14,1.525-0.14,1.894c0,0.567,0,1.134,0,1.701c0,0.315,1.511-0.185,1.497-0.196
						c0.056,0.055-0.185,0.699-0.193,0.787c-0.223,0.342,0.007,0.301-0.565,0.303c-0.535,0.011-1.069,0.018-1.603,0.026
						C30.964,21.943,30.964,21.009,30.964,20.072z"/>
					<path fill="#009E49" d="M26.712,17.137c-0.162-0.011-0.245-0.076-0.255-0.194c0.275-0.053,0.525,0.097,0.802-0.043
						c0.114-0.057,0.298-0.329,0.417-0.367c0.059-0.02,0.413,0.14,0.467,0.151c0.309,0.059,0.363-0.516,0.441-0.504
						c0.423,0.071,0.036,0.773-0.307,0.778C27.77,16.965,27.205,17.313,26.712,17.137z"/>
					<path fill="#009E49" d="M27.368,16.245c-0.112-0.077-0.647-0.815-0.313-0.863C27.445,15.325,27.43,16.287,27.368,16.245z"/>
				</g>
				<g>
					<path fill="#009E49" d="M7.328,24.241c-0.243-0.089-0.558-0.377-0.662-0.608c0.258,0.579,1.45-0.037,1.533-0.529
						c0.084-0.498-0.741-1.134-0.237-1.367c0.627-0.273,0.545-1.014,0.909,0.072c0.142,0.42,0.728,0.258,1.12,0.252
						c-0.132-0.316-0.46-0.578-0.128-0.812c0.164-0.114,0.768-0.909,0.89-0.909c0.336,0-0.465,1.722,0.468,1.722
						c0.97,0,1.938,0,2.908,0c0.754,0,1.51,0,2.262,0c1.235,0,1.13,0.094,1.13-1.164c0-0.359,0.247-1.525-0.375-1.529
						c-0.632-0.006-0.378,1.583-0.378,1.957c0,0.227-5.649,0.021-5.649,0.07c0-0.621,1.465-1.999,1.874-2.541
						c0.332-0.437,0.665-0.875,0.992-1.317c0.256-0.347,1.231-2.145,1.667-2.2c-0.05,0.005,0.622,1.22,0.097,1.238
						c-0.162,0.006-0.366,0.348-0.447,0.446c-0.809,1.009-2.142,2.284-2.612,3.489c0.178-0.403,2.82,0.422,3.219,0.045
						c0.254-0.241-0.211-1.01,0.139-1.31c0.237-0.2,0.963-0.908,1.267-0.706c1.163,0.768,1.07,1.04,1.07,2.402
						c0,0.322,0.096,1.978-0.083,1.978c-1.692,0-3.383,0-5.075,0c-1.17,0-2.338,0-3.508,0c-0.283,0-0.644-0.127-0.725,0.175
						C8.778,23.877,8.255,24.583,7.328,24.241z"/>
					<path fill="#009E49" d="M18.976,20.127c0-0.294-0.242-2.638,0.061-2.831c0.1-0.06,1.25,0.835,0.932,1.142
						c-0.337,0.32-0.132,1.501-0.132,1.878c-0.001,0.521,0,1.043,0,1.563c0,0.516,1.163,0.018,1.453-0.047
						c0.03-0.012-0.146,0.699-0.153,0.768c-0.228,0.34,0.01,0.297-0.563,0.303c-0.53,0.008-1.063,0.015-1.595,0.023
						C18.976,21.989,18.976,21.062,18.976,20.127z"/>
					<path fill="#009E49" d="M10.525,24.092c0,0.312-0.258,0.573-0.575,0.573c-0.319,0-0.574-0.261-0.574-0.573
						c0-0.322,0.255-0.576,0.574-0.576C10.267,23.516,10.525,23.77,10.525,24.092z"/>
				</g>
			</g>
		</g>
	</g>
</g>
</svg>
