<?xml version="1.0" encoding="utf-8"?>
<!-- Generator: Adobe Illustrator 16.0.0, SVG Export Plug-In . SVG Version: 6.00 Build 0)  -->
<!DOCTYPE svg PUBLIC "-//W3C//DTD SVG 1.0//EN" "http://www.w3.org/TR/2001/REC-SVG-20010904/DTD/svg10.dtd">
<svg version="1.0" id="Layer_1" xmlns="http://www.w3.org/2000/svg" xmlns:xlink="http://www.w3.org/1999/xlink" x="0px" y="0px"
	 width="40px" height="40px" viewBox="0 0 40 40" enable-background="new 0 0 40 40" xml:space="preserve">
<g>
	<g>
		<path fill="#00539B" d="M10,2.681C5.422,5.333,1.984,9.743,0.635,15H10V2.681z"/>
		<path fill="#00539B" d="M20,15h19.366C37.153,6.383,29.327,0.008,20.018,0H20V15z"/>
		<path fill="#00539B" d="M20,40h0.018c9.31-0.007,17.136-6.382,19.349-15H20V40z"/>
		<path fill="#00539B" d="M0.635,25c1.35,5.257,4.787,9.666,9.365,12.321V25H0.635z"/>
		<path fill="#FFFFFF" d="M20,25h19.366c0.214-0.812,0.365-1.652,0.469-2.5H17.5v17.341C18.32,39.944,19.153,40,20,40l0,0V25z"/>
		<path fill="#FFFFFF" d="M0.166,22.5c0.104,0.848,0.256,1.688,0.469,2.5H10v12.321c0.799,0.457,1.633,0.865,2.5,1.221V22.5H0.166z"
			/>
		<path fill="#FFFFFF" d="M39.835,17.5c-0.104-0.854-0.255-1.688-0.469-2.5H20V0l0,0c-0.847,0-1.68,0.055-2.5,0.16V17.5H39.835z"/>
		<path fill="#FFFFFF" d="M12.5,1.458c-0.867,0.354-1.701,0.765-2.5,1.222V15H0.635c-0.213,0.812-0.364,1.646-0.469,2.5H12.5V1.458z
			"/>
		<path fill="#EF3825" d="M39.835,22.5C39.939,21.682,40,20.848,40,20c0-0.846-0.061-1.68-0.165-2.5H17.5V0.16
			c-1.745,0.215-3.425,0.661-5,1.299V17.5H0.166C0.062,18.32,0,19.154,0,20c0,0.848,0.062,1.682,0.166,2.5H12.5v16.042
			c1.575,0.64,3.255,1.084,5,1.299V22.5H39.835z"/>
	</g>
</g>
</svg>
