<svg xmlns="http://www.w3.org/2000/svg" width="40" height="40" viewBox="0 0 40 40">
    <g fill="none" fill-rule="evenodd">
        <path fill="#009" d="M19.873 0c-6.5 0-12.272 3.122-15.898 7.95h31.797C32.146 3.121 26.374 0 19.873 0M19.873 39.747c6.501 0 12.273-3.122 15.9-7.95H3.974c3.625 4.828 9.396 7.95 15.898 7.95"/>
        <path fill="#C00" d="M35.772 7.95H3.975C1.48 11.27 0 15.4 0 19.872s1.48 8.602 3.975 11.923h31.797c2.495-3.321 3.975-7.45 3.975-11.923 0-4.474-1.48-8.603-3.975-11.924"/>
        <path fill="#FFF" d="M19.655 11.124c.049-.131.16-.22.278-.285.11.068.222.15.267.279.03.105.02.22-.02.33-.168 0-.335 0-.51-.006-.034-.1-.058-.214-.015-.318M19.588 11.825v-.277h.668v.277c-.221.003-.444 0-.668 0M19.452 12.23L20.39 12.23 20.39 11.934 19.452 11.934zM19.332 12.322c.394.008.788.006 1.183 0-.005.106-.005.208-.005.313-.39.01-.784.007-1.176.005-.002-.11-.002-.212-.002-.318"/>
        <path fill="#FFF" d="M19.05 12.538c.1.048.18.125.259.2.406.004.816.004 1.226 0 .079-.075.159-.152.26-.201-.021.113-.13.167-.218.217-.003.11-.003.215-.003.325-.13-.006-.266.005-.4-.006-.087-.042-.163-.12-.265-.128-.088.027-.159.086-.238.128-.132.013-.269 0-.402.006l-.001-.32c-.09-.053-.2-.11-.218-.221M18.853 12.985c.14.007.24.118.346.192.124 0 .248 0 .369.003-.051.062-.094.132-.131.206-.09-.03-.226-.074-.287.033-.039-.068-.025-.155-.027-.227-.107-.049-.208-.111-.27-.207M20.645 13.177c.102-.083.207-.157.327-.208l-.016.073c-.07.06-.148.108-.23.148-.01.15-.023.302-.016.452-.07 0-.138 0-.206-.002.058-.064.115-.134.178-.194.017-.076-.066-.089-.123-.107-.049.016-.103.035-.154.05-.036-.073-.08-.143-.131-.21.123-.002.249-.002.37-.002"/>
        <path fill="#FFF" d="M19.492 13.553c.046-.219.21-.412.417-.499.225.064.392.276.441.502.06-.04.12-.077.185-.112-.052.066-.107.13-.158.19-.138-.084-.279-.172-.445-.204-.169.016-.32.114-.464.204-.055-.06-.11-.12-.158-.188.062.033.121.073.182.107M9.934 13.269c.005-.013.02-.037.027-.05.15.307.298.62.35.963.017.14.026.298-.052.426-.103-.028-.208-.065-.317-.073-.11.016-.216.05-.321.08-.056-.138-.048-.293-.026-.437.062-.317.197-.62.339-.91M29.47 14.079c.071-.303.208-.583.336-.863.03.064.064.126.097.19.147.324.295.673.271 1.038-.018.054-.04.109-.057.164-.103-.025-.208-.06-.314-.074-.11.01-.218.057-.327.076-.084-.166-.047-.36-.007-.531M19.121 13.448l.05-.004c.052.071.113.14.178.198h-.224c0-.064 0-.128-.004-.194M18.667 13.466c.131.036.24.123.348.203.007.027.018.05.023.073h.317c-.035.046-.069.093-.1.14-.088-.035-.178-.058-.269-.058-.01-.032-.014-.057-.021-.09-.118-.062-.28-.117-.298-.268M20.81 13.683c.115-.08.225-.199.375-.202-.052.14-.196.2-.318.256 0 .031-.004.06-.004.087-.092 0-.186.023-.273.058-.033-.048-.067-.094-.1-.14h.32v-.06z"/>
        <path fill="#FFF" d="M19.304 14.019c.087-.243.323-.397.56-.474.067-.026.14.007.204.033.202.085.392.233.47.444.084-.044.17-.078.26-.096-.073.065-.152.128-.228.188-.026.02-.055.031-.087.03-.09 0-.184.006-.275-.007-.099-.032-.188-.1-.296-.108-.104.017-.192.085-.29.112-.106.009-.21.003-.318 0-.085-.076-.177-.144-.267-.215.096.018.182.052.267.093M18.982 14.008c.056.048.118.095.175.141h-.177c0-.046 0-.093.002-.14"/>
        <path fill="#FFF" d="M18.403 14.006c.193.013.34.146.502.24.192.011.387.004.58.004-.142.097-.248.236-.326.389-.116-.056-.251-.107-.38-.056 0-.103-.003-.208 0-.31-.136-.067-.327-.105-.376-.267M20.938 14.245c.161-.093.308-.223.501-.24-.047.163-.238.201-.373.268.002.102 0 .206 0 .307-.131-.047-.266 0-.382.059-.08-.153-.184-.294-.328-.39.193 0 .391.012.582-.004"/>
        <path fill="#FFF" d="M20.682 14.145c.061-.042.122-.089.181-.136v.14c-.059 0-.122 0-.18-.004M19.798 14.173c.053-.02.11-.052.167-.03.301.105.57.338.667.649.1-.07.21-.127.332-.137-.112.11-.222.227-.35.321-.104.006-.21.01-.312-.002-.122-.056-.239-.125-.371-.155-.149.019-.272.112-.412.16-.1 0-.207.014-.306-.007-.116-.1-.227-.207-.33-.317.12.012.229.065.329.137.087-.285.32-.503.586-.619M18.004 14.61c-.046-.043-.03-.107-.029-.161.183.032.336.142.48.249.07.047.134.12.224.134v.11h.295c.095-.009.137.089.205.138l.186.002c-.007.009-.014.026-.016.032-.137.109-.246.252-.341.395-.187.016-.38-.053-.567.004-.007-.217.001-.437-.007-.656-.152-.065-.318-.122-.43-.247M21.27 14.785c.144-.113.29-.226.464-.299.046-.015.094-.036.144-.015-.007.048 0 .098-.036.137-.114.125-.275.189-.431.245-.004.22-.004.441-.008.66-.091-.015-.181-.039-.272-.023-.088.015-.175.026-.262.019-.046.007-.061-.043-.084-.071-.085-.136-.202-.254-.325-.356.066-.002.135.004.203-.003.053-.04.093-.094.145-.13.116-.016.235-.003.356-.007v-.111c.037-.009.075-.021.107-.046M9.755 14.68c.088-.022.184-.059.278-.03.266.069.563.167.722.412.103-.03.204-.066.313-.07-.111.047-.211.12-.323.164-.111.012-.223.004-.334.003-.087-.197-.258-.365-.469-.415-.2.065-.369.218-.452.412-.109.004-.22.012-.329 0-.11-.042-.214-.114-.32-.163.106 0 .203.047.304.063.143-.203.379-.31.61-.376M28.994 15.062c.154-.238.439-.336.701-.406.119-.042.235.009.346.04.215.069.44.167.566.366.1-.034.201-.066.306-.07-.103.048-.201.112-.306.16-.113.017-.229.006-.343.006-.085-.199-.258-.349-.461-.421-.205.07-.38.222-.462.421-.116 0-.23.011-.34-.001-.107-.05-.205-.114-.313-.165.108.004.206.036.306.07"/>
        <path fill="#FFF" d="M18.78 14.842v-.135c.05.043.098.087.146.133-.048 0-.096 0-.145.002M20.917 14.84c.048-.046.095-.09.145-.133v.133h-.145zM9.884 14.876c.089-.05.177.027.247.076.098.085.197.196.193.336-.127-.047-.25-.112-.384-.116-.127.017-.244.069-.361.116 0-.186.155-.33.305-.412M29.743 14.874c.08-.042.158.02.216.062.109.086.218.206.22.354-.122-.048-.244-.107-.377-.118-.135.011-.257.07-.379.118.01-.189.163-.337.32-.416M19.794 14.962c.054-.016.11-.057.17-.029.379.132.727.42.851.808.131-.083.274-.166.432-.154-.144.149-.3.282-.447.427-.073-.004-.161.018-.224-.036-.183-.137-.394-.237-.613-.303-.055-.017-.11.007-.16.026-.21.071-.411.174-.584.313h-.176c-.149-.145-.304-.28-.453-.427.16-.013.304.073.438.15.12-.358.422-.63.766-.775M17.565 15.259c.169-.038.325.073.472.148.152.067.273.203.447.214.169.168.343.33.518.491.034.003.066.007.1.007-.127.114-.23.25-.305.4-.201-.07-.438-.175-.64-.04-.006.012-.015.038-.019.05-.011-.32-.01-.638-.011-.957-.16-.038-.322-.07-.465-.153-.057-.035-.12-.087-.097-.16M22.072 15.277c.066-.025.142-.039.208-.019.021.076-.043.126-.098.16-.144.084-.306.116-.463.15-.003.323 0 .646-.012.964-.006-.013-.015-.04-.021-.05-.066-.04-.14-.07-.219-.073-.147.002-.282.061-.415.118-.084-.15-.18-.291-.308-.406l.097-.008c.174-.165.35-.328.52-.492.06-.013.123-.013.172-.049.17-.114.346-.22.539-.295"/>
        <path fill="#FFF" d="M29.012 15.764c.17-.278.485-.42.79-.502.285.076.573.21.753.45.074.08.027.193.031.288-.211-.21-.489-.358-.78-.412-.296.054-.584.197-.79.418 0-.081-.018-.163-.004-.242M9.147 15.783c.164-.262.448-.421.738-.501.112-.026.215.029.316.064.218.092.437.228.548.443-.002.069-.016.138-.02.209-.207-.215-.495-.365-.79-.41-.287.06-.562.195-.767.413l-.025-.218"/>
        <path fill="#FFF" d="M9.149 16.199c.165-.262.447-.416.735-.496.089-.03.175.011.256.04.23.088.463.215.593.434.014.084 0 .166-.002.246h-.256c-.122-.16-.282-.296-.462-.394-.026-.013-.056-.033-.087-.02-.2.094-.364.246-.504.414H9.17c-.007-.075-.017-.151-.021-.224M29.05 16.127c.166-.217.422-.346.677-.422.097-.032.19.014.28.044.227.085.45.219.58.434.022.078-.003.16 0 .24h-.26c-.129-.158-.28-.297-.458-.392-.03-.012-.057-.035-.086-.021-.2.085-.36.245-.505.405-.08.021-.174.004-.263.008.003-.098-.042-.216.035-.296M18.846 16.676c.167-.46.608-.771 1.063-.901.216.042.419.15.599.277.219.155.4.37.489.625.165-.088.341-.181.53-.166-.171.171-.365.323-.548.488-.163 0-.329.011-.493-.006-.18-.103-.363-.225-.574-.266-.196.052-.38.155-.547.27-.168.009-.336.004-.505.002-.173-.152-.347-.305-.525-.456 0-.011-.002-.03-.004-.038.187-.002.356.086.515.17"/>
        <path fill="#FFF" d="M9.155 17.259c.094-.461.36-.916.784-1.14.073.008.13.066.192.104.323.251.542.633.61 1.036l.027-.002c.106-.107.23-.234.395-.215-.144.22-.29.437-.442.646l-.02-.06c-.157-.325-.404-.623-.736-.78l-.028-.003c-.349.165-.605.482-.754.83-.015-.012-.03-.022-.046-.037-.128-.202-.276-.39-.398-.596.134-.017.248.068.335.158.027.02.043.057.08.059M10.842 16.122l.02.062c.07.07.115.157.149.25.16-.072.33-.162.515-.145-.172.145-.35.28-.522.425-.065 0-.133.012-.195-.004-.094-.055-.184-.116-.27-.18.097-.01.192-.006.287-.006.009-.135.018-.268.016-.402M29.005 17.273c.091-.472.362-.936.797-1.162.437.226.701.69.799 1.164.11-.113.24-.259.417-.227-.152.211-.297.427-.437.64-.157-.357-.42-.68-.779-.85-.362.164-.621.491-.778.85-.143-.213-.29-.425-.435-.642.172-.029.3.116.416.227M17.143 16.173c.046-.052.126-.028.182-.015.258.081.481.233.704.38v.077c.105.02.234-.024.313.063.16.141.321.284.486.423.05 0 .103 0 .154.003.034.04.069.086.103.13-.066.064-.122.134-.178.207-.366 0-.735.004-1.104-.002-.005-.274-.005-.544-.009-.82-.18-.05-.361-.114-.518-.217-.074-.05-.162-.128-.133-.23M22.533 16.153c.056-.01.13-.032.168.022.032.099-.062.173-.133.227-.16.1-.337.167-.518.217-.011.276.006.548-.019.822-.365 0-.731.004-1.099 0-.054-.078-.119-.153-.185-.225.038-.034.068-.08.116-.111.061-.011.143.017.191-.038.168-.146.336-.285.497-.436.086-.007.173-.007.26-.007l.004-.087c.227-.15.457-.304.718-.384"/>
        <path fill="#FFF" d="M8.918 16.434c.03-.086.076-.163.124-.235.023.105.026.218.032.326h.266c-.003.012-.01.036-.015.048-.066.045-.13.098-.201.138-.065.015-.131.003-.2.003-.17-.146-.347-.28-.52-.422.184-.021.35.07.514.142M16.451 18.16c0-.615-.019-1.226-.01-1.84.061.205.194.438.42.472.28.008.557.002.831.006.002.202.007.404.002.606-.257-.14-.515-.283-.799-.37-.108-.026-.234-.06-.344-.004-.076.036-.1.136-.074.214.045.093.136.148.224.193.178.08.374.122.566.163 0 .393.003.79.008 1.18.555.004 1.11 0 1.665.004-.102.121-.178.262-.242.408-.148-.08-.305-.162-.478-.15-.086 0-.158.054-.224.096.044.039.086.083.128.12-.552.009-1.104.004-1.655.004-.001-.361-.009-.724-.009-1.089l-.009-.013zM23.403 16.32c.01.35-.005.703-.003 1.055-.007.225 0 .451-.016.673-.002.407-.008.81-.01 1.215-.552.002-1.104.004-1.655-.005.035-.032.071-.062.101-.098.017-.057-.06-.074-.096-.094-.203-.075-.404.037-.583.124-.061-.148-.142-.282-.238-.405.557-.004 1.11 0 1.665-.004.003-.39.007-.788.012-1.18.201-.047.409-.088.596-.183.07-.036.143-.087.18-.159.056-.089 0-.222-.101-.243-.095-.033-.194-.009-.283.016-.295.078-.563.236-.834.373-.007-.203.014-.405.012-.607.279-.004.555.001.837-.006.226-.04.353-.272.416-.472M28.735 16.616c.04-.108.105-.198.17-.296.006.07.02.136.028.205.089 0 .18 0 .269.003-.096.113-.117.286-.25.362-.065.011-.136.013-.198 0-.186-.132-.346-.284-.53-.417.186-.024.353.063.511.143M30.702 16.355c.048.087.098.17.136.263.16-.086.33-.167.515-.146-.18.133-.347.283-.53.417-.065.016-.133.005-.2.01-.095-.11-.133-.257-.22-.372.087-.002.18-.002.266-.002l.033-.17M10.682 16.747c.09.062.174.137.259.208 0 .007 0 .023.003.03-.036.023-.073.046-.11.066-.005.011-.012.028-.017.035-.046-.112-.086-.23-.135-.34M8.962 16.983c.075-.07.155-.137.241-.204-.042.103-.08.204-.119.308 0-.007-.011-.023-.017-.031-.037-.024-.073-.049-.105-.073"/>
        <path fill="#FFF" d="M18.749 17.971c.167-.532.618-.95 1.14-1.131.065-.02.13.022.19.047.46.199.855.583 1.005 1.069.03.01.05-.021.078-.033.154-.096.338-.2.524-.148-.208.206-.415.417-.62.624l-.507.002c-.049.007-.082-.024-.12-.05-.143-.093-.298-.172-.46-.23-.041-.022-.085-.016-.124.002-.18.07-.361.156-.52.276-.184.002-.37 0-.556 0-.2-.202-.406-.399-.6-.609 0-.008.001-.021.003-.029.207-.02.406.094.567.21M9.89 16.983c.056-.045.122-.006.172.033.367.247.607.664.682 1.094.124-.1.244-.25.419-.227-.142.216-.289.43-.44.642-.018-.003-.041-.003-.063-.003-.137-.31-.343-.603-.627-.797-.037-.02-.085-.055-.125-.025-.312.19-.52.501-.673.821-.065.026-.092-.042-.122-.085-.125-.187-.26-.363-.374-.553.145-.018.263.084.36.179.017.013.033.047.058.028.092-.44.34-.869.733-1.107M29.536 17.133c.08-.066.163-.144.266-.171.204.08.359.25.489.422.142.211.261.448.293.704.013 0 .028 0 .046.002.099-.108.226-.226.385-.207-.139.216-.289.425-.434.639h-.078l-.017-.064c-.127-.25-.286-.486-.51-.663-.055-.04-.105-.09-.174-.107-.084.024-.15.089-.217.142-.224.187-.375.44-.502.695l-.06-.003c-.144-.21-.294-.425-.434-.635.172-.028.305.12.416.234l.02-.12c.09-.329.255-.639.511-.868"/>
        <path fill="#FFF" d="M16.569 17.13c.124-.059.265-.008.386.03.272.1.525.235.77.38.373.005.744 0 1.115.003-.057.084-.1.177-.142.266-.14-.08-.288-.15-.452-.152-.09.002-.175.048-.248.101.253.242.489.5.74.743h.167c.042.058.08.12.123.18h-1.653c.005-.392-.015-.776-.017-1.168-.242-.05-.5-.088-.71-.225-.06-.03-.085-.093-.08-.158M22.88 17.162c.126-.04.269-.094.396-.029.012.11-.093.17-.174.21-.193.088-.407.132-.615.164-.02.395-.016.782-.02 1.172-.554 0-1.11.003-1.667 0l.124-.176c.062-.002.121-.002.185-.002.242-.25.487-.494.73-.742-.067-.059-.147-.102-.24-.102-.162.002-.313.072-.45.152-.046-.089-.093-.182-.143-.266.371-.004.743 0 1.112-.004.242-.147.497-.276.763-.377M11.165 17.223c.071.102.133.21.174.33.21-.122.442-.235.693-.193-.147.134-.294.26-.444.386-.106.053-.232.055-.347.08-.15-.111-.302.022-.451.06-.004-.031-.012-.061-.018-.093.138-.187.262-.38.393-.57M8.592 17.552c.036-.107.092-.214.153-.307.13.175.243.363.377.538.002.013.003.033.007.047-.327-.053-.656-.125-.96-.264-.108-.049-.19-.128-.273-.206.249-.043.485.071.696.192M28.412 17.735c.057-.153.131-.297.241-.413.098.148.202.293.3.44.034.046 0 .105-.002.156-.096-.061-.194-.14-.318-.14-.075 0-.13.055-.17.105.064.095.127.19.195.285-.076-.007-.162.019-.232-.015-.241-.2-.473-.41-.714-.614.248-.042.492.067.7.196M30.933 17.354c.03 0 .04.033.059.05.07.102.127.21.166.329.216-.12.457-.252.713-.19-.257.192-.485.42-.736.616-.06.02-.127.007-.19.009.064-.095.13-.19.199-.285-.047-.048-.1-.1-.17-.1-.124-.008-.224.065-.317.13l-.04-.118c.117-.138.204-.3.316-.441M7.875 17.505c.224.17.497.256.766.328l-.023.06c.154.228.312.456.467.681.021.044.068.055.111.06-.051.112-.081.23-.115.349-.031.104-.037.213-.03.321-.104-.05-.222-.1-.336-.067-.043.02-.08.047-.119.077.16.17.314.343.472.513-.403 0-.81 0-1.21-.003 0-.15-.003-.302.01-.452.004-.621.004-1.245.007-1.867"/>
        <path fill="#FFF" d="M27.528 17.505c.286.262.584.505.873.761.11.006.22 0 .328.006.078.121.16.237.24.352h.076c-.004.014-.014.039-.016.05-.072.2-.148.408-.125.628-.096-.037-.193-.087-.299-.071-.063.002-.109.05-.152.086.16.166.308.346.474.51-.472 0-.945 0-1.416-.003l.001-.761c.02-.52.012-1.038.016-1.558M11.257 17.928c.348-.066.72-.129 1-.364 0 .074 0 .153-.005.229-.022.274-.011.55-.023.827-.024.286-.016.572-.027.86-.012.117-.012.235-.014.353l-1.361-.001c.15-.164.295-.33.446-.487.006-.014.011-.035.013-.05-.13-.113-.303-.053-.446 0 .04-.23-.058-.453-.138-.664.019 0 .058-.002.076-.006.163-.23.323-.464.479-.697M31.166 18.27c.248-.21.49-.423.736-.636-.004.367-.008.728-.03 1.09-.001.37-.024.737-.032 1.108-.384 0-.775.003-1.163-.005.162-.164.315-.344.475-.513-.121-.137-.313-.083-.455-.012.024-.232-.06-.453-.138-.668.018-.003.054-.012.071-.016.091-.107.161-.233.243-.346.097-.002.194-.002.293-.002M29.106 18.755c.135-.377.353-.743.697-.962.322.214.537.548.672.906.055.163.125.328.123.503-.167-.306-.442-.553-.768-.67-.043-.02-.08.011-.12.023-.301.127-.551.359-.704.647-.001-.156.056-.302.1-.447M9.243 18.794c.134-.386.347-.766.694-.993l.027.002c.345.225.559.603.69.984.046.138.09.278.103.423-.173-.305-.445-.558-.778-.679-.056-.019-.112.024-.164.044-.286.13-.515.36-.666.628 0-.14.05-.276.094-.41M19.708 18.297c.073-.033.143-.078.22-.085.348.113.66.335.888.62.116.154.221.321.269.512.183-.1.377-.24.6-.192-.2.211-.413.41-.61.627-.767.007-1.537.005-2.304.003-.2-.215-.415-.415-.614-.632.206-.036.4.065.562.181.01.005.027.008.037.011.14-.468.514-.84.952-1.045M19.024 18.503l.179-.002-.103.097c-.023-.032-.05-.063-.076-.095M20.637 18.503h.167c-.02.028-.043.057-.063.09-.032-.033-.07-.062-.104-.09"/>
        <path fill="#FFF" d="M9.836 18.673c.05-.016.104-.057.157-.032.36.153.661.469.754.856.12-.082.247-.177.4-.17-.13.156-.275.298-.406.452-.527.007-1.055.005-1.58.003-.131-.157-.279-.295-.404-.455.15-.007.28.075.388.172.1-.357.357-.66.691-.826M29 19.499c.106-.397.417-.733.802-.868.383.14.694.471.799.868.116-.093.245-.182.399-.17-.106.125-.225.239-.33.364-.04.038-.073.1-.137.09-.508.001-1.013.003-1.52 0-.134-.156-.275-.3-.411-.454.155-.012.285.079.399.17M6.932 18.92c.279.005.557 0 .833.005l-.002.857c-.274.004-.552 0-.831.003v-.864M12.317 18.924c1.349 0 2.697 0 4.048-.003 0 .149.004.294.004.442.037 0 .074.004.114.004.059.207.239.385.458.415-1.549.004-3.099.002-4.649 0 .002-.286.025-.572.025-.858M23.478 18.924c1.31-.003 2.623 0 3.93-.003.008.05.008.097.013.144-.023.239-.007.478-.012.717-1.502 0-3.004.004-4.508-.003.22-.03.4-.205.46-.412.039-.004.076-.004.112-.004 0-.148.003-.293.005-.439M31.945 19.782c0-.285.024-.572.025-.857.316 0 .63-.004.94 0 .003.285 0 .572.003.857-.324.002-.647.002-.968 0"/>
        <path fill="#FFF" d="M16.587 19.367c.544-.004 1.09-.004 1.634 0 .104.105.217.21.32.322-.506.004-1.01.004-1.517 0-.195 0-.37-.142-.437-.322M21.621 19.367c.545 0 1.09-.004 1.635 0-.064.18-.241.32-.438.322-.506.004-1.012 0-1.519 0 .108-.106.217-.218.322-.322M12.55 19.881h4.625c0 .27.004.535 0 .8-1.538 0-3.082.002-4.625 0v-.8zM19.028 19.882h.273v.398c-.089-.135-.182-.265-.273-.398M19.4 19.881c.165.01.328-.016.486.017.184-.033.37-.007.553-.017.004 3.007 0 6.01.004 9.015-.17.016-.34.009-.51.009-.176 0-.353.007-.534-.009.003-3.004 0-6.01 0-9.015M20.543 19.881h.257c-.08.128-.176.238-.257.36-.002-.12-.002-.238 0-.36M20.926 19.882h.219c.004 1.327 0 2.652 0 3.978h-.103v-2.163h-.499c0-.425-.004-.85.001-1.28.116-.186.262-.35.382-.535M22.55 19.882h4.536l.001.799H22.55v-.799M27.19 19.89c.066.007.135.008.207.007.008.007.021.022.032.03l1.642.002c0 1.307-.002 2.62 0 3.927l-.065.001v-2.16h-.599c-.025.153.007.304-.008.454-.004.176-.008.347.008.522v.177c-.018.288.013.574-.008.858 0 .051.004.098.008.148-.406.003-.812 0-1.219 0 .002-1.322-.003-2.646.002-3.965M31.958 19.898c.034 0 .067-.001.105-.005.008.005.025.012.032.014-.004 1.316-.004 2.63 0 3.95-.278.002-.552 0-.831 0 0-.72 0-1.442.002-2.16h-.602v2.156c-.017.003-.055.003-.071.004 0-1.308.002-2.617 0-3.925.413 0 .824 0 1.234.002.045 0 .1.008.131-.036M7.168 20.681L7.489 20.681 7.489 19.881 7.168 19.881zM7.588 23.86v-3.978h.157l.028.045c.472 0 .948 0 1.422.004v3.926l-.078.002c0-.72.005-1.44 0-2.162h-.596v2.162c-.311.005-.62 0-.933 0M12.29 19.882h.157c.003 1.327 0 2.654.003 3.978h-1.07c.002-.721 0-1.442.002-2.163h-.603v2.163h-.072V19.93c.528 0 1.055.003 1.582.003v-.052zM17.277 23.86v-3.978h1.319v3.977h-.098v-2.162h-.6c.002.721 0 1.441 0 2.162-.206 0-.413.005-.621 0M18.698 23.86V19.88h.204c.135.19.265.383.4.575v1.241h-.498c-.004.719-.004 1.441 0 2.16l-.106.002M21.247 23.864v-3.981h1.2v3.98c-.156-.006-.313 0-.471-.004.004-.72.004-1.44.004-2.162h-.603c.003.721 0 1.441.003 2.16-.045.002-.089.002-.133.007M32.197 19.881h.392v.8h-.392c0-.265-.003-.53 0-.8M9.294 19.93h.133v4.65c-.043 0-.087 0-.133.005v-4.656zM9.53 19.93l.84.001v4.65c-.28.004-.56 0-.84.004v-4.656M29.173 19.931c.043-.002.087-.002.13-.002v4.656c-.043-.005-.087-.005-.13-.005v-4.649zM29.406 24.58v-4.649h.849v4.65c-.285.004-.567.004-.85 0M10.473 24.58v-4.649h.132v4.654c-.042-.004-.089-.004-.132-.004M30.355 24.585V19.93h.135v4.65c-.043 0-.09 0-.135.004M7.303 20.784h.186v3.075h-.182c0-1.026 0-2.05-.004-3.075M12.55 20.784c1.543-.004 3.087 0 4.625 0 0 1.024 0 2.049.004 3.075h-.292v-2.162h-.6c0 .72-.002 1.441 0 2.162l-.302-.001v-2.161h-.6v2.162h-.196c.003-.719 0-1.441.003-2.162-.205 0-.407-.002-.61.002v2.16h-.195v-2.162h-.6v2.16c-.098.007-.198.002-.302.002v-2.162h-.6v2.162h-.335v-3.075zM22.55 20.784c1.511-.004 3.026 0 4.537 0v3.075h-.207c-.002-.72 0-1.441-.002-2.162h-.598c0 .718-.003 1.441 0 2.16-.104.002-.204.002-.304.002 0-.72-.002-1.444 0-2.162h-.6v2.162h-.202v-2.162h-.6v2.162h-.192v-2.162h-.612c0 .72.004 1.443 0 2.167-.098-.005-.196-.005-.294-.005-.002-.719 0-1.441 0-2.162h-.6c.002.67 0 1.34 0 2.01 0 .053-.006.106-.014.16-.104-.01-.208-.008-.314-.008l.001-3.075M32.186 20.786c.085-.002.173-.002.258-.002v3.075c-.085 0-.173 0-.258-.002V20.786z"/>
        <path fill="#FFF" d="M8.622 21.8h.396v2.056c-.134 0-.264 0-.396.002V21.8zM10.882 21.8c.131 0 .267-.004.4 0-.003.681 0 1.369-.003 2.056-.132.002-.266 0-.397 0V21.8zM13.891 21.8h.398c0 .681-.005 1.369 0 2.056-.133.002-.265 0-.398 0V21.8zM14.682 21.8h.407v2.056c-.136.002-.27.002-.407 0 .003-.687 0-1.375 0-2.056M15.488 23.856V21.8c.13-.005.262 0 .39 0v2.056h-.39M16.387 21.8h.4v2.058c-.133-.002-.265-.002-.4-.002V21.8zM17.997 21.8h.399v2.058c-.133-.002-.264 0-.399 0V21.8zM18.903 21.8c.132 0 .264-.004.398 0v2.056c-.134.002-.266 0-.398 0 .002-.687.002-1.375 0-2.056M20.543 21.8h.397v2.056h-.399c.002-.687 0-1.375.002-2.056M21.48 21.8c.134-.004.267 0 .398 0-.002.681 0 1.369 0 2.056-.13.002-.264.002-.398 0V21.8zM22.98 21.8h.397c-.002.681-.002 1.369 0 2.056-.133.002-.263 0-.396.002-.002-.018-.004-.051-.007-.068.009-.158.003-.315.005-.47V21.8zM23.872 21.8c.134 0 .27-.004.405 0v2.056c-.135.002-.271 0-.405 0V21.8zM24.675 21.8h.396v2.056c-.13 0-.263.002-.396 0V21.8zM26.38 21.8c.133 0 .265-.004.395 0v2.056c-.13.002-.262 0-.394.002-.02-.258.008-.514-.012-.77 0-.192-.003-.384.01-.573-.02-.24-.006-.478.002-.715M28.5 21.8c.132-.004.27-.004.404 0-.002.681-.002 1.369 0 2.056-.134.002-.272.002-.404 0V21.8zM30.768 21.8c.133 0 .264-.004.397 0-.003.681-.003 1.369-.003 2.056h-.394V21.8zM12.988 23.856V21.8h.397c0 .682-.005 1.369 0 2.056h-.397M25.477 21.8h.4v2.056c-.134.002-.267 0-.4.002V21.8zM8.81 23.96c.088 0 .178 0 .271.004-.024.207-.072.408-.096.617-.112.004-.223.004-.332 0 .058-.204.096-.416.157-.62M10.812 23.964c.078 0 .157-.003.232-.003.061.205.103.417.158.62-.095.004-.191.004-.284 0-.035-.203-.068-.412-.106-.617M7.273 23.98c.058-.037.151-.008.22-.016-.104.205-.213.407-.316.616h-.166c.087-.199.162-.408.262-.6M7.29 24.58c.107-.202.211-.415.32-.62.362.004.722 0 1.082.004-.034.207-.092.414-.14.617-.423 0-.844.004-1.262 0M9.165 24.127l.022-.174c.012.208.004.417.007.627-.037 0-.073 0-.11.005.023-.154.045-.306.08-.458M11.159 23.964c.444-.003.889 0 1.33-.003.108.208.213.417.322.62-.502.004-1.001 0-1.507 0-.047-.203-.107-.41-.145-.617M12.607 23.964c1.528-.003 3.054-.003 4.582 0-.106.207-.224.414-.335.616-1.309 0-2.619.005-3.931 0-.102-.209-.213-.409-.316-.616M16.973 24.58c.11-.209.224-.41.336-.62.398.004.797 0 1.194.004-.058.206-.113.414-.17.617-.455 0-.905.004-1.36 0M18.486 24.416c.038-.15.08-.302.12-.452.136 0 .272-.009.409.008-.043.2-.07.408-.107.609-.16.004-.316.004-.47 0 .014-.053.03-.112.048-.165M19.118 23.964c.06-.003.123-.003.183-.003v.624c-.097 0-.198 0-.294-.005.038-.202.07-.41.111-.616M20.541 24.585c.002-.207 0-.416.002-.625.04 0 .08.004.123.008.035.202.078.41.101.612-.074 0-.151 0-.226.005M20.772 23.964c.12-.003.243 0 .37 0 .057.205.111.407.168.616-.148.005-.295.005-.441 0-.021-.21-.069-.41-.097-.616M21.245 23.964c.399-.003.797 0 1.195-.003.118.205.224.417.34.62-.455.004-.912.004-1.367 0-.055-.21-.111-.412-.168-.617M22.56 23.964c1.51-.003 3.02-.003 4.527 0-.095.208-.207.414-.312.616-1.296 0-2.59.005-3.88 0-.108-.209-.227-.409-.334-.616M27.206 23.964c.438-.003.874 0 1.312-.003.009.008.017.022.023.027-.064.196-.108.398-.16.592-.496.005-.992.005-1.489 0 .101-.209.212-.409.314-.616M28.647 23.96c.107 0 .214.004.32.004l-.106.621c-.126-.004-.252 0-.375-.004.055-.204.105-.412.16-.62M28.972 24.585c.018-.216.073-.42.09-.63.008.21.008.416.008.63h-.098zM30.696 23.964c.119-.003.242-.003.36 0 .056.205.106.414.165.616-.141.005-.28 0-.422 0-.036-.202-.07-.41-.103-.616M31.162 23.96c.31.004.62 0 .927.004.108.205.214.408.32.617-.362.004-.724.004-1.085 0-.054-.204-.11-.412-.162-.62M32.206 23.964c.092-.003.18-.003.275 0 .085.205.175.407.257.616-.072.005-.142 0-.215 0-.104-.202-.217-.408-.317-.616M30.592 24.585c0-.206 0-.408.005-.61.027.202.066.404.1.605-.034 0-.067 0-.105.005M10.715 24.002c.035.191.066.387.1.578h-.108c.002-.19-.002-.387.008-.578M29.142 24.683h.134V28.9c-.044-.003-.088-.003-.134-.003v-4.213zM30.327 24.682c.04.014.144-.032.133.039.002 1.393 0 2.786 0 4.175h-.133c.002-1.404 0-2.806 0-4.214M6.157 24.683h3.037v.16c-1.014.007-2.026 0-3.038.001v-.16M9.294 28.899c.004-1.408 0-2.81 0-4.216.046 0 .09 0 .133.002.003 1.405 0 2.806.003 4.212-.043.002-.09.002-.136.002M9.53 28.896v-4.212h.84v4.212c-.278.012-.56.012-.84 0M10.473 24.683h.132c0 1.409.004 2.814-.001 4.224-.044-.002-.086-.002-.13-.002l-.001-4.222M10.708 24.683h8.593v.16h-8.594l.001-.16M20.541 24.842l.002-.159h8.497c0 .055 0 .111.002.16H20.54M29.376 24.683h.849v4.212c-.147.021-.297-.004-.445.01-.135.003-.268 0-.404-.01.004-1.403 0-2.805 0-4.212M30.561 24.842c0-.048 0-.104.002-.159h2.922v.16H30.56M20.543 24.948h8.497v.599c-.256.004-.512 0-.77.004-1.239-.004-2.474-.004-3.712-.004-1.337 0-2.678.004-4.015 0 0-.2-.002-.4 0-.6M5.74 24.948h3.454v.599c-.382.006-.766 0-1.151 0-.767 0-1.536.004-2.305 0l.001-.6M10.708 24.948h8.593c.002.199 0 .399.002.599-1.063.004-2.122 0-3.184 0h-4.104c-.317.004-.642 0-.958 0h-.35l.001-.6M30.563 24.948h3.342c.016.199.002.399.008.599-.352.004-.698 0-1.048 0-.311 0-.622 0-.932.004-.315-.004-.623-.004-.935-.004-.148.004-.292 0-.437 0 0-.2 0-.4.002-.6M5.01 25.651h4.046c.048 0 .093.006.139.01v.23c0 .177-.004.357.001.54-1.395.002-2.791 0-4.186 0v-.78zM10.707 25.656c1.288-.012 2.57-.003 3.852-.005h4.742c.002.258 0 .52.002.78-2.866.002-5.731.002-8.596 0v-.775M20.543 25.651h8.497v.78h-8.499c.002-.26 0-.522.002-.78M30.563 26.43c0-.26-.002-.52 0-.781 1.395.003 2.789.003 4.182.003v.779h-4.182M3.96 26.532c1.744.004 3.49-.002 5.234.006v1.13c-1.744.004-3.49 0-5.236 0 0-.378 0-.757.002-1.136M10.708 26.532c2.864 0 5.728.004 8.593 0 .002.379 0 .758 0 1.135h-8.594l.001-1.135M20.543 26.532h8.497l.001 1.135h-8.498c0-.377-.002-.756 0-1.135M30.563 26.532c1.742.004 3.484 0 5.227 0 .003.379.003.758.003 1.135h-5.23c-.002-.377-.002-.756 0-1.135M2.92 27.776h6.274v1.115c-2.094.006-4.185.005-6.28.005.005-.374 0-.749.005-1.12M10.708 27.776h8.593v1.12h-8.594l.001-1.12M20.543 27.776h8.497l.001 1.12h-8.498c0-.374-.002-.749 0-1.12M30.563 27.776h6.269v1.12H30.56c.002-.374 0-.749.002-1.12"/>
    </g>
</svg>
