<?xml version="1.0" encoding="utf-8"?>
<!-- Generator: Adobe Illustrator 16.0.0, SVG Export Plug-In . SVG Version: 6.00 Build 0)  -->
<!DOCTYPE svg PUBLIC "-//W3C//DTD SVG 1.0//EN" "http://www.w3.org/TR/2001/REC-SVG-20010904/DTD/svg10.dtd">
<svg version="1.0" id="Layer_1" xmlns="http://www.w3.org/2000/svg" xmlns:xlink="http://www.w3.org/1999/xlink" x="0px" y="0px"
	 width="40px" height="40px" viewBox="0 0 40 40" enable-background="new 0 0 40 40" xml:space="preserve">
<g>
	<g>
		<circle fill="#FFFFFF" cx="20" cy="20" r="20"/>
		<g>
			<g>
				<circle fill="#CE2028" cx="20.001" cy="20.215" r="7.942"/>
				<path fill="#1E4384" d="M13.209,16.111c-1.134,1.878-0.538,4.316,1.335,5.447c1.875,1.139,4.313,0.539,5.447-1.334
					c1.135-1.873,3.573-2.471,5.444-1.333c1.875,1.131,2.475,3.572,1.335,5.441c-2.268,3.75-7.141,4.943-10.892,2.675
					C12.135,24.736,10.94,19.861,13.209,16.111z"/>
			</g>
			<g>
				
					<rect x="5.245" y="6.881" transform="matrix(-0.8285 -0.5599 0.5599 -0.8285 4.6445 23.1523)" fill="#010101" width="1.243" height="7.967"/>
				
					<rect x="6.834" y="7.952" transform="matrix(-0.8281 -0.5606 0.5606 -0.8281 6.938 26.0011)" fill="#010101" width="1.243" height="7.97"/>
				
					<rect x="8.42" y="9.023" transform="matrix(-0.8293 -0.5588 0.5588 -0.8293 9.2727 28.8465)" fill="#010101" width="1.243" height="7.969"/>
			</g>
			<g>
				<g>
					
						<rect x="31.532" y="23.806" transform="matrix(-0.8287 -0.5598 0.5598 -0.8287 44.4421 64.9046)" fill="#010101" width="1.246" height="3.69"/>
					
						<rect x="29.142" y="27.352" transform="matrix(-0.8308 -0.5565 0.5565 -0.8308 38.2444 70.0176)" fill="#010101" width="1.242" height="3.688"/>
				</g>
				<g>
					
						<rect x="33.122" y="24.877" transform="matrix(-0.828 -0.5607 0.5607 -0.828 46.701 67.7689)" fill="#010101" width="1.242" height="3.692"/>
					
						<rect x="30.732" y="28.422" transform="matrix(-0.828 -0.5607 0.5607 -0.828 40.3433 72.9088)" fill="#010101" width="1.242" height="3.691"/>
				</g>
				<g>
					
						<rect x="34.709" y="25.949" transform="matrix(-0.8293 -0.5589 0.5589 -0.8293 49.0953 70.5853)" fill="#010101" width="1.242" height="3.688"/>
					
						<rect x="32.318" y="29.494" transform="matrix(-0.8296 -0.5583 0.5583 -0.8296 42.768 75.7278)" fill="#010101" width="1.242" height="3.689"/>
				</g>
			</g>
			<g>
				
					<rect x="31.93" y="7.951" transform="matrix(-0.8297 0.5582 -0.5582 -0.8297 66.217 3.6656)" fill="#010101" width="1.239" height="7.967"/>
				<g>
					
						<rect x="32.319" y="7.247" transform="matrix(-0.8286 0.5599 -0.5599 -0.8286 65.3233 -1.8147)" fill="#010101" width="1.241" height="3.691"/>
					<polygon fill="#010101" points="35.85,14.516 36.876,13.82 34.814,10.759 33.784,11.457 					"/>
				</g>
				<g>
					
						<rect x="29.146" y="9.387" transform="matrix(-0.8291 0.5591 -0.5591 -0.8291 60.7256 3.9077)" fill="#010101" width="1.24" height="3.694"/>
					
						<rect x="31.535" y="12.934" transform="matrix(-0.8288 0.5595 -0.5595 -0.8288 67.0773 9.0374)" fill="#010101" width="1.242" height="3.692"/>
				</g>
			</g>
			<g>
				
					<rect x="8.424" y="23.437" transform="matrix(-0.8299 0.558 -0.558 -0.8299 31.8486 45.1314)" fill="#010101" width="1.239" height="7.968"/>
				
					<rect x="5.248" y="25.582" transform="matrix(-0.8291 0.5591 -0.5591 -0.8291 27.262 50.7975)" fill="#010101" width="1.24" height="7.966"/>
				<g>
					
						<rect x="5.639" y="24.879" transform="matrix(-0.8285 0.5599 -0.5599 -0.8285 26.4108 45.3596)" fill="#010101" width="1.243" height="3.689"/>
					
						<rect x="8.03" y="28.421" transform="matrix(-0.8296 0.5583 -0.5583 -0.8296 32.7268 50.5444)" fill="#010101" width="1.242" height="3.69"/>
				</g>
			</g>
		</g>
	</g>
</g>
</svg>
