<?xml version="1.0" encoding="utf-8"?>
<!-- Generator: Adobe Illustrator 16.0.0, SVG Export Plug-In . SVG Version: 6.00 Build 0)  -->
<!DOCTYPE svg PUBLIC "-//W3C//DTD SVG 1.0//EN" "http://www.w3.org/TR/2001/REC-SVG-20010904/DTD/svg10.dtd">
<svg version="1.0" id="Layer_1" xmlns="http://www.w3.org/2000/svg" xmlns:xlink="http://www.w3.org/1999/xlink" x="0px" y="0px"
	 width="24px" height="24px" viewBox="0 0 24 24" enable-background="new 0 0 24 24" xml:space="preserve">
<g>
	<g>
		<path fill="#CE1126" d="M12,24c4.843,0,9.012-2.869,10.908-7H1.092C2.988,21.131,7.158,24,12,24z"/>
		<path fill="#009977" d="M12,0C7.158,0,2.988,2.871,1.092,7h21.815C21.012,2.871,16.843,0,12,0z"/>
		<path fill="#FFFFFF" d="M0,12c0,1.786,0.392,3.479,1.092,5h21.815c0.7-1.521,1.093-3.215,1.093-5c0-1.784-0.393-3.477-1.093-4.999
			H1.092C0.392,8.523,0,10.215,0,12z"/>
		<path d="M0,12c0,3.315,1.345,6.311,3.517,8.481L7,17V7L3.517,3.517C1.345,5.688,0,8.686,0,12z"/>
	</g>
</g>
</svg>
