<?xml version="1.0" encoding="utf-8"?>
<!-- Generator: Adobe Illustrator 16.0.0, SVG Export Plug-In . SVG Version: 6.00 Build 0)  -->
<!DOCTYPE svg PUBLIC "-//W3C//DTD SVG 1.1//EN" "http://www.w3.org/Graphics/SVG/1.1/DTD/svg11.dtd">
<svg version="1.1" id="Layer_1" xmlns="http://www.w3.org/2000/svg" xmlns:xlink="http://www.w3.org/1999/xlink" x="0px" y="0px"
	 width="40px" height="40px" viewBox="0 0 40 40" enable-background="new 0 0 40 40" xml:space="preserve">
<g>
	<g>
		<path fill="#CE1126" d="M20,40c8.07,0,15.02-4.782,18.182-11.667H1.82C4.979,35.218,11.93,40,20,40z"/>
		<path fill="#009977" d="M20,0C11.93,0,4.979,4.785,1.82,11.667h36.36C35.02,4.785,28.07,0,20,0z"/>
		<path fill="#FFFFFF" d="M0,20c0,2.977,0.653,5.798,1.82,8.333h36.36C39.346,25.798,40,22.977,40,20
			c0-2.974-0.654-5.795-1.82-8.332H1.82C0.653,14.205,0,17.025,0,20z"/>
		<path d="M0,20c0,5.523,2.242,10.518,5.862,14.134l5.805-5.801V11.667L5.862,5.862C2.242,9.48,0,14.477,0,20z"/>
	</g>
</g>
<path fill="#D0D0D5" d="M39,20c0,2.991-0.714,5.812-1.951,8.333h1.115C39.331,25.794,40,22.978,40,20
	c0-2.978-0.669-5.794-1.836-8.333h-1.115C38.286,14.187,39,17.008,39,20z"/>
</svg>
