<?xml version="1.0" encoding="utf-8"?>
<!-- Generator: Adobe Illustrator 16.0.0, SVG Export Plug-In . SVG Version: 6.00 Build 0)  -->
<!DOCTYPE svg PUBLIC "-//W3C//DTD SVG 1.0//EN" "http://www.w3.org/TR/2001/REC-SVG-20010904/DTD/svg10.dtd">
<svg version="1.0" id="Layer_1" xmlns="http://www.w3.org/2000/svg" xmlns:xlink="http://www.w3.org/1999/xlink" x="0px" y="0px"
	 width="40px" height="40px" viewBox="-8 -8 40 40" enable-background="new -8 -8 40 40" xml:space="preserve">
<g>
	<g>
		<path fill="#CE1126" d="M12,32c8.071,0,15.02-4.782,18.181-11.667H-6.18C-3.021,27.218,3.93,32,12,32z"/>
		<path fill="#009977" d="M12-8C3.93-8-3.021-3.215-6.18,3.667h36.359C27.02-3.215,20.071-8,12-8z"/>
		<path fill="#FFFFFF" d="M-8,12c0,2.977,0.653,5.798,1.82,8.333h36.359C31.346,17.798,32,14.976,32,12
			c0-2.974-0.654-5.795-1.821-8.332H-6.18C-7.347,6.205-8,9.025-8,12z"/>
		<path d="M-8,12c0,5.524,2.242,10.518,5.862,14.134l5.805-5.801V3.667l-5.805-5.805C-5.758,1.48-8,6.477-8,12z"/>
	</g>
</g>
</svg>
