<?xml version="1.0" encoding="utf-8"?>
<!-- Generator: Adobe Illustrator 16.0.0, SVG Export Plug-In . SVG Version: 6.00 Build 0)  -->
<!DOCTYPE svg PUBLIC "-//W3C//DTD SVG 1.0//EN" "http://www.w3.org/TR/2001/REC-SVG-20010904/DTD/svg10.dtd">
<svg version="1.0" id="Layer_1" xmlns="http://www.w3.org/2000/svg" xmlns:xlink="http://www.w3.org/1999/xlink" x="0px" y="0px"
	 width="40px" height="40px" viewBox="0 0 40 40" enable-background="new 0 0 40 40" xml:space="preserve">
<g>
	<g>
		<circle fill="#00B5CC" cx="20" cy="20" r="20"/>
		<g>
			<path fill="#FEC91B" d="M10.226,18.155c0.03-0.042,0.09-0.032,0.121-0.003c0.095,0.083,0.143,0.193,0.205,0.294
				c0.31,0.592,0.54,1.226,0.818,1.835c-0.015-0.251-0.035-0.51-0.055-0.76c-0.01-0.233-0.035-0.468,0.002-0.698
				c0.027-0.118,0.175-0.146,0.27-0.091c0.021,0.075,0.018,0.151,0.028,0.233c0.1,0.898,0.365,1.776,0.757,2.592
				c0.662,1.36,1.69,2.547,2.948,3.385c1.344,0.896,2.958,1.385,4.58,1.375c0.115-0.023,0.178,0.156,0.078,0.216
				c-0.123,0.034-0.213,0.106-0.263,0.165c-0.14,0.143-0.295,0.279-0.474,0.363c-0.053-0.091-0.122-0.176-0.207-0.244
				c-0.211-0.168-0.481-0.24-0.741-0.284c-0.3-0.056-0.602-0.099-0.903-0.115c-0.199-0.013-0.399-0.003-0.597-0.007
				c-0.066,0.004-0.125-0.03-0.173-0.078c-0.517-0.452-1.016-0.924-1.624-1.25c-0.11-0.059-0.235-0.107-0.361-0.107
				c-0.083,0-0.176,0.02-0.255-0.02c-0.1-0.045-0.175-0.123-0.251-0.198c-0.345-0.339-0.555-0.778-0.817-1.179
				c-0.2-0.317-0.433-0.602-0.697-0.865c-0.225-0.225-0.461-0.436-0.729-0.605c-0.018,0.033-0.037,0.062-0.056,0.1
				c-0.111-0.037-0.237-0.076-0.353-0.027c0.02,0.153,0.051,0.312,0.14,0.449c0.056,0.08,0.146,0.117,0.208,0.195
				c0.043,0.062,0.043,0.173-0.041,0.191c-0.118,0.021-0.238-0.01-0.352,0.027c0.073,0.215,0.272,0.354,0.453,0.48
				c0.111,0.078,0.239,0.142,0.327,0.244c0.035,0.034,0.053,0.117-0.005,0.133c-0.103,0.02-0.211-0.002-0.317,0.01
				c0.032,0.061,0.079,0.115,0.134,0.152c0.233,0.149,0.507,0.223,0.753,0.332c0.038,0.022,0.082,0.041,0.111,0.076
				c0.022,0.021,0.021,0.073-0.013,0.088c-0.073,0.037-0.159,0.041-0.232,0.07c0.097,0.12,0.262,0.148,0.37,0.251
				c0.028,0.035,0.013,0.103-0.032,0.117c-0.084,0.042-0.18,0.06-0.265,0.104c0.184,0.185,0.459,0.211,0.675,0.342
				c0.042,0.02,0.06,0.074,0.028,0.113c-0.06,0.049-0.142,0.076-0.21,0.117c0.07,0.085,0.174,0.127,0.282,0.127
				c0.133,0.014,0.274-0.017,0.398,0.047c0.08,0.034,0.084,0.148,0.028,0.199c-0.085,0.078-0.186,0.127-0.276,0.196
				c0.21,0.134,0.435,0.233,0.66,0.341c0.435,0.196,0.876,0.371,1.338,0.477c0.386,0.094,0.782,0.104,1.175,0.09
				c0.077,0.004,0.16-0.015,0.237,0.017c0.024,0.069-0.051,0.103-0.101,0.128c-0.188,0.078-0.388,0.104-0.59,0.117
				c-0.531,0.029-1.063-0.085-1.576-0.225c-0.686-0.187-1.334-0.481-1.96-0.807c-0.073-0.041-0.153-0.083-0.201-0.146
				c-0.023-0.033-0.023-0.096,0.013-0.109c0.073-0.044,0.17-0.055,0.245-0.077c-0.264-0.098-0.555-0.075-0.827-0.151
				c-0.05-0.021-0.115-0.039-0.145-0.099c-0.035-0.067,0.017-0.146,0.085-0.175c0.112-0.05,0.238-0.044,0.359-0.083
				c-0.108-0.063-0.227-0.074-0.345-0.11c-0.133-0.035-0.269-0.07-0.39-0.146c-0.054-0.039-0.112-0.104-0.097-0.179
				c0.032-0.051,0.097-0.06,0.153-0.068c0.152-0.007,0.308,0,0.459-0.036c-0.042-0.028-0.081-0.058-0.129-0.073
				c-0.252-0.068-0.517-0.072-0.76-0.174c-0.094-0.036-0.189-0.104-0.22-0.202c-0.014-0.036-0.027-0.081,0.001-0.112
				c0.028-0.045,0.089-0.049,0.136-0.057c0.205-0.012,0.409,0.042,0.612,0.035c-0.046-0.074-0.113-0.13-0.197-0.152
				c-0.191-0.064-0.378-0.144-0.541-0.25c-0.275-0.174-0.539-0.371-0.763-0.602c-0.1-0.104-0.197-0.215-0.244-0.348
				C10.01,23,10,22.915,10.062,22.881c0.07-0.044,0.156-0.021,0.225,0c0.3,0.088,0.558,0.262,0.838,0.383
				c-0.481-0.432-0.984-0.844-1.413-1.33c-0.155-0.186-0.322-0.377-0.377-0.617v-0.088c0.013-0.035,0.029-0.072,0.051-0.101
				c0.054-0.019,0.111,0.002,0.154,0.031c0.104,0.059,0.193,0.137,0.283,0.213c0.309,0.269,0.598,0.549,0.917,0.81
				c0.104,0.084,0.211,0.178,0.345,0.219c-0.056-0.125-0.139-0.234-0.217-0.346c-0.347-0.505-0.691-1.007-0.992-1.535
				C9.668,20.14,9.47,19.753,9.385,19.33c-0.023-0.167-0.043-0.359,0.062-0.503c0.097-0.013,0.142,0.097,0.193,0.157
				c0.417,0.627,0.748,1.308,1.18,1.927c0.088,0.12,0.173,0.249,0.304,0.319c-0.013-0.074-0.031-0.148-0.059-0.222
				c-0.244-0.684-0.527-1.354-0.737-2.049c-0.056-0.202-0.115-0.405-0.133-0.617C10.192,18.28,10.192,18.211,10.226,18.155
				L10.226,18.155z"/>
			<path fill="#FEC91B" d="M22.973,27.788c0.035-0.062,0.11-0.065,0.172-0.054c0.149,0.021,0.297,0.047,0.451,0.062
				c0.623,0.062,1.245,0.075,1.873,0.103c0.202,0.02,0.413,0.011,0.615,0.049c0.027,0.006,0.068,0.006,0.07,0.042
				c0.039,0.233-0.084,0.472-0.293,0.579c-0.278,0.149-0.614,0.156-0.924,0.127c-0.006,0.119-0.01,0.248-0.078,0.349
				c-0.062,0.088-0.172,0.127-0.276,0.144c-0.208,0.035-0.415-0.014-0.615-0.067c-0.075,0.114-0.169,0.249-0.312,0.289
				c-0.131,0.036-0.254-0.029-0.361-0.089c-0.154,0.138-0.324,0.273-0.543,0.291c-0.109,0.013-0.215-0.026-0.322-0.036
				c-0.134,0.083-0.25,0.198-0.416,0.225c-0.131,0.023-0.252-0.052-0.351-0.132c-0.132,0.093-0.269,0.186-0.425,0.229h-0.141
				c-0.109-0.026-0.18-0.121-0.226-0.215c-0.104,0.06-0.206,0.111-0.317,0.127c-0.135,0.021-0.276,0-0.397-0.049
				c-0.048-0.01-0.099-0.04-0.148-0.023c-0.167,0.043-0.327,0.105-0.5,0.082c-0.08-0.01-0.137-0.073-0.188-0.133
				c-0.123,0.074-0.258,0.146-0.406,0.146c-0.105,0-0.216-0.018-0.297-0.092c-0.073-0.069-0.062-0.188-0.003-0.268
				c0.077-0.103,0.192-0.158,0.29-0.24c0.161-0.131,0.313-0.266,0.476-0.392c0.032-0.024,0.071-0.034,0.111-0.024
				c0.548,0.045,1.102,0.055,1.65-0.053c0.309-0.064,0.617-0.16,0.9-0.302c0.064-0.034,0.129-0.075,0.205-0.073
				c0.125,0.01,0.249,0.018,0.374,0.021c0.015-0.049,0.017-0.096,0.036-0.135c0.041-0.033,0.091-0.047,0.135-0.072
				c0.066-0.036,0.111-0.102,0.145-0.164C22.966,27.959,22.949,27.868,22.973,27.788L22.973,27.788z"/>
			<path fill="#FEC91B" d="M29.998,20.805c0.253-0.395,0.498-0.796,0.634-1.242c0.042-0.134,0.035-0.28,0.035-0.414
				c-0.006-0.059-0.017-0.127-0.052-0.176c-0.029-0.012-0.066-0.01-0.096,0.014c-0.063,0.053-0.112,0.13-0.164,0.198
				c-0.513,0.749-0.936,1.549-1.472,2.272c-0.089,0.115-0.174,0.238-0.311,0.311c0.04-0.17,0.12-0.332,0.183-0.49
				c0.312-0.748,0.641-1.488,0.898-2.254c0.063-0.207,0.138-0.417,0.156-0.632c0.006-0.082-0.008-0.19-0.096-0.215
				c-0.088-0.003-0.145,0.082-0.188,0.149c-0.15,0.234-0.254,0.485-0.375,0.738c-0.198,0.439-0.385,0.875-0.598,1.306
				c0-0.476,0.055-0.947,0.03-1.425c-0.01-0.063-0.003-0.144-0.054-0.192c-0.061-0.062-0.157-0.057-0.223-0.021
				c-0.026,0.051-0.021,0.114-0.026,0.172c-0.11,1.331-0.638,2.605-1.419,3.682c-0.661,0.926-1.504,1.712-2.448,2.342
				c-1.052,0.697-2.239,1.222-3.497,1.396c-0.23,0.034-0.46,0.112-0.664,0.218c-0.285,0.145-0.541,0.337-0.808,0.51
				c-0.232,0.146-0.466,0.307-0.731,0.398c-0.347,0.121-0.703,0.223-1.01,0.425c-0.265,0.178-0.491,0.407-0.668,0.669
				c-0.079,0.112-0.037,0.264,0.006,0.379c0.027,0.068,0.073,0.16,0.158,0.145c0.081-0.06,0.07-0.174,0.124-0.25
				c0.011-0.026,0.042-0.03,0.063-0.015c0.035,0.026,0.06,0.06,0.097,0.076c0.11,0.028,0.207-0.05,0.298-0.099
				c0.084-0.02,0.17-0.014,0.261-0.02c0.95-0.044,1.905-0.089,2.856-0.117c0.211,0,0.434-0.045,0.611-0.166
				c0.029-0.023,0.068-0.043,0.073-0.082c-0.019-0.047-0.071-0.082-0.12-0.084c-0.146-0.021-0.292,0.021-0.439,0.015
				c-0.702-0.034-1.398,0.086-2.098,0.063c-0.046,0-0.126-0.027-0.094-0.078c0.132-0.181,0.292-0.334,0.427-0.502
				c-0.13,0.004-0.26-0.007-0.396,0.004c-0.11,0.041-0.213,0.127-0.343,0.107c0.068-0.074,0.16-0.118,0.245-0.174
				c0.407-0.244,0.83-0.451,1.26-0.657c0.177-0.082,0.35-0.18,0.541-0.237c0.506-0.152,1.021-0.26,1.541-0.346
				c0.285-0.037,0.576-0.062,0.863-0.081c0.096-0.017,0.207,0,0.273-0.082c0.427-0.475,0.941-0.882,1.545-1.12
				c0.27-0.113,0.557-0.193,0.831-0.307c0.153-0.104,0.274-0.258,0.394-0.405c0.197-0.263,0.352-0.556,0.528-0.829
				c0.255-0.42,0.571-0.809,0.948-1.121c0.131-0.104,0.261-0.203,0.424-0.246c0.029,0.049,0.055,0.104,0.086,0.162
				c0.086-0.061,0.174-0.127,0.285-0.141c0,0.273-0.184,0.5-0.258,0.755c-0.014,0.062-0.039,0.156,0.035,0.192
				c0.119,0.033,0.244-0.01,0.358-0.021c-0.083,0.266-0.325,0.428-0.521,0.615c-0.041,0.034-0.096,0.132-0.021,0.168
				c0.097,0.018,0.192-0.02,0.29-0.02c-0.029,0.072-0.085,0.125-0.148,0.173c-0.219,0.159-0.477,0.26-0.711,0.396
				c-0.037,0.026-0.098,0.068-0.062,0.117c0.042,0.046,0.106,0.07,0.149,0.117c-0.164,0.119-0.354,0.188-0.522,0.298
				c-0.034,0.024-0.086,0.051-0.071,0.099c0.014,0.061,0.071,0.1,0.105,0.146c-0.145,0.101-0.324,0.114-0.488,0.162
				c-0.051,0.014-0.107,0.03-0.13,0.087c0,0.078,0.052,0.146,0.034,0.225c-0.021,0.055-0.062,0.105-0.119,0.131
				c-0.075,0.026-0.156-0.009-0.227,0.026c-0.045,0.036-0.078,0.103-0.051,0.156c0.035,0.075,0.094,0.137,0.141,0.209
				c-0.082,0.028-0.168,0.042-0.247,0.063c-0.188,0.062-0.361,0.161-0.521,0.264c-0.113,0.076-0.25,0.096-0.383,0.127
				c-0.21,0.041-0.42,0.104-0.632,0.138c-0.231,0.036-0.462,0.067-0.69,0.129c-0.041,0.015-0.104,0.021-0.113,0.075
				c0.009,0.07,0.097,0.068,0.146,0.072c0.451,0.021,0.901-0.053,1.345-0.116c0.488-0.078,0.974-0.168,1.451-0.313
				c0.213-0.066,0.434-0.128,0.646-0.207c0.076-0.033,0.174-0.064,0.203-0.152c0-0.057-0.045-0.092-0.088-0.109
				c-0.104-0.044-0.219-0.066-0.326-0.105c0.104-0.062,0.231-0.062,0.346-0.078c0.199-0.022,0.406-0.02,0.596-0.102
				c0.078-0.035,0.096-0.152,0.023-0.211c-0.107-0.085-0.254-0.076-0.381-0.121c0.174-0.068,0.361-0.07,0.539-0.113
				c0.146-0.028,0.307-0.059,0.426-0.16c0.052-0.038,0.07-0.153-0.012-0.176c-0.117-0.049-0.25-0.028-0.377-0.074
				c0.033-0.038,0.07-0.074,0.123-0.094c0.215-0.096,0.459-0.131,0.662-0.258c0.086-0.056,0.168-0.144,0.159-0.249
				c0.005-0.058-0.057-0.09-0.104-0.095c-0.146-0.016-0.291,0.018-0.434,0.014c0.084-0.074,0.188-0.104,0.282-0.154
				c0.181-0.088,0.339-0.209,0.498-0.324c0.176-0.133,0.347-0.271,0.5-0.426c0.099-0.101,0.192-0.205,0.242-0.34
				c0.026-0.064,0.034-0.152-0.034-0.201c-0.066-0.024-0.146-0.002-0.208,0.023c-0.187,0.078-0.358,0.188-0.532,0.293
				c-0.13,0.078-0.261,0.166-0.414,0.192c0.002-0.085,0.075-0.138,0.127-0.192c0.256-0.244,0.521-0.48,0.773-0.729
				c0.242-0.244,0.488-0.488,0.693-0.77c0.082-0.119,0.168-0.244,0.183-0.396c0.007-0.083-0.039-0.18-0.132-0.186
				c-0.127,0.006-0.237,0.09-0.338,0.159c-0.352,0.259-0.655,0.572-0.993,0.853c-0.089,0.068-0.179,0.149-0.293,0.18
				c0.077-0.152,0.198-0.279,0.298-0.418C29.404,21.66,29.714,21.24,29.998,20.805z M18.184,28.35
				c-0.045,0.082-0.15,0.114-0.24,0.137c-0.055,0.014-0.12,0.037-0.17-0.006c-0.05-0.043-0.033-0.123-0.001-0.172
				c0.048-0.096,0.154-0.117,0.243-0.142c0.056-0.013,0.123-0.039,0.173,0C18.24,28.216,18.22,28.294,18.184,28.35z"/>
			<g>
				<path fill="#FEC91B" d="M20.03,12.052c-0.249,0-0.372-0.139-0.372-0.393c0-0.257,0.372-1.554,0.372-1.554s0.37,1.295,0.37,1.554
					C20.399,11.913,20.277,12.052,20.03,12.052z"/>
				<path fill="#FEC91B" d="M19.012,12.152c-0.242,0.046-0.391-0.061-0.444-0.313c-0.049-0.25,0.062-1.597,0.062-1.597
					s0.619,1.199,0.671,1.452C19.352,11.943,19.26,12.104,19.012,12.152z"/>
				<path fill="#FEC91B" d="M18.036,12.445c-0.227,0.097-0.396,0.015-0.494-0.22c-0.099-0.239-0.252-1.577-0.252-1.577
					s0.843,1.058,0.938,1.29C18.33,12.175,18.265,12.352,18.036,12.445z"/>
				<path fill="#FEC91B" d="M17.139,12.928c-0.207,0.135-0.387,0.09-0.531-0.122c-0.143-0.215-0.553-1.5-0.553-1.5
					s1.032,0.87,1.17,1.083C17.367,12.604,17.341,12.787,17.139,12.928z"/>
				<path fill="#FEC91B" d="M16.349,13.572c-0.181,0.178-0.363,0.163-0.546-0.016c-0.178-0.18-0.833-1.361-0.833-1.361
					s1.18,0.655,1.36,0.833C16.512,13.211,16.525,13.398,16.349,13.572z"/>
				<path fill="#FEC91B" d="M15.698,14.362c-0.137,0.204-0.32,0.231-0.533,0.09c-0.211-0.145-1.087-1.174-1.087-1.174
					s1.287,0.41,1.497,0.555C15.79,13.973,15.838,14.154,15.698,14.362z"/>
				<path fill="#FEC91B" d="M15.218,15.258c-0.096,0.23-0.273,0.29-0.508,0.194c-0.235-0.097-1.294-0.94-1.294-0.94
					s1.342,0.155,1.579,0.253C15.232,14.863,15.312,15.028,15.218,15.258z"/>
				<path fill="#FEC91B" d="M14.922,16.234c-0.05,0.242-0.212,0.336-0.464,0.286c-0.25-0.047-1.446-0.665-1.446-0.665
					s1.341-0.112,1.593-0.065C14.857,15.84,14.97,15.988,14.922,16.234z"/>
				<path fill="#FEC91B" d="M14.822,17.249c0,0.251-0.142,0.374-0.399,0.374c-0.254,0-1.553-0.374-1.553-0.374
					s1.297-0.369,1.553-0.369C14.679,16.88,14.822,17,14.822,17.249z"/>
				<path fill="#FEC91B" d="M14.918,18.262c0.048,0.247-0.063,0.392-0.319,0.443c-0.25,0.05-1.593-0.059-1.593-0.059
					s1.2-0.618,1.446-0.668C14.706,17.926,14.867,18.019,14.918,18.262z"/>
				<path fill="#FEC91B" d="M15.21,19.242c0.095,0.232,0.015,0.396-0.218,0.496c-0.237,0.097-1.583,0.246-1.583,0.246
					s1.059-0.837,1.297-0.937C14.938,18.952,15.116,19.01,15.21,19.242z"/>
				<path fill="#FEC91B" d="M15.69,20.142c0.139,0.204,0.094,0.385-0.12,0.524c-0.215,0.146-1.497,0.555-1.497,0.555
					s0.872-1.029,1.082-1.171C15.369,19.908,15.553,19.933,15.69,20.142z"/>
				<path fill="#FEC91B" d="M16.336,20.932c0.174,0.172,0.164,0.357-0.018,0.541c-0.18,0.182-1.358,0.836-1.358,0.836
					s0.655-1.181,0.833-1.36C15.973,20.766,16.161,20.752,16.336,20.932z"/>
				<path fill="#FEC91B" d="M17.126,21.575c0.204,0.144,0.229,0.325,0.087,0.536C17.075,22.324,16.04,23.2,16.04,23.2
					s0.412-1.289,0.553-1.501C16.738,21.491,16.917,21.438,17.126,21.575z"/>
				<path fill="#FEC91B" d="M18.023,22.061c0.23,0.097,0.29,0.271,0.195,0.506c-0.1,0.24-0.94,1.295-0.94,1.295
					s0.153-1.344,0.25-1.58C17.625,22.048,17.793,21.966,18.023,22.061z"/>
				<path fill="#FEC91B" d="M18.998,22.357c0.244,0.048,0.339,0.209,0.288,0.457c-0.051,0.25-0.667,1.453-0.667,1.453
					s-0.113-1.347-0.063-1.6C18.605,22.424,18.755,22.309,18.998,22.357z"/>
				<path fill="#FEC91B" d="M20.015,22.461c0.248,0,0.369,0.141,0.369,0.393c0,0.258-0.369,1.559-0.369,1.559
					s-0.375-1.299-0.375-1.559C19.642,22.602,19.762,22.461,20.015,22.461z"/>
				<path fill="#FEC91B" d="M21.029,22.359c0.246-0.045,0.394,0.064,0.441,0.315c0.051,0.249-0.062,1.599-0.062,1.599
					s-0.617-1.203-0.668-1.455C20.688,22.568,20.783,22.409,21.029,22.359z"/>
				<path fill="#FEC91B" d="M22.005,22.066c0.231-0.094,0.397-0.014,0.495,0.222c0.096,0.237,0.251,1.579,0.251,1.579
					s-0.84-1.059-0.938-1.294C21.716,22.334,21.777,22.16,22.005,22.066z"/>
				<path fill="#FEC91B" d="M22.907,21.587c0.21-0.14,0.387-0.093,0.526,0.119c0.141,0.215,0.553,1.5,0.553,1.5
					s-1.027-0.872-1.172-1.084C22.673,21.911,22.697,21.725,22.907,21.587z"/>
				<path fill="#FEC91B" d="M23.695,20.939c0.175-0.179,0.359-0.166,0.543,0.018c0.179,0.179,0.835,1.357,0.835,1.357
					s-1.183-0.651-1.362-0.834C23.529,21.302,23.516,21.118,23.695,20.939z"/>
				<path fill="#FEC91B" d="M24.346,20.151c0.137-0.205,0.317-0.233,0.529-0.086c0.216,0.14,1.087,1.171,1.087,1.171
					s-1.284-0.413-1.501-0.555C24.253,20.54,24.202,20.361,24.346,20.151z"/>
				<path fill="#FEC91B" d="M24.827,19.253c0.095-0.228,0.271-0.288,0.508-0.189c0.233,0.097,1.289,0.938,1.289,0.938
					s-1.341-0.154-1.575-0.251C24.811,19.652,24.729,19.485,24.827,19.253z"/>
				<path fill="#FEC91B" d="M25.12,18.278c0.053-0.245,0.214-0.336,0.463-0.285c0.247,0.045,1.451,0.663,1.451,0.663
					s-1.347,0.112-1.599,0.062C25.186,18.67,25.075,18.525,25.12,18.278z"/>
				<path fill="#FEC91B" d="M25.223,17.265c0-0.251,0.143-0.375,0.397-0.375s1.551,0.375,1.551,0.375s-1.295,0.374-1.551,0.374
					C25.363,17.638,25.223,17.513,25.223,17.265z"/>
				<path fill="#FEC91B" d="M25.125,16.247c-0.049-0.245,0.062-0.39,0.314-0.44c0.252-0.048,1.599,0.062,1.599,0.062
					s-1.205,0.62-1.455,0.667C25.335,16.587,25.176,16.495,25.125,16.247z"/>
				<path fill="#FEC91B" d="M24.834,15.273c-0.1-0.235-0.018-0.399,0.223-0.495c0.233-0.102,1.571-0.252,1.571-0.252
					s-1.055,0.844-1.289,0.938C25.102,15.562,24.93,15.505,24.834,15.273z"/>
				<path fill="#FEC91B" d="M24.354,14.372c-0.142-0.207-0.092-0.388,0.119-0.526c0.213-0.142,1.496-0.557,1.496-0.557
					s-0.871,1.031-1.086,1.175C24.675,14.601,24.492,14.577,24.354,14.372z"/>
				<path fill="#FEC91B" d="M23.704,13.583c-0.177-0.175-0.167-0.361,0.017-0.542c0.18-0.181,1.364-0.835,1.364-0.835
					s-0.657,1.182-0.837,1.36C24.064,13.749,23.882,13.76,23.704,13.583z"/>
				<path fill="#FEC91B" d="M22.92,12.933c-0.208-0.136-0.236-0.32-0.091-0.532c0.142-0.215,1.172-1.086,1.172-1.086
					s-0.414,1.285-0.554,1.497C23.305,13.025,23.125,13.073,22.92,12.933z"/>
				<path fill="#FEC91B" d="M22.02,12.454c-0.231-0.099-0.291-0.272-0.192-0.509c0.098-0.233,0.938-1.293,0.938-1.293
					s-0.154,1.343-0.252,1.581C22.415,12.465,22.253,12.546,22.02,12.454z"/>
				<path fill="#FEC91B" d="M21.043,12.155c-0.246-0.049-0.34-0.21-0.286-0.459c0.046-0.249,0.669-1.45,0.669-1.45
					s0.107,1.347,0.059,1.598C21.436,12.093,21.289,12.206,21.043,12.155z"/>
				<circle fill="#FEC91B" cx="20.022" cy="17.256" r="4.577"/>
			</g>
		</g>
	</g>
</g>
</svg>
