<?xml version="1.0" encoding="utf-8"?>
<!-- Generator: Adobe Illustrator 16.0.0, SVG Export Plug-In . SVG Version: 6.00 Build 0)  -->
<!DOCTYPE svg PUBLIC "-//W3C//DTD SVG 1.0//EN" "http://www.w3.org/TR/2001/REC-SVG-20010904/DTD/svg10.dtd">
<svg version="1.0" id="Layer_1" xmlns="http://www.w3.org/2000/svg" xmlns:xlink="http://www.w3.org/1999/xlink" x="0px" y="0px"
	 width="24px" height="24px" viewBox="0 0 24 24" enable-background="new 0 0 24 24" xml:space="preserve">
<g>
	<g>
		<circle fill="#00B5CC" cx="12" cy="12" r="12"/>
		<g>
			<path fill="#FEC91B" d="M6.136,10.893c0.018-0.025,0.054-0.019,0.072-0.002c0.057,0.05,0.086,0.116,0.123,0.177
				c0.186,0.355,0.324,0.735,0.491,1.101c-0.009-0.151-0.021-0.306-0.033-0.456c-0.006-0.14-0.021-0.281,0.001-0.419
				c0.016-0.071,0.105-0.088,0.162-0.055c0.013,0.045,0.011,0.091,0.017,0.14c0.06,0.539,0.219,1.066,0.454,1.555
				c0.397,0.816,1.014,1.528,1.769,2.031c0.806,0.538,1.775,0.83,2.748,0.825c0.069-0.015,0.107,0.094,0.047,0.129
				c-0.074,0.02-0.128,0.064-0.158,0.098c-0.084,0.086-0.177,0.168-0.284,0.219c-0.032-0.054-0.073-0.105-0.124-0.146
				c-0.127-0.101-0.289-0.144-0.445-0.171c-0.18-0.033-0.361-0.059-0.542-0.07c-0.119-0.007-0.239-0.002-0.358-0.003
				c-0.04,0.001-0.075-0.019-0.104-0.047c-0.31-0.271-0.609-0.555-0.974-0.75c-0.066-0.035-0.141-0.065-0.217-0.064
				c-0.05-0.001-0.105,0.01-0.153-0.013c-0.06-0.026-0.105-0.074-0.151-0.119c-0.207-0.202-0.333-0.466-0.49-0.707
				c-0.12-0.19-0.26-0.36-0.418-0.519c-0.135-0.135-0.277-0.261-0.437-0.364c-0.011,0.02-0.022,0.038-0.034,0.06
				c-0.067-0.022-0.142-0.045-0.212-0.017c0.012,0.093,0.031,0.188,0.084,0.27c0.034,0.048,0.088,0.071,0.125,0.117
				c0.026,0.037,0.026,0.104-0.024,0.116C7,13.821,6.928,13.803,6.86,13.825c0.044,0.129,0.163,0.212,0.272,0.288
				c0.066,0.047,0.143,0.085,0.196,0.147c0.021,0.021,0.032,0.071-0.003,0.08c-0.062,0.011-0.127-0.001-0.19,0.005
				c0.019,0.037,0.047,0.07,0.08,0.092c0.14,0.09,0.304,0.133,0.452,0.2c0.023,0.013,0.049,0.024,0.067,0.044
				c0.013,0.015,0.012,0.045-0.008,0.054c-0.044,0.022-0.095,0.025-0.139,0.043c0.058,0.072,0.157,0.088,0.222,0.15
				c0.017,0.021,0.008,0.061-0.019,0.07c-0.051,0.026-0.108,0.036-0.159,0.063c0.11,0.11,0.275,0.127,0.405,0.204
				c0.025,0.012,0.036,0.046,0.017,0.069c-0.036,0.029-0.085,0.046-0.126,0.071c0.042,0.05,0.104,0.075,0.169,0.076
				c0.08,0.007,0.165-0.011,0.239,0.028c0.048,0.02,0.051,0.088,0.017,0.119c-0.051,0.047-0.112,0.076-0.166,0.118
				c0.126,0.08,0.261,0.141,0.396,0.204c0.261,0.118,0.526,0.223,0.803,0.286c0.231,0.056,0.469,0.062,0.705,0.054
				c0.046,0.002,0.096-0.009,0.142,0.01c0.013,0.042-0.032,0.062-0.062,0.077c-0.113,0.047-0.233,0.063-0.354,0.07
				c-0.319,0.018-0.638-0.05-0.946-0.134c-0.411-0.112-0.8-0.29-1.176-0.484c-0.044-0.024-0.092-0.05-0.121-0.088
				c-0.014-0.021-0.014-0.057,0.008-0.066c0.044-0.026,0.102-0.032,0.147-0.046c-0.158-0.059-0.333-0.046-0.496-0.092
				c-0.03-0.011-0.069-0.024-0.087-0.058c-0.021-0.042,0.01-0.089,0.051-0.105c0.067-0.03,0.143-0.027,0.215-0.05
				c-0.065-0.039-0.136-0.045-0.207-0.066c-0.08-0.021-0.161-0.043-0.234-0.088c-0.032-0.024-0.067-0.063-0.058-0.107
				c0.019-0.031,0.058-0.036,0.092-0.041C7.095,15.017,7.189,15.022,7.28,15c-0.025-0.018-0.049-0.034-0.078-0.044
				c-0.151-0.041-0.31-0.044-0.456-0.104c-0.056-0.022-0.113-0.062-0.132-0.122c-0.008-0.022-0.016-0.048,0.001-0.067
				c0.017-0.027,0.054-0.029,0.082-0.034c0.123-0.007,0.245,0.026,0.367,0.021c-0.028-0.044-0.068-0.078-0.118-0.092
				c-0.115-0.039-0.227-0.085-0.325-0.15c-0.165-0.104-0.323-0.223-0.458-0.36c-0.06-0.062-0.118-0.129-0.146-0.208
				C6.006,13.8,6,13.749,6.037,13.728c0.042-0.026,0.094-0.013,0.135,0c0.18,0.053,0.335,0.157,0.503,0.23
				c-0.289-0.259-0.591-0.506-0.848-0.798c-0.093-0.111-0.193-0.227-0.226-0.371v-0.052c0.008-0.021,0.017-0.043,0.031-0.06
				c0.032-0.011,0.066,0.001,0.092,0.019c0.062,0.035,0.116,0.082,0.17,0.127c0.185,0.161,0.359,0.33,0.55,0.485
				c0.062,0.051,0.127,0.107,0.207,0.131c-0.034-0.074-0.083-0.14-0.13-0.206c-0.208-0.303-0.415-0.604-0.595-0.922
				c-0.125-0.227-0.244-0.459-0.295-0.713c-0.014-0.1-0.026-0.215,0.037-0.302c0.058-0.008,0.085,0.058,0.116,0.094
				c0.25,0.376,0.449,0.785,0.708,1.156c0.053,0.072,0.104,0.149,0.183,0.193c-0.008-0.046-0.019-0.09-0.036-0.134
				c-0.146-0.41-0.316-0.812-0.442-1.229c-0.034-0.121-0.069-0.243-0.08-0.37C6.115,10.968,6.115,10.927,6.136,10.893L6.136,10.893z
				"/>
			<path fill="#FEC91B" d="M13.783,16.673c0.021-0.036,0.066-0.04,0.104-0.032c0.09,0.014,0.178,0.028,0.27,0.037
				c0.374,0.037,0.747,0.045,1.124,0.061c0.122,0.011,0.249,0.006,0.37,0.028c0.016,0.004,0.041,0.004,0.043,0.026
				c0.023,0.14-0.051,0.283-0.176,0.347c-0.169,0.09-0.369,0.095-0.555,0.077c-0.004,0.071-0.006,0.148-0.047,0.209
				c-0.038,0.053-0.104,0.076-0.166,0.086c-0.125,0.021-0.249-0.008-0.369-0.042c-0.046,0.07-0.102,0.15-0.188,0.174
				c-0.078,0.022-0.152-0.017-0.217-0.053c-0.092,0.083-0.195,0.165-0.326,0.175c-0.065,0.007-0.129-0.016-0.193-0.022
				c-0.08,0.05-0.15,0.119-0.25,0.135c-0.078,0.013-0.151-0.032-0.21-0.079c-0.079,0.055-0.161,0.111-0.255,0.138h-0.084
				c-0.065-0.017-0.107-0.074-0.135-0.129c-0.062,0.035-0.123,0.066-0.191,0.076c-0.08,0.011-0.165,0-0.238-0.03
				c-0.029-0.006-0.06-0.024-0.089-0.014c-0.1,0.025-0.196,0.064-0.3,0.049c-0.048-0.006-0.082-0.045-0.113-0.079
				c-0.074,0.044-0.155,0.088-0.244,0.088c-0.063,0-0.129-0.011-0.178-0.055c-0.044-0.042-0.037-0.114-0.002-0.16
				c0.046-0.062,0.115-0.096,0.174-0.145c0.096-0.078,0.188-0.159,0.285-0.234c0.019-0.016,0.043-0.021,0.067-0.016
				c0.329,0.028,0.661,0.033,0.989-0.031c0.186-0.039,0.372-0.096,0.542-0.181c0.039-0.02,0.077-0.045,0.122-0.044
				c0.076,0.006,0.15,0.01,0.225,0.013c0.008-0.028,0.01-0.057,0.022-0.08c0.024-0.021,0.054-0.028,0.081-0.044
				c0.04-0.021,0.066-0.06,0.086-0.099C13.779,16.776,13.769,16.721,13.783,16.673L13.783,16.673z"/>
			<path fill="#FEC91B" d="M17.999,12.483c0.151-0.237,0.299-0.478,0.38-0.745c0.025-0.081,0.021-0.168,0.021-0.249
				c-0.004-0.035-0.01-0.076-0.031-0.105c-0.018-0.007-0.04-0.006-0.056,0.008c-0.039,0.032-0.069,0.078-0.099,0.119
				c-0.308,0.449-0.561,0.929-0.883,1.363c-0.054,0.07-0.105,0.144-0.186,0.187c0.024-0.103,0.072-0.199,0.109-0.296
				c0.188-0.448,0.385-0.892,0.539-1.352c0.039-0.124,0.083-0.25,0.094-0.379c0.004-0.049-0.004-0.114-0.057-0.129
				c-0.053-0.002-0.086,0.049-0.113,0.089c-0.09,0.141-0.153,0.291-0.225,0.443c-0.119,0.263-0.23,0.525-0.358,0.783
				c0-0.285,0.032-0.568,0.019-0.855c-0.006-0.038-0.003-0.086-0.033-0.115c-0.036-0.037-0.094-0.034-0.133-0.012
				c-0.016,0.03-0.013,0.068-0.016,0.103c-0.066,0.798-0.383,1.564-0.852,2.209c-0.397,0.555-0.902,1.027-1.469,1.405
				c-0.63,0.418-1.344,0.732-2.098,0.837c-0.139,0.021-0.276,0.067-0.398,0.131c-0.171,0.087-0.325,0.202-0.485,0.306
				c-0.139,0.088-0.28,0.183-0.439,0.239c-0.208,0.073-0.422,0.134-0.606,0.255c-0.159,0.106-0.295,0.244-0.401,0.401
				c-0.047,0.068-0.022,0.158,0.004,0.228c0.016,0.041,0.044,0.095,0.095,0.086c0.048-0.036,0.042-0.104,0.074-0.15
				c0.007-0.016,0.025-0.018,0.038-0.008c0.021,0.015,0.036,0.034,0.058,0.045c0.066,0.017,0.124-0.03,0.179-0.059
				c0.05-0.011,0.102-0.008,0.156-0.011c0.57-0.026,1.143-0.054,1.714-0.072c0.127,0,0.26-0.026,0.367-0.099
				c0.018-0.014,0.041-0.025,0.044-0.049c-0.011-0.028-0.043-0.048-0.072-0.051c-0.088-0.012-0.175,0.014-0.264,0.009
				c-0.421-0.021-0.839,0.052-1.259,0.038c-0.028,0.001-0.076-0.015-0.056-0.047c0.079-0.107,0.175-0.2,0.256-0.3
				c-0.078,0.002-0.156-0.005-0.237,0.002c-0.066,0.025-0.128,0.076-0.206,0.065c0.041-0.045,0.096-0.072,0.147-0.105
				c0.244-0.146,0.498-0.27,0.756-0.394c0.106-0.049,0.21-0.107,0.324-0.142c0.303-0.092,0.613-0.156,0.925-0.207
				c0.172-0.023,0.346-0.039,0.518-0.049c0.057-0.01,0.124,0,0.164-0.05c0.256-0.285,0.566-0.529,0.927-0.672
				c0.161-0.068,0.334-0.117,0.499-0.184c0.092-0.062,0.165-0.154,0.236-0.243c0.118-0.157,0.211-0.333,0.317-0.497
				c0.153-0.252,0.342-0.486,0.569-0.673c0.078-0.062,0.157-0.122,0.254-0.149c0.018,0.03,0.033,0.064,0.052,0.098
				c0.052-0.036,0.104-0.076,0.17-0.084c0,0.164-0.108,0.3-0.153,0.453c-0.008,0.038-0.024,0.094,0.021,0.116
				c0.071,0.02,0.146-0.006,0.214-0.013c-0.049,0.159-0.195,0.256-0.311,0.369c-0.024,0.021-0.057,0.079-0.013,0.101
				c0.058,0.01,0.116-0.012,0.174-0.012c-0.017,0.044-0.05,0.075-0.089,0.104c-0.131,0.095-0.285,0.156-0.426,0.238
				c-0.023,0.015-0.059,0.041-0.038,0.07c0.026,0.028,0.065,0.042,0.091,0.071c-0.098,0.071-0.214,0.112-0.314,0.178
				c-0.021,0.015-0.052,0.031-0.043,0.059c0.008,0.036,0.043,0.059,0.064,0.086c-0.086,0.061-0.195,0.07-0.293,0.099
				c-0.031,0.007-0.065,0.018-0.079,0.051c0,0.047,0.032,0.089,0.021,0.135c-0.013,0.033-0.038,0.063-0.071,0.078
				c-0.045,0.016-0.094-0.005-0.136,0.017c-0.026,0.021-0.047,0.06-0.03,0.093c0.021,0.045,0.056,0.083,0.083,0.126
				c-0.049,0.017-0.1,0.025-0.148,0.039c-0.112,0.037-0.216,0.096-0.313,0.157c-0.068,0.045-0.15,0.057-0.229,0.077
				c-0.126,0.024-0.252,0.062-0.379,0.082c-0.14,0.022-0.277,0.041-0.415,0.077c-0.024,0.009-0.063,0.013-0.067,0.045
				c0.004,0.043,0.057,0.042,0.086,0.044c0.271,0.012,0.541-0.032,0.807-0.071c0.293-0.046,0.585-0.1,0.871-0.188
				c0.128-0.04,0.26-0.076,0.388-0.124c0.046-0.02,0.104-0.039,0.122-0.091c0-0.034-0.027-0.056-0.053-0.066
				c-0.062-0.026-0.131-0.04-0.195-0.063c0.062-0.039,0.139-0.039,0.207-0.048c0.119-0.013,0.244-0.011,0.357-0.06
				c0.048-0.021,0.057-0.092,0.014-0.127c-0.064-0.051-0.152-0.046-0.228-0.072c0.104-0.041,0.216-0.044,0.324-0.068
				c0.087-0.018,0.183-0.036,0.255-0.096c0.031-0.024,0.043-0.093-0.007-0.106c-0.071-0.029-0.151-0.018-0.226-0.045
				c0.02-0.023,0.043-0.045,0.073-0.056c0.13-0.057,0.276-0.078,0.398-0.154c0.052-0.034,0.101-0.086,0.096-0.15
				c0.003-0.035-0.034-0.054-0.063-0.057c-0.088-0.009-0.174,0.011-0.26,0.008c0.05-0.044,0.113-0.061,0.17-0.093
				c0.108-0.052,0.203-0.125,0.299-0.194c0.105-0.08,0.207-0.163,0.299-0.256c0.059-0.06,0.117-0.123,0.145-0.203
				c0.016-0.039,0.021-0.092-0.02-0.121c-0.04-0.015-0.088-0.001-0.125,0.015c-0.111,0.047-0.215,0.112-0.319,0.175
				c-0.079,0.047-0.157,0.1-0.249,0.116c0.001-0.051,0.045-0.083,0.076-0.116c0.154-0.147,0.314-0.289,0.465-0.437
				c0.146-0.147,0.293-0.293,0.416-0.461c0.049-0.072,0.1-0.147,0.109-0.238c0.004-0.05-0.023-0.108-0.079-0.112
				c-0.076,0.004-0.142,0.054-0.202,0.096c-0.211,0.155-0.393,0.344-0.597,0.511c-0.052,0.041-0.106,0.09-0.175,0.108
				c0.047-0.092,0.118-0.168,0.178-0.251C17.643,12.996,17.828,12.744,17.999,12.483z M10.91,17.01
				c-0.027,0.049-0.09,0.068-0.144,0.082c-0.033,0.008-0.072,0.021-0.102-0.004c-0.03-0.026-0.02-0.075-0.001-0.104
				c0.029-0.056,0.093-0.069,0.146-0.084c0.034-0.008,0.074-0.023,0.104,0.001C10.944,16.929,10.932,16.977,10.91,17.01z"/>
			<g>
				<path fill="#FEC91B" d="M12.018,7.231c-0.149,0-0.223-0.083-0.223-0.236c0-0.154,0.223-0.932,0.223-0.932
					s0.222,0.777,0.222,0.932C12.239,7.148,12.166,7.231,12.018,7.231z"/>
				<path fill="#FEC91B" d="M11.407,7.291c-0.145,0.028-0.234-0.036-0.266-0.188c-0.029-0.15,0.037-0.958,0.037-0.958
					s0.372,0.719,0.403,0.871C11.611,7.166,11.556,7.262,11.407,7.291z"/>
				<path fill="#FEC91B" d="M10.822,7.467c-0.137,0.058-0.238,0.009-0.297-0.132c-0.059-0.143-0.151-0.946-0.151-0.946
					s0.506,0.635,0.563,0.774C10.998,7.305,10.959,7.411,10.822,7.467z"/>
				<path fill="#FEC91B" d="M10.283,7.757c-0.124,0.081-0.232,0.054-0.318-0.073C9.879,7.555,9.633,6.784,9.633,6.784
					s0.619,0.522,0.702,0.65C10.42,7.562,10.405,7.672,10.283,7.757z"/>
				<path fill="#FEC91B" d="M9.809,8.143C9.701,8.25,9.592,8.241,9.482,8.134c-0.107-0.108-0.5-0.817-0.5-0.817
					S9.69,7.71,9.798,7.817C9.907,7.927,9.915,8.039,9.809,8.143z"/>
				<path fill="#FEC91B" d="M9.419,8.617c-0.082,0.122-0.192,0.139-0.32,0.054C8.972,8.584,8.447,7.967,8.447,7.967
					S9.219,8.213,9.345,8.3C9.474,8.384,9.503,8.492,9.419,8.617z"/>
				<path fill="#FEC91B" d="M9.131,9.155C9.073,9.293,8.967,9.329,8.826,9.271C8.685,9.213,8.05,8.707,8.05,8.707
					S8.855,8.8,8.997,8.859C9.139,8.918,9.187,9.017,9.131,9.155z"/>
				<path fill="#FEC91B" d="M8.953,9.74c-0.03,0.146-0.127,0.202-0.278,0.172C8.525,9.884,7.807,9.513,7.807,9.513
					s0.805-0.067,0.956-0.039C8.914,9.504,8.982,9.593,8.953,9.74z"/>
				<path fill="#FEC91B" d="M8.893,10.349c0,0.151-0.085,0.224-0.239,0.224c-0.153,0-0.932-0.224-0.932-0.224
					s0.778-0.221,0.932-0.221C8.807,10.128,8.893,10.2,8.893,10.349z"/>
				<path fill="#FEC91B" d="M8.951,10.957c0.029,0.148-0.038,0.235-0.191,0.266c-0.15,0.03-0.956-0.035-0.956-0.035
					s0.72-0.371,0.868-0.401C8.823,10.756,8.92,10.811,8.951,10.957z"/>
				<path fill="#FEC91B" d="M9.126,11.545c0.057,0.139,0.009,0.237-0.131,0.298c-0.142,0.058-0.95,0.147-0.95,0.147
					s0.635-0.502,0.778-0.562C8.963,11.371,9.07,11.406,9.126,11.545z"/>
				<path fill="#FEC91B" d="M9.414,12.085c0.083,0.122,0.056,0.231-0.072,0.315c-0.129,0.088-0.898,0.333-0.898,0.333
					s0.523-0.618,0.649-0.703C9.221,11.945,9.332,11.96,9.414,12.085z"/>
				<path fill="#FEC91B" d="M9.802,12.558c0.104,0.104,0.098,0.216-0.011,0.326c-0.108,0.108-0.815,0.501-0.815,0.501
					s0.393-0.708,0.5-0.817C9.584,12.459,9.697,12.451,9.802,12.558z"/>
				<path fill="#FEC91B" d="M10.276,12.946c0.122,0.085,0.137,0.194,0.052,0.321c-0.083,0.128-0.704,0.653-0.704,0.653
					s0.247-0.773,0.332-0.901C10.043,12.894,10.15,12.863,10.276,12.946z"/>
				<path fill="#FEC91B" d="M10.814,13.237c0.138,0.057,0.174,0.162,0.117,0.303c-0.06,0.144-0.564,0.776-0.564,0.776
					s0.092-0.805,0.15-0.948C10.575,13.229,10.676,13.179,10.814,13.237z"/>
				<path fill="#FEC91B" d="M11.399,13.415c0.146,0.029,0.203,0.125,0.173,0.274c-0.031,0.15-0.4,0.871-0.4,0.871
					s-0.068-0.807-0.038-0.958C11.163,13.454,11.253,13.385,11.399,13.415z"/>
				<path fill="#FEC91B" d="M12.009,13.476c0.148,0,0.221,0.084,0.221,0.236c0,0.154-0.221,0.935-0.221,0.935
					s-0.225-0.78-0.225-0.935C11.785,13.56,11.857,13.476,12.009,13.476z"/>
				<path fill="#FEC91B" d="M12.618,13.416c0.148-0.028,0.235,0.039,0.265,0.19c0.03,0.149-0.038,0.958-0.038,0.958
					s-0.37-0.721-0.4-0.873C12.413,13.541,12.47,13.445,12.618,13.416z"/>
				<path fill="#FEC91B" d="M13.203,13.24c0.139-0.057,0.238-0.007,0.297,0.133c0.057,0.142,0.15,0.948,0.15,0.948
					s-0.504-0.636-0.563-0.777C13.03,13.401,13.066,13.296,13.203,13.24z"/>
				<path fill="#FEC91B" d="M13.744,12.952c0.126-0.084,0.232-0.055,0.316,0.072c0.085,0.128,0.332,0.9,0.332,0.9
					s-0.617-0.524-0.703-0.651C13.604,13.146,13.618,13.034,13.744,12.952z"/>
				<path fill="#FEC91B" d="M14.218,12.565c0.104-0.108,0.216-0.1,0.325,0.009c0.107,0.108,0.501,0.815,0.501,0.815
					s-0.709-0.391-0.818-0.5C14.118,12.781,14.11,12.671,14.218,12.565z"/>
				<path fill="#FEC91B" d="M14.607,12.091c0.082-0.123,0.191-0.14,0.318-0.052c0.13,0.084,0.652,0.703,0.652,0.703
					s-0.771-0.248-0.9-0.333C14.552,12.324,14.522,12.217,14.607,12.091z"/>
				<path fill="#FEC91B" d="M14.896,11.552c0.057-0.137,0.163-0.173,0.305-0.114c0.14,0.058,0.774,0.563,0.774,0.563
					s-0.805-0.093-0.946-0.151C14.886,11.791,14.838,11.691,14.896,11.552z"/>
				<path fill="#FEC91B" d="M15.072,10.967c0.032-0.147,0.128-0.202,0.277-0.171c0.149,0.027,0.871,0.398,0.871,0.398
					s-0.807,0.067-0.958,0.038C15.111,11.202,15.045,11.115,15.072,10.967z"/>
				<path fill="#FEC91B" d="M15.134,10.359c0-0.151,0.085-0.225,0.238-0.225s0.931,0.225,0.931,0.225s-0.777,0.224-0.931,0.224
					S15.134,10.508,15.134,10.359z"/>
				<path fill="#FEC91B" d="M15.075,9.748c-0.029-0.147,0.038-0.234,0.188-0.264c0.152-0.029,0.959,0.037,0.959,0.037
					s-0.722,0.372-0.873,0.4C15.201,9.952,15.105,9.897,15.075,9.748z"/>
				<path fill="#FEC91B" d="M14.9,9.164c-0.059-0.141-0.01-0.239,0.133-0.297c0.141-0.061,0.944-0.151,0.944-0.151
					s-0.633,0.506-0.774,0.563C15.061,9.337,14.957,9.303,14.9,9.164z"/>
				<path fill="#FEC91B" d="M14.611,8.623c-0.083-0.124-0.055-0.233,0.072-0.316c0.128-0.085,0.898-0.334,0.898-0.334
					s-0.523,0.619-0.651,0.705C14.805,8.761,14.695,8.746,14.611,8.623z"/>
				<path fill="#FEC91B" d="M14.223,8.15c-0.107-0.105-0.101-0.217,0.009-0.326c0.108-0.108,0.819-0.501,0.819-0.501
					s-0.395,0.709-0.502,0.816C14.44,8.249,14.329,8.256,14.223,8.15z"/>
				<path fill="#FEC91B" d="M13.752,7.76c-0.125-0.082-0.142-0.192-0.055-0.319C13.782,7.312,14.4,6.789,14.4,6.789
					s-0.248,0.771-0.331,0.898C13.982,7.815,13.875,7.844,13.752,7.76z"/>
				<path fill="#FEC91B" d="M13.211,7.472c-0.139-0.059-0.174-0.163-0.115-0.305c0.059-0.14,0.562-0.776,0.562-0.776
					s-0.091,0.806-0.151,0.949C13.449,7.479,13.351,7.528,13.211,7.472z"/>
				<path fill="#FEC91B" d="M12.626,7.293c-0.148-0.03-0.204-0.126-0.172-0.276c0.028-0.149,0.401-0.87,0.401-0.87
					s0.065,0.808,0.036,0.959C12.861,7.256,12.773,7.323,12.626,7.293z"/>
				<circle fill="#FEC91B" cx="12.013" cy="10.354" r="2.746"/>
			</g>
		</g>
	</g>
</g>
</svg>
