<?xml version="1.0" encoding="utf-8"?>
<!-- Generator: Adobe Illustrator 16.0.0, SVG Export Plug-In . SVG Version: 6.00 Build 0)  -->
<!DOCTYPE svg PUBLIC "-//W3C//DTD SVG 1.0//EN" "http://www.w3.org/TR/2001/REC-SVG-20010904/DTD/svg10.dtd">
<svg version="1.0" id="Layer_1" xmlns="http://www.w3.org/2000/svg" xmlns:xlink="http://www.w3.org/1999/xlink" x="0px" y="0px"
	 width="40px" height="40px" viewBox="-8 -8 40 40" enable-background="new -8 -8 40 40" xml:space="preserve">
<g>
	<g>
		<circle fill="#00B5CC" cx="12" cy="12" r="20"/>
		<g>
			<path fill="#FEC91B" d="M2.226,10.155c0.03-0.042,0.09-0.032,0.121-0.003c0.095,0.083,0.143,0.193,0.205,0.294
				c0.31,0.592,0.54,1.226,0.818,1.835c-0.015-0.251-0.035-0.51-0.055-0.76c-0.01-0.233-0.035-0.468,0.002-0.698
				c0.027-0.118,0.175-0.146,0.27-0.091c0.021,0.075,0.018,0.151,0.028,0.233c0.1,0.898,0.365,1.776,0.757,2.591
				c0.662,1.361,1.69,2.548,2.948,3.386c1.344,0.896,2.958,1.384,4.58,1.375c0.115-0.024,0.178,0.156,0.078,0.215
				c-0.123,0.034-0.213,0.106-0.263,0.165c-0.14,0.143-0.295,0.279-0.474,0.364c-0.053-0.091-0.122-0.176-0.207-0.244
				c-0.211-0.168-0.481-0.241-0.741-0.285c-0.3-0.055-0.602-0.099-0.903-0.115c-0.199-0.013-0.399-0.003-0.597-0.007
				c-0.066,0.004-0.125-0.03-0.173-0.078c-0.517-0.452-1.016-0.924-1.624-1.25c-0.11-0.059-0.235-0.107-0.361-0.107
				c-0.083,0-0.176,0.019-0.255-0.02c-0.1-0.045-0.175-0.123-0.251-0.198c-0.345-0.339-0.555-0.778-0.817-1.179
				c-0.2-0.317-0.433-0.601-0.697-0.865c-0.225-0.225-0.461-0.435-0.729-0.605c-0.018,0.032-0.037,0.062-0.056,0.099
				c-0.111-0.037-0.237-0.076-0.353-0.027c0.02,0.153,0.051,0.312,0.14,0.449c0.056,0.08,0.146,0.117,0.208,0.195
				c0.043,0.062,0.043,0.173-0.041,0.192c-0.118,0.02-0.238-0.01-0.352,0.027c0.073,0.215,0.272,0.354,0.453,0.48
				c0.111,0.078,0.239,0.142,0.327,0.244c0.035,0.035,0.053,0.118-0.005,0.133c-0.103,0.02-0.211-0.001-0.317,0.01
				c0.032,0.061,0.079,0.116,0.134,0.153c0.233,0.149,0.507,0.222,0.753,0.332c0.038,0.022,0.082,0.041,0.111,0.075
				c0.022,0.022,0.021,0.074-0.013,0.088c-0.073,0.037-0.159,0.042-0.232,0.071c0.097,0.12,0.262,0.148,0.37,0.251
				c0.028,0.035,0.013,0.103-0.032,0.117c-0.084,0.042-0.18,0.06-0.265,0.104c0.184,0.185,0.459,0.212,0.675,0.342
				c0.042,0.02,0.06,0.075,0.028,0.114c-0.06,0.049-0.142,0.076-0.21,0.117c0.07,0.085,0.174,0.127,0.282,0.127
				c0.133,0.013,0.274-0.017,0.398,0.047c0.08,0.034,0.084,0.148,0.028,0.199c-0.085,0.078-0.186,0.127-0.276,0.196
				c0.21,0.134,0.435,0.234,0.66,0.341c0.435,0.196,0.876,0.371,1.338,0.477c0.386,0.093,0.782,0.103,1.175,0.09
				c0.077,0.003,0.16-0.015,0.237,0.016C9.075,19.236,9,19.269,8.95,19.295c-0.188,0.078-0.388,0.104-0.59,0.117
				c-0.531,0.029-1.063-0.085-1.576-0.225c-0.686-0.186-1.334-0.481-1.96-0.806c-0.073-0.041-0.153-0.083-0.201-0.146
				c-0.023-0.034-0.023-0.096,0.013-0.11c0.073-0.044,0.17-0.054,0.245-0.077c-0.264-0.098-0.555-0.076-0.827-0.152
				c-0.05-0.02-0.115-0.039-0.145-0.098c-0.035-0.068,0.017-0.146,0.085-0.175c0.112-0.05,0.238-0.044,0.359-0.083
				c-0.108-0.064-0.227-0.074-0.345-0.11c-0.133-0.036-0.269-0.071-0.39-0.146c-0.054-0.039-0.112-0.104-0.097-0.179
				c0.032-0.051,0.097-0.059,0.153-0.068c0.152-0.007,0.308,0,0.459-0.036c-0.042-0.029-0.081-0.057-0.129-0.073
				c-0.252-0.068-0.517-0.073-0.76-0.174c-0.094-0.036-0.189-0.103-0.22-0.202c-0.014-0.037-0.027-0.081,0.001-0.112
				c0.028-0.046,0.089-0.049,0.136-0.057c0.205-0.012,0.409,0.042,0.612,0.035c-0.046-0.074-0.113-0.13-0.197-0.152
				c-0.191-0.065-0.378-0.144-0.541-0.251c-0.275-0.173-0.539-0.371-0.763-0.601c-0.1-0.103-0.197-0.215-0.244-0.347
				C2.01,15,2,14.915,2.062,14.881c0.07-0.044,0.156-0.022,0.225,0c0.3,0.088,0.558,0.261,0.838,0.383
				c-0.481-0.432-0.984-0.844-1.413-1.33c-0.155-0.186-0.322-0.378-0.377-0.618v-0.088c0.013-0.034,0.029-0.072,0.051-0.1
				C1.44,13.11,1.497,13.13,1.54,13.159c0.104,0.059,0.193,0.137,0.283,0.213c0.309,0.269,0.598,0.549,0.917,0.809
				c0.104,0.085,0.211,0.178,0.345,0.219c-0.056-0.124-0.139-0.234-0.217-0.346c-0.347-0.504-0.691-1.006-0.992-1.535
				C1.668,12.14,1.47,11.753,1.385,11.33c-0.023-0.167-0.043-0.359,0.062-0.503c0.097-0.013,0.142,0.097,0.193,0.157
				c0.417,0.627,0.748,1.308,1.18,1.927c0.088,0.12,0.173,0.249,0.304,0.32c-0.013-0.075-0.031-0.149-0.059-0.222
				c-0.244-0.684-0.527-1.354-0.737-2.049c-0.056-0.202-0.115-0.405-0.133-0.617C2.192,10.28,2.192,10.211,2.226,10.155
				L2.226,10.155z"/>
			<path fill="#FEC91B" d="M14.972,19.788c0.036-0.061,0.111-0.066,0.173-0.054c0.149,0.022,0.296,0.047,0.451,0.062
				c0.623,0.062,1.245,0.075,1.873,0.103c0.202,0.019,0.413,0.01,0.615,0.048c0.027,0.006,0.068,0.006,0.071,0.042
				c0.039,0.234-0.084,0.472-0.293,0.579c-0.279,0.15-0.615,0.156-0.924,0.127c-0.007,0.119-0.01,0.248-0.078,0.349
				c-0.063,0.088-0.173,0.127-0.277,0.144c-0.208,0.035-0.415-0.014-0.615-0.068c-0.076,0.115-0.169,0.249-0.312,0.289
				c-0.13,0.036-0.254-0.029-0.361-0.089c-0.154,0.138-0.325,0.274-0.543,0.291c-0.109,0.013-0.215-0.026-0.322-0.036
				c-0.134,0.083-0.251,0.199-0.417,0.225c-0.13,0.023-0.251-0.052-0.35-0.132c-0.132,0.093-0.269,0.186-0.425,0.229h-0.141
				c-0.108-0.027-0.179-0.122-0.225-0.215c-0.104,0.059-0.206,0.111-0.318,0.127c-0.134,0.02-0.275,0-0.397-0.049
				c-0.048-0.01-0.099-0.04-0.148-0.024c-0.167,0.043-0.327,0.106-0.5,0.083c-0.08-0.011-0.137-0.074-0.188-0.133
				c-0.123,0.074-0.258,0.146-0.406,0.146c-0.105,0-0.216-0.017-0.297-0.092c-0.073-0.069-0.062-0.188-0.003-0.267
				c0.077-0.103,0.192-0.159,0.29-0.241c0.161-0.13,0.313-0.265,0.476-0.391c0.032-0.025,0.071-0.034,0.111-0.025
				c0.548,0.045,1.102,0.055,1.65-0.053c0.309-0.064,0.618-0.159,0.901-0.301c0.065-0.034,0.129-0.075,0.205-0.073
				c0.125,0.01,0.249,0.017,0.374,0.021c0.014-0.048,0.017-0.095,0.036-0.134c0.041-0.034,0.091-0.047,0.135-0.073
				c0.067-0.036,0.111-0.101,0.144-0.164C14.966,19.959,14.949,19.868,14.972,19.788L14.972,19.788z"/>
			<path fill="#FEC91B" d="M21.998,12.805c0.253-0.395,0.498-0.796,0.634-1.242c0.042-0.134,0.035-0.28,0.035-0.414
				c-0.006-0.059-0.016-0.127-0.052-0.176c-0.029-0.012-0.066-0.01-0.095,0.014c-0.064,0.053-0.113,0.13-0.164,0.198
				c-0.513,0.749-0.936,1.549-1.472,2.272c-0.089,0.115-0.174,0.239-0.311,0.311c0.041-0.171,0.12-0.332,0.183-0.491
				c0.312-0.748,0.641-1.488,0.898-2.254c0.064-0.207,0.138-0.417,0.156-0.632c0.006-0.082-0.007-0.19-0.095-0.215
				c-0.088-0.003-0.144,0.082-0.188,0.149c-0.15,0.234-0.254,0.485-0.375,0.738c-0.198,0.439-0.384,0.875-0.597,1.306
				c0-0.476,0.054-0.947,0.03-1.425c-0.01-0.063-0.003-0.144-0.054-0.192c-0.06-0.062-0.157-0.057-0.223-0.021
				c-0.026,0.051-0.02,0.114-0.026,0.172c-0.11,1.331-0.638,2.605-1.419,3.682c-0.661,0.926-1.504,1.712-2.448,2.342
				c-1.051,0.697-2.239,1.221-3.497,1.396c-0.231,0.034-0.46,0.112-0.664,0.218c-0.285,0.145-0.541,0.337-0.808,0.51
				c-0.232,0.146-0.466,0.306-0.731,0.398c-0.347,0.122-0.703,0.223-1.01,0.425c-0.265,0.178-0.491,0.407-0.668,0.669
				c-0.079,0.112-0.037,0.264,0.006,0.379c0.027,0.068,0.073,0.16,0.158,0.144c0.081-0.059,0.07-0.173,0.124-0.249
				c0.011-0.027,0.042-0.031,0.063-0.015c0.035,0.026,0.06,0.059,0.097,0.076c0.11,0.028,0.207-0.05,0.298-0.099
				c0.084-0.019,0.17-0.014,0.261-0.019c0.95-0.044,1.905-0.089,2.856-0.118c0.212,0,0.434-0.044,0.612-0.166
				c0.029-0.023,0.068-0.043,0.073-0.082c-0.018-0.047-0.071-0.081-0.12-0.084c-0.146-0.02-0.292,0.022-0.439,0.015
				c-0.703-0.034-1.399,0.086-2.099,0.063c-0.046,0.001-0.126-0.026-0.094-0.078c0.132-0.18,0.292-0.334,0.427-0.502
				c-0.13,0.004-0.26-0.006-0.396,0.004c-0.11,0.042-0.213,0.127-0.343,0.108c0.068-0.074,0.16-0.118,0.245-0.174
				c0.407-0.244,0.83-0.451,1.26-0.657c0.177-0.082,0.35-0.18,0.54-0.238c0.506-0.152,1.021-0.259,1.541-0.345
				c0.286-0.037,0.576-0.063,0.864-0.081c0.095-0.017,0.207,0,0.273-0.082c0.427-0.475,0.942-0.882,1.545-1.121
				c0.269-0.112,0.557-0.193,0.831-0.306c0.153-0.103,0.275-0.258,0.393-0.405c0.198-0.263,0.352-0.556,0.529-0.829
				c0.255-0.42,0.571-0.809,0.948-1.121c0.131-0.104,0.261-0.203,0.424-0.247c0.029,0.049,0.055,0.105,0.086,0.162
				c0.086-0.06,0.174-0.127,0.285-0.14c0,0.273-0.183,0.5-0.258,0.755c-0.013,0.062-0.039,0.156,0.036,0.192
				c0.119,0.034,0.244-0.01,0.358-0.021c-0.083,0.266-0.326,0.427-0.52,0.615c-0.041,0.034-0.096,0.132-0.021,0.168
				c0.097,0.017,0.192-0.02,0.29-0.02c-0.029,0.073-0.085,0.125-0.149,0.173c-0.219,0.159-0.476,0.26-0.71,0.396
				c-0.037,0.026-0.098,0.068-0.062,0.117c0.042,0.046,0.107,0.07,0.149,0.117c-0.163,0.119-0.354,0.188-0.522,0.298
				c-0.034,0.024-0.086,0.051-0.071,0.098c0.013,0.061,0.071,0.1,0.105,0.146c-0.144,0.101-0.324,0.115-0.488,0.162
				c-0.051,0.014-0.107,0.031-0.13,0.087c0,0.078,0.052,0.147,0.034,0.225c-0.021,0.055-0.063,0.105-0.119,0.13
				c-0.075,0.027-0.156-0.008-0.227,0.027c-0.044,0.036-0.078,0.102-0.05,0.156c0.035,0.075,0.094,0.137,0.14,0.209
				c-0.081,0.029-0.168,0.042-0.247,0.064c-0.188,0.062-0.361,0.161-0.521,0.264c-0.113,0.075-0.25,0.095-0.382,0.127
				c-0.21,0.041-0.42,0.104-0.632,0.137c-0.232,0.036-0.462,0.068-0.691,0.129c-0.041,0.015-0.104,0.021-0.112,0.075
				c0.008,0.071,0.096,0.069,0.145,0.073c0.451,0.02,0.901-0.053,1.345-0.117c0.488-0.078,0.973-0.168,1.451-0.314
				c0.212-0.066,0.434-0.127,0.646-0.207c0.076-0.032,0.174-0.064,0.203-0.151c0-0.057-0.045-0.093-0.088-0.11
				c-0.104-0.044-0.218-0.066-0.325-0.105c0.104-0.063,0.231-0.063,0.345-0.078c0.199-0.023,0.407-0.02,0.596-0.102
				c0.078-0.035,0.095-0.152,0.023-0.211c-0.107-0.085-0.254-0.077-0.381-0.121c0.174-0.068,0.361-0.071,0.54-0.113
				c0.145-0.029,0.306-0.059,0.425-0.16c0.052-0.039,0.071-0.154-0.012-0.176c-0.117-0.049-0.25-0.029-0.377-0.074
				c0.034-0.039,0.071-0.075,0.123-0.095c0.215-0.095,0.459-0.13,0.663-0.257c0.086-0.056,0.167-0.144,0.159-0.249
				c0.005-0.058-0.057-0.09-0.105-0.095c-0.146-0.015-0.29,0.018-0.434,0.013c0.085-0.073,0.189-0.103,0.283-0.154
				c0.181-0.088,0.339-0.208,0.498-0.324c0.176-0.133,0.346-0.271,0.5-0.426c0.098-0.1,0.193-0.205,0.242-0.339
				c0.026-0.065,0.034-0.153-0.034-0.202c-0.066-0.024-0.147-0.001-0.208,0.024c-0.186,0.078-0.359,0.188-0.532,0.293
				c-0.13,0.078-0.261,0.166-0.415,0.192c0.002-0.085,0.076-0.137,0.127-0.192c0.256-0.245,0.522-0.481,0.774-0.729
				c0.243-0.244,0.488-0.488,0.693-0.769c0.083-0.12,0.168-0.244,0.183-0.397c0.007-0.083-0.039-0.179-0.132-0.186
				c-0.127,0.007-0.237,0.09-0.337,0.16c-0.352,0.259-0.656,0.572-0.994,0.853c-0.088,0.068-0.178,0.149-0.293,0.179
				c0.078-0.152,0.198-0.279,0.298-0.418C21.404,13.66,21.714,13.24,21.998,12.805z M10.184,20.35
				c-0.045,0.081-0.15,0.114-0.24,0.137c-0.055,0.013-0.12,0.036-0.17-0.007c-0.05-0.042-0.033-0.123-0.001-0.172
				c0.048-0.095,0.154-0.116,0.243-0.141c0.056-0.013,0.123-0.039,0.173,0C10.24,20.216,10.22,20.294,10.184,20.35z"/>
			<g>
				<path fill="#FEC91B" d="M12.03,4.052c-0.249,0-0.372-0.139-0.372-0.393c0-0.257,0.372-1.554,0.372-1.554S12.4,3.4,12.4,3.659
					C12.399,3.913,12.277,4.052,12.03,4.052z"/>
				<path fill="#FEC91B" d="M11.012,4.152c-0.242,0.046-0.391-0.061-0.444-0.313c-0.049-0.25,0.062-1.597,0.062-1.597
					s0.619,1.199,0.671,1.452C11.352,3.943,11.26,4.104,11.012,4.152z"/>
				<path fill="#FEC91B" d="M10.036,4.445C9.809,4.542,9.64,4.46,9.542,4.225C9.443,3.986,9.29,2.648,9.29,2.648
					s0.843,1.058,0.938,1.29C10.33,4.175,10.265,4.352,10.036,4.445z"/>
				<path fill="#FEC91B" d="M9.139,4.928c-0.207,0.135-0.387,0.09-0.531-0.122c-0.143-0.215-0.553-1.5-0.553-1.5
					s1.032,0.87,1.17,1.083C9.367,4.604,9.341,4.787,9.139,4.928z"/>
				<path fill="#FEC91B" d="M8.349,5.572C8.168,5.75,7.986,5.735,7.803,5.556C7.625,5.376,6.97,4.195,6.97,4.195
					S8.15,4.85,8.33,5.028C8.512,5.211,8.525,5.398,8.349,5.572z"/>
				<path fill="#FEC91B" d="M7.698,6.362c-0.137,0.204-0.32,0.231-0.533,0.09C6.954,6.307,6.078,5.278,6.078,5.278
					s1.287,0.41,1.497,0.555C7.79,5.973,7.838,6.154,7.698,6.362z"/>
				<path fill="#FEC91B" d="M7.218,7.258C7.122,7.488,6.945,7.548,6.71,7.452c-0.235-0.097-1.294-0.94-1.294-0.94
					s1.342,0.155,1.579,0.253C7.232,6.863,7.312,7.028,7.218,7.258z"/>
				<path fill="#FEC91B" d="M6.922,8.234C6.872,8.476,6.71,8.57,6.458,8.52c-0.25-0.047-1.446-0.665-1.446-0.665
					S6.353,7.743,6.605,7.79C6.857,7.84,6.97,7.988,6.922,8.234z"/>
				<path fill="#FEC91B" d="M6.822,9.249c0,0.251-0.142,0.374-0.399,0.374c-0.254,0-1.553-0.374-1.553-0.374S6.167,8.88,6.423,8.88
					C6.679,8.88,6.822,9,6.822,9.249z"/>
				<path fill="#FEC91B" d="M6.918,10.262c0.048,0.247-0.063,0.392-0.319,0.443c-0.25,0.05-1.593-0.059-1.593-0.059
					s1.2-0.618,1.446-0.668C6.706,9.926,6.867,10.019,6.918,10.262z"/>
				<path fill="#FEC91B" d="M7.21,11.242c0.095,0.232,0.015,0.396-0.218,0.496c-0.237,0.097-1.583,0.246-1.583,0.246
					s1.059-0.837,1.297-0.937C6.938,10.952,7.116,11.01,7.21,11.242z"/>
				<path fill="#FEC91B" d="M7.69,12.142c0.139,0.204,0.094,0.385-0.12,0.524c-0.215,0.146-1.497,0.555-1.497,0.555
					s0.872-1.029,1.082-1.171C7.369,11.908,7.553,11.933,7.69,12.142z"/>
				<path fill="#FEC91B" d="M8.336,12.931c0.174,0.173,0.164,0.358-0.018,0.542c-0.18,0.181-1.358,0.835-1.358,0.835
					s0.655-1.18,0.833-1.36C7.973,12.765,8.161,12.752,8.336,12.931z"/>
				<path fill="#FEC91B" d="M9.126,13.575c0.204,0.144,0.229,0.326,0.087,0.537C9.075,14.324,8.04,15.2,8.04,15.2
					s0.412-1.289,0.553-1.501C8.738,13.491,8.917,13.438,9.126,13.575z"/>
				<path fill="#FEC91B" d="M10.023,14.061c0.23,0.096,0.29,0.271,0.195,0.506c-0.1,0.239-0.94,1.294-0.94,1.294
					s0.153-1.343,0.25-1.58C9.625,14.048,9.793,13.966,10.023,14.061z"/>
				<path fill="#FEC91B" d="M10.998,14.358c0.244,0.047,0.339,0.208,0.288,0.457c-0.051,0.249-0.667,1.452-0.667,1.452
					s-0.113-1.346-0.063-1.599C10.605,14.424,10.755,14.308,10.998,14.358z"/>
				<path fill="#FEC91B" d="M12.015,14.461c0.248,0,0.369,0.14,0.369,0.393c0,0.257-0.369,1.558-0.369,1.558
					s-0.375-1.299-0.375-1.558C11.642,14.601,11.762,14.461,12.015,14.461z"/>
				<path fill="#FEC91B" d="M13.03,14.36c0.246-0.046,0.393,0.064,0.441,0.315c0.05,0.249-0.062,1.599-0.062,1.599
					s-0.617-1.203-0.668-1.455C12.688,14.568,12.783,14.409,13.03,14.36z"/>
				<path fill="#FEC91B" d="M14.005,14.067c0.231-0.095,0.397-0.014,0.495,0.221c0.095,0.238,0.251,1.579,0.251,1.579
					s-0.84-1.058-0.939-1.294C13.716,14.334,13.777,14.16,14.005,14.067z"/>
				<path fill="#FEC91B" d="M14.907,13.587c0.21-0.14,0.387-0.093,0.527,0.119c0.14,0.215,0.553,1.5,0.553,1.5
					s-1.028-0.872-1.172-1.084C14.673,13.911,14.697,13.724,14.907,13.587z"/>
				<path fill="#FEC91B" d="M15.696,12.94c0.174-0.179,0.359-0.166,0.542,0.017c0.179,0.179,0.835,1.357,0.835,1.357
					s-1.182-0.651-1.362-0.833C15.53,13.302,15.516,13.118,15.696,12.94z"/>
				<path fill="#FEC91B" d="M16.346,12.151c0.137-0.205,0.317-0.233,0.529-0.086c0.216,0.14,1.087,1.172,1.087,1.172
					s-1.284-0.414-1.501-0.556C16.253,12.54,16.202,12.361,16.346,12.151z"/>
				<path fill="#FEC91B" d="M16.827,11.253c0.095-0.228,0.271-0.288,0.508-0.189c0.233,0.097,1.289,0.938,1.289,0.938
					s-1.341-0.154-1.575-0.251C16.81,11.652,16.729,11.485,16.827,11.253z"/>
				<path fill="#FEC91B" d="M17.12,10.278c0.053-0.245,0.214-0.336,0.463-0.285c0.247,0.045,1.451,0.663,1.451,0.663
					s-1.346,0.112-1.598,0.063C17.186,10.67,17.075,10.525,17.12,10.278z"/>
				<path fill="#FEC91B" d="M17.223,9.265c0-0.251,0.142-0.375,0.397-0.375s1.551,0.375,1.551,0.375s-1.295,0.374-1.551,0.374
					C17.363,9.638,17.223,9.513,17.223,9.265z"/>
				<path fill="#FEC91B" d="M17.125,8.247c-0.049-0.245,0.063-0.39,0.314-0.44c0.252-0.048,1.599,0.062,1.599,0.062
					s-1.205,0.62-1.455,0.667C17.335,8.587,17.176,8.495,17.125,8.247z"/>
				<path fill="#FEC91B" d="M16.834,7.273c-0.1-0.235-0.017-0.399,0.222-0.495c0.234-0.102,1.572-0.252,1.572-0.252
					s-1.055,0.844-1.289,0.938C17.101,7.562,16.929,7.505,16.834,7.273z"/>
				<path fill="#FEC91B" d="M16.353,6.372c-0.141-0.207-0.092-0.388,0.12-0.526c0.212-0.142,1.496-0.557,1.496-0.557
					s-0.871,1.031-1.086,1.175C16.675,6.601,16.492,6.577,16.353,6.372z"/>
				<path fill="#FEC91B" d="M15.704,5.583c-0.177-0.175-0.167-0.361,0.017-0.542c0.179-0.181,1.364-0.835,1.364-0.835
					s-0.658,1.182-0.837,1.36C16.065,5.749,15.882,5.76,15.704,5.583z"/>
				<path fill="#FEC91B" d="M14.92,4.933c-0.208-0.136-0.237-0.32-0.091-0.532c0.142-0.215,1.172-1.086,1.172-1.086
					S15.587,4.6,15.447,4.812C15.304,5.025,15.125,5.073,14.92,4.933z"/>
				<path fill="#FEC91B" d="M14.019,4.454c-0.231-0.099-0.29-0.272-0.192-0.509c0.098-0.233,0.938-1.293,0.938-1.293
					s-0.153,1.343-0.252,1.581C14.415,4.465,14.253,4.546,14.019,4.454z"/>
				<path fill="#FEC91B" d="M13.043,4.155c-0.246-0.049-0.34-0.21-0.286-0.459c0.046-0.249,0.669-1.45,0.669-1.45
					s0.107,1.347,0.059,1.598C13.436,4.093,13.289,4.206,13.043,4.155z"/>
				<circle fill="#FEC91B" cx="12.022" cy="9.256" r="4.577"/>
			</g>
		</g>
	</g>
</g>
</svg>
