<?xml version="1.0" encoding="utf-8"?>
<!-- Generator: Adobe Illustrator 16.0.0, SVG Export Plug-In . SVG Version: 6.00 Build 0)  -->
<!DOCTYPE svg PUBLIC "-//W3C//DTD SVG 1.1//EN" "http://www.w3.org/Graphics/SVG/1.1/DTD/svg11.dtd">
<svg version="1.1" id="Layer_1" xmlns="http://www.w3.org/2000/svg" xmlns:xlink="http://www.w3.org/1999/xlink" x="0px" y="0px"
	 width="40px" height="40px" viewBox="0 0 40 40" enable-background="new 0 0 40 40" xml:space="preserve">
<g>
	<g>
		<path fill="#139CD8" d="M20.003,40c8.069,0,15.021-4.785,18.179-11.668H1.817C4.98,35.215,11.934,40,20.003,40z"/>
		<path fill="#EF4236" d="M20.003,0C11.934,0,4.98,4.785,1.817,11.668h36.365C35.021,4.785,28.072,0,20.003,0z"/>
		<path fill="#FFFFFF" d="M0,20c0,2.977,0.654,5.795,1.817,8.333h36.365C39.346,25.795,40,22.977,40,20
			c0-2.975-0.654-5.792-1.818-8.331H1.817C0.654,14.207,0,17.024,0,20z"/>
	</g>
</g>
<g>
	<path fill="#D0D0D5" d="M1,20c0-2.991,0.714-5.812,1.951-8.332H1.835C0.669,14.207,0,17.022,0,20s0.668,5.793,1.835,8.332h1.116
		C1.714,25.812,1,22.991,1,20z"/>
	<path fill="#D0D0D5" d="M39,20c0,2.991-0.714,5.812-1.95,8.332h1.115C39.332,25.793,40,22.978,40,20s-0.668-5.793-1.835-8.332
		H37.05C38.286,14.188,39,17.009,39,20z"/>
</g>
</svg>
