<?xml version="1.0" encoding="utf-8"?>
<!-- Generator: Adobe Illustrator 16.0.0, SVG Export Plug-In . SVG Version: 6.00 Build 0)  -->
<!DOCTYPE svg PUBLIC "-//W3C//DTD SVG 1.0//EN" "http://www.w3.org/TR/2001/REC-SVG-20010904/DTD/svg10.dtd">
<svg version="1.0" id="Layer_1" xmlns="http://www.w3.org/2000/svg" xmlns:xlink="http://www.w3.org/1999/xlink" x="0px" y="0px"
	 width="40px" height="40px" viewBox="0 0 40 40" enable-background="new 0 0 40 40" xml:space="preserve">
<g>
	<g>
		<path fill="#A22931" d="M20,40c9.017,0,16.639-5.965,19.134-14.165H0.867C3.362,34.035,10.986,40,20,40z"/>
		<path fill="#A22931" d="M20,0C10.986,0,3.362,5.969,0.867,14.168h38.267C36.639,5.969,29.017,0,20,0z"/>
		<path fill="#FFFFFF" d="M39.134,14.168H0.867C0.305,16.014,0,17.972,0,20c0,2.029,0.305,3.989,0.867,5.835h38.267
			C39.697,23.989,40,22.029,40,20C40,17.972,39.697,16.014,39.134,14.168z"/>
	</g>
</g>
</svg>
