<?xml version="1.0" encoding="utf-8"?>
<!-- Generator: Adobe Illustrator 16.0.0, SVG Export Plug-In . SVG Version: 6.00 Build 0)  -->
<!DOCTYPE svg PUBLIC "-//W3C//DTD SVG 1.0//EN" "http://www.w3.org/TR/2001/REC-SVG-20010904/DTD/svg10.dtd">
<svg version="1.0" id="Layer_1" xmlns="http://www.w3.org/2000/svg" xmlns:xlink="http://www.w3.org/1999/xlink" x="0px" y="0px"
	 width="40px" height="40px" viewBox="0 0 40 40" enable-background="new 0 0 40 40" xml:space="preserve">
<g>
	<g>
		<path fill="#14B53A" d="M0,19.999c0,8.07,4.784,15.021,11.667,18.18V1.818C4.784,4.98,0,11.929,0,19.999z"/>
		<path fill="#CE1126" d="M40,19.999c0-8.07-4.783-15.018-11.667-18.181v36.361C35.217,35.02,40,28.068,40,19.999z"/>
		<path fill="#FCD116" d="M20,0c-2.975,0-5.796,0.653-8.333,1.818v36.361C14.204,39.344,17.025,40,20,40
			c2.976,0,5.798-0.656,8.333-1.821V1.818C25.798,0.653,22.976,0,20,0z"/>
	</g>
</g>
</svg>
