<svg width="40" height="40" viewBox="0 0 40 40" xmlns="http://www.w3.org/2000/svg" xmlns:xlink="http://www.w3.org/1999/xlink">
    <defs>
        <path d="M20 40C8.955 40 0 31.046 0 20 0 8.956 8.954 0 20 0s20 8.956 20 20c0 11.046-8.954 20-20 20z" id="fav0wfo4ea"/>
    </defs>
    <g fill="none" fill-rule="evenodd">
        <mask id="ly2re60v4b" fill="#fff">
            <use xlink:href="#fav0wfo4ea"/>
        </mask>
        <use fill="#C8102E" xlink:href="#fav0wfo4ea"/>
        <g mask="url(#ly2re60v4b)">
            <path d="M40 20c0 11.047-8.954 20-20 20S0 31.047 0 20C0 8.954 8.954 0 20 0s20 8.954 20 20" fill="#000"/>
            <path fill="#CE1126" d="M-.263 12h40v17h-40z"/>
            <path fill="#339E35" d="M-.263 29h40v11h-40z"/>
            <path fill="#000" d="M-.263 0h40v12h-40z"/>
            <path d="M20.301 2.455c0-.325-.084-.648-.3-.648-.217 0-.3.323-.3.648 0 .789.3 2.52.3 2.52s.3-1.731.3-2.52M19.363 5.004s.15-1.75.08-2.538c-.026-.322-.14-.638-.355-.619-.217.019-.272.35-.242.674.068.785.517 2.483.517 2.483M18.73 5.086s-.003-1.757-.139-2.531c-.056-.319-.197-.626-.408-.587-.215.037-.24.367-.183.69.136.773.73 2.428.73 2.428M18.11 5.227s-.158-1.754-.36-2.514c-.087-.314-.25-.603-.46-.548-.209.058-.206.39-.122.704.205.759.942 2.358.942 2.358M17.502 5.415s-.31-1.73-.578-2.47c-.112-.304-.303-.58-.504-.508-.205.076-.172.409-.06.715.266.74 1.142 2.263 1.142 2.263M16.914 5.66s-.46-1.698-.793-2.41c-.137-.296-.35-.551-.547-.46-.195.091-.134.418.002.713.333.716 1.338 2.157 1.338 2.157M16.349 5.953s-.606-1.649-1-2.331c-.162-.28-.397-.518-.584-.411-.19.11-.1.429.064.714.393.678 1.52 2.028 1.52 2.028M15.812 6.297s-.748-1.595-1.2-2.237c-.186-.266-.44-.484-.618-.36-.177.126-.06.44.126.705.451.647 1.692 1.892 1.692 1.892M15.308 6.682s-.887-1.52-1.39-2.122c-.211-.247-.483-.44-.648-.302-.165.14-.023.44.186.688.506.606 1.852 1.736 1.852 1.736M14.837 7.115s-1.013-1.44-1.57-1.993c-.23-.23-.518-.4-.671-.245-.153.155.016.44.246.67.556.556 1.995 1.568 1.995 1.568M12.283 6.196c.601.507 2.123 1.386 2.123 1.386S13.27 6.24 12.669 5.734c-.25-.207-.552-.35-.69-.188-.14.17.054.44.304.65M11.781 6.892c.646.454 2.238 1.198 2.238 1.198s-1.248-1.242-1.893-1.693c-.267-.183-.58-.302-.703-.124-.124.178.093.432.358.62M11.342 7.629c.684.393 2.334.996 2.334.996s-1.352-1.128-2.033-1.517c-.28-.16-.604-.25-.71-.064-.11.19.13.42.41.585M10.972 8.403c.713.33 2.41.789 2.41.789s-1.446-1.004-2.158-1.336c-.293-.138-.624-.198-.714-.003-.09.2.165.412.462.55M10.666 9.202c.743.27 2.472.578 2.472.578s-1.529-.872-2.265-1.144c-.306-.11-.639-.141-.71.06-.077.205.198.396.503.506M9.887 9.57c-.056.21.233.372.548.462.282.073.7.142 1.115.197h1.044c-.514-.229-1.466-.64-2.005-.783-.311-.082-.647-.085-.702.123M21.156 2.521c.027-.324-.028-.655-.242-.674-.218-.02-.328.297-.356.62-.07.787.08 2.536.08 2.536s.45-1.697.518-2.482M21.818 1.968c-.214-.04-.352.268-.408.587-.137.774-.143 2.53-.143 2.53s.599-1.655.734-2.426c.057-.324.03-.654-.183-.691M22.833 2.869c.083-.314.086-.648-.124-.704-.208-.056-.372.233-.458.548-.203.76-.36 2.513-.36 2.513s.738-1.598.942-2.357M23.642 3.152c.112-.306.143-.64-.061-.715-.205-.072-.392.204-.504.508-.269.74-.58 2.47-.58 2.47s.877-1.523 1.145-2.263M24.425 3.504c.136-.296.197-.622 0-.715-.198-.093-.407.165-.547.462-.332.711-.791 2.409-.791 2.409s1.005-1.44 1.338-2.156M25.173 3.925c.162-.284.25-.607.062-.714-.188-.108-.42.132-.584.41-.393.683-1 2.332-1 2.332s1.129-1.35 1.522-2.028M25.881 4.405c.187-.266.302-.583.125-.704-.178-.125-.43.093-.619.359-.45.642-1.2 2.237-1.2 2.237s1.243-1.245 1.694-1.892M24.695 6.682s1.344-1.13 1.85-1.736c.208-.247.35-.55.186-.688-.168-.14-.438.055-.646.302-.506.602-1.39 2.122-1.39 2.122M25.165 7.115s1.436-1.012 1.994-1.569c.23-.23.399-.52.245-.669-.153-.155-.439.014-.672.245-.554.553-1.567 1.993-1.567 1.993M25.596 7.582s1.518-.88 2.122-1.386c.249-.211.441-.48.303-.65-.14-.164-.439-.02-.689.188-.601.505-1.736 1.848-1.736 1.848M25.983 8.09s1.591-.744 2.237-1.198c.267-.187.483-.443.357-.619-.124-.179-.436-.059-.703.124-.643.451-1.89 1.694-1.89 1.694M26.325 8.626s1.65-.604 2.332-.997c.283-.164.52-.397.41-.585-.108-.189-.428-.096-.71.064-.68.39-2.032 1.518-2.032 1.518M26.62 9.192s1.694-.46 2.41-.79c.294-.137.55-.354.46-.55-.09-.196-.418-.134-.715.004-.71.332-2.155 1.336-2.155 1.336M26.861 9.78s1.732-.309 2.472-.579c.307-.109.58-.3.506-.504-.075-.205-.404-.172-.71-.061-.738.272-2.268 1.144-2.268 1.144M29.566 10.032c.315-.09.605-.255.549-.463-.056-.211-.391-.204-.703-.123-.54.143-1.494.556-2.007.784h1.043c.417-.056.835-.126 1.118-.198M20.001 5.902a6.37 6.37 0 0 0-6.033 4.328h12.065a6.372 6.372 0 0 0-6.032-4.328" fill="#CE1126"/>
        </g>
    </g>
</svg>
