<?xml version="1.0" encoding="utf-8"?>
<!-- Generator: Adobe Illustrator 16.0.0, SVG Export Plug-In . SVG Version: 6.00 Build 0)  -->
<!DOCTYPE svg PUBLIC "-//W3C//DTD SVG 1.0//EN" "http://www.w3.org/TR/2001/REC-SVG-20010904/DTD/svg10.dtd">
<svg version="1.0" id="Layer_1" xmlns="http://www.w3.org/2000/svg" xmlns:xlink="http://www.w3.org/1999/xlink" x="0px" y="0px"
	 width="40px" height="40px" viewBox="0 0 40 40" enable-background="new 0 0 40 40" xml:space="preserve">
<g>
	<g>
		<g>
			<path fill="#FCE100" d="M4.26,32.312C7.922,36.984,13.604,40,20,40c8.405,0,15.588-5.192,18.545-12.537H10.597L4.26,32.312z"/>
			<path d="M20.349,20l-7.898,6.043h26.615C39.67,24.138,40,22.107,40,20c0-2.109-0.332-4.137-0.938-6.045H12.448L20.349,20z"/>
			<path fill="#007168" d="M38.545,12.536C35.586,5.189,28.405,0,20,0C13.604,0,7.922,3.014,4.26,7.689l6.334,4.847H38.545z"/>
			<path fill="#FFFFFF" d="M38.806,13.244c-0.087-0.236-0.166-0.477-0.261-0.708H10.594l0.925,0.708l0.928,0.711h26.615
				C38.987,13.712,38.89,13.48,38.806,13.244z"/>
			<path fill="#FFFFFF" d="M12.45,26.043l-0.928,0.71l-0.926,0.71h27.948c0.095-0.233,0.176-0.474,0.261-0.71
				c0.084-0.236,0.182-0.467,0.26-0.71H12.45z"/>
			<path fill="#CF142B" d="M4.26,7.689c-1.149,1.466-2.099,3.092-2.806,4.847c-0.093,0.231-0.173,0.472-0.259,0.708
				c-0.086,0.236-0.184,0.469-0.259,0.711C0.331,15.863,0,17.891,0,20c0,2.107,0.331,4.138,0.935,6.043
				c0.076,0.243,0.173,0.474,0.26,0.71c0.085,0.236,0.165,0.477,0.259,0.71c0.707,1.754,1.657,3.38,2.806,4.849L20.349,20
				L4.26,7.689z"/>
		</g>
		<g>
			<polygon fill="#FCE100" points="6.912,14.419 8.295,18.68 12.777,18.68 9.151,21.316 10.539,25.579 6.912,22.946 3.284,25.579 
				4.669,21.316 1.044,18.68 5.526,18.68 			"/>
			<g>
				<path fill="#FFFFFF" d="M12.33,14.881h0.017v0.015C12.333,14.901,12.328,14.896,12.33,14.881L12.33,14.881z"/>
				<g>
					<path d="M7.922,18.33c0.024-0.042,0.028-0.086,0.033-0.132c0.143-0.127,0.291-0.255,0.436-0.386
						c0.107,0.038,0.194,0.111,0.255,0.202c0.014,0.018,0.025,0.047,0.049,0.038c0.025-0.01,0.042-0.029,0.059-0.045
						c0.339-0.283,0.674-0.566,1.01-0.854c0.07-0.059,0.143-0.119,0.216-0.178c0.03,0.012,0.061,0.029,0.098,0.031
						c0.051,0.006,0.113,0.001,0.149-0.041c0.707-0.677,1.416-1.354,2.12-2.033v-0.036c-0.015,0.005-0.019,0-0.017-0.015h-0.023
						c-0.072,0.041-0.138,0.096-0.208,0.143c-0.685,0.483-1.366,0.965-2.048,1.445c-0.02,0.013-0.036,0.028-0.058,0.036
						c-0.016-0.011-0.027-0.021-0.043-0.027c0.02-0.039,0.043-0.077,0.034-0.121c-0.009-0.041-0.031-0.078-0.062-0.107
						c-0.036-0.034-0.094-0.033-0.133-0.008c-0.051,0.026-0.087,0.072-0.129,0.112c-0.083-0.031-0.165-0.066-0.24-0.112
						c-0.053-0.034-0.102-0.073-0.13-0.128c-0.01-0.001-0.015-0.008-0.022-0.013c-0.01,0.005-0.021,0.005-0.033,0.013
						c-0.01,0.049-0.007,0.106-0.013,0.16c-0.007,0.076-0.005,0.149-0.015,0.221c-0.188,0.182-0.38,0.355-0.565,0.534
						c-0.152-0.006-0.299-0.016-0.45-0.022c-0.208,0.202-0.41,0.398-0.618,0.597c-0.02,0.021-0.048,0.038-0.056,0.07
						c-0.012,0.031-0.022,0.065-0.034,0.1c-0.028-0.031-0.044-0.075-0.076-0.107c-0.027-0.007-0.044,0.016-0.06,0.031
						c-0.114,0.107-0.223,0.226-0.344,0.326c-0.01,0.01-0.029,0.026-0.042,0.006c-0.353-0.404-0.709-0.797-1.062-1.201
						c0.021-0.067,0.038-0.135,0.058-0.2c0.008-0.021-0.01-0.038-0.021-0.05c-0.222-0.241-0.443-0.482-0.665-0.725
						c-0.026-0.034-0.067-0.036-0.103-0.047c-0.143-0.034-0.301-0.036-0.432,0.034c-0.116,0.06-0.188,0.174-0.229,0.293
						c-0.022,0.057-0.031,0.115-0.044,0.176c-0.032,0.013-0.067,0.026-0.104,0.027c-0.124,0.013-0.247-0.008-0.365-0.024
						c-0.04-0.003-0.078-0.021-0.112-0.006c-0.088,0.015-0.177,0.031-0.264,0.054c-0.013,0-0.022,0.015-0.03,0.021
						c-0.521,0.741-1.042,1.478-1.562,2.219c-0.014,0.021-0.039,0.042-0.045,0.071c0.004,0.024,0.023,0.044,0.038,0.059
						c0.291,0.345,0.577,0.693,0.865,1.04c0.012,0.018,0.046,0.018,0.054,0c0.601-0.758,1.198-1.517,1.798-2.273
						c0.018-0.024,0.043-0.047,0.043-0.077c0.019-0.187,0.029-0.375,0.049-0.562c0.09,0.107,0.183,0.207,0.275,0.311
						c0.022,0.018,0.037,0.045,0.065,0.063c0.055,0.016,0.118,0.013,0.177,0.013c0.066,0,0.131-0.015,0.195-0.036
						c0.22,0.238,0.436,0.483,0.657,0.728c0.128,0.143,0.261,0.288,0.389,0.438c-0.051,0.047-0.1,0.094-0.15,0.143
						c-0.017,0.011-0.021,0.038-0.008,0.054c0.046,0.055,0.1,0.107,0.145,0.158c0.015,0.018,0.029,0.036,0.054,0.033
						c0.06-0.033,0.107-0.082,0.166-0.114c0.011,0.016,0.02,0.031,0.03,0.042c-0.066,0.039-0.125,0.1-0.192,0.137
						c-0.111-0.066-0.225-0.169-0.243-0.306c-0.007-0.029,0.007-0.062-0.018-0.082c-0.016-0.005-0.034-0.005-0.046,0.006
						c-0.14,0.112-0.275,0.233-0.415,0.347c-0.223,0.028-0.448,0.059-0.673,0.096c-0.208,0.039-0.418,0.077-0.62,0.14
						c-0.06,0.021-0.126,0.036-0.17,0.088C4.337,19.22,4.224,19.331,4.12,19.44c-0.029,0.096-0.046,0.19-0.071,0.288
						c-0.065,0.273-0.129,0.555-0.193,0.827c-0.039,0.002-0.079,0.007-0.12,0.017c-0.017,0-0.027,0.012-0.027,0.029
						c-0.016,0.144-0.023,0.288-0.04,0.435c0,0.026-0.008,0.054,0.021,0.068c0.011,0,0.025,0,0.038,0
						c-0.01,0.036-0.021,0.078-0.03,0.117c-0.028,0.003-0.062-0.012-0.083,0.013c-0.197,0.199-0.396,0.396-0.598,0.6
						c-0.151,0.01-0.317,0.034-0.442,0.132c-0.3,0.267-0.6,0.533-0.903,0.797c-0.063,0.062-0.132,0.117-0.194,0.176v0.021
						c0.013,0.022,0.033,0.046,0.051,0.066c0.204,0.241,0.408,0.48,0.614,0.718c0.072,0.104,0.253,0.109,0.333,0.007
						c0.3-0.366,0.607-0.73,0.913-1.101c0.96,0.002,1.921,0,2.88,0c0.084,0.073,0.181,0.124,0.28,0.173
						c0.179,0.075,0.386,0.096,0.579,0.049c0.183-0.042,0.354-0.135,0.506-0.242c0.039-0.024,0.084-0.039,0.125-0.056
						c0.286-0.112,0.596-0.14,0.898-0.146c0.505,0,1.012,0.075,1.5,0.195c0.049,0.008,0.096,0.034,0.149,0.022
						c0.298,0.346,0.6,0.688,0.9,1.027c0.017,0.02,0.043,0.017,0.064,0.007c0.076-0.034,0.159-0.068,0.211-0.136
						c0.053-0.062,0.065-0.149,0.072-0.226c0-0.02,0.004-0.044-0.011-0.054c-0.292-0.334-0.582-0.669-0.873-1.005
						c-0.023-0.027-0.028-0.063-0.037-0.098c-0.276-0.896-0.549-1.793-0.824-2.697c-0.005-0.011-0.01-0.026-0.021-0.036
						c-0.095-0.101-0.188-0.202-0.282-0.304C9.486,19.1,9.461,19.09,9.435,19.074c-0.123-0.057-0.251-0.105-0.384-0.14
						c-0.396-0.109-0.813-0.142-1.222-0.117c-0.051,0.003-0.105,0.008-0.155,0.008c-0.028-0.037-0.061-0.075-0.093-0.109
						c0.066-0.082,0.141-0.158,0.21-0.233C7.834,18.436,7.891,18.387,7.922,18.33z M7.24,18.354
						c-0.015-0.013-0.027-0.026-0.041-0.042c0.089-0.083,0.18-0.164,0.27-0.247c0.013-0.008,0.016-0.024,0.02-0.034
						c0.011,0.026,0.024,0.052,0.04,0.076C7.438,18.195,7.34,18.281,7.24,18.354z"/>
					<path fill="#FFFFFF" d="M5.17,18.966c0.211-0.034,0.422-0.066,0.637-0.096c-0.033,0.031-0.068,0.055-0.095,0.086
						c-0.012,0.029-0.015,0.067-0.021,0.096c-0.286,0.246-0.579,0.483-0.866,0.724c-0.172,0.142-0.34,0.287-0.514,0.423
						c0.084-0.361,0.167-0.721,0.25-1.079C4.758,19.044,4.966,19.009,5.17,18.966L5.17,18.966z"/>
					<path fill="#FFFFFF" d="M7.735,18.89c0.402-0.029,0.813-0.007,1.208,0.088c0.153,0.036,0.302,0.084,0.443,0.153
						c0.02,0.01,0.05,0.013,0.054,0.041c0.158,0.739,0.317,1.48,0.475,2.223c-0.186-0.208-0.369-0.425-0.552-0.633
						C8.82,20.137,8.275,19.513,7.735,18.89L7.735,18.89z"/>
					<path fill="#FFFFFF" d="M7.02,19.183c0.045-0.042,0.093-0.078,0.139-0.119c0.506,0.571,1.007,1.146,1.513,1.72
						c0.304,0.349,0.609,0.695,0.917,1.044c-0.281-0.034-0.562-0.051-0.841-0.053c-0.517,0.004-1.036,0.067-1.522,0.241
						c-0.08,0.029-0.158,0.068-0.236,0.095c0-0.107-0.003-0.217,0.002-0.326c0-0.156,0.001-0.306,0.001-0.459
						c0.181,0.044,0.372,0.075,0.559,0.048c0.049-0.01,0.1-0.02,0.142-0.044c0.025-0.023,0.018-0.059,0.024-0.088
						c0.017-0.227,0.022-0.459,0.03-0.692c0.003-0.024-0.013-0.049-0.041-0.045c-0.236-0.023-0.47-0.062-0.705-0.1
						c-0.001-0.384,0.001-0.77,0.005-1.156C7.011,19.23,7.001,19.199,7.02,19.183L7.02,19.183z"/>
					<path fill="#FFFFFF" d="M4.19,19.461c0.095-0.09,0.188-0.189,0.285-0.283c-0.084,0.366-0.167,0.732-0.254,1.099
						c-0.095,0.078-0.187,0.158-0.285,0.233c0.077-0.329,0.155-0.66,0.233-0.995C4.174,19.499,4.176,19.476,4.19,19.461L4.19,19.461
						z"/>
					<path fill="#FFFFFF" d="M9.513,19.235c0.064,0.067,0.127,0.137,0.192,0.202c0.013,0.02,0.033,0.029,0.042,0.052
						c0.265,0.881,0.53,1.75,0.799,2.63c-0.181-0.21-0.358-0.412-0.537-0.617c-0.011-0.01-0.016-0.022-0.018-0.035
						C9.831,20.723,9.672,19.979,9.513,19.235L9.513,19.235z"/>
					<path fill="#FFFFFF" d="M6.497,19.629c0.151-0.125,0.3-0.257,0.457-0.386c0.004,0.122-0.006,0.234-0.004,0.352
						c-0.002,0.265-0.002,0.536-0.003,0.799c-0.214-0.039-0.425-0.085-0.631-0.155c-0.097-0.034-0.193-0.068-0.276-0.128
						c-0.033-0.023-0.068-0.051-0.08-0.09c-0.009-0.075,0-0.158,0.05-0.216c0.08-0.091,0.204-0.135,0.324-0.148
						c0.008-0.017,0.018-0.038,0.004-0.052c-0.056-0.083-0.115-0.165-0.169-0.243c-0.002-0.026,0.007-0.049,0.012-0.065
						c0.089,0.107,0.176,0.215,0.261,0.322C6.453,19.64,6.479,19.647,6.497,19.629L6.497,19.629z"/>
					<path fill="#FFFFFF" d="M5.702,19.541c0.072-0.057,0.144-0.119,0.217-0.169c0,0.003,0.002,0.01,0.002,0.02
						c-0.267,0.228-0.525,0.469-0.787,0.71c-0.029,0.024-0.024,0.062-0.039,0.094c-0.034,0.036-0.074,0.067-0.109,0.101
						c-0.027-0.02-0.05-0.042-0.076-0.052c-0.015-0.005-0.028,0.008-0.04,0.018c-0.359,0.317-0.716,0.638-1.076,0.954
						c-0.005,0-0.018,0.005-0.025,0.005c0.021-0.066,0.028-0.134,0.052-0.2c0.348-0.291,0.701-0.581,1.049-0.874
						c0.018-0.011,0.043-0.023,0.05-0.052c0.002-0.02,0-0.042-0.001-0.066c0.035,0.016,0.062,0.078,0.111,0.049
						C5.253,19.897,5.476,19.722,5.702,19.541L5.702,19.541z"/>
					<path fill="#FFFFFF" d="M5.255,20.69c0.019-0.048,0.058-0.083,0.085-0.127c0.358,0.221,0.728,0.416,1.112,0.576
						c0.16,0.064,0.318,0.127,0.483,0.171c0,0.262-0.003,0.527-0.004,0.792c-0.109-0.039-0.221-0.079-0.334-0.11
						c-0.508-0.14-1.042-0.179-1.566-0.186c-0.034-0.095-0.058-0.202-0.089-0.298c0.142-0.149,0.278-0.305,0.417-0.452
						c0.024-0.034,0.074-0.058,0.063-0.1C5.372,20.866,5.311,20.779,5.255,20.69L5.255,20.69z"/>
					<path fill="#FFFFFF" d="M4.935,20.896c0.039-0.024,0.07-0.059,0.11-0.078c0.033,0.042,0.065,0.084,0.1,0.13
						c-0.061,0.081-0.119,0.161-0.191,0.232c-0.076,0.002-0.151,0-0.225,0c-0.146,0.129-0.289,0.261-0.432,0.388
						c-0.018,0.012-0.024,0.042-0.007,0.056c0.054,0.052,0.116,0.103,0.173,0.154c0.014,0.013,0.014,0.029,0.02,0.047
						c-0.009,0-0.029,0-0.04,0c-0.157,0.014-0.313,0.021-0.471,0.043c0.006-0.029,0.011-0.061,0.012-0.092
						c0.264-0.234,0.526-0.472,0.793-0.703c0.056,0,0.114,0.017,0.169,0.017c0.029-0.008,0.031-0.046,0.014-0.066
						c-0.033-0.007-0.071-0.014-0.088-0.046C4.87,20.938,4.911,20.916,4.935,20.896L4.935,20.896z"/>
					<path fill="#FFFFFF" d="M8.133,21.88c0.183-0.022,0.369-0.034,0.553-0.034c0.065-0.008,0.132,0,0.199,0
						c0.259,0.005,0.517,0.024,0.771,0.062c0.193,0.224,0.39,0.443,0.58,0.663c-0.439-0.109-0.89-0.188-1.343-0.204
						c-0.333-0.016-0.673,0-0.997,0.087c-0.103,0.032-0.205,0.066-0.298,0.117c-0.144-0.176-0.335-0.31-0.54-0.41
						C7.399,22.01,7.765,21.927,8.133,21.88L8.133,21.88z"/>
					<path fill="#FFFFFF" d="M5.047,21.88c0.362,0,0.723,0.024,1.081,0.078c0,0,0,0.002,0,0.003
						c0.028-0.001,0.054,0.007,0.083,0.014c0.232,0.04,0.46,0.101,0.678,0.186c-0.213,0.112-0.418,0.245-0.582,0.42
						c-0.197,0.005-0.395,0-0.592,0.001c-0.604,0-1.208,0-1.813,0c-0.151-0.001-0.305,0.004-0.455-0.003
						c0.125-0.151,0.247-0.306,0.375-0.457c0.048-0.068,0.111-0.127,0.14-0.205c0.023,0.021,0.06,0.013,0.088,0.011
						c0.153-0.018,0.307-0.025,0.461-0.035c0.07,0.182,0.132,0.369,0.202,0.552c0.016,0.042,0.025,0.081,0.046,0.115
						c0.011,0.02,0.038,0.015,0.051,0c0.113-0.08,0.228-0.154,0.338-0.237c0.019-0.01,0.017-0.034,0.01-0.054
						C5.12,22.136,5.084,22.009,5.047,21.88L5.047,21.88z"/>
					<path fill="#FFFFFF" d="M6.94,22.215c0.016-0.008,0.033-0.02,0.05-0.013c0.208,0.1,0.402,0.229,0.551,0.402
						c-0.158,0.112-0.339,0.19-0.53,0.213c-0.229,0.026-0.474-0.037-0.64-0.203C6.529,22.443,6.732,22.321,6.94,22.215L6.94,22.215z
						"/>
				</g>
			</g>
		</g>
	</g>
</g>
</svg>
