<?xml version="1.0" encoding="utf-8"?>
<!-- Generator: Adobe Illustrator 16.0.0, SVG Export Plug-In . SVG Version: 6.00 Build 0)  -->
<!DOCTYPE svg PUBLIC "-//W3C//DTD SVG 1.0//EN" "http://www.w3.org/TR/2001/REC-SVG-20010904/DTD/svg10.dtd">
<svg version="1.0" id="Layer_1" xmlns="http://www.w3.org/2000/svg" xmlns:xlink="http://www.w3.org/1999/xlink" x="0px" y="0px"
	 width="40px" height="40px" viewBox="0 0 40 40" enable-background="new 0 0 40 40" xml:space="preserve">
<g>
	<g>
		<path fill="#008852" d="M0,20.001c0,8.069,4.782,15.017,11.667,18.177V1.821C4.782,4.982,0,11.932,0,20.001z"/>
		<path fill="#008852" d="M40,20.001c0-8.069-4.782-15.019-11.667-18.18v36.357C35.218,35.019,40,28.07,40,20.001z"/>
		<path fill="#FFFFFF" d="M20.002,0c-2.978,0-5.8,0.654-8.335,1.821v36.357C14.202,39.345,17.024,40,20.002,40
			c2.974,0,5.796-0.655,8.331-1.821V1.821C25.798,0.654,22.976,0,20.002,0z"/>
	</g>
</g>
</svg>
