<?xml version="1.0" encoding="utf-8"?>
<!-- Generator: Adobe Illustrator 16.0.0, SVG Export Plug-In . SVG Version: 6.00 Build 0)  -->
<!DOCTYPE svg PUBLIC "-//W3C//DTD SVG 1.1//EN" "http://www.w3.org/Graphics/SVG/1.1/DTD/svg11.dtd">
<svg version="1.1" id="Layer_1" xmlns="http://www.w3.org/2000/svg" xmlns:xlink="http://www.w3.org/1999/xlink" x="0px" y="0px"
	 width="40px" height="40px" viewBox="0 0 40 40" enable-background="new 0 0 40 40" xml:space="preserve">
<g>
	<g>
		<path fill="#1F4085" d="M19.999,40c8.069,0,15.021-4.783,18.179-11.667H1.82C4.982,35.217,11.93,40,19.999,40z"/>
		<path fill="#A20E23" d="M19.999,0C11.93,0,4.982,4.785,1.82,11.667h36.358C35.02,4.785,28.068,0,19.999,0z"/>
		<path fill="#FFFFFF" d="M0,19.999c0,2.976,0.654,5.797,1.82,8.334h36.358C39.344,25.796,40,22.975,40,19.999
			c0-2.974-0.656-5.794-1.822-8.332H1.82C0.654,14.205,0,17.025,0,19.999z"/>
	</g>
</g>
<g>
	<path fill="#D0D0D5" d="M39,20c0,2.991-0.714,5.812-1.951,8.333h1.115C39.331,25.794,40,22.978,40,20
		c0-2.978-0.669-5.794-1.836-8.333h-1.115C38.286,14.187,39,17.008,39,20z"/>
	<path fill="#D0D0D5" d="M1,20c0-2.992,0.714-5.813,1.951-8.333H1.836C0.668,14.206,0,17.022,0,20c0,2.978,0.668,5.794,1.836,8.333
		h1.115C1.714,25.812,1,22.991,1,20z"/>
</g>
</svg>
