<?xml version="1.0" encoding="utf-8"?>
<!-- Generator: Adobe Illustrator 16.0.0, SVG Export Plug-In . SVG Version: 6.00 Build 0)  -->
<!DOCTYPE svg PUBLIC "-//W3C//DTD SVG 1.0//EN" "http://www.w3.org/TR/2001/REC-SVG-20010904/DTD/svg10.dtd">
<svg version="1.0" id="Layer_1" xmlns="http://www.w3.org/2000/svg" xmlns:xlink="http://www.w3.org/1999/xlink" x="0px" y="0px"
	 width="40px" height="40px" viewBox="-8 -8 40 40" enable-background="new -8 -8 40 40" xml:space="preserve">
<g>
	<g>
		<path fill="#CC0000" d="M-8,12c0,8.069,4.784,15.018,11.665,18.181V-6.182C-3.216-3.018-8,3.932-8,12z"/>
		<path fill="#CC0000" d="M32,12c0-8.068-4.783-15.021-11.667-18.182v36.363C27.217,27.02,32,20.071,32,12z"/>
		<path fill="#FFFFFF" d="M12-8C9.023-8,6.205-7.343,3.667-6.182v36.363C6.203,31.346,9.023,32,12,32
			c2.976,0,5.794-0.654,8.333-1.819V-6.182C17.794-7.343,14.974-8,12-8z"/>
	</g>
</g>
</svg>
