<?xml version="1.0" encoding="utf-8"?>
<!-- Generator: Adobe Illustrator 16.0.0, SVG Export Plug-In . SVG Version: 6.00 Build 0)  -->
<!DOCTYPE svg PUBLIC "-//W3C//DTD SVG 1.0//EN" "http://www.w3.org/TR/2001/REC-SVG-20010904/DTD/svg10.dtd">
<svg version="1.0" id="Layer_1" xmlns="http://www.w3.org/2000/svg" xmlns:xlink="http://www.w3.org/1999/xlink" x="0px" y="0px"
	 width="40px" height="40px" viewBox="0 0 40 40" enable-background="new 0 0 40 40" xml:space="preserve">
<g>
	<g>
		<path fill="#1D439B" d="M40,20C40,8.955,31.045,0,20.001,0C13.06,0,6.949,3.538,3.359,8.908L20.001,20H40z"/>
		<path fill="#CE2028" d="M40,20H20.001L3.359,31.094C6.949,36.463,13.06,40,20.001,40C31.045,40,40,31.045,40,20z"/>
		<path fill="#FFFFFF" d="M3.359,8.908C1.24,12.082,0,15.896,0,20c0,4.105,1.24,7.918,3.359,11.094L20.001,20L3.359,8.908z"/>
		<g>
			<path id="_x3C_Path_x3E__207_" fill="#FBD118" d="M4.591,28.766l-0.771-0.332l-0.548,0.633l0.081-0.833l-0.773-0.325l0.819-0.185
				l0.071-0.833l0.427,0.722l0.815-0.189l-0.559,0.628L4.591,28.766z"/>
			<path fill="#FBD118" d="M10.918,20.481c0.12-0.124,0.239-0.249,0.357-0.375c-0.11-0.093-0.338-0.388-0.484-0.37
				c-0.356,0.044-0.712,0.085-1.064,0.128c-0.361,0.045-0.336-0.108,0-0.165c0.312-0.056,0.621-0.112,0.934-0.167
				c-0.221-0.174-0.237-0.228-0.494-0.159c-0.3,0.079-0.705,0.339-0.814,0.021c-0.071-0.21-0.237-0.297-0.032-0.411
				c0.163-0.089,0.325-0.178,0.485-0.266c0.306-0.167,0.303-0.171,0.352-0.513c-0.238,0.157-0.479,0.313-0.717,0.474
				c-0.107,0.072-0.211,0.144-0.318,0.212c-0.176,0.117-0.007-0.186,0.027-0.215c0.298-0.232,0.598-0.461,0.894-0.691
				c0.208-0.161,0.134-0.364,0.13-0.623c-0.143,0.009-0.514-0.045-0.605,0.067c-0.228,0.28-0.452,0.558-0.679,0.836
				c-0.226,0.279-0.313,0.15-0.115-0.122c0.188-0.256,0.374-0.513,0.557-0.77c-0.276,0.027-0.327-0.002-0.466,0.232
				c-0.096,0.159-0.191,0.318-0.286,0.477c-0.125,0.207-0.057,0.212-0.305,0.091c-0.203-0.1-0.435-0.04-0.367-0.284
				c0.05-0.18,0.099-0.359,0.146-0.537c0.089-0.33,0.086-0.331-0.129-0.608c-0.051,0.283-0.104,0.564-0.154,0.847
				c-0.023,0.127-0.044,0.252-0.067,0.382c-0.039,0.2-0.14-0.132-0.133-0.177c0.039-0.375,0.079-0.75,0.12-1.123
				c0.026-0.259-0.173-0.345-0.359-0.521c-0.097,0.106-0.388,0.334-0.37,0.48c0.043,0.356,0.088,0.711,0.131,1.068
				c0.042,0.361-0.107,0.331-0.166-0.003c-0.058-0.311-0.114-0.622-0.17-0.935c-0.176,0.221-0.23,0.237-0.159,0.497
				c0.049,0.181,0.1,0.36,0.146,0.537c0.063,0.233,0.114,0.189-0.144,0.282c-0.211,0.077-0.318,0.269-0.44,0.057
				c-0.093-0.16-0.186-0.32-0.278-0.48c-0.176-0.299-0.178-0.299-0.524-0.335c0.163,0.234,0.332,0.47,0.495,0.707
				c0.074,0.102,0.146,0.207,0.225,0.311c0.113,0.167-0.19,0.01-0.222-0.027c-0.237-0.29-0.479-0.582-0.715-0.874
				c-0.161-0.202-0.366-0.12-0.623-0.113c0.01,0.142-0.032,0.515,0.085,0.604c0.283,0.221,0.564,0.437,0.85,0.654
				c0.289,0.223,0.162,0.31-0.119,0.119c-0.259-0.179-0.521-0.359-0.779-0.534c0.032,0.273,0.005,0.325,0.242,0.46
				c0.278,0.159,0.734,0.244,0.584,0.562c-0.093,0.203-0.029,0.407-0.267,0.345c-0.179-0.05-0.358-0.098-0.537-0.142
				c-0.334-0.088-0.334-0.085-0.603,0.13c0.278,0.05,0.563,0.099,0.847,0.148c0.127,0.022,0.252,0.045,0.374,0.066
				c0.204,0.034-0.123,0.141-0.171,0.136c-0.372-0.037-0.75-0.074-1.121-0.114c-0.264-0.025-0.347,0.172-0.524,0.362
				c0.109,0.093,0.342,0.386,0.488,0.367c0.352-0.047,0.71-0.094,1.068-0.138c0.353-0.047,0.328,0.105-0.002,0.166
				c-0.314,0.06-0.625,0.117-0.936,0.174c0.22,0.173,0.237,0.23,0.498,0.157c0.308-0.085,0.696-0.348,0.812-0.021
				c0.073,0.209,0.254,0.303,0.044,0.423c-0.159,0.089-0.318,0.18-0.481,0.271c-0.298,0.172-0.296,0.174-0.342,0.521
				c0.237-0.163,0.476-0.325,0.71-0.489c0.104-0.07,0.211-0.143,0.315-0.216c0.173-0.116,0.01,0.188-0.026,0.216
				c-0.296,0.234-0.589,0.471-0.882,0.709c-0.205,0.161-0.124,0.363-0.119,0.621c0.146-0.013,0.515,0.037,0.604-0.079
				c0.221-0.28,0.442-0.562,0.667-0.845c0.222-0.284,0.306-0.156,0.114,0.123c-0.183,0.258-0.363,0.516-0.544,0.775
				c0.278-0.031,0.329-0.005,0.466-0.239c0.093-0.161,0.184-0.319,0.273-0.479c0.12-0.208,0.057-0.218,0.299-0.103
				c0.205,0.1,0.422,0.037,0.358,0.281c-0.046,0.176-0.095,0.354-0.144,0.531c-0.088,0.334-0.083,0.336,0.134,0.606
				c0.051-0.282,0.098-0.565,0.146-0.849c0.022-0.123,0.047-0.252,0.068-0.376c0.036-0.201,0.14,0.126,0.137,0.173
				c-0.042,0.375-0.078,0.748-0.114,1.122c-0.027,0.261,0.173,0.347,0.36,0.522c0.093-0.108,0.386-0.34,0.367-0.486
				c-0.045-0.354-0.093-0.711-0.137-1.067c-0.047-0.354,0.104-0.329,0.166,0c0.058,0.315,0.119,0.625,0.175,0.937
				c0.172-0.223,0.229-0.238,0.156-0.498c-0.053-0.179-0.1-0.357-0.15-0.536c-0.062-0.23-0.113-0.187,0.139-0.282
				c0.21-0.078,0.311-0.271,0.438-0.057c0.095,0.16,0.188,0.32,0.283,0.477c0.175,0.298,0.18,0.297,0.521,0.334
				c-0.163-0.233-0.329-0.466-0.498-0.699c-0.073-0.105-0.146-0.211-0.222-0.315c-0.12-0.169,0.188-0.011,0.218,0.024
				c0.241,0.293,0.479,0.582,0.722,0.871c0.164,0.203,0.366,0.119,0.623,0.112c-0.012-0.144,0.031-0.513-0.085-0.603
				c-0.289-0.22-0.572-0.438-0.855-0.656c-0.292-0.218-0.16-0.306,0.113-0.117c0.264,0.179,0.527,0.355,0.788,0.533
				c-0.034-0.275-0.007-0.326-0.244-0.462c-0.271-0.147-0.739-0.243-0.596-0.548c0.091-0.202,0.032-0.393,0.267-0.329
				c0.178,0.047,0.355,0.097,0.534,0.146c0.332,0.09,0.332,0.088,0.607-0.127c-0.246-0.046-0.487-0.09-0.734-0.134
				c-0.13-0.024-0.259-0.049-0.391-0.071c-0.052-0.01-0.271-0.191-0.08-0.17C9.956,20.378,10.435,20.431,10.918,20.481z"/>
			<path id="_x3C_Path_x3E__206_" fill="#FBD118" d="M14.478,20.678l0.496-0.676l-0.501-0.672l0.801,0.261l0.484-0.683l-0.003,0.838
				l0.801,0.25l-0.796,0.258l0.005,0.838l-0.49-0.679L14.478,20.678z"/>
			<path id="_x3C_Path_x3E__205_" fill="#FBD118" d="M4.586,11.226l-0.768,0.339l-0.551-0.631l0.085,0.833l-0.773,0.331l0.822,0.176
				l0.073,0.835l0.425-0.724l0.813,0.185l-0.56-0.622L4.586,11.226z"/>
		</g>
	</g>
</g>
</svg>
