<?xml version="1.0" encoding="utf-8"?>
<!-- Generator: Adobe Illustrator 16.0.0, SVG Export Plug-In . SVG Version: 6.00 Build 0)  -->
<!DOCTYPE svg PUBLIC "-//W3C//DTD SVG 1.0//EN" "http://www.w3.org/TR/2001/REC-SVG-20010904/DTD/svg10.dtd">
<svg version="1.0" id="Layer_1" xmlns="http://www.w3.org/2000/svg" xmlns:xlink="http://www.w3.org/1999/xlink" x="0px" y="0px"
	 width="40px" height="40px" viewBox="0 0 40 40" enable-background="new 0 0 40 40" xml:space="preserve">
<path fill="#0038A8" d="M19.999,39.999c8.071,0,15.02-4.782,18.181-11.665H1.821C4.981,35.217,11.93,39.999,19.999,39.999z"/>
<path fill="#CE1126" d="M19.999,0.001c-8.069,0-15.018,4.785-18.178,11.667H38.18C35.019,4.786,28.07,0.001,19.999,0.001z"/>
<path fill="#FFFFFF" d="M0,20.001c0,2.974,0.656,5.796,1.821,8.333H38.18c1.166-2.537,1.82-5.359,1.82-8.333
	s-0.654-5.796-1.82-8.333H1.821C0.656,14.205,0,17.027,0,20.001z"/>
<path d="M14.133,19.998c0-3.237,2.626-5.866,5.868-5.866l0,0c3.24,0,5.864,2.63,5.864,5.866l0,0c0,3.241-2.624,5.872-5.864,5.872
	l0,0C16.759,25.87,14.133,23.239,14.133,19.998L14.133,19.998z M15.985,15.985c-1.027,1.029-1.662,2.446-1.662,4.013l0,0
	c0,1.568,0.635,2.987,1.662,4.018l0,0c1.028,1.027,2.447,1.662,4.016,1.662l0,0c1.567,0,2.987-0.635,4.015-1.662l0,0
	c1.025-1.03,1.662-2.449,1.662-4.018l0,0c0-1.566-0.637-2.983-1.662-4.013l0,0c-1.027-1.028-2.447-1.665-4.015-1.665l0,0
	C18.432,14.32,17.013,14.957,15.985,15.985L15.985,15.985z"/>
<path fill="#CE1126" d="M20.001,15.062c-2.727,0-4.939,2.213-4.939,4.937c0,2.73,2.212,4.94,4.939,4.94
	c2.728,0,4.938-2.21,4.938-4.94C24.939,17.274,22.729,15.062,20.001,15.062z M20.001,23.725c-2.057,0-3.726-1.667-3.726-3.727
	c0-2.055,1.669-3.726,3.726-3.726c2.056,0,3.726,1.671,3.726,3.726C23.727,22.058,22.057,23.725,20.001,23.725z"/>
<path fill="#2563C1" d="M21.863,19.998c0,1.034-0.832,1.863-1.862,1.863c-1.03,0-1.861-0.829-1.861-1.863
	c0-1.029,0.832-1.859,1.861-1.859C21.031,18.139,21.863,18.969,21.863,19.998z"/>
<path fill="#006700" d="M23.414,20.433c-0.086-0.243-0.377,0.03-0.502,0.036c-0.037-0.22,0.484-0.5,0.423-0.762
	c-0.09-0.016-0.162,0.023-0.218,0.118c-0.017,0.06,0.157-0.45,0.153-0.45c-0.124,0.055-0.246,0.114-0.366,0.178
	c0.061-0.118,0.277-0.854,0.043-0.888c-0.089,0.048-0.141,0.122-0.154,0.221c-0.068-0.207,0.042-0.348,0.089-0.533
	c-0.105,0.089-0.199,0.188-0.282,0.299c0.017-0.122,0.083-0.812-0.137-0.812c-0.064,0.065-0.094,0.145-0.088,0.235
	c-0.061-0.119-0.179-0.458-0.338-0.173c-0.039-0.15-0.149-0.629-0.367-0.629c-0.056,0.075-0.062,0.153-0.02,0.235
	c0.032,0.046-0.358-0.397-0.197-0.397c-0.184,0-0.098,0.352-0.125,0.443c-0.049-0.085-0.494-0.567-0.604-0.393
	c0.196,0.2,0.158,0.284-0.113,0.252c0.243,0.668-0.086-0.121-0.021,0.287c0.126,0.097,0.267,0.121,0.42,0.074
	c-0.197,0.146,0.381-0.005,0.225,0.333c-0.039,0.086,0.368,0.175,0.416,0.175c-0.457,0,0.243,0.161,0.266,0.184
	c-0.351-0.128,0.152,0.532,0.273,0.693c-0.549-0.366,0.036,0.276,0.08,0.32c-0.292,0.117-0.053,0.505,0.035,0.656
	c-0.313-0.021-0.239,0.6-0.229,0.766c-0.321-0.292-0.603,0.854-0.605,1.028c-0.046,0.004,0.042-0.841-0.323-0.326
	c-0.178,0.252-0.729,0.979-1.083,0.92c-0.522-0.089-1.342-0.759-1.74-1.125c-0.595-0.549-0.521-1.614-0.452-2.338
	c0.024-0.258,1.072-1.049,0.955-1.045c0.055-0.041,0.716-0.146,0.442-0.21c0.083,0.005,0.163-0.009,0.241-0.039
	c-0.044-0.088-0.118-0.128-0.221-0.12c0.065-0.009,0.496-0.068,0.492-0.132c-0.003-0.042-0.294-0.138-0.471-0.086
	c0.052-0.026,0.088-0.067,0.108-0.123c-0.076,0.017-0.148,0.044-0.218,0.08c0.051-0.036,0.076-0.084,0.075-0.145
	c-0.134-0.113,0.002,0.229-0.101,0.018c-0.08,0.046-0.143,0.106-0.19,0.186c0.048-0.067,0.08-0.142,0.095-0.223
	c-0.083,0.065-0.156,0.142-0.218,0.228c0.06-0.076,0.093-0.162,0.101-0.257c-0.081,0.062-0.144,0.139-0.189,0.229
	c0.037-0.061,0.05-0.125,0.04-0.194c-0.058,0.04-0.095,0.096-0.111,0.166c0.04-0.059,0.047-0.12,0.022-0.184
	c-0.153-0.046-0.232,0.348-0.275,0.424c0.046-0.118,0.068-0.239,0.066-0.365c-0.075,0.114-0.132,0.235-0.172,0.366
	c0.059-0.094,0.083-0.194,0.073-0.303c-0.052-0.02-0.162,0.296-0.178,0.33c0.05-0.079,0.06-0.162,0.028-0.247
	c-0.125,0.077-0.171,0.188-0.139,0.337c0.022-0.109,0.021-0.217-0.001-0.325c-0.08-0.007-0.076,0.361-0.118,0.414
	c0.02-0.098,0.016-0.194-0.01-0.29c-0.19-0.015-0.226,0.229-0.267,0.351c0.023-0.093,0.019-0.183-0.013-0.272
	c-0.057-0.004-0.112,0.548-0.124,0.613c-0.051-0.039,0.061-0.472-0.023-0.472c-0.064,0-0.083,0.509-0.1,0.578
	c0-0.058,0.021-0.441-0.034-0.441c-0.059,0-0.06,0.345-0.065,0.399c0.011-0.09-0.014-0.166-0.074-0.232
	c-0.03,0.119-0.027,0.238,0.009,0.356c0.007-0.101-0.021-0.188-0.083-0.265c-0.054,0.006,0.013,0.369,0.02,0.421
	c-0.015-0.109-0.056-0.207-0.125-0.293c-0.113,0.03-0.008,0.529,0.002,0.616c-0.017-0.046-0.087-0.352-0.143-0.339
	c-0.058,0.013,0.049,0.368,0.064,0.413c-0.01-0.028-0.052-0.298-0.131-0.272c-0.009,0.077,0.005,0.151,0.042,0.22
	c-0.008-0.045-0.032-0.078-0.072-0.098c-0.169,0.059,0.092,0.695,0.101,0.751c-0.058-0.103-0.127-0.197-0.208-0.283
	c-0.057,0.028,0.097,0.302,0.117,0.35c-0.028-0.063-0.073-0.11-0.134-0.143c-0.059,0.046,0.174,0.368,0.202,0.423
	c-0.055-0.092-0.129-0.163-0.223-0.213c-0.057,0.039,0.191,0.324,0.224,0.37c-0.055-0.081-0.127-0.141-0.216-0.18
	c-0.071,0.05,0.322,0.414,0.353,0.475c-0.045-0.03-0.31-0.274-0.351-0.225c-0.038,0.046,0.322,0.343,0.368,0.389
	c-0.098-0.035-0.198-0.045-0.3-0.027c0.108,0.12,0.227,0.227,0.358,0.32c-0.042-0.02-0.288-0.178-0.314-0.129
	c-0.054,0.099,0.48,0.279,0.508,0.395c-0.064-0.029-0.457-0.278-0.495-0.213c-0.029,0.051,0.369,0.281,0.426,0.321
	c-0.102-0.053-0.209-0.081-0.323-0.085c-0.054,0.118,0.486,0.292,0.557,0.328c-0.054-0.012-0.411-0.128-0.422-0.072
	c-0.003,0.015,0.382,0.227,0.431,0.249c-0.109-0.032-0.22-0.039-0.333-0.022c-0.008,0.078,0.387,0.139,0.453,0.16
	c-0.107-0.005-0.212,0.005-0.316,0.031c-0.004,0.058,0.326,0.078,0.38,0.088c-0.104-0.015-0.206-0.008-0.307,0.021
	c0.126,0.051,0.256,0.089,0.39,0.114c-0.084-0.012-0.157,0.01-0.219,0.064c0.001,0.039,0.454,0.017,0.509,0.029
	c-0.055,0.015-0.414,0.054-0.405,0.113c0.144,0.017,0.289,0.019,0.434,0.008c-0.097,0.017-0.186,0.055-0.266,0.113
	c0.003,0.021,0.554-0.073,0.62-0.06c-0.077-0.007-0.144,0.016-0.2,0.066c0.083,0.037,0.17,0.048,0.261,0.031
	c-0.051,0-0.365,0.146-0.35,0.187c0.132,0.01,0.257-0.018,0.375-0.08c-0.087,0.021-0.152,0.068-0.195,0.145
	c0.005,0.013,0.47-0.134,0.529-0.131c-0.051,0.03,0.887,0.134,1.041,0.242c-0.158,0.132-0.324,0.25-0.501,0.355
	c-0.195,0.104-0.667-0.082-0.738-0.029c-0.112,0.082,0.292,0.354,0.371,0.354c0.426,0,0.722-0.331,1.036-0.56
	c0.316,0.229,0.611,0.56,1.039,0.56c0.078,0,0.481-0.273,0.369-0.354c-0.148,0.048-0.299,0.092-0.449,0.133
	c-0.312-0.057-0.548-0.275-0.791-0.459c0.583-0.413,1.18-0.128,1.725-0.186c0.402-0.042-0.448-0.46-0.432-0.446
	c0.127-0.1,0.623,0.058,0.771,0.065c0.287,0.016,0.731-0.314,0.103-0.305c0.04-0.019,0.521-0.273,0.52-0.256
	c0.04-0.281-0.32-0.123-0.438-0.155c-0.021,0.034,1.259-0.962,0.461-0.563c0.214-0.218,0.174-0.391-0.137-0.216
	C22.904,20.578,23.453,20.511,23.414,20.433C23.332,20.2,23.42,20.444,23.414,20.433z M16.991,20.137
	C16.991,20.137,16.974,20.11,16.991,20.137C16.991,20.137,16.989,20.134,16.991,20.137z"/>
<g>
	<path fill="#D0D0D5" d="M39,19.999c0,2.992-0.707,5.815-1.945,8.335h1.098C39.328,25.797,40,22.979,40,19.999
		c0-2.98-0.671-5.795-1.846-8.332h-1.1C38.293,14.185,39,17.007,39,19.999z"/>
	<path fill="#D0D0D5" d="M1,19.999c0-2.99,0.707-5.813,1.944-8.332h-1.1C0.671,14.203,0,17.018,0,19.999
		c0,2.981,0.672,5.798,1.849,8.335h1.098C1.707,25.814,1,22.988,1,19.999z"/>
</g>
<polygon fill="#FFCE00" points="20.001,18.651 20.383,19.515 21.236,19.549 20.513,20.151 20.765,21.001 20.001,20.6 19.237,21.001 
	19.476,20.153 18.766,19.549 19.62,19.515 "/>
</svg>
