<?xml version="1.0" encoding="utf-8"?>
<!-- Generator: Adobe Illustrator 16.0.0, SVG Export Plug-In . SVG Version: 6.00 Build 0)  -->
<!DOCTYPE svg PUBLIC "-//W3C//DTD SVG 1.0//EN" "http://www.w3.org/TR/2001/REC-SVG-20010904/DTD/svg10.dtd">
<svg version="1.0" id="Layer_1" xmlns="http://www.w3.org/2000/svg" xmlns:xlink="http://www.w3.org/1999/xlink" x="0px" y="0px"
	 width="40px" height="40px" viewBox="-8 -8 40 40" enable-background="new -8 -8 40 40" xml:space="preserve">
<g>
	<g>
		<path fill="#FFFFFF" d="M-8,12c0,9.268,6.312,17.038,14.863,19.309l2.025-1.294l-3.521-2.253l3.521-2.253l-3.521-2.251
			l3.521-2.254L5.367,18.75l3.521-2.253l-3.521-2.251L8.888,12L5.367,9.748l3.521-2.253l-3.52-2.25L8.89,2.997L5.368,0.742
			L8.89-1.512L5.368-3.763l3.521-2.25L6.863-7.307C-1.688-5.042-8,2.733-8,12z"/>
		<path fill="#70193D" d="M5.368-3.763L8.89-1.51L5.368,0.742L8.89,2.997L5.368,5.245L8.89,7.497L5.368,9.75L8.888,12l-3.521,2.253
			l3.521,2.249l-3.521,2.253l3.521,2.252l-3.521,2.256l3.521,2.253l-3.521,2.251l3.521,2.254l-2.025,1.293
			C8.505,31.746,10.22,32,12,32c11.047,0,20-8.953,20-20C32,0.954,23.047-8,12-8c-1.78,0-3.495,0.255-5.137,0.693l2.025,1.293
			L5.368-3.763z"/>
	</g>
</g>
</svg>
