<?xml version="1.0" encoding="utf-8"?>
<!-- Generator: Adobe Illustrator 16.0.0, SVG Export Plug-In . SVG Version: 6.00 Build 0)  -->
<!DOCTYPE svg PUBLIC "-//W3C//DTD SVG 1.0//EN" "http://www.w3.org/TR/2001/REC-SVG-20010904/DTD/svg10.dtd">
<svg version="1.0" id="Layer_1" xmlns="http://www.w3.org/2000/svg" xmlns:xlink="http://www.w3.org/1999/xlink" x="0px" y="0px"
	 width="24px" height="24px" viewBox="0 0 24 24" enable-background="new 0 0 24 24" xml:space="preserve">
<g>
	<g>
		<path fill="#FFFFFF" d="M0,12c0,5.56,3.787,10.223,8.918,11.585l1.215-0.776l-2.113-1.352l2.113-1.351l-2.113-1.351l2.113-1.353
			l-2.113-1.352l2.113-1.352l-2.113-1.35L10.133,12l-2.113-1.351l2.113-1.352L8.021,7.947l2.113-1.349L8.021,5.245l2.113-1.352
			L8.021,2.542l2.113-1.35L8.918,0.416C3.787,1.775,0,6.44,0,12z"/>
		<path fill="#70193D" d="M8.021,2.542l2.113,1.352L8.021,5.245l2.113,1.353L8.021,7.947l2.113,1.351l-2.113,1.352L10.133,12
			l-2.113,1.351l2.113,1.35l-2.113,1.352l2.113,1.352l-2.113,1.353l2.113,1.351l-2.113,1.351l2.113,1.352l-1.215,0.776
			C9.903,23.848,10.932,24,12,24c6.628,0,12-5.372,12-12S18.628,0,12,0c-1.068,0-2.097,0.153-3.082,0.416l1.215,0.776L8.021,2.542z"
			/>
	</g>
</g>
</svg>
