<?xml version="1.0" encoding="utf-8"?>
<!-- Generator: Adobe Illustrator 16.0.0, SVG Export Plug-In . SVG Version: 6.00 Build 0)  -->
<!DOCTYPE svg PUBLIC "-//W3C//DTD SVG 1.0//EN" "http://www.w3.org/TR/2001/REC-SVG-20010904/DTD/svg10.dtd">
<svg version="1.0" id="Layer_1" xmlns="http://www.w3.org/2000/svg" xmlns:xlink="http://www.w3.org/1999/xlink" x="0px" y="0px"
	 width="40px" height="40px" viewBox="0 0 40 40" enable-background="new 0 0 40 40" xml:space="preserve">
<g>
	<g>
		<path fill="#FFFFFF" d="M0,20c0,9.268,6.312,17.038,14.863,19.309l2.025-1.293l-3.521-2.254l3.521-2.253l-3.521-2.251l3.521-2.254
			l-3.521-2.254l3.521-2.253l-3.521-2.251L16.888,20l-3.521-2.252l3.521-2.253l-3.52-2.25l3.522-2.248l-3.522-2.255l3.522-2.254
			l-3.522-2.251l3.521-2.25l-2.026-1.294C6.312,2.958,0,10.733,0,20z"/>
		<path fill="#70193D" d="M13.368,4.237L16.89,6.49l-3.522,2.252l3.522,2.255l-3.522,2.248l3.522,2.252l-3.522,2.253l3.52,2.25
			l-3.521,2.253l3.521,2.249l-3.521,2.253l3.521,2.252l-3.521,2.257l3.521,2.252l-3.521,2.252l3.521,2.254l-2.025,1.293
			C16.505,39.746,18.22,40,20,40c11.047,0,20-8.953,20-20C40,8.954,31.047,0,20,0c-1.78,0-3.495,0.255-5.137,0.693l2.025,1.293
			L13.368,4.237z"/>
	</g>
</g>
</svg>
