<?xml version="1.0" encoding="utf-8"?>
<!-- Generator: Adobe Illustrator 16.0.0, SVG Export Plug-In . SVG Version: 6.00 Build 0)  -->
<!DOCTYPE svg PUBLIC "-//W3C//DTD SVG 1.0//EN" "http://www.w3.org/TR/2001/REC-SVG-20010904/DTD/svg10.dtd">
<svg version="1.0" id="Layer_1" xmlns="http://www.w3.org/2000/svg" xmlns:xlink="http://www.w3.org/1999/xlink" x="0px" y="0px"
	 width="40px" height="40px" viewBox="0 0 40 40" enable-background="new 0 0 40 40" xml:space="preserve">
<g>
	<g>
		<path fill="#ED2224" d="M20,40c8.069,0,15.02-4.78,18.18-11.668H1.821C4.98,35.22,11.93,40,20,40z"/>
		<path fill="#FFFFFF" d="M20,0C11.93,0,4.98,4.782,1.821,11.667H38.18C35.02,4.782,28.069,0,20,0z"/>
		<path fill="#3C62AE" d="M0,20c0,2.975,0.657,5.796,1.821,8.332H38.18C39.346,25.797,40,22.976,40,20
			c0-2.977-0.654-5.798-1.82-8.334H1.821C0.657,14.203,0,17.023,0,20z"/>
		<g>
			<g>
				<path fill="#ED2224" d="M7.818,5.936l11.547,0.01l0.273,0.1c-0.129,2.109-0.268,4.124-0.395,6.229
					c-0.035,1.726-0.523,3.461-1.573,4.851c-0.996,1.362-2.456,2.371-4.074,2.869c-2.059-0.615-3.831-2.104-4.778-4.038
					c-0.576-1.136-0.811-2.407-0.856-3.682c-0.127-2.116-0.391-6.229-0.391-6.229L7.818,5.936z"/>
				<path fill="#3C62AE" d="M7.818,5.936c3.622-1.574,7.927-1.562,11.547,0.01c0,0-0.251,4.344-0.375,6.361
					c-0.032,1.647-0.501,3.311-1.504,4.641c-0.957,1.302-2.35,2.269-3.902,2.746c-1.97-0.589-3.666-2.015-4.574-3.866
					c-0.55-1.087-0.772-2.301-0.82-3.521C8.069,10.278,7.818,5.936,7.818,5.936z"/>
			</g>
			<g>
				<path fill="#FDE400" d="M11.839,5.781c0.059-0.125,0.13-0.252,0.188-0.381c0.033,0.093,0.124,0.29,0.163,0.381
					c0.101-0.013,0.311-0.033,0.413-0.046c-0.079,0.117-0.159,0.229-0.244,0.347c0.085,0.104,0.165,0.22,0.244,0.334
					c-0.103-0.01-0.312-0.031-0.413-0.046c-0.059,0.134-0.117,0.269-0.176,0.396c-0.057-0.127-0.117-0.262-0.164-0.396
					c-0.103,0.015-0.312,0.036-0.412,0.046c0.081-0.114,0.159-0.229,0.241-0.334c-0.062-0.093-0.185-0.255-0.241-0.347
					C11.539,5.749,11.739,5.768,11.839,5.781L11.839,5.781z"/>
				<path fill="#FDE400" d="M15.184,5.4c0.059,0.128,0.115,0.255,0.174,0.381c0.107-0.013,0.312-0.033,0.417-0.046
					c-0.081,0.117-0.159,0.229-0.242,0.347c0.06,0.083,0.187,0.256,0.242,0.334c-0.104-0.01-0.31-0.031-0.417-0.046
					c-0.047,0.096-0.115,0.293-0.162,0.383C15.14,6.626,15.081,6.51,15.01,6.385c-0.104,0.01-0.298,0.021-0.395,0.021
					c0.059-0.078,0.166-0.241,0.222-0.335c-0.056-0.082-0.173-0.254-0.222-0.335c0.107,0.013,0.303,0.033,0.407,0.046
					C15.064,5.69,15.152,5.493,15.184,5.4L15.184,5.4z"/>
				<path fill="#FDE400" d="M13.434,7.897C13.473,7.806,13.555,7.61,13.6,7.52c0.059,0.125,0.116,0.254,0.199,0.368
					c0.091-0.01,0.286-0.024,0.377-0.024c-0.055,0.082-0.159,0.244-0.218,0.327c0.059,0.091,0.173,0.267,0.218,0.348
					c-0.101-0.015-0.301-0.039-0.403-0.049C13.727,8.584,13.646,8.768,13.6,8.87c-0.059-0.124-0.104-0.25-0.166-0.381
					c-0.101,0.01-0.306,0.034-0.411,0.049c0.079-0.119,0.161-0.234,0.242-0.348c-0.059-0.083-0.186-0.257-0.242-0.338
					C13.128,7.863,13.333,7.887,13.434,7.897L13.434,7.897z"/>
				<path fill="#FFFFFF" d="M12.246,12.423c0.452-0.913,0.901-1.815,1.354-2.72c0.464,0.905,0.915,1.807,1.367,2.72
					c0.3-0.405,0.603-0.809,0.903-1.216c0.764,1.019,1.513,2.025,2.274,3.034c-0.02,0.762-0.644,1.457-1.42,1.491
					c-0.589,0.094-1.04-0.428-1.631-0.396c-0.533-0.012-0.963,0.442-1.507,0.407c-0.542,0.011-0.96-0.428-1.504-0.407
					c-0.576-0.012-1.042,0.501-1.629,0.396C9.69,15.686,9.1,14.994,9.063,14.242c0.764-0.997,1.516-2.015,2.28-3.034
					C11.646,11.614,11.943,12.018,12.246,12.423L12.246,12.423z"/>
				<path fill="#FFFFFF" d="M11.041,16.104c0.385-0.139,0.752-0.379,1.171-0.324c0.486,0.034,0.877,0.404,1.375,0.393
					c0.544,0.036,0.96-0.404,1.507-0.393c0.544-0.036,0.974,0.404,1.501,0.393c0.363,0.022,0.687-0.153,1.006-0.288
					c-0.127,0.208-0.228,0.426-0.381,0.601c-0.481,0.231-1.023,0.115-1.467-0.13c-0.474-0.243-1.03-0.16-1.482,0.096
					c-0.472,0.254-1.052,0.174-1.514-0.082c-0.476-0.257-1.042-0.174-1.497,0.082c-0.402,0.221-0.874,0.186-1.304,0.045
					c-0.104-0.207-0.222-0.415-0.351-0.612C10.049,16.104,10.558,16.29,11.041,16.104L11.041,16.104z"/>
				<path fill="#FFFFFF" d="M10.348,17.051c0.544,0.07,1.01-0.254,1.514-0.379c0.663-0.163,1.184,0.449,1.845,0.368
					c0.46-0.013,0.82-0.358,1.271-0.382c0.671-0.078,1.205,0.497,1.889,0.394c-0.856,1.042-1.979,1.865-3.266,2.305
					C12.329,18.917,11.191,18.093,10.348,17.051L10.348,17.051z"/>
			</g>
		</g>
	</g>
</g>
</svg>
