<svg width="40" height="40" viewBox="0 0 40 40" xmlns="http://www.w3.org/2000/svg" xmlns:xlink="http://www.w3.org/1999/xlink">
    <defs>
        <circle id="3mymirmj0a" cx="20" cy="20" r="20"/>
    </defs>
    <g fill="none" fill-rule="evenodd">
        <path d="M20 0c11.046 0 20 8.954 20 20s-8.954 20-20 20S0 31.046 0 20 8.954 0 20 0zm0 1C9.507 1 1 9.507 1 20s8.507 19 19 19 19-8.507 19-19S30.493 1 20 1z" fill="#D0D0D5" fill-rule="nonzero"/>
        <mask id="uz7xpmhw3b" fill="#fff">
            <use xlink:href="#3mymirmj0a"/>
        </mask>
        <use fill="#FFF" xlink:href="#3mymirmj0a"/>
        <g mask="url(#uz7xpmhw3b)" fill-rule="nonzero">
            <path fill="#FFF" d="M0 0h80v40H0z"/>
            <path fill="#000" d="M0 0h80v11.93H6.316z"/>
            <path fill="#DA121A" d="M6.316 14.035H80v11.93H6.316z"/>
            <path fill="#078930" d="M6.316 28.07H80V40H0z"/>
            <path fill="#0F47AF" d="M34.64 20 0 40V0z"/>
            <path fill="#FCDD09" d="m4.88 20 12.06 3.919-7.453-10.26V26.34l7.453-10.259z"/>
        </g>
    </g>
</svg>
