<?xml version="1.0" encoding="utf-8"?>
<!-- Generator: Adobe Illustrator 16.0.0, SVG Export Plug-In . SVG Version: 6.00 Build 0)  -->
<!DOCTYPE svg PUBLIC "-//W3C//DTD SVG 1.1//EN" "http://www.w3.org/Graphics/SVG/1.1/DTD/svg11.dtd">
<svg version="1.1" id="Layer_1" xmlns="http://www.w3.org/2000/svg" xmlns:xlink="http://www.w3.org/1999/xlink" x="0px" y="0px"
	 width="40px" height="40px" viewBox="0 0 40 40" enable-background="new 0 0 40 40" xml:space="preserve">
<g>
	<g>
		<path fill="#FFFFFF" d="M38.9,26.622H1.098c0.855,2.487,2.184,4.752,3.88,6.688H35.02C36.715,31.374,38.045,29.109,38.9,26.622z"
			/>
		<path fill="#DD1F26" d="M35.02,33.312H4.978C8.17,36.95,12.649,39.421,17.707,40h4.585C27.35,39.421,31.829,36.95,35.02,33.312z"
			/>
		<path fill="#DD1F26" d="M20,0C14.141,0,8.874,2.526,5.215,6.554h29.566C31.126,2.526,25.855,0,20,0z"/>
		<path fill="#FFFFFF" d="M34.781,6.554H5.215c-1.748,1.926-3.126,4.192-4.026,6.691h37.62C37.91,10.746,36.531,8.479,34.781,6.554z
			"/>
		<path fill="#273476" d="M40,20.066c0-2.395-0.424-4.692-1.191-6.821H1.188C0.42,15.374,0,17.672,0,20.066
			c0,2.296,0.391,4.5,1.098,6.556h37.804C39.609,24.566,40,22.362,40,20.066z"/>
	</g>
</g>
<g>
	<path fill="#D0D0D5" d="M2.214,26.622H1.146c0.877,2.495,2.23,4.759,3.958,6.69h1.362C4.609,31.425,3.158,29.147,2.214,26.622z"/>
	<path fill="#D0D0D5" d="M2.263,13.245c0.967-2.53,2.442-4.812,4.328-6.691H5.225c-1.753,1.926-3.132,4.19-4.03,6.691H2.263z"/>
	<path fill="#D0D0D5" d="M33.409,6.554c1.886,1.88,3.36,4.161,4.328,6.691h1.068c-0.899-2.501-2.277-4.766-4.031-6.691H33.409z"/>
	<path fill="#D0D0D5" d="M38.854,26.622h-1.068c-0.943,2.525-2.395,4.803-4.251,6.69h1.362
		C36.624,31.381,37.978,29.117,38.854,26.622z"/>
</g>
</svg>
