<svg width="40" height="40" viewBox="0 0 40 40" xmlns="http://www.w3.org/2000/svg" xmlns:xlink="http://www.w3.org/1999/xlink">
    <defs>
        <circle id="d1btmwx68a" cx="20" cy="20" r="20"/>
    </defs>
    <g fill="none" fill-rule="evenodd">
        <mask id="xtpw71ldab" fill="#fff">
            <use xlink:href="#d1btmwx68a"/>
        </mask>
        <use fill="#FFF" xlink:href="#d1btmwx68a"/>
        <g mask="url(#xtpw71ldab)">
            <path d="M19.667 42.72a25.891 25.891 0 0 0 22.5-13h-45a25.89 25.89 0 0 0 22.5 13" fill="#378E01"/>
            <path d="M19.665.28c-9.652 0-18.054 4.034-22.499 10h45c-4.446-5.966-12.848-10-22.5-10" fill="#E0012E"/>
            <path fill="#FC0" d="m16.42 24.267.386.538.74-.02-.57.645-1.122.028-.35-.469.647-.102zM19.066 24.612c0-.003.51 0 .51 0l.425-.354.42.354h.504l-.455.676h-.953l-.451-.676zM25.502 27c-1.98-.409-3.303-.608-5.508-.608-2.204 0-3.527.2-5.495.604l-.001-.852c1.969-.407 3.292-.608 5.496-.608 2.205 0 3.538.201 5.508.608V27zM23.558 24.267l-.384.538-.742-.02.571.645 1.122.028.35-.469-.648-.102z"/>
            <path d="M19.23 18.684c0-.247.345-.45.771-.45.425 0 .772.203.772.45 0 .244-.347.44-.772.44-.426 0-.772-.196-.772-.44m6.53 5.478c-1.416.034-1.736-1.005-1.92-1.464-.502.66-.785.923-1.618.907-.847.019-1.393-.32-1.8-.983v-2.854c.614-.139 1.06-.575 1.06-1.084 0-.628-.664-1.133-1.48-1.133-.818 0-1.482.505-1.482 1.133 0 .508.446.94 1.054 1.08v2.851c-.404.658-.953 1.002-1.801.982-.832.017-1.116-.247-1.617-.907-.184.46-.506 1.5-1.921 1.467-.794.02-1.288-.243-1.62-1 .38 1.077.765 1.68 1.93 1.717 1.073.014 1.563-.608 1.797-1.03.77.407.85.5 1.944.473.818-.028 1.286-.559 1.71-1.065.422.506.893 1.037 1.709 1.065 1.093.026 1.173-.066 1.945-.472.232.421.72 1.043 1.792 1.029 1.169-.037 1.555-.646 1.978-1.712-.369.756-.862 1.022-1.66 1M19.992 12.998l.262.808h.848l-.686.499.261.802-.685-.496-.685.496.263-.802-.686-.499h.845zM23.901 14.014l.263.806h.846l-.686.497.262.804-.685-.496-.686.496.263-.804-.686-.497h.846zM26.779 17.072l.26.808h.849l-.686.496.263.804-.686-.494-.685.494.262-.804-.686-.496h.845z" fill="#FC0"/>
            <path fill="#FC0" d="m27.614 20.786.26.804h.849l-.687.497.261.807-.683-.498-.685.498.26-.807-.685-.497h.846zM16.116 14.014l.263.806h.846l-.685.497.262.804-.686-.496-.685.496.263-.804-.686-.497h.846zM13.238 17.054l.263.809h.846l-.684.496.262.804-.687-.496-.686.496.264-.804-.687-.496h.849zM12.388 20.786l.261.804h.848l-.685.497.262.807-.686-.498-.685.498.261-.807-.685-.497h.846z"/>
        </g>
    </g>
</svg>
