<?xml version="1.0" encoding="utf-8"?>
<!-- Generator: Adobe Illustrator 16.0.0, SVG Export Plug-In . SVG Version: 6.00 Build 0)  -->
<!DOCTYPE svg PUBLIC "-//W3C//DTD SVG 1.0//EN" "http://www.w3.org/TR/2001/REC-SVG-20010904/DTD/svg10.dtd">
<svg version="1.0" id="Layer_1" xmlns="http://www.w3.org/2000/svg" xmlns:xlink="http://www.w3.org/1999/xlink" x="0px" y="0px"
	 width="40px" height="40px" viewBox="0 0 40 40" enable-background="new 0 0 40 40" xml:space="preserve">
<g>
	<g>
		<circle fill="#E70013" cx="20" cy="19.999" r="20"/>
		<g>
			<path fill="#FFFFFF" d="M20,9.999c5.522,0,9.997,4.478,9.997,10c0,5.526-4.475,10.003-9.997,10.003
				c-5.525,0-9.998-4.478-9.998-10.003C10.002,14.477,14.475,9.999,20,9.999z"/>
			<g>
				<path fill="#E70013" d="M22.825,26.252c-3.454,0-6.254-2.797-6.254-6.253c0-3.454,2.8-6.252,6.254-6.252
					c1.645,0,3.134,0.638,4.252,1.672c-1.42-1.96-3.728-3.237-6.338-3.237c-4.316,0-7.816,3.502-7.816,7.817
					c0,4.318,3.5,7.819,7.816,7.819c2.61,0,4.918-1.274,6.338-3.242C25.959,25.617,24.47,26.252,22.825,26.252z"/>
				<polygon fill="#E70013" points="21.797,15.501 23.797,18.294 27.077,17.251 25.039,20.023 27.041,22.814 23.779,21.731 
					21.74,24.497 21.761,21.062 18.5,19.98 21.775,18.939 				"/>
			</g>
		</g>
	</g>
</g>
</svg>
