<?xml version="1.0" encoding="utf-8"?>
<!-- Generator: Adobe Illustrator 16.0.0, SVG Export Plug-In . SVG Version: 6.00 Build 0)  -->
<!DOCTYPE svg PUBLIC "-//W3C//DTD SVG 1.0//EN" "http://www.w3.org/TR/2001/REC-SVG-20010904/DTD/svg10.dtd">
<svg version="1.0" id="Layer_1" xmlns="http://www.w3.org/2000/svg" xmlns:xlink="http://www.w3.org/1999/xlink" x="0px" y="0px"
	 width="40px" height="40px" viewBox="0 0 40 40" enable-background="new 0 0 40 40" xml:space="preserve">
<g>
	<g>
		<g>
			<path fill="#FFE700" d="M5.122,33.333h29.754c1.728-1.927,3.081-4.18,3.96-6.667H1.162C2.042,29.153,3.397,31.406,5.122,33.333z"
				/>
			<path d="M1.162,26.666h37.674C39.578,24.578,40,22.342,40,19.998H0C0,22.342,0.422,24.578,1.162,26.666z"/>
			<path fill="#DE3908" d="M19.998,40c5.918,0,11.218-2.583,14.878-6.667H5.122C8.784,37.417,14.082,40,19.998,40z"/>
			<path fill="#FFE700" d="M5.122,6.667c-1.725,1.926-3.079,4.18-3.96,6.667h37.674c-0.88-2.487-2.232-4.741-3.96-6.667H5.122z"/>
			<path d="M19.998,0C14.083,0,8.784,2.582,5.122,6.667h29.754C31.216,2.582,25.915,0,19.998,0z"/>
			<path fill="#DE3908" d="M0,19.998h40c0-2.34-0.422-4.576-1.164-6.665H1.162C0.422,15.422,0,17.658,0,19.998z"/>
		</g>
		<g>
			<g>
				<path fill="#FFFFFF" d="M26.307,19.998c0,3.484-2.822,6.307-6.309,6.307c-3.483,0-6.306-2.822-6.306-6.307
					c0-3.481,2.823-6.304,6.306-6.304C23.484,13.694,26.307,16.517,26.307,19.998z"/>
			</g>
			<g>
				<path d="M18.418,14.362c0.223-0.234,0.559-0.31,0.873-0.31c0.324-0.012,0.653,0.042,0.947,0.183
					c0.18,0.094,0.351,0.215,0.464,0.381c0.156,0.172,0.297,0.366,0.355,0.592c0.021,0.075,0.042,0.15,0.03,0.231
					c-0.21,0.056-0.421,0.104-0.64,0.149c0.021,0.288-0.098,0.566-0.265,0.791c-0.087,0.121-0.202,0.222-0.308,0.322
					c-0.163,0.195-0.238,0.446-0.277,0.693c-0.046,0.354-0.026,0.713,0.034,1.066c0.18-0.036,0.343,0.07,0.502,0.142
					c0.658,0.315,1.309,0.649,1.982,0.942c0.088,0.037,0.18,0.071,0.271,0.1c0.046,0.013,0.063,0.066,0.085,0.103
					c0.345,0.127,0.679,0.294,0.96,0.531c0.22,0.183,0.403,0.41,0.518,0.674c0.095,0.214,0.14,0.449,0.139,0.686
					c0,0.508-0.199,0.998-0.49,1.413c-0.179,0.252-0.398,0.488-0.666,0.652c-0.118,0.068-0.249,0.134-0.392,0.13
					c-0.004-0.027-0.002-0.057,0.016-0.079c0.065-0.109,0.141-0.214,0.215-0.314c-0.062,0.041-0.13,0.083-0.205,0.083
					c-0.037,0.002-0.086-0.02-0.086-0.061c0.002-0.054,0.041-0.101,0.073-0.142c-0.132,0.048-0.254,0.114-0.391,0.142
					c-0.029,0.007-0.052-0.006-0.078-0.01c-0.003-0.013-0.013-0.035-0.017-0.047c0.039-0.052,0.092-0.095,0.134-0.148
					c-0.052-0.02-0.1-0.05-0.14-0.086c0-0.008-0.005-0.021-0.007-0.027c0.225-0.112,0.427-0.277,0.55-0.498
					c0.124-0.219,0.166-0.478,0.139-0.72c-0.027,0.232-0.174,0.441-0.373,0.568c-0.016-0.015-0.029-0.033-0.045-0.044
					c0.062-0.104,0.096-0.222,0.096-0.339c-0.012,0.002-0.041,0.007-0.054,0.008c-0.062-0.11-0.114-0.225-0.184-0.333
					c-0.19-0.043-0.39-0.078-0.586-0.103c-0.139-0.017-0.277-0.033-0.419-0.012c-0.032,0.008-0.081,0.017-0.096,0.057
					c-0.015,0.088,0.015,0.178,0.044,0.256c0.073,0.19,0.178,0.368,0.29,0.537c0.039,0.063,0.096,0.117,0.117,0.195
					c0.027,0.119-0.014,0.246-0.093,0.339c-0.038,0.034-0.083,0.073-0.137,0.062c-0.19-0.02-0.375-0.036-0.563-0.039
					c-0.119,0-0.241-0.005-0.356,0.029c-0.022,0.056-0.039,0.115-0.042,0.176c-0.007,0.2-0.002,0.4,0.01,0.601
					c0.025,0.334,0.059,0.667,0.104,1.001c0.238,0,0.482,0.026,0.702,0.122c0.13,0.057,0.24,0.158,0.304,0.285
					c-0.335-0.046-0.68-0.049-1.016,0.011c-0.328,0.059-0.645,0.178-0.926,0.352c-0.164,0.103-0.317,0.22-0.446,0.363
					c-0.051-0.075-0.074-0.169-0.043-0.257c0.057-0.186,0.185-0.334,0.317-0.469c-0.283-0.043-0.574-0.036-0.862-0.019
					c0.023-0.147,0.174-0.213,0.3-0.262c0.293-0.101,0.609-0.137,0.921-0.142c0.11-0.002,0.225,0.008,0.335,0.022
					c0.007-0.35-0.037-0.699-0.065-1.048c-0.025-0.242-0.05-0.485-0.081-0.729c-0.316,0.009-0.631-0.011-0.945-0.045
					c-0.121-0.02-0.26-0.02-0.362,0.06c-0.159,0.114-0.225,0.31-0.283,0.488c-0.023,0.056-0.032,0.126-0.081,0.165
					c-0.05,0.022-0.093-0.026-0.11-0.065c-0.062-0.13-0.073-0.273-0.101-0.415c-0.037,0.105-0.073,0.207-0.088,0.314
					c-0.027,0.132-0.022,0.269-0.016,0.4c-0.16-0.112-0.21-0.316-0.216-0.503c-0.086,0.193-0.167,0.381-0.251,0.572
					c-0.038-0.259-0.075-0.527-0.009-0.787c0.041-0.17,0.134-0.332,0.288-0.425c0.163-0.106,0.361-0.121,0.547-0.163
					c0.401-0.044,0.806-0.021,1.208-0.012c0.15,0.012,0.298,0.019,0.446,0.036c0.029-0.114,0.021-0.229,0.021-0.344
					c0-0.22-0.021-0.433-0.039-0.647c-0.176-0.149-0.329-0.325-0.498-0.476c-0.285-0.089-0.533-0.26-0.753-0.454
					c-0.126-0.108-0.242-0.228-0.351-0.35c-0.024,0.014-0.054,0.065-0.085,0.034c-0.203-0.213-0.376-0.459-0.483-0.732
					c-0.113-0.291-0.149-0.61-0.105-0.919c0.053-0.376,0.205-0.737,0.401-1.063c0.187-0.308,0.419-0.591,0.675-0.848
					c-0.09-0.034-0.182-0.103-0.195-0.208c-0.016-0.166,0.094-0.314,0.204-0.434c-0.205,0.031-0.411,0.059-0.621,0.073
					c-0.09,0.004-0.182,0.009-0.268-0.024c0.21-0.059,0.423-0.099,0.638-0.14c0.088-0.017,0.178-0.031,0.266-0.034
					c0.004-0.017,0.012-0.049,0.014-0.065c-0.05,0-0.101,0.002-0.149,0.009c-0.272,0.044-0.536,0.103-0.802,0.169
					c0,0.013-0.004,0.044-0.006,0.059c-0.007-0.032-0.029-0.071-0.003-0.103c0.043-0.065,0.117-0.1,0.182-0.135
					c0.235-0.112,0.486-0.183,0.734-0.258c-0.083-0.169-0.069-0.372,0.012-0.537c0.031-0.069,0.079-0.127,0.117-0.193
					C18.694,14.865,18.556,14.612,18.418,14.362L18.418,14.362z"/>
				<path fill="#DE3107" d="M18.503,14.377c0.203-0.195,0.501-0.256,0.775-0.256c0,0.127-0.023,0.254-0.017,0.384
					c-0.009,0.126-0.023,0.251-0.018,0.378c-0.122,0.044-0.242,0.093-0.341,0.174c-0.011,0-0.026-0.005-0.034-0.005
					C18.75,14.824,18.629,14.602,18.503,14.377L18.503,14.377z"/>
				<path fill="#FEE601" d="M19.353,14.124c0.089-0.016,0.173,0.002,0.261,0.007c0.349,0.044,0.706,0.164,0.952,0.427
					c0.027,0.022-0.002,0.052-0.013,0.073c-0.119,0.171-0.22,0.354-0.351,0.521c-0.191-0.197-0.467-0.303-0.739-0.293
					c-0.054,0-0.105,0.007-0.157,0.012C19.32,14.622,19.348,14.373,19.353,14.124L19.353,14.124z"/>
				<path fill="#DE3107" d="M20.62,14.644c0.208,0.195,0.374,0.452,0.403,0.742c-0.201,0.046-0.396,0.104-0.599,0.135
					c-0.029-0.117-0.088-0.226-0.166-0.312C20.379,15.02,20.501,14.831,20.62,14.644L20.62,14.644z"/>
				<path fill="#9BA59C" d="M19.803,15.222c0.131,0.063,0.244,0.164,0.29,0.299c0.071,0.195,0.017,0.415-0.1,0.586
					c-0.083,0.126-0.2,0.238-0.351,0.269c-0.078,0.015-0.178,0.041-0.233-0.03c-0.041-0.059-0.067-0.146-0.019-0.212
					c0.087-0.109,0.253-0.127,0.328-0.251C19.842,15.688,19.836,15.442,19.803,15.222L19.803,15.222z"/>
				<path fill="#FFFEFF" d="M19.115,15.666c0.082-0.046,0.188,0.027,0.177,0.12c-0.001,0.086-0.115,0.146-0.187,0.095
					C19.022,15.837,19.029,15.7,19.115,15.666L19.115,15.666z"/>
				<path fill="#DE3107" d="M18.789,16.318c0.038-0.017,0.067,0.026,0.098,0.041c0.078,0.064,0.192,0.118,0.204,0.23
					c-0.022,0.061-0.049,0.119-0.093,0.166c-0.078,0.058-0.175,0.093-0.27,0.109c-0.099-0.013-0.178-0.122-0.146-0.222
					C18.614,16.517,18.694,16.406,18.789,16.318L18.789,16.318z"/>
				<path fill="#9BA59C" d="M18.741,17.464c0.163-0.278,0.35-0.542,0.559-0.781c0.02,0.009,0.036,0.017,0.058,0.026
					c-0.113,0.415-0.31,0.803-0.35,1.233c-0.034,0.307,0.051,0.62,0.208,0.884c-0.091-0.005-0.177-0.015-0.268-0.02
					c0.023,0.093,0.057,0.183,0.09,0.271c-0.093-0.005-0.185-0.02-0.274-0.027c0.037,0.078,0.083,0.151,0.12,0.229
					c-0.072-0.019-0.142-0.038-0.215-0.053c0.024,0.083,0.047,0.171,0.05,0.258c-0.011,0.008-0.033,0.016-0.045,0.024
					c-0.048-0.031-0.096-0.068-0.144-0.1c-0.005,0.11-0.019,0.215-0.045,0.32c-0.054-0.104-0.106-0.208-0.139-0.322
					c-0.103-0.322-0.085-0.672-0.006-0.997C18.424,18.076,18.568,17.759,18.741,17.464L18.741,17.464z"/>
				<path fill="#9BA59C" d="M19.606,18.555c0.047-0.044,0.123-0.034,0.184-0.022c0.124,0.029,0.237,0.094,0.352,0.149
					c0.686,0.33,1.364,0.682,2.067,0.977c-0.139-0.044-0.277-0.076-0.417-0.11c0.062,0.062,0.12,0.123,0.183,0.188
					c-0.212-0.068-0.424-0.134-0.637-0.198c-0.115-0.038-0.225-0.09-0.34-0.141c-0.151-0.071-0.31-0.142-0.466-0.216
					c-0.119-0.061-0.257-0.073-0.389-0.058c-0.106,0.012-0.197,0.098-0.214,0.2c-0.027,0.175,0.043,0.371,0.199,0.459
					c0.143,0.088,0.286,0.176,0.445,0.238c0.183,0.137,0.346,0.303,0.512,0.45c0,0.013,0,0.038,0,0.049
					c0.164,0.126,0.338,0.234,0.498,0.363c0.27,0.218,0.527,0.465,0.703,0.768c0.049,0.097,0.117,0.197,0.084,0.31
					c-0.045-0.054-0.071-0.117-0.11-0.176c-0.283-0.469-0.688-0.869-1.182-1.113c-0.173-0.086-0.361-0.151-0.55-0.2
					c-0.28-0.066-0.549-0.203-0.739-0.423c-0.244-0.273-0.348-0.645-0.342-1.003c0.005-0.117,0.008-0.245,0.072-0.348
					C19.546,18.65,19.562,18.594,19.606,18.555L19.606,18.555z"/>
				<path fill="#FFFEFF" d="M20.125,19.196c0.104-0.031,0.215-0.01,0.321,0.022c0.26,0.119,0.519,0.246,0.782,0.352
					c0.293,0.098,0.583,0.183,0.871,0.276c0.127,0.132,0.246,0.268,0.363,0.402c-0.248-0.114-0.492-0.237-0.749-0.334
					c-0.059-0.027-0.12-0.022-0.183-0.027c0.121,0.091,0.229,0.192,0.316,0.312c0.027,0.039,0.063,0.083,0.081,0.132
					c-0.237-0.078-0.479-0.137-0.728-0.176c-0.002,0.024-0.034,0.061-0.005,0.076c0.104,0.073,0.208,0.141,0.296,0.229
					c-0.117-0.014-0.23-0.025-0.348-0.021c-0.16-0.154-0.322-0.306-0.495-0.446c-0.056-0.049-0.134-0.062-0.193-0.099
					c-0.119-0.063-0.231-0.132-0.341-0.202c-0.098-0.088-0.14-0.225-0.12-0.352C20.005,19.274,20.057,19.217,20.125,19.196
					L20.125,19.196z"/>
				<path fill="#DE3107" d="M22.007,19.678c0.127,0.024,0.246,0.068,0.368,0.107c0.322,0.11,0.635,0.257,0.911,0.464
					c0.259,0.193,0.48,0.444,0.605,0.742c0.09,0.196,0.124,0.415,0.135,0.631c-0.011,0.563-0.244,1.108-0.601,1.542
					c-0.161,0.198-0.342,0.377-0.566,0.503c-0.068,0.042-0.143,0.078-0.223,0.088c0.112-0.181,0.246-0.349,0.396-0.507
					c0-0.01-0.003-0.03-0.003-0.04c-0.023,0.003-0.043-0.007-0.061,0.005c-0.129,0.094-0.252,0.228-0.418,0.242
					c0.039-0.09,0.105-0.161,0.182-0.222c-0.001-0.016-0.003-0.03-0.003-0.045c-0.073-0.012-0.13,0.04-0.195,0.064
					c-0.12,0.049-0.237,0.112-0.363,0.132c0.038-0.034,0.077-0.064,0.112-0.105c0.023-0.018,0.007-0.046,0.007-0.068
					c-0.032-0.01-0.068-0.021-0.105-0.029c0-0.005,0-0.022,0-0.027c0.254-0.146,0.465-0.375,0.562-0.653
					c0.113-0.309,0.089-0.652-0.005-0.965c-0.021,0-0.044,0-0.07,0c0.065,0.281,0.003,0.599-0.208,0.803
					c0.013-0.106,0.037-0.209,0.022-0.316c-0.032-0.273-0.188-0.511-0.361-0.713c-0.271-0.312-0.599-0.574-0.947-0.8
					c0.149-0.012,0.293,0.023,0.439,0.035c-0.031-0.096-0.107-0.164-0.183-0.23c0.01-0.016,0.024-0.025,0.039-0.036
					c0.205,0.047,0.4,0.107,0.6,0.163c-0.068-0.153-0.17-0.285-0.277-0.415c0.028,0.01,0.056,0.015,0.08,0.024
					c0.236,0.105,0.471,0.226,0.71,0.335c0.05,0.018,0.062-0.049,0.027-0.077c-0.132-0.147-0.267-0.289-0.397-0.438
					C22.153,19.795,22.068,19.749,22.007,19.678L22.007,19.678z"/>
				<path fill="#9BA59C" d="M19.704,20.264c0.151,0.215,0.317,0.418,0.516,0.586c0.062,0.047,0.122,0.098,0.183,0.149
					c-0.012,0.017-0.024,0.037-0.036,0.052c-0.101-0.063-0.225-0.083-0.339-0.055c-0.11,0.015-0.215,0.06-0.315,0.098
					C19.585,20.835,19.629,20.532,19.704,20.264L19.704,20.264z"/>
				<path fill="#FFFEFF" d="M20.31,21.927c0.245,0.129,0.447,0.358,0.525,0.632c0.02,0.078,0.041,0.174-0.013,0.245
					c-0.046,0.033-0.1,0.038-0.151,0.041c-0.116,0.005-0.229-0.002-0.344-0.026C20.32,22.521,20.31,22.223,20.31,21.927
					L20.31,21.927z"/>
			</g>
		</g>
	</g>
</g>
</svg>
