<?xml version="1.0" encoding="utf-8"?>
<!-- Generator: Adobe Illustrator 16.0.0, SVG Export Plug-In . SVG Version: 6.00 Build 0)  -->
<!DOCTYPE svg PUBLIC "-//W3C//DTD SVG 1.0//EN" "http://www.w3.org/TR/2001/REC-SVG-20010904/DTD/svg10.dtd">
<svg version="1.0" id="Layer_1" xmlns="http://www.w3.org/2000/svg" xmlns:xlink="http://www.w3.org/1999/xlink" x="0px" y="0px"
	 width="40px" height="40px" viewBox="0 0 40 40" enable-background="new 0 0 40 40" xml:space="preserve">
<g>
	<g>
		<path fill="#D0202D" d="M20,40c8.069,0,15.02-4.78,18.181-11.668H1.822C4.979,35.22,11.93,40,20,40z"/>
		<path fill="#F7D119" d="M20,0C11.93,0,4.979,4.782,1.822,11.666h36.358C35.02,4.782,28.069,0,20,0z"/>
		<path fill="#1D439B" d="M0,20c0,2.974,0.656,5.796,1.822,8.332h36.358C39.346,25.796,40,22.974,40,20
			c0-2.976-0.654-5.796-1.819-8.334H1.822C0.656,14.204,0,17.024,0,20z"/>
		<g>
			<polygon fill="#FFFFFF" points="8.837,22.113 9.291,23.48 10.667,23.451 9.571,24.324 10.025,25.693 8.896,24.865 7.797,25.739 
				8.196,24.351 7.066,23.525 8.44,23.496 			"/>
			<polygon fill="#FFFFFF" points="11.5,18.527 11.441,19.966 12.74,20.425 11.404,20.856 11.351,22.295 10.582,21.121 
				9.251,21.555 10.11,20.399 9.342,19.225 10.641,19.683 			"/>
			<polygon fill="#FFFFFF" points="15.255,16.108 14.69,17.438 15.745,18.325 14.349,18.255 13.783,19.583 13.479,18.216 
				12.079,18.148 13.292,17.37 12.989,16.001 14.042,16.89 			"/>
			<polygon fill="#FFFFFF" points="19.62,15.172 18.629,16.216 19.298,17.418 18.014,16.86 17.021,17.905 17.218,16.52 
				15.931,15.963 17.34,15.661 17.542,14.273 18.213,15.475 			"/>
			<polygon fill="#FFFFFF" points="24.036,15.836 22.737,16.46 22.942,17.822 21.937,16.849 20.641,17.477 21.313,16.247 
				20.309,15.27 21.731,15.488 22.405,14.26 22.61,15.623 			"/>
			<polygon fill="#FFFFFF" points="27.937,18.013 26.501,18.141 26.213,19.487 25.615,18.219 24.177,18.348 25.244,17.438 
				24.646,16.17 25.901,16.875 26.963,15.963 26.68,17.31 			"/>
			<polygon fill="#FFFFFF" points="30.818,21.424 29.427,21.035 28.685,22.194 28.572,20.801 27.181,20.414 28.499,19.938 
				28.386,18.54 29.316,19.642 30.632,19.164 29.89,20.324 			"/>
			<polygon fill="#FFFFFF" points="32.312,25.634 31.149,24.782 30.041,25.603 30.427,24.255 29.265,23.406 30.666,23.422 
				31.052,22.077 31.531,23.433 32.934,23.451 31.83,24.274 			"/>
		</g>
	</g>
</g>
</svg>
