<?xml version="1.0" encoding="utf-8"?>
<!-- Generator: Adobe Illustrator 16.0.0, SVG Export Plug-In . SVG Version: 6.00 Build 0)  -->
<!DOCTYPE svg PUBLIC "-//W3C//DTD SVG 1.1//EN" "http://www.w3.org/Graphics/SVG/1.1/DTD/svg11.dtd">
<svg version="1.1" id="Layer_1" xmlns="http://www.w3.org/2000/svg" xmlns:xlink="http://www.w3.org/1999/xlink" x="0px" y="0px"
	 width="40px" height="40px" viewBox="0 0 40 40" enable-background="new 0 0 40 40" xml:space="preserve">
<circle fill="#FFFFFF" cx="20" cy="20" r="19.5"/>
<path fill="#D60006" d="M20,1c10.477,0,19,8.523,19,19s-8.523,19-19,19S1,30.477,1,20S9.523,1,20,1 M20,0C8.954,0,0,8.954,0,20
	s8.954,20,20,20s20-8.954,20-20S31.046,0,20,0L20,0z"/>
<g>
	<path fill="#D60006" d="M17.262,22.432h-5.616L10.354,26h-1.09l4.702-12.797h0.993L19.626,26h-1.09L17.262,22.432z M11.98,21.491
		h4.939l-2.426-6.785h-0.053L11.98,21.491z"/>
	<path fill="#D60006" d="M22.658,20.683V26h-1.055V13.203h4.412c1.342,0,2.381,0.343,3.115,1.028
		c0.736,0.686,1.104,1.588,1.104,2.707c0,1.137-0.367,2.045-1.104,2.725c-0.734,0.68-1.773,1.02-3.115,1.02H22.658z M22.658,19.786
		h3.357c1.055,0,1.846-0.268,2.373-0.804s0.791-1.211,0.791-2.026c0-0.82-0.264-1.501-0.791-2.043S27.07,14.1,26.016,14.1h-3.357
		V19.786z"/>
</g>
</svg>
