<?xml version="1.0" encoding="utf-8"?>
<!-- Generator: Adobe Illustrator 16.0.0, SVG Export Plug-In . SVG Version: 6.00 Build 0)  -->
<!DOCTYPE svg PUBLIC "-//W3C//DTD SVG 1.0//EN" "http://www.w3.org/TR/2001/REC-SVG-20010904/DTD/svg10.dtd">
<svg version="1.0" id="Layer_1" xmlns="http://www.w3.org/2000/svg" xmlns:xlink="http://www.w3.org/1999/xlink" x="0px" y="0px"
	 width="40px" height="40px" viewBox="0 0 40 40" enable-background="new 0 0 40 40" xml:space="preserve">
<g>
	<g>
		<circle fill="#243E90" cx="20" cy="20" r="20"/>
		<g>
			<polygon fill="#FFCD05" points="20,6.667 20.391,7.877 21.659,7.877 20.633,8.624 21.024,9.835 20,9.088 18.976,9.835 
				19.365,8.624 18.339,7.877 19.609,7.877 			"/>
			<polygon fill="#FFCD05" points="14.088,8.249 14.481,9.462 15.747,9.46 14.724,10.207 15.114,11.421 14.089,10.671 
				13.065,11.423 13.457,10.209 12.43,9.464 13.698,9.464 			"/>
			<polygon fill="#FFCD05" points="9.766,12.593 10.157,13.801 11.425,13.801 10.398,14.551 10.795,15.762 9.771,15.017 
				8.743,15.766 9.135,14.555 8.107,13.806 9.374,13.803 			"/>
			<polygon fill="#FFCD05" points="25.898,8.271 26.293,9.479 27.558,9.477 26.537,10.229 26.928,11.439 25.905,10.694 
				24.877,11.442 25.269,10.231 24.24,9.483 25.511,9.481 			"/>
			<polygon fill="#FFCD05" points="31.703,13.711 30.68,14.46 31.072,15.671 30.044,14.926 29.022,15.671 29.412,14.463 
				28.386,13.715 29.653,13.715 30.044,12.5 30.437,13.713 			"/>
			<polygon fill="#FFCD05" points="33.334,19.675 32.306,20.419 32.69,21.633 31.672,20.879 30.642,21.621 31.039,20.414 
				30.016,19.66 31.283,19.665 31.681,18.456 32.064,19.668 			"/>
			<polygon fill="#FFCD05" points="31.17,27.357 30.146,26.608 29.12,27.357 29.511,26.146 28.481,25.397 29.75,25.397 
				30.141,24.185 30.533,25.397 31.802,25.395 30.775,26.145 			"/>
			<polygon fill="#FFCD05" points="19.082,33.334 19.469,32.121 18.443,31.372 19.709,31.371 20.1,30.158 20.492,31.367 
				21.757,31.364 20.734,32.116 21.132,33.327 20.104,32.583 			"/>
			<polygon fill="#FFCD05" points="13.162,31.758 13.552,30.547 12.525,29.799 13.795,29.797 14.184,28.584 14.575,29.795 
				15.841,29.794 14.818,30.544 15.211,31.753 14.187,31.008 			"/>
			<polygon fill="#FFCD05" points="26.845,31.729 25.823,30.976 24.794,31.723 25.193,30.512 24.17,29.756 25.437,29.763 
				25.832,28.555 26.22,29.766 27.486,29.77 26.459,30.515 			"/>
			<polygon fill="#FFCD05" points="6.667,19.697 7.934,19.696 8.321,18.481 8.719,19.691 9.981,19.688 8.961,20.439 9.354,21.65 
				8.328,20.903 7.305,21.655 7.694,20.444 			"/>
			<polygon fill="#FFCD05" points="8.833,27.351 9.226,26.14 8.199,25.391 9.467,25.391 9.857,24.177 10.252,25.388 11.517,25.388 
				10.492,26.138 10.887,27.351 9.859,26.602 			"/>
		</g>
	</g>
</g>
</svg>
