<?xml version="1.0" encoding="utf-8"?>
<!-- Generator: Adobe Illustrator 16.0.0, SVG Export Plug-In . SVG Version: 6.00 Build 0)  -->
<!DOCTYPE svg PUBLIC "-//W3C//DTD SVG 1.1//EN" "http://www.w3.org/Graphics/SVG/1.1/DTD/svg11.dtd">
<svg version="1.1" id="Layer_1" xmlns="http://www.w3.org/2000/svg" xmlns:xlink="http://www.w3.org/1999/xlink" x="0px" y="0px"
	 width="40px" height="40px" viewBox="0 0 40 40" enable-background="new 0 0 40 40" xml:space="preserve">
<circle fill="#FFFFFF" cx="20" cy="20" r="19.5"/>
<path fill="#D60006" d="M20,1c10.477,0,19,8.523,19,19s-8.523,19-19,19S1,30.477,1,20S9.523,1,20,1 M20,0C8.954,0,0,8.954,0,20
	s8.954,20,20,20s20-8.954,20-20S31.046,0,20,0L20,0z"/>
<g>
	<path fill="#D60006" d="M12.129,25.112h6.609V26h-7.664V13.203h1.055V25.112z"/>
	<path fill="#D60006" d="M27.854,22.432h-5.617L20.945,26h-1.09l4.702-12.797h0.994L30.217,26h-1.09L27.854,22.432z M22.57,21.491
		h4.939l-2.426-6.785h-0.053L22.57,21.491z"/>
</g>
</svg>
