<?xml version="1.0" encoding="utf-8"?>
<!-- Generator: Adobe Illustrator 16.0.0, SVG Export Plug-In . SVG Version: 6.00 Build 0)  -->
<!DOCTYPE svg PUBLIC "-//W3C//DTD SVG 1.1//EN" "http://www.w3.org/Graphics/SVG/1.1/DTD/svg11.dtd">
<svg version="1.1" id="Layer_1" xmlns="http://www.w3.org/2000/svg" xmlns:xlink="http://www.w3.org/1999/xlink" x="0px" y="0px"
	 width="40px" height="40px" viewBox="0 0 40 40" enable-background="new 0 0 40 40" xml:space="preserve">
<circle fill="#FFFFFF" cx="20" cy="20" r="19.5"/>
<path fill="#D60006" d="M20,1c10.477,0,19,8.523,19,19s-8.523,19-19,19S1,30.477,1,20S9.523,1,20,1 M20,0C8.954,0,0,8.954,0,20
	s8.954,20,20,20s20-8.954,20-20S31.046,0,20,0L20,0z"/>
<g>
	<path fill="#D60006" d="M12.266,24.471h0.053l4.764-11.268h1.283V26h-1.055V15.251l-0.053-0.009L12.67,26h-0.756L7.221,14.979
		l-0.053,0.009V26H6.113V13.203H7.52L12.266,24.471z"/>
	<path fill="#D60006" d="M27.787,24.471h0.053l4.764-11.268h1.283V26h-1.055V15.251l-0.053-0.009L28.191,26h-0.756l-4.693-11.021
		l-0.053,0.009V26h-1.055V13.203h1.406L27.787,24.471z"/>
</g>
</svg>
