<?xml version="1.0" encoding="utf-8"?>
<!-- Generator: Adobe Illustrator 16.0.0, SVG Export Plug-In . SVG Version: 6.00 Build 0)  -->
<!DOCTYPE svg PUBLIC "-//W3C//DTD SVG 1.1//EN" "http://www.w3.org/Graphics/SVG/1.1/DTD/svg11.dtd">
<svg version="1.1" id="Layer_1" xmlns="http://www.w3.org/2000/svg" xmlns:xlink="http://www.w3.org/1999/xlink" x="0px" y="0px"
	 width="40px" height="40px" viewBox="0 0 40 40" enable-background="new 0 0 40 40" xml:space="preserve">
<circle fill="#FFFFFF" cx="20" cy="20" r="19.5"/>
<path fill="#D60006" d="M20,1c10.477,0,19,8.523,19,19s-8.523,19-19,19S1,30.477,1,20S9.523,1,20,1 M20,0C8.954,0,0,8.954,0,20
	s8.954,20,20,20s20-8.954,20-20S31.046,0,20,0L20,0z"/>
<g>
	<path fill="#D60006" d="M17.899,22.889c0-0.656-0.261-1.198-0.782-1.626s-1.406-0.829-2.654-1.204
		c-1.365-0.375-2.404-0.842-3.116-1.402s-1.068-1.32-1.068-2.281c0-0.979,0.398-1.783,1.195-2.413s1.813-0.945,3.05-0.945
		c1.301,0,2.347,0.356,3.138,1.068s1.175,1.616,1.151,2.711l-0.018,0.053h-0.984c0-0.844-0.306-1.544-0.918-2.101
		s-1.402-0.835-2.369-0.835c-0.996,0-1.777,0.236-2.342,0.708s-0.848,1.05-0.848,1.736c0,0.65,0.256,1.185,0.769,1.604
		s1.417,0.81,2.711,1.173c1.348,0.393,2.376,0.876,3.085,1.45s1.063,1.336,1.063,2.285c0,0.996-0.415,1.797-1.244,2.404
		c-0.829,0.605-1.874,0.909-3.133,0.909s-2.358-0.321-3.296-0.962c-0.938-0.643-1.392-1.578-1.362-2.809l0.018-0.053h0.976
		c0,0.99,0.372,1.727,1.116,2.211c0.744,0.482,1.594,0.725,2.549,0.725c0.979,0,1.775-0.225,2.391-0.672
		C17.592,24.176,17.899,23.598,17.899,22.889z"/>
	<path fill="#D60006" d="M28.244,22.432h-5.617L21.336,26h-1.09l4.701-12.797h0.994L30.607,26h-1.09L28.244,22.432z M22.961,21.491
		H27.9l-2.426-6.785h-0.053L22.961,21.491z"/>
</g>
</svg>
