<?xml version="1.0" encoding="utf-8"?>
<!-- Generator: Adobe Illustrator 16.0.0, SVG Export Plug-In . SVG Version: 6.00 Build 0)  -->
<!DOCTYPE svg PUBLIC "-//W3C//DTD SVG 1.1//EN" "http://www.w3.org/Graphics/SVG/1.1/DTD/svg11.dtd">
<svg version="1.1" id="Layer_1" xmlns="http://www.w3.org/2000/svg" xmlns:xlink="http://www.w3.org/1999/xlink" x="0px" y="0px"
	 width="40px" height="40px" viewBox="0 0 40 40" enable-background="new 0 0 40 40" xml:space="preserve">
<g>
	<polygon fill="#A2A2AC" points="16.98,6.523 16.621,7.346 16.621,8.477 15.952,9.146 15.952,11.048 17.031,11.048 18.267,9.814 
		18.267,8.631 17.778,8.143 17.778,6.523 	"/>
	<polygon fill="#A2A2AC" points="15.488,8.425 15.488,10.02 14.616,10.02 14.974,8.682 	"/>
	<polygon fill="#A2A2AC" points="29.37,29.004 29.277,29.102 29.277,29.987 28.176,31.091 28.146,31.16 28.146,32.446 
		28.245,32.546 29.119,32.546 29.207,32.49 30.186,30.589 30.195,30.544 30.195,29.051 30.09,28.952 	"/>
	<path fill="#A2A2AC" d="M0,20c0,6.11,2.741,11.579,7.061,15.247l0.657,0.023l0.075-0.029l1.338-1.389l0.021-0.034l0.721-1.902
		v-0.07l-0.412-1.131l-0.057-0.058l-2.938-1.165l-0.861-2.938l-0.051-0.061l-3.854-1.927l0.05-4.618l4.431-2.954l0.042-0.059
		l0.205-0.771l-0.018-0.086l-2.459-3.125l-0.749-2.046l1.683-2.422l1.713,0.381L6.8,12.341l0.033,0.068l0.616,0.564l0.151-0.021
		l2.881-4.785L10.479,8.06L8.933,5.896L7.673,4.25C3.001,7.91,0,13.605,0,20z"/>
	<path fill="#A2A2AC" d="M33.523,5.267l-4.869,0.127L28.625,5.4l-2.973,1.023l-4.513,0.36l-0.065,0.029l-2.107,2.213l-0.02,0.107
		l0.308,0.72l0.091,0.061h0.671l0.03-0.005l0.554-0.186l0.266,0.309l0.062,0.034l0.771,0.103l0.101-0.05l0.847-1.543h1.385v1.196
		l-1.279,1.279h-1.873l-0.588-0.588l-0.169,0.07v0.674h-1.599l-0.069,0.027L17.48,12.21h-0.654l-0.07,0.17l0.832,0.831v1.03h-1.943
		l-0.101,0.1v1.955l0.029,0.069l0.488,0.488l0.117,0.019l1.468-0.798l0.032-0.031l0.947-1.346h0.669l0.07-0.029l0.383-0.383h0.371
		l1.131,1.574l-0.047,0.583l0.167,0.078l0.771-0.771l0.02-0.117l-0.85-1.604h0.669l0.868,0.867v1.348l0.099,0.1h0.515l0.07-0.029
		l0.82-0.818h0.498l0.099-0.102v-1.27l0.508-0.508h1.308l1.253,1.254v0.914h-2.344l-0.1,0.1v0.926l0.1,0.098h1.084v0.832h-3.913
		l-0.039,0.008l-1.326,0.541l-0.604-0.605l-0.251-0.85l-0.095-0.072h-2.676l-0.069,0.029l-0.459,0.459h-1.117l-0.069,0.029
		l-2.175,2.175l-0.027,0.07v3.663l0.027,0.072l2.168,2.166l0.07,0.027h0.984l0.068-0.027l0.695-0.695h1.509l0.943,0.944v3.182
		l-0.55,0.549l-0.027,0.071v2.611l0.027,0.068l1.719,1.719l0.068,0.029h1.821l0.07-0.029l1.553-1.553l0.029-0.072v-0.945
		l2.306-2.307l0.029-0.069v-1.379l3.066-3.066l-0.069-0.169h-2.771v-1.641l-0.01-0.041l-1.478-3.203h1.118l1.517,3.489l0.085,0.061
		l0.821,0.051l0.053-0.01l2.983-1.493l0.037-0.143l-0.72-1.081L32,20.261h-1.069l-0.684-1.459l0.551-0.039l1.766,0.856l2.476,2.072
		v2.01l0.029,0.071l0.874,0.874l0.153-0.018l1.377-2.142L39.6,21.12l0.374-0.078C39.992,20.696,40,20.349,40,20
		C40,14.17,37.505,8.923,33.523,5.267z M29.631,16.917v-2.33l0.923-0.923l-0.041,1.085l0.021,0.065l0.547,0.695l0.093,1.407H29.631z
		"/>
</g>
<path fill="#A2A2AC" d="M20,1c10.477,0,19,8.523,19,19s-8.523,19-19,19S1,30.477,1,20S9.523,1,20,1 M20,0C8.954,0,0,8.954,0,20
	s8.954,20,20,20s20-8.954,20-20S31.046,0,20,0L20,0z"/>
</svg>
