<?xml version="1.0" encoding="utf-8"?>
<!-- Generator: Adobe Illustrator 16.0.0, SVG Export Plug-In . SVG Version: 6.00 Build 0)  -->
<!DOCTYPE svg PUBLIC "-//W3C//DTD SVG 1.0//EN" "http://www.w3.org/TR/2001/REC-SVG-20010904/DTD/svg10.dtd">
<svg version="1.0" id="Layer_1" xmlns="http://www.w3.org/2000/svg" xmlns:xlink="http://www.w3.org/1999/xlink" x="0px" y="0px"
	 width="24px" height="24px" viewBox="0 0 24 24" enable-background="new 0 0 24 24" xml:space="preserve">
<g>
	<path fill="#FFFFFF" d="M15,2L15,2L2,2v20h20V9L15,2z M3,21V3h12v6h6v12H3z"/>
	<rect x="5" y="5" fill="#FFFFFF" width="6" height="2"/>
	<rect x="5" y="9" fill="#FFFFFF" width="6" height="1"/>
	<rect x="5" y="12" fill="#FFFFFF" width="6" height="1"/>
	<rect x="5" y="15" fill="#FFFFFF" width="6" height="1"/>
	<rect x="5" y="18" fill="#FFFFFF" width="6" height="1"/>
	<rect x="13" y="18" fill="#FFFFFF" width="6" height="1"/>
	<path fill="#FFFFFF" d="M16,17c1.656,0,3-1.344,3-3c0-1.657-1.344-3-3-3s-3,1.343-3,3C13,15.656,14.344,17,16,17z M16,12
		c1.103,0,2,0.897,2,2c0,1.103-0.897,2-2,2s-2-0.897-2-2C14,12.897,14.897,12,16,12z"/>
	<circle fill="#FFFFFF" cx="16" cy="14" r="1"/>
</g>
</svg>
