<?xml version="1.0" encoding="utf-8"?>
<!-- Generator: Adobe Illustrator 16.0.0, SVG Export Plug-In . SVG Version: 6.00 Build 0)  -->
<!DOCTYPE svg PUBLIC "-//W3C//DTD SVG 1.1//EN" "http://www.w3.org/Graphics/SVG/1.1/DTD/svg11.dtd">
<svg version="1.1" id="Layer_1" xmlns="http://www.w3.org/2000/svg" xmlns:xlink="http://www.w3.org/1999/xlink" x="0px" y="0px"
	 width="90px" height="90px" viewBox="0 0 90 90" enable-background="new 0 0 90 90" xml:space="preserve">
<circle fill="#2E2E31" cx="45" cy="49" r="40"/>
<circle fill="#D60006" cx="44.998" cy="49.006" r="30.002"/>
<path fill="#FDC300" d="M49.669,26.164c-2.516-1.408-5.273-2.398-8.194-2.915c-1.517-0.267-3.024-0.395-4.513-0.395
	c-1.449,0-2.88,0.122-4.278,0.362l-1.101-6.003c3.675-0.677,7.497-0.703,11.326-0.03c3.53,0.622,6.881,1.844,9.938,3.557
	L49.669,26.164z M57.646,34.286c1.237,1.771,2.229,3.655,2.972,5.626l-3.144,1.11c-0.639-1.689-1.496-3.311-2.558-4.826
	c-1.798-2.572-4.077-4.683-6.694-6.245l1.686-2.872C52.931,28.877,55.562,31.317,57.646,34.286 M61.823,53.135
	c-0.225,1.27-0.539,2.506-0.945,3.705l-3.143-1.104c0.343-1.023,0.614-2.086,0.807-3.18c0.657-3.709,0.356-7.438-0.837-10.905
	l3.138-1.111C62.228,44.542,62.576,48.852,61.823,53.135 M51.447,69.422c-0.479,0.33-0.964,0.648-1.458,0.947l-1.697-2.875
	c4.154-2.516,7.466-6.389,9.22-11.123l3.146,1.1C58.898,62.275,55.725,66.426,51.447,69.422 M53.146,77.031
	c-6.372,3.717-13.889,5.107-21.459,3.77l-0.05-0.01l1.15-6.479c5.9,0.969,11.827-0.1,16.966-3.027L53.146,77.031z M17.839,65.203
	l2.55-2.141c3.21,3.736,7.549,6.258,12.438,7.197l-0.582,3.277C26.579,72.457,21.55,69.533,17.839,65.203 M16.305,63.223
	c-2.931-4.178-4.49-9.033-4.567-14.021l3.331-0.039c0.071,4.324,1.427,8.527,3.964,12.152c0.296,0.424,0.603,0.834,0.928,1.232
	l-2.552,2.139C17.024,64.215,16.656,63.727,16.305,63.223 M12.124,44.376c0.769-4.347,2.61-8.235,5.207-11.446l2.553,2.111
	c-2.285,2.839-3.83,6.225-4.481,9.913c-0.207,1.18-0.316,2.362-0.338,3.534l-3.327,0.043C11.751,47.146,11.879,45.76,12.124,44.376
	 M32.864,27.917l1.812,9.884c-1.462,0.305-2.858,0.909-4.119,1.791c-0.737,0.516-1.397,1.108-1.978,1.762l-7.747-6.4
	c1.15-1.34,2.479-2.547,3.966-3.588C27.26,29.641,30,28.48,32.864,27.917 M47.642,29.617c-2.106-1.173-4.418-1.997-6.863-2.429
	c-1.285-0.226-2.573-0.339-3.851-0.339c-1.187,0-2.364,0.098-3.524,0.289l-0.599-3.266c2.761-0.465,5.643-0.476,8.553,0.038
	c2.839,0.501,5.522,1.462,7.971,2.831L47.642,29.617z M47.368,44.599c-0.316-0.788-0.728-1.545-1.228-2.26
	c-0.9-1.287-2.038-2.35-3.343-3.143l5.084-8.667c2.535,1.513,4.743,3.562,6.485,6.05c1.027,1.471,1.855,3.036,2.476,4.665
	L47.368,44.599z M47.623,52.193c0.155-0.482,0.278-0.982,0.37-1.496c0.328-1.857,0.188-3.725-0.394-5.467l9.471-3.356
	c1.156,3.36,1.446,6.973,0.813,10.567c-0.187,1.057-0.451,2.086-0.781,3.074L47.623,52.193z M42.849,58.27
	c2.026-1.252,3.65-3.141,4.548-5.441l9.482,3.32c-1.701,4.584-4.904,8.334-8.926,10.766L42.849,58.27z M33.489,70.375
	c5.075,0.82,10.046-0.188,14.225-2.547l1.7,2.877c-5.001,2.846-10.769,3.889-16.51,2.945L33.489,70.375z M28.597,56.178
	c1.597,1.807,3.716,3.039,6.104,3.533l-1.757,9.887c-4.732-0.914-8.931-3.35-12.042-6.967L28.597,56.178z M25.785,49.043
	c0.049,2.18,0.74,4.297,2.023,6.127c0.114,0.168,0.237,0.33,0.362,0.488l-7.698,6.459c-0.308-0.385-0.606-0.779-0.893-1.189
	c-2.458-3.508-3.771-7.584-3.842-11.773L25.785,49.043z M25.953,46.814c-0.089,0.52-0.145,1.037-0.165,1.555l-10.05,0.115
	c0.017-1.135,0.125-2.277,0.326-3.412c0.629-3.576,2.124-6.853,4.337-9.603l7.748,6.399C27.034,43.292,26.275,44.984,25.953,46.814
	 M42.266,58.607l5.108,8.645c-4.045,2.277-8.855,3.254-13.768,2.463l1.755-9.891C37.817,60.186,40.22,59.707,42.266,58.607
	 M35.338,37.683l-1.813-9.887c2.335-0.382,4.74-0.371,7.136,0.053c2.366,0.415,4.603,1.214,6.642,2.347l-5.086,8.67
	c-1.021-0.541-2.129-0.922-3.297-1.127c-0.658-0.115-1.314-0.175-1.969-0.175C36.408,37.564,35.869,37.605,35.338,37.683
	 M36.952,38.239c0.613,0,1.232,0.053,1.85,0.158c2.768,0.488,5.18,2.025,6.788,4.328c1.616,2.298,2.233,5.089,1.742,7.853
	c-1.004,5.711-6.472,9.537-12.185,8.533c-2.768-0.488-5.178-2.025-6.791-4.326c-1.611-2.301-2.229-5.092-1.742-7.85
	c0.488-2.772,2.025-5.184,4.327-6.795C32.728,38.888,34.813,38.239,36.952,38.239 M32.144,23.994l0.599,3.264
	c-2.957,0.579-5.787,1.778-8.331,3.56c-1.535,1.076-2.907,2.32-4.099,3.708l-2.556-2.11C21.439,28.1,26.516,25.097,32.144,23.994
	 M67.28,37.636l0.631-0.23c-2.661-7.199-7.735-13.137-14.142-16.91l2.735-4.661l-0.581-0.339l-2.735,4.666
	c-3.127-1.756-6.556-3.002-10.163-3.637c-3.907-0.69-7.812-0.664-11.562,0.027l-0.995-5.416l-0.659,0.119l0.994,5.429
	c-6.888,1.417-13.225,5.084-18.065,10.664l0.506,0.44c4.739-5.464,10.939-9.053,17.682-10.447l1.101,5.992
	c-5.785,1.134-11.003,4.221-14.782,8.653l-2.841-2.345l-0.428,0.52l2.837,2.344c-2.666,3.295-4.561,7.291-5.348,11.755
	c-0.252,1.427-0.384,2.855-0.397,4.275l-0.23,0.006l0.011,0.668h0.22c0.079,5.123,1.681,10.107,4.688,14.4
	c0.362,0.52,0.743,1.021,1.139,1.508L6.119,74.16l0.432,0.514l10.772-9.039c3.815,4.453,8.979,7.455,14.804,8.562L30.163,85.27
	l0.659,0.117l0.7-3.936l0.048,0.01c7.73,1.363,15.413-0.057,21.916-3.852l3.53,5.971l0.575-0.342l-3.525-5.975
	c2.966-1.814,5.672-4.133,8.02-6.906l-0.515-0.434c-2.293,2.719-4.945,4.986-7.85,6.76l-3.388-5.738
	c0.508-0.307,1.005-0.631,1.495-0.975c4.396-3.078,7.659-7.34,9.464-12.277l1.566,0.549l0.222-0.633l-1.565-0.549
	c0.411-1.234,0.737-2.504,0.968-3.811c0.774-4.398,0.415-8.823-1.008-12.932l3.841-1.359l-0.225-0.634l-3.845,1.361
	c-0.761-2.025-1.78-3.965-3.053-5.785c-2.138-3.047-4.844-5.55-7.947-7.401l3.182-5.426C59.706,24.768,64.673,30.588,67.28,37.636"
	/>
<path fill="#FDC300" d="M39.053,44.868c-0.42-0.495-1.06-0.744-1.915-0.744c-0.562,0-1.028,0.102-1.398,0.305
	c-0.369,0.202-0.665,0.46-0.889,0.763c-0.223,0.303-0.378,0.621-0.469,0.959c-0.09,0.34-0.146,0.639-0.163,0.906h5.71
	C39.765,46.098,39.472,45.369,39.053,44.868 M35.085,52.129c0.527,0.549,1.286,0.826,2.273,0.826c0.708,0,1.316-0.191,1.827-0.576
	c0.515-0.381,0.824-0.787,0.94-1.213h3.089c-0.494,1.656-1.254,2.84-2.275,3.551c-1.019,0.711-2.257,1.064-3.702,1.064
	c-1.006,0-1.913-0.17-2.72-0.52c-0.809-0.344-1.493-0.84-2.052-1.482c-0.559-0.637-0.993-1.402-1.298-2.291
	c-0.302-0.891-0.455-1.869-0.455-2.936c0-1.033,0.156-1.992,0.469-2.883c0.313-0.89,0.759-1.657,1.333-2.308
	c0.578-0.648,1.266-1.16,2.065-1.534c0.797-0.374,1.683-0.561,2.657-0.561c1.085,0,2.03,0.228,2.841,0.68
	c0.805,0.455,1.47,1.064,1.988,1.829c0.519,0.766,0.892,1.636,1.122,2.615c0.232,0.979,0.313,2.002,0.248,3.068h-9.218
	C34.271,50.688,34.558,51.578,35.085,52.129"/>
</svg>
