<?xml version="1.0" encoding="utf-8"?>
<!-- Generator: Adobe Illustrator 16.0.0, SVG Export Plug-In . SVG Version: 6.00 Build 0)  -->
<!DOCTYPE svg PUBLIC "-//W3C//DTD SVG 1.0//EN" "http://www.w3.org/TR/2001/REC-SVG-20010904/DTD/svg10.dtd">
<svg version="1.0" id="Layer_1" xmlns="http://www.w3.org/2000/svg" xmlns:xlink="http://www.w3.org/1999/xlink" x="0px" y="0px"
	 width="34px" height="34px" viewBox="0 0 34 34" enable-background="new 0 0 34 34" xml:space="preserve">
<g>
	<g>
		<g>
			<polygon fill="#A2A2AC" points="27,12.25 27,13 26.999,13.43 28,12.804 28,25.445 21.5,29.508 21.5,28 20.5,28 20.5,29.508 
				13.53,25.152 13.5,25.133 13.5,24 12.5,24 12.5,25.133 12.47,25.152 6,29.195 6,16.554 12.5,12.492 12.5,14 13.5,14 13.5,12.492 
				15,13.429 15,12.25 13,11 5,16 5,31 13,26 21,31 29,26 29,11 			"/>
		</g>
		<rect x="12.5" y="16" fill="#A2A2AC" width="1" height="2"/>
		<rect x="12.5" y="20" fill="#A2A2AC" width="1" height="2"/>
		<rect x="20.5" y="20" fill="#A2A2AC" width="1" height="2"/>
		<rect x="20.5" y="24" fill="#A2A2AC" width="1" height="2"/>
		<path fill="#A2A2AC" d="M26.035,14c-0.08,0.005-0.269,0.015-0.535,0.015c-0.168,0-0.355-0.004-0.557-0.015h-0.744L21,16l-3-1.875
			v1.18l2.47,1.543l0.03,0.019V18h1v-1.133l0.03-0.019L26.088,14H26.035z"/>
		<path fill="#A2A2AC" d="M21,4.333C19.334,2.667,16,3,16,3v14.592c-0.581,0.207-1,0.756-1,1.408c0,0.828,0.672,1.5,1.5,1.5
			S18,19.828,18,19c0-0.652-0.419-1.202-1-1.408V10c1.117,0.13,2.91,0.505,4,1.594C22.666,13.261,26,13,26,13V6
			C26,6,22.666,6,21,4.333z"/>
	</g>
</g>
</svg>
