<?xml version="1.0" encoding="utf-8"?>
<!-- Generator: Adobe Illustrator 16.0.0, SVG Export Plug-In . SVG Version: 6.00 Build 0)  -->
<!DOCTYPE svg PUBLIC "-//W3C//DTD SVG 1.0//EN" "http://www.w3.org/TR/2001/REC-SVG-20010904/DTD/svg10.dtd">
<svg version="1.0" id="Layer_1" xmlns="http://www.w3.org/2000/svg" xmlns:xlink="http://www.w3.org/1999/xlink" x="0px" y="0px"
	 width="24px" height="24px" viewBox="0 0 24 24" enable-background="new 0 0 24 24" xml:space="preserve">
<g>
	<path fill="#FFFFFF" d="M6.5,3C8.43,3,10,4.57,10,6.5S8.43,10,6.5,10S3,8.43,3,6.5S4.57,3,6.5,3 M6.5,2C4.014,2,2,4.015,2,6.5
		S4.014,11,6.5,11C8.984,11,11,8.985,11,6.5S8.984,2,6.5,2L6.5,2z"/>
	<path fill="#FFFFFF" d="M17.5,2c-0.001,0-0.003,0-0.004,0h-0.001c-0.001,0-0.002,0-0.003,0h-0.001c-0.001,0-0.002,0-0.003,0h-0.001
		c-0.001,0-0.002,0-0.003,0c0,0-0.001,0-0.002,0c0,0-0.001,0-0.002,0h-0.001c-0.001,0-0.002,0-0.003,0h-0.001
		c-0.001,0-0.002,0-0.003,0s-0.001,0-0.001,0c-0.001,0-0.002,0-0.003,0s-0.001,0-0.001,0c-0.003,0-0.006,0-0.008,0
		c-0.001,0-0.001,0-0.002,0c0,0-0.001,0-0.002,0s-0.001,0-0.002,0c0,0-0.001,0-0.002,0c-0.001,0-0.001,0-0.002,0s-0.001,0-0.002,0
		s-0.001,0-0.002,0s-0.001,0-0.002,0s-0.001,0-0.002,0s-0.001,0-0.002,0s-0.001,0-0.002,0c0,0-0.001,0-0.002,0c0,0-0.001,0-0.002,0
		c0,0-0.001,0-0.002,0s-0.001,0-0.002,0s-0.002,0-0.004,0c0,0,0,0-0.001,0s-0.002,0-0.002,0c-0.001,0-0.002,0-0.002,0
		c-0.001,0-0.002,0-0.002,0c-0.001,0-0.002,0-0.002,0c-0.001,0-0.002,0-0.002,0c-0.001,0-0.001,0-0.002,0s-0.002,0-0.002,0
		c-0.001,0-0.001,0-0.002,0s-0.002,0-0.002,0c-0.001,0-0.001,0-0.002,0s-0.001,0-0.002,0s-0.001,0-0.002,0s-0.002,0-0.003,0
		c0,0,0,0-0.001,0s-0.002,0-0.003,0h-0.001c-0.001,0-0.002,0-0.004,0l0,0c-0.001,0-0.003,0-0.004,0c0,0,0,0-0.001,0
		s-0.002,0-0.003,0h-0.001c-0.001,0-0.002,0-0.003,0h-0.001c-0.001,0-0.002,0-0.003,0l-0.001,0c-0.001,0-0.002,0-0.002,0
		c-0.001,0-0.002,0-0.002,0c-0.001,0-0.002,0-0.002,0c-0.001,0-0.001,0-0.002,0s-0.002,0-0.003,0c0,0,0,0-0.001,0s-0.003,0-0.004,0
		l0,0c-0.001,0-0.003,0-0.004,0h-0.001c-0.001,0-0.002,0-0.003,0H17.35c-0.001,0-0.002,0-0.003,0h-0.001c-0.001,0-0.002,0-0.003,0
		c0,0-0.001,0-0.001,0c-0.001,0-0.002,0-0.003,0h-0.001c-0.001,0-0.002,0-0.003,0h-0.001c-0.001,0-0.002,0-0.003,0H17.33
		c-0.003,0-0.005,0-0.008,0h-0.001c-0.001,0-0.002,0-0.003,0h-0.001c-0.001,0-0.002,0-0.003,0h-0.001c-0.001,0-0.002,0-0.003,0
		H17.31c-0.001,0-0.002,0-0.003,0h-0.001c-0.001,0-0.002,0-0.003,0h-0.001c-0.001,0-0.002,0-0.003,0h-0.001
		c-0.001,0-0.002,0-0.004,0l0,0c-0.003,0-0.005,0-0.008,0l0,0c-0.001,0-0.003,0-0.004,0c0,0,0,0-0.001,0s-0.002,0-0.003,0h-0.001
		c-0.001,0-0.002,0-0.003,0h-0.001c-0.001,0-0.002,0-0.003,0H17.27c-0.001,0-0.002,0-0.003,0h-0.001c-0.001,0-0.002,0-0.003,0
		s-0.001,0-0.001,0c-0.004,0-0.008,0-0.012,0l0,0c-0.001,0-0.003,0-0.004,0c0,0,0,0-0.001,0c-0.001,0-0.002,0-0.003,0h-0.001
		c-0.001,0-0.002,0-0.003,0c0,0,0,0-0.001,0c-0.001,0-0.002,0-0.003,0c0,0,0,0-0.001,0s-0.002,0-0.003,0c0,0,0,0-0.001,0
		s-0.002,0-0.003,0c0,0,0,0-0.001,0c-0.005,0-0.01,0-0.016,0.001l0,0c-0.001,0-0.003,0-0.004,0l0,0c-0.001,0-0.003,0-0.004,0l0,0
		c-0.002,0-0.003,0-0.004,0l0,0c-0.002,0-0.003,0-0.004,0l0,0c-0.006,0-0.011,0-0.017,0.001l0,0c-0.001,0-0.002,0-0.004,0l0,0
		c-0.001,0-0.002,0-0.004,0l0,0c-0.001,0-0.002,0-0.004,0l0,0c-0.001,0-0.003,0-0.004,0l0,0c-0.008,0-0.016,0.001-0.023,0.001l0,0
		c-0.002,0-0.003,0-0.004,0s0,0-0.001,0s-0.002,0-0.003,0c-0.001,0,0,0-0.001,0c-0.557,0.045-1.084,0.191-1.564,0.421l0.43,0.903
		C16.467,3.114,16.973,3,17.5,3V2L17.5,2L17.5,2z M14.007,3.663c-0.187,0.229-0.351,0.477-0.489,0.74l0,0
		c-0.003,0.006-0.007,0.012-0.01,0.018l0,0c-0.004,0.008-0.008,0.016-0.013,0.024l0,0c0,0.001-0.001,0.002-0.001,0.003l0,0
		c-0.001,0.001-0.001,0.002-0.002,0.003v0c-0.003,0.006-0.006,0.012-0.009,0.018c0,0,0,0,0,0c-0.001,0.001-0.001,0.002-0.002,0.003
		l0,0c-0.001,0.001-0.001,0.002-0.002,0.003l0,0c-0.002,0.005-0.005,0.01-0.007,0.015l0,0c-0.001,0.001-0.001,0.002-0.002,0.003v0
		c0,0.001-0.001,0.002-0.001,0.003h-0.001c0,0.001,0,0.002-0.001,0.003c0,0,0,0,0,0c-0.002,0.004-0.004,0.008-0.006,0.012l0,0
		c-0.001,0.001-0.001,0.002-0.002,0.003c0,0,0,0,0,0s-0.001,0.001-0.001,0.002v0c-0.001,0.001-0.001,0.002-0.002,0.002
		c0,0,0,0,0,0.001s-0.001,0.001-0.001,0.002l-0.001,0c-0.001,0.004-0.003,0.007-0.005,0.011c0,0,0,0-0.001,0.001
		c0,0,0,0.001-0.001,0.002c0,0,0,0.001,0,0.001c-0.001,0.001-0.001,0.001-0.001,0.002c0,0-0.001,0-0.001,0.001
		c0,0.001-0.001,0.001-0.001,0.002s0,0.001,0,0.001c-0.001,0-0.001,0.001-0.001,0.002c-0.001,0-0.001,0-0.001,0.001
		c-0.002,0.004-0.004,0.007-0.005,0.011c0,0-0.001,0-0.001,0.001s-0.001,0.001-0.001,0.002c0,0,0,0,0,0.001
		c-0.001,0-0.001,0.001-0.001,0.002c-0.001,0-0.001,0.001-0.001,0.001s-0.001,0.001-0.001,0.002c0,0,0,0-0.001,0.001
		c0,0,0,0.001-0.001,0.002c0,0,0,0.001,0,0.001c-0.001,0-0.001,0.001-0.001,0.002l0,0c-0.002,0.003-0.003,0.006-0.004,0.008
		c0,0-0.001,0.001-0.001,0.001s0,0.001-0.001,0.002c0,0,0,0.001,0,0.001c-0.001,0.001-0.001,0.001-0.001,0.002
		c-0.001,0-0.001,0.001-0.001,0.001s-0.001,0.001-0.001,0.002s0,0.001,0,0.001c-0.001,0-0.001,0.001-0.001,0.002
		c-0.001,0-0.001,0.001-0.001,0.001s-0.001,0.001-0.001,0.002l0,0c-0.001,0.003-0.003,0.006-0.004,0.008c0,0,0,0.001-0.001,0.001
		c0,0.001,0,0.001-0.001,0.002c0,0,0,0,0,0.001s-0.001,0.001-0.001,0.002s-0.001,0.001-0.001,0.001s0,0.001-0.001,0.002
		c0,0,0,0.001,0,0.001c-0.001,0-0.001,0.001-0.001,0.002c0,0-0.001,0-0.001,0.001c0,0.001,0,0.001-0.001,0.002l0,0
		c-0.001,0.002-0.002,0.003-0.002,0.005c-0.001,0-0.001,0-0.001,0c0,0.001,0,0.001-0.001,0.002c0,0,0,0,0,0.001
		c-0.001,0.001-0.001,0.001-0.001,0.002s-0.001,0.001-0.001,0.001s0,0.001-0.001,0.002c0,0,0,0.001,0,0.001
		c-0.001,0-0.001,0.001-0.001,0.002c-0.001,0-0.001,0.001-0.001,0.001s0,0.001-0.001,0.001c0,0.001,0,0.001-0.001,0.002
		c0,0,0,0.001,0,0.001c-0.001,0.001-0.001,0.001-0.001,0.002c-0.001,0.001-0.001,0.002-0.002,0.003c0,0,0,0.001,0,0.002
		c-0.001,0-0.001,0.001-0.001,0.001s-0.001,0.001-0.001,0.001c0,0.001,0,0.001-0.001,0.002c0,0,0,0.001,0,0.001
		C13.39,4.665,13.39,4.666,13.39,4.666s-0.001,0.001-0.001,0.001s0,0.001-0.001,0.002c0,0,0,0.001,0,0.001
		c-0.001,0-0.001,0.001-0.001,0.002c-0.001,0-0.001,0.001-0.001,0.001s-0.001,0.001-0.001,0.002c0,0,0,0,0,0.001
		c-0.001,0.001-0.001,0.002-0.002,0.004c0,0-0.001,0.001-0.001,0.001s0,0.001,0,0.001c-0.001,0-0.001,0.001-0.001,0.002
		c-0.001,0-0.001,0.001-0.001,0.001s-0.001,0.001-0.001,0.002s0,0.001-0.001,0.001c0,0,0,0.001,0,0.001
		c-0.001,0.001-0.001,0.001-0.001,0.002s-0.001,0.001-0.001,0.002s0,0.001-0.001,0.001c0,0,0,0.001-0.001,0.002c0,0,0,0.001,0,0.001
		c-0.001,0.001-0.001,0.002-0.002,0.003c0,0,0,0,0,0c0,0.001-0.001,0.002-0.001,0.003c0,0,0,0.001-0.001,0.001
		c0,0,0,0.001-0.001,0.002c0,0,0,0.001,0,0.001s-0.001,0.001-0.001,0.002s-0.001,0.001-0.001,0.002s0,0.001,0,0.001
		c-0.001,0-0.001,0.001-0.001,0.002c0,0-0.001,0.001-0.001,0.001s0,0.001-0.001,0.001c0,0.001,0,0.001-0.001,0.002
		c0,0,0,0.001,0,0.001c-0.001,0.001-0.001,0.002-0.001,0.003c-0.001,0-0.001,0.001-0.001,0.001S13.36,4.732,13.36,4.733
		c0,0-0.001,0.001-0.001,0.001c0,0.001,0,0.001-0.001,0.002c0,0,0,0,0,0.001c-0.001,0-0.001,0.001-0.001,0.002
		s-0.001,0.001-0.001,0.001s0,0.001-0.001,0.002c0,0,0,0.001,0,0.001c-0.001,0-0.001,0.001-0.001,0.002c0,0,0,0-0.001,0
		c0,0.001,0,0.002-0.001,0.003c0,0,0,0,0,0.001c-0.001,0.002-0.002,0.004-0.003,0.007v0c-0.001,0.001-0.001,0.002-0.002,0.003
		c0,0,0,0,0,0.001s-0.001,0.001-0.001,0.002c0,0,0,0-0.001,0.001c0,0.001,0,0.001-0.001,0.002c0,0,0,0,0,0.001
		c0,0.001-0.001,0.002-0.001,0.002s0,0-0.001,0.001c0,0.001,0,0.002-0.001,0.003v0c0,0.001-0.001,0.002-0.001,0.003
		c-0.001,0-0.001,0-0.001,0.001c0,0.001-0.001,0.002-0.001,0.003v0c-0.001,0.001-0.001,0.002-0.001,0.003
		c-0.001,0-0.001,0-0.001,0.001c0,0.001,0,0.001-0.001,0.002c0,0,0,0,0,0.001c-0.001,0.001-0.001,0.001-0.001,0.002
		s-0.001,0.001-0.001,0.002s0,0.001-0.001,0.002c0,0,0,0.001,0,0.001c-0.001,0.001-0.001,0.002-0.001,0.003l-0.001,0
		c0,0.001-0.001,0.002-0.001,0.003v0c-0.001,0.001-0.001,0.002-0.002,0.003c0,0,0,0.001,0,0.001s-0.001,0.001-0.001,0.002
		c0,0,0,0-0.001,0.001c0,0.001,0,0.001,0,0.002c-0.001,0.001-0.001,0.001-0.001,0.001c0,0.001-0.001,0.001-0.001,0.002V4.82
		c-0.001,0.001-0.001,0.001-0.001,0.002c0,0-0.001,0.001-0.001,0.001c0,0.001,0,0.002-0.001,0.003c0,0,0,0,0,0.001
		C13.32,4.829,13.32,4.83,13.319,4.831c0,0,0,0.001,0,0.001c0,0.001-0.001,0.001-0.001,0.002c0,0.001,0,0.001-0.001,0.002
		c0,0,0,0.001,0,0.001c-0.001,0-0.001,0.001-0.001,0.002s-0.001,0.001-0.001,0.002c0,0,0,0.001,0,0.001
		c-0.001,0-0.001,0.001-0.001,0.002c0,0-0.001,0.001-0.001,0.001s0,0.001-0.001,0.002v0c-0.001,0.001-0.001,0.002-0.001,0.003
		c0,0,0,0-0.001,0.001c0,0.001-0.001,0.002-0.001,0.003l0,0c0,0.001-0.001,0.002-0.001,0.003c-0.001,0-0.001,0.001-0.001,0.001
		s0,0.001-0.001,0.002c0,0,0,0.001,0,0.001c-0.001,0-0.001,0.001-0.001,0.002c0,0-0.001,0.001-0.001,0.001c0,0.001,0,0.001,0,0.002
		c-0.001,0-0.001,0.001-0.001,0.001c0,0.001-0.001,0.001-0.001,0.002s0,0.001,0,0.001c-0.001,0.001-0.001,0.001-0.001,0.002
		c-0.001,0-0.001,0-0.001,0.001c0,0.001,0,0.002-0.001,0.002c0,0.001,0,0.002-0.001,0.002c0,0,0,0.001-0.001,0.002
		c0,0,0,0.001,0,0.001c0,0.001-0.001,0.001-0.001,0.002c0,0.001,0,0.001-0.001,0.002c0,0,0,0.001,0,0.001s-0.001,0.001-0.001,0.002
		s0,0.001-0.001,0.001c0,0.001,0,0.001,0,0.002s-0.001,0.001-0.001,0.001c0,0.001,0,0.001-0.001,0.002c0,0,0,0.001,0,0.002
		c-0.001,0-0.001,0.001-0.001,0.001s0,0.001-0.001,0.002c0,0.001-0.001,0.002-0.001,0.003c0,0,0,0.001,0,0.001
		c-0.001,0-0.001,0.001-0.001,0.001c0,0.001-0.001,0.001-0.001,0.002s0,0.001-0.001,0.002c0,0,0,0.001,0,0.001
		s-0.001,0.001-0.001,0.002c0,0,0,0.001,0,0.001c-0.001,0-0.001,0.001-0.001,0.002c0,0-0.001,0.001-0.001,0.001s0,0.001-0.001,0.002
		c0,0,0,0.001,0,0.001s-0.001,0.001-0.001,0.002c0,0,0,0.001,0,0.001c-0.001,0.001-0.001,0.003-0.002,0.004c0,0,0,0.001,0,0.001
		c-0.001,0.001-0.001,0.001-0.001,0.002c0,0,0,0.001-0.001,0.001c0,0.001,0,0.002-0.001,0.002c0,0,0,0,0,0.001
		c0,0.001,0,0.001-0.001,0.002c0,0,0,0,0,0.001c0,0.001-0.001,0.002-0.001,0.002s0,0,0,0.001c-0.001,0.001-0.001,0.001-0.001,0.002
		c0,0-0.001,0-0.001,0.001c-0.001,0.003-0.003,0.007-0.004,0.011c0,0,0,0.001,0,0.001c-0.001,0.001-0.001,0.002-0.001,0.002
		s0,0-0.001,0.001c0,0,0,0.002,0,0.002c-0.001,0-0.001,0-0.001,0.001c0,0.001,0,0.001-0.001,0.002c0,0,0,0,0,0
		c0,0.001-0.001,0.002-0.001,0.003c0,0,0,0,0,0c-0.002,0.004-0.003,0.008-0.005,0.012v0c0,0.001,0,0.002-0.001,0.003c0,0,0,0,0,0
		s-0.001,0.002-0.001,0.003c0,0,0,0,0,0C13.256,5,13.256,5,13.256,5.001l0,0c-0.001,0.001-0.001,0.002-0.001,0.003l-0.001,0
		c-0.001,0.004-0.003,0.008-0.004,0.013l0,0c0,0.001-0.001,0.002-0.001,0.003v0c-0.001,0.001-0.001,0.002-0.001,0.003
		c0,0,0,0-0.001,0c0,0.001,0,0.002-0.001,0.003l0,0c-0.002,0.008-0.005,0.015-0.008,0.023l0,0c-0.043,0.127-0.081,0.258-0.113,0.39
		l0.973,0.234c0.121-0.501,0.357-0.979,0.685-1.381L14.007,3.663L14.007,3.663z M14.074,7.22l-0.979,0.205
		c0.14,0.667,0.427,1.28,0.826,1.803l0.795-0.606C14.396,8.203,14.181,7.731,14.074,7.22L14.074,7.22z M15.898,9.613l-0.458,0.889
		c0.095,0.049,0.192,0.095,0.291,0.137l0,0c0.009,0.004,0.019,0.008,0.027,0.012h0.001c0.001,0,0.002,0.001,0.003,0.001l0,0
		c0.001,0,0.002,0.001,0.004,0.001l0,0c0.005,0.002,0.009,0.004,0.014,0.006c0,0,0,0,0.001,0c0.001,0,0.002,0,0.003,0.001v0
		c0.001,0,0.002,0,0.003,0.001c0.001,0,0.001,0,0.001,0c0.001,0,0.002,0,0.003,0.001c0,0,0,0,0.001,0c0,0,0.001,0,0.002,0.001
		c0,0,0.001,0,0.001,0c0.001,0,0.002,0,0.003,0.001h0.001c0.001,0,0.002,0.001,0.003,0.001l0,0c0.003,0.001,0.005,0.002,0.007,0.003
		h0.001c0.001,0,0.002,0.001,0.003,0.001c0,0,0,0,0.001,0c0,0,0.001,0,0.002,0.001c0.001,0,0.001,0,0.001,0
		c0.001,0,0.002,0,0.003,0.001c0,0,0,0,0.001,0c0.001,0,0.001,0,0.002,0c0.001,0,0.001,0,0.001,0c0.001,0,0.002,0.001,0.003,0.001
		c0,0,0.001,0,0.001,0c0.001,0,0.001,0,0.002,0.001c0,0,0.001,0,0.002,0c0,0,0.001,0,0.001,0.001c0.001,0,0.002,0,0.003,0
		c0.001,0,0.001,0.001,0.002,0.001c0.001,0,0.001,0,0.001,0c0.001,0,0.002,0.001,0.003,0.001c0,0,0.001,0,0.001,0
		c0.001,0,0.002,0,0.002,0.001c0.001,0,0.001,0,0.002,0c0.001,0,0.001,0,0.002,0.001l0.001,0c0.001,0,0.002,0,0.003,0.001
		c0,0,0,0,0.001,0c0,0,0.001,0,0.002,0c0,0,0.001,0,0.001,0.001c0.001,0,0.002,0,0.002,0c0.001,0,0.001,0,0.002,0
		c0,0,0.001,0,0.001,0c0.001,0,0.002,0,0.002,0.001c0.001,0,0.001,0,0.001,0c0.002,0.001,0.003,0.001,0.005,0.002h0.001
		c0.001,0,0.002,0,0.002,0.001c0.001,0,0.001,0,0.001,0c0.001,0,0.002,0,0.003,0.001c0,0,0.001,0,0.001,0c0.001,0,0.001,0,0.002,0
		c0.001,0,0.001,0,0.001,0c0.001,0,0.002,0,0.003,0.001c0,0,0,0,0.001,0c0.001,0,0.001,0,0.002,0.001h0.001
		c0.001,0,0.002,0.001,0.003,0.001l0,0c0.004,0.002,0.008,0.003,0.012,0.005c0,0,0.001,0,0.001,0c0.001,0,0.002,0,0.002,0
		c0.001,0,0.001,0,0.001,0c0.001,0,0.002,0,0.003,0.001c0,0,0,0,0.001,0c0.001,0,0.001,0,0.002,0.001c0.001,0,0.001,0,0.001,0
		c0.001,0,0.002,0,0.003,0.001c0,0,0,0,0.001,0c0,0,0.001,0,0.002,0.001l0,0c0.005,0.001,0.009,0.003,0.013,0.005l0,0
		c0.001,0,0.002,0,0.003,0.001h0.001c0.001,0,0.002,0.001,0.003,0.001v0c0.001,0,0.002,0,0.003,0.001h0.001
		c0.001,0,0.002,0.001,0.002,0.001c0.001,0,0.001,0,0.001,0c0.001,0,0.002,0,0.003,0.001l0,0c0.006,0.002,0.011,0.004,0.016,0.006
		c0,0,0,0,0.001,0c0.001,0,0.001,0,0.002,0.001c0.001,0,0.001,0,0.001,0c0.001,0,0.002,0,0.003,0.001l0,0
		c0.001,0,0.002,0,0.003,0.001h0.001c0.027,0.01,0.056,0.02,0.084,0.03l0,0c0.411,0.139,0.85,0.22,1.305,0.234l0.03-1
		C16.865,9.982,16.363,9.853,15.898,9.613L15.898,9.613z M20.148,8.789c-0.34,0.393-0.77,0.71-1.242,0.917l0.402,0.916
		c0.182-0.08,0.356-0.171,0.524-0.273l0,0c0.008-0.005,0.016-0.009,0.023-0.014l0,0c0.001,0,0.002-0.001,0.003-0.002l0,0
		c0.001,0,0.002-0.001,0.003-0.001v0c0.005-0.002,0.01-0.005,0.014-0.008c0.001,0,0.001,0,0.001,0c0.001,0,0.001-0.001,0.002-0.001
		l0.001,0c0.001,0,0.001-0.001,0.002-0.001c0.001,0,0.001,0,0.001,0c0.001,0,0.002-0.001,0.002-0.001c0.001,0,0.001,0,0.001-0.001
		c0.004-0.002,0.007-0.004,0.011-0.006c0,0,0,0,0.001,0c0,0,0.001-0.001,0.002-0.001c0,0,0,0,0.001-0.001c0,0,0.001,0,0.002-0.001
		c0,0,0,0,0.001-0.001c0,0,0.001,0,0.002-0.001c0,0,0.001,0,0.001-0.001c0.001,0,0.001,0,0.002-0.001c0,0,0.001,0,0.001-0.001
		c0.001,0,0.001,0,0.002-0.001c0,0,0,0,0.001,0c0.001-0.001,0.002-0.001,0.004-0.002c0,0,0.001,0,0.001-0.001
		c0.001,0,0.001,0,0.002-0.001c0,0,0.001,0,0.001-0.001c0.001,0,0.001,0,0.002-0.001c0,0,0.001,0,0.002-0.001c0,0,0,0,0.001-0.001
		c0,0,0.001,0,0.002-0.001c0,0,0.001,0,0.001-0.001c0.001,0,0.001-0.001,0.002-0.001c0,0,0.001,0,0.001-0.001
		c0.001,0,0.002-0.001,0.003-0.001c0,0,0,0,0,0c0.001,0,0.003-0.001,0.004-0.002v0c0.001,0,0.002-0.001,0.003-0.001
		c0,0,0.001,0,0.001-0.001c0.001,0,0.001,0,0.002-0.001c0,0,0.001-0.001,0.001-0.001c0.001,0,0.001-0.001,0.002-0.001
		c0,0,0.001,0,0.001-0.001c0.001,0,0.002-0.001,0.002-0.001c0.001,0,0.001,0,0.001,0c0.001,0,0.002-0.001,0.003-0.001
		c0,0,0,0,0.001,0c0.001-0.001,0.002-0.001,0.002-0.002c0.001,0,0.001,0,0.001,0c0.001,0,0.002-0.001,0.003-0.002
		c0,0,0.001,0,0.001,0c0.001,0,0.001-0.001,0.002-0.001c0.001,0,0.001,0,0.001,0c0.001,0,0.002-0.001,0.002-0.001
		c0.001,0,0.001,0,0.001,0c0.001,0,0.002-0.001,0.002-0.001c0.001,0,0.001,0,0.002,0c0,0,0.001-0.001,0.002-0.002c0,0,0,0,0.001,0
		s0.002-0.001,0.003-0.001c0,0,0,0,0,0c0.002-0.001,0.004-0.002,0.006-0.004c0.001,0,0.001,0,0.001,0
		c0.001,0,0.002-0.001,0.003-0.002c0,0,0,0,0,0c0.001,0,0.002-0.001,0.003-0.001c0,0,0,0,0.001,0c0,0,0.001-0.001,0.002-0.002
		c0,0,0,0,0.001,0c0.001,0,0.002-0.001,0.003-0.002l0,0c0.004-0.003,0.009-0.006,0.013-0.009l0,0
		c0.021-0.015,0.043-0.029,0.064-0.044c0,0,0,0,0,0c0.111-0.077,0.219-0.16,0.321-0.247l0,0c0.006-0.005,0.012-0.01,0.019-0.015l0,0
		c0.001,0,0.002-0.001,0.003-0.002l0,0c0.001-0.001,0.002-0.001,0.003-0.002l0,0c0.004-0.003,0.008-0.007,0.012-0.01l0,0
		c0.007-0.006,0.014-0.012,0.021-0.018l0,0c0.001-0.001,0.002-0.002,0.003-0.002c0,0,0,0,0,0c0.004-0.003,0.008-0.006,0.012-0.01
		c0,0,0,0,0,0c0.001,0,0.002-0.001,0.003-0.002c0,0,0,0,0,0c0.001-0.001,0.002-0.001,0.003-0.002c0,0,0,0,0-0.001
		c0.001,0,0.002-0.001,0.003-0.002l0,0c0.001-0.001,0.002-0.001,0.003-0.002c0,0,0,0,0,0c0.003-0.002,0.006-0.005,0.009-0.007l0,0
		c0.001-0.001,0.002-0.002,0.003-0.002c0,0,0,0,0,0c0.001-0.001,0.002-0.001,0.003-0.002l0,0c0.001-0.001,0.002-0.001,0.003-0.002
		l0,0c0.003-0.003,0.006-0.005,0.009-0.008l0,0c0.001-0.001,0.002-0.002,0.003-0.002c0,0,0,0,0,0c0.001,0,0.002-0.001,0.002-0.002
		c0.001,0,0.001,0,0.001,0c0.001-0.001,0.001-0.001,0.002-0.002c0,0,0.001,0,0.001-0.001c0.001,0,0.001-0.001,0.002-0.002
		c0,0,0,0,0.001,0c0.003-0.002,0.005-0.005,0.008-0.007c0,0,0.001,0,0.001,0c0-0.001,0.001-0.001,0.002-0.002c0,0,0,0,0.001,0
		c0-0.001,0.001-0.001,0.002-0.002c0,0,0,0,0.001,0c0,0,0.001-0.001,0.002-0.002v0c0.001,0,0.002-0.001,0.003-0.002v0
		c0.002-0.002,0.004-0.003,0.006-0.005c0,0,0,0,0.001,0c0,0,0.001-0.001,0.002-0.002c0,0,0,0,0.001,0c0,0,0.001-0.001,0.001-0.002
		c0.001,0,0.001,0,0.002-0.001c0,0,0.001-0.001,0.001-0.001c0,0,0.001,0,0.001-0.001c0.001,0,0.001-0.001,0.002-0.001
		c0,0,0.001,0,0.001-0.001c0.001,0,0.001-0.001,0.002-0.002l0.001,0c0.001-0.001,0.002-0.001,0.002-0.002
		c0.001,0,0.001,0,0.002-0.001c0,0,0.001-0.001,0.001-0.001c0.001,0,0.001-0.001,0.001-0.001c0.001,0,0.002-0.001,0.002-0.001
		s0.001-0.001,0.001-0.001c0.001,0,0.001-0.001,0.002-0.002l0.001,0c0,0,0.001-0.001,0.002-0.002c0,0,0,0,0.001-0.001
		c0,0,0.001-0.001,0.001-0.001c0.001,0,0.001,0,0.001-0.001c0.002-0.001,0.004-0.003,0.006-0.005c0,0,0.001,0,0.001-0.001
		s0.001-0.001,0.002-0.001c0,0,0-0.001,0.001-0.001c0,0,0.001-0.001,0.001-0.001c0.001,0,0.001-0.001,0.001-0.001
		c0.001,0,0.002-0.001,0.002-0.002c0.001,0,0.001,0,0.001,0c0.001-0.001,0.001-0.001,0.002-0.002c0,0,0.001,0,0.001-0.001
		s0.001-0.001,0.002-0.001c0,0,0,0,0.001-0.001c0.001-0.001,0.002-0.001,0.002-0.002c0.001,0,0.001,0,0.001,0
		c0.001,0,0.001-0.001,0.002-0.002c0,0,0.001,0,0.001-0.001c0.001,0,0.001-0.001,0.002-0.001c0,0,0.001-0.001,0.001-0.001
		c0,0,0.001-0.001,0.001-0.001c0.001,0,0.001-0.001,0.002-0.001c0,0,0.001-0.001,0.001-0.001c0.001,0,0.001,0,0.001-0.001
		c0.001,0,0.002-0.001,0.002-0.001s0.001-0.001,0.001-0.001c0.001,0,0.002-0.001,0.002-0.002c0.001,0,0.001-0.001,0.001-0.001
		c0.001-0.001,0.002-0.001,0.002-0.002c0.001,0,0.001-0.001,0.002-0.001c0,0,0.001-0.001,0.001-0.001
		c0.001,0,0.001-0.001,0.001-0.001c0.001,0,0.001-0.001,0.002-0.001c0,0,0.001,0,0.001-0.001c0.001,0,0.001-0.001,0.002-0.001
		c0,0,0-0.001,0.001-0.001c0,0,0.001-0.001,0.001-0.001c0.001,0,0.001-0.001,0.002-0.001c0,0,0,0,0.001-0.001
		c0,0,0.001-0.001,0.001-0.001c0.001,0,0.001,0,0.001-0.001c0.001-0.001,0.002-0.001,0.003-0.002c0,0,0.001-0.001,0.001-0.001
		c0.001,0,0.001-0.001,0.002-0.001c0,0,0.001-0.001,0.001-0.001c0.001,0,0.001-0.001,0.001-0.001c0.001,0,0.001,0,0.002-0.001
		c0,0,0.001-0.001,0.001-0.001c0.001,0,0.001-0.001,0.001-0.001c0.001,0,0.001-0.001,0.002-0.001c0,0,0.001-0.001,0.001-0.001
		c0.001,0,0.001,0,0.001-0.001c0.001,0,0.001,0,0.001-0.001c0.002-0.001,0.003-0.002,0.004-0.003c0,0,0,0,0.001,0
		c0,0,0.001-0.001,0.001-0.001s0.001-0.001,0.001-0.001c0.001,0,0.001-0.001,0.002-0.001c0,0,0-0.001,0.001-0.001
		c0-0.001,0.001-0.001,0.001-0.002c0.001,0,0.001,0,0.001-0.001c0.001,0,0.002-0.001,0.002-0.001s0.001,0,0.001-0.001
		c0.001,0,0.001-0.001,0.002-0.001c0,0,0-0.001,0.001-0.001c0.002-0.002,0.004-0.004,0.006-0.006v0c0.001,0,0.001-0.001,0.002-0.001
		c0,0,0.001-0.001,0.001-0.001c0,0,0.001-0.001,0.001-0.001c0.001,0,0.001-0.001,0.001-0.001c0.001,0,0.001,0,0.002-0.001
		c0,0,0.001,0,0.001-0.001c0.001,0,0.001-0.001,0.002-0.001c0,0,0,0,0.001-0.001c0,0,0.001-0.001,0.001-0.001
		c0.001,0,0.001-0.001,0.002-0.001c0.001-0.001,0.002-0.002,0.002-0.002c0.001,0,0.001-0.001,0.001-0.001
		c0.001,0,0.001-0.001,0.002-0.001c0,0,0.001-0.001,0.001-0.001c0,0,0.001-0.001,0.002-0.002v0c0.001-0.001,0.002-0.001,0.002-0.002
		s0.001,0,0.001-0.001c0.001,0,0.001-0.001,0.002-0.001c0,0,0,0,0.001-0.001c0,0,0.001-0.001,0.001-0.001
		c0.001,0,0.001,0,0.001-0.001c0.002-0.002,0.004-0.004,0.006-0.006c0,0,0.001,0,0.001,0c0-0.001,0.001-0.001,0.002-0.002
		c0,0,0,0,0-0.001c0.001,0,0.002-0.001,0.002-0.001s0.001,0,0.001-0.001c0.001,0,0.001-0.001,0.002-0.001c0,0,0,0,0-0.001
		c0.001,0,0.002-0.001,0.002-0.002l0.001,0c0.001,0,0.001-0.001,0.002-0.002l0,0c0.002-0.002,0.004-0.004,0.007-0.007v0
		c0.001,0,0.001-0.001,0.002-0.002c0,0,0,0,0.001,0c0,0,0.001-0.001,0.002-0.002v0c0.001-0.001,0.002-0.001,0.002-0.002l0,0
		c0.004-0.004,0.008-0.008,0.012-0.012c0,0,0,0,0,0c0.001,0,0.002-0.001,0.003-0.002v0c0,0,0.001-0.001,0.002-0.002v0
		c0.001-0.001,0.002-0.001,0.002-0.002l0.001,0c0.003-0.003,0.006-0.006,0.009-0.009c0,0,0,0,0,0c0.001,0,0.001-0.001,0.002-0.002
		c0,0,0,0,0.001,0c0,0,0.001-0.001,0.002-0.002v0c0.001,0,0.001-0.001,0.002-0.002v0c0.005-0.005,0.01-0.01,0.014-0.014c0,0,0,0,0,0
		c0.001,0,0.002-0.001,0.003-0.002l0,0c0.001,0,0.001-0.001,0.002-0.002l0,0c0.016-0.016,0.03-0.033,0.046-0.049l0,0
		c0.006-0.007,0.012-0.013,0.018-0.02h0.001c0.006-0.007,0.012-0.014,0.018-0.021l0,0c0.013-0.014,0.024-0.028,0.037-0.042
		L20.148,8.789L20.148,8.789z M21.932,5.712l-0.985,0.174C20.982,6.087,21,6.293,21,6.5c0,0.316-0.042,0.628-0.124,0.929
		l0.964,0.265c0.019-0.066,0.035-0.134,0.051-0.202l0,0c0-0.001,0-0.003,0.001-0.004c0,0,0,0,0,0c0-0.003,0.001-0.006,0.002-0.009
		c0,0,0,0,0,0c0-0.001,0.001-0.002,0.001-0.004c0,0,0,0,0,0c0.001-0.003,0.001-0.006,0.002-0.009l0,0
		c0-0.001,0.001-0.003,0.001-0.004c0,0,0,0,0-0.001c0-0.001,0.001-0.002,0.001-0.004v0c0-0.001,0.001-0.002,0.001-0.004
		c0,0,0,0,0-0.001c0-0.001,0.001-0.002,0.001-0.003c0,0,0-0.001,0-0.001c0-0.001,0.001-0.002,0.001-0.003c0,0,0,0,0-0.001
		c0-0.001,0.001-0.002,0.001-0.004c0,0,0,0,0-0.001c0-0.001,0.001-0.002,0.001-0.003c0,0,0,0,0-0.001
		c0-0.001,0.001-0.002,0.001-0.003c0,0,0,0,0-0.001c0-0.001,0.001-0.002,0.001-0.004c0,0,0-0.001,0-0.001
		c0-0.001,0.001-0.002,0.001-0.003c0,0,0-0.001,0-0.001c0-0.001,0-0.002,0.001-0.003V7.414c0-0.001,0-0.002,0.001-0.004
		c0,0,0-0.001,0-0.001c0-0.001,0-0.002,0.001-0.002c0-0.001,0-0.001,0-0.002c0-0.001,0-0.001,0-0.002
		c0.001,0,0.001-0.001,0.001-0.001c0-0.001,0-0.002,0.001-0.004c0,0,0-0.001,0-0.002c0,0,0-0.001,0-0.002
		c0.001-0.001,0.001-0.001,0.001-0.002c0-0.001,0-0.001,0-0.002c0,0,0-0.001,0.001-0.002c0-0.001,0-0.002,0-0.003
		c0.001,0,0.001-0.001,0.001-0.002c0,0,0-0.001,0-0.002c0-0.001,0-0.001,0.001-0.002c0,0,0-0.001,0-0.002c0,0,0-0.001,0-0.002
		c0.001,0,0.001-0.001,0.001-0.001c0-0.001,0-0.003,0.001-0.004c0,0,0-0.001,0-0.001c0-0.001,0-0.001,0-0.002
		c0.001,0,0.001-0.001,0.001-0.001c0-0.001,0-0.002,0-0.002c0-0.001,0-0.001,0.001-0.002c0-0.001,0-0.002,0-0.004
		c0,0,0.001-0.001,0.001-0.002c0,0,0-0.001,0-0.002s0-0.001,0-0.001c0.001-0.001,0.001-0.002,0.001-0.002s0,0,0-0.001
		c0-0.002,0.001-0.003,0.001-0.005c0,0,0-0.001,0-0.001c0-0.001,0.001-0.002,0.001-0.003c0,0,0,0,0-0.001
		c0.001-0.003,0.001-0.006,0.002-0.009c0,0,0-0.001,0-0.001s0-0.001,0-0.002c0.001,0,0.001-0.001,0.001-0.001
		c0-0.003,0.001-0.006,0.001-0.009c0,0,0,0,0.001-0.001c0-0.001,0-0.002,0-0.003v0c0.001-0.003,0.001-0.006,0.002-0.009
		c0,0,0,0,0-0.001c0-0.001,0-0.002,0.001-0.003c0,0,0,0,0,0c0-0.003,0.001-0.007,0.001-0.01c0.001,0,0.001,0,0.001,0
		c0-0.001,0-0.002,0-0.003c0,0,0,0,0,0c0.001-0.003,0.001-0.006,0.002-0.01c0,0,0,0,0,0c0-0.001,0-0.002,0.001-0.003v0
		c0-0.004,0.001-0.009,0.002-0.014l0,0c0.001-0.003,0.001-0.007,0.002-0.01l0,0c0-0.001,0-0.002,0-0.003v0
		c0.001-0.003,0.002-0.006,0.002-0.01l0,0c0-0.001,0.001-0.002,0.001-0.003l0,0c0-0.003,0.001-0.007,0.001-0.01l0,0
		c0.001-0.001,0.001-0.002,0.001-0.003v0c0.001-0.004,0.002-0.009,0.002-0.014l0,0c0.007-0.042,0.013-0.084,0.018-0.126l0,0
		c0.003-0.019,0.005-0.038,0.007-0.057l0,0c0.001-0.009,0.003-0.019,0.004-0.028l0,0c0-0.005,0.001-0.009,0.001-0.014c0,0,0,0,0,0
		c0-0.001,0-0.002,0-0.003c0,0,0,0,0,0c0.001-0.003,0.001-0.006,0.002-0.01c0,0,0,0,0,0c0-0.001,0-0.002,0-0.003l0,0
		c0-0.003,0.001-0.007,0.001-0.011l0,0c0-0.001,0-0.002,0-0.003l0,0c0.001-0.003,0.001-0.007,0.001-0.01c0,0,0,0,0-0.001
		c0.001-0.001,0.001-0.002,0.001-0.003l0,0c0-0.003,0-0.007,0.001-0.011c0,0,0,0,0,0c0-0.001,0-0.002,0-0.003c0,0,0,0,0,0
		c0-0.003,0.001-0.007,0.001-0.01c0,0,0,0,0-0.001c0-0.001,0-0.002,0-0.003c0,0,0,0,0,0c0.001-0.003,0.001-0.007,0.001-0.01v0
		c0-0.001,0.001-0.002,0.001-0.003l0,0c0-0.003,0-0.007,0-0.01c0.001,0,0.001,0,0.001,0c0-0.001,0-0.002,0-0.003v0
		c0-0.003,0-0.006,0.001-0.01c0,0,0,0,0-0.001c0-0.001,0-0.002,0-0.003c0,0,0,0,0-0.001c0-0.003,0.001-0.006,0.001-0.009
		c0,0,0,0,0-0.001c0-0.001,0-0.002,0-0.003c0,0,0,0,0-0.001c0-0.003,0.001-0.006,0.001-0.009c0,0,0,0,0-0.001
		c0-0.001,0-0.002,0-0.003c0,0,0,0,0-0.001c0-0.003,0.001-0.006,0.001-0.009c0,0,0-0.001,0-0.001c0-0.001,0-0.002,0-0.003
		s0-0.001,0-0.001c0-0.003,0.001-0.006,0.001-0.01c0,0,0,0,0-0.001c0-0.001,0-0.002,0-0.002s0-0.001,0-0.002
		c0-0.002,0.001-0.005,0.001-0.008c0,0,0-0.001,0-0.002c0-0.001,0-0.001,0-0.002c0-0.001,0-0.001,0-0.002
		c0-0.003,0.001-0.006,0.001-0.009c0,0,0-0.001,0-0.001s0-0.001,0-0.002c0,0,0-0.001,0-0.001c0-0.001,0-0.002,0-0.002
		c0-0.001,0-0.002,0-0.004c0,0,0.001-0.001,0.001-0.002c0-0.001,0-0.001,0-0.002c0,0,0-0.001,0-0.002c0,0,0-0.001,0-0.002
		c0-0.001,0-0.001,0-0.002s0-0.002,0-0.003s0-0.001,0-0.002c0-0.001,0-0.001,0-0.002c0.001-0.001,0.001-0.001,0.001-0.002
		c0-0.001,0-0.001,0-0.002c0,0,0-0.001,0-0.002c0-0.001,0-0.002,0-0.004c0,0,0-0.001,0-0.002c0,0,0-0.001,0-0.002
		c0-0.001,0-0.001,0-0.002c0,0,0-0.001,0-0.002c0-0.001,0.001-0.001,0.001-0.002c0-0.001,0-0.003,0-0.004s0-0.001,0-0.002
		c0,0,0-0.001,0-0.002c0,0,0-0.001,0-0.002c0-0.001,0-0.001,0-0.002c0,0,0-0.001,0-0.002s0-0.002,0-0.004c0,0,0-0.001,0-0.002
		c0.001,0,0.001-0.001,0.001-0.002c0-0.001,0-0.001,0-0.002c0,0,0-0.001,0-0.002s0-0.001,0-0.002s0-0.002,0-0.003
		c0,0,0-0.001,0-0.002c0-0.001,0-0.001,0-0.002c0,0,0-0.001,0-0.002c0-0.001,0-0.001,0-0.002c0,0,0-0.001,0-0.002
		c0.001-0.001,0.001-0.002,0.001-0.004c0,0,0-0.001,0-0.002s0-0.001,0-0.002c0-0.001,0-0.001,0-0.002c0,0,0-0.001,0-0.002
		c0-0.001,0-0.001,0-0.002s0-0.002,0-0.003s0-0.002,0-0.002c0-0.001,0-0.001,0-0.002c0,0,0-0.001,0-0.002c0-0.001,0-0.001,0-0.002
		c0,0,0.001-0.001,0.001-0.002c0-0.001,0-0.002,0-0.004c0,0,0-0.001,0-0.001c0-0.001,0-0.002,0-0.003c0,0,0-0.001,0-0.001
		c0-0.001,0-0.002,0-0.003c0,0,0-0.001,0-0.001c0-0.001,0-0.003,0-0.004c0,0,0,0,0-0.001c0-0.001,0-0.002,0-0.003
		c0,0,0-0.001,0-0.002c0-0.001,0-0.002,0-0.003c0,0,0-0.001,0-0.001c0-0.001,0-0.002,0-0.004c0.001,0,0.001-0.001,0.001-0.001
		c0-0.001,0-0.002,0-0.003c0,0,0-0.001,0-0.001c0-0.001,0-0.002,0-0.003c0,0,0,0,0-0.001c0-0.001,0-0.003,0-0.004c0,0,0,0,0,0
		c0-0.001,0-0.002,0-0.004c0,0,0-0.001,0-0.001c0-0.001,0-0.002,0-0.003c0,0,0-0.001,0-0.001c0-0.001,0-0.003,0-0.004
		c0,0,0,0,0-0.001c0-0.001,0-0.002,0-0.003c0,0,0-0.001,0-0.002c0-0.001,0-0.001,0-0.002c0,0,0-0.001,0-0.002
		c0-0.001,0-0.002,0-0.004c0,0,0-0.001,0-0.001c0-0.001,0-0.002,0-0.003c0,0,0-0.001,0.001-0.001c0-0.001,0-0.002,0-0.003
		c0,0,0-0.001,0-0.001c0-0.001,0-0.003,0-0.004c0,0,0,0,0,0c0-0.001,0-0.002,0-0.004c0,0,0-0.001,0-0.001c0-0.001,0-0.002,0-0.003
		c0,0,0-0.001,0-0.001c0-0.001,0-0.003,0-0.004l0,0c0-0.001,0-0.003,0-0.004c0,0,0,0,0-0.001c0-0.001,0-0.002,0-0.003
		c0,0,0-0.001,0-0.001c0-0.001,0-0.003,0-0.004v0c0-0.001,0-0.002,0-0.004c0,0,0-0.001,0-0.001c0-0.001,0-0.002,0-0.003
		s0-0.001,0-0.001c0-0.003,0-0.006,0-0.009c0,0,0-0.001,0-0.001c0-0.001,0-0.002,0-0.003c0,0,0-0.001,0-0.001
		c0-0.001,0-0.003,0-0.004l0,0c0-0.002,0-0.004,0-0.006c0,0,0,0,0-0.001c0-0.001,0-0.003,0-0.005c0,0,0,0,0-0.001
		c0-0.002,0-0.003,0-0.005c0,0,0,0,0-0.001c0-0.001,0-0.003,0-0.005c0,0,0,0,0,0c0-0.002,0-0.003,0-0.005c0,0,0-0.001,0-0.001
		c0-0.002,0-0.004,0-0.005c0,0,0-0.001,0-0.001c0-0.001,0-0.003,0-0.005v0c0-0.002,0-0.003,0-0.005c0,0,0,0,0-0.001
		c0-0.001,0-0.003,0-0.005c0,0,0,0,0-0.001c0-0.002,0-0.003,0-0.005c0,0,0,0,0-0.001c0-0.002-0.001-0.003-0.001-0.005
		c0,0,0,0,0-0.001c0-0.001,0-0.003,0-0.005c0,0,0-0.001,0-0.001c0-0.001,0-0.003,0-0.005c0,0,0-0.001,0-0.001
		c0-0.001,0-0.003,0-0.005c0,0,0-0.001,0-0.001c0-0.001,0-0.003,0-0.005c0,0,0,0,0-0.001c0-0.001,0-0.003,0-0.005
		c0,0,0-0.001,0-0.001c0-0.001,0-0.003,0-0.005c0,0,0-0.001,0-0.002c0-0.001,0-0.003,0-0.005c0,0,0,0,0-0.001
		c0-0.001-0.001-0.003-0.001-0.004c0,0,0-0.001,0-0.001c0-0.001,0-0.003,0-0.005c0,0,0-0.001,0-0.002c0-0.001,0-0.003,0-0.004
		c0-0.001,0-0.001,0-0.002c0-0.001,0-0.003,0-0.004c0,0,0-0.001,0-0.002c0-0.001,0-0.002,0-0.004c0,0,0-0.001,0-0.002
		c0-0.001,0-0.003,0-0.004c-0.001,0-0.001-0.001-0.001-0.002c0-0.001,0-0.003,0-0.004c0,0,0-0.001,0-0.002s0-0.002,0-0.003
		c0-0.001,0-0.002,0-0.003c0-0.001,0-0.002,0-0.003s0-0.001,0-0.002c0-0.001,0-0.002,0-0.004c0-0.001,0-0.002,0-0.002
		c-0.001-0.001-0.001-0.002-0.001-0.003s0-0.002,0-0.003s0-0.001,0-0.002c0-0.001,0-0.003,0-0.004c0,0,0-0.001,0-0.002
		c0-0.001,0-0.002,0-0.003c0-0.001,0-0.002,0-0.004c0-0.001-0.001-0.002-0.001-0.003s0-0.001,0-0.002c0-0.001,0-0.003,0-0.004
		c0,0,0-0.001,0-0.002c0-0.001,0-0.003,0-0.004c0-0.001,0-0.001,0-0.002s0-0.002,0-0.003c0,0-0.001-0.001-0.001-0.002
		c0-0.002,0-0.003,0-0.005c0,0,0-0.001,0-0.002c0-0.001,0-0.003,0-0.004c0,0,0-0.001,0-0.002c0-0.002,0-0.003,0-0.005
		c-0.001,0-0.001-0.001-0.001-0.001c0-0.001,0-0.002,0-0.003c0,0,0-0.001,0-0.001c0-0.002,0-0.003,0-0.005c0,0,0-0.001,0-0.001
		c0-0.002,0-0.003-0.001-0.005c0,0,0-0.001,0-0.001c0-0.003,0-0.007,0-0.01c0,0,0,0,0,0c0-0.002-0.001-0.004-0.001-0.006
		c0,0,0,0,0-0.001c0-0.002,0-0.004,0-0.006c0,0,0,0,0,0c0-0.003-0.001-0.007-0.001-0.011l0,0c-0.008-0.122-0.021-0.242-0.038-0.361
		v0c0-0.002,0-0.004-0.001-0.006v0c0-0.002-0.001-0.004-0.001-0.006c0,0,0-0.001,0-0.001c0-0.001,0-0.002,0-0.003l-0.001,0
		c0-0.002,0-0.004,0-0.006c-0.001-0.001-0.001-0.001-0.001-0.002c0-0.001,0-0.003,0-0.004c-0.001,0-0.001-0.001-0.001-0.002
		c0-0.001,0-0.003,0-0.004c-0.001-0.001-0.001-0.002-0.001-0.003s0-0.001,0-0.002c0-0.001-0.001-0.002-0.001-0.004
		c0,0,0-0.001,0-0.002s-0.001-0.002-0.001-0.003s0-0.002,0-0.003s-0.001-0.002-0.001-0.003c0,0,0-0.001,0-0.002
		c0-0.001-0.001-0.003-0.001-0.004c0,0,0-0.001,0-0.002c0-0.001-0.001-0.003-0.001-0.005c0,0,0,0,0-0.001
		c0-0.001-0.001-0.003-0.001-0.004c0,0,0,0,0-0.001c0-0.002-0.001-0.003-0.001-0.005c0,0,0,0,0-0.001
		c0-0.001-0.001-0.003-0.001-0.005c0,0,0,0,0,0c-0.001-0.006-0.002-0.012-0.003-0.018l0,0C21.935,5.728,21.933,5.72,21.932,5.712
		L21.932,5.712z M19.682,2.563l-0.485,0.874c0.452,0.251,0.851,0.607,1.152,1.028l0.813-0.582c-0.12-0.167-0.251-0.326-0.392-0.476
		c0,0,0,0-0.001,0c-0.004-0.005-0.009-0.01-0.013-0.014l0,0c-0.001-0.001-0.002-0.002-0.003-0.003l0,0
		c-0.001-0.001-0.002-0.002-0.002-0.002c-0.001,0-0.001,0-0.001,0c-0.001-0.001-0.002-0.002-0.002-0.002l0,0
		c-0.002-0.002-0.004-0.004-0.006-0.006l0,0c-0.001-0.001-0.002-0.002-0.003-0.002c0,0,0,0,0,0
		c-0.001-0.001-0.001-0.001-0.002-0.002c-0.001,0-0.001,0-0.001,0c-0.001-0.001-0.001-0.001-0.002-0.002c0,0,0,0-0.001-0.001
		c0,0-0.001-0.001-0.001-0.002c-0.001,0-0.001,0-0.001-0.001c-0.001,0-0.002-0.001-0.002-0.002c-0.001,0-0.001,0-0.001,0
		c-0.001-0.001-0.002-0.001-0.003-0.002c0,0,0,0,0-0.001c-0.001,0-0.002-0.001-0.002-0.002c-0.001,0-0.001,0-0.001-0.001
		c-0.001,0-0.001-0.001-0.002-0.001c0,0-0.001-0.001-0.001-0.001c0,0-0.001-0.001-0.001-0.001c-0.001,0-0.001-0.001-0.002-0.001
		c0,0-0.001-0.001-0.001-0.001c0,0-0.001,0-0.001-0.001c-0.001,0-0.001-0.001-0.002-0.001c0,0-0.001-0.001-0.001-0.001
		c0,0-0.001,0-0.001-0.001c-0.001-0.001-0.003-0.002-0.004-0.004l0,0c0,0-0.001-0.001-0.002-0.001c0,0,0,0,0-0.001
		c-0.001,0-0.002-0.001-0.002-0.002l-0.001,0c-0.001,0-0.001-0.001-0.002-0.002c0,0,0,0-0.001,0c0-0.001-0.001-0.001-0.001-0.002
		c-0.001,0-0.001,0-0.001,0c-0.001,0-0.001-0.001-0.002-0.002l0,0c-0.003-0.003-0.006-0.006-0.01-0.01l0,0
		c-0.001-0.001-0.001-0.001-0.002-0.002c0,0,0,0,0,0c-0.001,0-0.002-0.001-0.002-0.002c-0.001,0-0.001,0-0.001,0
		C20.387,3.022,20.05,2.768,19.682,2.563L19.682,2.563z M17.5,2v1c0.073,0,0.146,0.002,0.217,0.006l0.061-0.998
		C17.697,2.003,17.616,2.001,17.535,2h-0.001c-0.001,0-0.002,0-0.003,0H17.53c-0.001,0-0.002,0-0.004,0l0,0
		c-0.003,0-0.006,0-0.009,0h-0.001c-0.001,0-0.002,0-0.003,0c0,0-0.001,0-0.002,0c0,0-0.001,0-0.002,0s-0.001,0-0.002,0
		s-0.002,0-0.002,0c-0.001,0-0.001,0-0.002,0S17.501,2,17.5,2L17.5,2L17.5,2z"/>
	<path fill="#FFFFFF" d="M6.5,5C7.328,5,8,5.672,8,6.5S7.328,8,6.5,8C5.671,8,5,7.328,5,6.5S5.671,5,6.5,5 M6.5,4
		C5.122,4,4,5.122,4,6.5S5.122,9,6.5,9S9,7.878,9,6.5S7.878,4,6.5,4L6.5,4z"/>
	<circle fill="#FFFFFF" cx="6.5" cy="6.5" r="0.5"/>
	<rect x="4" y="21" fill="#FFFFFF" width="7" height="1"/>
	<rect x="4" y="19" fill="#FFFFFF" width="7" height="1"/>
	<rect x="4" y="17" fill="#FFFFFF" width="7" height="1"/>
	<rect x="2" y="13" fill="#FFFFFF" width="9" height="2"/>
	<rect x="13" y="13" fill="#FFFFFF" width="9" height="2"/>
	<rect x="2" y="17" fill="#FFFFFF" width="1" height="1"/>
	<rect x="2" y="19" fill="#FFFFFF" width="1" height="1"/>
	<rect x="2" y="21" fill="#FFFFFF" width="1" height="1"/>
</g>
</svg>
