<?xml version="1.0" encoding="utf-8"?>
<!-- Generator: Adobe Illustrator 16.0.0, SVG Export Plug-In . SVG Version: 6.00 Build 0)  -->
<!DOCTYPE svg PUBLIC "-//W3C//DTD SVG 1.0//EN" "http://www.w3.org/TR/2001/REC-SVG-20010904/DTD/svg10.dtd">
<svg version="1.0" id="Layer_1" xmlns="http://www.w3.org/2000/svg" xmlns:xlink="http://www.w3.org/1999/xlink" x="0px" y="0px"
	 width="24px" height="24px" viewBox="0 0 24 24" enable-background="new 0 0 24 24" xml:space="preserve">
<g>
	<g>
		<path fill="#FFFFFF" d="M12,0C5.373,0,0,5.373,0,12s5.373,12,12,12s12-5.373,12-12S18.627,0,12,0z M12,23C5.935,23,1,18.064,1,12
			C1,5.935,5.935,1,12,1c6.064,0,11,4.935,11,11C23,18.064,18.064,23,12,23z"/>
	</g>
	<polygon fill="#FFFFFF" points="16.243,6.343 12,10.586 7.758,6.343 6.344,7.757 10.586,12 6.344,16.242 7.758,17.656 12,13.414 
		16.243,17.656 17.657,16.242 13.414,12 17.657,7.757 	"/>
</g>
</svg>
