<?xml version="1.0" encoding="utf-8"?>
<!-- Generator: Adobe Illustrator 16.0.0, SVG Export Plug-In . SVG Version: 6.00 Build 0)  -->
<!DOCTYPE svg PUBLIC "-//W3C//DTD SVG 1.1//EN" "http://www.w3.org/Graphics/SVG/1.1/DTD/svg11.dtd">
<svg version="1.1" id="Layer_1" xmlns="http://www.w3.org/2000/svg" xmlns:xlink="http://www.w3.org/1999/xlink" x="0px" y="0px"
	 width="24px" height="24px" viewBox="0 0 24 24" enable-background="new 0 0 24 24" xml:space="preserve">
<path fill="#FFFFFF" d="M12,0c-1.858,0-3.61,0.435-5.178,1.191C7.058,1.452,7.25,1.736,7.405,2.037C8.806,1.385,10.355,1,12,1
	c6.065,0,11,4.935,11,11s-4.935,11-11,11S1,18.065,1,12c0-2.358,0.762-4.533,2.031-6.324c0.266,0.123,0.55,0.191,0.837,0.191
	c0.351,0,0.699-0.099,1.011-0.282l6.767,6.769l0.707-0.707L5.587,4.878c0.451-0.767,0.354-1.767-0.304-2.425
	C4.893,2.062,4.381,1.867,3.869,1.867S2.846,2.062,2.455,2.453c-0.705,0.705-0.768,1.8-0.201,2.582C0.845,7.001,0,9.397,0,12
	c0,6.627,5.373,12,12,12c6.627,0,12-5.373,12-12S18.627,0,12,0z M3.162,3.16c0.189-0.188,0.44-0.293,0.707-0.293
	S4.387,2.972,4.576,3.16c0.39,0.39,0.39,1.024,0,1.414c-0.189,0.188-0.44,0.293-0.708,0.293c-0.267,0-0.518-0.104-0.707-0.293
	C2.772,4.185,2.772,3.55,3.162,3.16z"/>
</svg>
