<?xml version="1.0" encoding="utf-8"?>
<!-- Generator: Adobe Illustrator 16.0.0, SVG Export Plug-In . SVG Version: 6.00 Build 0)  -->
<!DOCTYPE svg PUBLIC "-//W3C//DTD SVG 1.0//EN" "http://www.w3.org/TR/2001/REC-SVG-20010904/DTD/svg10.dtd">
<svg version="1.0" id="Layer_1" xmlns="http://www.w3.org/2000/svg" xmlns:xlink="http://www.w3.org/1999/xlink" x="0px" y="0px"
	 width="16px" height="16px" viewBox="0 0 16 16" enable-background="new 0 0 16 16" xml:space="preserve">
<g>
	<g>
		<path fill="#A2A2AC" d="M8,0C3.582,0,0,3.582,0,8s3.582,8,8,8s8-3.582,8-8S12.418,0,8,0z M8.875,13.014
			C8.665,13.221,8.374,13.324,8,13.324c-0.383,0-0.679-0.102-0.889-0.305c-0.21-0.202-0.314-0.488-0.314-0.857
			c0-0.383,0.103-0.672,0.308-0.868S7.608,11,8,11c0.378,0,0.671,0.1,0.879,0.301c0.207,0.201,0.311,0.488,0.311,0.861
			C9.189,12.521,9.085,12.806,8.875,13.014z M11.131,6.782c-0.228,0.364-0.661,0.774-1.299,1.23
			c-0.438,0.323-0.715,0.569-0.83,0.738C8.885,8.92,8.827,9.141,8.827,9.414v0.41H7.016V9.318c0-0.438,0.094-0.818,0.28-1.142
			S7.824,7.51,8.321,7.145C8.8,6.803,9.115,6.525,9.268,6.311c0.153-0.215,0.229-0.453,0.229-0.718c0-0.296-0.109-0.522-0.328-0.677
			S8.645,4.684,8.253,4.684c-0.684,0-1.463,0.223-2.338,0.67L5.17,3.856c1.017-0.569,2.094-0.854,3.233-0.854
			c0.938,0,1.685,0.226,2.239,0.677c0.553,0.451,0.83,1.053,0.83,1.805C11.473,5.984,11.358,6.418,11.131,6.782z"/>
	</g>
</g>
</svg>
