<?xml version="1.0" encoding="utf-8"?>
<!-- Generator: Adobe Illustrator 16.0.0, SVG Export Plug-In . SVG Version: 6.00 Build 0)  -->
<!DOCTYPE svg PUBLIC "-//W3C//DTD SVG 1.0//EN" "http://www.w3.org/TR/2001/REC-SVG-20010904/DTD/svg10.dtd">
<svg version="1.0" id="Layer_1" xmlns="http://www.w3.org/2000/svg" xmlns:xlink="http://www.w3.org/1999/xlink" x="0px" y="0px"
	 width="24px" height="24px" viewBox="0 0 24 24" enable-background="new 0 0 24 24" xml:space="preserve">
<path fill="#FFFFFF" d="M6.5,3C8.43,3,10,4.57,10,6.5S8.43,10,6.5,10S3,8.43,3,6.5S4.57,3,6.5,3 M6.5,2C4.014,2,2,4.015,2,6.5
	S4.014,11,6.5,11C8.984,11,11,8.985,11,6.5S8.984,2,6.5,2L6.5,2z"/>
<path fill="#FFFFFF" d="M17.5,3C19.43,3,21,4.57,21,6.5S19.43,10,17.5,10S14,8.43,14,6.5S15.57,3,17.5,3 M17.5,2
	C15.015,2,13,4.015,13,6.5s2.015,4.5,4.5,4.5S22,8.985,22,6.5S19.985,2,17.5,2L17.5,2z"/>
<path fill="#FFFFFF" d="M6.5,5C7.328,5,8,5.671,8,6.5S7.328,8,6.5,8C5.671,8,5,7.329,5,6.5S5.671,5,6.5,5 M6.5,4
	C5.122,4,4,5.122,4,6.5S5.122,9,6.5,9S9,7.878,9,6.5S7.878,4,6.5,4L6.5,4z"/>
<path fill="#FFFFFF" d="M17.5,5C18.328,5,19,5.671,19,6.5S18.328,8,17.5,8S16,7.329,16,6.5S16.672,5,17.5,5 M17.5,4
	C16.121,4,15,5.122,15,6.5S16.121,9,17.5,9S20,7.878,20,6.5S18.879,4,17.5,4L17.5,4z"/>
<circle fill="#FFFFFF" cx="6.5" cy="6.5" r="0.5"/>
<circle fill="#FFFFFF" cx="17.5" cy="6.5" r="0.5"/>
<rect x="4" y="21" fill="#FFFFFF" width="7" height="1"/>
<rect x="4" y="19" fill="#FFFFFF" width="7" height="1"/>
<rect x="4" y="17" fill="#FFFFFF" width="7" height="1"/>
<rect x="2" y="13" fill="#FFFFFF" width="9" height="2"/>
<rect x="15" y="21" fill="#FFFFFF" width="7" height="1"/>
<rect x="15" y="19" fill="#FFFFFF" width="7" height="1"/>
<rect x="15" y="17" fill="#FFFFFF" width="7" height="1"/>
<rect x="13" y="13" fill="#FFFFFF" width="9" height="2"/>
<rect x="2" y="17" fill="#FFFFFF" width="1" height="1"/>
<rect x="2" y="19" fill="#FFFFFF" width="1" height="1"/>
<rect x="2" y="21" fill="#FFFFFF" width="1" height="1"/>
<rect x="13" y="17" fill="#FFFFFF" width="1" height="1"/>
<rect x="13" y="19" fill="#FFFFFF" width="1" height="1"/>
<rect x="13" y="21" fill="#FFFFFF" width="1" height="1"/>
</svg>
