<?xml version="1.0" encoding="utf-8"?>
<!-- Generator: Adobe Illustrator 16.0.0, SVG Export Plug-In . SVG Version: 6.00 Build 0)  -->
<!DOCTYPE svg PUBLIC "-//W3C//DTD SVG 1.0//EN" "http://www.w3.org/TR/2001/REC-SVG-20010904/DTD/svg10.dtd">
<svg version="1.0" id="Layer_1" xmlns="http://www.w3.org/2000/svg" xmlns:xlink="http://www.w3.org/1999/xlink" x="0px" y="0px"
	 width="28px" height="28px" viewBox="0 0 28 28" enable-background="new 0 0 28 28" xml:space="preserve">
<g>
	<polygon fill="#FFFFFF" points="19.394,22.527 18.896,21 18.4,22.527 16.794,22.527 18.094,23.471 17.598,25 18.896,24.055 
		20.196,25 19.7,23.471 21,22.527 	"/>
	<polygon fill="#FFFFFF" points="23.394,18.527 22.896,17 22.4,18.527 20.794,18.527 22.094,19.471 21.598,21 22.896,20.055 
		24.196,21 23.7,19.471 25,18.527 	"/>
	<polygon fill="#FFFFFF" points="26,13.527 24.394,13.527 23.896,12 23.4,13.527 21.794,13.527 23.094,14.471 22.598,16 
		23.896,15.055 25.196,16 24.7,14.471 	"/>
	<polygon fill="#FFFFFF" points="22.094,9.471 21.598,11 22.896,10.055 24.196,11 23.7,9.471 25,8.527 23.394,8.527 22.896,7 
		22.4,8.527 20.794,8.527 	"/>
	<polygon fill="#FFFFFF" points="17.598,7 18.896,6.055 20.196,7 19.7,5.471 21,4.527 19.394,4.527 18.896,3 18.4,4.527 
		16.794,4.527 18.094,5.471 	"/>
	<path fill="#FFFFFF" d="M14,2L14,2C9.916,2,6.314,4.044,4.146,7.161C4.146,7.162,4.146,7.162,4.145,7.163
		C2.796,9.104,2,11.458,2,14c0,2.543,0.797,4.896,2.146,6.838c0.001,0,0.001,0,0.001,0v0.001c1.116,1.604,2.613,2.92,4.362,3.822
		c0.002,0.002,0.004,0.003,0.006,0.004C10.16,25.513,12.021,26,14,26h0l0,0h1V2H14L14,2z M8.311,4.604
		c0.447,0.456,0.95,0.854,1.495,1.192C9.76,5.768,9.71,5.747,9.665,5.718C9.176,6.742,8.778,7.942,8.493,9.261
		C7.126,8.885,5.896,8.379,4.948,7.765C5.831,6.487,6.98,5.412,8.311,4.604z M10.527,6.197c0.908,0.441,1.912,0.707,2.973,0.773
		v3.012c-1.349-0.034-2.716-0.196-4.006-0.478c0.262-1.197,0.615-2.326,1.057-3.294C10.543,6.206,10.535,6.201,10.527,6.197z
		 M9.494,18.496c1.29-0.283,2.657-0.445,4.006-0.479v3.012c-1.062,0.066-2.065,0.333-2.974,0.774
		c0.009-0.004,0.016-0.01,0.024-0.014C10.109,20.822,9.756,19.692,9.494,18.496z M9.299,17.48c-0.164-0.979-0.261-1.984-0.286-2.98
		H13.5v2.518C12.016,17.048,10.595,17.203,9.299,17.48z M9.013,13.5c0.025-0.996,0.122-2.001,0.286-2.98
		c1.296,0.277,2.717,0.433,4.201,0.463V13.5H9.013z M4.426,8.604c1.033,0.686,2.359,1.251,3.877,1.664
		c-0.168,1.023-0.268,2.107-0.29,3.232H3.025C3.105,11.727,3.6,10.062,4.426,8.604z M3.025,14.5h4.987
		c0.023,1.125,0.122,2.209,0.29,3.232c-1.518,0.412-2.844,0.979-3.877,1.664C3.6,17.938,3.105,16.273,3.025,14.5z M8.311,23.396
		c-1.33-0.809-2.479-1.884-3.362-3.161c0.947-0.614,2.178-1.12,3.545-1.497c0.285,1.319,0.683,2.52,1.172,3.544
		c0.047-0.03,0.1-0.053,0.147-0.082C9.266,22.539,8.76,22.939,8.311,23.396z M13.5,24.971c-1.522-0.07-2.965-0.443-4.267-1.072
		c1.137-1.064,2.623-1.756,4.267-1.874V24.971z M13.5,5.976c-1.646-0.119-3.13-0.81-4.267-1.874C10.535,3.472,11.978,3.1,13.5,3.029
		V5.976z"/>
</g>
</svg>
