<?xml version="1.0" encoding="utf-8"?>
<!-- Generator: Adobe Illustrator 16.0.0, SVG Export Plug-In . SVG Version: 6.00 Build 0)  -->
<!DOCTYPE svg PUBLIC "-//W3C//DTD SVG 1.0//EN" "http://www.w3.org/TR/2001/REC-SVG-20010904/DTD/svg10.dtd">
<svg version="1.0" id="Layer_1" xmlns="http://www.w3.org/2000/svg" xmlns:xlink="http://www.w3.org/1999/xlink" x="0px" y="0px"
	 width="28px" height="28px" viewBox="0 0 28 28" enable-background="new 0 0 28 28" xml:space="preserve">
<path fill="#FFFFFF" d="M14,2C7.373,2,2,7.373,2,14c0,6.627,5.373,12,12,12c6.627,0,12-5.373,12-12C26,7.373,20.627,2,14,2z M25,14
	c0,1.823-0.453,3.541-1.241,5.057l-1.732-1C22.645,16.836,23,15.461,23,14c0-4.802-3.764-8.714-8.5-8.975v-2
	C20.332,3.29,25,8.104,25,14z M6,14c0-4.242,3.322-7.714,7.5-7.975V9.05C10.977,9.305,9,11.41,9,14c0,0.732,0.166,1.423,0.449,2.05
	l-2.606,1.505C6.309,16.481,6,15.277,6,14z M9.952,16.914C10.86,18.173,12.33,19,14,19c1.67,0,3.141-0.827,4.048-2.086l2.612,1.508
	C19.226,20.576,16.777,22,14,22c-2.777,0-5.226-1.424-6.661-3.577L9.952,16.914z M18.551,16.05C18.834,15.423,19,14.732,19,14
	c0-2.59-1.977-4.695-4.5-4.95V6.025C18.678,6.286,22,9.758,22,14c0,1.277-0.309,2.482-0.844,3.555L18.551,16.05z M13.5,3.025v2
	C8.763,5.286,5,9.198,5,14c0,1.461,0.356,2.836,0.974,4.057l-1.732,1C3.453,17.541,3,15.823,3,14C3,8.104,7.667,3.29,13.5,3.025z
	 M14,25c-3.885,0-7.298-2.029-9.256-5.079l1.727-0.997C8.079,21.377,10.848,23,14,23c3.152,0,5.921-1.623,7.529-4.076l1.727,0.997
	C21.299,22.971,17.885,25,14,25z"/>
</svg>
