<?xml version="1.0" encoding="utf-8"?>
<!-- Generator: Adobe Illustrator 16.0.0, SVG Export Plug-In . SVG Version: 6.00 Build 0)  -->
<!DOCTYPE svg PUBLIC "-//W3C//DTD SVG 1.0//EN" "http://www.w3.org/TR/2001/REC-SVG-20010904/DTD/svg10.dtd">
<svg version="1.0" id="Layer_1" xmlns="http://www.w3.org/2000/svg" xmlns:xlink="http://www.w3.org/1999/xlink" x="0px" y="0px"
	 width="28px" height="28px" viewBox="0 0 28 28" enable-background="new 0 0 28 28" xml:space="preserve">
<g>
	<path fill="#28282B" d="M18,3H5v22h18V8L18,3z M21,23H7V5h9v5h5V23z"/>
	<rect x="9" y="16" fill="#28282B" width="10" height="1"/>
	<rect x="9" y="14" fill="#28282B" width="10" height="1"/>
	<rect x="9" y="18" fill="#28282B" width="10" height="1"/>
	<rect x="9" y="20" fill="#28282B" width="5" height="1"/>
	<path fill="#28282B" d="M11.5,6C9.567,6,8,7.567,8,9.5S9.567,13,11.5,13S15,11.433,15,9.5S13.433,6,11.5,6z M11.5,7
		c0.813,0,1.53,0.396,1.987,1H9.513C9.97,7.396,10.687,7,11.5,7z M11.5,12c-0.813,0-1.53-0.396-1.987-1h3.975
		C13.03,11.604,12.313,12,11.5,12z M13.949,10H9.051C9.018,9.838,9,9.671,9,9.5S9.018,9.162,9.051,9h4.898
		C13.982,9.162,14,9.329,14,9.5S13.982,9.838,13.949,10z"/>
</g>
</svg>
