<?xml version="1.0" encoding="utf-8"?>
<!-- Generator: Adobe Illustrator 16.0.0, SVG Export Plug-In . SVG Version: 6.00 Build 0)  -->
<!DOCTYPE svg PUBLIC "-//W3C//DTD SVG 1.1//EN" "http://www.w3.org/Graphics/SVG/1.1/DTD/svg11.dtd">
<svg version="1.1" id="Layer_1" xmlns="http://www.w3.org/2000/svg" xmlns:xlink="http://www.w3.org/1999/xlink" x="0px" y="0px"
	 width="44px" height="44px" viewBox="0 0 44 44" enable-background="new 0 0 44 44" xml:space="preserve">
<g>
	<path fill="#A2A2AC" d="M33.978,15.334c0-1.104-0.896-2-2-2c-0.48,0-0.915,0.176-1.26,0.458C28.529,11.468,25.443,10,22,10
		c-6.627,0-12,5.373-12,12c0,0.123,0.012,0.242,0.019,0.363c-1.004,0.107-1.788,0.947-1.788,1.978c0,1.105,0.896,2,2,2
		c0.197,0,0.385-0.037,0.564-0.09C12.513,30.777,16.873,34,22,34c2.593,0,4.98-0.836,6.941-2.236
		c0.359,0.346,0.844,0.559,1.381,0.559c1.104,0,2-0.895,2-2c0-0.537-0.214-1.021-0.559-1.381C33.162,26.98,34,24.594,34,22
		c0-1.756-0.401-3.409-1.081-4.912C33.546,16.751,33.978,16.096,33.978,15.334z M31.978,14.334c0.552,0,1,0.448,1,1s-0.448,1-1,1
		s-1-0.448-1-1S31.426,14.334,31.978,14.334z M9.23,24.342c0-0.551,0.448-1,1-1s1,0.449,1,1c0,0.553-0.448,1-1,1
		S9.23,24.895,9.23,24.342z M30.322,31.322c-0.552,0-1-0.447-1-1c0-0.551,0.448-1,1-1s1,0.449,1,1
		C31.322,30.875,30.874,31.322,30.322,31.322z M30.908,28.42c-0.187-0.057-0.381-0.098-0.586-0.098c-1.104,0-2,0.896-2,2
		c0,0.205,0.04,0.4,0.098,0.586C26.611,32.217,24.398,33,22,33c-4.754,0-8.803-3.035-10.335-7.268
		c0.349-0.359,0.565-0.85,0.565-1.391c0-0.82-0.496-1.525-1.204-1.833C11.018,22.339,11,22.172,11,22c0-6.065,4.935-11,11-11
		c3.218,0,6.104,1.401,8.117,3.61c-0.087,0.225-0.14,0.468-0.14,0.724c0,1.09,0.873,1.973,1.957,1.996
		C32.606,18.751,33,20.328,33,22C33,24.398,32.217,26.611,30.908,28.42z"/>
	<path fill="#A2A2AC" d="M41.902,23.932C41.964,23.295,42,22.652,42,22c0-0.652-0.036-1.296-0.098-1.933
		c0.968-0.14,1.714-0.964,1.714-1.971c0-1.104-0.896-2-2-2c-0.169,0-0.33,0.027-0.487,0.066c-0.379-1.244-0.877-2.436-1.479-3.563
		c0.584-0.35,0.979-0.981,0.979-1.712c0-1.104-0.896-2-2-2c-0.447,0-0.856,0.152-1.189,0.4c-0.82-0.995-1.734-1.909-2.729-2.729
		c0.248-0.333,0.4-0.741,0.4-1.188c0-1.104-0.896-2-2-2c-0.73,0-1.362,0.396-1.711,0.979c-1.129-0.603-2.32-1.1-3.564-1.479
		c0.039-0.156,0.066-0.317,0.066-0.486c0-1.104-0.896-2-2-2c-1.007,0-1.831,0.746-1.971,1.714C23.295,2.037,22.652,2,22,2
		s-1.295,0.036-1.932,0.098c-0.14-0.968-0.964-1.714-1.971-1.714c-1.104,0-2,0.896-2,2c0,0.169,0.027,0.33,0.066,0.486
		c-1.244,0.38-2.436,0.877-3.563,1.479c-0.35-0.584-0.981-0.979-1.711-0.979c-1.104,0-2,0.896-2,2c0,0.446,0.151,0.854,0.399,1.188
		c-0.995,0.82-1.91,1.735-2.73,2.73c-0.333-0.248-0.741-0.4-1.188-0.4c-1.104,0-2,0.896-2,2c0,0.73,0.396,1.362,0.979,1.711
		c-0.603,1.129-1.1,2.32-1.479,3.564c-0.156-0.039-0.317-0.066-0.486-0.066c-1.104,0-2,0.896-2,2c0,1.007,0.746,1.831,1.714,1.971
		C2.036,20.706,2,21.348,2,22s0.036,1.294,0.098,1.931c-0.968,0.141-1.714,0.965-1.714,1.971c0,1.105,0.896,2,2,2
		c0.169,0,0.33-0.027,0.486-0.066C3.25,29.08,3.747,30.271,4.35,31.4c-0.584,0.35-0.979,0.98-0.979,1.711c0,1.105,0.896,2,2,2
		c0.447,0,0.855-0.152,1.188-0.4c0.82,0.996,1.734,1.91,2.729,2.73c-0.248,0.332-0.399,0.74-0.399,1.188c0,1.105,0.896,2,2,2
		c0.729,0,1.361-0.395,1.711-0.979c1.129,0.602,2.32,1.1,3.564,1.48c-0.039,0.156-0.066,0.316-0.066,0.484c0,1.105,0.896,2,2,2
		c1.006,0,1.831-0.746,1.971-1.713C20.705,41.965,21.348,42,22,42s1.295-0.035,1.932-0.098c0.14,0.967,0.965,1.713,1.971,1.713
		c1.104,0,2-0.895,2-2c0-0.168-0.027-0.328-0.066-0.484c1.244-0.381,2.436-0.877,3.564-1.48c0.349,0.584,0.98,0.979,1.71,0.979
		c1.104,0,2-0.896,2-2c0-0.447-0.151-0.855-0.398-1.188c0.995-0.82,1.909-1.734,2.729-2.73c0.333,0.248,0.741,0.4,1.188,0.4
		c1.104,0,2-0.896,2-2c0-0.73-0.396-1.363-0.979-1.711c0.603-1.129,1.101-2.32,1.479-3.564c0.156,0.039,0.317,0.066,0.486,0.066
		c1.104,0,2-0.896,2-2C43.616,24.895,42.87,24.07,41.902,23.932z M38.664,31.113c-0.012,0-0.022-0.002-0.034-0.002
		c-1.104,0-2,0.895-2,2c0,0.279,0.059,0.545,0.162,0.787c-0.858,1.064-1.828,2.033-2.894,2.893
		c-0.242-0.104-0.508-0.162-0.788-0.162c-1.104,0-2,0.895-2,2c0,0.012,0.003,0.023,0.004,0.035
		c-1.188,0.652-2.455,1.172-3.779,1.561c-0.363-0.375-0.87-0.609-1.433-0.609c-0.847,0-1.566,0.527-1.858,1.271
		C23.372,40.959,22.691,41,22,41s-1.372-0.041-2.044-0.113c-0.292-0.744-1.012-1.271-1.858-1.271c-0.562,0-1.069,0.234-1.433,0.609
		c-1.324-0.389-2.592-0.908-3.78-1.561c0.001-0.012,0.004-0.023,0.004-0.035c0-1.104-0.896-2-2-2c-0.279,0-0.546,0.059-0.787,0.162
		c-1.065-0.857-2.034-1.828-2.893-2.893c0.104-0.242,0.161-0.508,0.161-0.787c0-1.104-0.896-2-2-2c-0.012,0-0.022,0.004-0.033,0.004
		c-0.653-1.188-1.173-2.455-1.561-3.779c0.373-0.363,0.607-0.871,0.607-1.434c0-0.846-0.527-1.564-1.27-1.857
		C3.042,23.373,3,22.692,3,22s0.042-1.372,0.114-2.045c0.742-0.292,1.27-1.012,1.27-1.857c0-0.562-0.234-1.069-0.607-1.433
		c0.388-1.324,0.907-2.592,1.561-3.78c0.011,0.001,0.021,0.004,0.033,0.004c1.104,0,2-0.896,2-2c0-0.279-0.058-0.545-0.161-0.786
		c0.858-1.065,1.828-2.035,2.893-2.894c0.242,0.104,0.508,0.162,0.788,0.162c1.104,0,2-0.896,2-2c0-0.012-0.003-0.023-0.004-0.035
		c1.188-0.652,2.456-1.172,3.779-1.56c0.363,0.373,0.87,0.607,1.433,0.607c0.846,0,1.565-0.527,1.857-1.27
		C20.628,3.042,21.309,3,22,3s1.372,0.042,2.045,0.114c0.292,0.742,1.012,1.27,1.857,1.27c0.562,0,1.069-0.234,1.433-0.607
		c1.324,0.388,2.592,0.907,3.78,1.561c-0.001,0.011-0.004,0.021-0.004,0.033c0,1.104,0.896,2,2,2c0.279,0,0.545-0.058,0.786-0.161
		c1.065,0.858,2.035,1.828,2.894,2.893c-0.104,0.241-0.161,0.507-0.161,0.786c0,1.104,0.896,2,2,2c0.012,0,0.021-0.003,0.033-0.003
		c0.652,1.188,1.172,2.455,1.561,3.779c-0.374,0.364-0.607,0.87-0.607,1.433c0,0.846,0.527,1.565,1.27,1.857
		C40.958,20.627,41,21.309,41,22c0,0.69-0.042,1.373-0.114,2.044c-0.742,0.291-1.27,1.012-1.27,1.857
		c0,0.562,0.234,1.068,0.608,1.432C39.836,28.658,39.316,29.926,38.664,31.113z"/>
	<path fill="#A2A2AC" d="M22,19c-1.657,0-3,1.344-3,3c0,1.656,1.343,3,3,3s3-1.344,3-3C25,20.344,23.657,19,22,19z M22,24
		c-1.103,0-2-0.896-2-2c0-1.103,0.897-2,2-2s2,0.897,2,2C24,23.104,23.103,24,22,24z"/>
</g>
</svg>
