<?xml version="1.0" encoding="utf-8"?>
<!-- Generator: Adobe Illustrator 16.0.0, SVG Export Plug-In . SVG Version: 6.00 Build 0)  -->
<!DOCTYPE svg PUBLIC "-//W3C//DTD SVG 1.0//EN" "http://www.w3.org/TR/2001/REC-SVG-20010904/DTD/svg10.dtd">
<svg version="1.0" id="Layer_1" xmlns="http://www.w3.org/2000/svg" xmlns:xlink="http://www.w3.org/1999/xlink" x="0px" y="0px"
	 width="28px" height="28px" viewBox="0 0 28 28" enable-background="new 0 0 28 28" xml:space="preserve">
<path fill="#28282B" d="M23,14c-0.315,0-0.61,0.08-0.876,0.21l-1.686-1.966l2.261-5.274C22.798,6.985,22.896,7,23,7
	c1.104,0,2-0.896,2-2s-0.896-2-2-2s-2,0.896-2,2c0,0.644,0.31,1.209,0.781,1.576l-2.067,4.823l-1.076-1.256
	C18.864,9.819,19,9.426,19,9c0-1.104-0.896-2-2-2c-0.703,0-1.319,0.365-1.676,0.914l-2.338-0.779C12.989,7.089,13,7.046,13,7
	c0-1.104-0.896-2-2-2S9,5.896,9,7c0,0.306,0.074,0.592,0.197,0.852l-3.033,2.527C5.835,10.143,5.436,10,5,10c-1.104,0-2,0.896-2,2
	s0.896,2,2,2s2-0.896,2-2c0-0.306-0.074-0.592-0.197-0.852l3.033-2.528C10.165,8.857,10.564,9,11,9c0.704,0,1.319-0.365,1.676-0.914
	l2.338,0.779C15.011,8.91,15,8.954,15,9c0,1.104,0.896,2,2,2c0.315,0,0.61-0.08,0.876-0.21l1.399,1.632l-1.975,4.608
	C17.202,17.016,17.104,17,17,17c-0.512,0-0.974,0.198-1.327,0.514l-2.791-1.86C12.953,15.447,13,15.23,13,15c0-1.104-0.896-2-2-2
	s-2,0.896-2,2c0,0.472,0.17,0.899,0.443,1.242l-3.682,4.909C5.526,21.055,5.27,21,5,21c-1.104,0-2,0.896-2,2s0.896,2,2,2
	s2-0.896,2-2c0-0.472-0.17-0.899-0.443-1.242l3.682-4.91C10.474,16.945,10.73,17,11,17c0.512,0,0.974-0.198,1.328-0.515l2.791,1.861
	C15.047,18.553,15,18.77,15,19c0,1.104,0.896,2,2,2s2-0.896,2-2c0-0.644-0.31-1.21-0.781-1.575L20,13.268l1.362,1.589
	C21.136,15.182,21,15.574,21,16c0,1.104,0.896,2,2,2s2-0.896,2-2S24.104,14,23,14z M23,4c0.551,0,1,0.449,1,1s-0.449,1-1,1
	s-1-0.449-1-1S22.449,4,23,4z M5,24c-0.551,0-1-0.449-1-1s0.449-1,1-1s1,0.449,1,1S5.551,24,5,24z M11,16c-0.551,0-1-0.449-1-1
	c0-0.551,0.449-1,1-1s1,0.449,1,1C12,15.551,11.551,16,11,16z M17,20c-0.551,0-1-0.449-1-1s0.449-1,1-1s1,0.449,1,1S17.551,20,17,20
	z"/>
</svg>
