<?xml version="1.0" encoding="utf-8"?>
<!-- Generator: Adobe Illustrator 16.0.0, SVG Export Plug-In . SVG Version: 6.00 Build 0)  -->
<!DOCTYPE svg PUBLIC "-//W3C//DTD SVG 1.0//EN" "http://www.w3.org/TR/2001/REC-SVG-20010904/DTD/svg10.dtd">
<svg version="1.0" id="Layer_1" xmlns="http://www.w3.org/2000/svg" xmlns:xlink="http://www.w3.org/1999/xlink" x="0px" y="0px"
	 width="24px" height="24px" viewBox="0 0 24 24" enable-background="new 0 0 24 24" xml:space="preserve">
<g>
	<polygon fill="#28282B" points="3,2 2,2 2,22 22,22 22,21 3,21 	"/>
	<path fill="#28282B" d="M6,17c1.103,0,2-0.896,2-2c0-0.37-0.107-0.712-0.283-1.01l2.274-2.273C10.288,11.893,10.63,12,11,12
		c0.66,0,1.241-0.325,1.605-0.819l1.42,0.568C14.015,11.832,14,11.914,14,12c0,1.104,0.896,2,2,2s2-0.896,2-2
		c0-0.601-0.271-1.133-0.691-1.5l2.273-4.545C19.717,5.983,19.856,6,20,6c1.104,0,2-0.897,2-2s-0.896-2-2-2s-2,0.897-2,2
		c0,0.601,0.271,1.133,0.691,1.5l-2.273,4.545C16.283,10.017,16.144,10,16,10c-0.66,0-1.241,0.325-1.605,0.819l-1.42-0.568
		C12.985,10.168,13,10.086,13,10c0-1.103-0.896-2-2-2c-1.103,0-2,0.897-2,2c0,0.37,0.107,0.712,0.283,1.009L7.01,13.283
		C6.712,13.107,6.37,13,6,13c-1.103,0-2,0.896-2,2S4.897,17,6,17z M20,3c0.551,0,1,0.449,1,1s-0.449,1-1,1s-1-0.449-1-1
		S19.449,3,20,3z M16,11c0.551,0,1,0.449,1,1s-0.449,1-1,1s-1-0.449-1-1S15.449,11,16,11z M11,9c0.551,0,1,0.449,1,1s-0.449,1-1,1
		s-1-0.449-1-1S10.449,9,11,9z M6,14c0.551,0,1,0.449,1,1s-0.449,1-1,1s-1-0.449-1-1S5.449,14,6,14z"/>
</g>
</svg>
