<?xml version="1.0" encoding="UTF-8" standalone="no"?>
<!-- Generator: Adobe Illustrator 16.0.0, SVG Export Plug-In . SVG Version: 6.00 Build 0)  -->

<svg
   xmlns:dc="http://purl.org/dc/elements/1.1/"
   xmlns:cc="http://creativecommons.org/ns#"
   xmlns:rdf="http://www.w3.org/1999/02/22-rdf-syntax-ns#"
   xmlns:svg="http://www.w3.org/2000/svg"
   xmlns="http://www.w3.org/2000/svg"
   xmlns:sodipodi="http://sodipodi.sourceforge.net/DTD/sodipodi-0.dtd"
   xmlns:inkscape="http://www.inkscape.org/namespaces/inkscape"
   version="1.0"
   id="Layer_1"
   x="0px"
   y="0px"
   width="18"
   height="18"
   viewBox="0 0 18 18"
   enable-background="new 0 0 40 44"
   xml:space="preserve"
   inkscape:version="0.48.4 r9939"
   sodipodi:docname="exploraBT_ico_.svg"><metadata
     id="metadata9"><rdf:RDF><cc:Work
         rdf:about=""><dc:format>image/svg+xml</dc:format><dc:type
           rdf:resource="http://purl.org/dc/dcmitype/StillImage" /><dc:title></dc:title></cc:Work></rdf:RDF></metadata><defs
     id="defs7" /><sodipodi:namedview
     pagecolor="#ffffff"
     bordercolor="#666666"
     borderopacity="1"
     objecttolerance="10"
     gridtolerance="10"
     guidetolerance="10"
     inkscape:pageopacity="0"
     inkscape:pageshadow="2"
     inkscape:window-width="1680"
     inkscape:window-height="985"
     id="namedview5"
     showgrid="false"
     inkscape:zoom="30.341309"
     inkscape:cx="10.265873"
     inkscape:cy="10.691428"
     inkscape:window-x="-4"
     inkscape:window-y="-6"
     inkscape:window-maximized="1"
     inkscape:current-layer="Layer_1" /><path
     d="m 15.404477,2.6614389 c -1.628,-1.629 -3.878,-2.636 -6.3639992,-2.636 -1.02,0 -1.995,0.177 -2.909,0.49 0.216,0.265 0.404,0.55 0.547,0.865 0.756,-0.233 1.55,-0.355 2.362,-0.355 2.1379992,0 4.1459992,0.832 5.6569992,2.343 1.511,1.5110004 2.343,3.5200004 2.343,5.6570004 0,2.1359997 -0.832,4.1459997 -2.343,5.6569997 -1.51,1.511 -3.519,2.343 -5.6569992,2.343 -2.138,0 -4.146,-0.832 -5.657,-2.343 -1.511,-1.511 -2.343,-3.52 -2.343,-5.6569997 0,-1.5 0.425,-2.928 1.196,-4.171 0.246,0.109 0.517,0.171 0.804,0.171 0.371,0 0.713,-0.107 1.01,-0.283 l 4.636,4.637 0.707,-0.707 -4.636,-4.6370004 c 0.176,-0.298 0.283,-0.64 0.283,-1.01 0,-1.105 -0.896,-2 -2,-2 -1.104,0 -2,0.895 -2,2 0,0.457 0.159,0.873 0.417,1.209 -0.88399993,1.3890004 -1.41699993,3.0220004 -1.41699993,4.7910004 0,2.4849997 1.00799993,4.7349997 2.63599993,6.3639997 1.629,1.629 3.879,2.636 6.364,2.636 2.4859992,0 4.7359992,-1.007 6.3639992,-2.636 1.629,-1.629 2.636,-3.879 2.636,-6.3639997 0,-2.485 -1.007,-4.7350004 -2.636,-6.3640004 z m -12.3639992,-0.636 c 0.552,0 1,0.449 1,1 0,0.551 -0.448,1 -1,1 -0.552,0 -1,-0.449 -1,-1 0,-0.551 0.448,-1 1,-1 z"
     id="path3"
     inkscape:connector-curvature="0"
     style="fill:#d6d6d6" /></svg>